ISO-10303-21;
HEADER;
FILE_DESCRIPTION(('Open CASCADE Model'),'2;1');
FILE_NAME('Open CASCADE Shape Model','2026-08-01T03:07:21',('Author'),(
    'Open CASCADE'),'Open CASCADE STEP processor 7.9','Open CASCADE 7.9'
  ,'Unknown');
FILE_SCHEMA(('AUTOMOTIVE_DESIGN { 1 0 10303 214 1 1 1 1 }'));
ENDSEC;
DATA;
#1 = APPLICATION_PROTOCOL_DEFINITION('international standard',
  'automotive_design',2000,#2);
#2 = APPLICATION_CONTEXT(
  'core data for automotive mechanical design processes');
#3 = SHAPE_DEFINITION_REPRESENTATION(#4,#10);
#4 = PRODUCT_DEFINITION_SHAPE('','',#5);
#5 = PRODUCT_DEFINITION('design','',#6,#9);
#6 = PRODUCT_DEFINITION_FORMATION('','',#7);
#7 = PRODUCT('Open CASCADE STEP translator 7.9 2',
  'Open CASCADE STEP translator 7.9 2','',(#8));
#8 = PRODUCT_CONTEXT('',#2,'mechanical');
#9 = PRODUCT_DEFINITION_CONTEXT('part definition',#2,'design');
#10 = ADVANCED_BREP_SHAPE_REPRESENTATION('',(#11,#15),#1731);
#11 = AXIS2_PLACEMENT_3D('',#12,#13,#14);
#12 = CARTESIAN_POINT('',(0.,0.,0.));
#13 = DIRECTION('',(0.,0.,1.));
#14 = DIRECTION('',(1.,0.,-0.));
#15 = MANIFOLD_SOLID_BREP('',#16);
#16 = CLOSED_SHELL('',(#17,#139,#209,#288,#333,#396,#403,#458,#513,#517,
    #552,#1271,#1348,#1397,#1447,#1496,#1545,#1594,#1643,#1692,#1719));
#17 = ADVANCED_FACE('',(#18),#32,.T.);
#18 = FACE_BOUND('',#19,.T.);
#19 = EDGE_LOOP('',(#20,#53,#86,#112));
#20 = ORIENTED_EDGE('',*,*,#21,.T.);
#21 = EDGE_CURVE('',#22,#24,#26,.T.);
#22 = VERTEX_POINT('',#23);
#23 = CARTESIAN_POINT('',(2.819131071802,4.25,-2.5));
#24 = VERTEX_POINT('',#25);
#25 = CARTESIAN_POINT('',(2.819131071802,4.25,-1.5));
#26 = SURFACE_CURVE('',#27,(#31,#42),.PCURVE_S1.);
#27 = LINE('',#28,#29);
#28 = CARTESIAN_POINT('',(2.819131071802,4.25,-1.5));
#29 = VECTOR('',#30,1.);
#30 = DIRECTION('',(0.,0.,1.));
#31 = PCURVE('',#32,#37);
#32 = CYLINDRICAL_SURFACE('',#33,5.1);
#33 = AXIS2_PLACEMENT_3D('',#34,#35,#36);
#34 = CARTESIAN_POINT('',(0.,0.,-1.5));
#35 = DIRECTION('',(0.,0.,1.));
#36 = DIRECTION('',(1.,0.,0.));
#37 = DEFINITIONAL_REPRESENTATION('',(#38),#41);
#38 = B_SPLINE_CURVE_WITH_KNOTS('',1,(#39,#40),.UNSPECIFIED.,.F.,.F.,(2,
    2),(-1.,0.),.PIECEWISE_BEZIER_KNOTS.);
#39 = CARTESIAN_POINT('',(7.268296090517,-1.));
#40 = CARTESIAN_POINT('',(7.268296090517,0.));
#41 = ( GEOMETRIC_REPRESENTATION_CONTEXT(2) 
PARAMETRIC_REPRESENTATION_CONTEXT() REPRESENTATION_CONTEXT('2D SPACE',''
  ) );
#42 = PCURVE('',#43,#48);
#43 = PLANE('',#44);
#44 = AXIS2_PLACEMENT_3D('',#45,#46,#47);
#45 = CARTESIAN_POINT('',(-10.2,4.25,-50.));
#46 = DIRECTION('',(0.,1.,0.));
#47 = DIRECTION('',(0.,0.,1.));
#48 = DEFINITIONAL_REPRESENTATION('',(#49),#52);
#49 = B_SPLINE_CURVE_WITH_KNOTS('',1,(#50,#51),.UNSPECIFIED.,.F.,.F.,(2,
    2),(-1.0000006,5.999999999062E-07),.PIECEWISE_BEZIER_KNOTS.);
#50 = CARTESIAN_POINT('',(47.4999994,13.019131071802));
#51 = CARTESIAN_POINT('',(48.5000006,13.019131071802));
#52 = ( GEOMETRIC_REPRESENTATION_CONTEXT(2) 
PARAMETRIC_REPRESENTATION_CONTEXT() REPRESENTATION_CONTEXT('2D SPACE',''
  ) );
#53 = ORIENTED_EDGE('',*,*,#54,.T.);
#54 = EDGE_CURVE('',#24,#55,#57,.T.);
#55 = VERTEX_POINT('',#56);
#56 = CARTESIAN_POINT('',(2.819131071802,-4.25,-1.5));
#57 = SURFACE_CURVE('',#58,(#63,#70),.PCURVE_S1.);
#58 = CIRCLE('',#59,5.1);
#59 = AXIS2_PLACEMENT_3D('',#60,#61,#62);
#60 = CARTESIAN_POINT('',(0.,0.,-1.5));
#61 = DIRECTION('',(0.,0.,-1.));
#62 = DIRECTION('',(0.552770798393,0.833333333333,0.));
#63 = PCURVE('',#32,#64);
#64 = DEFINITIONAL_REPRESENTATION('',(#65),#69);
#65 = LINE('',#66,#67);
#66 = CARTESIAN_POINT('',(7.268296090517,0.));
#67 = VECTOR('',#68,1.);
#68 = DIRECTION('',(-1.,-0.));
#69 = ( GEOMETRIC_REPRESENTATION_CONTEXT(2) 
PARAMETRIC_REPRESENTATION_CONTEXT() REPRESENTATION_CONTEXT('2D SPACE',''
  ) );
#70 = PCURVE('',#71,#76);
#71 = PLANE('',#72);
#72 = AXIS2_PLACEMENT_3D('',#73,#74,#75);
#73 = CARTESIAN_POINT('',(-2.681255161842E-16,5.961865926976E-16,-1.5));
#74 = DIRECTION('',(0.,0.,1.));
#75 = DIRECTION('',(1.,0.,-0.));
#76 = DEFINITIONAL_REPRESENTATION('',(#77),#85);
#77 = ( BOUNDED_CURVE() B_SPLINE_CURVE(2,(#78,#79,#80,#81,#82,#83,#84),
.UNSPECIFIED.,.T.,.F.) B_SPLINE_CURVE_WITH_KNOTS((1,2,2,2,2,1),(
    -2.094395102393,0.,2.094395102393,4.188790204786,6.28318530718,
8.377580409573),.UNSPECIFIED.) CURVE() GEOMETRIC_REPRESENTATION_ITEM() 
RATIONAL_B_SPLINE_CURVE((1.,0.5,1.,0.5,1.,0.5,1.)) REPRESENTATION_ITEM(
  '') );
#78 = CARTESIAN_POINT('',(2.819131071802,4.25));
#79 = CARTESIAN_POINT('',(10.18034700397,-0.632878249557));
#80 = CARTESIAN_POINT('',(2.271042430183,-4.566439124779));
#81 = CARTESIAN_POINT('',(-5.638262143604,-8.5));
#82 = CARTESIAN_POINT('',(-5.090173501985,0.316439124779));
#83 = CARTESIAN_POINT('',(-4.542084860366,9.132878249557));
#84 = CARTESIAN_POINT('',(2.819131071802,4.25));
#85 = ( GEOMETRIC_REPRESENTATION_CONTEXT(2) 
PARAMETRIC_REPRESENTATION_CONTEXT() REPRESENTATION_CONTEXT('2D SPACE',''
  ) );
#86 = ORIENTED_EDGE('',*,*,#87,.F.);
#87 = EDGE_CURVE('',#88,#55,#90,.T.);
#88 = VERTEX_POINT('',#89);
#89 = CARTESIAN_POINT('',(2.819131071802,-4.25,-2.5));
#90 = SURFACE_CURVE('',#91,(#95,#101),.PCURVE_S1.);
#91 = LINE('',#92,#93);
#92 = CARTESIAN_POINT('',(2.819131071802,-4.25,-1.5));
#93 = VECTOR('',#94,1.);
#94 = DIRECTION('',(0.,0.,1.));
#95 = PCURVE('',#32,#96);
#96 = DEFINITIONAL_REPRESENTATION('',(#97),#100);
#97 = B_SPLINE_CURVE_WITH_KNOTS('',1,(#98,#99),.UNSPECIFIED.,.F.,.F.,(2,
    2),(-1.0000006,5.999999999062E-07),.PIECEWISE_BEZIER_KNOTS.);
#98 = CARTESIAN_POINT('',(5.298074523842,-1.0000006));
#99 = CARTESIAN_POINT('',(5.298074523842,5.999999999062E-07));
#100 = ( GEOMETRIC_REPRESENTATION_CONTEXT(2) 
PARAMETRIC_REPRESENTATION_CONTEXT() REPRESENTATION_CONTEXT('2D SPACE',''
  ) );
#101 = PCURVE('',#102,#107);
#102 = PLANE('',#103);
#103 = AXIS2_PLACEMENT_3D('',#104,#105,#106);
#104 = CARTESIAN_POINT('',(-10.2,-4.25,-50.));
#105 = DIRECTION('',(0.,1.,0.));
#106 = DIRECTION('',(0.,0.,1.));
#107 = DEFINITIONAL_REPRESENTATION('',(#108),#111);
#108 = B_SPLINE_CURVE_WITH_KNOTS('',1,(#109,#110),.UNSPECIFIED.,.F.,.F.,
  (2,2),(-1.0000006,5.999999999062E-07),.PIECEWISE_BEZIER_KNOTS.);
#109 = CARTESIAN_POINT('',(47.4999994,13.019131071802));
#110 = CARTESIAN_POINT('',(48.5000006,13.019131071802));
#111 = ( GEOMETRIC_REPRESENTATION_CONTEXT(2) 
PARAMETRIC_REPRESENTATION_CONTEXT() REPRESENTATION_CONTEXT('2D SPACE',''
  ) );
#112 = ORIENTED_EDGE('',*,*,#113,.T.);
#113 = EDGE_CURVE('',#88,#22,#114,.T.);
#114 = SURFACE_CURVE('',#115,(#120,#127),.PCURVE_S1.);
#115 = CIRCLE('',#116,5.1);
#116 = AXIS2_PLACEMENT_3D('',#117,#118,#119);
#117 = CARTESIAN_POINT('',(0.,0.,-2.5));
#118 = DIRECTION('',(0.,0.,1.));
#119 = DIRECTION('',(-0.552770798393,0.833333333333,0.));
#120 = PCURVE('',#32,#121);
#121 = DEFINITIONAL_REPRESENTATION('',(#122),#126);
#122 = LINE('',#123,#124);
#123 = CARTESIAN_POINT('',(2.156481870252,-1.));
#124 = VECTOR('',#125,1.);
#125 = DIRECTION('',(1.,0.));
#126 = ( GEOMETRIC_REPRESENTATION_CONTEXT(2) 
PARAMETRIC_REPRESENTATION_CONTEXT() REPRESENTATION_CONTEXT('2D SPACE',''
  ) );
#127 = PCURVE('',#128,#133);
#128 = PLANE('',#129);
#129 = AXIS2_PLACEMENT_3D('',#130,#131,#132);
#130 = CARTESIAN_POINT('',(-2.681255161842E-16,5.961865926976E-16,-2.5)
  );
#131 = DIRECTION('',(0.,0.,1.));
#132 = DIRECTION('',(1.,0.,-0.));
#133 = DEFINITIONAL_REPRESENTATION('',(#134),#138);
#134 = CIRCLE('',#135,5.1);
#135 = AXIS2_PLACEMENT_2D('',#136,#137);
#136 = CARTESIAN_POINT('',(2.681255161842E-16,-5.961865926976E-16));
#137 = DIRECTION('',(-0.552770798393,0.833333333333));
#138 = ( GEOMETRIC_REPRESENTATION_CONTEXT(2) 
PARAMETRIC_REPRESENTATION_CONTEXT() REPRESENTATION_CONTEXT('2D SPACE',''
  ) );
#139 = ADVANCED_FACE('',(#140),#43,.T.);
#140 = FACE_BOUND('',#141,.T.);
#141 = EDGE_LOOP('',(#142,#143,#164,#190));
#142 = ORIENTED_EDGE('',*,*,#21,.F.);
#143 = ORIENTED_EDGE('',*,*,#144,.T.);
#144 = EDGE_CURVE('',#22,#145,#147,.T.);
#145 = VERTEX_POINT('',#146);
#146 = CARTESIAN_POINT('',(-2.819131071802,4.25,-2.5));
#147 = SURFACE_CURVE('',#148,(#152,#158),.PCURVE_S1.);
#148 = LINE('',#149,#150);
#149 = CARTESIAN_POINT('',(-5.1,4.25,-2.5));
#150 = VECTOR('',#151,1.);
#151 = DIRECTION('',(-1.,0.,0.));
#152 = PCURVE('',#43,#153);
#153 = DEFINITIONAL_REPRESENTATION('',(#154),#157);
#154 = B_SPLINE_CURVE_WITH_KNOTS('',1,(#155,#156),.UNSPECIFIED.,.F.,.F.,
  (2,2),(-10.2,0.),.PIECEWISE_BEZIER_KNOTS.);
#155 = CARTESIAN_POINT('',(47.5,15.3));
#156 = CARTESIAN_POINT('',(47.5,5.1));
#157 = ( GEOMETRIC_REPRESENTATION_CONTEXT(2) 
PARAMETRIC_REPRESENTATION_CONTEXT() REPRESENTATION_CONTEXT('2D SPACE',''
  ) );
#158 = PCURVE('',#128,#159);
#159 = DEFINITIONAL_REPRESENTATION('',(#160),#163);
#160 = B_SPLINE_CURVE_WITH_KNOTS('',1,(#161,#162),.UNSPECIFIED.,.F.,.F.,
  (2,2),(-10.2,0.),.PIECEWISE_BEZIER_KNOTS.);
#161 = CARTESIAN_POINT('',(5.1,4.25));
#162 = CARTESIAN_POINT('',(-5.1,4.25));
#163 = ( GEOMETRIC_REPRESENTATION_CONTEXT(2) 
PARAMETRIC_REPRESENTATION_CONTEXT() REPRESENTATION_CONTEXT('2D SPACE',''
  ) );
#164 = ORIENTED_EDGE('',*,*,#165,.T.);
#165 = EDGE_CURVE('',#145,#166,#168,.T.);
#166 = VERTEX_POINT('',#167);
#167 = CARTESIAN_POINT('',(-2.819131071802,4.25,-1.5));
#168 = SURFACE_CURVE('',#169,(#173,#179),.PCURVE_S1.);
#169 = LINE('',#170,#171);
#170 = CARTESIAN_POINT('',(-2.819131071802,4.25,-1.5));
#171 = VECTOR('',#172,1.);
#172 = DIRECTION('',(0.,0.,1.));
#173 = PCURVE('',#43,#174);
#174 = DEFINITIONAL_REPRESENTATION('',(#175),#178);
#175 = B_SPLINE_CURVE_WITH_KNOTS('',1,(#176,#177),.UNSPECIFIED.,.F.,.F.,
  (2,2),(-1.0000006,5.999999999062E-07),.PIECEWISE_BEZIER_KNOTS.);
#176 = CARTESIAN_POINT('',(47.4999994,7.380868928198));
#177 = CARTESIAN_POINT('',(48.5000006,7.380868928198));
#178 = ( GEOMETRIC_REPRESENTATION_CONTEXT(2) 
PARAMETRIC_REPRESENTATION_CONTEXT() REPRESENTATION_CONTEXT('2D SPACE',''
  ) );
#179 = PCURVE('',#180,#185);
#180 = CYLINDRICAL_SURFACE('',#181,5.1);
#181 = AXIS2_PLACEMENT_3D('',#182,#183,#184);
#182 = CARTESIAN_POINT('',(0.,0.,-1.5));
#183 = DIRECTION('',(0.,0.,1.));
#184 = DIRECTION('',(1.,0.,0.));
#185 = DEFINITIONAL_REPRESENTATION('',(#186),#189);
#186 = B_SPLINE_CURVE_WITH_KNOTS('',1,(#187,#188),.UNSPECIFIED.,.F.,.F.,
  (2,2),(-1.,0.),.PIECEWISE_BEZIER_KNOTS.);
#187 = CARTESIAN_POINT('',(2.156481870252,-1.));
#188 = CARTESIAN_POINT('',(2.156481870252,0.));
#189 = ( GEOMETRIC_REPRESENTATION_CONTEXT(2) 
PARAMETRIC_REPRESENTATION_CONTEXT() REPRESENTATION_CONTEXT('2D SPACE',''
  ) );
#190 = ORIENTED_EDGE('',*,*,#191,.F.);
#191 = EDGE_CURVE('',#24,#166,#192,.T.);
#192 = SURFACE_CURVE('',#193,(#197,#203),.PCURVE_S1.);
#193 = LINE('',#194,#195);
#194 = CARTESIAN_POINT('',(-5.1,4.25,-1.5));
#195 = VECTOR('',#196,1.);
#196 = DIRECTION('',(-1.,0.,0.));
#197 = PCURVE('',#43,#198);
#198 = DEFINITIONAL_REPRESENTATION('',(#199),#202);
#199 = B_SPLINE_CURVE_WITH_KNOTS('',1,(#200,#201),.UNSPECIFIED.,.F.,.F.,
  (2,2),(-10.2,0.),.PIECEWISE_BEZIER_KNOTS.);
#200 = CARTESIAN_POINT('',(48.5,15.3));
#201 = CARTESIAN_POINT('',(48.5,5.1));
#202 = ( GEOMETRIC_REPRESENTATION_CONTEXT(2) 
PARAMETRIC_REPRESENTATION_CONTEXT() REPRESENTATION_CONTEXT('2D SPACE',''
  ) );
#203 = PCURVE('',#71,#204);
#204 = DEFINITIONAL_REPRESENTATION('',(#205),#208);
#205 = B_SPLINE_CURVE_WITH_KNOTS('',1,(#206,#207),.UNSPECIFIED.,.F.,.F.,
  (2,2),(-10.2,0.),.PIECEWISE_BEZIER_KNOTS.);
#206 = CARTESIAN_POINT('',(5.1,4.25));
#207 = CARTESIAN_POINT('',(-5.1,4.25));
#208 = ( GEOMETRIC_REPRESENTATION_CONTEXT(2) 
PARAMETRIC_REPRESENTATION_CONTEXT() REPRESENTATION_CONTEXT('2D SPACE',''
  ) );
#209 = ADVANCED_FACE('',(#210,#257),#128,.F.);
#210 = FACE_BOUND('',#211,.F.);
#211 = EDGE_LOOP('',(#212,#213,#237,#256));
#212 = ORIENTED_EDGE('',*,*,#144,.T.);
#213 = ORIENTED_EDGE('',*,*,#214,.T.);
#214 = EDGE_CURVE('',#145,#215,#217,.T.);
#215 = VERTEX_POINT('',#216);
#216 = CARTESIAN_POINT('',(-2.819131071802,-4.25,-2.5));
#217 = SURFACE_CURVE('',#218,(#223,#230),.PCURVE_S1.);
#218 = CIRCLE('',#219,5.1);
#219 = AXIS2_PLACEMENT_3D('',#220,#221,#222);
#220 = CARTESIAN_POINT('',(0.,0.,-2.5));
#221 = DIRECTION('',(0.,0.,1.));
#222 = DIRECTION('',(-0.552770798393,0.833333333333,0.));
#223 = PCURVE('',#128,#224);
#224 = DEFINITIONAL_REPRESENTATION('',(#225),#229);
#225 = CIRCLE('',#226,5.1);
#226 = AXIS2_PLACEMENT_2D('',#227,#228);
#227 = CARTESIAN_POINT('',(2.681255161842E-16,-5.961865926976E-16));
#228 = DIRECTION('',(-0.552770798393,0.833333333333));
#229 = ( GEOMETRIC_REPRESENTATION_CONTEXT(2) 
PARAMETRIC_REPRESENTATION_CONTEXT() REPRESENTATION_CONTEXT('2D SPACE',''
  ) );
#230 = PCURVE('',#180,#231);
#231 = DEFINITIONAL_REPRESENTATION('',(#232),#236);
#232 = LINE('',#233,#234);
#233 = CARTESIAN_POINT('',(2.156481870252,-1.));
#234 = VECTOR('',#235,1.);
#235 = DIRECTION('',(1.,0.));
#236 = ( GEOMETRIC_REPRESENTATION_CONTEXT(2) 
PARAMETRIC_REPRESENTATION_CONTEXT() REPRESENTATION_CONTEXT('2D SPACE',''
  ) );
#237 = ORIENTED_EDGE('',*,*,#238,.F.);
#238 = EDGE_CURVE('',#88,#215,#239,.T.);
#239 = SURFACE_CURVE('',#240,(#244,#250),.PCURVE_S1.);
#240 = LINE('',#241,#242);
#241 = CARTESIAN_POINT('',(-5.1,-4.25,-2.5));
#242 = VECTOR('',#243,1.);
#243 = DIRECTION('',(-1.,0.,0.));
#244 = PCURVE('',#128,#245);
#245 = DEFINITIONAL_REPRESENTATION('',(#246),#249);
#246 = B_SPLINE_CURVE_WITH_KNOTS('',1,(#247,#248),.UNSPECIFIED.,.F.,.F.,
  (2,2),(-10.2,1.7763568394E-15),.PIECEWISE_BEZIER_KNOTS.);
#247 = CARTESIAN_POINT('',(5.1,-4.25));
#248 = CARTESIAN_POINT('',(-5.1,-4.25));
#249 = ( GEOMETRIC_REPRESENTATION_CONTEXT(2) 
PARAMETRIC_REPRESENTATION_CONTEXT() REPRESENTATION_CONTEXT('2D SPACE',''
  ) );
#250 = PCURVE('',#102,#251);
#251 = DEFINITIONAL_REPRESENTATION('',(#252),#255);
#252 = B_SPLINE_CURVE_WITH_KNOTS('',1,(#253,#254),.UNSPECIFIED.,.F.,.F.,
  (2,2),(-10.2,1.7763568394E-15),.PIECEWISE_BEZIER_KNOTS.);
#253 = CARTESIAN_POINT('',(47.5,15.3));
#254 = CARTESIAN_POINT('',(47.5,5.1));
#255 = ( GEOMETRIC_REPRESENTATION_CONTEXT(2) 
PARAMETRIC_REPRESENTATION_CONTEXT() REPRESENTATION_CONTEXT('2D SPACE',''
  ) );
#256 = ORIENTED_EDGE('',*,*,#113,.T.);
#257 = FACE_BOUND('',#258,.F.);
#258 = EDGE_LOOP('',(#259));
#259 = ORIENTED_EDGE('',*,*,#260,.F.);
#260 = EDGE_CURVE('',#261,#261,#263,.T.);
#261 = VERTEX_POINT('',#262);
#262 = CARTESIAN_POINT('',(1.5,0.,-2.5));
#263 = SURFACE_CURVE('',#264,(#269,#276),.PCURVE_S1.);
#264 = CIRCLE('',#265,1.5);
#265 = AXIS2_PLACEMENT_3D('',#266,#267,#268);
#266 = CARTESIAN_POINT('',(0.,0.,-2.5));
#267 = DIRECTION('',(0.,0.,1.));
#268 = DIRECTION('',(1.,0.,0.));
#269 = PCURVE('',#128,#270);
#270 = DEFINITIONAL_REPRESENTATION('',(#271),#275);
#271 = CIRCLE('',#272,1.5);
#272 = AXIS2_PLACEMENT_2D('',#273,#274);
#273 = CARTESIAN_POINT('',(2.681255161842E-16,-5.961865926976E-16));
#274 = DIRECTION('',(1.,0.));
#275 = ( GEOMETRIC_REPRESENTATION_CONTEXT(2) 
PARAMETRIC_REPRESENTATION_CONTEXT() REPRESENTATION_CONTEXT('2D SPACE',''
  ) );
#276 = PCURVE('',#277,#282);
#277 = CYLINDRICAL_SURFACE('',#278,1.5);
#278 = AXIS2_PLACEMENT_3D('',#279,#280,#281);
#279 = CARTESIAN_POINT('',(0.,0.,-2.5));
#280 = DIRECTION('',(0.,0.,1.));
#281 = DIRECTION('',(1.,0.,0.));
#282 = DEFINITIONAL_REPRESENTATION('',(#283),#287);
#283 = LINE('',#284,#285);
#284 = CARTESIAN_POINT('',(0.,0.));
#285 = VECTOR('',#286,1.);
#286 = DIRECTION('',(1.,0.));
#287 = ( GEOMETRIC_REPRESENTATION_CONTEXT(2) 
PARAMETRIC_REPRESENTATION_CONTEXT() REPRESENTATION_CONTEXT('2D SPACE',''
  ) );
#288 = ADVANCED_FACE('',(#289),#102,.F.);
#289 = FACE_BOUND('',#290,.F.);
#290 = EDGE_LOOP('',(#291,#292,#293,#314));
#291 = ORIENTED_EDGE('',*,*,#87,.F.);
#292 = ORIENTED_EDGE('',*,*,#238,.T.);
#293 = ORIENTED_EDGE('',*,*,#294,.T.);
#294 = EDGE_CURVE('',#215,#295,#297,.T.);
#295 = VERTEX_POINT('',#296);
#296 = CARTESIAN_POINT('',(-2.819131071802,-4.25,-1.5));
#297 = SURFACE_CURVE('',#298,(#302,#308),.PCURVE_S1.);
#298 = LINE('',#299,#300);
#299 = CARTESIAN_POINT('',(-2.819131071802,-4.25,-1.5));
#300 = VECTOR('',#301,1.);
#301 = DIRECTION('',(0.,0.,1.));
#302 = PCURVE('',#102,#303);
#303 = DEFINITIONAL_REPRESENTATION('',(#304),#307);
#304 = B_SPLINE_CURVE_WITH_KNOTS('',1,(#305,#306),.UNSPECIFIED.,.F.,.F.,
  (2,2),(-1.0000006,5.999999999062E-07),.PIECEWISE_BEZIER_KNOTS.);
#305 = CARTESIAN_POINT('',(47.4999994,7.380868928198));
#306 = CARTESIAN_POINT('',(48.5000006,7.380868928198));
#307 = ( GEOMETRIC_REPRESENTATION_CONTEXT(2) 
PARAMETRIC_REPRESENTATION_CONTEXT() REPRESENTATION_CONTEXT('2D SPACE',''
  ) );
#308 = PCURVE('',#180,#309);
#309 = DEFINITIONAL_REPRESENTATION('',(#310),#313);
#310 = B_SPLINE_CURVE_WITH_KNOTS('',1,(#311,#312),.UNSPECIFIED.,.F.,.F.,
  (2,2),(-1.0000006,5.999999999062E-07),.PIECEWISE_BEZIER_KNOTS.);
#311 = CARTESIAN_POINT('',(4.126703436928,-1.0000006));
#312 = CARTESIAN_POINT('',(4.126703436928,5.999999999062E-07));
#313 = ( GEOMETRIC_REPRESENTATION_CONTEXT(2) 
PARAMETRIC_REPRESENTATION_CONTEXT() REPRESENTATION_CONTEXT('2D SPACE',''
  ) );
#314 = ORIENTED_EDGE('',*,*,#315,.F.);
#315 = EDGE_CURVE('',#55,#295,#316,.T.);
#316 = SURFACE_CURVE('',#317,(#321,#327),.PCURVE_S1.);
#317 = LINE('',#318,#319);
#318 = CARTESIAN_POINT('',(-5.1,-4.25,-1.5));
#319 = VECTOR('',#320,1.);
#320 = DIRECTION('',(-1.,0.,0.));
#321 = PCURVE('',#102,#322);
#322 = DEFINITIONAL_REPRESENTATION('',(#323),#326);
#323 = B_SPLINE_CURVE_WITH_KNOTS('',1,(#324,#325),.UNSPECIFIED.,.F.,.F.,
  (2,2),(-10.2,0.),.PIECEWISE_BEZIER_KNOTS.);
#324 = CARTESIAN_POINT('',(48.5,15.3));
#325 = CARTESIAN_POINT('',(48.5,5.1));
#326 = ( GEOMETRIC_REPRESENTATION_CONTEXT(2) 
PARAMETRIC_REPRESENTATION_CONTEXT() REPRESENTATION_CONTEXT('2D SPACE',''
  ) );
#327 = PCURVE('',#71,#328);
#328 = DEFINITIONAL_REPRESENTATION('',(#329),#332);
#329 = B_SPLINE_CURVE_WITH_KNOTS('',1,(#330,#331),.UNSPECIFIED.,.F.,.F.,
  (2,2),(-10.2,0.),.PIECEWISE_BEZIER_KNOTS.);
#330 = CARTESIAN_POINT('',(5.1,-4.25));
#331 = CARTESIAN_POINT('',(-5.1,-4.25));
#332 = ( GEOMETRIC_REPRESENTATION_CONTEXT(2) 
PARAMETRIC_REPRESENTATION_CONTEXT() REPRESENTATION_CONTEXT('2D SPACE',''
  ) );
#333 = ADVANCED_FACE('',(#334,#365),#71,.T.);
#334 = FACE_BOUND('',#335,.T.);
#335 = EDGE_LOOP('',(#336,#337,#338,#364));
#336 = ORIENTED_EDGE('',*,*,#54,.F.);
#337 = ORIENTED_EDGE('',*,*,#191,.T.);
#338 = ORIENTED_EDGE('',*,*,#339,.F.);
#339 = EDGE_CURVE('',#295,#166,#340,.T.);
#340 = SURFACE_CURVE('',#341,(#346,#357),.PCURVE_S1.);
#341 = CIRCLE('',#342,5.1);
#342 = AXIS2_PLACEMENT_3D('',#343,#344,#345);
#343 = CARTESIAN_POINT('',(0.,0.,-1.5));
#344 = DIRECTION('',(0.,0.,-1.));
#345 = DIRECTION('',(0.552770798393,0.833333333333,0.));
#346 = PCURVE('',#71,#347);
#347 = DEFINITIONAL_REPRESENTATION('',(#348),#356);
#348 = ( BOUNDED_CURVE() B_SPLINE_CURVE(2,(#349,#350,#351,#352,#353,#354
,#355),.UNSPECIFIED.,.T.,.F.) B_SPLINE_CURVE_WITH_KNOTS((1,2,2,2,2,1),(
    -2.094395102393,0.,2.094395102393,4.188790204786,6.28318530718,
8.377580409573),.UNSPECIFIED.) CURVE() GEOMETRIC_REPRESENTATION_ITEM() 
RATIONAL_B_SPLINE_CURVE((1.,0.5,1.,0.5,1.,0.5,1.)) REPRESENTATION_ITEM(
  '') );
#349 = CARTESIAN_POINT('',(2.819131071802,4.25));
#350 = CARTESIAN_POINT('',(10.18034700397,-0.632878249557));
#351 = CARTESIAN_POINT('',(2.271042430183,-4.566439124779));
#352 = CARTESIAN_POINT('',(-5.638262143604,-8.5));
#353 = CARTESIAN_POINT('',(-5.090173501985,0.316439124779));
#354 = CARTESIAN_POINT('',(-4.542084860366,9.132878249557));
#355 = CARTESIAN_POINT('',(2.819131071802,4.25));
#356 = ( GEOMETRIC_REPRESENTATION_CONTEXT(2) 
PARAMETRIC_REPRESENTATION_CONTEXT() REPRESENTATION_CONTEXT('2D SPACE',''
  ) );
#357 = PCURVE('',#180,#358);
#358 = DEFINITIONAL_REPRESENTATION('',(#359),#363);
#359 = LINE('',#360,#361);
#360 = CARTESIAN_POINT('',(7.268296090517,0.));
#361 = VECTOR('',#362,1.);
#362 = DIRECTION('',(-1.,-0.));
#363 = ( GEOMETRIC_REPRESENTATION_CONTEXT(2) 
PARAMETRIC_REPRESENTATION_CONTEXT() REPRESENTATION_CONTEXT('2D SPACE',''
  ) );
#364 = ORIENTED_EDGE('',*,*,#315,.F.);
#365 = FACE_BOUND('',#366,.T.);
#366 = EDGE_LOOP('',(#367));
#367 = ORIENTED_EDGE('',*,*,#368,.F.);
#368 = EDGE_CURVE('',#369,#369,#371,.T.);
#369 = VERTEX_POINT('',#370);
#370 = CARTESIAN_POINT('',(3.9,0.,-1.5));
#371 = SURFACE_CURVE('',#372,(#377,#384),.PCURVE_S1.);
#372 = CIRCLE('',#373,3.9);
#373 = AXIS2_PLACEMENT_3D('',#374,#375,#376);
#374 = CARTESIAN_POINT('',(0.,0.,-1.5));
#375 = DIRECTION('',(0.,0.,1.));
#376 = DIRECTION('',(1.,0.,0.));
#377 = PCURVE('',#71,#378);
#378 = DEFINITIONAL_REPRESENTATION('',(#379),#383);
#379 = CIRCLE('',#380,3.9);
#380 = AXIS2_PLACEMENT_2D('',#381,#382);
#381 = CARTESIAN_POINT('',(2.681255161842E-16,-5.961865926976E-16));
#382 = DIRECTION('',(1.,0.));
#383 = ( GEOMETRIC_REPRESENTATION_CONTEXT(2) 
PARAMETRIC_REPRESENTATION_CONTEXT() REPRESENTATION_CONTEXT('2D SPACE',''
  ) );
#384 = PCURVE('',#385,#390);
#385 = CYLINDRICAL_SURFACE('',#386,3.9);
#386 = AXIS2_PLACEMENT_3D('',#387,#388,#389);
#387 = CARTESIAN_POINT('',(0.,0.,0.));
#388 = DIRECTION('',(0.,0.,1.));
#389 = DIRECTION('',(1.,0.,0.));
#390 = DEFINITIONAL_REPRESENTATION('',(#391),#395);
#391 = LINE('',#392,#393);
#392 = CARTESIAN_POINT('',(0.,-1.5));
#393 = VECTOR('',#394,1.);
#394 = DIRECTION('',(1.,0.));
#395 = ( GEOMETRIC_REPRESENTATION_CONTEXT(2) 
PARAMETRIC_REPRESENTATION_CONTEXT() REPRESENTATION_CONTEXT('2D SPACE',''
  ) );
#396 = ADVANCED_FACE('',(#397),#180,.T.);
#397 = FACE_BOUND('',#398,.T.);
#398 = EDGE_LOOP('',(#399,#400,#401,#402));
#399 = ORIENTED_EDGE('',*,*,#294,.T.);
#400 = ORIENTED_EDGE('',*,*,#339,.T.);
#401 = ORIENTED_EDGE('',*,*,#165,.F.);
#402 = ORIENTED_EDGE('',*,*,#214,.T.);
#403 = ADVANCED_FACE('',(#404),#277,.T.);
#404 = FACE_BOUND('',#405,.T.);
#405 = EDGE_LOOP('',(#406,#429,#456,#457));
#406 = ORIENTED_EDGE('',*,*,#407,.T.);
#407 = EDGE_CURVE('',#261,#408,#410,.T.);
#408 = VERTEX_POINT('',#409);
#409 = CARTESIAN_POINT('',(1.5,0.,-3.));
#410 = SEAM_CURVE('',#411,(#415,#422),.PCURVE_S1.);
#411 = LINE('',#412,#413);
#412 = CARTESIAN_POINT('',(1.5,0.,-2.5));
#413 = VECTOR('',#414,1.);
#414 = DIRECTION('',(-0.,-0.,-1.));
#415 = PCURVE('',#277,#416);
#416 = DEFINITIONAL_REPRESENTATION('',(#417),#421);
#417 = LINE('',#418,#419);
#418 = CARTESIAN_POINT('',(0.,0.));
#419 = VECTOR('',#420,1.);
#420 = DIRECTION('',(0.,-1.));
#421 = ( GEOMETRIC_REPRESENTATION_CONTEXT(2) 
PARAMETRIC_REPRESENTATION_CONTEXT() REPRESENTATION_CONTEXT('2D SPACE',''
  ) );
#422 = PCURVE('',#277,#423);
#423 = DEFINITIONAL_REPRESENTATION('',(#424),#428);
#424 = LINE('',#425,#426);
#425 = CARTESIAN_POINT('',(6.28318530718,0.));
#426 = VECTOR('',#427,1.);
#427 = DIRECTION('',(0.,-1.));
#428 = ( GEOMETRIC_REPRESENTATION_CONTEXT(2) 
PARAMETRIC_REPRESENTATION_CONTEXT() REPRESENTATION_CONTEXT('2D SPACE',''
  ) );
#429 = ORIENTED_EDGE('',*,*,#430,.T.);
#430 = EDGE_CURVE('',#408,#408,#431,.T.);
#431 = SURFACE_CURVE('',#432,(#437,#444),.PCURVE_S1.);
#432 = CIRCLE('',#433,1.5);
#433 = AXIS2_PLACEMENT_3D('',#434,#435,#436);
#434 = CARTESIAN_POINT('',(0.,0.,-3.));
#435 = DIRECTION('',(0.,0.,1.));
#436 = DIRECTION('',(1.,0.,0.));
#437 = PCURVE('',#277,#438);
#438 = DEFINITIONAL_REPRESENTATION('',(#439),#443);
#439 = LINE('',#440,#441);
#440 = CARTESIAN_POINT('',(0.,-0.5));
#441 = VECTOR('',#442,1.);
#442 = DIRECTION('',(1.,0.));
#443 = ( GEOMETRIC_REPRESENTATION_CONTEXT(2) 
PARAMETRIC_REPRESENTATION_CONTEXT() REPRESENTATION_CONTEXT('2D SPACE',''
  ) );
#444 = PCURVE('',#445,#450);
#445 = PLANE('',#446);
#446 = AXIS2_PLACEMENT_3D('',#447,#448,#449);
#447 = CARTESIAN_POINT('',(-8.546500828371E-17,5.272100442092E-17,-3.));
#448 = DIRECTION('',(0.,0.,1.));
#449 = DIRECTION('',(1.,0.,-0.));
#450 = DEFINITIONAL_REPRESENTATION('',(#451),#455);
#451 = CIRCLE('',#452,1.5);
#452 = AXIS2_PLACEMENT_2D('',#453,#454);
#453 = CARTESIAN_POINT('',(8.546500828371E-17,-5.272100442092E-17));
#454 = DIRECTION('',(1.,0.));
#455 = ( GEOMETRIC_REPRESENTATION_CONTEXT(2) 
PARAMETRIC_REPRESENTATION_CONTEXT() REPRESENTATION_CONTEXT('2D SPACE',''
  ) );
#456 = ORIENTED_EDGE('',*,*,#407,.F.);
#457 = ORIENTED_EDGE('',*,*,#260,.F.);
#458 = ADVANCED_FACE('',(#459),#385,.T.);
#459 = FACE_BOUND('',#460,.T.);
#460 = EDGE_LOOP('',(#461,#462,#485,#512));
#461 = ORIENTED_EDGE('',*,*,#368,.T.);
#462 = ORIENTED_EDGE('',*,*,#463,.T.);
#463 = EDGE_CURVE('',#369,#464,#466,.T.);
#464 = VERTEX_POINT('',#465);
#465 = CARTESIAN_POINT('',(3.9,0.,1.));
#466 = SEAM_CURVE('',#467,(#471,#478),.PCURVE_S1.);
#467 = LINE('',#468,#469);
#468 = CARTESIAN_POINT('',(3.9,0.,-1.5));
#469 = VECTOR('',#470,1.);
#470 = DIRECTION('',(0.,0.,1.));
#471 = PCURVE('',#385,#472);
#472 = DEFINITIONAL_REPRESENTATION('',(#473),#477);
#473 = LINE('',#474,#475);
#474 = CARTESIAN_POINT('',(6.28318530718,-1.5));
#475 = VECTOR('',#476,1.);
#476 = DIRECTION('',(-0.,1.));
#477 = ( GEOMETRIC_REPRESENTATION_CONTEXT(2) 
PARAMETRIC_REPRESENTATION_CONTEXT() REPRESENTATION_CONTEXT('2D SPACE',''
  ) );
#478 = PCURVE('',#385,#479);
#479 = DEFINITIONAL_REPRESENTATION('',(#480),#484);
#480 = LINE('',#481,#482);
#481 = CARTESIAN_POINT('',(0.,-1.5));
#482 = VECTOR('',#483,1.);
#483 = DIRECTION('',(-0.,1.));
#484 = ( GEOMETRIC_REPRESENTATION_CONTEXT(2) 
PARAMETRIC_REPRESENTATION_CONTEXT() REPRESENTATION_CONTEXT('2D SPACE',''
  ) );
#485 = ORIENTED_EDGE('',*,*,#486,.F.);
#486 = EDGE_CURVE('',#464,#464,#487,.T.);
#487 = SURFACE_CURVE('',#488,(#493,#500),.PCURVE_S1.);
#488 = CIRCLE('',#489,3.9);
#489 = AXIS2_PLACEMENT_3D('',#490,#491,#492);
#490 = CARTESIAN_POINT('',(0.,0.,1.));
#491 = DIRECTION('',(0.,0.,1.));
#492 = DIRECTION('',(1.,0.,0.));
#493 = PCURVE('',#385,#494);
#494 = DEFINITIONAL_REPRESENTATION('',(#495),#499);
#495 = LINE('',#496,#497);
#496 = CARTESIAN_POINT('',(-0.,1.));
#497 = VECTOR('',#498,1.);
#498 = DIRECTION('',(1.,-0.));
#499 = ( GEOMETRIC_REPRESENTATION_CONTEXT(2) 
PARAMETRIC_REPRESENTATION_CONTEXT() REPRESENTATION_CONTEXT('2D SPACE',''
  ) );
#500 = PCURVE('',#501,#506);
#501 = PLANE('',#502);
#502 = AXIS2_PLACEMENT_3D('',#503,#504,#505);
#503 = CARTESIAN_POINT('',(-1.753128375051E-16,1.91421591121E-16,1.));
#504 = DIRECTION('',(0.,0.,1.));
#505 = DIRECTION('',(1.,0.,-0.));
#506 = DEFINITIONAL_REPRESENTATION('',(#507),#511);
#507 = CIRCLE('',#508,3.9);
#508 = AXIS2_PLACEMENT_2D('',#509,#510);
#509 = CARTESIAN_POINT('',(1.753128375051E-16,-1.91421591121E-16));
#510 = DIRECTION('',(1.,0.));
#511 = ( GEOMETRIC_REPRESENTATION_CONTEXT(2) 
PARAMETRIC_REPRESENTATION_CONTEXT() REPRESENTATION_CONTEXT('2D SPACE',''
  ) );
#512 = ORIENTED_EDGE('',*,*,#463,.F.);
#513 = ADVANCED_FACE('',(#514),#445,.F.);
#514 = FACE_BOUND('',#515,.F.);
#515 = EDGE_LOOP('',(#516));
#516 = ORIENTED_EDGE('',*,*,#430,.T.);
#517 = ADVANCED_FACE('',(#518,#521),#501,.T.);
#518 = FACE_BOUND('',#519,.T.);
#519 = EDGE_LOOP('',(#520));
#520 = ORIENTED_EDGE('',*,*,#486,.T.);
#521 = FACE_BOUND('',#522,.T.);
#522 = EDGE_LOOP('',(#523));
#523 = ORIENTED_EDGE('',*,*,#524,.F.);
#524 = EDGE_CURVE('',#525,#525,#527,.T.);
#525 = VERTEX_POINT('',#526);
#526 = CARTESIAN_POINT('',(2.934876488031,-7.188374193921E-16,1.));
#527 = SURFACE_CURVE('',#528,(#533,#540),.PCURVE_S1.);
#528 = CIRCLE('',#529,2.934876488031);
#529 = AXIS2_PLACEMENT_3D('',#530,#531,#532);
#530 = CARTESIAN_POINT('',(0.,0.,1.));
#531 = DIRECTION('',(0.,0.,1.));
#532 = DIRECTION('',(1.,0.,-0.));
#533 = PCURVE('',#501,#534);
#534 = DEFINITIONAL_REPRESENTATION('',(#535),#539);
#535 = CIRCLE('',#536,2.934876488031);
#536 = AXIS2_PLACEMENT_2D('',#537,#538);
#537 = CARTESIAN_POINT('',(1.753128375051E-16,-1.91421591121E-16));
#538 = DIRECTION('',(1.,0.));
#539 = ( GEOMETRIC_REPRESENTATION_CONTEXT(2) 
PARAMETRIC_REPRESENTATION_CONTEXT() REPRESENTATION_CONTEXT('2D SPACE',''
  ) );
#540 = PCURVE('',#541,#546);
#541 = SPHERICAL_SURFACE('',#542,12.48);
#542 = AXIS2_PLACEMENT_3D('',#543,#544,#545);
#543 = CARTESIAN_POINT('',(0.,0.,13.13));
#544 = DIRECTION('',(0.,0.,1.));
#545 = DIRECTION('',(1.,0.,0.));
#546 = DEFINITIONAL_REPRESENTATION('',(#547),#551);
#547 = LINE('',#548,#549);
#548 = CARTESIAN_POINT('',(0.,-1.333406576092));
#549 = VECTOR('',#550,1.);
#550 = DIRECTION('',(1.,0.));
#551 = ( GEOMETRIC_REPRESENTATION_CONTEXT(2) 
PARAMETRIC_REPRESENTATION_CONTEXT() REPRESENTATION_CONTEXT('2D SPACE',''
  ) );
#552 = ADVANCED_FACE('',(#553),#541,.F.);
#553 = FACE_BOUND('',#554,.F.);
#554 = EDGE_LOOP('',(#555,#579,#580,#581,#644,#676,#739,#802,#836,#881,
    #938,#1057,#1081,#1082,#1182,#1215));
#555 = ORIENTED_EDGE('',*,*,#556,.T.);
#556 = EDGE_CURVE('',#557,#525,#559,.T.);
#557 = VERTEX_POINT('',#558);
#558 = CARTESIAN_POINT('',(0.283447265625,-6.942455731495E-17,
    0.653219259456));
#559 = SEAM_CURVE('',#560,(#565,#572),.PCURVE_S1.);
#560 = CIRCLE('',#561,12.48);
#561 = AXIS2_PLACEMENT_3D('',#562,#563,#564);
#562 = CARTESIAN_POINT('',(0.,0.,13.13));
#563 = DIRECTION('',(-2.449293598295E-16,-1.,0.));
#564 = DIRECTION('',(1.,-2.449293598295E-16,0.));
#565 = PCURVE('',#541,#566);
#566 = DEFINITIONAL_REPRESENTATION('',(#567),#571);
#567 = LINE('',#568,#569);
#568 = CARTESIAN_POINT('',(6.28318530718,-6.28318530718));
#569 = VECTOR('',#570,1.);
#570 = DIRECTION('',(0.,1.));
#571 = ( GEOMETRIC_REPRESENTATION_CONTEXT(2) 
PARAMETRIC_REPRESENTATION_CONTEXT() REPRESENTATION_CONTEXT('2D SPACE',''
  ) );
#572 = PCURVE('',#541,#573);
#573 = DEFINITIONAL_REPRESENTATION('',(#574),#578);
#574 = LINE('',#575,#576);
#575 = CARTESIAN_POINT('',(0.,-6.28318530718));
#576 = VECTOR('',#577,1.);
#577 = DIRECTION('',(0.,1.));
#578 = ( GEOMETRIC_REPRESENTATION_CONTEXT(2) 
PARAMETRIC_REPRESENTATION_CONTEXT() REPRESENTATION_CONTEXT('2D SPACE',''
  ) );
#579 = ORIENTED_EDGE('',*,*,#524,.F.);
#580 = ORIENTED_EDGE('',*,*,#556,.F.);
#581 = ORIENTED_EDGE('',*,*,#582,.T.);
#582 = EDGE_CURVE('',#557,#583,#585,.T.);
#583 = VERTEX_POINT('',#584);
#584 = CARTESIAN_POINT('',(0.283447265625,1.165283203125,0.707754924969)
  );
#585 = SURFACE_CURVE('',#586,(#591,#632),.PCURVE_S1.);
#586 = CIRCLE('',#587,12.476780740544);
#587 = AXIS2_PLACEMENT_3D('',#588,#589,#590);
#588 = CARTESIAN_POINT('',(0.283447265625,0.,13.13));
#589 = DIRECTION('',(1.,0.,0.));
#590 = DIRECTION('',(-0.,0.,1.));
#591 = PCURVE('',#541,#592);
#592 = DEFINITIONAL_REPRESENTATION('',(#593),#631);
#593 = B_SPLINE_CURVE_WITH_KNOTS('',8,(#594,#595,#596,#597,#598,#599,
    #600,#601,#602,#603,#604,#605,#606,#607,#608,#609,#610,#611,#612,
    #613,#614,#615,#616,#617,#618,#619,#620,#621,#622,#623,#624,#625,
    #626,#627,#628,#629,#630),.UNSPECIFIED.,.F.,.F.,(9,7,7,7,7,9),(
    3.14159265359,3.153284210975,3.163514323687,3.181417020933,
    3.208271066801,3.23512511267),.UNSPECIFIED.);
#594 = CARTESIAN_POINT('',(-5.329070518201E-15,-1.54808225306));
#595 = CARTESIAN_POINT('',(6.432986647752E-02,-1.54808225306));
#596 = CARTESIAN_POINT('',(0.128659698603,-1.547974807392));
#597 = CARTESIAN_POINT('',(0.192178240631,-1.547759920475));
#598 = CARTESIAN_POINT('',(0.254072907939,-1.547440418945));
#599 = CARTESIAN_POINT('',(0.313663111012,-1.547022052956));
#600 = CARTESIAN_POINT('',(0.370524372297,-1.54651227878));
#601 = CARTESIAN_POINT('',(0.424424223186,-1.545919065844));
#602 = CARTESIAN_POINT('',(0.51978027222,-1.544665178849));
#603 = CARTESIAN_POINT('',(0.561949747953,-1.544022206125));
#604 = CARTESIAN_POINT('',(0.601733757792,-1.543326705688));
#605 = CARTESIAN_POINT('',(0.639164921585,-1.542583933542));
#606 = CARTESIAN_POINT('',(0.674333582824,-1.541798770126));
#607 = CARTESIAN_POINT('',(0.707360639349,-1.540975604529));
#608 = CARTESIAN_POINT('',(0.738378034733,-1.540118340205));
#609 = CARTESIAN_POINT('',(0.818522267241,-1.537676575179));
#610 = CARTESIAN_POINT('',(0.863783773206,-1.536028857952));
#611 = CARTESIAN_POINT('',(0.904031666536,-1.53430576076));
#612 = CARTESIAN_POINT('',(0.940017217143,-1.532521487121));
#613 = CARTESIAN_POINT('',(0.972359082178,-1.530686617043));
#614 = CARTESIAN_POINT('',(1.001576470485,-1.528809426015));
#615 = CARTESIAN_POINT('',(1.028095660282,-1.526896392521));
#616 = CARTESIAN_POINT('',(1.088534524471,-1.52203720286));
#617 = CARTESIAN_POINT('',(1.119524502331,-1.51905274551));
#618 = CARTESIAN_POINT('',(1.146437836214,-1.516016865516));
#619 = CARTESIAN_POINT('',(1.170099362962,-1.512940598599));
#620 = CARTESIAN_POINT('',(1.191104428351,-1.509831706394));
#621 = CARTESIAN_POINT('',(1.209902273152,-1.506696014063));
#622 = CARTESIAN_POINT('',(1.22684110295,-1.503537869278));
#623 = CARTESIAN_POINT('',(1.257549913391,-1.497183565502));
#624 = CARTESIAN_POINT('',(1.271319946967,-1.493987404448));
#625 = CARTESIAN_POINT('',(1.283780313805,-1.490775662183));
#626 = CARTESIAN_POINT('',(1.295133194841,-1.487550813089));
#627 = CARTESIAN_POINT('',(1.305535600406,-1.484314760645));
#628 = CARTESIAN_POINT('',(1.315113503818,-1.48106902368));
#629 = CARTESIAN_POINT('',(1.323969033798,-1.477814824004));
#630 = CARTESIAN_POINT('',(1.332187004287,-1.474553173206));
#631 = ( GEOMETRIC_REPRESENTATION_CONTEXT(2) 
PARAMETRIC_REPRESENTATION_CONTEXT() REPRESENTATION_CONTEXT('2D SPACE',''
  ) );
#632 = PCURVE('',#633,#638);
#633 = PLANE('',#634);
#634 = AXIS2_PLACEMENT_3D('',#635,#636,#637);
#635 = CARTESIAN_POINT('',(0.283447265625,1.165283203125,0.5));
#636 = DIRECTION('',(1.,0.,0.));
#637 = DIRECTION('',(0.,-1.,0.));
#638 = DEFINITIONAL_REPRESENTATION('',(#639),#643);
#639 = CIRCLE('',#640,12.476780740544);
#640 = AXIS2_PLACEMENT_2D('',#641,#642);
#641 = CARTESIAN_POINT('',(1.165283203125,-12.63));
#642 = DIRECTION('',(0.,-1.));
#643 = ( GEOMETRIC_REPRESENTATION_CONTEXT(2) 
PARAMETRIC_REPRESENTATION_CONTEXT() REPRESENTATION_CONTEXT('2D SPACE',''
  ) );
#644 = ORIENTED_EDGE('',*,*,#645,.T.);
#645 = EDGE_CURVE('',#583,#646,#648,.T.);
#646 = VERTEX_POINT('',#647);
#647 = CARTESIAN_POINT('',(0.113525390625,1.165283203125,0.705040159333)
  );
#648 = SURFACE_CURVE('',#649,(#654,#664),.PCURVE_S1.);
#649 = CIRCLE('',#650,12.425478463887);
#650 = AXIS2_PLACEMENT_3D('',#651,#652,#653);
#651 = CARTESIAN_POINT('',(0.,1.165283203125,13.13));
#652 = DIRECTION('',(0.,1.,0.));
#653 = DIRECTION('',(0.,-0.,1.));
#654 = PCURVE('',#541,#655);
#655 = DEFINITIONAL_REPRESENTATION('',(#656),#663);
#656 = B_SPLINE_CURVE_WITH_KNOTS('',5,(#657,#658,#659,#660,#661,#662),
  .UNSPECIFIED.,.F.,.F.,(6,6),(3.118778895918,3.132456025938),
  .PIECEWISE_BEZIER_KNOTS.);
#657 = CARTESIAN_POINT('',(1.332187004287,-1.474553173206));
#658 = CARTESIAN_POINT('',(1.359718450404,-1.475199695461));
#659 = CARTESIAN_POINT('',(1.387712950835,-1.475754747724));
#660 = CARTESIAN_POINT('',(1.416098887024,-1.476215253537));
#661 = CARTESIAN_POINT('',(1.44478724743,-1.476578816759));
#662 = CARTESIAN_POINT('',(1.473679800727,-1.476844054434));
#663 = ( GEOMETRIC_REPRESENTATION_CONTEXT(2) 
PARAMETRIC_REPRESENTATION_CONTEXT() REPRESENTATION_CONTEXT('2D SPACE',''
  ) );
#664 = PCURVE('',#665,#670);
#665 = PLANE('',#666);
#666 = AXIS2_PLACEMENT_3D('',#667,#668,#669);
#667 = CARTESIAN_POINT('',(0.113525390625,1.165283203125,0.5));
#668 = DIRECTION('',(0.,1.,0.));
#669 = DIRECTION('',(1.,0.,0.));
#670 = DEFINITIONAL_REPRESENTATION('',(#671),#675);
#671 = CIRCLE('',#672,12.425478463887);
#672 = AXIS2_PLACEMENT_2D('',#673,#674);
#673 = CARTESIAN_POINT('',(-0.113525390625,-12.63));
#674 = DIRECTION('',(0.,-1.));
#675 = ( GEOMETRIC_REPRESENTATION_CONTEXT(2) 
PARAMETRIC_REPRESENTATION_CONTEXT() REPRESENTATION_CONTEXT('2D SPACE',''
  ) );
#676 = ORIENTED_EDGE('',*,*,#677,.T.);
#677 = EDGE_CURVE('',#646,#678,#680,.T.);
#678 = VERTEX_POINT('',#679);
#679 = CARTESIAN_POINT('',(-0.120849609375,0.878173828125,0.681521936417
    ));
#680 = SURFACE_CURVE('',#681,(#696,#714),.PCURVE_S1.);
#681 = B_SPLINE_CURVE_WITH_KNOTS('',5,(#682,#683,#684,#685,#686,#687,
    #688,#689,#690,#691,#692,#693,#694,#695),.UNSPECIFIED.,.F.,.F.,(6,4,
    4,6),(0.,0.447293645647,0.913164112207,1.),.UNSPECIFIED.);
#682 = CARTESIAN_POINT('',(0.113525390625,1.165283203125,0.705040159333)
  );
#683 = CARTESIAN_POINT('',(0.10067934802,1.13931779786,0.702487603588));
#684 = CARTESIAN_POINT('',(8.579877780665E-02,1.113300827491,
    0.699996712131));
#685 = CARTESIAN_POINT('',(6.894671030452E-02,1.087272698172,
    0.697582811394));
#686 = CARTESIAN_POINT('',(5.021432725675E-02,1.061284551243,
    0.695264442744));
#687 = CARTESIAN_POINT('',(8.391080190476E-03,1.008432424708,
    0.690764444183));
#688 = CARTESIAN_POINT('',(-1.484928857121E-02,0.981575801619,
    0.688592385888));
#689 = CARTESIAN_POINT('',(-3.984827752704E-02,0.954897399598,
    0.686565413961));
#690 = CARTESIAN_POINT('',(-6.641820851956E-02,0.928475085004,
    0.684704227504));
#691 = CARTESIAN_POINT('',(-9.956017589061E-02,0.897514079342,
    0.682710852539));
#692 = CARTESIAN_POINT('',(-0.104814587908,0.892661064784,0.682403959122
    ));
#693 = CARTESIAN_POINT('',(-0.11011516004,0.887819758095,0.682103449711)
  );
#694 = CARTESIAN_POINT('',(-0.115460596058,0.882990556842,0.681809414527
    ));
#695 = CARTESIAN_POINT('',(-0.120849609375,0.878173828125,0.681521936417
    ));
#696 = PCURVE('',#541,#697);
#697 = DEFINITIONAL_REPRESENTATION('',(#698),#713);
#698 = B_SPLINE_CURVE_WITH_KNOTS('',5,(#699,#700,#701,#702,#703,#704,
    #705,#706,#707,#708,#709,#710,#711,#712),.UNSPECIFIED.,.F.,.F.,(6,4,
    4,6),(0.,0.447293645647,0.913164112207,1.),.UNSPECIFIED.);
#699 = CARTESIAN_POINT('',(1.473679800727,-1.476844054434));
#700 = CARTESIAN_POINT('',(1.482449703014,-1.479024235036));
#701 = CARTESIAN_POINT('',(1.493452501887,-1.48121479736));
#702 = CARTESIAN_POINT('',(1.506900482393,-1.483403891009));
#703 = CARTESIAN_POINT('',(1.52304011466,-1.485574121738));
#704 = CARTESIAN_POINT('',(1.561935921786,-1.489918492894));
#705 = CARTESIAN_POINT('',(1.584939917774,-1.49208912398));
#706 = CARTESIAN_POINT('',(1.611345864479,-1.4941875405));
#707 = CARTESIAN_POINT('',(1.641364867396,-1.496180123566));
#708 = CARTESIAN_POINT('',(1.68124374707,-1.498377169573));
#709 = CARTESIAN_POINT('',(1.68763404131,-1.498717462804));
#710 = CARTESIAN_POINT('',(1.694149150112,-1.499052647103));
#711 = CARTESIAN_POINT('',(1.7007886999,-1.49938250064));
#712 = CARTESIAN_POINT('',(1.707552038526,-1.499706803257));
#713 = ( GEOMETRIC_REPRESENTATION_CONTEXT(2) 
PARAMETRIC_REPRESENTATION_CONTEXT() REPRESENTATION_CONTEXT('2D SPACE',''
  ) );
#714 = PCURVE('',#715,#722);
#715 = SURFACE_OF_LINEAR_EXTRUSION('',#716,#720);
#716 = B_SPLINE_CURVE_WITH_KNOTS('',2,(#717,#718,#719),.UNSPECIFIED.,.F.
  ,.F.,(3,3),(0.,1.),.PIECEWISE_BEZIER_KNOTS.);
#717 = CARTESIAN_POINT('',(-0.120849609375,0.878173828125,0.5));
#718 = CARTESIAN_POINT('',(4.4677734375E-02,1.026123046875,0.5));
#719 = CARTESIAN_POINT('',(0.113525390625,1.165283203125,0.5));
#720 = VECTOR('',#721,1.);
#721 = DIRECTION('',(-0.,-0.,-1.));
#722 = DEFINITIONAL_REPRESENTATION('',(#723),#738);
#723 = B_SPLINE_CURVE_WITH_KNOTS('',5,(#724,#725,#726,#727,#728,#729,
    #730,#731,#732,#733,#734,#735,#736,#737),.UNSPECIFIED.,.F.,.F.,(6,4,
    4,6),(0.,0.447293645647,0.913164112207,1.),.UNSPECIFIED.);
#724 = CARTESIAN_POINT('',(1.,-0.205040159333));
#725 = CARTESIAN_POINT('',(0.906706754416,-0.202487603588));
#726 = CARTESIAN_POINT('',(0.813915354839,-0.199996712131));
#727 = CARTESIAN_POINT('',(0.721756259473,-0.197582811394));
#728 = CARTESIAN_POINT('',(0.630390686069,-0.195264442744));
#729 = CARTESIAN_POINT('',(0.445855165597,-0.190764444183));
#730 = CARTESIAN_POINT('',(0.352764028366,-0.188592385888));
#731 = CARTESIAN_POINT('',(0.260944871495,-0.186565413961));
#732 = CARTESIAN_POINT('',(0.170626453911,-0.184704227504));
#733 = CARTESIAN_POINT('',(6.548036399955E-02,-0.182710852539));
#734 = CARTESIAN_POINT('',(4.90194962424E-02,-0.182403959122));
#735 = CARTESIAN_POINT('',(3.261846327923E-02,-0.182103449711));
#736 = CARTESIAN_POINT('',(1.627831751339E-02,-0.181809414527));
#737 = CARTESIAN_POINT('',(0.,-0.181521936417));
#738 = ( GEOMETRIC_REPRESENTATION_CONTEXT(2) 
PARAMETRIC_REPRESENTATION_CONTEXT() REPRESENTATION_CONTEXT('2D SPACE',''
  ) );
#739 = ORIENTED_EDGE('',*,*,#740,.T.);
#740 = EDGE_CURVE('',#678,#741,#743,.T.);
#741 = VERTEX_POINT('',#742);
#742 = CARTESIAN_POINT('',(-0.507568359375,0.626220703125,0.676059981213
    ));
#743 = SURFACE_CURVE('',#744,(#759,#777),.PCURVE_S1.);
#744 = B_SPLINE_CURVE_WITH_KNOTS('',7,(#745,#746,#747,#748,#749,#750,
    #751,#752,#753,#754,#755,#756,#757,#758),.UNSPECIFIED.,.F.,.F.,(8,6,
    8),(0.,0.792863608432,1.),.UNSPECIFIED.);
#745 = CARTESIAN_POINT('',(-0.120849609375,0.878173828125,0.681521936417
    ));
#746 = CARTESIAN_POINT('',(-0.160256943945,0.842951343244,0.679419743421
    ));
#747 = CARTESIAN_POINT('',(-0.200895998259,0.809725742314,0.677732599547
    ));
#748 = CARTESIAN_POINT('',(-0.242607458718,0.77846765489,0.676449264903)
  );
#749 = CARTESIAN_POINT('',(-0.285309780244,0.74905291696,0.675552377707)
  );
#750 = CARTESIAN_POINT('',(-0.329055535513,0.721296217127,0.675027159267
    ));
#751 = CARTESIAN_POINT('',(-0.374014930415,0.695014746239,0.674870724046
    ));
#752 = CARTESIAN_POINT('',(-0.432563036847,0.663533502782,0.675153469013
    ));
#753 = CARTESIAN_POINT('',(-0.444789999224,0.657102869476,0.675238011872
    ));
#754 = CARTESIAN_POINT('',(-0.457120763618,0.650759862031,0.675348742391
    ));
#755 = CARTESIAN_POINT('',(-0.469559637605,0.644502104226,0.67548593525)
  );
#756 = CARTESIAN_POINT('',(-0.482110953192,0.638327495617,0.67564992823)
  );
#757 = CARTESIAN_POINT('',(-0.494779066823,0.632234211544,0.67584112222)
  );
#758 = CARTESIAN_POINT('',(-0.507568359375,0.626220703125,0.676059981213
    ));
#759 = PCURVE('',#541,#760);
#760 = DEFINITIONAL_REPRESENTATION('',(#761),#776);
#761 = B_SPLINE_CURVE_WITH_KNOTS('',7,(#762,#763,#764,#765,#766,#767,
    #768,#769,#770,#771,#772,#773,#774,#775),.UNSPECIFIED.,.F.,.F.,(8,6,
    8),(0.,0.792863608432,1.),.UNSPECIFIED.);
#762 = CARTESIAN_POINT('',(1.707552038526,-1.499706803257));
#763 = CARTESIAN_POINT('',(1.757009171459,-1.50207827666));
#764 = CARTESIAN_POINT('',(1.811379172032,-1.504073664364));
#765 = CARTESIAN_POINT('',(1.870275155556,-1.50565314207));
#766 = CARTESIAN_POINT('',(1.932942615906,-1.506786611358));
#767 = CARTESIAN_POINT('',(1.998193052172,-1.507456563889));
#768 = CARTESIAN_POINT('',(2.064687030395,-1.507652857781));
#769 = CARTESIAN_POINT('',(2.148533892949,-1.507295421799));
#770 = CARTESIAN_POINT('',(2.165900472648,-1.507188646581));
#771 = CARTESIAN_POINT('',(2.183242805278,-1.507049026507));
#772 = CARTESIAN_POINT('',(2.200538229694,-1.506876482355));
#773 = CARTESIAN_POINT('',(2.217764513823,-1.506670963323));
#774 = CARTESIAN_POINT('',(2.234899854659,-1.506432447023));
#775 = CARTESIAN_POINT('',(2.251922878265,-1.506160939485));
#776 = ( GEOMETRIC_REPRESENTATION_CONTEXT(2) 
PARAMETRIC_REPRESENTATION_CONTEXT() REPRESENTATION_CONTEXT('2D SPACE',''
  ) );
#777 = PCURVE('',#778,#785);
#778 = SURFACE_OF_LINEAR_EXTRUSION('',#779,#783);
#779 = B_SPLINE_CURVE_WITH_KNOTS('',2,(#780,#781,#782),.UNSPECIFIED.,.F.
  ,.F.,(3,3),(0.,1.),.PIECEWISE_BEZIER_KNOTS.);
#780 = CARTESIAN_POINT('',(-0.507568359375,0.626220703125,0.5));
#781 = CARTESIAN_POINT('',(-0.286376953125,0.730224609375,0.5));
#782 = CARTESIAN_POINT('',(-0.120849609375,0.878173828125,0.5));
#783 = VECTOR('',#784,1.);
#784 = DIRECTION('',(-0.,-0.,-1.));
#785 = DEFINITIONAL_REPRESENTATION('',(#786),#801);
#786 = B_SPLINE_CURVE_WITH_KNOTS('',7,(#787,#788,#789,#790,#791,#792,
    #793,#794,#795,#796,#797,#798,#799,#800),.UNSPECIFIED.,.F.,.F.,(8,6,
    8),(0.,0.792863608432,1.),.UNSPECIFIED.);
#787 = CARTESIAN_POINT('',(1.,-0.181521936417));
#788 = CARTESIAN_POINT('',(0.880964275516,-0.179419743421));
#789 = CARTESIAN_POINT('',(0.763766971888,-0.177732599547));
#790 = CARTESIAN_POINT('',(0.648581085374,-0.176449264903));
#791 = CARTESIAN_POINT('',(0.535299329258,-0.175552377707));
#792 = CARTESIAN_POINT('',(0.423514681327,-0.175027159267));
#793 = CARTESIAN_POINT('',(0.312657957171,-0.174870724046));
#794 = CARTESIAN_POINT('',(0.173218924936,-0.175153469013));
#795 = CARTESIAN_POINT('',(0.144357041177,-0.175238011872));
#796 = CARTESIAN_POINT('',(0.115505344632,-0.175348742391));
#797 = CARTESIAN_POINT('',(8.665346856731E-02,-0.17548593525));
#798 = CARTESIAN_POINT('',(5.77915065206E-02,-0.17564992823));
#799 = CARTESIAN_POINT('',(2.891001230343E-02,-0.17584112222));
#800 = CARTESIAN_POINT('',(0.,-0.176059981213));
#801 = ( GEOMETRIC_REPRESENTATION_CONTEXT(2) 
PARAMETRIC_REPRESENTATION_CONTEXT() REPRESENTATION_CONTEXT('2D SPACE',''
  ) );
#802 = ORIENTED_EDGE('',*,*,#803,.T.);
#803 = EDGE_CURVE('',#741,#804,#806,.T.);
#804 = VERTEX_POINT('',#805);
#805 = CARTESIAN_POINT('',(-0.507568359375,0.371337890625,0.665856125207
    ));
#806 = SURFACE_CURVE('',#807,(#812,#824),.PCURVE_S1.);
#807 = CIRCLE('',#808,12.469674188228);
#808 = AXIS2_PLACEMENT_3D('',#809,#810,#811);
#809 = CARTESIAN_POINT('',(-0.507568359375,0.,13.13));
#810 = DIRECTION('',(-1.,0.,0.));
#811 = DIRECTION('',(0.,0.,-1.));
#812 = PCURVE('',#541,#813);
#813 = DEFINITIONAL_REPRESENTATION('',(#814),#823);
#814 = B_SPLINE_CURVE_WITH_KNOTS('',7,(#815,#816,#817,#818,#819,#820,
    #821,#822),.UNSPECIFIED.,.F.,.F.,(8,8),(6.232944682284,
    6.253401626307),.PIECEWISE_BEZIER_KNOTS.);
#815 = CARTESIAN_POINT('',(2.251922878265,-1.506160939485));
#816 = CARTESIAN_POINT('',(2.28035301963,-1.508431262407));
#817 = CARTESIAN_POINT('',(2.311114877952,-1.510640549462));
#818 = CARTESIAN_POINT('',(2.344477235794,-1.51277980155));
#819 = CARTESIAN_POINT('',(2.380737937739,-1.514838143823));
#820 = CARTESIAN_POINT('',(2.420215859795,-1.516802460832));
#821 = CARTESIAN_POINT('',(2.463225911062,-1.518656645783));
#822 = CARTESIAN_POINT('',(2.509970790312,-1.52038220214));
#823 = ( GEOMETRIC_REPRESENTATION_CONTEXT(2) 
PARAMETRIC_REPRESENTATION_CONTEXT() REPRESENTATION_CONTEXT('2D SPACE',''
  ) );
#824 = PCURVE('',#825,#830);
#825 = PLANE('',#826);
#826 = AXIS2_PLACEMENT_3D('',#827,#828,#829);
#827 = CARTESIAN_POINT('',(-0.507568359375,0.371337890625,0.5));
#828 = DIRECTION('',(-1.,0.,0.));
#829 = DIRECTION('',(0.,1.,0.));
#830 = DEFINITIONAL_REPRESENTATION('',(#831),#835);
#831 = CIRCLE('',#832,12.469674188228);
#832 = AXIS2_PLACEMENT_2D('',#833,#834);
#833 = CARTESIAN_POINT('',(-0.371337890625,-12.63));
#834 = DIRECTION('',(0.,1.));
#835 = ( GEOMETRIC_REPRESENTATION_CONTEXT(2) 
PARAMETRIC_REPRESENTATION_CONTEXT() REPRESENTATION_CONTEXT('2D SPACE',''
  ) );
#836 = ORIENTED_EDGE('',*,*,#837,.T.);
#837 = EDGE_CURVE('',#804,#838,#840,.T.);
#838 = VERTEX_POINT('',#839);
#839 = CARTESIAN_POINT('',(-0.22998046875,0.507568359375,0.662446777954)
  );
#840 = SURFACE_CURVE('',#841,(#850,#862),.PCURVE_S1.);
#841 = B_SPLINE_CURVE_WITH_KNOTS('',7,(#842,#843,#844,#845,#846,#847,
    #848,#849),.UNSPECIFIED.,.F.,.F.,(8,8),(0.,1.),
  .PIECEWISE_BEZIER_KNOTS.);
#842 = CARTESIAN_POINT('',(-0.507568359375,0.371337890625,0.665856125207
    ));
#843 = CARTESIAN_POINT('',(-0.469895859764,0.38524083691,0.66473621852)
  );
#844 = CARTESIAN_POINT('',(-0.431271277149,0.401342525725,0.66379409799)
  );
#845 = CARTESIAN_POINT('',(-0.392012960261,0.419390258421,0.663057516206
    ));
#846 = CARTESIAN_POINT('',(-0.352345892523,0.439109987486,0.662544007751
    ));
#847 = CARTESIAN_POINT('',(-0.312274282497,0.46034380223,0.662260228221)
  );
#848 = CARTESIAN_POINT('',(-0.271592382227,0.483113964725,0.662218798209
    ));
#849 = CARTESIAN_POINT('',(-0.22998046875,0.507568359375,0.662446777954)
  );
#850 = PCURVE('',#541,#851);
#851 = DEFINITIONAL_REPRESENTATION('',(#852),#861);
#852 = B_SPLINE_CURVE_WITH_KNOTS('',7,(#853,#854,#855,#856,#857,#858,
    #859,#860),.UNSPECIFIED.,.F.,.F.,(8,8),(0.,1.),
  .PIECEWISE_BEZIER_KNOTS.);
#853 = CARTESIAN_POINT('',(2.509970790312,-1.52038220214));
#854 = CARTESIAN_POINT('',(2.456759683711,-1.522162935945));
#855 = CARTESIAN_POINT('',(2.395449398535,-1.523734268481));
#856 = CARTESIAN_POINT('',(2.326156648275,-1.525021249365));
#857 = CARTESIAN_POINT('',(2.249603993109,-1.525951179501));
#858 = CARTESIAN_POINT('',(2.167558367523,-1.526469926963));
#859 = CARTESIAN_POINT('',(2.082357658079,-1.526539941735));
#860 = CARTESIAN_POINT('',(1.996227257891,-1.526130818812));
#861 = ( GEOMETRIC_REPRESENTATION_CONTEXT(2) 
PARAMETRIC_REPRESENTATION_CONTEXT() REPRESENTATION_CONTEXT('2D SPACE',''
  ) );
#862 = PCURVE('',#863,#870);
#863 = SURFACE_OF_LINEAR_EXTRUSION('',#864,#868);
#864 = B_SPLINE_CURVE_WITH_KNOTS('',2,(#865,#866,#867),.UNSPECIFIED.,.F.
  ,.F.,(3,3),(0.,1.),.PIECEWISE_BEZIER_KNOTS.);
#865 = CARTESIAN_POINT('',(-0.22998046875,0.507568359375,0.5));
#866 = CARTESIAN_POINT('',(-0.384521484375,0.416748046875,0.5));
#867 = CARTESIAN_POINT('',(-0.507568359375,0.371337890625,0.5));
#868 = VECTOR('',#869,1.);
#869 = DIRECTION('',(-0.,-0.,-1.));
#870 = DEFINITIONAL_REPRESENTATION('',(#871),#880);
#871 = B_SPLINE_CURVE_WITH_KNOTS('',7,(#872,#873,#874,#875,#876,#877,
    #878,#879),.UNSPECIFIED.,.F.,.F.,(8,8),(0.,1.),
  .PIECEWISE_BEZIER_KNOTS.);
#872 = CARTESIAN_POINT('',(1.,-0.165856125207));
#873 = CARTESIAN_POINT('',(0.846918096819,-0.16473621852));
#874 = CARTESIAN_POINT('',(0.696964725707,-0.16379409799));
#875 = CARTESIAN_POINT('',(0.550921348802,-0.163057516206));
#876 = CARTESIAN_POINT('',(0.408978666109,-0.162544007751));
#877 = CARTESIAN_POINT('',(0.270561543823,-0.162260228221));
#878 = CARTESIAN_POINT('',(0.134630645816,-0.162218798209));
#879 = CARTESIAN_POINT('',(0.,-0.162446777954));
#880 = ( GEOMETRIC_REPRESENTATION_CONTEXT(2) 
PARAMETRIC_REPRESENTATION_CONTEXT() REPRESENTATION_CONTEXT('2D SPACE',''
  ) );
#881 = ORIENTED_EDGE('',*,*,#882,.T.);
#882 = EDGE_CURVE('',#838,#883,#885,.T.);
#883 = VERTEX_POINT('',#884);
#884 = CARTESIAN_POINT('',(1.9775390625E-02,0.689208984375,
    0.669061034184));
#885 = SURFACE_CURVE('',#886,(#899,#915),.PCURVE_S1.);
#886 = B_SPLINE_CURVE_WITH_KNOTS('',6,(#887,#888,#889,#890,#891,#892,
    #893,#894,#895,#896,#897,#898),.UNSPECIFIED.,.F.,.F.,(7,5,7),(0.,
    0.700118422001,1.),.UNSPECIFIED.);
#887 = CARTESIAN_POINT('',(-0.22998046875,0.507568359375,0.662446777954)
  );
#888 = CARTESIAN_POINT('',(-0.196661875711,0.527148954336,0.662629320974
    ));
#889 = CARTESIAN_POINT('',(-0.164379703721,0.547092882667,0.66298954406)
  );
#890 = CARTESIAN_POINT('',(-0.133070734843,0.567504519346,0.663520541519
    ));
#891 = CARTESIAN_POINT('',(-0.102804892159,0.588448538773,0.664220123315
    ));
#892 = CARTESIAN_POINT('',(-7.380380639981E-02,0.609911280035,
    0.66508135059));
#893 = CARTESIAN_POINT('',(-3.455424965489E-02,0.641190650931,
    0.666521060962));
#894 = CARTESIAN_POINT('',(-2.30611884881E-02,0.65065247845,
    0.666979803089));
#895 = CARTESIAN_POINT('',(-1.186399531826E-02,0.660191019214,
    0.667464465397));
#896 = CARTESIAN_POINT('',(-9.809262409047E-04,0.669800643223,
    0.667973808814));
#897 = CARTESIAN_POINT('',(9.570767552862E-03,0.679475343906,
    0.668506476226));
#898 = CARTESIAN_POINT('',(1.9775390625E-02,0.689208984375,
    0.669061034184));
#899 = PCURVE('',#541,#900);
#900 = DEFINITIONAL_REPRESENTATION('',(#901),#914);
#901 = B_SPLINE_CURVE_WITH_KNOTS('',6,(#902,#903,#904,#905,#906,#907,
    #908,#909,#910,#911,#912,#913),.UNSPECIFIED.,.F.,.F.,(7,5,7),(0.,
    0.700118422001,1.),.UNSPECIFIED.);
#902 = CARTESIAN_POINT('',(1.996227257891,-1.526130818812));
#903 = CARTESIAN_POINT('',(1.927262783239,-1.525803234737));
#904 = CARTESIAN_POINT('',(1.860936671624,-1.525159704676));
#905 = CARTESIAN_POINT('',(1.798582504501,-1.524222843786));
#906 = CARTESIAN_POINT('',(1.741347494318,-1.523023051558));
#907 = CARTESIAN_POINT('',(1.689773764527,-1.521603853372));
#908 = CARTESIAN_POINT('',(1.624373096646,-1.519331247945));
#909 = CARTESIAN_POINT('',(1.605818679881,-1.518618080026));
#910 = CARTESIAN_POINT('',(1.588329779186,-1.517876878771));
#911 = CARTESIAN_POINT('',(1.571897350269,-1.517111251379));
#912 = CARTESIAN_POINT('',(1.556500526316,-1.516324673965));
#913 = CARTESIAN_POINT('',(1.542111317097,-1.515520375366));
#914 = ( GEOMETRIC_REPRESENTATION_CONTEXT(2) 
PARAMETRIC_REPRESENTATION_CONTEXT() REPRESENTATION_CONTEXT('2D SPACE',''
  ) );
#915 = PCURVE('',#916,#923);
#916 = SURFACE_OF_LINEAR_EXTRUSION('',#917,#921);
#917 = B_SPLINE_CURVE_WITH_KNOTS('',2,(#918,#919,#920),.UNSPECIFIED.,.F.
  ,.F.,(3,3),(0.,1.),.PIECEWISE_BEZIER_KNOTS.);
#918 = CARTESIAN_POINT('',(1.9775390625E-02,0.689208984375,0.5));
#919 = CARTESIAN_POINT('',(-7.5439453125E-02,0.598388671875,0.5));
#920 = CARTESIAN_POINT('',(-0.22998046875,0.507568359375,0.5));
#921 = VECTOR('',#922,1.);
#922 = DIRECTION('',(-0.,-0.,-1.));
#923 = DEFINITIONAL_REPRESENTATION('',(#924),#937);
#924 = B_SPLINE_CURVE_WITH_KNOTS('',6,(#925,#926,#927,#928,#929,#930,
    #931,#932,#933,#934,#935,#936),.UNSPECIFIED.,.F.,.F.,(7,5,7),(0.,
    0.700118422001,1.),.UNSPECIFIED.);
#925 = CARTESIAN_POINT('',(1.,-0.162446777954));
#926 = CARTESIAN_POINT('',(0.892201455696,-0.162629320974));
#927 = CARTESIAN_POINT('',(0.782402624456,-0.16298954406));
#928 = CARTESIAN_POINT('',(0.670028882742,-0.163520541519));
#929 = CARTESIAN_POINT('',(0.554724173637,-0.164220123315));
#930 = CARTESIAN_POINT('',(0.436563705612,-0.16508135059));
#931 = CARTESIAN_POINT('',(0.264358997026,-0.166521060962));
#932 = CARTESIAN_POINT('',(0.212268075627,-0.166979803089));
#933 = CARTESIAN_POINT('',(0.159754818948,-0.167464465397));
#934 = CARTESIAN_POINT('',(0.106850222254,-0.167973808814));
#935 = CARTESIAN_POINT('',(5.358735397882E-02,-0.168506476226));
#936 = CARTESIAN_POINT('',(0.,-0.169061034184));
#937 = ( GEOMETRIC_REPRESENTATION_CONTEXT(2) 
PARAMETRIC_REPRESENTATION_CONTEXT() REPRESENTATION_CONTEXT('2D SPACE',''
  ) );
#938 = ORIENTED_EDGE('',*,*,#939,.T.);
#939 = EDGE_CURVE('',#883,#940,#942,.T.);
#940 = VERTEX_POINT('',#941);
#941 = CARTESIAN_POINT('',(1.9775390625E-02,-4.84357376616E-18,
    0.650015667721));
#942 = SURFACE_CURVE('',#943,(#948,#1045),.PCURVE_S1.);
#943 = CIRCLE('',#944,12.479984332279);
#944 = AXIS2_PLACEMENT_3D('',#945,#946,#947);
#945 = CARTESIAN_POINT('',(1.9775390625E-02,0.,13.13));
#946 = DIRECTION('',(-1.,0.,0.));
#947 = DIRECTION('',(0.,0.,-1.));
#948 = PCURVE('',#541,#949);
#949 = DEFINITIONAL_REPRESENTATION('',(#950),#1044);
#950 = B_SPLINE_CURVE_WITH_KNOTS('',8,(#951,#952,#953,#954,#955,#956,
    #957,#958,#959,#960,#961,#962,#963,#964,#965,#966,#967,#968,#969,
    #970,#971,#972,#973,#974,#975,#976,#977,#978,#979,#980,#981,#982,
    #983,#984,#985,#986,#987,#988,#989,#990,#991,#992,#993,#994,#995,
    #996,#997,#998,#999,#1000,#1001,#1002,#1003,#1004,#1005,#1006,#1007,
    #1008,#1009,#1010,#1011,#1012,#1013,#1014,#1015,#1016,#1017,#1018,
    #1019,#1020,#1021,#1022,#1023,#1024,#1025,#1026,#1027,#1028,#1029,
    #1030,#1031,#1032,#1033,#1034,#1035,#1036,#1037,#1038,#1039,#1040,
    #1041,#1042,#1043),.UNSPECIFIED.,.F.,.F.,(9,7,7,7,7,7,7,7,7,7,7,7,7,
    9),(6.227932049278,6.241745363753,6.25210534961,6.259875339002,
    6.265702831047,6.27007345008,6.273351414355,6.275809887561,
    6.277653742466,6.279036633644,6.280073802028,6.281629554604,
    6.282407430892,6.28318530718),.UNSPECIFIED.);
#951 = CARTESIAN_POINT('',(1.542111317097,-1.515520375366));
#952 = CARTESIAN_POINT('',(1.541216314095,-1.517246329349));
#953 = CARTESIAN_POINT('',(1.540257387273,-1.518972232665));
#954 = CARTESIAN_POINT('',(1.539226626933,-1.520698079043));
#955 = CARTESIAN_POINT('',(1.538114345955,-1.522423860804));
#956 = CARTESIAN_POINT('',(1.536908916034,-1.524149568725));
#957 = CARTESIAN_POINT('',(1.535595940106,-1.525875191392));
#958 = CARTESIAN_POINT('',(1.53415676097,-1.527600714006));
#959 = CARTESIAN_POINT('',(1.53137346494,-1.530620168684));
#960 = CARTESIAN_POINT('',(1.530095501078,-1.531914153199));
#961 = CARTESIAN_POINT('',(1.528721889954,-1.533208061874));
#962 = CARTESIAN_POINT('',(1.527239746305,-1.534501884488));
#963 = CARTESIAN_POINT('',(1.525633604485,-1.535795608769));
#964 = CARTESIAN_POINT('',(1.523884320812,-1.537089219527));
#965 = CARTESIAN_POINT('',(1.521967097929,-1.538382697079));
#966 = CARTESIAN_POINT('',(1.51825978112,-1.54064600341));
#967 = CARTESIAN_POINT('',(1.516557691864,-1.541615902003));
#968 = CARTESIAN_POINT('',(1.514728381957,-1.542585699661));
#969 = CARTESIAN_POINT('',(1.512754743963,-1.543555382798));
#970 = CARTESIAN_POINT('',(1.510616248513,-1.544524935106));
#971 = CARTESIAN_POINT('',(1.508287494346,-1.545494336405));
#972 = CARTESIAN_POINT('',(1.505735604347,-1.546463560562));
#973 = CARTESIAN_POINT('',(1.500802115031,-1.548159331447));
#974 = CARTESIAN_POINT('',(1.498537384903,-1.54888597098));
#975 = CARTESIAN_POINT('',(1.496103756114,-1.549612476368));
#976 = CARTESIAN_POINT('',(1.493478590244,-1.550338829596));
#977 = CARTESIAN_POINT('',(1.49063473002,-1.55106500905));
#978 = CARTESIAN_POINT('',(1.48753859782,-1.551790987997));
#979 = CARTESIAN_POINT('',(1.484146794198,-1.552516731853));
#980 = CARTESIAN_POINT('',(1.477591998154,-1.553786291057));
#981 = CARTESIAN_POINT('',(1.474583725568,-1.554330229488));
#982 = CARTESIAN_POINT('',(1.471351967349,-1.554873990079));
#983 = CARTESIAN_POINT('',(1.467866939837,-1.555417549052));
#984 = CARTESIAN_POINT('',(1.46409293664,-1.555960877887));
#985 = CARTESIAN_POINT('',(1.459985866884,-1.556503941346));
#986 = CARTESIAN_POINT('',(1.455488882171,-1.557046693926));
#987 = CARTESIAN_POINT('',(1.446803999757,-1.557995860407));
#988 = CARTESIAN_POINT('',(1.44281981231,-1.558402436875));
#989 = CARTESIAN_POINT('',(1.438541640794,-1.558808778612));
#990 = CARTESIAN_POINT('',(1.433930700966,-1.55921485447));
#991 = CARTESIAN_POINT('',(1.428940549098,-1.559620627122));
#992 = CARTESIAN_POINT('',(1.42351396705,-1.560026050525));
#993 = CARTESIAN_POINT('',(1.417577496709,-1.560431065415));
#994 = CARTESIAN_POINT('',(1.406125719176,-1.561138988452));
#995 = CARTESIAN_POINT('',(1.400876059863,-1.561442109776));
#996 = CARTESIAN_POINT('',(1.39524363886,-1.56174492366));
#997 = CARTESIAN_POINT('',(1.389178849405,-1.562047389845));
#998 = CARTESIAN_POINT('',(1.382622413401,-1.562349460162));
#999 = CARTESIAN_POINT('',(1.375501596989,-1.562651075368));
#1000 = CARTESIAN_POINT('',(1.367723713334,-1.562952159635));
#1001 = CARTESIAN_POINT('',(1.352749312051,-1.563477952504));
#1002 = CARTESIAN_POINT('',(1.345893479352,-1.563702937169));
#1003 = CARTESIAN_POINT('',(1.338548116026,-1.563927524517));
#1004 = CARTESIAN_POINT('',(1.330651711039,-1.564151663701));
#1005 = CARTESIAN_POINT('',(1.322131053123,-1.56437529406));
#1006 = CARTESIAN_POINT('',(1.312896953703,-1.564598341375));
#1007 = CARTESIAN_POINT('',(1.302837180445,-1.564820711538));
#1008 = CARTESIAN_POINT('',(1.28353366713,-1.565208459185));
#1009 = CARTESIAN_POINT('',(1.274714582346,-1.565374186624));
#1010 = CARTESIAN_POINT('',(1.265288160751,-1.565539412159));
#1011 = CARTESIAN_POINT('',(1.255182043658,-1.56570407403));
#1012 = CARTESIAN_POINT('',(1.244310759413,-1.565868098942));
#1013 = CARTESIAN_POINT('',(1.232571476248,-1.566031398031));
#1014 = CARTESIAN_POINT('',(1.219837448572,-1.566193860319));
#1015 = CARTESIAN_POINT('',(1.195532937815,-1.566476456211));
#1016 = CARTESIAN_POINT('',(1.184467412578,-1.566597018035));
#1017 = CARTESIAN_POINT('',(1.172685241991,-1.56671696922));
#1018 = CARTESIAN_POINT('',(1.160108398425,-1.566836239368));
#1019 = CARTESIAN_POINT('',(1.146646025959,-1.566954745751));
#1020 = CARTESIAN_POINT('',(1.13219111653,-1.567072389553));
#1021 = CARTESIAN_POINT('',(1.116616001884,-1.567189050237));
#1022 = CARTESIAN_POINT('',(1.074492650537,-1.567477869705));
#1023 = CARTESIAN_POINT('',(1.046351755592,-1.567648612413));
#1024 = CARTESIAN_POINT('',(1.014822759859,-1.567816299097));
#1025 = CARTESIAN_POINT('',(0.979257142154,-1.567980277524));
#1026 = CARTESIAN_POINT('',(0.938808435835,-1.568139666355));
#1027 = CARTESIAN_POINT('',(0.892437544353,-1.568293296339));
#1028 = CARTESIAN_POINT('',(0.838711522039,-1.568439449529));
#1029 = CARTESIAN_POINT('',(0.744977384756,-1.568643813765));
#1030 = CARTESIAN_POINT('',(0.71154193086,-1.568709457624));
#1031 = CARTESIAN_POINT('',(0.675739396583,-1.568772319932));
#1032 = CARTESIAN_POINT('',(0.637397179484,-1.568832052394));
#1033 = CARTESIAN_POINT('',(0.596355488266,-1.568888258773));
#1034 = CARTESIAN_POINT('',(0.552497855336,-1.568940493474));
#1035 = CARTESIAN_POINT('',(0.505794130167,-1.568988274518));
#1036 = CARTESIAN_POINT('',(0.406899862688,-1.569073971568));
#1037 = CARTESIAN_POINT('',(0.354709262114,-1.569111887583));
#1038 = CARTESIAN_POINT('',(0.299876995127,-1.569144391996));
#1039 = CARTESIAN_POINT('',(0.242636701868,-1.569171009336));
#1040 = CARTESIAN_POINT('',(0.183386152187,-1.56919130266));
#1041 = CARTESIAN_POINT('',(0.122726809098,-1.56920494053));
#1042 = CARTESIAN_POINT('',(6.136341418978E-02,-1.569211759575));
#1043 = CARTESIAN_POINT('',(1.545716406392E-13,-1.569211759575));
#1044 = ( GEOMETRIC_REPRESENTATION_CONTEXT(2) 
PARAMETRIC_REPRESENTATION_CONTEXT() REPRESENTATION_CONTEXT('2D SPACE',''
  ) );
#1045 = PCURVE('',#1046,#1051);
#1046 = PLANE('',#1047);
#1047 = AXIS2_PLACEMENT_3D('',#1048,#1049,#1050);
#1048 = CARTESIAN_POINT('',(1.9775390625E-02,-0.990966796875,0.5));
#1049 = DIRECTION('',(-1.,0.,0.));
#1050 = DIRECTION('',(0.,1.,0.));
#1051 = DEFINITIONAL_REPRESENTATION('',(#1052),#1056);
#1052 = CIRCLE('',#1053,12.479984332279);
#1053 = AXIS2_PLACEMENT_2D('',#1054,#1055);
#1054 = CARTESIAN_POINT('',(0.990966796875,-12.63));
#1055 = DIRECTION('',(0.,1.));
#1056 = ( GEOMETRIC_REPRESENTATION_CONTEXT(2) 
PARAMETRIC_REPRESENTATION_CONTEXT() REPRESENTATION_CONTEXT('2D SPACE',''
  ) );
#1057 = ORIENTED_EDGE('',*,*,#1058,.F.);
#1058 = EDGE_CURVE('',#1059,#940,#1061,.T.);
#1059 = VERTEX_POINT('',#1060);
#1060 = CARTESIAN_POINT('',(7.641796026679E-16,-1.871700208762E-31,0.65)
  );
#1061 = SEAM_CURVE('',#1062,(#1067,#1074),.PCURVE_S1.);
#1062 = CIRCLE('',#1063,12.48);
#1063 = AXIS2_PLACEMENT_3D('',#1064,#1065,#1066);
#1064 = CARTESIAN_POINT('',(0.,0.,13.13));
#1065 = DIRECTION('',(-2.449293598295E-16,-1.,0.));
#1066 = DIRECTION('',(1.,-2.449293598295E-16,0.));
#1067 = PCURVE('',#541,#1068);
#1068 = DEFINITIONAL_REPRESENTATION('',(#1069),#1073);
#1069 = LINE('',#1070,#1071);
#1070 = CARTESIAN_POINT('',(6.28318530718,-6.28318530718));
#1071 = VECTOR('',#1072,1.);
#1072 = DIRECTION('',(0.,1.));
#1073 = ( GEOMETRIC_REPRESENTATION_CONTEXT(2) 
PARAMETRIC_REPRESENTATION_CONTEXT() REPRESENTATION_CONTEXT('2D SPACE',''
  ) );
#1074 = PCURVE('',#541,#1075);
#1075 = DEFINITIONAL_REPRESENTATION('',(#1076),#1080);
#1076 = LINE('',#1077,#1078);
#1077 = CARTESIAN_POINT('',(0.,-6.28318530718));
#1078 = VECTOR('',#1079,1.);
#1079 = DIRECTION('',(0.,1.));
#1080 = ( GEOMETRIC_REPRESENTATION_CONTEXT(2) 
PARAMETRIC_REPRESENTATION_CONTEXT() REPRESENTATION_CONTEXT('2D SPACE',''
  ) );
#1081 = ORIENTED_EDGE('',*,*,#1058,.T.);
#1082 = ORIENTED_EDGE('',*,*,#1083,.T.);
#1083 = EDGE_CURVE('',#940,#1084,#1086,.T.);
#1084 = VERTEX_POINT('',#1085);
#1085 = CARTESIAN_POINT('',(1.9775390625E-02,-0.990966796875,
    0.689421486867));
#1086 = SURFACE_CURVE('',#1087,(#1092,#1175),.PCURVE_S1.);
#1087 = CIRCLE('',#1088,12.479984332279);
#1088 = AXIS2_PLACEMENT_3D('',#1089,#1090,#1091);
#1089 = CARTESIAN_POINT('',(1.9775390625E-02,0.,13.13));
#1090 = DIRECTION('',(-1.,0.,0.));
#1091 = DIRECTION('',(0.,0.,-1.));
#1092 = PCURVE('',#541,#1093);
#1093 = DEFINITIONAL_REPRESENTATION('',(#1094),#1174);
#1094 = B_SPLINE_CURVE_WITH_KNOTS('',8,(#1095,#1096,#1097,#1098,#1099,
    #1100,#1101,#1102,#1103,#1104,#1105,#1106,#1107,#1108,#1109,#1110,
    #1111,#1112,#1113,#1114,#1115,#1116,#1117,#1118,#1119,#1120,#1121,
    #1122,#1123,#1124,#1125,#1126,#1127,#1128,#1129,#1130,#1131,#1132,
    #1133,#1134,#1135,#1136,#1137,#1138,#1139,#1140,#1141,#1142,#1143,
    #1144,#1145,#1146,#1147,#1148,#1149,#1150,#1151,#1152,#1153,#1154,
    #1155,#1156,#1157,#1158,#1159,#1160,#1161,#1162,#1163,#1164,#1165,
    #1166,#1167,#1168,#1169,#1170,#1171,#1172,#1173),.UNSPECIFIED.,.F.,
  .F.,(9,7,7,7,7,7,7,7,7,7,7,9),(0.,6.210013277743E-04,
    1.237151082675E-03,2.459823252557E-03,3.663391169784E-03,
    6.032915506826E-03,8.328392208335E-03,1.277587831751E-02,
    2.111491477221E-02,3.570822856793E-02,5.759819926152E-02,
    7.94881699551E-02),.UNSPECIFIED.);
#1095 = CARTESIAN_POINT('',(6.28318530718,-1.569211759575));
#1096 = CARTESIAN_POINT('',(6.234197103938,-1.569211759575));
#1097 = CARTESIAN_POINT('',(6.185208963953,-1.569207413604));
#1098 = CARTESIAN_POINT('',(6.136578750126,-1.569198721728));
#1099 = CARTESIAN_POINT('',(6.088665994792,-1.569185750457));
#1100 = CARTESIAN_POINT('',(6.041794028885,-1.569168633848));
#1101 = CARTESIAN_POINT('',(5.996223477174,-1.569147558287));
#1102 = CARTESIAN_POINT('',(5.952142139423,-1.569122741637));
#1103 = CARTESIAN_POINT('',(5.867542179874,-1.569066314439));
#1104 = CARTESIAN_POINT('',(5.8269983355,-1.569034758495));
#1105 = CARTESIAN_POINT('',(5.788167795727,-1.568999977567));
#1106 = CARTESIAN_POINT('',(5.751111944205,-1.568962215072));
#1107 = CARTESIAN_POINT('',(5.715838415779,-1.568921713477));
#1108 = CARTESIAN_POINT('',(5.682316254249,-1.568878704097));
#1109 = CARTESIAN_POINT('',(5.65049111544,-1.56883340197));
#1110 = CARTESIAN_POINT('',(5.560369575989,-1.568691950839));
#1111 = CARTESIAN_POINT('',(5.506853937677,-1.568589646867));
#1112 = CARTESIAN_POINT('',(5.459203335469,-1.568480637093));
#1113 = CARTESIAN_POINT('',(5.416642350494,-1.568366191258));
#1114 = CARTESIAN_POINT('',(5.37846782516,-1.568247262129));
#1115 = CARTESIAN_POINT('',(5.344073892985,-1.56812460027));
#1116 = CARTESIAN_POINT('',(5.312948565266,-1.567998792547));
#1117 = CARTESIAN_POINT('',(5.256817950013,-1.567743833515));
#1118 = CARTESIAN_POINT('',(5.231724721306,-1.567614765277));
#1119 = CARTESIAN_POINT('',(5.208972191642,-1.567483552073));
#1120 = CARTESIAN_POINT('',(5.188228727899,-1.567350532333));
#1121 = CARTESIAN_POINT('',(5.169225219264,-1.567215968248));
#1122 = CARTESIAN_POINT('',(5.151741360364,-1.567080069634));
#1123 = CARTESIAN_POINT('',(5.135594455297,-1.566943008803));
#1124 = CARTESIAN_POINT('',(5.091170933174,-1.566533076747));
#1125 = CARTESIAN_POINT('',(5.066297352226,-1.566257268164));
#1126 = CARTESIAN_POINT('',(5.044838545427,-1.565978578852));
#1127 = CARTESIAN_POINT('',(5.026065425825,-1.565697640936));
#1128 = CARTESIAN_POINT('',(5.009457712183,-1.565414906642));
#1129 = CARTESIAN_POINT('',(4.994634915938,-1.565130697922));
#1130 = CARTESIAN_POINT('',(4.981305653748,-1.564845261556));
#1131 = CARTESIAN_POINT('',(4.957556787364,-1.56428126641));
#1132 = CARTESIAN_POINT('',(4.947059248255,-1.564002771498));
#1133 = CARTESIAN_POINT('',(4.93754358439,-1.563723476243));
#1134 = CARTESIAN_POINT('',(4.928858905366,-1.563443505744));
#1135 = CARTESIAN_POINT('',(4.920888200074,-1.563162956474));
#1136 = CARTESIAN_POINT('',(4.913537546395,-1.562881905619));
#1137 = CARTESIAN_POINT('',(4.906730889344,-1.5626004154));
#1138 = CARTESIAN_POINT('',(4.888148531485,-1.561772398954));
#1139 = CARTESIAN_POINT('',(4.877696790508,-1.561224804957));
#1140 = CARTESIAN_POINT('',(4.868590526302,-1.560676130356));
#1141 = CARTESIAN_POINT('',(4.860554175373,-1.560126597778));
#1142 = CARTESIAN_POINT('',(4.853386271393,-1.559576370065));
#1143 = CARTESIAN_POINT('',(4.846941171168,-1.559025564276));
#1144 = CARTESIAN_POINT('',(4.841105392328,-1.55847427169));
#1145 = CARTESIAN_POINT('',(4.825824458112,-1.556888110413));
#1146 = CARTESIAN_POINT('',(4.81768898219,-1.55585219614));
#1147 = CARTESIAN_POINT('',(4.810799282364,-1.554815289683));
#1148 = CARTESIAN_POINT('',(4.80486447917,-1.553777623004));
#1149 = CARTESIAN_POINT('',(4.799671080079,-1.552739366697));
#1150 = CARTESIAN_POINT('',(4.795079976545,-1.551700631479));
#1151 = CARTESIAN_POINT('',(4.790982830843,-1.550661503699));
#1152 = CARTESIAN_POINT('',(4.7808526003,-1.547802999002));
#1153 = CARTESIAN_POINT('',(4.775671956843,-1.545982944813));
#1154 = CARTESIAN_POINT('',(4.771323723808,-1.544162229908));
#1155 = CARTESIAN_POINT('',(4.767607966829,-1.542341013014));
#1156 = CARTESIAN_POINT('',(4.764375131818,-1.540519413022));
#1157 = CARTESIAN_POINT('',(4.761532448902,-1.538697503507));
#1158 = CARTESIAN_POINT('',(4.759006738719,-1.536875342596));
#1159 = CARTESIAN_POINT('',(4.75335175588,-1.532319417453));
#1160 = CARTESIAN_POINT('',(4.750551878539,-1.529585391992));
#1161 = CARTESIAN_POINT('',(4.748164672944,-1.526851039347));
#1162 = CARTESIAN_POINT('',(4.7460943788,-1.524116435465));
#1163 = CARTESIAN_POINT('',(4.744275902326,-1.521381631964));
#1164 = CARTESIAN_POINT('',(4.742659996599,-1.518646667897));
#1165 = CARTESIAN_POINT('',(4.741213185357,-1.515911569802));
#1166 = CARTESIAN_POINT('',(4.738602773707,-1.510441149144));
#1167 = CARTESIAN_POINT('',(4.737439235205,-1.507705826532));
#1168 = CARTESIAN_POINT('',(4.736390616277,-1.504970412842));
#1169 = CARTESIAN_POINT('',(4.735437884998,-1.502234923161));
#1170 = CARTESIAN_POINT('',(4.734566880538,-1.499499368713));
#1171 = CARTESIAN_POINT('',(4.733766398403,-1.496763758378));
#1172 = CARTESIAN_POINT('',(4.733027205662,-1.494028099474));
#1173 = CARTESIAN_POINT('',(4.732341986152,-1.4912923978));
#1174 = ( GEOMETRIC_REPRESENTATION_CONTEXT(2) 
PARAMETRIC_REPRESENTATION_CONTEXT() REPRESENTATION_CONTEXT('2D SPACE',''
  ) );
#1175 = PCURVE('',#1046,#1176);
#1176 = DEFINITIONAL_REPRESENTATION('',(#1177),#1181);
#1177 = CIRCLE('',#1178,12.479984332279);
#1178 = AXIS2_PLACEMENT_2D('',#1179,#1180);
#1179 = CARTESIAN_POINT('',(0.990966796875,-12.63));
#1180 = DIRECTION('',(0.,1.));
#1181 = ( GEOMETRIC_REPRESENTATION_CONTEXT(2) 
PARAMETRIC_REPRESENTATION_CONTEXT() REPRESENTATION_CONTEXT('2D SPACE',''
  ) );
#1182 = ORIENTED_EDGE('',*,*,#1183,.T.);
#1183 = EDGE_CURVE('',#1084,#1184,#1186,.T.);
#1184 = VERTEX_POINT('',#1185);
#1185 = CARTESIAN_POINT('',(0.283447265625,-0.990966796875,
    0.692635228671));
#1186 = SURFACE_CURVE('',#1187,(#1192,#1203),.PCURVE_S1.);
#1187 = CIRCLE('',#1188,12.440594230482);
#1188 = AXIS2_PLACEMENT_3D('',#1189,#1190,#1191);
#1189 = CARTESIAN_POINT('',(0.,-0.990966796875,13.13));
#1190 = DIRECTION('',(0.,-1.,0.));
#1191 = DIRECTION('',(0.,-0.,-1.));
#1192 = PCURVE('',#541,#1193);
#1193 = DEFINITIONAL_REPRESENTATION('',(#1194),#1202);
#1194 = B_SPLINE_CURVE_WITH_KNOTS('',6,(#1195,#1196,#1197,#1198,#1199,
    #1200,#1201),.UNSPECIFIED.,.F.,.F.,(7,7),(1.589586364337E-03,
    2.278603333992E-02),.PIECEWISE_BEZIER_KNOTS.);
#1195 = CARTESIAN_POINT('',(4.732341986152,-1.4912923978));
#1196 = CARTESIAN_POINT('',(4.77667429783,-1.491221913672));
#1197 = CARTESIAN_POINT('',(4.820912142902,-1.49096353096));
#1198 = CARTESIAN_POINT('',(4.864741547344,-1.490517988539));
#1199 = CARTESIAN_POINT('',(4.907853707329,-1.489889398334));
#1200 = CARTESIAN_POINT('',(4.949996120905,-1.489084936281));
#1201 = CARTESIAN_POINT('',(4.99098146515,-1.488113423011));
#1202 = ( GEOMETRIC_REPRESENTATION_CONTEXT(2) 
PARAMETRIC_REPRESENTATION_CONTEXT() REPRESENTATION_CONTEXT('2D SPACE',''
  ) );
#1203 = PCURVE('',#1204,#1209);
#1204 = PLANE('',#1205);
#1205 = AXIS2_PLACEMENT_3D('',#1206,#1207,#1208);
#1206 = CARTESIAN_POINT('',(0.283447265625,-0.990966796875,0.5));
#1207 = DIRECTION('',(0.,-1.,0.));
#1208 = DIRECTION('',(-1.,0.,0.));
#1209 = DEFINITIONAL_REPRESENTATION('',(#1210),#1214);
#1210 = CIRCLE('',#1211,12.440594230482);
#1211 = AXIS2_PLACEMENT_2D('',#1212,#1213);
#1212 = CARTESIAN_POINT('',(0.283447265625,-12.63));
#1213 = DIRECTION('',(-0.,1.));
#1214 = ( GEOMETRIC_REPRESENTATION_CONTEXT(2) 
PARAMETRIC_REPRESENTATION_CONTEXT() REPRESENTATION_CONTEXT('2D SPACE',''
  ) );
#1215 = ORIENTED_EDGE('',*,*,#1216,.T.);
#1216 = EDGE_CURVE('',#1184,#557,#1217,.T.);
#1217 = SURFACE_CURVE('',#1218,(#1223,#1264),.PCURVE_S1.);
#1218 = CIRCLE('',#1219,12.476780740544);
#1219 = AXIS2_PLACEMENT_3D('',#1220,#1221,#1222);
#1220 = CARTESIAN_POINT('',(0.283447265625,0.,13.13));
#1221 = DIRECTION('',(1.,0.,0.));
#1222 = DIRECTION('',(-0.,0.,1.));
#1223 = PCURVE('',#541,#1224);
#1224 = DEFINITIONAL_REPRESENTATION('',(#1225),#1263);
#1225 = B_SPLINE_CURVE_WITH_KNOTS('',8,(#1226,#1227,#1228,#1229,#1230,
    #1231,#1232,#1233,#1234,#1235,#1236,#1237,#1238,#1239,#1240,#1241,
    #1242,#1243,#1244,#1245,#1246,#1247,#1248,#1249,#1250,#1251,#1252,
    #1253,#1254,#1255,#1256,#1257,#1258,#1259,#1260,#1261,#1262),
  .UNSPECIFIED.,.F.,.F.,(9,7,7,7,7,9),(3.0620840308,3.081961186498,
    3.096869053271,3.11923085343,3.13041175351,3.14159265359),
  .UNSPECIFIED.);
#1226 = CARTESIAN_POINT('',(4.99098146515,-1.488113423011));
#1227 = CARTESIAN_POINT('',(4.999226532158,-1.490502268182));
#1228 = CARTESIAN_POINT('',(5.008016748445,-1.492884674159));
#1229 = CARTESIAN_POINT('',(5.01741322005,-1.495259899959));
#1230 = CARTESIAN_POINT('',(5.027488221902,-1.497627061607));
#1231 = CARTESIAN_POINT('',(5.038327134758,-1.499985110026));
#1232 = CARTESIAN_POINT('',(5.050032696251,-1.502332773102));
#1233 = CARTESIAN_POINT('',(5.062731566058,-1.504668461934));
#1234 = CARTESIAN_POINT('',(5.086971934511,-1.50873140073));
#1235 = CARTESIAN_POINT('',(5.098009129733,-1.510464779023));
#1236 = CARTESIAN_POINT('',(5.109762104455,-1.512189417796));
#1237 = CARTESIAN_POINT('',(5.122308874084,-1.513904308742));
#1238 = CARTESIAN_POINT('',(5.135740296255,-1.515608266794));
#1239 = CARTESIAN_POINT('',(5.150163407613,-1.517299876231));
#1240 = CARTESIAN_POINT('',(5.165705956965,-1.518977409665));
#1241 = CARTESIAN_POINT('',(5.207746401493,-1.523130685334));
#1242 = CARTESIAN_POINT('',(5.235836206217,-1.525586149285));
#1243 = CARTESIAN_POINT('',(5.26731336629,-1.527997842751));
#1244 = CARTESIAN_POINT('',(5.302827365591,-1.530356412997));
#1245 = CARTESIAN_POINT('',(5.343226779123,-1.532649214986));
#1246 = CARTESIAN_POINT('',(5.389553692095,-1.534859465581));
#1247 = CARTESIAN_POINT('',(5.443248065836,-1.53696248485));
#1248 = CARTESIAN_POINT('',(5.536970612493,-1.53990362728));
#1249 = CARTESIAN_POINT('',(5.570408181629,-1.540848444226));
#1250 = CARTESIAN_POINT('',(5.606220259085,-1.541753321916));
#1251 = CARTESIAN_POINT('',(5.644581155146,-1.542613244355));
#1252 = CARTESIAN_POINT('',(5.685652656971,-1.543422501535));
#1253 = CARTESIAN_POINT('',(5.729553384713,-1.544174666593));
#1254 = CARTESIAN_POINT('',(5.776315402857,-1.544862781028));
#1255 = CARTESIAN_POINT('',(5.875358478107,-1.546097070068));
#1256 = CARTESIAN_POINT('',(5.927639593716,-1.546643244846));
#1257 = CARTESIAN_POINT('',(5.982579415198,-1.547111527176));
#1258 = CARTESIAN_POINT('',(6.039944221547,-1.547495041433));
#1259 = CARTESIAN_POINT('',(6.099334676714,-1.547787462256));
#1260 = CARTESIAN_POINT('',(6.160145122024,-1.547983988416));
#1261 = CARTESIAN_POINT('',(6.221665204635,-1.54808225306));
#1262 = CARTESIAN_POINT('',(6.28318530718,-1.54808225306));
#1263 = ( GEOMETRIC_REPRESENTATION_CONTEXT(2) 
PARAMETRIC_REPRESENTATION_CONTEXT() REPRESENTATION_CONTEXT('2D SPACE',''
  ) );
#1264 = PCURVE('',#633,#1265);
#1265 = DEFINITIONAL_REPRESENTATION('',(#1266),#1270);
#1266 = CIRCLE('',#1267,12.476780740544);
#1267 = AXIS2_PLACEMENT_2D('',#1268,#1269);
#1268 = CARTESIAN_POINT('',(1.165283203125,-12.63));
#1269 = DIRECTION('',(0.,-1.));
#1270 = ( GEOMETRIC_REPRESENTATION_CONTEXT(2) 
PARAMETRIC_REPRESENTATION_CONTEXT() REPRESENTATION_CONTEXT('2D SPACE',''
  ) );
#1271 = ADVANCED_FACE('',(#1272),#633,.F.);
#1272 = FACE_BOUND('',#1273,.F.);
#1273 = EDGE_LOOP('',(#1274,#1304,#1325,#1326,#1327));
#1274 = ORIENTED_EDGE('',*,*,#1275,.F.);
#1275 = EDGE_CURVE('',#1276,#1278,#1280,.T.);
#1276 = VERTEX_POINT('',#1277);
#1277 = CARTESIAN_POINT('',(0.283447265625,1.165283203125,0.5));
#1278 = VERTEX_POINT('',#1279);
#1279 = CARTESIAN_POINT('',(0.283447265625,-0.990966796875,0.5));
#1280 = SURFACE_CURVE('',#1281,(#1285,#1292),.PCURVE_S1.);
#1281 = LINE('',#1282,#1283);
#1282 = CARTESIAN_POINT('',(0.283447265625,1.165283203125,0.5));
#1283 = VECTOR('',#1284,1.);
#1284 = DIRECTION('',(0.,-1.,0.));
#1285 = PCURVE('',#633,#1286);
#1286 = DEFINITIONAL_REPRESENTATION('',(#1287),#1291);
#1287 = LINE('',#1288,#1289);
#1288 = CARTESIAN_POINT('',(0.,0.));
#1289 = VECTOR('',#1290,1.);
#1290 = DIRECTION('',(1.,0.));
#1291 = ( GEOMETRIC_REPRESENTATION_CONTEXT(2) 
PARAMETRIC_REPRESENTATION_CONTEXT() REPRESENTATION_CONTEXT('2D SPACE',''
  ) );
#1292 = PCURVE('',#1293,#1298);
#1293 = PLANE('',#1294);
#1294 = AXIS2_PLACEMENT_3D('',#1295,#1296,#1297);
#1295 = CARTESIAN_POINT('',(-0.834228515625,-0.990966796875,0.5));
#1296 = DIRECTION('',(0.,0.,1.));
#1297 = DIRECTION('',(1.,0.,0.));
#1298 = DEFINITIONAL_REPRESENTATION('',(#1299),#1303);
#1299 = LINE('',#1300,#1301);
#1300 = CARTESIAN_POINT('',(1.11767578125,2.15625));
#1301 = VECTOR('',#1302,1.);
#1302 = DIRECTION('',(0.,-1.));
#1303 = ( GEOMETRIC_REPRESENTATION_CONTEXT(2) 
PARAMETRIC_REPRESENTATION_CONTEXT() REPRESENTATION_CONTEXT('2D SPACE',''
  ) );
#1304 = ORIENTED_EDGE('',*,*,#1305,.T.);
#1305 = EDGE_CURVE('',#1276,#583,#1306,.T.);
#1306 = SURFACE_CURVE('',#1307,(#1311,#1318),.PCURVE_S1.);
#1307 = LINE('',#1308,#1309);
#1308 = CARTESIAN_POINT('',(0.283447265625,1.165283203125,0.5));
#1309 = VECTOR('',#1310,1.);
#1310 = DIRECTION('',(0.,0.,1.));
#1311 = PCURVE('',#633,#1312);
#1312 = DEFINITIONAL_REPRESENTATION('',(#1313),#1317);
#1313 = LINE('',#1314,#1315);
#1314 = CARTESIAN_POINT('',(0.,0.));
#1315 = VECTOR('',#1316,1.);
#1316 = DIRECTION('',(0.,-1.));
#1317 = ( GEOMETRIC_REPRESENTATION_CONTEXT(2) 
PARAMETRIC_REPRESENTATION_CONTEXT() REPRESENTATION_CONTEXT('2D SPACE',''
  ) );
#1318 = PCURVE('',#665,#1319);
#1319 = DEFINITIONAL_REPRESENTATION('',(#1320),#1324);
#1320 = LINE('',#1321,#1322);
#1321 = CARTESIAN_POINT('',(0.169921875,0.));
#1322 = VECTOR('',#1323,1.);
#1323 = DIRECTION('',(0.,-1.));
#1324 = ( GEOMETRIC_REPRESENTATION_CONTEXT(2) 
PARAMETRIC_REPRESENTATION_CONTEXT() REPRESENTATION_CONTEXT('2D SPACE',''
  ) );
#1325 = ORIENTED_EDGE('',*,*,#582,.F.);
#1326 = ORIENTED_EDGE('',*,*,#1216,.F.);
#1327 = ORIENTED_EDGE('',*,*,#1328,.F.);
#1328 = EDGE_CURVE('',#1278,#1184,#1329,.T.);
#1329 = SURFACE_CURVE('',#1330,(#1334,#1341),.PCURVE_S1.);
#1330 = LINE('',#1331,#1332);
#1331 = CARTESIAN_POINT('',(0.283447265625,-0.990966796875,0.5));
#1332 = VECTOR('',#1333,1.);
#1333 = DIRECTION('',(0.,0.,1.));
#1334 = PCURVE('',#633,#1335);
#1335 = DEFINITIONAL_REPRESENTATION('',(#1336),#1340);
#1336 = LINE('',#1337,#1338);
#1337 = CARTESIAN_POINT('',(2.15625,0.));
#1338 = VECTOR('',#1339,1.);
#1339 = DIRECTION('',(0.,-1.));
#1340 = ( GEOMETRIC_REPRESENTATION_CONTEXT(2) 
PARAMETRIC_REPRESENTATION_CONTEXT() REPRESENTATION_CONTEXT('2D SPACE',''
  ) );
#1341 = PCURVE('',#1204,#1342);
#1342 = DEFINITIONAL_REPRESENTATION('',(#1343),#1347);
#1343 = LINE('',#1344,#1345);
#1344 = CARTESIAN_POINT('',(0.,-0.));
#1345 = VECTOR('',#1346,1.);
#1346 = DIRECTION('',(0.,-1.));
#1347 = ( GEOMETRIC_REPRESENTATION_CONTEXT(2) 
PARAMETRIC_REPRESENTATION_CONTEXT() REPRESENTATION_CONTEXT('2D SPACE',''
  ) );
#1348 = ADVANCED_FACE('',(#1349),#1204,.F.);
#1349 = FACE_BOUND('',#1350,.F.);
#1350 = EDGE_LOOP('',(#1351,#1374,#1375,#1376));
#1351 = ORIENTED_EDGE('',*,*,#1352,.F.);
#1352 = EDGE_CURVE('',#1278,#1353,#1355,.T.);
#1353 = VERTEX_POINT('',#1354);
#1354 = CARTESIAN_POINT('',(1.9775390625E-02,-0.990966796875,0.5));
#1355 = SURFACE_CURVE('',#1356,(#1360,#1367),.PCURVE_S1.);
#1356 = LINE('',#1357,#1358);
#1357 = CARTESIAN_POINT('',(0.283447265625,-0.990966796875,0.5));
#1358 = VECTOR('',#1359,1.);
#1359 = DIRECTION('',(-1.,0.,0.));
#1360 = PCURVE('',#1204,#1361);
#1361 = DEFINITIONAL_REPRESENTATION('',(#1362),#1366);
#1362 = LINE('',#1363,#1364);
#1363 = CARTESIAN_POINT('',(0.,-0.));
#1364 = VECTOR('',#1365,1.);
#1365 = DIRECTION('',(1.,0.));
#1366 = ( GEOMETRIC_REPRESENTATION_CONTEXT(2) 
PARAMETRIC_REPRESENTATION_CONTEXT() REPRESENTATION_CONTEXT('2D SPACE',''
  ) );
#1367 = PCURVE('',#1293,#1368);
#1368 = DEFINITIONAL_REPRESENTATION('',(#1369),#1373);
#1369 = LINE('',#1370,#1371);
#1370 = CARTESIAN_POINT('',(1.11767578125,0.));
#1371 = VECTOR('',#1372,1.);
#1372 = DIRECTION('',(-1.,0.));
#1373 = ( GEOMETRIC_REPRESENTATION_CONTEXT(2) 
PARAMETRIC_REPRESENTATION_CONTEXT() REPRESENTATION_CONTEXT('2D SPACE',''
  ) );
#1374 = ORIENTED_EDGE('',*,*,#1328,.T.);
#1375 = ORIENTED_EDGE('',*,*,#1183,.F.);
#1376 = ORIENTED_EDGE('',*,*,#1377,.F.);
#1377 = EDGE_CURVE('',#1353,#1084,#1378,.T.);
#1378 = SURFACE_CURVE('',#1379,(#1383,#1390),.PCURVE_S1.);
#1379 = LINE('',#1380,#1381);
#1380 = CARTESIAN_POINT('',(1.9775390625E-02,-0.990966796875,0.5));
#1381 = VECTOR('',#1382,1.);
#1382 = DIRECTION('',(0.,0.,1.));
#1383 = PCURVE('',#1204,#1384);
#1384 = DEFINITIONAL_REPRESENTATION('',(#1385),#1389);
#1385 = LINE('',#1386,#1387);
#1386 = CARTESIAN_POINT('',(0.263671875,0.));
#1387 = VECTOR('',#1388,1.);
#1388 = DIRECTION('',(0.,-1.));
#1389 = ( GEOMETRIC_REPRESENTATION_CONTEXT(2) 
PARAMETRIC_REPRESENTATION_CONTEXT() REPRESENTATION_CONTEXT('2D SPACE',''
  ) );
#1390 = PCURVE('',#1046,#1391);
#1391 = DEFINITIONAL_REPRESENTATION('',(#1392),#1396);
#1392 = LINE('',#1393,#1394);
#1393 = CARTESIAN_POINT('',(0.,0.));
#1394 = VECTOR('',#1395,1.);
#1395 = DIRECTION('',(0.,-1.));
#1396 = ( GEOMETRIC_REPRESENTATION_CONTEXT(2) 
PARAMETRIC_REPRESENTATION_CONTEXT() REPRESENTATION_CONTEXT('2D SPACE',''
  ) );
#1397 = ADVANCED_FACE('',(#1398),#1046,.F.);
#1398 = FACE_BOUND('',#1399,.F.);
#1399 = EDGE_LOOP('',(#1400,#1423,#1424,#1425,#1426));
#1400 = ORIENTED_EDGE('',*,*,#1401,.F.);
#1401 = EDGE_CURVE('',#1353,#1402,#1404,.T.);
#1402 = VERTEX_POINT('',#1403);
#1403 = CARTESIAN_POINT('',(1.9775390625E-02,0.689208984375,0.5));
#1404 = SURFACE_CURVE('',#1405,(#1409,#1416),.PCURVE_S1.);
#1405 = LINE('',#1406,#1407);
#1406 = CARTESIAN_POINT('',(1.9775390625E-02,-0.990966796875,0.5));
#1407 = VECTOR('',#1408,1.);
#1408 = DIRECTION('',(0.,1.,0.));
#1409 = PCURVE('',#1046,#1410);
#1410 = DEFINITIONAL_REPRESENTATION('',(#1411),#1415);
#1411 = LINE('',#1412,#1413);
#1412 = CARTESIAN_POINT('',(0.,0.));
#1413 = VECTOR('',#1414,1.);
#1414 = DIRECTION('',(1.,0.));
#1415 = ( GEOMETRIC_REPRESENTATION_CONTEXT(2) 
PARAMETRIC_REPRESENTATION_CONTEXT() REPRESENTATION_CONTEXT('2D SPACE',''
  ) );
#1416 = PCURVE('',#1293,#1417);
#1417 = DEFINITIONAL_REPRESENTATION('',(#1418),#1422);
#1418 = LINE('',#1419,#1420);
#1419 = CARTESIAN_POINT('',(0.85400390625,0.));
#1420 = VECTOR('',#1421,1.);
#1421 = DIRECTION('',(0.,1.));
#1422 = ( GEOMETRIC_REPRESENTATION_CONTEXT(2) 
PARAMETRIC_REPRESENTATION_CONTEXT() REPRESENTATION_CONTEXT('2D SPACE',''
  ) );
#1423 = ORIENTED_EDGE('',*,*,#1377,.T.);
#1424 = ORIENTED_EDGE('',*,*,#1083,.F.);
#1425 = ORIENTED_EDGE('',*,*,#939,.F.);
#1426 = ORIENTED_EDGE('',*,*,#1427,.F.);
#1427 = EDGE_CURVE('',#1402,#883,#1428,.T.);
#1428 = SURFACE_CURVE('',#1429,(#1433,#1440),.PCURVE_S1.);
#1429 = LINE('',#1430,#1431);
#1430 = CARTESIAN_POINT('',(1.9775390625E-02,0.689208984375,0.5));
#1431 = VECTOR('',#1432,1.);
#1432 = DIRECTION('',(0.,0.,1.));
#1433 = PCURVE('',#1046,#1434);
#1434 = DEFINITIONAL_REPRESENTATION('',(#1435),#1439);
#1435 = LINE('',#1436,#1437);
#1436 = CARTESIAN_POINT('',(1.68017578125,0.));
#1437 = VECTOR('',#1438,1.);
#1438 = DIRECTION('',(0.,-1.));
#1439 = ( GEOMETRIC_REPRESENTATION_CONTEXT(2) 
PARAMETRIC_REPRESENTATION_CONTEXT() REPRESENTATION_CONTEXT('2D SPACE',''
  ) );
#1440 = PCURVE('',#916,#1441);
#1441 = DEFINITIONAL_REPRESENTATION('',(#1442),#1446);
#1442 = LINE('',#1443,#1444);
#1443 = CARTESIAN_POINT('',(0.,0.));
#1444 = VECTOR('',#1445,1.);
#1445 = DIRECTION('',(0.,-1.));
#1446 = ( GEOMETRIC_REPRESENTATION_CONTEXT(2) 
PARAMETRIC_REPRESENTATION_CONTEXT() REPRESENTATION_CONTEXT('2D SPACE',''
  ) );
#1447 = ADVANCED_FACE('',(#1448),#916,.F.);
#1448 = FACE_BOUND('',#1449,.F.);
#1449 = EDGE_LOOP('',(#1450,#1473,#1474,#1475));
#1450 = ORIENTED_EDGE('',*,*,#1451,.F.);
#1451 = EDGE_CURVE('',#1402,#1452,#1454,.T.);
#1452 = VERTEX_POINT('',#1453);
#1453 = CARTESIAN_POINT('',(-0.22998046875,0.507568359375,0.5));
#1454 = SURFACE_CURVE('',#1455,(#1459,#1466),.PCURVE_S1.);
#1455 = B_SPLINE_CURVE_WITH_KNOTS('',2,(#1456,#1457,#1458),
  .UNSPECIFIED.,.F.,.F.,(3,3),(0.,1.),.PIECEWISE_BEZIER_KNOTS.);
#1456 = CARTESIAN_POINT('',(1.9775390625E-02,0.689208984375,0.5));
#1457 = CARTESIAN_POINT('',(-7.5439453125E-02,0.598388671875,0.5));
#1458 = CARTESIAN_POINT('',(-0.22998046875,0.507568359375,0.5));
#1459 = PCURVE('',#916,#1460);
#1460 = DEFINITIONAL_REPRESENTATION('',(#1461),#1465);
#1461 = LINE('',#1462,#1463);
#1462 = CARTESIAN_POINT('',(0.,0.));
#1463 = VECTOR('',#1464,1.);
#1464 = DIRECTION('',(1.,0.));
#1465 = ( GEOMETRIC_REPRESENTATION_CONTEXT(2) 
PARAMETRIC_REPRESENTATION_CONTEXT() REPRESENTATION_CONTEXT('2D SPACE',''
  ) );
#1466 = PCURVE('',#1293,#1467);
#1467 = DEFINITIONAL_REPRESENTATION('',(#1468),#1472);
#1468 = B_SPLINE_CURVE_WITH_KNOTS('',2,(#1469,#1470,#1471),
  .UNSPECIFIED.,.F.,.F.,(3,3),(0.,1.),.PIECEWISE_BEZIER_KNOTS.);
#1469 = CARTESIAN_POINT('',(0.85400390625,1.68017578125));
#1470 = CARTESIAN_POINT('',(0.7587890625,1.58935546875));
#1471 = CARTESIAN_POINT('',(0.604248046875,1.49853515625));
#1472 = ( GEOMETRIC_REPRESENTATION_CONTEXT(2) 
PARAMETRIC_REPRESENTATION_CONTEXT() REPRESENTATION_CONTEXT('2D SPACE',''
  ) );
#1473 = ORIENTED_EDGE('',*,*,#1427,.T.);
#1474 = ORIENTED_EDGE('',*,*,#882,.F.);
#1475 = ORIENTED_EDGE('',*,*,#1476,.F.);
#1476 = EDGE_CURVE('',#1452,#838,#1477,.T.);
#1477 = SURFACE_CURVE('',#1478,(#1482,#1489),.PCURVE_S1.);
#1478 = LINE('',#1479,#1480);
#1479 = CARTESIAN_POINT('',(-0.22998046875,0.507568359375,0.5));
#1480 = VECTOR('',#1481,1.);
#1481 = DIRECTION('',(0.,0.,1.));
#1482 = PCURVE('',#916,#1483);
#1483 = DEFINITIONAL_REPRESENTATION('',(#1484),#1488);
#1484 = LINE('',#1485,#1486);
#1485 = CARTESIAN_POINT('',(1.,0.));
#1486 = VECTOR('',#1487,1.);
#1487 = DIRECTION('',(0.,-1.));
#1488 = ( GEOMETRIC_REPRESENTATION_CONTEXT(2) 
PARAMETRIC_REPRESENTATION_CONTEXT() REPRESENTATION_CONTEXT('2D SPACE',''
  ) );
#1489 = PCURVE('',#863,#1490);
#1490 = DEFINITIONAL_REPRESENTATION('',(#1491),#1495);
#1491 = LINE('',#1492,#1493);
#1492 = CARTESIAN_POINT('',(0.,0.));
#1493 = VECTOR('',#1494,1.);
#1494 = DIRECTION('',(0.,-1.));
#1495 = ( GEOMETRIC_REPRESENTATION_CONTEXT(2) 
PARAMETRIC_REPRESENTATION_CONTEXT() REPRESENTATION_CONTEXT('2D SPACE',''
  ) );
#1496 = ADVANCED_FACE('',(#1497),#863,.F.);
#1497 = FACE_BOUND('',#1498,.F.);
#1498 = EDGE_LOOP('',(#1499,#1522,#1523,#1524));
#1499 = ORIENTED_EDGE('',*,*,#1500,.F.);
#1500 = EDGE_CURVE('',#1452,#1501,#1503,.T.);
#1501 = VERTEX_POINT('',#1502);
#1502 = CARTESIAN_POINT('',(-0.507568359375,0.371337890625,0.5));
#1503 = SURFACE_CURVE('',#1504,(#1508,#1515),.PCURVE_S1.);
#1504 = B_SPLINE_CURVE_WITH_KNOTS('',2,(#1505,#1506,#1507),
  .UNSPECIFIED.,.F.,.F.,(3,3),(0.,1.),.PIECEWISE_BEZIER_KNOTS.);
#1505 = CARTESIAN_POINT('',(-0.22998046875,0.507568359375,0.5));
#1506 = CARTESIAN_POINT('',(-0.384521484375,0.416748046875,0.5));
#1507 = CARTESIAN_POINT('',(-0.507568359375,0.371337890625,0.5));
#1508 = PCURVE('',#863,#1509);
#1509 = DEFINITIONAL_REPRESENTATION('',(#1510),#1514);
#1510 = LINE('',#1511,#1512);
#1511 = CARTESIAN_POINT('',(0.,0.));
#1512 = VECTOR('',#1513,1.);
#1513 = DIRECTION('',(1.,0.));
#1514 = ( GEOMETRIC_REPRESENTATION_CONTEXT(2) 
PARAMETRIC_REPRESENTATION_CONTEXT() REPRESENTATION_CONTEXT('2D SPACE',''
  ) );
#1515 = PCURVE('',#1293,#1516);
#1516 = DEFINITIONAL_REPRESENTATION('',(#1517),#1521);
#1517 = B_SPLINE_CURVE_WITH_KNOTS('',2,(#1518,#1519,#1520),
  .UNSPECIFIED.,.F.,.F.,(3,3),(0.,1.),.PIECEWISE_BEZIER_KNOTS.);
#1518 = CARTESIAN_POINT('',(0.604248046875,1.49853515625));
#1519 = CARTESIAN_POINT('',(0.44970703125,1.40771484375));
#1520 = CARTESIAN_POINT('',(0.32666015625,1.3623046875));
#1521 = ( GEOMETRIC_REPRESENTATION_CONTEXT(2) 
PARAMETRIC_REPRESENTATION_CONTEXT() REPRESENTATION_CONTEXT('2D SPACE',''
  ) );
#1522 = ORIENTED_EDGE('',*,*,#1476,.T.);
#1523 = ORIENTED_EDGE('',*,*,#837,.F.);
#1524 = ORIENTED_EDGE('',*,*,#1525,.F.);
#1525 = EDGE_CURVE('',#1501,#804,#1526,.T.);
#1526 = SURFACE_CURVE('',#1527,(#1531,#1538),.PCURVE_S1.);
#1527 = LINE('',#1528,#1529);
#1528 = CARTESIAN_POINT('',(-0.507568359375,0.371337890625,0.5));
#1529 = VECTOR('',#1530,1.);
#1530 = DIRECTION('',(0.,0.,1.));
#1531 = PCURVE('',#863,#1532);
#1532 = DEFINITIONAL_REPRESENTATION('',(#1533),#1537);
#1533 = LINE('',#1534,#1535);
#1534 = CARTESIAN_POINT('',(1.,0.));
#1535 = VECTOR('',#1536,1.);
#1536 = DIRECTION('',(0.,-1.));
#1537 = ( GEOMETRIC_REPRESENTATION_CONTEXT(2) 
PARAMETRIC_REPRESENTATION_CONTEXT() REPRESENTATION_CONTEXT('2D SPACE',''
  ) );
#1538 = PCURVE('',#825,#1539);
#1539 = DEFINITIONAL_REPRESENTATION('',(#1540),#1544);
#1540 = LINE('',#1541,#1542);
#1541 = CARTESIAN_POINT('',(0.,0.));
#1542 = VECTOR('',#1543,1.);
#1543 = DIRECTION('',(0.,-1.));
#1544 = ( GEOMETRIC_REPRESENTATION_CONTEXT(2) 
PARAMETRIC_REPRESENTATION_CONTEXT() REPRESENTATION_CONTEXT('2D SPACE',''
  ) );
#1545 = ADVANCED_FACE('',(#1546),#825,.F.);
#1546 = FACE_BOUND('',#1547,.F.);
#1547 = EDGE_LOOP('',(#1548,#1571,#1572,#1573));
#1548 = ORIENTED_EDGE('',*,*,#1549,.F.);
#1549 = EDGE_CURVE('',#1501,#1550,#1552,.T.);
#1550 = VERTEX_POINT('',#1551);
#1551 = CARTESIAN_POINT('',(-0.507568359375,0.626220703125,0.5));
#1552 = SURFACE_CURVE('',#1553,(#1557,#1564),.PCURVE_S1.);
#1553 = LINE('',#1554,#1555);
#1554 = CARTESIAN_POINT('',(-0.507568359375,0.371337890625,0.5));
#1555 = VECTOR('',#1556,1.);
#1556 = DIRECTION('',(0.,1.,0.));
#1557 = PCURVE('',#825,#1558);
#1558 = DEFINITIONAL_REPRESENTATION('',(#1559),#1563);
#1559 = LINE('',#1560,#1561);
#1560 = CARTESIAN_POINT('',(0.,0.));
#1561 = VECTOR('',#1562,1.);
#1562 = DIRECTION('',(1.,0.));
#1563 = ( GEOMETRIC_REPRESENTATION_CONTEXT(2) 
PARAMETRIC_REPRESENTATION_CONTEXT() REPRESENTATION_CONTEXT('2D SPACE',''
  ) );
#1564 = PCURVE('',#1293,#1565);
#1565 = DEFINITIONAL_REPRESENTATION('',(#1566),#1570);
#1566 = LINE('',#1567,#1568);
#1567 = CARTESIAN_POINT('',(0.32666015625,1.3623046875));
#1568 = VECTOR('',#1569,1.);
#1569 = DIRECTION('',(0.,1.));
#1570 = ( GEOMETRIC_REPRESENTATION_CONTEXT(2) 
PARAMETRIC_REPRESENTATION_CONTEXT() REPRESENTATION_CONTEXT('2D SPACE',''
  ) );
#1571 = ORIENTED_EDGE('',*,*,#1525,.T.);
#1572 = ORIENTED_EDGE('',*,*,#803,.F.);
#1573 = ORIENTED_EDGE('',*,*,#1574,.F.);
#1574 = EDGE_CURVE('',#1550,#741,#1575,.T.);
#1575 = SURFACE_CURVE('',#1576,(#1580,#1587),.PCURVE_S1.);
#1576 = LINE('',#1577,#1578);
#1577 = CARTESIAN_POINT('',(-0.507568359375,0.626220703125,0.5));
#1578 = VECTOR('',#1579,1.);
#1579 = DIRECTION('',(0.,0.,1.));
#1580 = PCURVE('',#825,#1581);
#1581 = DEFINITIONAL_REPRESENTATION('',(#1582),#1586);
#1582 = LINE('',#1583,#1584);
#1583 = CARTESIAN_POINT('',(0.2548828125,0.));
#1584 = VECTOR('',#1585,1.);
#1585 = DIRECTION('',(0.,-1.));
#1586 = ( GEOMETRIC_REPRESENTATION_CONTEXT(2) 
PARAMETRIC_REPRESENTATION_CONTEXT() REPRESENTATION_CONTEXT('2D SPACE',''
  ) );
#1587 = PCURVE('',#778,#1588);
#1588 = DEFINITIONAL_REPRESENTATION('',(#1589),#1593);
#1589 = LINE('',#1590,#1591);
#1590 = CARTESIAN_POINT('',(0.,0.));
#1591 = VECTOR('',#1592,1.);
#1592 = DIRECTION('',(0.,-1.));
#1593 = ( GEOMETRIC_REPRESENTATION_CONTEXT(2) 
PARAMETRIC_REPRESENTATION_CONTEXT() REPRESENTATION_CONTEXT('2D SPACE',''
  ) );
#1594 = ADVANCED_FACE('',(#1595),#778,.F.);
#1595 = FACE_BOUND('',#1596,.F.);
#1596 = EDGE_LOOP('',(#1597,#1620,#1621,#1622));
#1597 = ORIENTED_EDGE('',*,*,#1598,.F.);
#1598 = EDGE_CURVE('',#1550,#1599,#1601,.T.);
#1599 = VERTEX_POINT('',#1600);
#1600 = CARTESIAN_POINT('',(-0.120849609375,0.878173828125,0.5));
#1601 = SURFACE_CURVE('',#1602,(#1606,#1613),.PCURVE_S1.);
#1602 = B_SPLINE_CURVE_WITH_KNOTS('',2,(#1603,#1604,#1605),
  .UNSPECIFIED.,.F.,.F.,(3,3),(0.,1.),.PIECEWISE_BEZIER_KNOTS.);
#1603 = CARTESIAN_POINT('',(-0.507568359375,0.626220703125,0.5));
#1604 = CARTESIAN_POINT('',(-0.286376953125,0.730224609375,0.5));
#1605 = CARTESIAN_POINT('',(-0.120849609375,0.878173828125,0.5));
#1606 = PCURVE('',#778,#1607);
#1607 = DEFINITIONAL_REPRESENTATION('',(#1608),#1612);
#1608 = LINE('',#1609,#1610);
#1609 = CARTESIAN_POINT('',(0.,0.));
#1610 = VECTOR('',#1611,1.);
#1611 = DIRECTION('',(1.,0.));
#1612 = ( GEOMETRIC_REPRESENTATION_CONTEXT(2) 
PARAMETRIC_REPRESENTATION_CONTEXT() REPRESENTATION_CONTEXT('2D SPACE',''
  ) );
#1613 = PCURVE('',#1293,#1614);
#1614 = DEFINITIONAL_REPRESENTATION('',(#1615),#1619);
#1615 = B_SPLINE_CURVE_WITH_KNOTS('',2,(#1616,#1617,#1618),
  .UNSPECIFIED.,.F.,.F.,(3,3),(0.,1.),.PIECEWISE_BEZIER_KNOTS.);
#1616 = CARTESIAN_POINT('',(0.32666015625,1.6171875));
#1617 = CARTESIAN_POINT('',(0.5478515625,1.72119140625));
#1618 = CARTESIAN_POINT('',(0.71337890625,1.869140625));
#1619 = ( GEOMETRIC_REPRESENTATION_CONTEXT(2) 
PARAMETRIC_REPRESENTATION_CONTEXT() REPRESENTATION_CONTEXT('2D SPACE',''
  ) );
#1620 = ORIENTED_EDGE('',*,*,#1574,.T.);
#1621 = ORIENTED_EDGE('',*,*,#740,.F.);
#1622 = ORIENTED_EDGE('',*,*,#1623,.F.);
#1623 = EDGE_CURVE('',#1599,#678,#1624,.T.);
#1624 = SURFACE_CURVE('',#1625,(#1629,#1636),.PCURVE_S1.);
#1625 = LINE('',#1626,#1627);
#1626 = CARTESIAN_POINT('',(-0.120849609375,0.878173828125,0.5));
#1627 = VECTOR('',#1628,1.);
#1628 = DIRECTION('',(0.,0.,1.));
#1629 = PCURVE('',#778,#1630);
#1630 = DEFINITIONAL_REPRESENTATION('',(#1631),#1635);
#1631 = LINE('',#1632,#1633);
#1632 = CARTESIAN_POINT('',(1.,0.));
#1633 = VECTOR('',#1634,1.);
#1634 = DIRECTION('',(0.,-1.));
#1635 = ( GEOMETRIC_REPRESENTATION_CONTEXT(2) 
PARAMETRIC_REPRESENTATION_CONTEXT() REPRESENTATION_CONTEXT('2D SPACE',''
  ) );
#1636 = PCURVE('',#715,#1637);
#1637 = DEFINITIONAL_REPRESENTATION('',(#1638),#1642);
#1638 = LINE('',#1639,#1640);
#1639 = CARTESIAN_POINT('',(0.,0.));
#1640 = VECTOR('',#1641,1.);
#1641 = DIRECTION('',(0.,-1.));
#1642 = ( GEOMETRIC_REPRESENTATION_CONTEXT(2) 
PARAMETRIC_REPRESENTATION_CONTEXT() REPRESENTATION_CONTEXT('2D SPACE',''
  ) );
#1643 = ADVANCED_FACE('',(#1644),#715,.F.);
#1644 = FACE_BOUND('',#1645,.F.);
#1645 = EDGE_LOOP('',(#1646,#1669,#1670,#1671));
#1646 = ORIENTED_EDGE('',*,*,#1647,.F.);
#1647 = EDGE_CURVE('',#1599,#1648,#1650,.T.);
#1648 = VERTEX_POINT('',#1649);
#1649 = CARTESIAN_POINT('',(0.113525390625,1.165283203125,0.5));
#1650 = SURFACE_CURVE('',#1651,(#1655,#1662),.PCURVE_S1.);
#1651 = B_SPLINE_CURVE_WITH_KNOTS('',2,(#1652,#1653,#1654),
  .UNSPECIFIED.,.F.,.F.,(3,3),(0.,1.),.PIECEWISE_BEZIER_KNOTS.);
#1652 = CARTESIAN_POINT('',(-0.120849609375,0.878173828125,0.5));
#1653 = CARTESIAN_POINT('',(4.4677734375E-02,1.026123046875,0.5));
#1654 = CARTESIAN_POINT('',(0.113525390625,1.165283203125,0.5));
#1655 = PCURVE('',#715,#1656);
#1656 = DEFINITIONAL_REPRESENTATION('',(#1657),#1661);
#1657 = LINE('',#1658,#1659);
#1658 = CARTESIAN_POINT('',(0.,0.));
#1659 = VECTOR('',#1660,1.);
#1660 = DIRECTION('',(1.,0.));
#1661 = ( GEOMETRIC_REPRESENTATION_CONTEXT(2) 
PARAMETRIC_REPRESENTATION_CONTEXT() REPRESENTATION_CONTEXT('2D SPACE',''
  ) );
#1662 = PCURVE('',#1293,#1663);
#1663 = DEFINITIONAL_REPRESENTATION('',(#1664),#1668);
#1664 = B_SPLINE_CURVE_WITH_KNOTS('',2,(#1665,#1666,#1667),
  .UNSPECIFIED.,.F.,.F.,(3,3),(0.,1.),.PIECEWISE_BEZIER_KNOTS.);
#1665 = CARTESIAN_POINT('',(0.71337890625,1.869140625));
#1666 = CARTESIAN_POINT('',(0.87890625,2.01708984375));
#1667 = CARTESIAN_POINT('',(0.94775390625,2.15625));
#1668 = ( GEOMETRIC_REPRESENTATION_CONTEXT(2) 
PARAMETRIC_REPRESENTATION_CONTEXT() REPRESENTATION_CONTEXT('2D SPACE',''
  ) );
#1669 = ORIENTED_EDGE('',*,*,#1623,.T.);
#1670 = ORIENTED_EDGE('',*,*,#677,.F.);
#1671 = ORIENTED_EDGE('',*,*,#1672,.F.);
#1672 = EDGE_CURVE('',#1648,#646,#1673,.T.);
#1673 = SURFACE_CURVE('',#1674,(#1678,#1685),.PCURVE_S1.);
#1674 = LINE('',#1675,#1676);
#1675 = CARTESIAN_POINT('',(0.113525390625,1.165283203125,0.5));
#1676 = VECTOR('',#1677,1.);
#1677 = DIRECTION('',(0.,0.,1.));
#1678 = PCURVE('',#715,#1679);
#1679 = DEFINITIONAL_REPRESENTATION('',(#1680),#1684);
#1680 = LINE('',#1681,#1682);
#1681 = CARTESIAN_POINT('',(1.,0.));
#1682 = VECTOR('',#1683,1.);
#1683 = DIRECTION('',(0.,-1.));
#1684 = ( GEOMETRIC_REPRESENTATION_CONTEXT(2) 
PARAMETRIC_REPRESENTATION_CONTEXT() REPRESENTATION_CONTEXT('2D SPACE',''
  ) );
#1685 = PCURVE('',#665,#1686);
#1686 = DEFINITIONAL_REPRESENTATION('',(#1687),#1691);
#1687 = LINE('',#1688,#1689);
#1688 = CARTESIAN_POINT('',(0.,0.));
#1689 = VECTOR('',#1690,1.);
#1690 = DIRECTION('',(0.,-1.));
#1691 = ( GEOMETRIC_REPRESENTATION_CONTEXT(2) 
PARAMETRIC_REPRESENTATION_CONTEXT() REPRESENTATION_CONTEXT('2D SPACE',''
  ) );
#1692 = ADVANCED_FACE('',(#1693),#665,.F.);
#1693 = FACE_BOUND('',#1694,.F.);
#1694 = EDGE_LOOP('',(#1695,#1716,#1717,#1718));
#1695 = ORIENTED_EDGE('',*,*,#1696,.F.);
#1696 = EDGE_CURVE('',#1648,#1276,#1697,.T.);
#1697 = SURFACE_CURVE('',#1698,(#1702,#1709),.PCURVE_S1.);
#1698 = LINE('',#1699,#1700);
#1699 = CARTESIAN_POINT('',(0.113525390625,1.165283203125,0.5));
#1700 = VECTOR('',#1701,1.);
#1701 = DIRECTION('',(1.,0.,0.));
#1702 = PCURVE('',#665,#1703);
#1703 = DEFINITIONAL_REPRESENTATION('',(#1704),#1708);
#1704 = LINE('',#1705,#1706);
#1705 = CARTESIAN_POINT('',(0.,0.));
#1706 = VECTOR('',#1707,1.);
#1707 = DIRECTION('',(1.,0.));
#1708 = ( GEOMETRIC_REPRESENTATION_CONTEXT(2) 
PARAMETRIC_REPRESENTATION_CONTEXT() REPRESENTATION_CONTEXT('2D SPACE',''
  ) );
#1709 = PCURVE('',#1293,#1710);
#1710 = DEFINITIONAL_REPRESENTATION('',(#1711),#1715);
#1711 = LINE('',#1712,#1713);
#1712 = CARTESIAN_POINT('',(0.94775390625,2.15625));
#1713 = VECTOR('',#1714,1.);
#1714 = DIRECTION('',(1.,0.));
#1715 = ( GEOMETRIC_REPRESENTATION_CONTEXT(2) 
PARAMETRIC_REPRESENTATION_CONTEXT() REPRESENTATION_CONTEXT('2D SPACE',''
  ) );
#1716 = ORIENTED_EDGE('',*,*,#1672,.T.);
#1717 = ORIENTED_EDGE('',*,*,#645,.F.);
#1718 = ORIENTED_EDGE('',*,*,#1305,.F.);
#1719 = ADVANCED_FACE('',(#1720),#1293,.T.);
#1720 = FACE_BOUND('',#1721,.F.);
#1721 = EDGE_LOOP('',(#1722,#1723,#1724,#1725,#1726,#1727,#1728,#1729,
    #1730));
#1722 = ORIENTED_EDGE('',*,*,#1275,.T.);
#1723 = ORIENTED_EDGE('',*,*,#1352,.T.);
#1724 = ORIENTED_EDGE('',*,*,#1401,.T.);
#1725 = ORIENTED_EDGE('',*,*,#1451,.T.);
#1726 = ORIENTED_EDGE('',*,*,#1500,.T.);
#1727 = ORIENTED_EDGE('',*,*,#1549,.T.);
#1728 = ORIENTED_EDGE('',*,*,#1598,.T.);
#1729 = ORIENTED_EDGE('',*,*,#1647,.T.);
#1730 = ORIENTED_EDGE('',*,*,#1696,.T.);
#1731 = ( GEOMETRIC_REPRESENTATION_CONTEXT(3) 
GLOBAL_UNCERTAINTY_ASSIGNED_CONTEXT((#1735)) 
GLOBAL_UNIT_ASSIGNED_CONTEXT((#1732,#1733,#1734)) REPRESENTATION_CONTEXT
('Context #1','3D Context with UNIT and UNCERTAINTY') );
#1732 = ( LENGTH_UNIT() NAMED_UNIT(*) SI_UNIT(.MILLI.,.METRE.) );
#1733 = ( NAMED_UNIT(*) PLANE_ANGLE_UNIT() SI_UNIT($,.RADIAN.) );
#1734 = ( NAMED_UNIT(*) SI_UNIT($,.STERADIAN.) SOLID_ANGLE_UNIT() );
#1735 = UNCERTAINTY_MEASURE_WITH_UNIT(LENGTH_MEASURE(1.E-06),#1732,
  'distance_accuracy_value','confusion accuracy');
#1736 = PRODUCT_RELATED_PRODUCT_CATEGORY('part',$,(#7));
ENDSEC;
END-ISO-10303-21;
