%TF.GenerationSoftware,KiCad,Pcbnew,10.0.4*%
%TF.CreationDate,2026-08-01T19:46:33+02:00*%
%TF.ProjectId,pocket_card_controller,706f636b-6574-45f6-9361-72645f636f6e,rev?*%
%TF.SameCoordinates,Original*%
%TF.FileFunction,Copper,L1,Top*%
%TF.FilePolarity,Positive*%
%FSLAX46Y46*%
G04 Gerber Fmt 4.6, Leading zero omitted, Abs format (unit mm)*
G04 Created by KiCad (PCBNEW 10.0.4) date 2026-08-01 19:46:33*
%MOMM*%
%LPD*%
G01*
G04 APERTURE LIST*
G04 Aperture macros list*
%AMRoundRect*
0 Rectangle with rounded corners*
0 $1 Rounding radius*
0 $2 $3 $4 $5 $6 $7 $8 $9 X,Y pos of 4 corners*
0 Add a 4 corners polygon primitive as box body*
4,1,4,$2,$3,$4,$5,$6,$7,$8,$9,$2,$3,0*
0 Add four circle primitives for the rounded corners*
1,1,$1+$1,$2,$3*
1,1,$1+$1,$4,$5*
1,1,$1+$1,$6,$7*
1,1,$1+$1,$8,$9*
0 Add four rect primitives between the rounded corners*
20,1,$1+$1,$2,$3,$4,$5,0*
20,1,$1+$1,$4,$5,$6,$7,0*
20,1,$1+$1,$6,$7,$8,$9,0*
20,1,$1+$1,$8,$9,$2,$3,0*%
G04 Aperture macros list end*
%TA.AperFunction,SMDPad,CuDef*%
%ADD10R,1.800000X1.100000*%
%TD*%
%TA.AperFunction,SMDPad,CuDef*%
%ADD11R,1.000000X0.800000*%
%TD*%
%TA.AperFunction,SMDPad,CuDef*%
%ADD12R,0.700000X1.500000*%
%TD*%
%TA.AperFunction,SMDPad,CuDef*%
%ADD13RoundRect,0.150000X-0.875000X-0.150000X0.875000X-0.150000X0.875000X0.150000X-0.875000X0.150000X0*%
%TD*%
%TA.AperFunction,ViaPad*%
%ADD14C,0.600000*%
%TD*%
%TA.AperFunction,Conductor*%
%ADD15C,0.200000*%
%TD*%
%ADD16C,0.300000*%
%ADD17C,0.350000*%
G04 APERTURE END LIST*
D10*
%TO.P,SW_LEFT,1*%
%TO.N,SIG_LEFT*%
X7600000Y-66950000D03*
X13800000Y-66950000D03*
%TO.P,SW_LEFT,2*%
%TO.N,GND*%
X7600000Y-70650000D03*
X13800000Y-70650000D03*
%TD*%
D11*
%TO.P,SW_PWR,*%
%TO.N,*%
X16350000Y-86870000D03*
X16350000Y-89080000D03*
X23650000Y-86870000D03*
X23650000Y-89080000D03*
D12*
%TO.P,SW_PWR,1*%
%TO.N,BAT_SW*%
X17750000Y-86220000D03*
%TO.P,SW_PWR,2*%
%TO.N,BAT_P*%
X20750000Y-86220000D03*
%TO.P,SW_PWR,3*%
%TO.N,N/C*%
X22250000Y-86220000D03*
%TD*%
D10*
%TO.P,SW_ACTION,1*%
%TO.N,SIG_ACTION*%
X74000000Y-59250000D03*
X80200000Y-59250000D03*
%TO.P,SW_ACTION,2*%
%TO.N,GND*%
X74000000Y-62950000D03*
X80200000Y-62950000D03*
%TD*%
%TO.P,SW_MENU,1*%
%TO.N,SIG_MENU*%
X36500000Y-83550000D03*
X42700000Y-83550000D03*
%TO.P,SW_MENU,2*%
%TO.N,GND*%
X36500000Y-87250000D03*
X42700000Y-87250000D03*
%TD*%
%TO.P,SW_RIGHT,1*%
%TO.N,SIG_RIGHT*%
X25600000Y-66950000D03*
X31800000Y-66950000D03*
%TO.P,SW_RIGHT,2*%
%TO.N,GND*%
X25600000Y-70650000D03*
X31800000Y-70650000D03*
%TD*%
%TO.P,SW_DOWN,1*%
%TO.N,SIG_DOWN*%
X16600000Y-75950000D03*
X22800000Y-75950000D03*
%TO.P,SW_DOWN,2*%
%TO.N,GND*%
X16600000Y-79650000D03*
X22800000Y-79650000D03*
%TD*%
%TO.P,SW_RESET,1*%
%TO.N,SIG_RESET*%
X53400000Y-78150000D03*
X59600000Y-78150000D03*
%TO.P,SW_RESET,2*%
%TO.N,GND*%
X53400000Y-81850000D03*
X59600000Y-81850000D03*
%TD*%
%TO.P,SW_UP,1*%
%TO.N,SIG_UP*%
X16600000Y-57950000D03*
X22800000Y-57950000D03*
%TO.P,SW_UP,2*%
%TO.N,GND*%
X16600000Y-61650000D03*
X22800000Y-61650000D03*
%TD*%
D13*
%TO.P,U1,1*%
%TO.N,SIG_UP*%
X40350000Y-63745000D03*
%TO.P,U1,2*%
%TO.N,N/C*%
X40350000Y-65015000D03*
%TO.P,U1,3*%
X40350000Y-66285000D03*
%TO.P,U1,4*%
X40350000Y-67555000D03*
%TO.P,U1,5*%
X40350000Y-68825000D03*
%TO.P,U1,6*%
X40350000Y-70095000D03*
%TO.P,U1,7*%
X40350000Y-71365000D03*
%TO.P,U1,8*%
X40350000Y-72635000D03*
%TO.P,U1,9*%
%TO.N,+3V3*%
X40350000Y-73905000D03*
%TO.P,U1,10*%
%TO.N,GND*%
X40350000Y-75175000D03*
%TO.P,U1,11*%
%TO.N,N/C*%
X40350000Y-76445000D03*
%TO.P,U1,12*%
%TO.N,SCL*%
X40350000Y-77715000D03*
%TO.P,U1,13*%
%TO.N,SDA*%
X40350000Y-78985000D03*
%TO.P,U1,14*%
%TO.N,N/C*%
X40350000Y-80255000D03*
%TO.P,U1,15*%
%TO.N,GND*%
X49650000Y-80255000D03*
%TO.P,U1,16*%
X49650000Y-78985000D03*
%TO.P,U1,17*%
X49650000Y-77715000D03*
%TO.P,U1,18*%
%TO.N,+3V3*%
X49650000Y-76445000D03*
%TO.P,U1,19*%
%TO.N,N/C*%
X49650000Y-75175000D03*
%TO.P,U1,20*%
%TO.N,INT*%
X49650000Y-73905000D03*
%TO.P,U1,21*%
%TO.N,SIG_DOWN*%
X49650000Y-72635000D03*
%TO.P,U1,22*%
%TO.N,SIG_RESET*%
X49650000Y-71365000D03*
%TO.P,U1,23*%
%TO.N,SIG_MENU*%
X49650000Y-70095000D03*
%TO.P,U1,24*%
%TO.N,SIG_LEFT*%
X49650000Y-68825000D03*
%TO.P,U1,25*%
%TO.N,SIG_RIGHT*%
X49650000Y-67555000D03*
%TO.P,U1,26*%
%TO.N,SIG_UNDO*%
X49650000Y-66285000D03*
%TO.P,U1,27*%
%TO.N,SIG_MUTE*%
X49650000Y-65015000D03*
%TO.P,U1,28*%
%TO.N,SIG_ACTION*%
X49650000Y-63745000D03*
%TD*%
D10*
%TO.P,SW_UNDO,1*%
%TO.N,SIG_UNDO*%
X57300000Y-63950000D03*
X63500000Y-63950000D03*
%TO.P,SW_UNDO,2*%
%TO.N,GND*%
X57300000Y-67650000D03*
X63500000Y-67650000D03*
%TD*%
D11*
%TO.P,SW_MUTE,*%
%TO.N,GND*%
X54350000Y-86870000D03*
X54350000Y-89080000D03*
X61650000Y-86870000D03*
X61650000Y-89080000D03*
D12*
%TO.P,SW_MUTE,1*%
%TO.N,SIG_MUTE*%
X55750000Y-86220000D03*
%TO.P,SW_MUTE,2*%
%TO.N,GND*%
X58750000Y-86220000D03*
%TO.P,SW_MUTE,3*%
X60250000Y-86220000D03*
%TD*%
D14*
%TO.N,SIG_LEFT*%
X14852000Y-68784400D03*
X44907800Y-69437500D03*
%TO.N,GND*%
X66661400Y-66454100D03*
X10000000Y-78000000D03*
X10000000Y-58000000D03*
X10000000Y-86000000D03*
X50000000Y-86000000D03*
X52000000Y-58000000D03*
X32000000Y-86000000D03*
%TO.N,BAT_SW*%
X22789300Y-82480900D03*
%TO.N,BAT_P*%
X24192700Y-80692700D03*
%TO.N,SIG_DOWN*%
X47929000Y-73570600D03*
X24978000Y-77195200D03*
%TO.N,SIG_RESET*%
X55000000Y-78000000D03*
%TO.N,SIG_UP*%
X32000000Y-58000000D03*
%TO.N,+3V3*%
X51412000Y-74998800D03*
%TO.N,SCL*%
X43262800Y-76685400D03*
%TO.N,SDA*%
X42439200Y-76167700D03*
%TO.N,INT*%
X51729200Y-73574000D03*
%TD*%
%TO.N,SIG_LEFT*%
D15*
X49650000Y-68825000D02*
X49037500Y-69437500D01*
X14951700Y-68684700D02*
X14951700Y-66950000D01*
X48360000Y-69437500D02*
X44907800Y-69437500D01*
X13800000Y-66950000D02*
X7600000Y-66950000D01*
X14852000Y-69437500D02*
X14852000Y-68784400D01*
X13800000Y-66950000D02*
X14951700Y-66950000D01*
X14852000Y-68784400D02*
X14852000Y-69437500D01*
X49037500Y-69437500D02*
X48360000Y-69437500D01*
X14852000Y-68784400D02*
X14951700Y-68684700D01*
%TO.N,GND*%
X22800000Y-61650000D02*
X16600000Y-61650000D01*
X54350000Y-89080000D02*
X54350000Y-86870000D01*
X22800000Y-79650000D02*
X16600000Y-79650000D01*
X23951700Y-70153400D02*
X24448300Y-70650000D01*
X59600000Y-81850000D02*
X60751700Y-81850000D01*
X60751700Y-81850000D02*
X61103400Y-81498300D01*
X31800000Y-70650000D02*
X32951700Y-70650000D01*
X60250000Y-86220000D02*
X60250000Y-86712500D01*
X60250000Y-86712500D02*
X60250000Y-87221700D01*
X60751700Y-84716600D02*
X60250000Y-85218300D01*
X74000000Y-62950000D02*
X70165500Y-62950000D01*
X42831100Y-75175000D02*
X40350000Y-75175000D01*
X22800000Y-61650000D02*
X23951700Y-61650000D01*
X60722500Y-87221700D02*
X60898300Y-87045900D01*
X49650000Y-78985000D02*
X49650000Y-80255000D01*
X58750000Y-86220000D02*
X58750000Y-87221700D01*
X15448300Y-61650000D02*
X15448300Y-70153400D01*
X46143800Y-78985000D02*
X46143800Y-78487700D01*
X60250000Y-87221700D02*
X60722500Y-87221700D01*
X61103400Y-67650000D02*
X61996200Y-67650000D01*
X59242500Y-86712500D02*
X58750000Y-86220000D01*
X42212500Y-87250000D02*
X36500000Y-87250000D01*
X13800000Y-70650000D02*
X14951700Y-70650000D01*
X57300000Y-67650000D02*
X60751700Y-67650000D01*
X60751700Y-81850000D02*
X60751700Y-84716600D01*
X25600000Y-70650000D02*
X24448300Y-70650000D01*
X58750000Y-87221700D02*
X56891700Y-89080000D01*
X36500000Y-87250000D02*
X35348300Y-87250000D01*
X49650000Y-77715000D02*
X49650000Y-78985000D01*
X49650000Y-78985000D02*
X46143800Y-78985000D01*
X61274200Y-86870000D02*
X61274200Y-88052500D01*
X51245000Y-81850000D02*
X49650000Y-80255000D01*
X60793000Y-67650000D02*
X61103400Y-67650000D01*
X66661400Y-66454100D02*
X66254500Y-66047200D01*
X53975900Y-81850000D02*
X54551700Y-81850000D01*
X61650000Y-86870000D02*
X61274200Y-86870000D01*
X66254500Y-66047200D02*
X64651700Y-67650000D01*
X61274200Y-86870000D02*
X60898300Y-86870000D01*
X15448300Y-70153400D02*
X14951700Y-70650000D01*
X7600000Y-70650000D02*
X13800000Y-70650000D01*
X43851700Y-81277100D02*
X46143800Y-78985000D01*
X32951700Y-70650000D02*
X32951700Y-84853400D01*
X23951700Y-61650000D02*
X23951700Y-70153400D01*
X54350000Y-86870000D02*
X54350000Y-86218300D01*
X43851700Y-87250000D02*
X43851700Y-81277100D01*
X16600000Y-79650000D02*
X15448300Y-79650000D01*
X54551700Y-81850000D02*
X54551700Y-86016600D01*
X15448300Y-71146600D02*
X14951700Y-70650000D01*
X25600000Y-70650000D02*
X30750000Y-70650000D01*
X30750000Y-70650000D02*
X31800000Y-70650000D01*
X32951700Y-84853400D02*
X35348300Y-87250000D01*
X15448300Y-79650000D02*
X15448300Y-71146600D01*
X60250000Y-86220000D02*
X60250000Y-85218300D01*
X63500000Y-67650000D02*
X64651700Y-67650000D01*
X61274200Y-88052500D02*
X61650000Y-88428300D01*
X60250000Y-86712500D02*
X59242500Y-86712500D01*
X42253800Y-87250000D02*
X42212500Y-87250000D01*
X60898300Y-87045900D02*
X60898300Y-86870000D01*
X53975900Y-81850000D02*
X53400000Y-81850000D01*
X56891700Y-89080000D02*
X54350000Y-89080000D01*
X42700000Y-87250000D02*
X43851700Y-87250000D01*
X61650000Y-89080000D02*
X61650000Y-88428300D01*
X70165500Y-62950000D02*
X66661400Y-66454100D01*
X54551700Y-86016600D02*
X54350000Y-86218300D01*
X42700000Y-87250000D02*
X42253800Y-87250000D01*
X60751700Y-67650000D02*
X60793000Y-67650000D01*
X62037500Y-67650000D02*
X63500000Y-67650000D01*
X61996200Y-67650000D02*
X62037500Y-67650000D01*
X16600000Y-61650000D02*
X15448300Y-61650000D01*
X61103400Y-81498300D02*
X61103400Y-67650000D01*
X46143800Y-78487700D02*
X42831100Y-75175000D01*
X80200000Y-62950000D02*
X74000000Y-62950000D01*
X53400000Y-81850000D02*
X51245000Y-81850000D01*
%TO.N,BAT_SW*%
X17750000Y-86220000D02*
X17750000Y-85218300D01*
X17750000Y-85218300D02*
X20487400Y-82480900D01*
X20487400Y-82480900D02*
X22789300Y-82480900D01*
%TO.N,BAT_P*%
X24192700Y-80692700D02*
X24192700Y-81888400D01*
X24192700Y-80667300D02*
X24192700Y-80692700D01*
X24192700Y-80692700D02*
X24192700Y-80667300D01*
X24192700Y-81888400D02*
X20862800Y-85218300D01*
X20862800Y-85218300D02*
X20750000Y-85218300D01*
X20750000Y-86220000D02*
X20750000Y-85218300D01*
%TO.N,SIG_ACTION*%
X49650000Y-63745000D02*
X54145000Y-59250000D01*
X74000000Y-59250000D02*
X80200000Y-59250000D01*
X54145000Y-59250000D02*
X74000000Y-59250000D01*
%TO.N,SIG_MENU*%
X49326000Y-70095000D02*
X49650000Y-70095000D01*
X38459000Y-83550000D02*
X39043300Y-83550000D01*
X39043300Y-73587500D02*
X39360800Y-73270000D01*
X37874700Y-83550000D02*
X38459000Y-83550000D01*
X42075300Y-83550000D02*
X42700000Y-83550000D01*
X39043300Y-83550000D02*
X42075300Y-83550000D01*
X39043300Y-83550000D02*
X39043300Y-73587500D01*
X46151000Y-73270000D02*
X49326000Y-70095000D01*
X36500000Y-83550000D02*
X37874700Y-83550000D01*
X39360800Y-73270000D02*
X46151000Y-73270000D01*
%TO.N,SIG_RIGHT*%
X31800000Y-66950000D02*
X25600000Y-66950000D01*
X49045000Y-66950000D02*
X31800000Y-66950000D01*
X49650000Y-67555000D02*
X49045000Y-66950000D01*
%TO.N,SIG_DOWN*%
X16600000Y-75950000D02*
X22800000Y-75950000D01*
X23951700Y-75950000D02*
X23951700Y-76168900D01*
X48864600Y-72635000D02*
X49650000Y-72635000D01*
X22800000Y-75950000D02*
X23951700Y-75950000D01*
X23951700Y-76168900D02*
X24978000Y-77195200D01*
X24978000Y-77195200D02*
X24978000Y-77036000D01*
X47929000Y-73570600D02*
X48864600Y-72635000D01*
X24978000Y-77036000D02*
X24978000Y-77195200D01*
%TO.N,SIG_RESET*%
X52280900Y-73343900D02*
X50302000Y-71365000D01*
X52248300Y-78150000D02*
X52248300Y-73835100D01*
X53400000Y-78150000D02*
X55150000Y-78150000D01*
X52248300Y-73835100D02*
X52280900Y-73802500D01*
X52280900Y-73802500D02*
X52280900Y-73343900D01*
X56500000Y-78150000D02*
X59600000Y-78150000D01*
X50302000Y-71365000D02*
X49650000Y-71365000D01*
X53400000Y-78150000D02*
X52248300Y-78150000D01*
X55150000Y-78150000D02*
X55000000Y-78000000D01*
X55150000Y-78150000D02*
X56500000Y-78150000D01*
%TO.N,SIG_UP*%
X32000000Y-58000000D02*
X32000000Y-57950000D01*
X34555000Y-57950000D02*
X32000000Y-57950000D01*
X40350000Y-63745000D02*
X34555000Y-57950000D01*
X22800000Y-57950000D02*
X16600000Y-57950000D01*
X32000000Y-57950000D02*
X22800000Y-57950000D01*
%TO.N,+3V3*%
X43998400Y-73905000D02*
X46538400Y-76445000D01*
X50057000Y-76445000D02*
X49650000Y-76445000D01*
X40350000Y-73905000D02*
X43998400Y-73905000D01*
X46538400Y-76445000D02*
X49650000Y-76445000D01*
X51412000Y-74998800D02*
X51412000Y-75090000D01*
X51412000Y-75090000D02*
X50057000Y-76445000D01*
%TO.N,SCL*%
X41834800Y-75988300D02*
X41834800Y-76613000D01*
X42677100Y-75591000D02*
X42232100Y-75591000D01*
X43262800Y-76176700D02*
X42677100Y-75591000D01*
X43262800Y-76685400D02*
X43262800Y-76399300D01*
X42232100Y-75591000D02*
X41834800Y-75988300D01*
X40732800Y-77715000D02*
X40350000Y-77715000D01*
X43262800Y-76399300D02*
X43262800Y-76176700D01*
X43262800Y-76685400D02*
X43262800Y-76399300D01*
X43262800Y-76399300D02*
X43262800Y-76685400D01*
X41834800Y-76613000D02*
X40732800Y-77715000D01*
%TO.N,SDA*%
X40690000Y-78985000D02*
X40350000Y-78985000D01*
X42439200Y-76075700D02*
X42439200Y-76167700D01*
X42439200Y-77235800D02*
X40690000Y-78985000D01*
X42439200Y-76167700D02*
X42439200Y-77235800D01*
X42439200Y-76167700D02*
X42439200Y-76075700D01*
%TO.N,INT*%
X51398200Y-73905000D02*
X51729200Y-73574000D01*
X49650000Y-73905000D02*
X51398200Y-73905000D01*
%TO.N,SIG_UNDO*%
X48767600Y-64297300D02*
X48366300Y-64698600D01*
X58405900Y-63950000D02*
X58447200Y-63950000D01*
X58447200Y-63950000D02*
X58451700Y-63950000D01*
X58460800Y-63950000D02*
X60395400Y-63950000D01*
X48366300Y-65388600D02*
X49262700Y-66285000D01*
X49262700Y-66285000D02*
X49650000Y-66285000D01*
X55801000Y-64297300D02*
X48767600Y-64297300D01*
X58099900Y-63950000D02*
X58405900Y-63950000D01*
X60395500Y-63950000D02*
X60400000Y-63950000D01*
X58451700Y-63950000D02*
X58456300Y-63950000D01*
X58456300Y-63950000D02*
X58460800Y-63950000D01*
X60400000Y-63950000D02*
X63500000Y-63950000D01*
X57300000Y-63950000D02*
X56148300Y-63950000D01*
X60395400Y-63950000D02*
X60395500Y-63950000D01*
X48366300Y-64698600D02*
X48366300Y-65388600D01*
X57300000Y-63950000D02*
X58099900Y-63950000D01*
X56148300Y-63950000D02*
X55801000Y-64297300D01*
%TO.N,SIG_MUTE*%
X60751700Y-75772100D02*
X49994600Y-65015000D01*
X60751700Y-78879300D02*
X60751700Y-75772100D01*
X49994600Y-65015000D02*
X49650000Y-65015000D01*
X55750000Y-86220000D02*
X55750000Y-83881000D01*
X55750000Y-83881000D02*
X60751700Y-78879300D01*
%TD*%
%TA.AperFunction,Conductor*%
%TO.N,GND*%
G36*
X82442539Y-53520185D02*
G01*
X82488294Y-53572989D01*
X82499500Y-53624500D01*
X82499500Y-89375500D01*
X82479815Y-89442539D01*
X82427011Y-89488294D01*
X82375500Y-89499500D01*
X62774000Y-89499500D01*
X62706961Y-89479815D01*
X62661206Y-89427011D01*
X62650000Y-89375500D01*
X62650000Y-89330000D01*
X60650000Y-89330000D01*
X60650000Y-89375500D01*
X60630315Y-89442539D01*
X60577511Y-89488294D01*
X60526000Y-89499500D01*
X55474000Y-89499500D01*
X55406961Y-89479815D01*
X55361206Y-89427011D01*
X55350000Y-89375500D01*
X55350000Y-89330000D01*
X53350000Y-89330000D01*
X53350000Y-89375500D01*
X53330315Y-89442539D01*
X53277511Y-89488294D01*
X53226000Y-89499500D01*
X24774500Y-89499500D01*
X24707461Y-89479815D01*
X24661706Y-89427011D01*
X24650500Y-89375500D01*
X24650499Y-88632155D01*
X53350000Y-88632155D01*
X53350000Y-88830000D01*
X54100000Y-88830000D01*
X54600000Y-88830000D01*
X55350000Y-88830000D01*
X55350000Y-88632172D01*
X55349999Y-88632155D01*
X55343598Y-88572627D01*
X55343596Y-88572620D01*
X55293354Y-88437913D01*
X55293350Y-88437906D01*
X55207190Y-88322812D01*
X55207187Y-88322809D01*
X55092093Y-88236649D01*
X55092086Y-88236645D01*
X54957379Y-88186403D01*
X54957372Y-88186401D01*
X54897844Y-88180000D01*
X54600000Y-88180000D01*
X54600000Y-88830000D01*
X54100000Y-88830000D01*
X54100000Y-88180000D01*
X53802155Y-88180000D01*
X53742627Y-88186401D01*
X53742620Y-88186403D01*
X53607913Y-88236645D01*
X53607906Y-88236649D01*
X53492812Y-88322809D01*
X53492809Y-88322812D01*
X53406649Y-88437906D01*
X53406645Y-88437913D01*
X53356403Y-88572620D01*
X53356401Y-88572627D01*
X53350000Y-88632155D01*
X24650499Y-88632155D01*
X24650499Y-88632129D01*
X24650498Y-88632123D01*
X24650497Y-88632116D01*
X24644091Y-88572517D01*
X24593884Y-88437906D01*
X24593797Y-88437671D01*
X24593793Y-88437664D01*
X24507547Y-88322455D01*
X24507544Y-88322452D01*
X24392335Y-88236206D01*
X24392328Y-88236202D01*
X24257482Y-88185908D01*
X24257483Y-88185908D01*
X24197883Y-88179501D01*
X24197881Y-88179500D01*
X24197873Y-88179500D01*
X24197864Y-88179500D01*
X23102129Y-88179500D01*
X23102123Y-88179501D01*
X23042516Y-88185908D01*
X22907671Y-88236202D01*
X22907664Y-88236206D01*
X22792455Y-88322452D01*
X22792452Y-88322455D01*
X22706206Y-88437664D01*
X22706202Y-88437671D01*
X22655908Y-88572517D01*
X22649501Y-88632116D01*
X22649500Y-88632127D01*
X22649500Y-89042656D01*
X22649501Y-89375500D01*
X22629817Y-89442539D01*
X22577013Y-89488294D01*
X22525501Y-89499500D01*
X17474500Y-89499500D01*
X17407461Y-89479815D01*
X17361706Y-89427011D01*
X17350500Y-89375500D01*
X17350499Y-88632129D01*
X17350498Y-88632123D01*
X17350497Y-88632116D01*
X17344091Y-88572517D01*
X17293884Y-88437906D01*
X17293797Y-88437671D01*
X17293793Y-88437664D01*
X17207547Y-88322455D01*
X17207544Y-88322452D01*
X17092335Y-88236206D01*
X17092328Y-88236202D01*
X16957482Y-88185908D01*
X16957483Y-88185908D01*
X16897883Y-88179501D01*
X16897881Y-88179500D01*
X16897873Y-88179500D01*
X16897864Y-88179500D01*
X15802129Y-88179500D01*
X15802123Y-88179501D01*
X15742516Y-88185908D01*
X15607671Y-88236202D01*
X15607664Y-88236206D01*
X15492455Y-88322452D01*
X15492452Y-88322455D01*
X15406206Y-88437664D01*
X15406202Y-88437671D01*
X15355908Y-88572517D01*
X15349501Y-88632116D01*
X15349500Y-88632127D01*
X15349500Y-89042656D01*
X15349501Y-89375500D01*
X15329817Y-89442539D01*
X15277013Y-89488294D01*
X15225501Y-89499500D01*
X5540682Y-89499500D01*
X5473643Y-89479815D01*
X5427888Y-89427011D01*
X5417944Y-89357853D01*
X5446969Y-89294297D01*
X5467797Y-89275182D01*
X5542649Y-89220798D01*
X5542647Y-89220798D01*
X5542656Y-89220793D01*
X5720793Y-89042656D01*
X5868870Y-88838845D01*
X5983241Y-88614379D01*
X6061090Y-88374785D01*
X6100500Y-88125962D01*
X6100500Y-87874038D01*
X6061090Y-87625215D01*
X5983241Y-87385621D01*
X5983239Y-87385618D01*
X5983239Y-87385616D01*
X5922411Y-87266235D01*
X5868870Y-87161155D01*
X5808079Y-87077483D01*
X5720798Y-86957350D01*
X5720794Y-86957345D01*
X5542654Y-86779205D01*
X5542649Y-86779201D01*
X5338848Y-86631132D01*
X5338847Y-86631131D01*
X5338845Y-86631130D01*
X5212216Y-86566609D01*
X5138975Y-86529291D01*
X5138973Y-86529289D01*
X5114386Y-86516761D01*
X4874785Y-86438910D01*
X4769106Y-86422172D01*
X4768872Y-86422135D01*
X15349500Y-86422135D01*
X15349500Y-87317870D01*
X15349501Y-87317876D01*
X15355908Y-87377483D01*
X15406202Y-87512328D01*
X15406206Y-87512335D01*
X15492452Y-87627544D01*
X15492455Y-87627547D01*
X15607664Y-87713793D01*
X15607671Y-87713797D01*
X15742517Y-87764091D01*
X15742516Y-87764091D01*
X15749444Y-87764835D01*
X15802127Y-87770500D01*
X16897872Y-87770499D01*
X16957483Y-87764091D01*
X17092331Y-87713796D01*
X17207546Y-87627546D01*
X17287915Y-87520185D01*
X17343847Y-87478317D01*
X17387174Y-87470499D01*
X17767321Y-87470499D01*
X17834359Y-87490184D01*
X17880114Y-87542988D01*
X17890058Y-87612146D01*
X17880271Y-87642027D01*
X17881556Y-87642560D01*
X17826421Y-87775667D01*
X17826418Y-87775677D01*
X17799500Y-87911004D01*
X17799500Y-87911007D01*
X17799500Y-88048993D01*
X17799500Y-88048995D01*
X17799499Y-88048995D01*
X17826418Y-88184322D01*
X17826421Y-88184332D01*
X17879221Y-88311804D01*
X17879228Y-88311817D01*
X17955885Y-88426541D01*
X17955888Y-88426545D01*
X18053454Y-88524111D01*
X18053458Y-88524114D01*
X18168182Y-88600771D01*
X18168195Y-88600778D01*
X18243947Y-88632155D01*
X18295672Y-88653580D01*
X18295676Y-88653580D01*
X18295677Y-88653581D01*
X18431004Y-88680500D01*
X18431007Y-88680500D01*
X18568995Y-88680500D01*
X18660041Y-88662389D01*
X18704328Y-88653580D01*
X18831811Y-88600775D01*
X18946542Y-88524114D01*
X19044114Y-88426542D01*
X19120775Y-88311811D01*
X19173580Y-88184328D01*
X19195611Y-88073571D01*
X19200500Y-88048995D01*
X19200500Y-87911004D01*
X19173581Y-87775677D01*
X19173580Y-87775676D01*
X19173580Y-87775672D01*
X19147767Y-87713354D01*
X19120778Y-87648195D01*
X19120771Y-87648182D01*
X19044114Y-87533458D01*
X19044111Y-87533454D01*
X18946545Y-87435888D01*
X18946541Y-87435885D01*
X18831817Y-87359228D01*
X18831804Y-87359221D01*
X18704332Y-87306421D01*
X18704323Y-87306419D01*
X18665123Y-87298621D01*
X18603213Y-87266235D01*
X18568639Y-87205519D01*
X18572380Y-87135750D01*
X18573112Y-87133729D01*
X18594091Y-87077483D01*
X18600500Y-87017873D01*
X18600499Y-85422128D01*
X18594091Y-85362517D01*
X18584159Y-85335887D01*
X18579175Y-85266195D01*
X18612658Y-85204875D01*
X20699816Y-83117719D01*
X20761139Y-83084234D01*
X20787497Y-83081400D01*
X21851102Y-83081400D01*
X21918141Y-83101085D01*
X21963896Y-83153889D01*
X21973840Y-83223047D01*
X21944815Y-83286603D01*
X21938783Y-83293081D01*
X20616739Y-84615124D01*
X20561153Y-84647217D01*
X20518222Y-84658720D01*
X20518209Y-84658726D01*
X20381290Y-84737775D01*
X20381282Y-84737781D01*
X20269481Y-84849582D01*
X20269477Y-84849587D01*
X20187714Y-84991205D01*
X20154639Y-85028471D01*
X20042452Y-85112455D01*
X19956206Y-85227664D01*
X19956202Y-85227671D01*
X19905908Y-85362517D01*
X19899501Y-85422116D01*
X19899501Y-85422123D01*
X19899500Y-85422135D01*
X19899500Y-87017870D01*
X19899501Y-87017876D01*
X19905908Y-87077483D01*
X19956202Y-87212328D01*
X19956206Y-87212335D01*
X20042452Y-87327544D01*
X20042455Y-87327547D01*
X20157664Y-87413793D01*
X20157671Y-87413797D01*
X20202618Y-87430561D01*
X20292517Y-87464091D01*
X20352127Y-87470500D01*
X20767321Y-87470499D01*
X20834359Y-87490183D01*
X20880114Y-87542987D01*
X20890058Y-87612146D01*
X20880271Y-87642027D01*
X20881556Y-87642560D01*
X20826421Y-87775667D01*
X20826418Y-87775677D01*
X20799500Y-87911004D01*
X20799500Y-87911007D01*
X20799500Y-88048993D01*
X20799500Y-88048995D01*
X20799499Y-88048995D01*
X20826418Y-88184322D01*
X20826421Y-88184332D01*
X20879221Y-88311804D01*
X20879228Y-88311817D01*
X20955885Y-88426541D01*
X20955888Y-88426545D01*
X21053454Y-88524111D01*
X21053458Y-88524114D01*
X21168182Y-88600771D01*
X21168195Y-88600778D01*
X21243947Y-88632155D01*
X21295672Y-88653580D01*
X21295676Y-88653580D01*
X21295677Y-88653581D01*
X21431004Y-88680500D01*
X21431007Y-88680500D01*
X21568995Y-88680500D01*
X21660041Y-88662389D01*
X21704328Y-88653580D01*
X21831811Y-88600775D01*
X21946542Y-88524114D01*
X22044114Y-88426542D01*
X22120775Y-88311811D01*
X22173580Y-88184328D01*
X22195611Y-88073571D01*
X22200500Y-88048995D01*
X22200500Y-87911004D01*
X22187936Y-87847844D01*
X35100000Y-87847844D01*
X35106401Y-87907372D01*
X35106403Y-87907379D01*
X35156645Y-88042086D01*
X35156649Y-88042093D01*
X35242809Y-88157187D01*
X35242812Y-88157190D01*
X35357906Y-88243350D01*
X35357913Y-88243354D01*
X35492620Y-88293596D01*
X35492627Y-88293598D01*
X35552155Y-88299999D01*
X35552172Y-88300000D01*
X36250000Y-88300000D01*
X36750000Y-88300000D01*
X37447828Y-88300000D01*
X37447844Y-88299999D01*
X37507372Y-88293598D01*
X37507379Y-88293596D01*
X37642086Y-88243354D01*
X37642093Y-88243350D01*
X37757187Y-88157190D01*
X37757190Y-88157187D01*
X37843350Y-88042093D01*
X37843354Y-88042086D01*
X37893596Y-87907379D01*
X37893598Y-87907372D01*
X37899999Y-87847844D01*
X41300000Y-87847844D01*
X41306401Y-87907372D01*
X41306403Y-87907379D01*
X41356645Y-88042086D01*
X41356649Y-88042093D01*
X41442809Y-88157187D01*
X41442812Y-88157190D01*
X41557906Y-88243350D01*
X41557913Y-88243354D01*
X41692620Y-88293596D01*
X41692627Y-88293598D01*
X41752155Y-88299999D01*
X41752172Y-88300000D01*
X42450000Y-88300000D01*
X42950000Y-88300000D01*
X43647828Y-88300000D01*
X43647844Y-88299999D01*
X43707372Y-88293598D01*
X43707379Y-88293596D01*
X43842086Y-88243354D01*
X43842093Y-88243350D01*
X43957187Y-88157190D01*
X43957190Y-88157187D01*
X44043350Y-88042093D01*
X44043354Y-88042086D01*
X44093596Y-87907379D01*
X44093598Y-87907372D01*
X44099999Y-87847844D01*
X44100000Y-87847827D01*
X44100000Y-87500000D01*
X42950000Y-87500000D01*
X42950000Y-88300000D01*
X42450000Y-88300000D01*
X42450000Y-87500000D01*
X41300000Y-87500000D01*
X41300000Y-87847844D01*
X37899999Y-87847844D01*
X37900000Y-87847827D01*
X37900000Y-87500000D01*
X36750000Y-87500000D01*
X36750000Y-88300000D01*
X36250000Y-88300000D01*
X36250000Y-87500000D01*
X35100000Y-87500000D01*
X35100000Y-87847844D01*
X22187936Y-87847844D01*
X22173581Y-87775677D01*
X22173580Y-87775676D01*
X22173580Y-87775672D01*
X22147951Y-87713797D01*
X22118444Y-87642560D01*
X22120927Y-87641531D01*
X22109086Y-87584468D01*
X22134130Y-87519240D01*
X22190462Y-87477907D01*
X22232680Y-87470499D01*
X22612819Y-87470499D01*
X22679858Y-87490184D01*
X22712085Y-87520188D01*
X22792452Y-87627544D01*
X22792455Y-87627547D01*
X22907664Y-87713793D01*
X22907671Y-87713797D01*
X23042517Y-87764091D01*
X23042516Y-87764091D01*
X23049444Y-87764835D01*
X23102127Y-87770500D01*
X24197872Y-87770499D01*
X24257483Y-87764091D01*
X24392331Y-87713796D01*
X24507546Y-87627546D01*
X24593796Y-87512331D01*
X24644091Y-87377483D01*
X24650500Y-87317873D01*
X24650500Y-87317844D01*
X53350000Y-87317844D01*
X53356401Y-87377372D01*
X53356403Y-87377379D01*
X53406645Y-87512086D01*
X53406649Y-87512093D01*
X53492809Y-87627187D01*
X53492812Y-87627190D01*
X53607906Y-87713350D01*
X53607913Y-87713354D01*
X53742620Y-87763596D01*
X53742627Y-87763598D01*
X53802155Y-87769999D01*
X53802172Y-87770000D01*
X54100000Y-87770000D01*
X54100000Y-87120000D01*
X53350000Y-87120000D01*
X53350000Y-87317844D01*
X24650500Y-87317844D01*
X24650499Y-86652155D01*
X35100000Y-86652155D01*
X35100000Y-87000000D01*
X36250000Y-87000000D01*
X36750000Y-87000000D01*
X37900000Y-87000000D01*
X37900000Y-86652172D01*
X37899999Y-86652155D01*
X41300000Y-86652155D01*
X41300000Y-87000000D01*
X42450000Y-87000000D01*
X42950000Y-87000000D01*
X44100000Y-87000000D01*
X44100000Y-86652172D01*
X44099999Y-86652155D01*
X44093598Y-86592627D01*
X44093596Y-86592620D01*
X44044947Y-86462184D01*
X44044946Y-86462182D01*
X44043355Y-86457915D01*
X44043350Y-86457906D01*
X44016587Y-86422155D01*
X53350000Y-86422155D01*
X53350000Y-86620000D01*
X54100000Y-86620000D01*
X54100000Y-85970000D01*
X53802155Y-85970000D01*
X53742627Y-85976401D01*
X53742620Y-85976403D01*
X53607913Y-86026645D01*
X53607906Y-86026649D01*
X53492812Y-86112809D01*
X53492809Y-86112812D01*
X53406649Y-86227906D01*
X53406645Y-86227913D01*
X53356403Y-86362620D01*
X53356401Y-86362627D01*
X53350000Y-86422155D01*
X44016587Y-86422155D01*
X43957190Y-86342812D01*
X43957187Y-86342809D01*
X43842093Y-86256649D01*
X43842086Y-86256645D01*
X43707379Y-86206403D01*
X43707372Y-86206401D01*
X43647844Y-86200000D01*
X42950000Y-86200000D01*
X42950000Y-87000000D01*
X42450000Y-87000000D01*
X42450000Y-86200000D01*
X41752155Y-86200000D01*
X41692627Y-86206401D01*
X41692620Y-86206403D01*
X41557913Y-86256645D01*
X41557906Y-86256649D01*
X41442812Y-86342809D01*
X41442809Y-86342812D01*
X41356649Y-86457906D01*
X41356645Y-86457913D01*
X41306403Y-86592620D01*
X41306401Y-86592627D01*
X41300000Y-86652155D01*
X37899999Y-86652155D01*
X37893598Y-86592627D01*
X37893596Y-86592620D01*
X37843354Y-86457913D01*
X37843350Y-86457906D01*
X37757190Y-86342812D01*
X37757187Y-86342809D01*
X37642093Y-86256649D01*
X37642086Y-86256645D01*
X37507379Y-86206403D01*
X37507372Y-86206401D01*
X37447844Y-86200000D01*
X36750000Y-86200000D01*
X36750000Y-87000000D01*
X36250000Y-87000000D01*
X36250000Y-86200000D01*
X35552155Y-86200000D01*
X35492627Y-86206401D01*
X35492620Y-86206403D01*
X35357913Y-86256645D01*
X35357906Y-86256649D01*
X35242812Y-86342809D01*
X35242809Y-86342812D01*
X35156649Y-86457906D01*
X35156645Y-86457913D01*
X35106403Y-86592620D01*
X35106401Y-86592627D01*
X35100000Y-86652155D01*
X24650499Y-86652155D01*
X24650499Y-86422128D01*
X24644091Y-86362517D01*
X24636740Y-86342809D01*
X24593797Y-86227671D01*
X24593793Y-86227664D01*
X24507547Y-86112455D01*
X24507544Y-86112452D01*
X24392335Y-86026206D01*
X24392328Y-86026202D01*
X24257482Y-85975908D01*
X24257483Y-85975908D01*
X24197883Y-85969501D01*
X24197881Y-85969500D01*
X24197873Y-85969500D01*
X24197865Y-85969500D01*
X23224499Y-85969500D01*
X23157460Y-85949815D01*
X23111705Y-85897011D01*
X23100499Y-85845500D01*
X23100499Y-85422129D01*
X23100498Y-85422123D01*
X23100497Y-85422116D01*
X23094091Y-85362517D01*
X23058165Y-85266195D01*
X23043797Y-85227671D01*
X23043793Y-85227664D01*
X22957547Y-85112455D01*
X22957544Y-85112452D01*
X22842335Y-85026206D01*
X22842328Y-85026202D01*
X22707482Y-84975908D01*
X22707483Y-84975908D01*
X22647883Y-84969501D01*
X22647881Y-84969500D01*
X22647873Y-84969500D01*
X22647865Y-84969500D01*
X22260196Y-84969500D01*
X22193157Y-84949815D01*
X22147402Y-84897011D01*
X22137458Y-84827853D01*
X22166483Y-84764297D01*
X22172515Y-84757819D01*
X22588006Y-84342328D01*
X24673220Y-82257116D01*
X24752277Y-82120184D01*
X24793201Y-81967457D01*
X24793201Y-81809342D01*
X24793201Y-81801747D01*
X24793200Y-81801729D01*
X24793200Y-81272465D01*
X24812885Y-81205426D01*
X24814098Y-81203574D01*
X24865958Y-81125961D01*
X24902094Y-81071879D01*
X24909086Y-81055000D01*
X24929073Y-81006745D01*
X24962437Y-80926197D01*
X24993200Y-80771542D01*
X24993200Y-80613858D01*
X24993200Y-80613855D01*
X24993199Y-80613853D01*
X24962437Y-80459203D01*
X24931959Y-80385621D01*
X24902097Y-80313527D01*
X24902090Y-80313514D01*
X24814489Y-80182411D01*
X24814486Y-80182407D01*
X24702992Y-80070913D01*
X24702988Y-80070910D01*
X24571885Y-79983309D01*
X24571872Y-79983302D01*
X24426201Y-79922964D01*
X24426189Y-79922961D01*
X24271545Y-79892200D01*
X24271542Y-79892200D01*
X24113858Y-79892200D01*
X24113857Y-79892200D01*
X24099630Y-79895030D01*
X24086624Y-79897617D01*
X24062433Y-79900000D01*
X23050000Y-79900000D01*
X23050000Y-80700000D01*
X23276205Y-80700000D01*
X23343244Y-80719685D01*
X23388999Y-80772489D01*
X23397822Y-80799808D01*
X23422961Y-80926191D01*
X23422964Y-80926201D01*
X23483302Y-81071872D01*
X23483309Y-81071885D01*
X23571302Y-81203574D01*
X23592180Y-81270251D01*
X23592200Y-81272465D01*
X23592200Y-81588302D01*
X23583555Y-81617742D01*
X23577032Y-81647729D01*
X23573277Y-81652744D01*
X23572515Y-81655341D01*
X23555885Y-81675978D01*
X23460362Y-81771502D01*
X23415406Y-81816458D01*
X23354083Y-81849942D01*
X23284391Y-81844958D01*
X23258835Y-81831879D01*
X23168483Y-81771508D01*
X23168472Y-81771502D01*
X23022801Y-81711164D01*
X23022789Y-81711161D01*
X22868145Y-81680400D01*
X22868142Y-81680400D01*
X22710458Y-81680400D01*
X22710455Y-81680400D01*
X22555810Y-81711161D01*
X22555798Y-81711164D01*
X22410127Y-81771502D01*
X22410114Y-81771509D01*
X22278425Y-81859502D01*
X22211747Y-81880380D01*
X22209534Y-81880400D01*
X20566457Y-81880400D01*
X20408342Y-81880400D01*
X20255615Y-81921323D01*
X20255614Y-81921323D01*
X20255612Y-81921324D01*
X20255609Y-81921325D01*
X20205496Y-81950259D01*
X20205495Y-81950260D01*
X20175712Y-81967455D01*
X20118685Y-82000379D01*
X20118682Y-82000381D01*
X17269481Y-84849582D01*
X17269479Y-84849585D01*
X17219361Y-84936394D01*
X17219359Y-84936396D01*
X17187713Y-84991207D01*
X17154638Y-85028472D01*
X17042455Y-85112452D01*
X17042452Y-85112455D01*
X16956206Y-85227664D01*
X16956202Y-85227671D01*
X16905908Y-85362517D01*
X16899501Y-85422116D01*
X16899501Y-85422123D01*
X16899500Y-85422135D01*
X16899500Y-85845500D01*
X16879815Y-85912539D01*
X16827011Y-85958294D01*
X16775500Y-85969500D01*
X15802129Y-85969500D01*
X15802123Y-85969501D01*
X15742516Y-85975908D01*
X15607671Y-86026202D01*
X15607664Y-86026206D01*
X15492455Y-86112452D01*
X15492452Y-86112455D01*
X15406206Y-86227664D01*
X15406202Y-86227671D01*
X15355908Y-86362517D01*
X15350477Y-86413039D01*
X15349501Y-86422123D01*
X15349500Y-86422135D01*
X4768872Y-86422135D01*
X4625962Y-86399500D01*
X4374038Y-86399500D01*
X4288557Y-86413039D01*
X4125214Y-86438910D01*
X3885616Y-86516760D01*
X3661151Y-86631132D01*
X3457350Y-86779201D01*
X3457345Y-86779205D01*
X3279205Y-86957345D01*
X3224818Y-87032203D01*
X3169488Y-87074868D01*
X3099874Y-87080847D01*
X3038079Y-87048241D01*
X3003722Y-86987402D01*
X3000500Y-86959317D01*
X3000500Y-80247844D01*
X15200000Y-80247844D01*
X15206401Y-80307372D01*
X15206403Y-80307379D01*
X15256645Y-80442086D01*
X15256649Y-80442093D01*
X15342809Y-80557187D01*
X15342812Y-80557190D01*
X15457906Y-80643350D01*
X15457913Y-80643354D01*
X15592620Y-80693596D01*
X15592627Y-80693598D01*
X15652155Y-80699999D01*
X15652172Y-80700000D01*
X16350000Y-80700000D01*
X16850000Y-80700000D01*
X17547828Y-80700000D01*
X17547844Y-80699999D01*
X17607372Y-80693598D01*
X17607379Y-80693596D01*
X17742086Y-80643354D01*
X17742093Y-80643350D01*
X17857187Y-80557190D01*
X17857190Y-80557187D01*
X17943350Y-80442093D01*
X17943354Y-80442086D01*
X17993596Y-80307379D01*
X17993598Y-80307372D01*
X17999999Y-80247844D01*
X21400000Y-80247844D01*
X21406401Y-80307372D01*
X21406403Y-80307379D01*
X21456645Y-80442086D01*
X21456649Y-80442093D01*
X21542809Y-80557187D01*
X21542812Y-80557190D01*
X21657906Y-80643350D01*
X21657913Y-80643354D01*
X21792620Y-80693596D01*
X21792627Y-80693598D01*
X21852155Y-80699999D01*
X21852172Y-80700000D01*
X22550000Y-80700000D01*
X22550000Y-79900000D01*
X21400000Y-79900000D01*
X21400000Y-80247844D01*
X17999999Y-80247844D01*
X18000000Y-80247827D01*
X18000000Y-79900000D01*
X16850000Y-79900000D01*
X16850000Y-80700000D01*
X16350000Y-80700000D01*
X16350000Y-79900000D01*
X15200000Y-79900000D01*
X15200000Y-80247844D01*
X3000500Y-80247844D01*
X3000500Y-79052155D01*
X15200000Y-79052155D01*
X15200000Y-79400000D01*
X16350000Y-79400000D01*
X16850000Y-79400000D01*
X18000000Y-79400000D01*
X18000000Y-79052172D01*
X17999999Y-79052155D01*
X21400000Y-79052155D01*
X21400000Y-79400000D01*
X22550000Y-79400000D01*
X23050000Y-79400000D01*
X24200000Y-79400000D01*
X24200000Y-79052172D01*
X24199999Y-79052155D01*
X24193598Y-78992627D01*
X24193596Y-78992620D01*
X24143354Y-78857913D01*
X24143350Y-78857906D01*
X24057190Y-78742812D01*
X24057187Y-78742809D01*
X23942093Y-78656649D01*
X23942086Y-78656645D01*
X23807379Y-78606403D01*
X23807372Y-78606401D01*
X23747844Y-78600000D01*
X23050000Y-78600000D01*
X23050000Y-79400000D01*
X22550000Y-79400000D01*
X22550000Y-78600000D01*
X21852155Y-78600000D01*
X21792627Y-78606401D01*
X21792620Y-78606403D01*
X21657913Y-78656645D01*
X21657906Y-78656649D01*
X21542812Y-78742809D01*
X21542809Y-78742812D01*
X21456649Y-78857906D01*
X21456645Y-78857913D01*
X21406403Y-78992620D01*
X21406401Y-78992627D01*
X21400000Y-79052155D01*
X17999999Y-79052155D01*
X17993598Y-78992627D01*
X17993596Y-78992620D01*
X17943354Y-78857913D01*
X17943350Y-78857906D01*
X17857190Y-78742812D01*
X17857187Y-78742809D01*
X17742093Y-78656649D01*
X17742086Y-78656645D01*
X17607379Y-78606403D01*
X17607372Y-78606401D01*
X17547844Y-78600000D01*
X16850000Y-78600000D01*
X16850000Y-79400000D01*
X16350000Y-79400000D01*
X16350000Y-78600000D01*
X15652155Y-78600000D01*
X15592627Y-78606401D01*
X15592620Y-78606403D01*
X15457913Y-78656645D01*
X15457906Y-78656649D01*
X15342812Y-78742809D01*
X15342809Y-78742812D01*
X15256649Y-78857906D01*
X15256645Y-78857913D01*
X15206403Y-78992620D01*
X15206401Y-78992627D01*
X15200000Y-79052155D01*
X3000500Y-79052155D01*
X3000500Y-75352135D01*
X15199500Y-75352135D01*
X15199500Y-76547870D01*
X15199501Y-76547876D01*
X15205908Y-76607483D01*
X15256202Y-76742328D01*
X15256206Y-76742335D01*
X15342452Y-76857544D01*
X15342455Y-76857547D01*
X15457664Y-76943793D01*
X15457671Y-76943797D01*
X15592517Y-76994091D01*
X15592516Y-76994091D01*
X15599444Y-76994835D01*
X15652127Y-77000500D01*
X17547872Y-77000499D01*
X17607483Y-76994091D01*
X17742331Y-76943796D01*
X17857546Y-76857546D01*
X17943796Y-76742331D01*
X17974248Y-76660686D01*
X17985258Y-76631167D01*
X18027129Y-76575233D01*
X18092593Y-76550816D01*
X18101440Y-76550500D01*
X21298560Y-76550500D01*
X21365599Y-76570185D01*
X21411354Y-76622989D01*
X21414742Y-76631167D01*
X21456202Y-76742328D01*
X21456206Y-76742335D01*
X21542452Y-76857544D01*
X21542455Y-76857547D01*
X21657664Y-76943793D01*
X21657671Y-76943797D01*
X21792517Y-76994091D01*
X21792516Y-76994091D01*
X21799444Y-76994835D01*
X21852127Y-77000500D01*
X23747872Y-77000499D01*
X23807483Y-76994091D01*
X23820341Y-76989294D01*
X23890031Y-76984308D01*
X23951353Y-77017788D01*
X23951359Y-77017794D01*
X24143425Y-77209860D01*
X24176910Y-77271183D01*
X24177361Y-77273349D01*
X24208261Y-77428691D01*
X24208264Y-77428701D01*
X24268602Y-77574372D01*
X24268609Y-77574385D01*
X24356210Y-77705488D01*
X24356213Y-77705492D01*
X24467707Y-77816986D01*
X24467711Y-77816989D01*
X24598814Y-77904590D01*
X24598827Y-77904597D01*
X24744498Y-77964935D01*
X24744503Y-77964937D01*
X24899153Y-77995699D01*
X24899156Y-77995700D01*
X24899158Y-77995700D01*
X25056844Y-77995700D01*
X25056845Y-77995699D01*
X25211497Y-77964937D01*
X25357179Y-77904594D01*
X25488289Y-77816989D01*
X25599789Y-77705489D01*
X25687394Y-77574379D01*
X25747737Y-77428697D01*
X25778500Y-77274042D01*
X25778500Y-77116358D01*
X25778500Y-77116355D01*
X25778499Y-77116353D01*
X25762223Y-77034529D01*
X25747737Y-76961703D01*
X25740320Y-76943796D01*
X25687397Y-76816027D01*
X25687390Y-76816014D01*
X25599789Y-76684911D01*
X25599786Y-76684907D01*
X25488292Y-76573413D01*
X25488288Y-76573410D01*
X25357185Y-76485809D01*
X25357172Y-76485802D01*
X25211501Y-76425464D01*
X25211491Y-76425461D01*
X25056149Y-76394561D01*
X24994238Y-76362176D01*
X24992660Y-76360625D01*
X24588519Y-75956484D01*
X24555034Y-75895161D01*
X24553296Y-75878998D01*
X24553261Y-75879003D01*
X24552200Y-75870950D01*
X24552200Y-75870943D01*
X24511277Y-75718216D01*
X24498555Y-75696180D01*
X24432224Y-75581290D01*
X24432218Y-75581282D01*
X24320418Y-75469482D01*
X24320416Y-75469480D01*
X24260567Y-75434926D01*
X24212354Y-75384360D01*
X24199280Y-75340795D01*
X24194091Y-75292517D01*
X24185257Y-75268833D01*
X24143797Y-75157671D01*
X24143793Y-75157664D01*
X24057547Y-75042455D01*
X24057544Y-75042452D01*
X23942335Y-74956206D01*
X23942328Y-74956202D01*
X23807482Y-74905908D01*
X23807483Y-74905908D01*
X23747883Y-74899501D01*
X23747881Y-74899500D01*
X23747873Y-74899500D01*
X23747864Y-74899500D01*
X21852129Y-74899500D01*
X21852123Y-74899501D01*
X21792516Y-74905908D01*
X21657671Y-74956202D01*
X21657664Y-74956206D01*
X21542455Y-75042452D01*
X21542452Y-75042455D01*
X21456206Y-75157664D01*
X21456202Y-75157671D01*
X21414742Y-75268833D01*
X21372871Y-75324767D01*
X21307407Y-75349184D01*
X21298560Y-75349500D01*
X18101440Y-75349500D01*
X18034401Y-75329815D01*
X17988646Y-75277011D01*
X17985258Y-75268833D01*
X17943797Y-75157671D01*
X17943793Y-75157664D01*
X17857547Y-75042455D01*
X17857544Y-75042452D01*
X17742335Y-74956206D01*
X17742328Y-74956202D01*
X17607482Y-74905908D01*
X17607483Y-74905908D01*
X17547883Y-74899501D01*
X17547881Y-74899500D01*
X17547873Y-74899500D01*
X17547864Y-74899500D01*
X15652129Y-74899500D01*
X15652123Y-74899501D01*
X15592516Y-74905908D01*
X15457671Y-74956202D01*
X15457664Y-74956206D01*
X15342455Y-75042452D01*
X15342452Y-75042455D01*
X15256206Y-75157664D01*
X15256202Y-75157671D01*
X15205908Y-75292517D01*
X15199501Y-75352116D01*
X15199500Y-75352135D01*
X3000500Y-75352135D01*
X3000500Y-71247844D01*
X6200000Y-71247844D01*
X6206401Y-71307372D01*
X6206403Y-71307379D01*
X6256645Y-71442086D01*
X6256649Y-71442093D01*
X6342809Y-71557187D01*
X6342812Y-71557190D01*
X6457906Y-71643350D01*
X6457913Y-71643354D01*
X6592620Y-71693596D01*
X6592627Y-71693598D01*
X6652155Y-71699999D01*
X6652172Y-71700000D01*
X7350000Y-71700000D01*
X7850000Y-71700000D01*
X8547828Y-71700000D01*
X8547844Y-71699999D01*
X8607372Y-71693598D01*
X8607379Y-71693596D01*
X8742086Y-71643354D01*
X8742093Y-71643350D01*
X8857187Y-71557190D01*
X8857190Y-71557187D01*
X8943350Y-71442093D01*
X8943354Y-71442086D01*
X8993596Y-71307379D01*
X8993598Y-71307372D01*
X8999999Y-71247844D01*
X12400000Y-71247844D01*
X12406401Y-71307372D01*
X12406403Y-71307379D01*
X12456645Y-71442086D01*
X12456649Y-71442093D01*
X12542809Y-71557187D01*
X12542812Y-71557190D01*
X12657906Y-71643350D01*
X12657913Y-71643354D01*
X12792620Y-71693596D01*
X12792627Y-71693598D01*
X12852155Y-71699999D01*
X12852172Y-71700000D01*
X13550000Y-71700000D01*
X14050000Y-71700000D01*
X14747828Y-71700000D01*
X14747844Y-71699999D01*
X14807372Y-71693598D01*
X14807379Y-71693596D01*
X14942086Y-71643354D01*
X14942093Y-71643350D01*
X15057187Y-71557190D01*
X15057190Y-71557187D01*
X15143350Y-71442093D01*
X15143354Y-71442086D01*
X15193596Y-71307379D01*
X15193598Y-71307372D01*
X15199999Y-71247844D01*
X24200000Y-71247844D01*
X24206401Y-71307372D01*
X24206403Y-71307379D01*
X24256645Y-71442086D01*
X24256649Y-71442093D01*
X24342809Y-71557187D01*
X24342812Y-71557190D01*
X24457906Y-71643350D01*
X24457913Y-71643354D01*
X24592620Y-71693596D01*
X24592627Y-71693598D01*
X24652155Y-71699999D01*
X24652172Y-71700000D01*
X25350000Y-71700000D01*
X25850000Y-71700000D01*
X26547828Y-71700000D01*
X26547844Y-71699999D01*
X26607372Y-71693598D01*
X26607379Y-71693596D01*
X26742086Y-71643354D01*
X26742093Y-71643350D01*
X26857187Y-71557190D01*
X26857190Y-71557187D01*
X26943350Y-71442093D01*
X26943354Y-71442086D01*
X26993596Y-71307379D01*
X26993598Y-71307372D01*
X26999999Y-71247844D01*
X30400000Y-71247844D01*
X30406401Y-71307372D01*
X30406403Y-71307379D01*
X30456645Y-71442086D01*
X30456649Y-71442093D01*
X30542809Y-71557187D01*
X30542812Y-71557190D01*
X30657906Y-71643350D01*
X30657913Y-71643354D01*
X30792620Y-71693596D01*
X30792627Y-71693598D01*
X30852155Y-71699999D01*
X30852172Y-71700000D01*
X31550000Y-71700000D01*
X32050000Y-71700000D01*
X32747828Y-71700000D01*
X32747844Y-71699999D01*
X32807372Y-71693598D01*
X32807379Y-71693596D01*
X32942086Y-71643354D01*
X32942093Y-71643350D01*
X33057187Y-71557190D01*
X33057190Y-71557187D01*
X33143350Y-71442093D01*
X33143354Y-71442086D01*
X33193596Y-71307379D01*
X33193598Y-71307372D01*
X33199999Y-71247844D01*
X33200000Y-71247827D01*
X33200000Y-70900000D01*
X32050000Y-70900000D01*
X32050000Y-71700000D01*
X31550000Y-71700000D01*
X31550000Y-70900000D01*
X30400000Y-70900000D01*
X30400000Y-71247844D01*
X26999999Y-71247844D01*
X27000000Y-71247827D01*
X27000000Y-70900000D01*
X25850000Y-70900000D01*
X25850000Y-71700000D01*
X25350000Y-71700000D01*
X25350000Y-70900000D01*
X24200000Y-70900000D01*
X24200000Y-71247844D01*
X15199999Y-71247844D01*
X15200000Y-71247827D01*
X15200000Y-70900000D01*
X14050000Y-70900000D01*
X14050000Y-71700000D01*
X13550000Y-71700000D01*
X13550000Y-70900000D01*
X12400000Y-70900000D01*
X12400000Y-71247844D01*
X8999999Y-71247844D01*
X9000000Y-71247827D01*
X9000000Y-70900000D01*
X7850000Y-70900000D01*
X7850000Y-71700000D01*
X7350000Y-71700000D01*
X7350000Y-70900000D01*
X6200000Y-70900000D01*
X6200000Y-71247844D01*
X3000500Y-71247844D01*
X3000500Y-70052155D01*
X6200000Y-70052155D01*
X6200000Y-70400000D01*
X7350000Y-70400000D01*
X7850000Y-70400000D01*
X9000000Y-70400000D01*
X9000000Y-70052172D01*
X8999999Y-70052155D01*
X12400000Y-70052155D01*
X12400000Y-70400000D01*
X13550000Y-70400000D01*
X13550000Y-69600000D01*
X12852155Y-69600000D01*
X12792627Y-69606401D01*
X12792620Y-69606403D01*
X12657913Y-69656645D01*
X12657906Y-69656649D01*
X12542812Y-69742809D01*
X12542809Y-69742812D01*
X12456649Y-69857906D01*
X12456645Y-69857913D01*
X12406403Y-69992620D01*
X12406401Y-69992627D01*
X12400000Y-70052155D01*
X8999999Y-70052155D01*
X8993598Y-69992627D01*
X8993596Y-69992620D01*
X8943354Y-69857913D01*
X8943350Y-69857906D01*
X8857190Y-69742812D01*
X8857187Y-69742809D01*
X8742093Y-69656649D01*
X8742086Y-69656645D01*
X8607379Y-69606403D01*
X8607372Y-69606401D01*
X8547844Y-69600000D01*
X7850000Y-69600000D01*
X7850000Y-70400000D01*
X7350000Y-70400000D01*
X7350000Y-69600000D01*
X6652155Y-69600000D01*
X6592627Y-69606401D01*
X6592620Y-69606403D01*
X6457913Y-69656645D01*
X6457906Y-69656649D01*
X6342812Y-69742809D01*
X6342809Y-69742812D01*
X6256649Y-69857906D01*
X6256645Y-69857913D01*
X6206403Y-69992620D01*
X6206401Y-69992627D01*
X6200000Y-70052155D01*
X3000500Y-70052155D01*
X3000500Y-66352135D01*
X6199500Y-66352135D01*
X6199500Y-67547870D01*
X6199501Y-67547876D01*
X6205908Y-67607483D01*
X6256202Y-67742328D01*
X6256206Y-67742335D01*
X6342452Y-67857544D01*
X6342455Y-67857547D01*
X6457664Y-67943793D01*
X6457671Y-67943797D01*
X6592517Y-67994091D01*
X6592516Y-67994091D01*
X6599444Y-67994835D01*
X6652127Y-68000500D01*
X8547872Y-68000499D01*
X8607483Y-67994091D01*
X8742331Y-67943796D01*
X8857546Y-67857546D01*
X8943796Y-67742331D01*
X8951149Y-67722615D01*
X8985258Y-67631167D01*
X9027129Y-67575233D01*
X9092593Y-67550816D01*
X9101440Y-67550500D01*
X12298560Y-67550500D01*
X12365599Y-67570185D01*
X12411354Y-67622989D01*
X12414742Y-67631167D01*
X12456202Y-67742328D01*
X12456206Y-67742335D01*
X12542452Y-67857544D01*
X12542455Y-67857547D01*
X12657664Y-67943793D01*
X12657671Y-67943797D01*
X12792517Y-67994091D01*
X12792516Y-67994091D01*
X12799444Y-67994835D01*
X12852127Y-68000500D01*
X14204459Y-68000499D01*
X14271498Y-68020184D01*
X14317253Y-68072987D01*
X14327197Y-68142146D01*
X14298172Y-68205702D01*
X14292141Y-68212180D01*
X14230210Y-68274111D01*
X14142609Y-68405214D01*
X14142602Y-68405227D01*
X14082264Y-68550898D01*
X14082261Y-68550910D01*
X14051500Y-68705553D01*
X14051500Y-68863246D01*
X14082261Y-69017889D01*
X14082264Y-69017901D01*
X14142602Y-69163572D01*
X14142609Y-69163585D01*
X14230602Y-69295274D01*
X14236252Y-69313320D01*
X14246477Y-69329230D01*
X14250928Y-69360189D01*
X14251480Y-69361951D01*
X14251500Y-69364165D01*
X14251500Y-69476000D01*
X14231815Y-69543039D01*
X14179011Y-69588794D01*
X14127500Y-69600000D01*
X14050000Y-69600000D01*
X14050000Y-70400000D01*
X15200000Y-70400000D01*
X15200000Y-70055090D01*
X15199704Y-70052155D01*
X24200000Y-70052155D01*
X24200000Y-70400000D01*
X25350000Y-70400000D01*
X25850000Y-70400000D01*
X27000000Y-70400000D01*
X27000000Y-70052172D01*
X26999999Y-70052155D01*
X30400000Y-70052155D01*
X30400000Y-70400000D01*
X31550000Y-70400000D01*
X32050000Y-70400000D01*
X33200000Y-70400000D01*
X33200000Y-70052172D01*
X33199999Y-70052155D01*
X33193598Y-69992627D01*
X33193596Y-69992620D01*
X33143354Y-69857913D01*
X33143350Y-69857906D01*
X33057190Y-69742812D01*
X33057187Y-69742809D01*
X32942093Y-69656649D01*
X32942086Y-69656645D01*
X32807379Y-69606403D01*
X32807372Y-69606401D01*
X32747844Y-69600000D01*
X32050000Y-69600000D01*
X32050000Y-70400000D01*
X31550000Y-70400000D01*
X31550000Y-69600000D01*
X30852155Y-69600000D01*
X30792627Y-69606401D01*
X30792620Y-69606403D01*
X30657913Y-69656645D01*
X30657906Y-69656649D01*
X30542812Y-69742809D01*
X30542809Y-69742812D01*
X30456649Y-69857906D01*
X30456645Y-69857913D01*
X30406403Y-69992620D01*
X30406401Y-69992627D01*
X30400000Y-70052155D01*
X26999999Y-70052155D01*
X26993598Y-69992627D01*
X26993596Y-69992620D01*
X26943354Y-69857913D01*
X26943350Y-69857906D01*
X26857190Y-69742812D01*
X26857187Y-69742809D01*
X26742093Y-69656649D01*
X26742086Y-69656645D01*
X26607379Y-69606403D01*
X26607372Y-69606401D01*
X26547844Y-69600000D01*
X25850000Y-69600000D01*
X25850000Y-70400000D01*
X25350000Y-70400000D01*
X25350000Y-69600000D01*
X24652155Y-69600000D01*
X24592627Y-69606401D01*
X24592620Y-69606403D01*
X24457913Y-69656645D01*
X24457906Y-69656649D01*
X24342812Y-69742809D01*
X24342809Y-69742812D01*
X24256649Y-69857906D01*
X24256645Y-69857913D01*
X24206403Y-69992620D01*
X24206401Y-69992627D01*
X24200000Y-70052155D01*
X15199704Y-70052155D01*
X15195244Y-70007918D01*
X15201608Y-69973932D01*
X15207734Y-69939977D01*
X15208049Y-69939539D01*
X15208105Y-69939242D01*
X15208779Y-69938526D01*
X15230938Y-69907798D01*
X15280830Y-69857906D01*
X15332520Y-69806216D01*
X15411577Y-69669284D01*
X15452500Y-69516557D01*
X15452500Y-69364165D01*
X15472185Y-69297126D01*
X15473398Y-69295274D01*
X15534384Y-69204003D01*
X15561394Y-69163579D01*
X15621737Y-69017897D01*
X15652500Y-68863242D01*
X15652500Y-68705558D01*
X15652500Y-68705555D01*
X15652499Y-68705553D01*
X15638863Y-68637000D01*
X15621737Y-68550903D01*
X15576664Y-68442086D01*
X15561639Y-68405812D01*
X15552200Y-68358360D01*
X15552200Y-66870945D01*
X15552200Y-66870943D01*
X15511277Y-66718216D01*
X15475732Y-66656649D01*
X15432224Y-66581290D01*
X15432218Y-66581282D01*
X15320418Y-66469482D01*
X15320416Y-66469480D01*
X15260567Y-66434926D01*
X15212354Y-66384360D01*
X15199280Y-66340795D01*
X15194091Y-66292517D01*
X15185257Y-66268833D01*
X15143797Y-66157671D01*
X15143793Y-66157664D01*
X15057547Y-66042455D01*
X15057544Y-66042452D01*
X14942335Y-65956206D01*
X14942328Y-65956202D01*
X14807482Y-65905908D01*
X14807483Y-65905908D01*
X14747883Y-65899501D01*
X14747881Y-65899500D01*
X14747873Y-65899500D01*
X14747864Y-65899500D01*
X12852129Y-65899500D01*
X12852123Y-65899501D01*
X12792516Y-65905908D01*
X12657671Y-65956202D01*
X12657664Y-65956206D01*
X12542455Y-66042452D01*
X12542452Y-66042455D01*
X12456206Y-66157664D01*
X12456202Y-66157671D01*
X12414742Y-66268833D01*
X12372871Y-66324767D01*
X12307407Y-66349184D01*
X12298560Y-66349500D01*
X9101440Y-66349500D01*
X9034401Y-66329815D01*
X8988646Y-66277011D01*
X8985258Y-66268833D01*
X8943797Y-66157671D01*
X8943793Y-66157664D01*
X8857547Y-66042455D01*
X8857544Y-66042452D01*
X8742335Y-65956206D01*
X8742328Y-65956202D01*
X8607482Y-65905908D01*
X8607483Y-65905908D01*
X8547883Y-65899501D01*
X8547881Y-65899500D01*
X8547873Y-65899500D01*
X8547864Y-65899500D01*
X6652129Y-65899500D01*
X6652123Y-65899501D01*
X6592516Y-65905908D01*
X6457671Y-65956202D01*
X6457664Y-65956206D01*
X6342455Y-66042452D01*
X6342452Y-66042455D01*
X6256206Y-66157664D01*
X6256202Y-66157671D01*
X6205908Y-66292517D01*
X6199501Y-66352116D01*
X6199500Y-66352135D01*
X3000500Y-66352135D01*
X3000500Y-62247844D01*
X15200000Y-62247844D01*
X15206401Y-62307372D01*
X15206403Y-62307379D01*
X15256645Y-62442086D01*
X15256649Y-62442093D01*
X15342809Y-62557187D01*
X15342812Y-62557190D01*
X15457906Y-62643350D01*
X15457913Y-62643354D01*
X15592620Y-62693596D01*
X15592627Y-62693598D01*
X15652155Y-62699999D01*
X15652172Y-62700000D01*
X16350000Y-62700000D01*
X16850000Y-62700000D01*
X17547828Y-62700000D01*
X17547844Y-62699999D01*
X17607372Y-62693598D01*
X17607379Y-62693596D01*
X17742086Y-62643354D01*
X17742093Y-62643350D01*
X17857187Y-62557190D01*
X17857190Y-62557187D01*
X17943350Y-62442093D01*
X17943354Y-62442086D01*
X17993596Y-62307379D01*
X17993598Y-62307372D01*
X17999999Y-62247844D01*
X21400000Y-62247844D01*
X21406401Y-62307372D01*
X21406403Y-62307379D01*
X21456645Y-62442086D01*
X21456649Y-62442093D01*
X21542809Y-62557187D01*
X21542812Y-62557190D01*
X21657906Y-62643350D01*
X21657913Y-62643354D01*
X21792620Y-62693596D01*
X21792627Y-62693598D01*
X21852155Y-62699999D01*
X21852172Y-62700000D01*
X22550000Y-62700000D01*
X23050000Y-62700000D01*
X23747828Y-62700000D01*
X23747844Y-62699999D01*
X23807372Y-62693598D01*
X23807379Y-62693596D01*
X23942086Y-62643354D01*
X23942093Y-62643350D01*
X24057187Y-62557190D01*
X24057190Y-62557187D01*
X24143350Y-62442093D01*
X24143354Y-62442086D01*
X24193596Y-62307379D01*
X24193598Y-62307372D01*
X24199999Y-62247844D01*
X24200000Y-62247827D01*
X24200000Y-61900000D01*
X23050000Y-61900000D01*
X23050000Y-62700000D01*
X22550000Y-62700000D01*
X22550000Y-61900000D01*
X21400000Y-61900000D01*
X21400000Y-62247844D01*
X17999999Y-62247844D01*
X18000000Y-62247827D01*
X18000000Y-61900000D01*
X16850000Y-61900000D01*
X16850000Y-62700000D01*
X16350000Y-62700000D01*
X16350000Y-61900000D01*
X15200000Y-61900000D01*
X15200000Y-62247844D01*
X3000500Y-62247844D01*
X3000500Y-61052155D01*
X15200000Y-61052155D01*
X15200000Y-61400000D01*
X16350000Y-61400000D01*
X16850000Y-61400000D01*
X18000000Y-61400000D01*
X18000000Y-61052172D01*
X17999999Y-61052155D01*
X21400000Y-61052155D01*
X21400000Y-61400000D01*
X22550000Y-61400000D01*
X23050000Y-61400000D01*
X24200000Y-61400000D01*
X24200000Y-61052172D01*
X24199999Y-61052155D01*
X24193598Y-60992627D01*
X24193596Y-60992620D01*
X24143354Y-60857913D01*
X24143350Y-60857906D01*
X24057190Y-60742812D01*
X24057187Y-60742809D01*
X23942093Y-60656649D01*
X23942086Y-60656645D01*
X23807379Y-60606403D01*
X23807372Y-60606401D01*
X23747844Y-60600000D01*
X23050000Y-60600000D01*
X23050000Y-61400000D01*
X22550000Y-61400000D01*
X22550000Y-60600000D01*
X21852155Y-60600000D01*
X21792627Y-60606401D01*
X21792620Y-60606403D01*
X21657913Y-60656645D01*
X21657906Y-60656649D01*
X21542812Y-60742809D01*
X21542809Y-60742812D01*
X21456649Y-60857906D01*
X21456645Y-60857913D01*
X21406403Y-60992620D01*
X21406401Y-60992627D01*
X21400000Y-61052155D01*
X17999999Y-61052155D01*
X17993598Y-60992627D01*
X17993596Y-60992620D01*
X17943354Y-60857913D01*
X17943350Y-60857906D01*
X17857190Y-60742812D01*
X17857187Y-60742809D01*
X17742093Y-60656649D01*
X17742086Y-60656645D01*
X17607379Y-60606403D01*
X17607372Y-60606401D01*
X17547844Y-60600000D01*
X16850000Y-60600000D01*
X16850000Y-61400000D01*
X16350000Y-61400000D01*
X16350000Y-60600000D01*
X15652155Y-60600000D01*
X15592627Y-60606401D01*
X15592620Y-60606403D01*
X15457913Y-60656645D01*
X15457906Y-60656649D01*
X15342812Y-60742809D01*
X15342809Y-60742812D01*
X15256649Y-60857906D01*
X15256645Y-60857913D01*
X15206403Y-60992620D01*
X15206401Y-60992627D01*
X15200000Y-61052155D01*
X3000500Y-61052155D01*
X3000500Y-57040682D01*
X3020185Y-56973643D01*
X3072989Y-56927888D01*
X3142147Y-56917944D01*
X3205703Y-56946969D01*
X3224818Y-56967797D01*
X3279201Y-57042649D01*
X3279205Y-57042654D01*
X3457345Y-57220794D01*
X3457350Y-57220798D01*
X3600452Y-57324767D01*
X3661155Y-57368870D01*
X3804184Y-57441747D01*
X3885616Y-57483239D01*
X3885618Y-57483239D01*
X3885621Y-57483241D01*
X4125215Y-57561090D01*
X4374038Y-57600500D01*
X4374039Y-57600500D01*
X4625961Y-57600500D01*
X4625962Y-57600500D01*
X4874785Y-57561090D01*
X5114379Y-57483241D01*
X5338845Y-57368870D01*
X5361879Y-57352135D01*
X15199500Y-57352135D01*
X15199500Y-58547870D01*
X15199501Y-58547876D01*
X15205908Y-58607483D01*
X15256202Y-58742328D01*
X15256206Y-58742335D01*
X15342452Y-58857544D01*
X15342455Y-58857547D01*
X15457664Y-58943793D01*
X15457671Y-58943797D01*
X15592517Y-58994091D01*
X15592516Y-58994091D01*
X15599444Y-58994835D01*
X15652127Y-59000500D01*
X17547872Y-59000499D01*
X17607483Y-58994091D01*
X17742331Y-58943796D01*
X17857546Y-58857546D01*
X17943796Y-58742331D01*
X17956082Y-58709390D01*
X17985258Y-58631167D01*
X18027129Y-58575233D01*
X18092593Y-58550816D01*
X18101440Y-58550500D01*
X21298560Y-58550500D01*
X21365599Y-58570185D01*
X21411354Y-58622989D01*
X21414742Y-58631167D01*
X21456202Y-58742328D01*
X21456206Y-58742335D01*
X21542452Y-58857544D01*
X21542455Y-58857547D01*
X21657664Y-58943793D01*
X21657671Y-58943797D01*
X21792517Y-58994091D01*
X21792516Y-58994091D01*
X21799444Y-58994835D01*
X21852127Y-59000500D01*
X23747872Y-59000499D01*
X23807483Y-58994091D01*
X23942331Y-58943796D01*
X24057546Y-58857546D01*
X24143796Y-58742331D01*
X24156082Y-58709390D01*
X24185258Y-58631167D01*
X24227129Y-58575233D01*
X24292593Y-58550816D01*
X24301440Y-58550500D01*
X31367060Y-58550500D01*
X31434099Y-58570185D01*
X31454742Y-58586820D01*
X31489707Y-58621786D01*
X31489711Y-58621789D01*
X31620814Y-58709390D01*
X31620827Y-58709397D01*
X31765885Y-58769481D01*
X31766503Y-58769737D01*
X31921153Y-58800499D01*
X31921156Y-58800500D01*
X31921158Y-58800500D01*
X32078844Y-58800500D01*
X32078845Y-58800499D01*
X32233497Y-58769737D01*
X32379179Y-58709394D01*
X32510289Y-58621789D01*
X32545258Y-58586820D01*
X32606580Y-58553334D01*
X32632940Y-58550500D01*
X34254903Y-58550500D01*
X34321942Y-58570185D01*
X34342584Y-58586819D01*
X38885925Y-63130161D01*
X38919410Y-63191484D01*
X38914426Y-63261176D01*
X38904977Y-63280961D01*
X38873258Y-63334595D01*
X38873254Y-63334605D01*
X38827402Y-63492426D01*
X38827401Y-63492432D01*
X38824500Y-63529298D01*
X38824500Y-63960701D01*
X38827401Y-63997567D01*
X38827402Y-63997573D01*
X38873254Y-64155393D01*
X38873255Y-64155396D01*
X38956917Y-64296862D01*
X38961702Y-64303031D01*
X38959256Y-64304927D01*
X38985857Y-64353642D01*
X38980873Y-64423334D01*
X38960069Y-64455703D01*
X38961702Y-64456969D01*
X38956917Y-64463137D01*
X38873255Y-64604603D01*
X38873254Y-64604606D01*
X38827402Y-64762426D01*
X38827401Y-64762432D01*
X38824500Y-64799298D01*
X38824500Y-65230701D01*
X38827401Y-65267567D01*
X38827402Y-65267573D01*
X38873254Y-65425393D01*
X38873255Y-65425396D01*
X38956917Y-65566862D01*
X38961702Y-65573031D01*
X38959256Y-65574927D01*
X38985857Y-65623642D01*
X38980873Y-65693334D01*
X38960069Y-65725703D01*
X38961702Y-65726969D01*
X38956917Y-65733137D01*
X38873255Y-65874603D01*
X38873254Y-65874606D01*
X38827402Y-66032426D01*
X38827401Y-66032432D01*
X38824500Y-66069298D01*
X38824500Y-66225500D01*
X38804815Y-66292539D01*
X38752011Y-66338294D01*
X38700500Y-66349500D01*
X33301440Y-66349500D01*
X33234401Y-66329815D01*
X33188646Y-66277011D01*
X33185258Y-66268833D01*
X33143797Y-66157671D01*
X33143793Y-66157664D01*
X33057547Y-66042455D01*
X33057544Y-66042452D01*
X32942335Y-65956206D01*
X32942328Y-65956202D01*
X32807482Y-65905908D01*
X32807483Y-65905908D01*
X32747883Y-65899501D01*
X32747881Y-65899500D01*
X32747873Y-65899500D01*
X32747864Y-65899500D01*
X30852129Y-65899500D01*
X30852123Y-65899501D01*
X30792516Y-65905908D01*
X30657671Y-65956202D01*
X30657664Y-65956206D01*
X30542455Y-66042452D01*
X30542452Y-66042455D01*
X30456206Y-66157664D01*
X30456202Y-66157671D01*
X30414742Y-66268833D01*
X30372871Y-66324767D01*
X30307407Y-66349184D01*
X30298560Y-66349500D01*
X27101440Y-66349500D01*
X27034401Y-66329815D01*
X26988646Y-66277011D01*
X26985258Y-66268833D01*
X26943797Y-66157671D01*
X26943793Y-66157664D01*
X26857547Y-66042455D01*
X26857544Y-66042452D01*
X26742335Y-65956206D01*
X26742328Y-65956202D01*
X26607482Y-65905908D01*
X26607483Y-65905908D01*
X26547883Y-65899501D01*
X26547881Y-65899500D01*
X26547873Y-65899500D01*
X26547864Y-65899500D01*
X24652129Y-65899500D01*
X24652123Y-65899501D01*
X24592516Y-65905908D01*
X24457671Y-65956202D01*
X24457664Y-65956206D01*
X24342455Y-66042452D01*
X24342452Y-66042455D01*
X24256206Y-66157664D01*
X24256202Y-66157671D01*
X24205908Y-66292517D01*
X24199501Y-66352116D01*
X24199500Y-66352135D01*
X24199500Y-67547870D01*
X24199501Y-67547876D01*
X24205908Y-67607483D01*
X24256202Y-67742328D01*
X24256206Y-67742335D01*
X24342452Y-67857544D01*
X24342455Y-67857547D01*
X24457664Y-67943793D01*
X24457671Y-67943797D01*
X24592517Y-67994091D01*
X24592516Y-67994091D01*
X24599444Y-67994835D01*
X24652127Y-68000500D01*
X26547872Y-68000499D01*
X26607483Y-67994091D01*
X26742331Y-67943796D01*
X26857546Y-67857546D01*
X26943796Y-67742331D01*
X26951149Y-67722615D01*
X26985258Y-67631167D01*
X27027129Y-67575233D01*
X27092593Y-67550816D01*
X27101440Y-67550500D01*
X30298560Y-67550500D01*
X30365599Y-67570185D01*
X30411354Y-67622989D01*
X30414742Y-67631167D01*
X30456202Y-67742328D01*
X30456206Y-67742335D01*
X30542452Y-67857544D01*
X30542455Y-67857547D01*
X30657664Y-67943793D01*
X30657671Y-67943797D01*
X30792517Y-67994091D01*
X30792516Y-67994091D01*
X30799444Y-67994835D01*
X30852127Y-68000500D01*
X32747872Y-68000499D01*
X32807483Y-67994091D01*
X32942331Y-67943796D01*
X33057546Y-67857546D01*
X33143796Y-67742331D01*
X33151149Y-67722615D01*
X33185258Y-67631167D01*
X33227129Y-67575233D01*
X33292593Y-67550816D01*
X33301440Y-67550500D01*
X38700500Y-67550500D01*
X38767539Y-67570185D01*
X38813294Y-67622989D01*
X38824500Y-67674500D01*
X38824500Y-67770701D01*
X38827401Y-67807567D01*
X38827402Y-67807573D01*
X38873254Y-67965393D01*
X38873255Y-67965396D01*
X38956917Y-68106862D01*
X38961702Y-68113031D01*
X38959256Y-68114927D01*
X38985857Y-68163642D01*
X38980873Y-68233334D01*
X38960069Y-68265703D01*
X38961702Y-68266969D01*
X38956917Y-68273137D01*
X38873255Y-68414603D01*
X38873254Y-68414606D01*
X38827402Y-68572426D01*
X38827401Y-68572432D01*
X38824500Y-68609298D01*
X38824500Y-69040701D01*
X38827401Y-69077567D01*
X38827402Y-69077573D01*
X38873254Y-69235393D01*
X38873255Y-69235396D01*
X38956917Y-69376862D01*
X38961702Y-69383031D01*
X38959256Y-69384927D01*
X38985857Y-69433642D01*
X38980873Y-69503334D01*
X38960069Y-69535703D01*
X38961702Y-69536969D01*
X38956917Y-69543137D01*
X38873255Y-69684603D01*
X38873254Y-69684606D01*
X38827402Y-69842426D01*
X38827401Y-69842432D01*
X38824500Y-69879298D01*
X38824500Y-70310701D01*
X38827401Y-70347567D01*
X38827402Y-70347573D01*
X38873254Y-70505393D01*
X38873255Y-70505396D01*
X38956917Y-70646862D01*
X38961702Y-70653031D01*
X38959256Y-70654927D01*
X38985857Y-70703642D01*
X38980873Y-70773334D01*
X38960069Y-70805703D01*
X38961702Y-70806969D01*
X38956917Y-70813137D01*
X38873255Y-70954603D01*
X38873254Y-70954606D01*
X38827402Y-71112426D01*
X38827401Y-71112432D01*
X38824500Y-71149298D01*
X38824500Y-71580701D01*
X38827401Y-71617567D01*
X38827402Y-71617573D01*
X38873254Y-71775393D01*
X38873255Y-71775396D01*
X38956917Y-71916862D01*
X38961702Y-71923031D01*
X38959256Y-71924927D01*
X38985857Y-71973642D01*
X38980873Y-72043334D01*
X38960069Y-72075703D01*
X38961702Y-72076969D01*
X38956917Y-72083137D01*
X38873255Y-72224603D01*
X38873254Y-72224606D01*
X38827402Y-72382426D01*
X38827401Y-72382432D01*
X38824500Y-72419298D01*
X38824500Y-72850704D01*
X38827775Y-72892316D01*
X38827680Y-72892765D01*
X38827841Y-72893196D01*
X38820518Y-72926856D01*
X38813410Y-72960693D01*
X38813053Y-72961172D01*
X38812989Y-72961469D01*
X38791839Y-72989724D01*
X38674585Y-73106978D01*
X38674584Y-73106979D01*
X38667518Y-73114046D01*
X38667515Y-73114047D01*
X38667514Y-73114048D01*
X38667515Y-73114049D01*
X38562778Y-73218785D01*
X38537525Y-73262526D01*
X38530022Y-73275523D01*
X38483723Y-73355715D01*
X38442799Y-73508443D01*
X38442799Y-73508445D01*
X38442799Y-73676546D01*
X38442800Y-73676559D01*
X38442800Y-82825500D01*
X38423115Y-82892539D01*
X38370311Y-82938294D01*
X38318800Y-82949500D01*
X38001440Y-82949500D01*
X37934401Y-82929815D01*
X37888646Y-82877011D01*
X37885258Y-82868833D01*
X37843797Y-82757671D01*
X37843793Y-82757664D01*
X37757547Y-82642455D01*
X37757544Y-82642452D01*
X37642335Y-82556206D01*
X37642328Y-82556202D01*
X37507482Y-82505908D01*
X37507483Y-82505908D01*
X37447883Y-82499501D01*
X37447881Y-82499500D01*
X37447873Y-82499500D01*
X37447864Y-82499500D01*
X35552129Y-82499500D01*
X35552123Y-82499501D01*
X35492516Y-82505908D01*
X35357671Y-82556202D01*
X35357664Y-82556206D01*
X35242455Y-82642452D01*
X35242452Y-82642455D01*
X35156206Y-82757664D01*
X35156202Y-82757671D01*
X35105908Y-82892517D01*
X35100987Y-82938294D01*
X35099501Y-82952123D01*
X35099500Y-82952135D01*
X35099500Y-84147870D01*
X35099501Y-84147876D01*
X35105908Y-84207483D01*
X35156202Y-84342328D01*
X35156206Y-84342335D01*
X35242452Y-84457544D01*
X35242455Y-84457547D01*
X35357664Y-84543793D01*
X35357671Y-84543797D01*
X35492517Y-84594091D01*
X35492516Y-84594091D01*
X35499444Y-84594835D01*
X35552127Y-84600500D01*
X37447872Y-84600499D01*
X37507483Y-84594091D01*
X37642331Y-84543796D01*
X37757546Y-84457546D01*
X37843796Y-84342331D01*
X37851149Y-84322615D01*
X37885258Y-84231167D01*
X37927129Y-84175233D01*
X37992593Y-84150816D01*
X38001440Y-84150500D01*
X38379943Y-84150500D01*
X38964243Y-84150500D01*
X39122357Y-84150500D01*
X41198560Y-84150500D01*
X41265599Y-84170185D01*
X41311354Y-84222989D01*
X41314742Y-84231167D01*
X41356202Y-84342328D01*
X41356206Y-84342335D01*
X41442452Y-84457544D01*
X41442455Y-84457547D01*
X41557664Y-84543793D01*
X41557671Y-84543797D01*
X41692517Y-84594091D01*
X41692516Y-84594091D01*
X41699444Y-84594835D01*
X41752127Y-84600500D01*
X43647872Y-84600499D01*
X43707483Y-84594091D01*
X43842331Y-84543796D01*
X43957546Y-84457546D01*
X44043796Y-84342331D01*
X44094091Y-84207483D01*
X44100500Y-84147873D01*
X44100499Y-82952128D01*
X44094091Y-82892517D01*
X44085257Y-82868833D01*
X44043797Y-82757671D01*
X44043793Y-82757664D01*
X43957547Y-82642455D01*
X43957544Y-82642452D01*
X43842335Y-82556206D01*
X43842328Y-82556202D01*
X43707482Y-82505908D01*
X43707483Y-82505908D01*
X43647883Y-82499501D01*
X43647881Y-82499500D01*
X43647873Y-82499500D01*
X43647864Y-82499500D01*
X41752129Y-82499500D01*
X41752123Y-82499501D01*
X41692516Y-82505908D01*
X41557671Y-82556202D01*
X41557664Y-82556206D01*
X41442455Y-82642452D01*
X41442452Y-82642455D01*
X41356206Y-82757664D01*
X41356202Y-82757671D01*
X41314742Y-82868833D01*
X41272871Y-82924767D01*
X41207407Y-82949184D01*
X41198560Y-82949500D01*
X39767800Y-82949500D01*
X39700761Y-82929815D01*
X39655006Y-82877011D01*
X39643800Y-82825500D01*
X39643800Y-82447844D01*
X52000000Y-82447844D01*
X52006401Y-82507372D01*
X52006403Y-82507379D01*
X52056645Y-82642086D01*
X52056649Y-82642093D01*
X52142809Y-82757187D01*
X52142812Y-82757190D01*
X52257906Y-82843350D01*
X52257913Y-82843354D01*
X52392620Y-82893596D01*
X52392627Y-82893598D01*
X52452155Y-82899999D01*
X52452172Y-82900000D01*
X53150000Y-82900000D01*
X53650000Y-82900000D01*
X54347828Y-82900000D01*
X54347844Y-82899999D01*
X54407372Y-82893598D01*
X54407379Y-82893596D01*
X54542086Y-82843354D01*
X54542093Y-82843350D01*
X54657187Y-82757190D01*
X54657190Y-82757187D01*
X54743350Y-82642093D01*
X54743354Y-82642086D01*
X54793596Y-82507379D01*
X54793598Y-82507372D01*
X54799999Y-82447844D01*
X54800000Y-82447827D01*
X54800000Y-82100000D01*
X53650000Y-82100000D01*
X53650000Y-82900000D01*
X53150000Y-82900000D01*
X53150000Y-82100000D01*
X52000000Y-82100000D01*
X52000000Y-82447844D01*
X39643800Y-82447844D01*
X39643800Y-81252155D01*
X52000000Y-81252155D01*
X52000000Y-81600000D01*
X53150000Y-81600000D01*
X53650000Y-81600000D01*
X54800000Y-81600000D01*
X54800000Y-81252172D01*
X54799999Y-81252155D01*
X54793598Y-81192627D01*
X54793596Y-81192620D01*
X54743354Y-81057913D01*
X54743350Y-81057906D01*
X54657190Y-80942812D01*
X54657187Y-80942809D01*
X54542093Y-80856649D01*
X54542086Y-80856645D01*
X54407379Y-80806403D01*
X54407372Y-80806401D01*
X54347844Y-80800000D01*
X53650000Y-80800000D01*
X53650000Y-81600000D01*
X53150000Y-81600000D01*
X53150000Y-80800000D01*
X52452155Y-80800000D01*
X52392627Y-80806401D01*
X52392620Y-80806403D01*
X52257913Y-80856645D01*
X52257906Y-80856649D01*
X52142812Y-80942809D01*
X52142809Y-80942812D01*
X52056649Y-81057906D01*
X52056645Y-81057913D01*
X52006403Y-81192620D01*
X52006401Y-81192627D01*
X52000000Y-81252155D01*
X39643800Y-81252155D01*
X39643800Y-81179500D01*
X39663485Y-81112461D01*
X39716289Y-81066706D01*
X39767800Y-81055500D01*
X41290686Y-81055500D01*
X41290694Y-81055500D01*
X41327569Y-81052598D01*
X41327571Y-81052597D01*
X41327573Y-81052597D01*
X41369191Y-81040505D01*
X41485398Y-81006744D01*
X41626865Y-80923081D01*
X41743081Y-80806865D01*
X41826744Y-80665398D01*
X41872598Y-80507569D01*
X41872800Y-80505001D01*
X48127704Y-80505001D01*
X48127899Y-80507486D01*
X48173718Y-80665198D01*
X48257314Y-80806552D01*
X48257321Y-80806561D01*
X48373438Y-80922678D01*
X48373447Y-80922685D01*
X48514803Y-81006282D01*
X48514806Y-81006283D01*
X48672504Y-81052099D01*
X48672510Y-81052100D01*
X48709350Y-81054999D01*
X48709366Y-81055000D01*
X49400000Y-81055000D01*
X49900000Y-81055000D01*
X50590634Y-81055000D01*
X50590649Y-81054999D01*
X50627489Y-81052100D01*
X50627495Y-81052099D01*
X50785193Y-81006283D01*
X50785196Y-81006282D01*
X50926552Y-80922685D01*
X50926561Y-80922678D01*
X51042678Y-80806561D01*
X51042685Y-80806552D01*
X51126281Y-80665198D01*
X51172100Y-80507486D01*
X51172295Y-80505001D01*
X51172295Y-80505000D01*
X49900000Y-80505000D01*
X49900000Y-81055000D01*
X49400000Y-81055000D01*
X49400000Y-80505000D01*
X48127705Y-80505000D01*
X48127704Y-80505001D01*
X41872800Y-80505001D01*
X41875500Y-80470694D01*
X41875500Y-80039306D01*
X41872598Y-80002431D01*
X41867042Y-79983309D01*
X41826745Y-79844606D01*
X41826744Y-79844603D01*
X41826744Y-79844602D01*
X41743081Y-79703135D01*
X41743078Y-79703132D01*
X41738298Y-79696969D01*
X41740750Y-79695066D01*
X41714155Y-79646421D01*
X41719104Y-79576726D01*
X41739940Y-79544304D01*
X41738298Y-79543031D01*
X41743075Y-79536870D01*
X41743081Y-79536865D01*
X41826744Y-79395398D01*
X41872598Y-79237569D01*
X41872800Y-79235001D01*
X48127704Y-79235001D01*
X48127899Y-79237486D01*
X48173718Y-79395198D01*
X48257314Y-79536552D01*
X48262100Y-79542722D01*
X48259753Y-79544542D01*
X48286564Y-79593642D01*
X48281580Y-79663334D01*
X48260541Y-79696069D01*
X48262100Y-79697278D01*
X48257314Y-79703447D01*
X48173718Y-79844801D01*
X48127899Y-80002513D01*
X48127704Y-80004998D01*
X48127705Y-80005000D01*
X49400000Y-80005000D01*
X49900000Y-80005000D01*
X51172295Y-80005000D01*
X51172295Y-80004998D01*
X51172100Y-80002513D01*
X51126281Y-79844801D01*
X51042685Y-79703447D01*
X51037900Y-79697278D01*
X51040252Y-79695453D01*
X51013445Y-79646405D01*
X51018402Y-79576712D01*
X51039465Y-79543936D01*
X51037900Y-79542722D01*
X51042685Y-79536552D01*
X51126281Y-79395198D01*
X51172100Y-79237486D01*
X51172295Y-79235001D01*
X51172295Y-79235000D01*
X49900000Y-79235000D01*
X49900000Y-80005000D01*
X49400000Y-80005000D01*
X49400000Y-79235000D01*
X48127705Y-79235000D01*
X48127704Y-79235001D01*
X41872800Y-79235001D01*
X41875500Y-79200694D01*
X41875500Y-78769306D01*
X41872598Y-78732431D01*
X41872596Y-78732426D01*
X41871805Y-78728087D01*
X41879124Y-78658602D01*
X41906104Y-78618129D01*
X42559233Y-77965001D01*
X48127704Y-77965001D01*
X48127899Y-77967486D01*
X48173718Y-78125198D01*
X48257314Y-78266552D01*
X48262100Y-78272722D01*
X48259753Y-78274542D01*
X48286564Y-78323642D01*
X48281580Y-78393334D01*
X48260541Y-78426069D01*
X48262100Y-78427278D01*
X48257314Y-78433447D01*
X48173718Y-78574801D01*
X48127899Y-78732513D01*
X48127704Y-78734998D01*
X48127705Y-78735000D01*
X49400000Y-78735000D01*
X49900000Y-78735000D01*
X51172295Y-78735000D01*
X51172295Y-78734998D01*
X51172100Y-78732513D01*
X51126281Y-78574801D01*
X51042685Y-78433447D01*
X51037900Y-78427278D01*
X51040252Y-78425453D01*
X51013445Y-78376405D01*
X51018402Y-78306712D01*
X51039465Y-78273936D01*
X51037900Y-78272722D01*
X51042685Y-78266552D01*
X51126281Y-78125198D01*
X51172100Y-77967486D01*
X51172295Y-77965001D01*
X51172295Y-77965000D01*
X49900000Y-77965000D01*
X49900000Y-78735000D01*
X49400000Y-78735000D01*
X49400000Y-77965000D01*
X48127705Y-77965000D01*
X48127704Y-77965001D01*
X42559233Y-77965001D01*
X42797706Y-77726528D01*
X42797711Y-77726524D01*
X42807914Y-77716320D01*
X42807916Y-77716320D01*
X42919720Y-77604516D01*
X42963939Y-77527924D01*
X43014505Y-77479710D01*
X43083112Y-77466486D01*
X43095518Y-77468308D01*
X43183955Y-77485900D01*
X43183958Y-77485900D01*
X43341644Y-77485900D01*
X43341645Y-77485899D01*
X43496297Y-77455137D01*
X43641979Y-77394794D01*
X43773089Y-77307189D01*
X43884589Y-77195689D01*
X43972194Y-77064579D01*
X44032537Y-76918897D01*
X44063300Y-76764242D01*
X44063300Y-76606558D01*
X44063300Y-76606555D01*
X44063299Y-76606553D01*
X44051627Y-76547876D01*
X44032537Y-76451903D01*
X44021585Y-76425463D01*
X43972197Y-76306227D01*
X43972190Y-76306214D01*
X43884199Y-76174526D01*
X43863321Y-76107848D01*
X43863301Y-76105635D01*
X43863301Y-76097645D01*
X43863301Y-76097643D01*
X43822377Y-75944915D01*
X43793439Y-75894795D01*
X43743320Y-75807984D01*
X43631516Y-75696180D01*
X43631515Y-75696179D01*
X43627185Y-75691849D01*
X43627174Y-75691839D01*
X43164690Y-75229355D01*
X43164688Y-75229352D01*
X43045817Y-75110481D01*
X43045816Y-75110480D01*
X42959004Y-75060360D01*
X42959004Y-75060359D01*
X42959000Y-75060358D01*
X42908885Y-75031423D01*
X42756157Y-74990499D01*
X42598043Y-74990499D01*
X42590447Y-74990499D01*
X42590431Y-74990500D01*
X42318769Y-74990500D01*
X42318753Y-74990499D01*
X42311157Y-74990499D01*
X42153043Y-74990499D01*
X42026956Y-75024284D01*
X41957106Y-75022621D01*
X41899244Y-74983458D01*
X41872879Y-74926780D01*
X41872097Y-74922497D01*
X41826283Y-74764806D01*
X41826282Y-74764803D01*
X41783594Y-74692621D01*
X41766411Y-74624897D01*
X41788571Y-74558635D01*
X41843037Y-74514871D01*
X41890326Y-74505500D01*
X43698303Y-74505500D01*
X43765342Y-74525185D01*
X43785984Y-74541819D01*
X46053539Y-76809374D01*
X46053549Y-76809385D01*
X46057879Y-76813715D01*
X46057880Y-76813716D01*
X46169684Y-76925520D01*
X46169686Y-76925521D01*
X46169690Y-76925524D01*
X46306018Y-77004232D01*
X46306616Y-77004577D01*
X46418419Y-77034534D01*
X46459342Y-77045500D01*
X46459343Y-77045500D01*
X48109674Y-77045500D01*
X48176713Y-77065185D01*
X48222468Y-77117989D01*
X48232412Y-77187147D01*
X48216406Y-77232621D01*
X48173718Y-77304801D01*
X48127899Y-77462513D01*
X48127704Y-77464998D01*
X48127705Y-77465000D01*
X51172295Y-77465000D01*
X51172295Y-77464998D01*
X51172100Y-77462513D01*
X51126281Y-77304801D01*
X51042685Y-77163447D01*
X51037900Y-77157278D01*
X51040366Y-77155364D01*
X51013802Y-77106776D01*
X51018749Y-77037082D01*
X51039856Y-77004232D01*
X51038301Y-77003026D01*
X51043077Y-76996868D01*
X51043081Y-76996865D01*
X51126744Y-76855398D01*
X51172598Y-76697569D01*
X51175500Y-76660694D01*
X51175500Y-76229306D01*
X51175500Y-76227096D01*
X51195185Y-76160057D01*
X51211819Y-76139415D01*
X51436119Y-75915115D01*
X51497442Y-75881630D01*
X51567134Y-75886614D01*
X51623067Y-75928486D01*
X51647484Y-75993950D01*
X51647800Y-76002796D01*
X51647800Y-78070943D01*
X51647800Y-78229057D01*
X51659826Y-78273936D01*
X51688723Y-78381783D01*
X51688726Y-78381790D01*
X51767775Y-78518709D01*
X51767779Y-78518714D01*
X51767780Y-78518716D01*
X51879584Y-78630520D01*
X51939429Y-78665071D01*
X51987644Y-78715637D01*
X52000719Y-78759204D01*
X52005909Y-78807483D01*
X52056202Y-78942328D01*
X52056206Y-78942335D01*
X52142452Y-79057544D01*
X52142455Y-79057547D01*
X52257664Y-79143793D01*
X52257671Y-79143797D01*
X52392517Y-79194091D01*
X52392516Y-79194091D01*
X52399444Y-79194835D01*
X52452127Y-79200500D01*
X54347872Y-79200499D01*
X54407483Y-79194091D01*
X54542331Y-79143796D01*
X54657546Y-79057546D01*
X54743796Y-78942331D01*
X54768415Y-78876325D01*
X54810286Y-78820391D01*
X54875750Y-78795973D01*
X54908789Y-78798040D01*
X54921155Y-78800500D01*
X54921158Y-78800500D01*
X55078844Y-78800500D01*
X55078845Y-78800499D01*
X55202514Y-78775900D01*
X55233488Y-78769739D01*
X55233489Y-78769738D01*
X55233497Y-78769737D01*
X55257155Y-78759937D01*
X55304604Y-78750500D01*
X56420943Y-78750500D01*
X58098560Y-78750500D01*
X58165599Y-78770185D01*
X58211354Y-78822989D01*
X58214742Y-78831167D01*
X58256202Y-78942328D01*
X58256206Y-78942335D01*
X58342452Y-79057544D01*
X58342455Y-79057547D01*
X58457664Y-79143793D01*
X58457671Y-79143797D01*
X58592517Y-79194091D01*
X58592516Y-79194091D01*
X58599444Y-79194835D01*
X58652127Y-79200500D01*
X59281903Y-79200499D01*
X59348941Y-79220183D01*
X59394696Y-79272987D01*
X59404640Y-79342146D01*
X59375615Y-79405702D01*
X59369583Y-79412180D01*
X55381286Y-83400478D01*
X55269481Y-83512282D01*
X55269479Y-83512285D01*
X55219361Y-83599094D01*
X55219359Y-83599096D01*
X55190425Y-83649209D01*
X55190424Y-83649210D01*
X55190423Y-83649215D01*
X55149499Y-83801943D01*
X55149499Y-83801945D01*
X55149499Y-83970046D01*
X55149500Y-83970059D01*
X55149500Y-84970249D01*
X55129815Y-85037288D01*
X55099812Y-85069515D01*
X55042457Y-85112451D01*
X55042451Y-85112457D01*
X54956206Y-85227664D01*
X54956202Y-85227671D01*
X54905908Y-85362517D01*
X54899501Y-85422116D01*
X54899501Y-85422123D01*
X54899500Y-85422135D01*
X54899500Y-85846000D01*
X54879815Y-85913039D01*
X54827011Y-85958794D01*
X54775500Y-85970000D01*
X54600000Y-85970000D01*
X54600000Y-87770000D01*
X54897828Y-87770000D01*
X54897844Y-87769999D01*
X54957372Y-87763598D01*
X54957379Y-87763596D01*
X55092086Y-87713354D01*
X55092093Y-87713350D01*
X55207186Y-87627191D01*
X55287289Y-87520188D01*
X55290945Y-87517450D01*
X55292843Y-87513296D01*
X55318657Y-87496705D01*
X55343223Y-87478317D01*
X55348852Y-87477301D01*
X55351621Y-87475522D01*
X55386549Y-87470499D01*
X55497192Y-87470499D01*
X55564229Y-87490184D01*
X55609984Y-87542988D01*
X55619928Y-87612146D01*
X55611751Y-87641951D01*
X55586509Y-87702890D01*
X55586506Y-87702902D01*
X55550000Y-87886428D01*
X55550000Y-88073571D01*
X55586506Y-88257097D01*
X55586508Y-88257105D01*
X55658119Y-88429991D01*
X55658124Y-88430000D01*
X55762086Y-88585589D01*
X55762089Y-88585593D01*
X55894406Y-88717910D01*
X55894410Y-88717913D01*
X56049999Y-88821875D01*
X56050008Y-88821880D01*
X56222894Y-88893491D01*
X56222902Y-88893493D01*
X56406428Y-88929999D01*
X56406431Y-88930000D01*
X56593569Y-88930000D01*
X56593571Y-88929999D01*
X56777097Y-88893493D01*
X56777105Y-88893491D01*
X56949991Y-88821880D01*
X56950000Y-88821875D01*
X57105589Y-88717913D01*
X57105593Y-88717910D01*
X57237910Y-88585593D01*
X57237913Y-88585589D01*
X57341875Y-88430000D01*
X57341880Y-88429991D01*
X57413491Y-88257105D01*
X57413493Y-88257097D01*
X57449999Y-88073571D01*
X57450000Y-88073569D01*
X57450000Y-87886430D01*
X57449999Y-87886428D01*
X57413493Y-87702902D01*
X57413491Y-87702894D01*
X57341880Y-87530008D01*
X57341875Y-87529999D01*
X57237913Y-87374410D01*
X57237910Y-87374406D01*
X57105593Y-87242089D01*
X57105589Y-87242086D01*
X56950000Y-87138124D01*
X56949991Y-87138119D01*
X56777105Y-87066508D01*
X56777099Y-87066506D01*
X56700307Y-87051231D01*
X56638396Y-87018846D01*
X56603822Y-86958130D01*
X56600499Y-86929622D01*
X56600499Y-86470000D01*
X57900000Y-86470000D01*
X57900000Y-87017844D01*
X57906401Y-87077372D01*
X57906403Y-87077379D01*
X57956645Y-87212086D01*
X57956649Y-87212093D01*
X58042809Y-87327187D01*
X58042812Y-87327190D01*
X58157906Y-87413350D01*
X58157913Y-87413354D01*
X58292620Y-87463596D01*
X58292627Y-87463598D01*
X58352155Y-87469999D01*
X58352172Y-87470000D01*
X58497397Y-87470000D01*
X58564436Y-87489685D01*
X58610191Y-87542489D01*
X58620135Y-87611647D01*
X58611958Y-87641452D01*
X58586509Y-87702890D01*
X58586506Y-87702902D01*
X58550000Y-87886428D01*
X58550000Y-88073571D01*
X58586506Y-88257097D01*
X58586508Y-88257105D01*
X58658119Y-88429991D01*
X58658124Y-88430000D01*
X58762086Y-88585589D01*
X58762089Y-88585593D01*
X58894406Y-88717910D01*
X58894410Y-88717913D01*
X59049999Y-88821875D01*
X59050008Y-88821880D01*
X59222894Y-88893491D01*
X59222902Y-88893493D01*
X59406428Y-88929999D01*
X59406431Y-88930000D01*
X59593569Y-88930000D01*
X59593571Y-88929999D01*
X59777097Y-88893493D01*
X59777105Y-88893491D01*
X59949991Y-88821880D01*
X59950000Y-88821875D01*
X60105589Y-88717913D01*
X60105593Y-88717910D01*
X60191348Y-88632155D01*
X60650000Y-88632155D01*
X60650000Y-88830000D01*
X61400000Y-88830000D01*
X61900000Y-88830000D01*
X62650000Y-88830000D01*
X62650000Y-88632172D01*
X62649999Y-88632155D01*
X62643598Y-88572627D01*
X62643596Y-88572620D01*
X62593354Y-88437913D01*
X62593350Y-88437906D01*
X62507190Y-88322812D01*
X62507187Y-88322809D01*
X62392093Y-88236649D01*
X62392086Y-88236645D01*
X62257379Y-88186403D01*
X62257372Y-88186401D01*
X62197844Y-88180000D01*
X61900000Y-88180000D01*
X61900000Y-88830000D01*
X61400000Y-88830000D01*
X61400000Y-88180000D01*
X61102155Y-88180000D01*
X61042627Y-88186401D01*
X61042620Y-88186403D01*
X60907913Y-88236645D01*
X60907906Y-88236649D01*
X60792812Y-88322809D01*
X60792809Y-88322812D01*
X60706649Y-88437906D01*
X60706645Y-88437913D01*
X60656403Y-88572620D01*
X60656401Y-88572627D01*
X60650000Y-88632155D01*
X60191348Y-88632155D01*
X60237910Y-88585593D01*
X60237913Y-88585589D01*
X60255039Y-88559960D01*
X60341875Y-88430000D01*
X60341880Y-88429991D01*
X60413491Y-88257105D01*
X60413493Y-88257097D01*
X60449999Y-88073571D01*
X60450000Y-88073569D01*
X60450000Y-87886430D01*
X60449999Y-87886428D01*
X60413493Y-87702902D01*
X60413490Y-87702890D01*
X60388042Y-87641452D01*
X60384534Y-87608826D01*
X60379865Y-87576353D01*
X60380818Y-87574265D01*
X60380573Y-87571983D01*
X60395261Y-87542639D01*
X60408890Y-87512797D01*
X60410820Y-87511556D01*
X60411848Y-87509504D01*
X60440063Y-87492763D01*
X60467668Y-87475023D01*
X60470697Y-87474587D01*
X60471937Y-87473852D01*
X60502603Y-87470000D01*
X60613070Y-87470000D01*
X60680109Y-87489685D01*
X60712337Y-87519689D01*
X60792813Y-87627190D01*
X60907906Y-87713350D01*
X60907913Y-87713354D01*
X61042620Y-87763596D01*
X61042627Y-87763598D01*
X61102155Y-87769999D01*
X61102172Y-87770000D01*
X61400000Y-87770000D01*
X61900000Y-87770000D01*
X62197828Y-87770000D01*
X62197844Y-87769999D01*
X62257372Y-87763598D01*
X62257379Y-87763596D01*
X62392086Y-87713354D01*
X62392093Y-87713350D01*
X62507187Y-87627190D01*
X62507190Y-87627187D01*
X62593350Y-87512093D01*
X62593354Y-87512086D01*
X62643596Y-87377379D01*
X62643598Y-87377372D01*
X62649999Y-87317844D01*
X62650000Y-87317827D01*
X62650000Y-87120000D01*
X61900000Y-87120000D01*
X61900000Y-87770000D01*
X61400000Y-87770000D01*
X61400000Y-86620000D01*
X61900000Y-86620000D01*
X62650000Y-86620000D01*
X62650000Y-86422172D01*
X62649999Y-86422155D01*
X62643598Y-86362627D01*
X62643596Y-86362620D01*
X62593354Y-86227913D01*
X62593350Y-86227906D01*
X62507190Y-86112812D01*
X62507187Y-86112809D01*
X62392093Y-86026649D01*
X62392086Y-86026645D01*
X62257379Y-85976403D01*
X62257372Y-85976401D01*
X62197844Y-85970000D01*
X61900000Y-85970000D01*
X61900000Y-86620000D01*
X61400000Y-86620000D01*
X61400000Y-85970000D01*
X61224000Y-85970000D01*
X61156961Y-85950315D01*
X61111206Y-85897511D01*
X61100000Y-85846000D01*
X61100000Y-85422172D01*
X61099999Y-85422155D01*
X61093598Y-85362627D01*
X61093596Y-85362620D01*
X61043354Y-85227913D01*
X61043350Y-85227906D01*
X60957190Y-85112812D01*
X60957187Y-85112809D01*
X60842093Y-85026649D01*
X60842086Y-85026645D01*
X60707379Y-84976403D01*
X60707372Y-84976401D01*
X60647844Y-84970000D01*
X60500000Y-84970000D01*
X60500000Y-86096000D01*
X60480315Y-86163039D01*
X60427511Y-86208794D01*
X60376000Y-86220000D01*
X60250000Y-86220000D01*
X60250000Y-86346000D01*
X60230315Y-86413039D01*
X60177511Y-86458794D01*
X60126000Y-86470000D01*
X57900000Y-86470000D01*
X56600499Y-86470000D01*
X56600499Y-85422155D01*
X57900000Y-85422155D01*
X57900000Y-85970000D01*
X58500000Y-85970000D01*
X59000000Y-85970000D01*
X60000000Y-85970000D01*
X60000000Y-84970000D01*
X59852155Y-84970000D01*
X59792627Y-84976401D01*
X59792620Y-84976403D01*
X59657913Y-85026645D01*
X59657911Y-85026647D01*
X59574311Y-85089230D01*
X59508847Y-85113647D01*
X59440574Y-85098796D01*
X59425689Y-85089230D01*
X59342088Y-85026647D01*
X59342086Y-85026645D01*
X59207379Y-84976403D01*
X59207372Y-84976401D01*
X59147844Y-84970000D01*
X59000000Y-84970000D01*
X59000000Y-85970000D01*
X58500000Y-85970000D01*
X58500000Y-84970000D01*
X58352155Y-84970000D01*
X58292627Y-84976401D01*
X58292620Y-84976403D01*
X58157913Y-85026645D01*
X58157906Y-85026649D01*
X58042812Y-85112809D01*
X58042809Y-85112812D01*
X57956649Y-85227906D01*
X57956645Y-85227913D01*
X57906403Y-85362620D01*
X57906401Y-85362627D01*
X57900000Y-85422155D01*
X56600499Y-85422155D01*
X56600499Y-85422128D01*
X56594091Y-85362517D01*
X56558165Y-85266195D01*
X56543797Y-85227671D01*
X56543793Y-85227664D01*
X56457548Y-85112457D01*
X56457546Y-85112454D01*
X56457542Y-85112451D01*
X56400188Y-85069515D01*
X56358318Y-85013581D01*
X56350500Y-84970249D01*
X56350500Y-84181096D01*
X56370185Y-84114057D01*
X56386814Y-84093420D01*
X58006526Y-82473708D01*
X58067846Y-82440225D01*
X58137538Y-82445209D01*
X58193471Y-82487081D01*
X58210386Y-82518058D01*
X58256645Y-82642086D01*
X58256649Y-82642093D01*
X58342809Y-82757187D01*
X58342812Y-82757190D01*
X58457906Y-82843350D01*
X58457913Y-82843354D01*
X58592620Y-82893596D01*
X58592627Y-82893598D01*
X58652155Y-82899999D01*
X58652172Y-82900000D01*
X59350000Y-82900000D01*
X59850000Y-82900000D01*
X60547828Y-82900000D01*
X60547844Y-82899999D01*
X60607372Y-82893598D01*
X60607379Y-82893596D01*
X60742086Y-82843354D01*
X60742093Y-82843350D01*
X60857187Y-82757190D01*
X60857190Y-82757187D01*
X60943350Y-82642093D01*
X60943354Y-82642086D01*
X60993596Y-82507379D01*
X60993598Y-82507372D01*
X60999999Y-82447844D01*
X61000000Y-82447827D01*
X61000000Y-82100000D01*
X59850000Y-82100000D01*
X59850000Y-82900000D01*
X59350000Y-82900000D01*
X59350000Y-81974000D01*
X59369685Y-81906961D01*
X59422489Y-81861206D01*
X59474000Y-81850000D01*
X59600000Y-81850000D01*
X59600000Y-81724000D01*
X59619685Y-81656961D01*
X59672489Y-81611206D01*
X59724000Y-81600000D01*
X61000000Y-81600000D01*
X61000000Y-81252172D01*
X60999999Y-81252155D01*
X60993598Y-81192627D01*
X60993596Y-81192620D01*
X60943354Y-81057913D01*
X60943350Y-81057906D01*
X60857690Y-80943480D01*
X60857688Y-80943478D01*
X60857187Y-80942809D01*
X60765322Y-80874038D01*
X64399500Y-80874038D01*
X64399500Y-81125961D01*
X64438910Y-81374785D01*
X64516760Y-81614383D01*
X64595413Y-81768747D01*
X64619723Y-81816458D01*
X64631132Y-81838848D01*
X64779201Y-82042649D01*
X64779205Y-82042654D01*
X64957345Y-82220794D01*
X64957350Y-82220798D01*
X65135117Y-82349952D01*
X65161155Y-82368870D01*
X65301197Y-82440225D01*
X65385616Y-82483239D01*
X65385618Y-82483239D01*
X65385621Y-82483241D01*
X65625215Y-82561090D01*
X65874038Y-82600500D01*
X65874039Y-82600500D01*
X66125961Y-82600500D01*
X66125962Y-82600500D01*
X66374785Y-82561090D01*
X66614379Y-82483241D01*
X66838845Y-82368870D01*
X67042656Y-82220793D01*
X67220793Y-82042656D01*
X67368870Y-81838845D01*
X67483241Y-81614379D01*
X67561090Y-81374785D01*
X67600500Y-81125962D01*
X67600500Y-80874038D01*
X67561090Y-80625215D01*
X67483241Y-80385621D01*
X67483239Y-80385618D01*
X67483239Y-80385616D01*
X67413040Y-80247844D01*
X67368870Y-80161155D01*
X67303304Y-80070911D01*
X67220798Y-79957350D01*
X67220794Y-79957345D01*
X67042654Y-79779205D01*
X67042649Y-79779201D01*
X66838848Y-79631132D01*
X66838847Y-79631131D01*
X66838845Y-79631130D01*
X66732044Y-79576712D01*
X66614383Y-79516760D01*
X66374785Y-79438910D01*
X66125962Y-79399500D01*
X65874038Y-79399500D01*
X65749626Y-79419205D01*
X65625214Y-79438910D01*
X65385616Y-79516760D01*
X65161151Y-79631132D01*
X64957350Y-79779201D01*
X64957345Y-79779205D01*
X64779205Y-79957345D01*
X64779201Y-79957350D01*
X64631132Y-80161151D01*
X64516760Y-80385616D01*
X64438910Y-80625214D01*
X64399500Y-80874038D01*
X60765322Y-80874038D01*
X60742093Y-80856649D01*
X60742086Y-80856645D01*
X60607379Y-80806403D01*
X60607372Y-80806401D01*
X60547844Y-80800000D01*
X59979596Y-80800000D01*
X59912557Y-80780315D01*
X59866802Y-80727511D01*
X59856858Y-80658353D01*
X59885883Y-80594797D01*
X59891915Y-80588319D01*
X60496932Y-79983302D01*
X61110206Y-79370027D01*
X61110211Y-79370024D01*
X61120414Y-79359820D01*
X61120416Y-79359820D01*
X61232220Y-79248016D01*
X61292391Y-79143796D01*
X61311277Y-79111085D01*
X61352201Y-78958357D01*
X61352201Y-78800243D01*
X61352201Y-78792648D01*
X61352200Y-78792630D01*
X61352200Y-75861160D01*
X61352201Y-75861147D01*
X61352201Y-75693044D01*
X61339971Y-75647402D01*
X61311277Y-75540316D01*
X61292493Y-75507780D01*
X61232224Y-75403390D01*
X61232218Y-75403382D01*
X57522432Y-71693596D01*
X54076679Y-68247844D01*
X55900000Y-68247844D01*
X55906401Y-68307372D01*
X55906403Y-68307379D01*
X55956645Y-68442086D01*
X55956649Y-68442093D01*
X56042809Y-68557187D01*
X56042812Y-68557190D01*
X56157906Y-68643350D01*
X56157913Y-68643354D01*
X56292620Y-68693596D01*
X56292627Y-68693598D01*
X56352155Y-68699999D01*
X56352172Y-68700000D01*
X57050000Y-68700000D01*
X57550000Y-68700000D01*
X58247828Y-68700000D01*
X58247844Y-68699999D01*
X58307372Y-68693598D01*
X58307379Y-68693596D01*
X58442086Y-68643354D01*
X58442093Y-68643350D01*
X58557187Y-68557190D01*
X58557190Y-68557187D01*
X58643350Y-68442093D01*
X58643354Y-68442086D01*
X58693596Y-68307379D01*
X58693598Y-68307372D01*
X58699999Y-68247844D01*
X62100000Y-68247844D01*
X62106401Y-68307372D01*
X62106403Y-68307379D01*
X62156645Y-68442086D01*
X62156649Y-68442093D01*
X62242809Y-68557187D01*
X62242812Y-68557190D01*
X62357906Y-68643350D01*
X62357913Y-68643354D01*
X62492620Y-68693596D01*
X62492627Y-68693598D01*
X62552155Y-68699999D01*
X62552172Y-68700000D01*
X63250000Y-68700000D01*
X63750000Y-68700000D01*
X64447828Y-68700000D01*
X64447844Y-68699999D01*
X64507372Y-68693598D01*
X64507379Y-68693596D01*
X64642086Y-68643354D01*
X64642093Y-68643350D01*
X64757187Y-68557190D01*
X64757190Y-68557187D01*
X64843350Y-68442093D01*
X64843354Y-68442086D01*
X64893596Y-68307379D01*
X64893598Y-68307372D01*
X64899999Y-68247844D01*
X64900000Y-68247827D01*
X64900000Y-67900000D01*
X63750000Y-67900000D01*
X63750000Y-68700000D01*
X63250000Y-68700000D01*
X63250000Y-67900000D01*
X62100000Y-67900000D01*
X62100000Y-68247844D01*
X58699999Y-68247844D01*
X58700000Y-68247827D01*
X58700000Y-67900000D01*
X57550000Y-67900000D01*
X57550000Y-68700000D01*
X57050000Y-68700000D01*
X57050000Y-67900000D01*
X55900000Y-67900000D01*
X55900000Y-68247844D01*
X54076679Y-68247844D01*
X52880990Y-67052155D01*
X55900000Y-67052155D01*
X55900000Y-67400000D01*
X57050000Y-67400000D01*
X57550000Y-67400000D01*
X58700000Y-67400000D01*
X58700000Y-67052172D01*
X58699999Y-67052155D01*
X62100000Y-67052155D01*
X62100000Y-67400000D01*
X63250000Y-67400000D01*
X63750000Y-67400000D01*
X64900000Y-67400000D01*
X64900000Y-67052172D01*
X64899999Y-67052155D01*
X64893598Y-66992627D01*
X64893596Y-66992620D01*
X64843354Y-66857913D01*
X64843350Y-66857906D01*
X64757190Y-66742812D01*
X64757187Y-66742809D01*
X64642093Y-66656649D01*
X64642086Y-66656645D01*
X64507379Y-66606403D01*
X64507372Y-66606401D01*
X64447844Y-66600000D01*
X63750000Y-66600000D01*
X63750000Y-67400000D01*
X63250000Y-67400000D01*
X63250000Y-66600000D01*
X62552155Y-66600000D01*
X62492627Y-66606401D01*
X62492620Y-66606403D01*
X62357913Y-66656645D01*
X62357906Y-66656649D01*
X62242812Y-66742809D01*
X62242809Y-66742812D01*
X62156649Y-66857906D01*
X62156645Y-66857913D01*
X62106403Y-66992620D01*
X62106401Y-66992627D01*
X62100000Y-67052155D01*
X58699999Y-67052155D01*
X58693598Y-66992627D01*
X58693596Y-66992620D01*
X58643354Y-66857913D01*
X58643350Y-66857906D01*
X58557190Y-66742812D01*
X58557187Y-66742809D01*
X58442093Y-66656649D01*
X58442086Y-66656645D01*
X58307379Y-66606403D01*
X58307372Y-66606401D01*
X58247844Y-66600000D01*
X57550000Y-66600000D01*
X57550000Y-67400000D01*
X57050000Y-67400000D01*
X57050000Y-66600000D01*
X56352155Y-66600000D01*
X56292627Y-66606401D01*
X56292620Y-66606403D01*
X56157913Y-66656645D01*
X56157906Y-66656649D01*
X56042812Y-66742809D01*
X56042809Y-66742812D01*
X55956649Y-66857906D01*
X55956645Y-66857913D01*
X55906403Y-66992620D01*
X55906401Y-66992627D01*
X55900000Y-67052155D01*
X52880990Y-67052155D01*
X51206815Y-65377980D01*
X51173331Y-65316658D01*
X51172616Y-65273927D01*
X51172101Y-65273887D01*
X51172526Y-65268485D01*
X51172518Y-65268003D01*
X51172593Y-65267583D01*
X51172598Y-65267569D01*
X51175500Y-65230694D01*
X51175500Y-65021800D01*
X51195185Y-64954761D01*
X51247989Y-64909006D01*
X51299500Y-64897800D01*
X55714331Y-64897800D01*
X55714347Y-64897801D01*
X55721943Y-64897801D01*
X55880054Y-64897801D01*
X55880057Y-64897801D01*
X55981066Y-64870735D01*
X56050912Y-64872398D01*
X56087468Y-64891244D01*
X56157664Y-64943793D01*
X56157671Y-64943797D01*
X56292517Y-64994091D01*
X56292516Y-64994091D01*
X56299444Y-64994835D01*
X56352127Y-65000500D01*
X58247872Y-65000499D01*
X58307483Y-64994091D01*
X58442331Y-64943796D01*
X58557546Y-64857546D01*
X58643796Y-64742331D01*
X58651149Y-64722615D01*
X58685258Y-64631167D01*
X58727129Y-64575233D01*
X58792593Y-64550816D01*
X58801440Y-64550500D01*
X60316343Y-64550500D01*
X60316443Y-64550500D01*
X60320943Y-64550500D01*
X61998560Y-64550500D01*
X62065599Y-64570185D01*
X62111354Y-64622989D01*
X62114742Y-64631167D01*
X62156202Y-64742328D01*
X62156206Y-64742335D01*
X62242452Y-64857544D01*
X62242455Y-64857547D01*
X62357664Y-64943793D01*
X62357671Y-64943797D01*
X62492517Y-64994091D01*
X62492516Y-64994091D01*
X62499444Y-64994835D01*
X62552127Y-65000500D01*
X64447872Y-65000499D01*
X64507483Y-64994091D01*
X64642331Y-64943796D01*
X64757546Y-64857546D01*
X64843796Y-64742331D01*
X64894091Y-64607483D01*
X64900500Y-64547873D01*
X64900499Y-63547844D01*
X72600000Y-63547844D01*
X72606401Y-63607372D01*
X72606403Y-63607379D01*
X72656645Y-63742086D01*
X72656649Y-63742093D01*
X72742809Y-63857187D01*
X72742812Y-63857190D01*
X72857906Y-63943350D01*
X72857913Y-63943354D01*
X72992620Y-63993596D01*
X72992627Y-63993598D01*
X73052155Y-63999999D01*
X73052172Y-64000000D01*
X73750000Y-64000000D01*
X74250000Y-64000000D01*
X74947828Y-64000000D01*
X74947844Y-63999999D01*
X75007372Y-63993598D01*
X75007379Y-63993596D01*
X75142086Y-63943354D01*
X75142093Y-63943350D01*
X75257187Y-63857190D01*
X75257190Y-63857187D01*
X75343350Y-63742093D01*
X75343354Y-63742086D01*
X75393596Y-63607379D01*
X75393598Y-63607372D01*
X75399999Y-63547844D01*
X78800000Y-63547844D01*
X78806401Y-63607372D01*
X78806403Y-63607379D01*
X78856645Y-63742086D01*
X78856649Y-63742093D01*
X78942809Y-63857187D01*
X78942812Y-63857190D01*
X79057906Y-63943350D01*
X79057913Y-63943354D01*
X79192620Y-63993596D01*
X79192627Y-63993598D01*
X79252155Y-63999999D01*
X79252172Y-64000000D01*
X79950000Y-64000000D01*
X80450000Y-64000000D01*
X81147828Y-64000000D01*
X81147844Y-63999999D01*
X81207372Y-63993598D01*
X81207379Y-63993596D01*
X81342086Y-63943354D01*
X81342093Y-63943350D01*
X81457187Y-63857190D01*
X81457190Y-63857187D01*
X81543350Y-63742093D01*
X81543354Y-63742086D01*
X81593596Y-63607379D01*
X81593598Y-63607372D01*
X81599999Y-63547844D01*
X81600000Y-63547827D01*
X81600000Y-63200000D01*
X80450000Y-63200000D01*
X80450000Y-64000000D01*
X79950000Y-64000000D01*
X79950000Y-63200000D01*
X78800000Y-63200000D01*
X78800000Y-63547844D01*
X75399999Y-63547844D01*
X75400000Y-63547827D01*
X75400000Y-63200000D01*
X74250000Y-63200000D01*
X74250000Y-64000000D01*
X73750000Y-64000000D01*
X73750000Y-63200000D01*
X72600000Y-63200000D01*
X72600000Y-63547844D01*
X64900499Y-63547844D01*
X64900499Y-63352128D01*
X64894091Y-63292517D01*
X64885257Y-63268833D01*
X64856590Y-63191971D01*
X64856589Y-63191969D01*
X64843798Y-63157673D01*
X64843793Y-63157664D01*
X64757547Y-63042455D01*
X64757544Y-63042452D01*
X64642335Y-62956206D01*
X64642328Y-62956202D01*
X64507482Y-62905908D01*
X64507483Y-62905908D01*
X64447883Y-62899501D01*
X64447881Y-62899500D01*
X64447873Y-62899500D01*
X64447864Y-62899500D01*
X62552129Y-62899500D01*
X62552123Y-62899501D01*
X62492516Y-62905908D01*
X62357671Y-62956202D01*
X62357664Y-62956206D01*
X62242455Y-63042452D01*
X62242452Y-63042455D01*
X62156206Y-63157664D01*
X62156202Y-63157671D01*
X62114742Y-63268833D01*
X62072871Y-63324767D01*
X62007407Y-63349184D01*
X61998560Y-63349500D01*
X58801440Y-63349500D01*
X58734401Y-63329815D01*
X58688646Y-63277011D01*
X58685258Y-63268833D01*
X58643797Y-63157671D01*
X58643793Y-63157664D01*
X58557547Y-63042455D01*
X58557544Y-63042452D01*
X58442335Y-62956206D01*
X58442328Y-62956202D01*
X58307482Y-62905908D01*
X58307483Y-62905908D01*
X58247883Y-62899501D01*
X58247881Y-62899500D01*
X58247873Y-62899500D01*
X58247864Y-62899500D01*
X56352129Y-62899500D01*
X56352123Y-62899501D01*
X56292516Y-62905908D01*
X56157671Y-62956202D01*
X56157664Y-62956206D01*
X56042455Y-63042452D01*
X56042452Y-63042455D01*
X55956206Y-63157664D01*
X55956202Y-63157671D01*
X55905908Y-63292516D01*
X55900718Y-63340797D01*
X55873980Y-63405348D01*
X55839429Y-63434928D01*
X55779587Y-63469477D01*
X55779582Y-63469481D01*
X55588583Y-63660481D01*
X55527260Y-63693966D01*
X55500902Y-63696800D01*
X51299500Y-63696800D01*
X51232461Y-63677115D01*
X51186706Y-63624311D01*
X51175500Y-63572800D01*
X51175500Y-63529313D01*
X51175499Y-63529298D01*
X51172598Y-63492432D01*
X51172597Y-63492426D01*
X51131836Y-63352128D01*
X51126744Y-63334602D01*
X51095020Y-63280960D01*
X51077840Y-63213237D01*
X51100000Y-63146975D01*
X51114067Y-63130166D01*
X51892078Y-62352155D01*
X72600000Y-62352155D01*
X72600000Y-62700000D01*
X73750000Y-62700000D01*
X74250000Y-62700000D01*
X75400000Y-62700000D01*
X75400000Y-62352172D01*
X75399999Y-62352155D01*
X78800000Y-62352155D01*
X78800000Y-62700000D01*
X79950000Y-62700000D01*
X80450000Y-62700000D01*
X81600000Y-62700000D01*
X81600000Y-62352172D01*
X81599999Y-62352155D01*
X81593598Y-62292627D01*
X81593596Y-62292620D01*
X81543354Y-62157913D01*
X81543350Y-62157906D01*
X81457190Y-62042812D01*
X81457187Y-62042809D01*
X81342093Y-61956649D01*
X81342086Y-61956645D01*
X81207379Y-61906403D01*
X81207372Y-61906401D01*
X81147844Y-61900000D01*
X80450000Y-61900000D01*
X80450000Y-62700000D01*
X79950000Y-62700000D01*
X79950000Y-61900000D01*
X79252155Y-61900000D01*
X79192627Y-61906401D01*
X79192620Y-61906403D01*
X79057913Y-61956645D01*
X79057906Y-61956649D01*
X78942812Y-62042809D01*
X78942809Y-62042812D01*
X78856649Y-62157906D01*
X78856645Y-62157913D01*
X78806403Y-62292620D01*
X78806401Y-62292627D01*
X78800000Y-62352155D01*
X75399999Y-62352155D01*
X75393598Y-62292627D01*
X75393596Y-62292620D01*
X75343354Y-62157913D01*
X75343350Y-62157906D01*
X75257190Y-62042812D01*
X75257187Y-62042809D01*
X75142093Y-61956649D01*
X75142086Y-61956645D01*
X75007379Y-61906403D01*
X75007372Y-61906401D01*
X74947844Y-61900000D01*
X74250000Y-61900000D01*
X74250000Y-62700000D01*
X73750000Y-62700000D01*
X73750000Y-61900000D01*
X73052155Y-61900000D01*
X72992627Y-61906401D01*
X72992620Y-61906403D01*
X72857913Y-61956645D01*
X72857906Y-61956649D01*
X72742812Y-62042809D01*
X72742809Y-62042812D01*
X72656649Y-62157906D01*
X72656645Y-62157913D01*
X72606403Y-62292620D01*
X72606401Y-62292627D01*
X72600000Y-62352155D01*
X51892078Y-62352155D01*
X54357416Y-59886819D01*
X54418739Y-59853334D01*
X54445097Y-59850500D01*
X72498560Y-59850500D01*
X72565599Y-59870185D01*
X72611354Y-59922989D01*
X72614742Y-59931167D01*
X72656202Y-60042328D01*
X72656206Y-60042335D01*
X72742452Y-60157544D01*
X72742455Y-60157547D01*
X72857664Y-60243793D01*
X72857671Y-60243797D01*
X72992517Y-60294091D01*
X72992516Y-60294091D01*
X72999444Y-60294835D01*
X73052127Y-60300500D01*
X74947872Y-60300499D01*
X75007483Y-60294091D01*
X75142331Y-60243796D01*
X75257546Y-60157546D01*
X75343796Y-60042331D01*
X75351149Y-60022615D01*
X75385258Y-59931167D01*
X75427129Y-59875233D01*
X75492593Y-59850816D01*
X75501440Y-59850500D01*
X78698560Y-59850500D01*
X78765599Y-59870185D01*
X78811354Y-59922989D01*
X78814742Y-59931167D01*
X78856202Y-60042328D01*
X78856206Y-60042335D01*
X78942452Y-60157544D01*
X78942455Y-60157547D01*
X79057664Y-60243793D01*
X79057671Y-60243797D01*
X79192517Y-60294091D01*
X79192516Y-60294091D01*
X79199444Y-60294835D01*
X79252127Y-60300500D01*
X81147872Y-60300499D01*
X81207483Y-60294091D01*
X81342331Y-60243796D01*
X81457546Y-60157546D01*
X81543796Y-60042331D01*
X81594091Y-59907483D01*
X81600500Y-59847873D01*
X81600499Y-58652128D01*
X81594091Y-58592517D01*
X81591966Y-58586820D01*
X81543797Y-58457671D01*
X81543793Y-58457664D01*
X81457547Y-58342455D01*
X81457544Y-58342452D01*
X81342335Y-58256206D01*
X81342328Y-58256202D01*
X81207482Y-58205908D01*
X81207483Y-58205908D01*
X81147883Y-58199501D01*
X81147881Y-58199500D01*
X81147873Y-58199500D01*
X81147864Y-58199500D01*
X79252129Y-58199500D01*
X79252123Y-58199501D01*
X79192516Y-58205908D01*
X79057671Y-58256202D01*
X79057664Y-58256206D01*
X78942455Y-58342452D01*
X78942452Y-58342455D01*
X78856206Y-58457664D01*
X78856202Y-58457671D01*
X78814742Y-58568833D01*
X78772871Y-58624767D01*
X78707407Y-58649184D01*
X78698560Y-58649500D01*
X75501440Y-58649500D01*
X75434401Y-58629815D01*
X75388646Y-58577011D01*
X75385258Y-58568833D01*
X75343797Y-58457671D01*
X75343793Y-58457664D01*
X75257547Y-58342455D01*
X75257544Y-58342452D01*
X75142335Y-58256206D01*
X75142328Y-58256202D01*
X75007482Y-58205908D01*
X75007483Y-58205908D01*
X74947883Y-58199501D01*
X74947881Y-58199500D01*
X74947873Y-58199500D01*
X74947864Y-58199500D01*
X73052129Y-58199500D01*
X73052123Y-58199501D01*
X72992516Y-58205908D01*
X72857671Y-58256202D01*
X72857664Y-58256206D01*
X72742455Y-58342452D01*
X72742452Y-58342455D01*
X72656206Y-58457664D01*
X72656202Y-58457671D01*
X72614742Y-58568833D01*
X72572871Y-58624767D01*
X72507407Y-58649184D01*
X72498560Y-58649500D01*
X54231669Y-58649500D01*
X54231653Y-58649499D01*
X54224057Y-58649499D01*
X54065943Y-58649499D01*
X53986010Y-58670917D01*
X53913216Y-58690422D01*
X53880355Y-58709395D01*
X53880354Y-58709394D01*
X53776287Y-58769477D01*
X53776282Y-58769481D01*
X53664478Y-58881286D01*
X49637584Y-62908181D01*
X49576261Y-62941666D01*
X49549903Y-62944500D01*
X48709298Y-62944500D01*
X48672432Y-62947401D01*
X48672426Y-62947402D01*
X48514606Y-62993254D01*
X48514603Y-62993255D01*
X48373137Y-63076917D01*
X48373129Y-63076923D01*
X48256923Y-63193129D01*
X48256917Y-63193137D01*
X48173255Y-63334603D01*
X48173254Y-63334606D01*
X48127402Y-63492426D01*
X48127401Y-63492432D01*
X48124500Y-63529298D01*
X48124500Y-63960701D01*
X48127401Y-63997563D01*
X48128540Y-64003796D01*
X48127342Y-64004014D01*
X48127323Y-64010720D01*
X48131967Y-64023171D01*
X48127222Y-64044980D01*
X48127157Y-64067301D01*
X48119608Y-64079981D01*
X48117115Y-64091444D01*
X48095965Y-64119699D01*
X47997586Y-64218078D01*
X47997585Y-64218078D01*
X47997584Y-64218079D01*
X47885781Y-64329882D01*
X47885775Y-64329890D01*
X47837747Y-64413079D01*
X47837747Y-64413080D01*
X47806723Y-64466814D01*
X47806723Y-64466815D01*
X47765799Y-64619543D01*
X47765799Y-64619545D01*
X47765799Y-64787646D01*
X47765800Y-64787659D01*
X47765800Y-65301930D01*
X47765799Y-65301948D01*
X47765799Y-65467654D01*
X47765798Y-65467654D01*
X47765799Y-65467657D01*
X47806723Y-65620385D01*
X47808603Y-65623642D01*
X47835658Y-65670500D01*
X47835659Y-65670504D01*
X47835660Y-65670504D01*
X47868259Y-65726969D01*
X47885779Y-65757314D01*
X47885781Y-65757317D01*
X48004649Y-65876185D01*
X48004655Y-65876190D01*
X48089423Y-65960958D01*
X48122908Y-66022281D01*
X48125360Y-66058359D01*
X48124501Y-66069278D01*
X48124500Y-66069313D01*
X48124500Y-66225500D01*
X48104815Y-66292539D01*
X48052011Y-66338294D01*
X48000500Y-66349500D01*
X41999500Y-66349500D01*
X41932461Y-66329815D01*
X41886706Y-66277011D01*
X41875500Y-66225500D01*
X41875500Y-66069313D01*
X41875499Y-66069298D01*
X41875497Y-66069278D01*
X41872598Y-66032431D01*
X41869649Y-66022281D01*
X41826745Y-65874606D01*
X41826744Y-65874603D01*
X41826744Y-65874602D01*
X41743081Y-65733135D01*
X41743078Y-65733132D01*
X41738298Y-65726969D01*
X41740750Y-65725066D01*
X41714155Y-65676421D01*
X41719104Y-65606726D01*
X41739940Y-65574304D01*
X41738298Y-65573031D01*
X41743075Y-65566870D01*
X41743081Y-65566865D01*
X41826744Y-65425398D01*
X41870751Y-65273927D01*
X41872597Y-65267573D01*
X41872598Y-65267567D01*
X41875499Y-65230701D01*
X41875500Y-65230694D01*
X41875500Y-64799306D01*
X41872598Y-64762431D01*
X41866758Y-64742331D01*
X41826745Y-64604606D01*
X41826744Y-64604603D01*
X41826744Y-64604602D01*
X41743081Y-64463135D01*
X41743078Y-64463132D01*
X41738298Y-64456969D01*
X41740750Y-64455066D01*
X41714155Y-64406421D01*
X41719104Y-64336726D01*
X41739940Y-64304304D01*
X41738298Y-64303031D01*
X41743075Y-64296870D01*
X41743081Y-64296865D01*
X41826744Y-64155398D01*
X41872598Y-63997569D01*
X41875500Y-63960694D01*
X41875500Y-63529306D01*
X41872598Y-63492431D01*
X41865930Y-63469481D01*
X41831836Y-63352128D01*
X41826744Y-63334602D01*
X41743081Y-63193135D01*
X41743079Y-63193133D01*
X41743076Y-63193129D01*
X41626870Y-63076923D01*
X41626862Y-63076917D01*
X41485396Y-62993255D01*
X41485393Y-62993254D01*
X41327573Y-62947402D01*
X41327567Y-62947401D01*
X41290701Y-62944500D01*
X41290694Y-62944500D01*
X40450098Y-62944500D01*
X40383059Y-62924815D01*
X40362417Y-62908181D01*
X35042590Y-57588355D01*
X35042588Y-57588352D01*
X34923717Y-57469481D01*
X34923716Y-57469480D01*
X34836904Y-57419360D01*
X34836904Y-57419359D01*
X34836900Y-57419358D01*
X34786785Y-57390423D01*
X34634057Y-57349499D01*
X34475943Y-57349499D01*
X34468347Y-57349499D01*
X34468331Y-57349500D01*
X32504935Y-57349500D01*
X32437896Y-57329815D01*
X32436090Y-57328633D01*
X32379179Y-57290606D01*
X32379172Y-57290602D01*
X32233501Y-57230264D01*
X32233489Y-57230261D01*
X32078845Y-57199500D01*
X32078842Y-57199500D01*
X31921158Y-57199500D01*
X31921155Y-57199500D01*
X31766510Y-57230261D01*
X31766498Y-57230264D01*
X31620827Y-57290602D01*
X31620820Y-57290606D01*
X31591928Y-57309911D01*
X31563955Y-57328602D01*
X31497279Y-57349480D01*
X31495065Y-57349500D01*
X24301440Y-57349500D01*
X24234401Y-57329815D01*
X24188646Y-57277011D01*
X24185258Y-57268833D01*
X24143797Y-57157671D01*
X24143793Y-57157664D01*
X24057547Y-57042455D01*
X24057544Y-57042452D01*
X23942335Y-56956206D01*
X23942328Y-56956202D01*
X23807482Y-56905908D01*
X23807483Y-56905908D01*
X23747883Y-56899501D01*
X23747881Y-56899500D01*
X23747873Y-56899500D01*
X23747864Y-56899500D01*
X21852129Y-56899500D01*
X21852123Y-56899501D01*
X21792516Y-56905908D01*
X21657671Y-56956202D01*
X21657664Y-56956206D01*
X21542455Y-57042452D01*
X21542452Y-57042455D01*
X21456206Y-57157664D01*
X21456202Y-57157671D01*
X21414742Y-57268833D01*
X21372871Y-57324767D01*
X21307407Y-57349184D01*
X21298560Y-57349500D01*
X18101440Y-57349500D01*
X18034401Y-57329815D01*
X17988646Y-57277011D01*
X17985258Y-57268833D01*
X17943797Y-57157671D01*
X17943793Y-57157664D01*
X17857547Y-57042455D01*
X17857544Y-57042452D01*
X17742335Y-56956206D01*
X17742328Y-56956202D01*
X17607482Y-56905908D01*
X17607483Y-56905908D01*
X17547883Y-56899501D01*
X17547881Y-56899500D01*
X17547873Y-56899500D01*
X17547864Y-56899500D01*
X15652129Y-56899500D01*
X15652123Y-56899501D01*
X15592516Y-56905908D01*
X15457671Y-56956202D01*
X15457664Y-56956206D01*
X15342455Y-57042452D01*
X15342452Y-57042455D01*
X15256206Y-57157664D01*
X15256202Y-57157671D01*
X15205908Y-57292517D01*
X15199501Y-57352116D01*
X15199500Y-57352135D01*
X5361879Y-57352135D01*
X5542656Y-57220793D01*
X5720793Y-57042656D01*
X5868870Y-56838845D01*
X5983241Y-56614379D01*
X6061090Y-56374785D01*
X6100500Y-56125962D01*
X6100500Y-55874038D01*
X63399500Y-55874038D01*
X63399500Y-56125961D01*
X63438910Y-56374785D01*
X63516760Y-56614383D01*
X63631132Y-56838848D01*
X63779201Y-57042649D01*
X63779205Y-57042654D01*
X63957345Y-57220794D01*
X63957350Y-57220798D01*
X64100452Y-57324767D01*
X64161155Y-57368870D01*
X64304184Y-57441747D01*
X64385616Y-57483239D01*
X64385618Y-57483239D01*
X64385621Y-57483241D01*
X64625215Y-57561090D01*
X64874038Y-57600500D01*
X64874039Y-57600500D01*
X65125961Y-57600500D01*
X65125962Y-57600500D01*
X65374785Y-57561090D01*
X65614379Y-57483241D01*
X65838845Y-57368870D01*
X66042656Y-57220793D01*
X66220793Y-57042656D01*
X66368870Y-56838845D01*
X66483241Y-56614379D01*
X66561090Y-56374785D01*
X66600500Y-56125962D01*
X66600500Y-55874038D01*
X66561090Y-55625215D01*
X66483241Y-55385621D01*
X66483239Y-55385618D01*
X66483239Y-55385616D01*
X66441747Y-55304184D01*
X66368870Y-55161155D01*
X66306179Y-55074868D01*
X66220798Y-54957350D01*
X66220794Y-54957345D01*
X66042654Y-54779205D01*
X66042649Y-54779201D01*
X65838848Y-54631132D01*
X65838847Y-54631131D01*
X65838845Y-54631130D01*
X65768747Y-54595413D01*
X65614383Y-54516760D01*
X65374785Y-54438910D01*
X65125962Y-54399500D01*
X64874038Y-54399500D01*
X64749626Y-54419205D01*
X64625214Y-54438910D01*
X64385616Y-54516760D01*
X64161151Y-54631132D01*
X63957350Y-54779201D01*
X63957345Y-54779205D01*
X63779205Y-54957345D01*
X63779201Y-54957350D01*
X63631132Y-55161151D01*
X63516760Y-55385616D01*
X63438910Y-55625214D01*
X63399500Y-55874038D01*
X6100500Y-55874038D01*
X6061090Y-55625215D01*
X5983241Y-55385621D01*
X5983239Y-55385618D01*
X5983239Y-55385616D01*
X5941747Y-55304184D01*
X5868870Y-55161155D01*
X5806179Y-55074868D01*
X5720798Y-54957350D01*
X5720794Y-54957345D01*
X5542654Y-54779205D01*
X5542649Y-54779201D01*
X5338848Y-54631132D01*
X5338847Y-54631131D01*
X5338845Y-54631130D01*
X5268747Y-54595413D01*
X5114383Y-54516760D01*
X4874785Y-54438910D01*
X4625962Y-54399500D01*
X4374038Y-54399500D01*
X4249626Y-54419205D01*
X4125214Y-54438910D01*
X3885616Y-54516760D01*
X3661151Y-54631132D01*
X3457350Y-54779201D01*
X3457345Y-54779205D01*
X3279205Y-54957345D01*
X3224818Y-55032203D01*
X3169488Y-55074868D01*
X3099874Y-55080847D01*
X3038079Y-55048241D01*
X3003722Y-54987402D01*
X3000500Y-54959317D01*
X3000500Y-53624500D01*
X3020185Y-53557461D01*
X3072989Y-53511706D01*
X3124500Y-53500500D01*
X82375500Y-53500500D01*
X82442539Y-53520185D01*
G37*
%TD.AperFunction*%
%TD*%
D16*
X14852000Y-68784400D03*
X44907800Y-69437500D03*
X66661400Y-66454100D03*
X10000000Y-78000000D03*
X10000000Y-58000000D03*
X10000000Y-86000000D03*
X50000000Y-86000000D03*
X52000000Y-58000000D03*
X32000000Y-86000000D03*
X22789300Y-82480900D03*
X24192700Y-80692700D03*
X47929000Y-73570600D03*
X24978000Y-77195200D03*
X55000000Y-78000000D03*
X32000000Y-58000000D03*
X51412000Y-74998800D03*
X43262800Y-76685400D03*
X42439200Y-76167700D03*
X51729200Y-73574000D03*
D17*
X18500000Y-87980000D03*
X21500000Y-87980000D03*
X65000000Y-56000000D03*
X66000000Y-81000000D03*
X56500000Y-87980000D03*
X59500000Y-87980000D03*
X4500000Y-56000000D03*
X4500000Y-88000000D03*
M02*
