%TF.GenerationSoftware,KiCad,Pcbnew,10.0.4*%
%TF.CreationDate,2026-07-31T16:10:00+02:00*%
%TF.ProjectId,pocket_card_controller,706f636b-6574-45f6-9361-72645f636f6e,rev?*%
%TF.SameCoordinates,Original*%
%TF.FileFunction,Copper,L1,Top*%
%TF.FilePolarity,Positive*%
%FSLAX46Y46*%
G04 Gerber Fmt 4.6, Leading zero omitted, Abs format (unit mm)*
G04 Created by KiCad (PCBNEW 10.0.4) date 2026-07-31 16:10:00*
%MOMM*%
%LPD*%
G01*
G04 APERTURE LIST*
G04 Aperture macros list*
%AMRoundRect*
0 Rectangle with rounded corners*
0 $1 Rounding radius*
0 $2 $3 $4 $5 $6 $7 $8 $9 X,Y pos of 4 corners*
0 Add a 4 corners polygon primitive as box body*
4,1,4,$2,$3,$4,$5,$6,$7,$8,$9,$2,$3,0*
0 Add four circle primitives for the rounded corners*
1,1,$1+$1,$2,$3*
1,1,$1+$1,$4,$5*
1,1,$1+$1,$6,$7*
1,1,$1+$1,$8,$9*
0 Add four rect primitives between the rounded corners*
20,1,$1+$1,$2,$3,$4,$5,0*
20,1,$1+$1,$4,$5,$6,$7,0*
20,1,$1+$1,$6,$7,$8,$9,0*
20,1,$1+$1,$8,$9,$2,$3,0*%
G04 Aperture macros list end*
%TA.AperFunction,SMDPad,CuDef*%
%ADD10R,1.550000X1.000000*%
%TD*%
%TA.AperFunction,SMDPad,CuDef*%
%ADD11R,1.000000X0.800000*%
%TD*%
%TA.AperFunction,SMDPad,CuDef*%
%ADD12R,0.700000X1.500000*%
%TD*%
%TA.AperFunction,SMDPad,CuDef*%
%ADD13RoundRect,0.150000X0.150000X0.700000X-0.150000X0.700000X-0.150000X-0.700000X0.150000X-0.700000X0*%
%TD*%
%TA.AperFunction,SMDPad,CuDef*%
%ADD14RoundRect,0.250000X0.250000X1.100000X-0.250000X1.100000X-0.250000X-1.100000X0.250000X-1.100000X0*%
%TD*%
%TA.AperFunction,SMDPad,CuDef*%
%ADD15C,1.500000*%
%TD*%
%TA.AperFunction,SMDPad,CuDef*%
%ADD16RoundRect,0.150000X0.150000X-0.875000X0.150000X0.875000X-0.150000X0.875000X-0.150000X-0.875000X0*%
%TD*%
G04 APERTURE END LIST*
D10*
%TO.P,SW_RIGHT,1*%
%TO.N,N/C*%
X26075000Y-67950000D03*
X31325000Y-67950000D03*
%TO.P,SW_RIGHT,2*%
X26075000Y-69650000D03*
X31325000Y-69650000D03*
%TD*%
D11*
%TO.P,SW_MUTE,*%
%TO.N,*%
X62350000Y-87720000D03*
X62350000Y-89930000D03*
X69650000Y-87720000D03*
X69650000Y-89930000D03*
D12*
%TO.P,SW_MUTE,1*%
%TO.N,N/C*%
X63750000Y-87070000D03*
%TO.P,SW_MUTE,2*%
X66750000Y-87070000D03*
%TO.P,SW_MUTE,3*%
X68250000Y-87070000D03*
%TD*%
D10*
%TO.P,SW_UNDO,1*%
%TO.N,N/C*%
X57775000Y-64950000D03*
X63025000Y-64950000D03*
%TO.P,SW_UNDO,2*%
X57775000Y-66650000D03*
X63025000Y-66650000D03*
%TD*%
D13*
%TO.P,J_I2C,1*%
%TO.N,N/C*%
X15875000Y-56350000D03*
%TO.P,J_I2C,2*%
X14625000Y-56350000D03*
%TO.P,J_I2C,3*%
X13375000Y-56350000D03*
%TO.P,J_I2C,4*%
X12125000Y-56350000D03*
D14*
%TO.P,J_I2C,MP*%
X17725000Y-53150000D03*
X10275000Y-53150000D03*
%TD*%
D10*
%TO.P,SW_MENU,1*%
%TO.N,N/C*%
X36975000Y-84550000D03*
X42225000Y-84550000D03*
%TO.P,SW_MENU,2*%
X36975000Y-86250000D03*
X42225000Y-86250000D03*
%TD*%
D13*
%TO.P,J_BAT,1*%
%TO.N,N/C*%
X44625000Y-56350000D03*
%TO.P,J_BAT,2*%
X43375000Y-56350000D03*
D14*
%TO.P,J_BAT,MP*%
X46475000Y-53150000D03*
X41525000Y-53150000D03*
%TD*%
D15*
%TO.P,TP_GND,1*%
%TO.N,N/C*%
X67000000Y-58500000D03*
%TD*%
D10*
%TO.P,SW_ACTION,1*%
%TO.N,N/C*%
X74475000Y-60250000D03*
X79725000Y-60250000D03*
%TO.P,SW_ACTION,2*%
X74475000Y-61950000D03*
X79725000Y-61950000D03*
%TD*%
%TO.P,SW_UP,1*%
%TO.N,N/C*%
X17075000Y-58950000D03*
X22325000Y-58950000D03*
%TO.P,SW_UP,2*%
X17075000Y-60650000D03*
X22325000Y-60650000D03*
%TD*%
D15*
%TO.P,TP_INT,1*%
%TO.N,N/C*%
X76000000Y-58500000D03*
%TD*%
D16*
%TO.P,U1,1*%
%TO.N,N/C*%
X21745000Y-66650000D03*
%TO.P,U1,2*%
X23015000Y-66650000D03*
%TO.P,U1,3*%
X24285000Y-66650000D03*
%TO.P,U1,4*%
X25555000Y-66650000D03*
%TO.P,U1,5*%
X26825000Y-66650000D03*
%TO.P,U1,6*%
X28095000Y-66650000D03*
%TO.P,U1,7*%
X29365000Y-66650000D03*
%TO.P,U1,8*%
X30635000Y-66650000D03*
%TO.P,U1,9*%
X31905000Y-66650000D03*
%TO.P,U1,10*%
X33175000Y-66650000D03*
%TO.P,U1,11*%
X34445000Y-66650000D03*
%TO.P,U1,12*%
X35715000Y-66650000D03*
%TO.P,U1,13*%
X36985000Y-66650000D03*
%TO.P,U1,14*%
X38255000Y-66650000D03*
%TO.P,U1,15*%
X38255000Y-57350000D03*
%TO.P,U1,16*%
X36985000Y-57350000D03*
%TO.P,U1,17*%
X35715000Y-57350000D03*
%TO.P,U1,18*%
X34445000Y-57350000D03*
%TO.P,U1,19*%
X33175000Y-57350000D03*
%TO.P,U1,20*%
X31905000Y-57350000D03*
%TO.P,U1,21*%
X30635000Y-57350000D03*
%TO.P,U1,22*%
X29365000Y-57350000D03*
%TO.P,U1,23*%
X28095000Y-57350000D03*
%TO.P,U1,24*%
X26825000Y-57350000D03*
%TO.P,U1,25*%
X25555000Y-57350000D03*
%TO.P,U1,26*%
X24285000Y-57350000D03*
%TO.P,U1,27*%
X23015000Y-57350000D03*
%TO.P,U1,28*%
X21745000Y-57350000D03*
%TD*%
D15*
%TO.P,TP_SDA,1*%
%TO.N,N/C*%
X70000000Y-58500000D03*
%TD*%
D13*
%TO.P,J_SPK,1*%
%TO.N,N/C*%
X30625000Y-56350000D03*
%TO.P,J_SPK,2*%
X29375000Y-56350000D03*
D14*
%TO.P,J_SPK,MP*%
X32475000Y-53150000D03*
X27525000Y-53150000D03*
%TD*%
D15*
%TO.P,TP_3V3,1*%
%TO.N,N/C*%
X64000000Y-58500000D03*
%TD*%
D10*
%TO.P,SW_DOWN,1*%
%TO.N,N/C*%
X17075000Y-76950000D03*
X22325000Y-76950000D03*
%TO.P,SW_DOWN,2*%
X17075000Y-78650000D03*
X22325000Y-78650000D03*
%TD*%
D11*
%TO.P,SW_PWR,*%
%TO.N,*%
X16350000Y-87720000D03*
X16350000Y-89930000D03*
X23650000Y-87720000D03*
X23650000Y-89930000D03*
D12*
%TO.P,SW_PWR,1*%
%TO.N,N/C*%
X17750000Y-87070000D03*
%TO.P,SW_PWR,2*%
X20750000Y-87070000D03*
%TO.P,SW_PWR,3*%
X22250000Y-87070000D03*
%TD*%
D10*
%TO.P,SW_LEFT,1*%
%TO.N,N/C*%
X8075000Y-67950000D03*
X13325000Y-67950000D03*
%TO.P,SW_LEFT,2*%
X8075000Y-69650000D03*
X13325000Y-69650000D03*
%TD*%
%TO.P,SW_RESET,1*%
%TO.N,N/C*%
X53875000Y-80750000D03*
X59125000Y-80750000D03*
%TO.P,SW_RESET,2*%
X53875000Y-82450000D03*
X59125000Y-82450000D03*
%TD*%
D15*
%TO.P,TP_SCL,1*%
%TO.N,N/C*%
X73000000Y-58500000D03*
%TD*%
M02*
