M48
; DRILL file KiCad 10.0.4 date 2026-08-01T20:17:52
; FORMAT={-:-/ absolute / metric / decimal}
; #@! TF.CreationDate,2026-08-01T20:17:52+02:00
; #@! TF.GenerationSoftware,Kicad,Pcbnew,10.0.4
; #@! TF.FileFunction,MixedPlating,1,2
FMAT,2
METRIC
; #@! TA.AperFunction,Plated,PTH,ViaDrill
T1C0.300
; #@! TA.AperFunction,NonPlated,NPTH,ComponentDrill
T2C0.900
; #@! TA.AperFunction,NonPlated,NPTH,ComponentDrill
T3C2.700
%
G90
G05
T1
X10.0Y-58.0
X10.0Y-78.0
X10.0Y-86.0
X14.852Y-68.784
X22.789Y-82.481
X24.193Y-80.693
X24.978Y-77.195
X32.0Y-58.0
X32.0Y-86.0
X42.439Y-76.168
X43.263Y-76.685
X44.908Y-69.438
X47.929Y-73.571
X50.0Y-86.0
X51.412Y-74.999
X51.729Y-73.574
X52.0Y-58.0
X55.0Y-78.0
X66.661Y-66.454
T2
X18.5Y-87.98
X21.5Y-87.98
X56.5Y-87.98
X59.5Y-87.98
T3
X4.5Y-56.0
X4.5Y-88.0
X65.0Y-56.0
X66.0Y-81.0
M30
