%TF.GenerationSoftware,KiCad,Pcbnew,10.0.4*%
%TF.CreationDate,2026-08-02T19:12:27+02:00*%
%TF.ProjectId,pocket_card_controller,706f636b-6574-45f6-9361-72645f636f6e,rev?*%
%TF.SameCoordinates,Original*%
%TF.FileFunction,AssemblyDrawing,Top*%
%FSLAX46Y46*%
G04 Gerber Fmt 4.6, Leading zero omitted, Abs format (unit mm)*
G04 Created by KiCad (PCBNEW 10.0.4) date 2026-08-02 19:12:27*
%MOMM*%
%LPD*%
G01*
G04 APERTURE LIST*
%ADD10C,0.060000*%
%ADD11C,0.150000*%
%ADD12C,0.100000*%
G04 APERTURE END LIST*
D10*
X27347619Y-68962880D02*
X27404762Y-68981927D01*
X27404762Y-68981927D02*
X27500000Y-68981927D01*
X27500000Y-68981927D02*
X27538095Y-68962880D01*
X27538095Y-68962880D02*
X27557143Y-68943832D01*
X27557143Y-68943832D02*
X27576190Y-68905737D01*
X27576190Y-68905737D02*
X27576190Y-68867641D01*
X27576190Y-68867641D02*
X27557143Y-68829546D01*
X27557143Y-68829546D02*
X27538095Y-68810499D01*
X27538095Y-68810499D02*
X27500000Y-68791451D01*
X27500000Y-68791451D02*
X27423809Y-68772403D01*
X27423809Y-68772403D02*
X27385714Y-68753356D01*
X27385714Y-68753356D02*
X27366667Y-68734308D01*
X27366667Y-68734308D02*
X27347619Y-68696213D01*
X27347619Y-68696213D02*
X27347619Y-68658118D01*
X27347619Y-68658118D02*
X27366667Y-68620022D01*
X27366667Y-68620022D02*
X27385714Y-68600975D01*
X27385714Y-68600975D02*
X27423809Y-68581927D01*
X27423809Y-68581927D02*
X27519048Y-68581927D01*
X27519048Y-68581927D02*
X27576190Y-68600975D01*
X27709523Y-68581927D02*
X27804761Y-68981927D01*
X27804761Y-68981927D02*
X27880952Y-68696213D01*
X27880952Y-68696213D02*
X27957142Y-68981927D01*
X27957142Y-68981927D02*
X28052381Y-68581927D01*
X28109524Y-69020022D02*
X28414285Y-69020022D01*
X28738095Y-68981927D02*
X28604762Y-68791451D01*
X28509524Y-68981927D02*
X28509524Y-68581927D01*
X28509524Y-68581927D02*
X28661905Y-68581927D01*
X28661905Y-68581927D02*
X28700000Y-68600975D01*
X28700000Y-68600975D02*
X28719047Y-68620022D01*
X28719047Y-68620022D02*
X28738095Y-68658118D01*
X28738095Y-68658118D02*
X28738095Y-68715260D01*
X28738095Y-68715260D02*
X28719047Y-68753356D01*
X28719047Y-68753356D02*
X28700000Y-68772403D01*
X28700000Y-68772403D02*
X28661905Y-68791451D01*
X28661905Y-68791451D02*
X28509524Y-68791451D01*
X28909524Y-68981927D02*
X28909524Y-68581927D01*
X29309523Y-68600975D02*
X29271428Y-68581927D01*
X29271428Y-68581927D02*
X29214285Y-68581927D01*
X29214285Y-68581927D02*
X29157142Y-68600975D01*
X29157142Y-68600975D02*
X29119047Y-68639070D01*
X29119047Y-68639070D02*
X29100000Y-68677165D01*
X29100000Y-68677165D02*
X29080952Y-68753356D01*
X29080952Y-68753356D02*
X29080952Y-68810499D01*
X29080952Y-68810499D02*
X29100000Y-68886689D01*
X29100000Y-68886689D02*
X29119047Y-68924784D01*
X29119047Y-68924784D02*
X29157142Y-68962880D01*
X29157142Y-68962880D02*
X29214285Y-68981927D01*
X29214285Y-68981927D02*
X29252381Y-68981927D01*
X29252381Y-68981927D02*
X29309523Y-68962880D01*
X29309523Y-68962880D02*
X29328571Y-68943832D01*
X29328571Y-68943832D02*
X29328571Y-68810499D01*
X29328571Y-68810499D02*
X29252381Y-68810499D01*
X29500000Y-68981927D02*
X29500000Y-68581927D01*
X29500000Y-68772403D02*
X29728571Y-68772403D01*
X29728571Y-68981927D02*
X29728571Y-68581927D01*
X29861905Y-68581927D02*
X30090476Y-68581927D01*
X29976190Y-68981927D02*
X29976190Y-68581927D01*
D11*
X3738095Y-56454819D02*
X3738095Y-55454819D01*
X3738095Y-55931009D02*
X4309523Y-55931009D01*
X4309523Y-56454819D02*
X4309523Y-55454819D01*
X5309523Y-56454819D02*
X4738095Y-56454819D01*
X5023809Y-56454819D02*
X5023809Y-55454819D01*
X5023809Y-55454819D02*
X4928571Y-55597676D01*
X4928571Y-55597676D02*
X4833333Y-55692914D01*
X4833333Y-55692914D02*
X4738095Y-55740533D01*
D10*
X38276190Y-85562880D02*
X38333333Y-85581927D01*
X38333333Y-85581927D02*
X38428571Y-85581927D01*
X38428571Y-85581927D02*
X38466666Y-85562880D01*
X38466666Y-85562880D02*
X38485714Y-85543832D01*
X38485714Y-85543832D02*
X38504761Y-85505737D01*
X38504761Y-85505737D02*
X38504761Y-85467641D01*
X38504761Y-85467641D02*
X38485714Y-85429546D01*
X38485714Y-85429546D02*
X38466666Y-85410499D01*
X38466666Y-85410499D02*
X38428571Y-85391451D01*
X38428571Y-85391451D02*
X38352380Y-85372403D01*
X38352380Y-85372403D02*
X38314285Y-85353356D01*
X38314285Y-85353356D02*
X38295238Y-85334308D01*
X38295238Y-85334308D02*
X38276190Y-85296213D01*
X38276190Y-85296213D02*
X38276190Y-85258118D01*
X38276190Y-85258118D02*
X38295238Y-85220022D01*
X38295238Y-85220022D02*
X38314285Y-85200975D01*
X38314285Y-85200975D02*
X38352380Y-85181927D01*
X38352380Y-85181927D02*
X38447619Y-85181927D01*
X38447619Y-85181927D02*
X38504761Y-85200975D01*
X38638094Y-85181927D02*
X38733332Y-85581927D01*
X38733332Y-85581927D02*
X38809523Y-85296213D01*
X38809523Y-85296213D02*
X38885713Y-85581927D01*
X38885713Y-85581927D02*
X38980952Y-85181927D01*
X39038095Y-85620022D02*
X39342856Y-85620022D01*
X39438095Y-85581927D02*
X39438095Y-85181927D01*
X39438095Y-85181927D02*
X39571428Y-85467641D01*
X39571428Y-85467641D02*
X39704761Y-85181927D01*
X39704761Y-85181927D02*
X39704761Y-85581927D01*
X39895238Y-85372403D02*
X40028571Y-85372403D01*
X40085714Y-85581927D02*
X39895238Y-85581927D01*
X39895238Y-85581927D02*
X39895238Y-85181927D01*
X39895238Y-85181927D02*
X40085714Y-85181927D01*
X40257143Y-85581927D02*
X40257143Y-85181927D01*
X40257143Y-85181927D02*
X40485714Y-85581927D01*
X40485714Y-85581927D02*
X40485714Y-85181927D01*
X40676191Y-85181927D02*
X40676191Y-85505737D01*
X40676191Y-85505737D02*
X40695238Y-85543832D01*
X40695238Y-85543832D02*
X40714286Y-85562880D01*
X40714286Y-85562880D02*
X40752381Y-85581927D01*
X40752381Y-85581927D02*
X40828572Y-85581927D01*
X40828572Y-85581927D02*
X40866667Y-85562880D01*
X40866667Y-85562880D02*
X40885714Y-85543832D01*
X40885714Y-85543832D02*
X40904762Y-85505737D01*
X40904762Y-85505737D02*
X40904762Y-85181927D01*
D11*
X44238095Y-71454819D02*
X44238095Y-72264342D01*
X44238095Y-72264342D02*
X44285714Y-72359580D01*
X44285714Y-72359580D02*
X44333333Y-72407200D01*
X44333333Y-72407200D02*
X44428571Y-72454819D01*
X44428571Y-72454819D02*
X44619047Y-72454819D01*
X44619047Y-72454819D02*
X44714285Y-72407200D01*
X44714285Y-72407200D02*
X44761904Y-72359580D01*
X44761904Y-72359580D02*
X44809523Y-72264342D01*
X44809523Y-72264342D02*
X44809523Y-71454819D01*
X45809523Y-72454819D02*
X45238095Y-72454819D01*
X45523809Y-72454819D02*
X45523809Y-71454819D01*
X45523809Y-71454819D02*
X45428571Y-71597676D01*
X45428571Y-71597676D02*
X45333333Y-71692914D01*
X45333333Y-71692914D02*
X45238095Y-71740533D01*
X17190476Y-84857200D02*
X17333333Y-84904819D01*
X17333333Y-84904819D02*
X17571428Y-84904819D01*
X17571428Y-84904819D02*
X17666666Y-84857200D01*
X17666666Y-84857200D02*
X17714285Y-84809580D01*
X17714285Y-84809580D02*
X17761904Y-84714342D01*
X17761904Y-84714342D02*
X17761904Y-84619104D01*
X17761904Y-84619104D02*
X17714285Y-84523866D01*
X17714285Y-84523866D02*
X17666666Y-84476247D01*
X17666666Y-84476247D02*
X17571428Y-84428628D01*
X17571428Y-84428628D02*
X17380952Y-84381009D01*
X17380952Y-84381009D02*
X17285714Y-84333390D01*
X17285714Y-84333390D02*
X17238095Y-84285771D01*
X17238095Y-84285771D02*
X17190476Y-84190533D01*
X17190476Y-84190533D02*
X17190476Y-84095295D01*
X17190476Y-84095295D02*
X17238095Y-84000057D01*
X17238095Y-84000057D02*
X17285714Y-83952438D01*
X17285714Y-83952438D02*
X17380952Y-83904819D01*
X17380952Y-83904819D02*
X17619047Y-83904819D01*
X17619047Y-83904819D02*
X17761904Y-83952438D01*
X18095238Y-83904819D02*
X18333333Y-84904819D01*
X18333333Y-84904819D02*
X18523809Y-84190533D01*
X18523809Y-84190533D02*
X18714285Y-84904819D01*
X18714285Y-84904819D02*
X18952381Y-83904819D01*
X19095238Y-85000057D02*
X19857142Y-85000057D01*
X20095238Y-84904819D02*
X20095238Y-83904819D01*
X20095238Y-83904819D02*
X20476190Y-83904819D01*
X20476190Y-83904819D02*
X20571428Y-83952438D01*
X20571428Y-83952438D02*
X20619047Y-84000057D01*
X20619047Y-84000057D02*
X20666666Y-84095295D01*
X20666666Y-84095295D02*
X20666666Y-84238152D01*
X20666666Y-84238152D02*
X20619047Y-84333390D01*
X20619047Y-84333390D02*
X20571428Y-84381009D01*
X20571428Y-84381009D02*
X20476190Y-84428628D01*
X20476190Y-84428628D02*
X20095238Y-84428628D01*
X21000000Y-83904819D02*
X21238095Y-84904819D01*
X21238095Y-84904819D02*
X21428571Y-84190533D01*
X21428571Y-84190533D02*
X21619047Y-84904819D01*
X21619047Y-84904819D02*
X21857143Y-83904819D01*
X22809523Y-84904819D02*
X22476190Y-84428628D01*
X22238095Y-84904819D02*
X22238095Y-83904819D01*
X22238095Y-83904819D02*
X22619047Y-83904819D01*
X22619047Y-83904819D02*
X22714285Y-83952438D01*
X22714285Y-83952438D02*
X22761904Y-84000057D01*
X22761904Y-84000057D02*
X22809523Y-84095295D01*
X22809523Y-84095295D02*
X22809523Y-84238152D01*
X22809523Y-84238152D02*
X22761904Y-84333390D01*
X22761904Y-84333390D02*
X22714285Y-84381009D01*
X22714285Y-84381009D02*
X22619047Y-84428628D01*
X22619047Y-84428628D02*
X22238095Y-84428628D01*
X64238095Y-56454819D02*
X64238095Y-55454819D01*
X64238095Y-55931009D02*
X64809523Y-55931009D01*
X64809523Y-56454819D02*
X64809523Y-55454819D01*
X65238095Y-55550057D02*
X65285714Y-55502438D01*
X65285714Y-55502438D02*
X65380952Y-55454819D01*
X65380952Y-55454819D02*
X65619047Y-55454819D01*
X65619047Y-55454819D02*
X65714285Y-55502438D01*
X65714285Y-55502438D02*
X65761904Y-55550057D01*
X65761904Y-55550057D02*
X65809523Y-55645295D01*
X65809523Y-55645295D02*
X65809523Y-55740533D01*
X65809523Y-55740533D02*
X65761904Y-55883390D01*
X65761904Y-55883390D02*
X65190476Y-56454819D01*
X65190476Y-56454819D02*
X65809523Y-56454819D01*
X54833333Y-84857200D02*
X54976190Y-84904819D01*
X54976190Y-84904819D02*
X55214285Y-84904819D01*
X55214285Y-84904819D02*
X55309523Y-84857200D01*
X55309523Y-84857200D02*
X55357142Y-84809580D01*
X55357142Y-84809580D02*
X55404761Y-84714342D01*
X55404761Y-84714342D02*
X55404761Y-84619104D01*
X55404761Y-84619104D02*
X55357142Y-84523866D01*
X55357142Y-84523866D02*
X55309523Y-84476247D01*
X55309523Y-84476247D02*
X55214285Y-84428628D01*
X55214285Y-84428628D02*
X55023809Y-84381009D01*
X55023809Y-84381009D02*
X54928571Y-84333390D01*
X54928571Y-84333390D02*
X54880952Y-84285771D01*
X54880952Y-84285771D02*
X54833333Y-84190533D01*
X54833333Y-84190533D02*
X54833333Y-84095295D01*
X54833333Y-84095295D02*
X54880952Y-84000057D01*
X54880952Y-84000057D02*
X54928571Y-83952438D01*
X54928571Y-83952438D02*
X55023809Y-83904819D01*
X55023809Y-83904819D02*
X55261904Y-83904819D01*
X55261904Y-83904819D02*
X55404761Y-83952438D01*
X55738095Y-83904819D02*
X55976190Y-84904819D01*
X55976190Y-84904819D02*
X56166666Y-84190533D01*
X56166666Y-84190533D02*
X56357142Y-84904819D01*
X56357142Y-84904819D02*
X56595238Y-83904819D01*
X56738095Y-85000057D02*
X57499999Y-85000057D01*
X57738095Y-84904819D02*
X57738095Y-83904819D01*
X57738095Y-83904819D02*
X58071428Y-84619104D01*
X58071428Y-84619104D02*
X58404761Y-83904819D01*
X58404761Y-83904819D02*
X58404761Y-84904819D01*
X58880952Y-83904819D02*
X58880952Y-84714342D01*
X58880952Y-84714342D02*
X58928571Y-84809580D01*
X58928571Y-84809580D02*
X58976190Y-84857200D01*
X58976190Y-84857200D02*
X59071428Y-84904819D01*
X59071428Y-84904819D02*
X59261904Y-84904819D01*
X59261904Y-84904819D02*
X59357142Y-84857200D01*
X59357142Y-84857200D02*
X59404761Y-84809580D01*
X59404761Y-84809580D02*
X59452380Y-84714342D01*
X59452380Y-84714342D02*
X59452380Y-83904819D01*
X59785714Y-83904819D02*
X60357142Y-83904819D01*
X60071428Y-84904819D02*
X60071428Y-83904819D01*
X60690476Y-84381009D02*
X61023809Y-84381009D01*
X61166666Y-84904819D02*
X60690476Y-84904819D01*
X60690476Y-84904819D02*
X60690476Y-83904819D01*
X60690476Y-83904819D02*
X61166666Y-83904819D01*
D10*
X75566666Y-61262880D02*
X75623809Y-61281927D01*
X75623809Y-61281927D02*
X75719047Y-61281927D01*
X75719047Y-61281927D02*
X75757142Y-61262880D01*
X75757142Y-61262880D02*
X75776190Y-61243832D01*
X75776190Y-61243832D02*
X75795237Y-61205737D01*
X75795237Y-61205737D02*
X75795237Y-61167641D01*
X75795237Y-61167641D02*
X75776190Y-61129546D01*
X75776190Y-61129546D02*
X75757142Y-61110499D01*
X75757142Y-61110499D02*
X75719047Y-61091451D01*
X75719047Y-61091451D02*
X75642856Y-61072403D01*
X75642856Y-61072403D02*
X75604761Y-61053356D01*
X75604761Y-61053356D02*
X75585714Y-61034308D01*
X75585714Y-61034308D02*
X75566666Y-60996213D01*
X75566666Y-60996213D02*
X75566666Y-60958118D01*
X75566666Y-60958118D02*
X75585714Y-60920022D01*
X75585714Y-60920022D02*
X75604761Y-60900975D01*
X75604761Y-60900975D02*
X75642856Y-60881927D01*
X75642856Y-60881927D02*
X75738095Y-60881927D01*
X75738095Y-60881927D02*
X75795237Y-60900975D01*
X75928570Y-60881927D02*
X76023808Y-61281927D01*
X76023808Y-61281927D02*
X76099999Y-60996213D01*
X76099999Y-60996213D02*
X76176189Y-61281927D01*
X76176189Y-61281927D02*
X76271428Y-60881927D01*
X76328571Y-61320022D02*
X76633332Y-61320022D01*
X76709523Y-61167641D02*
X76899999Y-61167641D01*
X76671428Y-61281927D02*
X76804761Y-60881927D01*
X76804761Y-60881927D02*
X76938094Y-61281927D01*
X77299999Y-61243832D02*
X77280951Y-61262880D01*
X77280951Y-61262880D02*
X77223809Y-61281927D01*
X77223809Y-61281927D02*
X77185713Y-61281927D01*
X77185713Y-61281927D02*
X77128570Y-61262880D01*
X77128570Y-61262880D02*
X77090475Y-61224784D01*
X77090475Y-61224784D02*
X77071428Y-61186689D01*
X77071428Y-61186689D02*
X77052380Y-61110499D01*
X77052380Y-61110499D02*
X77052380Y-61053356D01*
X77052380Y-61053356D02*
X77071428Y-60977165D01*
X77071428Y-60977165D02*
X77090475Y-60939070D01*
X77090475Y-60939070D02*
X77128570Y-60900975D01*
X77128570Y-60900975D02*
X77185713Y-60881927D01*
X77185713Y-60881927D02*
X77223809Y-60881927D01*
X77223809Y-60881927D02*
X77280951Y-60900975D01*
X77280951Y-60900975D02*
X77299999Y-60920022D01*
X77414285Y-60881927D02*
X77642856Y-60881927D01*
X77528570Y-61281927D02*
X77528570Y-60881927D01*
X77776190Y-61281927D02*
X77776190Y-60881927D01*
X78042856Y-60881927D02*
X78119047Y-60881927D01*
X78119047Y-60881927D02*
X78157142Y-60900975D01*
X78157142Y-60900975D02*
X78195237Y-60939070D01*
X78195237Y-60939070D02*
X78214285Y-61015260D01*
X78214285Y-61015260D02*
X78214285Y-61148594D01*
X78214285Y-61148594D02*
X78195237Y-61224784D01*
X78195237Y-61224784D02*
X78157142Y-61262880D01*
X78157142Y-61262880D02*
X78119047Y-61281927D01*
X78119047Y-61281927D02*
X78042856Y-61281927D01*
X78042856Y-61281927D02*
X78004761Y-61262880D01*
X78004761Y-61262880D02*
X77966666Y-61224784D01*
X77966666Y-61224784D02*
X77947618Y-61148594D01*
X77947618Y-61148594D02*
X77947618Y-61015260D01*
X77947618Y-61015260D02*
X77966666Y-60939070D01*
X77966666Y-60939070D02*
X78004761Y-60900975D01*
X78004761Y-60900975D02*
X78042856Y-60881927D01*
X78385714Y-61281927D02*
X78385714Y-60881927D01*
X78385714Y-60881927D02*
X78614285Y-61281927D01*
X78614285Y-61281927D02*
X78614285Y-60881927D01*
X55100000Y-80162880D02*
X55157143Y-80181927D01*
X55157143Y-80181927D02*
X55252381Y-80181927D01*
X55252381Y-80181927D02*
X55290476Y-80162880D01*
X55290476Y-80162880D02*
X55309524Y-80143832D01*
X55309524Y-80143832D02*
X55328571Y-80105737D01*
X55328571Y-80105737D02*
X55328571Y-80067641D01*
X55328571Y-80067641D02*
X55309524Y-80029546D01*
X55309524Y-80029546D02*
X55290476Y-80010499D01*
X55290476Y-80010499D02*
X55252381Y-79991451D01*
X55252381Y-79991451D02*
X55176190Y-79972403D01*
X55176190Y-79972403D02*
X55138095Y-79953356D01*
X55138095Y-79953356D02*
X55119048Y-79934308D01*
X55119048Y-79934308D02*
X55100000Y-79896213D01*
X55100000Y-79896213D02*
X55100000Y-79858118D01*
X55100000Y-79858118D02*
X55119048Y-79820022D01*
X55119048Y-79820022D02*
X55138095Y-79800975D01*
X55138095Y-79800975D02*
X55176190Y-79781927D01*
X55176190Y-79781927D02*
X55271429Y-79781927D01*
X55271429Y-79781927D02*
X55328571Y-79800975D01*
X55461904Y-79781927D02*
X55557142Y-80181927D01*
X55557142Y-80181927D02*
X55633333Y-79896213D01*
X55633333Y-79896213D02*
X55709523Y-80181927D01*
X55709523Y-80181927D02*
X55804762Y-79781927D01*
X55861905Y-80220022D02*
X56166666Y-80220022D01*
X56490476Y-80181927D02*
X56357143Y-79991451D01*
X56261905Y-80181927D02*
X56261905Y-79781927D01*
X56261905Y-79781927D02*
X56414286Y-79781927D01*
X56414286Y-79781927D02*
X56452381Y-79800975D01*
X56452381Y-79800975D02*
X56471428Y-79820022D01*
X56471428Y-79820022D02*
X56490476Y-79858118D01*
X56490476Y-79858118D02*
X56490476Y-79915260D01*
X56490476Y-79915260D02*
X56471428Y-79953356D01*
X56471428Y-79953356D02*
X56452381Y-79972403D01*
X56452381Y-79972403D02*
X56414286Y-79991451D01*
X56414286Y-79991451D02*
X56261905Y-79991451D01*
X56661905Y-79972403D02*
X56795238Y-79972403D01*
X56852381Y-80181927D02*
X56661905Y-80181927D01*
X56661905Y-80181927D02*
X56661905Y-79781927D01*
X56661905Y-79781927D02*
X56852381Y-79781927D01*
X57004762Y-80162880D02*
X57061905Y-80181927D01*
X57061905Y-80181927D02*
X57157143Y-80181927D01*
X57157143Y-80181927D02*
X57195238Y-80162880D01*
X57195238Y-80162880D02*
X57214286Y-80143832D01*
X57214286Y-80143832D02*
X57233333Y-80105737D01*
X57233333Y-80105737D02*
X57233333Y-80067641D01*
X57233333Y-80067641D02*
X57214286Y-80029546D01*
X57214286Y-80029546D02*
X57195238Y-80010499D01*
X57195238Y-80010499D02*
X57157143Y-79991451D01*
X57157143Y-79991451D02*
X57080952Y-79972403D01*
X57080952Y-79972403D02*
X57042857Y-79953356D01*
X57042857Y-79953356D02*
X57023810Y-79934308D01*
X57023810Y-79934308D02*
X57004762Y-79896213D01*
X57004762Y-79896213D02*
X57004762Y-79858118D01*
X57004762Y-79858118D02*
X57023810Y-79820022D01*
X57023810Y-79820022D02*
X57042857Y-79800975D01*
X57042857Y-79800975D02*
X57080952Y-79781927D01*
X57080952Y-79781927D02*
X57176191Y-79781927D01*
X57176191Y-79781927D02*
X57233333Y-79800975D01*
X57404762Y-79972403D02*
X57538095Y-79972403D01*
X57595238Y-80181927D02*
X57404762Y-80181927D01*
X57404762Y-80181927D02*
X57404762Y-79781927D01*
X57404762Y-79781927D02*
X57595238Y-79781927D01*
X57709524Y-79781927D02*
X57938095Y-79781927D01*
X57823809Y-80181927D02*
X57823809Y-79781927D01*
X18795238Y-59962880D02*
X18852381Y-59981927D01*
X18852381Y-59981927D02*
X18947619Y-59981927D01*
X18947619Y-59981927D02*
X18985714Y-59962880D01*
X18985714Y-59962880D02*
X19004762Y-59943832D01*
X19004762Y-59943832D02*
X19023809Y-59905737D01*
X19023809Y-59905737D02*
X19023809Y-59867641D01*
X19023809Y-59867641D02*
X19004762Y-59829546D01*
X19004762Y-59829546D02*
X18985714Y-59810499D01*
X18985714Y-59810499D02*
X18947619Y-59791451D01*
X18947619Y-59791451D02*
X18871428Y-59772403D01*
X18871428Y-59772403D02*
X18833333Y-59753356D01*
X18833333Y-59753356D02*
X18814286Y-59734308D01*
X18814286Y-59734308D02*
X18795238Y-59696213D01*
X18795238Y-59696213D02*
X18795238Y-59658118D01*
X18795238Y-59658118D02*
X18814286Y-59620022D01*
X18814286Y-59620022D02*
X18833333Y-59600975D01*
X18833333Y-59600975D02*
X18871428Y-59581927D01*
X18871428Y-59581927D02*
X18966667Y-59581927D01*
X18966667Y-59581927D02*
X19023809Y-59600975D01*
X19157142Y-59581927D02*
X19252380Y-59981927D01*
X19252380Y-59981927D02*
X19328571Y-59696213D01*
X19328571Y-59696213D02*
X19404761Y-59981927D01*
X19404761Y-59981927D02*
X19500000Y-59581927D01*
X19557143Y-60020022D02*
X19861904Y-60020022D01*
X19957143Y-59581927D02*
X19957143Y-59905737D01*
X19957143Y-59905737D02*
X19976190Y-59943832D01*
X19976190Y-59943832D02*
X19995238Y-59962880D01*
X19995238Y-59962880D02*
X20033333Y-59981927D01*
X20033333Y-59981927D02*
X20109524Y-59981927D01*
X20109524Y-59981927D02*
X20147619Y-59962880D01*
X20147619Y-59962880D02*
X20166666Y-59943832D01*
X20166666Y-59943832D02*
X20185714Y-59905737D01*
X20185714Y-59905737D02*
X20185714Y-59581927D01*
X20376191Y-59981927D02*
X20376191Y-59581927D01*
X20376191Y-59581927D02*
X20528572Y-59581927D01*
X20528572Y-59581927D02*
X20566667Y-59600975D01*
X20566667Y-59600975D02*
X20585714Y-59620022D01*
X20585714Y-59620022D02*
X20604762Y-59658118D01*
X20604762Y-59658118D02*
X20604762Y-59715260D01*
X20604762Y-59715260D02*
X20585714Y-59753356D01*
X20585714Y-59753356D02*
X20566667Y-59772403D01*
X20566667Y-59772403D02*
X20528572Y-59791451D01*
X20528572Y-59791451D02*
X20376191Y-59791451D01*
X9538095Y-68962880D02*
X9595238Y-68981927D01*
X9595238Y-68981927D02*
X9690476Y-68981927D01*
X9690476Y-68981927D02*
X9728571Y-68962880D01*
X9728571Y-68962880D02*
X9747619Y-68943832D01*
X9747619Y-68943832D02*
X9766666Y-68905737D01*
X9766666Y-68905737D02*
X9766666Y-68867641D01*
X9766666Y-68867641D02*
X9747619Y-68829546D01*
X9747619Y-68829546D02*
X9728571Y-68810499D01*
X9728571Y-68810499D02*
X9690476Y-68791451D01*
X9690476Y-68791451D02*
X9614285Y-68772403D01*
X9614285Y-68772403D02*
X9576190Y-68753356D01*
X9576190Y-68753356D02*
X9557143Y-68734308D01*
X9557143Y-68734308D02*
X9538095Y-68696213D01*
X9538095Y-68696213D02*
X9538095Y-68658118D01*
X9538095Y-68658118D02*
X9557143Y-68620022D01*
X9557143Y-68620022D02*
X9576190Y-68600975D01*
X9576190Y-68600975D02*
X9614285Y-68581927D01*
X9614285Y-68581927D02*
X9709524Y-68581927D01*
X9709524Y-68581927D02*
X9766666Y-68600975D01*
X9899999Y-68581927D02*
X9995237Y-68981927D01*
X9995237Y-68981927D02*
X10071428Y-68696213D01*
X10071428Y-68696213D02*
X10147618Y-68981927D01*
X10147618Y-68981927D02*
X10242857Y-68581927D01*
X10300000Y-69020022D02*
X10604761Y-69020022D01*
X10890476Y-68981927D02*
X10700000Y-68981927D01*
X10700000Y-68981927D02*
X10700000Y-68581927D01*
X11023810Y-68772403D02*
X11157143Y-68772403D01*
X11214286Y-68981927D02*
X11023810Y-68981927D01*
X11023810Y-68981927D02*
X11023810Y-68581927D01*
X11023810Y-68581927D02*
X11214286Y-68581927D01*
X11519048Y-68772403D02*
X11385715Y-68772403D01*
X11385715Y-68981927D02*
X11385715Y-68581927D01*
X11385715Y-68581927D02*
X11576191Y-68581927D01*
X11671429Y-68581927D02*
X11900000Y-68581927D01*
X11785714Y-68981927D02*
X11785714Y-68581927D01*
X18357142Y-77962880D02*
X18414285Y-77981927D01*
X18414285Y-77981927D02*
X18509523Y-77981927D01*
X18509523Y-77981927D02*
X18547618Y-77962880D01*
X18547618Y-77962880D02*
X18566666Y-77943832D01*
X18566666Y-77943832D02*
X18585713Y-77905737D01*
X18585713Y-77905737D02*
X18585713Y-77867641D01*
X18585713Y-77867641D02*
X18566666Y-77829546D01*
X18566666Y-77829546D02*
X18547618Y-77810499D01*
X18547618Y-77810499D02*
X18509523Y-77791451D01*
X18509523Y-77791451D02*
X18433332Y-77772403D01*
X18433332Y-77772403D02*
X18395237Y-77753356D01*
X18395237Y-77753356D02*
X18376190Y-77734308D01*
X18376190Y-77734308D02*
X18357142Y-77696213D01*
X18357142Y-77696213D02*
X18357142Y-77658118D01*
X18357142Y-77658118D02*
X18376190Y-77620022D01*
X18376190Y-77620022D02*
X18395237Y-77600975D01*
X18395237Y-77600975D02*
X18433332Y-77581927D01*
X18433332Y-77581927D02*
X18528571Y-77581927D01*
X18528571Y-77581927D02*
X18585713Y-77600975D01*
X18719046Y-77581927D02*
X18814284Y-77981927D01*
X18814284Y-77981927D02*
X18890475Y-77696213D01*
X18890475Y-77696213D02*
X18966665Y-77981927D01*
X18966665Y-77981927D02*
X19061904Y-77581927D01*
X19119047Y-78020022D02*
X19423808Y-78020022D01*
X19519047Y-77981927D02*
X19519047Y-77581927D01*
X19519047Y-77581927D02*
X19614285Y-77581927D01*
X19614285Y-77581927D02*
X19671428Y-77600975D01*
X19671428Y-77600975D02*
X19709523Y-77639070D01*
X19709523Y-77639070D02*
X19728570Y-77677165D01*
X19728570Y-77677165D02*
X19747618Y-77753356D01*
X19747618Y-77753356D02*
X19747618Y-77810499D01*
X19747618Y-77810499D02*
X19728570Y-77886689D01*
X19728570Y-77886689D02*
X19709523Y-77924784D01*
X19709523Y-77924784D02*
X19671428Y-77962880D01*
X19671428Y-77962880D02*
X19614285Y-77981927D01*
X19614285Y-77981927D02*
X19519047Y-77981927D01*
X19995237Y-77581927D02*
X20071428Y-77581927D01*
X20071428Y-77581927D02*
X20109523Y-77600975D01*
X20109523Y-77600975D02*
X20147618Y-77639070D01*
X20147618Y-77639070D02*
X20166666Y-77715260D01*
X20166666Y-77715260D02*
X20166666Y-77848594D01*
X20166666Y-77848594D02*
X20147618Y-77924784D01*
X20147618Y-77924784D02*
X20109523Y-77962880D01*
X20109523Y-77962880D02*
X20071428Y-77981927D01*
X20071428Y-77981927D02*
X19995237Y-77981927D01*
X19995237Y-77981927D02*
X19957142Y-77962880D01*
X19957142Y-77962880D02*
X19919047Y-77924784D01*
X19919047Y-77924784D02*
X19899999Y-77848594D01*
X19899999Y-77848594D02*
X19899999Y-77715260D01*
X19899999Y-77715260D02*
X19919047Y-77639070D01*
X19919047Y-77639070D02*
X19957142Y-77600975D01*
X19957142Y-77600975D02*
X19995237Y-77581927D01*
X20299999Y-77581927D02*
X20395237Y-77981927D01*
X20395237Y-77981927D02*
X20471428Y-77696213D01*
X20471428Y-77696213D02*
X20547618Y-77981927D01*
X20547618Y-77981927D02*
X20642857Y-77581927D01*
X20795238Y-77981927D02*
X20795238Y-77581927D01*
X20795238Y-77581927D02*
X21023809Y-77981927D01*
X21023809Y-77981927D02*
X21023809Y-77581927D01*
X59076190Y-65962880D02*
X59133333Y-65981927D01*
X59133333Y-65981927D02*
X59228571Y-65981927D01*
X59228571Y-65981927D02*
X59266666Y-65962880D01*
X59266666Y-65962880D02*
X59285714Y-65943832D01*
X59285714Y-65943832D02*
X59304761Y-65905737D01*
X59304761Y-65905737D02*
X59304761Y-65867641D01*
X59304761Y-65867641D02*
X59285714Y-65829546D01*
X59285714Y-65829546D02*
X59266666Y-65810499D01*
X59266666Y-65810499D02*
X59228571Y-65791451D01*
X59228571Y-65791451D02*
X59152380Y-65772403D01*
X59152380Y-65772403D02*
X59114285Y-65753356D01*
X59114285Y-65753356D02*
X59095238Y-65734308D01*
X59095238Y-65734308D02*
X59076190Y-65696213D01*
X59076190Y-65696213D02*
X59076190Y-65658118D01*
X59076190Y-65658118D02*
X59095238Y-65620022D01*
X59095238Y-65620022D02*
X59114285Y-65600975D01*
X59114285Y-65600975D02*
X59152380Y-65581927D01*
X59152380Y-65581927D02*
X59247619Y-65581927D01*
X59247619Y-65581927D02*
X59304761Y-65600975D01*
X59438094Y-65581927D02*
X59533332Y-65981927D01*
X59533332Y-65981927D02*
X59609523Y-65696213D01*
X59609523Y-65696213D02*
X59685713Y-65981927D01*
X59685713Y-65981927D02*
X59780952Y-65581927D01*
X59838095Y-66020022D02*
X60142856Y-66020022D01*
X60238095Y-65581927D02*
X60238095Y-65905737D01*
X60238095Y-65905737D02*
X60257142Y-65943832D01*
X60257142Y-65943832D02*
X60276190Y-65962880D01*
X60276190Y-65962880D02*
X60314285Y-65981927D01*
X60314285Y-65981927D02*
X60390476Y-65981927D01*
X60390476Y-65981927D02*
X60428571Y-65962880D01*
X60428571Y-65962880D02*
X60447618Y-65943832D01*
X60447618Y-65943832D02*
X60466666Y-65905737D01*
X60466666Y-65905737D02*
X60466666Y-65581927D01*
X60657143Y-65981927D02*
X60657143Y-65581927D01*
X60657143Y-65581927D02*
X60885714Y-65981927D01*
X60885714Y-65981927D02*
X60885714Y-65581927D01*
X61076191Y-65981927D02*
X61076191Y-65581927D01*
X61076191Y-65581927D02*
X61171429Y-65581927D01*
X61171429Y-65581927D02*
X61228572Y-65600975D01*
X61228572Y-65600975D02*
X61266667Y-65639070D01*
X61266667Y-65639070D02*
X61285714Y-65677165D01*
X61285714Y-65677165D02*
X61304762Y-65753356D01*
X61304762Y-65753356D02*
X61304762Y-65810499D01*
X61304762Y-65810499D02*
X61285714Y-65886689D01*
X61285714Y-65886689D02*
X61266667Y-65924784D01*
X61266667Y-65924784D02*
X61228572Y-65962880D01*
X61228572Y-65962880D02*
X61171429Y-65981927D01*
X61171429Y-65981927D02*
X61076191Y-65981927D01*
X61552381Y-65581927D02*
X61628572Y-65581927D01*
X61628572Y-65581927D02*
X61666667Y-65600975D01*
X61666667Y-65600975D02*
X61704762Y-65639070D01*
X61704762Y-65639070D02*
X61723810Y-65715260D01*
X61723810Y-65715260D02*
X61723810Y-65848594D01*
X61723810Y-65848594D02*
X61704762Y-65924784D01*
X61704762Y-65924784D02*
X61666667Y-65962880D01*
X61666667Y-65962880D02*
X61628572Y-65981927D01*
X61628572Y-65981927D02*
X61552381Y-65981927D01*
X61552381Y-65981927D02*
X61514286Y-65962880D01*
X61514286Y-65962880D02*
X61476191Y-65924784D01*
X61476191Y-65924784D02*
X61457143Y-65848594D01*
X61457143Y-65848594D02*
X61457143Y-65715260D01*
X61457143Y-65715260D02*
X61476191Y-65639070D01*
X61476191Y-65639070D02*
X61514286Y-65600975D01*
X61514286Y-65600975D02*
X61552381Y-65581927D01*
D11*
X65238095Y-81454819D02*
X65238095Y-80454819D01*
X65238095Y-80931009D02*
X65809523Y-80931009D01*
X65809523Y-81454819D02*
X65809523Y-80454819D01*
X66190476Y-80454819D02*
X66809523Y-80454819D01*
X66809523Y-80454819D02*
X66476190Y-80835771D01*
X66476190Y-80835771D02*
X66619047Y-80835771D01*
X66619047Y-80835771D02*
X66714285Y-80883390D01*
X66714285Y-80883390D02*
X66761904Y-80931009D01*
X66761904Y-80931009D02*
X66809523Y-81026247D01*
X66809523Y-81026247D02*
X66809523Y-81264342D01*
X66809523Y-81264342D02*
X66761904Y-81359580D01*
X66761904Y-81359580D02*
X66714285Y-81407200D01*
X66714285Y-81407200D02*
X66619047Y-81454819D01*
X66619047Y-81454819D02*
X66333333Y-81454819D01*
X66333333Y-81454819D02*
X66238095Y-81407200D01*
X66238095Y-81407200D02*
X66190476Y-81359580D01*
%TO.C,SW_RIGHT*%
D12*
X26100000Y-67400000D02*
X27300000Y-66200000D01*
X26100000Y-70200000D02*
X26100000Y-67400000D01*
X26835000Y-69750000D02*
X26835000Y-67850000D01*
X27300000Y-66200000D02*
X30100000Y-66200000D01*
X27300000Y-71400000D02*
X26100000Y-70200000D01*
X27750000Y-66935000D02*
X26835000Y-67850000D01*
X27750000Y-66935000D02*
X29650000Y-66935000D01*
X27750000Y-70665000D02*
X26835000Y-69750000D01*
X29650000Y-66935000D02*
X30565000Y-67850000D01*
X29650000Y-70665000D02*
X27750000Y-70665000D01*
X29650000Y-70665000D02*
X30565000Y-69750000D01*
X30100000Y-66200000D02*
X31300000Y-67400000D01*
X30100000Y-71400000D02*
X27300000Y-71400000D01*
X30565000Y-67850000D02*
X30565000Y-69750000D01*
X31300000Y-67400000D02*
X31300000Y-70200000D01*
X31300000Y-70200000D02*
X30100000Y-71400000D01*
X29700000Y-68800000D02*
G75*
G02*
X27700000Y-68800000I-1000000J0D01*
G01*
X27700000Y-68800000D02*
G75*
G02*
X29700000Y-68800000I1000000J0D01*
G01*
%TO.C,SW_MENU*%
X37000000Y-84000000D02*
X38200000Y-82800000D01*
X37000000Y-86800000D02*
X37000000Y-84000000D01*
X37735000Y-86350000D02*
X37735000Y-84450000D01*
X38200000Y-82800000D02*
X41000000Y-82800000D01*
X38200000Y-88000000D02*
X37000000Y-86800000D01*
X38650000Y-83535000D02*
X37735000Y-84450000D01*
X38650000Y-83535000D02*
X40550000Y-83535000D01*
X38650000Y-87265000D02*
X37735000Y-86350000D01*
X40550000Y-83535000D02*
X41465000Y-84450000D01*
X40550000Y-87265000D02*
X38650000Y-87265000D01*
X40550000Y-87265000D02*
X41465000Y-86350000D01*
X41000000Y-82800000D02*
X42200000Y-84000000D01*
X41000000Y-88000000D02*
X38200000Y-88000000D01*
X41465000Y-84450000D02*
X41465000Y-86350000D01*
X42200000Y-84000000D02*
X42200000Y-86800000D01*
X42200000Y-86800000D02*
X41000000Y-88000000D01*
X40600000Y-85400000D02*
G75*
G02*
X38600000Y-85400000I-1000000J0D01*
G01*
X38600000Y-85400000D02*
G75*
G02*
X40600000Y-85400000I1000000J0D01*
G01*
%TO.C,U1*%
X42250000Y-63050000D02*
X48750000Y-63050000D01*
X48750000Y-80950000D01*
X41250000Y-80950000D01*
X41250000Y-64050000D01*
X42250000Y-63050000D01*
%TO.C,SW_PWR*%
X16650000Y-86650000D02*
X16650000Y-89250000D01*
X16650000Y-89250000D02*
X23350000Y-89250000D01*
X18600000Y-89300000D02*
X18600000Y-90600000D01*
X18600000Y-90600000D02*
X18800000Y-90800000D01*
X18800000Y-90800000D02*
X19650000Y-90800000D01*
X19650000Y-90800000D02*
X19850000Y-90600000D01*
X19850000Y-90600000D02*
X19900000Y-90550000D01*
X19900000Y-90550000D02*
X19900000Y-89250000D01*
X23350000Y-86650000D02*
X16650000Y-86650000D01*
X23350000Y-89250000D02*
X23350000Y-86650000D01*
%TO.C,SW_MUTE*%
X54650000Y-86650000D02*
X54650000Y-89250000D01*
X54650000Y-89250000D02*
X61350000Y-89250000D01*
X56600000Y-89300000D02*
X56600000Y-90600000D01*
X56600000Y-90600000D02*
X56800000Y-90800000D01*
X56800000Y-90800000D02*
X57650000Y-90800000D01*
X57650000Y-90800000D02*
X57850000Y-90600000D01*
X57850000Y-90600000D02*
X57900000Y-90550000D01*
X57900000Y-90550000D02*
X57900000Y-89250000D01*
X61350000Y-86650000D02*
X54650000Y-86650000D01*
X61350000Y-89250000D02*
X61350000Y-86650000D01*
%TO.C,SW_ACTION*%
X74500000Y-59700000D02*
X75700000Y-58500000D01*
X74500000Y-62500000D02*
X74500000Y-59700000D01*
X75235000Y-62050000D02*
X75235000Y-60150000D01*
X75700000Y-58500000D02*
X78500000Y-58500000D01*
X75700000Y-63700000D02*
X74500000Y-62500000D01*
X76150000Y-59235000D02*
X75235000Y-60150000D01*
X76150000Y-59235000D02*
X78050000Y-59235000D01*
X76150000Y-62965000D02*
X75235000Y-62050000D01*
X78050000Y-59235000D02*
X78965000Y-60150000D01*
X78050000Y-62965000D02*
X76150000Y-62965000D01*
X78050000Y-62965000D02*
X78965000Y-62050000D01*
X78500000Y-58500000D02*
X79700000Y-59700000D01*
X78500000Y-63700000D02*
X75700000Y-63700000D01*
X78965000Y-60150000D02*
X78965000Y-62050000D01*
X79700000Y-59700000D02*
X79700000Y-62500000D01*
X79700000Y-62500000D02*
X78500000Y-63700000D01*
X78100000Y-61100000D02*
G75*
G02*
X76100000Y-61100000I-1000000J0D01*
G01*
X76100000Y-61100000D02*
G75*
G02*
X78100000Y-61100000I1000000J0D01*
G01*
%TO.C,SW_RESET*%
X53900000Y-78600000D02*
X55100000Y-77400000D01*
X53900000Y-81400000D02*
X53900000Y-78600000D01*
X54635000Y-80950000D02*
X54635000Y-79050000D01*
X55100000Y-77400000D02*
X57900000Y-77400000D01*
X55100000Y-82600000D02*
X53900000Y-81400000D01*
X55550000Y-78135000D02*
X54635000Y-79050000D01*
X55550000Y-78135000D02*
X57450000Y-78135000D01*
X55550000Y-81865000D02*
X54635000Y-80950000D01*
X57450000Y-78135000D02*
X58365000Y-79050000D01*
X57450000Y-81865000D02*
X55550000Y-81865000D01*
X57450000Y-81865000D02*
X58365000Y-80950000D01*
X57900000Y-77400000D02*
X59100000Y-78600000D01*
X57900000Y-82600000D02*
X55100000Y-82600000D01*
X58365000Y-79050000D02*
X58365000Y-80950000D01*
X59100000Y-78600000D02*
X59100000Y-81400000D01*
X59100000Y-81400000D02*
X57900000Y-82600000D01*
X57500000Y-80000000D02*
G75*
G02*
X55500000Y-80000000I-1000000J0D01*
G01*
X55500000Y-80000000D02*
G75*
G02*
X57500000Y-80000000I1000000J0D01*
G01*
%TO.C,SW_UP*%
X17100000Y-58400000D02*
X18300000Y-57200000D01*
X17100000Y-61200000D02*
X17100000Y-58400000D01*
X17835000Y-60750000D02*
X17835000Y-58850000D01*
X18300000Y-57200000D02*
X21100000Y-57200000D01*
X18300000Y-62400000D02*
X17100000Y-61200000D01*
X18750000Y-57935000D02*
X17835000Y-58850000D01*
X18750000Y-57935000D02*
X20650000Y-57935000D01*
X18750000Y-61665000D02*
X17835000Y-60750000D01*
X20650000Y-57935000D02*
X21565000Y-58850000D01*
X20650000Y-61665000D02*
X18750000Y-61665000D01*
X20650000Y-61665000D02*
X21565000Y-60750000D01*
X21100000Y-57200000D02*
X22300000Y-58400000D01*
X21100000Y-62400000D02*
X18300000Y-62400000D01*
X21565000Y-58850000D02*
X21565000Y-60750000D01*
X22300000Y-58400000D02*
X22300000Y-61200000D01*
X22300000Y-61200000D02*
X21100000Y-62400000D01*
X20700000Y-59800000D02*
G75*
G02*
X18700000Y-59800000I-1000000J0D01*
G01*
X18700000Y-59800000D02*
G75*
G02*
X20700000Y-59800000I1000000J0D01*
G01*
%TO.C,SW_LEFT*%
X8100000Y-67400000D02*
X9300000Y-66200000D01*
X8100000Y-70200000D02*
X8100000Y-67400000D01*
X8835000Y-69750000D02*
X8835000Y-67850000D01*
X9300000Y-66200000D02*
X12100000Y-66200000D01*
X9300000Y-71400000D02*
X8100000Y-70200000D01*
X9750000Y-66935000D02*
X8835000Y-67850000D01*
X9750000Y-66935000D02*
X11650000Y-66935000D01*
X9750000Y-70665000D02*
X8835000Y-69750000D01*
X11650000Y-66935000D02*
X12565000Y-67850000D01*
X11650000Y-70665000D02*
X9750000Y-70665000D01*
X11650000Y-70665000D02*
X12565000Y-69750000D01*
X12100000Y-66200000D02*
X13300000Y-67400000D01*
X12100000Y-71400000D02*
X9300000Y-71400000D01*
X12565000Y-67850000D02*
X12565000Y-69750000D01*
X13300000Y-67400000D02*
X13300000Y-70200000D01*
X13300000Y-70200000D02*
X12100000Y-71400000D01*
X11700000Y-68800000D02*
G75*
G02*
X9700000Y-68800000I-1000000J0D01*
G01*
X9700000Y-68800000D02*
G75*
G02*
X11700000Y-68800000I1000000J0D01*
G01*
%TO.C,SW_DOWN*%
X17100000Y-76400000D02*
X18300000Y-75200000D01*
X17100000Y-79200000D02*
X17100000Y-76400000D01*
X17835000Y-78750000D02*
X17835000Y-76850000D01*
X18300000Y-75200000D02*
X21100000Y-75200000D01*
X18300000Y-80400000D02*
X17100000Y-79200000D01*
X18750000Y-75935000D02*
X17835000Y-76850000D01*
X18750000Y-75935000D02*
X20650000Y-75935000D01*
X18750000Y-79665000D02*
X17835000Y-78750000D01*
X20650000Y-75935000D02*
X21565000Y-76850000D01*
X20650000Y-79665000D02*
X18750000Y-79665000D01*
X20650000Y-79665000D02*
X21565000Y-78750000D01*
X21100000Y-75200000D02*
X22300000Y-76400000D01*
X21100000Y-80400000D02*
X18300000Y-80400000D01*
X21565000Y-76850000D02*
X21565000Y-78750000D01*
X22300000Y-76400000D02*
X22300000Y-79200000D01*
X22300000Y-79200000D02*
X21100000Y-80400000D01*
X20700000Y-77800000D02*
G75*
G02*
X18700000Y-77800000I-1000000J0D01*
G01*
X18700000Y-77800000D02*
G75*
G02*
X20700000Y-77800000I1000000J0D01*
G01*
%TO.C,SW_UNDO*%
X57800000Y-64400000D02*
X59000000Y-63200000D01*
X57800000Y-67200000D02*
X57800000Y-64400000D01*
X58535000Y-66750000D02*
X58535000Y-64850000D01*
X59000000Y-63200000D02*
X61800000Y-63200000D01*
X59000000Y-68400000D02*
X57800000Y-67200000D01*
X59450000Y-63935000D02*
X58535000Y-64850000D01*
X59450000Y-63935000D02*
X61350000Y-63935000D01*
X59450000Y-67665000D02*
X58535000Y-66750000D01*
X61350000Y-63935000D02*
X62265000Y-64850000D01*
X61350000Y-67665000D02*
X59450000Y-67665000D01*
X61350000Y-67665000D02*
X62265000Y-66750000D01*
X61800000Y-63200000D02*
X63000000Y-64400000D01*
X61800000Y-68400000D02*
X59000000Y-68400000D01*
X62265000Y-64850000D02*
X62265000Y-66750000D01*
X63000000Y-64400000D02*
X63000000Y-67200000D01*
X63000000Y-67200000D02*
X61800000Y-68400000D01*
X61400000Y-65800000D02*
G75*
G02*
X59400000Y-65800000I-1000000J0D01*
G01*
X59400000Y-65800000D02*
G75*
G02*
X61400000Y-65800000I1000000J0D01*
G01*
%TD*%
M02*
