M48
; DRILL file KiCad 10.0.4 date 2026-08-02T19:12:28
; FORMAT={-:-/ absolute / metric / decimal}
; #@! TF.CreationDate,2026-08-02T19:12:28+02:00
; #@! TF.GenerationSoftware,Kicad,Pcbnew,10.0.4
; #@! TF.FileFunction,MixedPlating,1,2
FMAT,2
METRIC
; #@! TA.AperFunction,Plated,PTH,ViaDrill
T1C0.300
; #@! TA.AperFunction,NonPlated,NPTH,ComponentDrill
T2C0.900
; #@! TA.AperFunction,NonPlated,NPTH,ComponentDrill
T3C2.700
%
G90
G05
T1
X10.0Y-58.0
X10.0Y-78.0
X10.0Y-86.0
X16.021Y-68.638
X18.0Y-72.0
X18.917Y-80.633
X20.0Y-65.0
X22.611Y-80.858
X23.835Y-71.5
X32.0Y-86.0
X42.043Y-73.902
X42.427Y-74.997
X46.98Y-72.677
X47.821Y-73.902
X48.008Y-69.64
X48.12Y-71.633
X50.0Y-86.0
X52.0Y-58.0
X54.854Y-68.787
X60.0Y-70.0
X63.576Y-77.223
T2
X18.5Y-87.98
X21.5Y-87.98
X56.5Y-87.98
X59.5Y-87.98
T3
X4.5Y-56.0
X65.0Y-56.0
X66.0Y-81.0
M30
