%TF.GenerationSoftware,KiCad,Pcbnew,10.0.4*%
%TF.CreationDate,2026-08-02T19:12:27+02:00*%
%TF.ProjectId,pocket_card_controller,706f636b-6574-45f6-9361-72645f636f6e,rev?*%
%TF.SameCoordinates,Original*%
%TF.FileFunction,AssemblyDrawing,Bot*%
%FSLAX46Y46*%
G04 Gerber Fmt 4.6, Leading zero omitted, Abs format (unit mm)*
G04 Created by KiCad (PCBNEW 10.0.4) date 2026-08-02 19:12:27*
%MOMM*%
%LPD*%
G01*
G04 APERTURE LIST*
%ADD10C,0.150000*%
%ADD11C,0.100000*%
G04 APERTURE END LIST*
D10*
X76333333Y-62454819D02*
X76333333Y-63169104D01*
X76333333Y-63169104D02*
X76285714Y-63311961D01*
X76285714Y-63311961D02*
X76190476Y-63407200D01*
X76190476Y-63407200D02*
X76047619Y-63454819D01*
X76047619Y-63454819D02*
X75952381Y-63454819D01*
X76571429Y-63550057D02*
X77333333Y-63550057D01*
X77571429Y-62931009D02*
X77904762Y-62931009D01*
X78047619Y-63454819D02*
X77571429Y-63454819D01*
X77571429Y-63454819D02*
X77571429Y-62454819D01*
X77571429Y-62454819D02*
X78047619Y-62454819D01*
X78380953Y-62454819D02*
X79047619Y-63454819D01*
X79047619Y-62454819D02*
X78380953Y-63454819D01*
X79428572Y-63454819D02*
X79428572Y-62454819D01*
X79428572Y-62454819D02*
X79809524Y-62454819D01*
X79809524Y-62454819D02*
X79904762Y-62502438D01*
X79904762Y-62502438D02*
X79952381Y-62550057D01*
X79952381Y-62550057D02*
X80000000Y-62645295D01*
X80000000Y-62645295D02*
X80000000Y-62788152D01*
X80000000Y-62788152D02*
X79952381Y-62883390D01*
X79952381Y-62883390D02*
X79904762Y-62931009D01*
X79904762Y-62931009D02*
X79809524Y-62978628D01*
X79809524Y-62978628D02*
X79428572Y-62978628D01*
X61547619Y-62454819D02*
X61547619Y-63169104D01*
X61547619Y-63169104D02*
X61500000Y-63311961D01*
X61500000Y-63311961D02*
X61404762Y-63407200D01*
X61404762Y-63407200D02*
X61261905Y-63454819D01*
X61261905Y-63454819D02*
X61166667Y-63454819D01*
X61785715Y-63550057D02*
X62547619Y-63550057D01*
X62785715Y-63454819D02*
X62785715Y-62454819D01*
X63214286Y-62550057D02*
X63261905Y-62502438D01*
X63261905Y-62502438D02*
X63357143Y-62454819D01*
X63357143Y-62454819D02*
X63595238Y-62454819D01*
X63595238Y-62454819D02*
X63690476Y-62502438D01*
X63690476Y-62502438D02*
X63738095Y-62550057D01*
X63738095Y-62550057D02*
X63785714Y-62645295D01*
X63785714Y-62645295D02*
X63785714Y-62740533D01*
X63785714Y-62740533D02*
X63738095Y-62883390D01*
X63738095Y-62883390D02*
X63166667Y-63454819D01*
X63166667Y-63454819D02*
X63785714Y-63454819D01*
X64785714Y-63359580D02*
X64738095Y-63407200D01*
X64738095Y-63407200D02*
X64595238Y-63454819D01*
X64595238Y-63454819D02*
X64500000Y-63454819D01*
X64500000Y-63454819D02*
X64357143Y-63407200D01*
X64357143Y-63407200D02*
X64261905Y-63311961D01*
X64261905Y-63311961D02*
X64214286Y-63216723D01*
X64214286Y-63216723D02*
X64166667Y-63026247D01*
X64166667Y-63026247D02*
X64166667Y-62883390D01*
X64166667Y-62883390D02*
X64214286Y-62692914D01*
X64214286Y-62692914D02*
X64261905Y-62597676D01*
X64261905Y-62597676D02*
X64357143Y-62502438D01*
X64357143Y-62502438D02*
X64500000Y-62454819D01*
X64500000Y-62454819D02*
X64595238Y-62454819D01*
X64595238Y-62454819D02*
X64738095Y-62502438D01*
X64738095Y-62502438D02*
X64785714Y-62550057D01*
X60309523Y-75454819D02*
X60309523Y-76169104D01*
X60309523Y-76169104D02*
X60261904Y-76311961D01*
X60261904Y-76311961D02*
X60166666Y-76407200D01*
X60166666Y-76407200D02*
X60023809Y-76454819D01*
X60023809Y-76454819D02*
X59928571Y-76454819D01*
X60547619Y-76550057D02*
X61309523Y-76550057D01*
X61880952Y-75931009D02*
X62023809Y-75978628D01*
X62023809Y-75978628D02*
X62071428Y-76026247D01*
X62071428Y-76026247D02*
X62119047Y-76121485D01*
X62119047Y-76121485D02*
X62119047Y-76264342D01*
X62119047Y-76264342D02*
X62071428Y-76359580D01*
X62071428Y-76359580D02*
X62023809Y-76407200D01*
X62023809Y-76407200D02*
X61928571Y-76454819D01*
X61928571Y-76454819D02*
X61547619Y-76454819D01*
X61547619Y-76454819D02*
X61547619Y-75454819D01*
X61547619Y-75454819D02*
X61880952Y-75454819D01*
X61880952Y-75454819D02*
X61976190Y-75502438D01*
X61976190Y-75502438D02*
X62023809Y-75550057D01*
X62023809Y-75550057D02*
X62071428Y-75645295D01*
X62071428Y-75645295D02*
X62071428Y-75740533D01*
X62071428Y-75740533D02*
X62023809Y-75835771D01*
X62023809Y-75835771D02*
X61976190Y-75883390D01*
X61976190Y-75883390D02*
X61880952Y-75931009D01*
X61880952Y-75931009D02*
X61547619Y-75931009D01*
X62500000Y-76169104D02*
X62976190Y-76169104D01*
X62404762Y-76454819D02*
X62738095Y-75454819D01*
X62738095Y-75454819D02*
X63071428Y-76454819D01*
X63261905Y-75454819D02*
X63833333Y-75454819D01*
X63547619Y-76454819D02*
X63547619Y-75454819D01*
X63928572Y-76550057D02*
X64690476Y-76550057D01*
X64928572Y-76454819D02*
X64928572Y-75454819D01*
X65404762Y-76454819D02*
X65404762Y-75454819D01*
X65404762Y-75454819D02*
X65976190Y-76454819D01*
X65976190Y-76454819D02*
X65976190Y-75454819D01*
X74642856Y-75454819D02*
X74642856Y-76169104D01*
X74642856Y-76169104D02*
X74595237Y-76311961D01*
X74595237Y-76311961D02*
X74499999Y-76407200D01*
X74499999Y-76407200D02*
X74357142Y-76454819D01*
X74357142Y-76454819D02*
X74261904Y-76454819D01*
X74880952Y-76550057D02*
X75642856Y-76550057D01*
X76214285Y-75931009D02*
X76357142Y-75978628D01*
X76357142Y-75978628D02*
X76404761Y-76026247D01*
X76404761Y-76026247D02*
X76452380Y-76121485D01*
X76452380Y-76121485D02*
X76452380Y-76264342D01*
X76452380Y-76264342D02*
X76404761Y-76359580D01*
X76404761Y-76359580D02*
X76357142Y-76407200D01*
X76357142Y-76407200D02*
X76261904Y-76454819D01*
X76261904Y-76454819D02*
X75880952Y-76454819D01*
X75880952Y-76454819D02*
X75880952Y-75454819D01*
X75880952Y-75454819D02*
X76214285Y-75454819D01*
X76214285Y-75454819D02*
X76309523Y-75502438D01*
X76309523Y-75502438D02*
X76357142Y-75550057D01*
X76357142Y-75550057D02*
X76404761Y-75645295D01*
X76404761Y-75645295D02*
X76404761Y-75740533D01*
X76404761Y-75740533D02*
X76357142Y-75835771D01*
X76357142Y-75835771D02*
X76309523Y-75883390D01*
X76309523Y-75883390D02*
X76214285Y-75931009D01*
X76214285Y-75931009D02*
X75880952Y-75931009D01*
X76833333Y-76169104D02*
X77309523Y-76169104D01*
X76738095Y-76454819D02*
X77071428Y-75454819D01*
X77071428Y-75454819D02*
X77404761Y-76454819D01*
X77595238Y-75454819D02*
X78166666Y-75454819D01*
X77880952Y-76454819D02*
X77880952Y-75454819D01*
X78261905Y-76550057D02*
X79023809Y-76550057D01*
X79452381Y-75454819D02*
X79642857Y-75454819D01*
X79642857Y-75454819D02*
X79738095Y-75502438D01*
X79738095Y-75502438D02*
X79833333Y-75597676D01*
X79833333Y-75597676D02*
X79880952Y-75788152D01*
X79880952Y-75788152D02*
X79880952Y-76121485D01*
X79880952Y-76121485D02*
X79833333Y-76311961D01*
X79833333Y-76311961D02*
X79738095Y-76407200D01*
X79738095Y-76407200D02*
X79642857Y-76454819D01*
X79642857Y-76454819D02*
X79452381Y-76454819D01*
X79452381Y-76454819D02*
X79357143Y-76407200D01*
X79357143Y-76407200D02*
X79261905Y-76311961D01*
X79261905Y-76311961D02*
X79214286Y-76121485D01*
X79214286Y-76121485D02*
X79214286Y-75788152D01*
X79214286Y-75788152D02*
X79261905Y-75597676D01*
X79261905Y-75597676D02*
X79357143Y-75502438D01*
X79357143Y-75502438D02*
X79452381Y-75454819D01*
X80309524Y-75454819D02*
X80309524Y-76264342D01*
X80309524Y-76264342D02*
X80357143Y-76359580D01*
X80357143Y-76359580D02*
X80404762Y-76407200D01*
X80404762Y-76407200D02*
X80500000Y-76454819D01*
X80500000Y-76454819D02*
X80690476Y-76454819D01*
X80690476Y-76454819D02*
X80785714Y-76407200D01*
X80785714Y-76407200D02*
X80833333Y-76359580D01*
X80833333Y-76359580D02*
X80880952Y-76264342D01*
X80880952Y-76264342D02*
X80880952Y-75454819D01*
X81214286Y-75454819D02*
X81785714Y-75454819D01*
X81500000Y-76454819D02*
X81500000Y-75454819D01*
%TO.C,J_EXP*%
D11*
X73875000Y-61400000D02*
X73875000Y-65450000D01*
X73875000Y-61400000D02*
X82125000Y-61400000D01*
X73875000Y-65450000D02*
X82125000Y-65450000D01*
X75625000Y-61400000D02*
X76125000Y-62107107D01*
X76125000Y-62107107D02*
X76625000Y-61400000D01*
X82125000Y-61400000D02*
X82125000Y-65450000D01*
%TO.C,J_I2C*%
X58875000Y-61400000D02*
X58875000Y-65450000D01*
X58875000Y-61400000D02*
X67125000Y-61400000D01*
X58875000Y-65450000D02*
X67125000Y-65450000D01*
X60625000Y-61400000D02*
X61125000Y-62107107D01*
X61125000Y-62107107D02*
X61625000Y-61400000D01*
X67125000Y-61400000D02*
X67125000Y-65450000D01*
%TO.C,J_BAT_IN*%
X60125000Y-74400000D02*
X60125000Y-78450000D01*
X60125000Y-74400000D02*
X65875000Y-74400000D01*
X60125000Y-78450000D02*
X65875000Y-78450000D01*
X61875000Y-74400000D02*
X62375000Y-75107107D01*
X62375000Y-75107107D02*
X62875000Y-74400000D01*
X65875000Y-74400000D02*
X65875000Y-78450000D01*
%TO.C,J_BAT_OUT*%
X75125000Y-74400000D02*
X75125000Y-78450000D01*
X75125000Y-74400000D02*
X80875000Y-74400000D01*
X75125000Y-78450000D02*
X80875000Y-78450000D01*
X76875000Y-74400000D02*
X77375000Y-75107107D01*
X77375000Y-75107107D02*
X77875000Y-74400000D01*
X80875000Y-74400000D02*
X80875000Y-78450000D01*
%TD*%
M02*
