%TF.GenerationSoftware,KiCad,Pcbnew,10.0.4*%
%TF.CreationDate,2026-07-31T16:10:00+02:00*%
%TF.ProjectId,pocket_card_controller,706f636b-6574-45f6-9361-72645f636f6e,rev?*%
%TF.SameCoordinates,Original*%
%TF.FileFunction,Soldermask,Top*%
%TF.FilePolarity,Negative*%
%FSLAX46Y46*%
G04 Gerber Fmt 4.6, Leading zero omitted, Abs format (unit mm)*
G04 Created by KiCad (PCBNEW 10.0.4) date 2026-07-31 16:10:00*
%MOMM*%
%LPD*%
G01*
G04 APERTURE LIST*
G04 Aperture macros list*
%AMRoundRect*
0 Rectangle with rounded corners*
0 $1 Rounding radius*
0 $2 $3 $4 $5 $6 $7 $8 $9 X,Y pos of 4 corners*
0 Add a 4 corners polygon primitive as box body*
4,1,4,$2,$3,$4,$5,$6,$7,$8,$9,$2,$3,0*
0 Add four circle primitives for the rounded corners*
1,1,$1+$1,$2,$3*
1,1,$1+$1,$4,$5*
1,1,$1+$1,$6,$7*
1,1,$1+$1,$8,$9*
0 Add four rect primitives between the rounded corners*
20,1,$1+$1,$2,$3,$4,$5,0*
20,1,$1+$1,$4,$5,$6,$7,0*
20,1,$1+$1,$6,$7,$8,$9,0*
20,1,$1+$1,$8,$9,$2,$3,0*%
G04 Aperture macros list end*
%ADD10R,1.550000X1.000000*%
%ADD11R,1.000000X0.800000*%
%ADD12C,0.900000*%
%ADD13R,0.700000X1.500000*%
%ADD14RoundRect,0.150000X0.150000X0.700000X-0.150000X0.700000X-0.150000X-0.700000X0.150000X-0.700000X0*%
%ADD15RoundRect,0.250000X0.250000X1.100000X-0.250000X1.100000X-0.250000X-1.100000X0.250000X-1.100000X0*%
%ADD16C,1.500000*%
%ADD17RoundRect,0.150000X0.150000X-0.875000X0.150000X0.875000X-0.150000X0.875000X-0.150000X-0.875000X0*%
%ADD18C,2.200000*%
G04 APERTURE END LIST*
D10*
%TO.C,SW_RIGHT*%
X26075000Y-67950000D03*
X31325000Y-67950000D03*
X26075000Y-69650000D03*
X31325000Y-69650000D03*
%TD*%
D11*
%TO.C,SW_MUTE*%
X62350000Y-87720000D03*
X62350000Y-89930000D03*
D12*
X64500000Y-88830000D03*
X67500000Y-88830000D03*
D11*
X69650000Y-87720000D03*
X69650000Y-89930000D03*
D13*
X63750000Y-87070000D03*
X66750000Y-87070000D03*
X68250000Y-87070000D03*
%TD*%
D10*
%TO.C,SW_UNDO*%
X57775000Y-64950000D03*
X63025000Y-64950000D03*
X57775000Y-66650000D03*
X63025000Y-66650000D03*
%TD*%
D14*
%TO.C,J_I2C*%
X15875000Y-56350000D03*
X14625000Y-56350000D03*
X13375000Y-56350000D03*
X12125000Y-56350000D03*
D15*
X17725000Y-53150000D03*
X10275000Y-53150000D03*
%TD*%
D10*
%TO.C,SW_MENU*%
X36975000Y-84550000D03*
X42225000Y-84550000D03*
X36975000Y-86250000D03*
X42225000Y-86250000D03*
%TD*%
D14*
%TO.C,J_BAT*%
X44625000Y-56350000D03*
X43375000Y-56350000D03*
D15*
X46475000Y-53150000D03*
X41525000Y-53150000D03*
%TD*%
D16*
%TO.C,TP_GND*%
X67000000Y-58500000D03*
%TD*%
D10*
%TO.C,SW_ACTION*%
X74475000Y-60250000D03*
X79725000Y-60250000D03*
X74475000Y-61950000D03*
X79725000Y-61950000D03*
%TD*%
%TO.C,SW_UP*%
X17075000Y-58950000D03*
X22325000Y-58950000D03*
X17075000Y-60650000D03*
X22325000Y-60650000D03*
%TD*%
D16*
%TO.C,TP_INT*%
X76000000Y-58500000D03*
%TD*%
D17*
%TO.C,U1*%
X21745000Y-66650000D03*
X23015000Y-66650000D03*
X24285000Y-66650000D03*
X25555000Y-66650000D03*
X26825000Y-66650000D03*
X28095000Y-66650000D03*
X29365000Y-66650000D03*
X30635000Y-66650000D03*
X31905000Y-66650000D03*
X33175000Y-66650000D03*
X34445000Y-66650000D03*
X35715000Y-66650000D03*
X36985000Y-66650000D03*
X38255000Y-66650000D03*
X38255000Y-57350000D03*
X36985000Y-57350000D03*
X35715000Y-57350000D03*
X34445000Y-57350000D03*
X33175000Y-57350000D03*
X31905000Y-57350000D03*
X30635000Y-57350000D03*
X29365000Y-57350000D03*
X28095000Y-57350000D03*
X26825000Y-57350000D03*
X25555000Y-57350000D03*
X24285000Y-57350000D03*
X23015000Y-57350000D03*
X21745000Y-57350000D03*
%TD*%
D18*
%TO.C,H2*%
X72500000Y-88000000D03*
%TD*%
D16*
%TO.C,TP_SDA*%
X70000000Y-58500000D03*
%TD*%
D14*
%TO.C,J_SPK*%
X30625000Y-56350000D03*
X29375000Y-56350000D03*
D15*
X32475000Y-53150000D03*
X27525000Y-53150000D03*
%TD*%
D16*
%TO.C,TP_3V3*%
X64000000Y-58500000D03*
%TD*%
D10*
%TO.C,SW_DOWN*%
X17075000Y-76950000D03*
X22325000Y-76950000D03*
X17075000Y-78650000D03*
X22325000Y-78650000D03*
%TD*%
D18*
%TO.C,H1*%
X65000000Y-56000000D03*
%TD*%
D11*
%TO.C,SW_PWR*%
X16350000Y-87720000D03*
X16350000Y-89930000D03*
D12*
X18500000Y-88830000D03*
X21500000Y-88830000D03*
D11*
X23650000Y-87720000D03*
X23650000Y-89930000D03*
D13*
X17750000Y-87070000D03*
X20750000Y-87070000D03*
X22250000Y-87070000D03*
%TD*%
D10*
%TO.C,SW_LEFT*%
X8075000Y-67950000D03*
X13325000Y-67950000D03*
X8075000Y-69650000D03*
X13325000Y-69650000D03*
%TD*%
%TO.C,SW_RESET*%
X53875000Y-80750000D03*
X59125000Y-80750000D03*
X53875000Y-82450000D03*
X59125000Y-82450000D03*
%TD*%
D16*
%TO.C,TP_SCL*%
X73000000Y-58500000D03*
%TD*%
M02*
