%TF.GenerationSoftware,KiCad,Pcbnew,10.0.4*%
%TF.CreationDate,2026-07-31T16:10:00+02:00*%
%TF.ProjectId,pocket_card_controller,706f636b-6574-45f6-9361-72645f636f6e,rev?*%
%TF.SameCoordinates,Original*%
%TF.FileFunction,Legend,Top*%
%TF.FilePolarity,Positive*%
%FSLAX46Y46*%
G04 Gerber Fmt 4.6, Leading zero omitted, Abs format (unit mm)*
G04 Created by KiCad (PCBNEW 10.0.4) date 2026-07-31 16:10:00*
%MOMM*%
%LPD*%
G01*
G04 APERTURE LIST*
%ADD10C,0.150000*%
%ADD11C,0.120000*%
G04 APERTURE END LIST*
D10*
X25319048Y-64707200D02*
X25461905Y-64754819D01*
X25461905Y-64754819D02*
X25700000Y-64754819D01*
X25700000Y-64754819D02*
X25795238Y-64707200D01*
X25795238Y-64707200D02*
X25842857Y-64659580D01*
X25842857Y-64659580D02*
X25890476Y-64564342D01*
X25890476Y-64564342D02*
X25890476Y-64469104D01*
X25890476Y-64469104D02*
X25842857Y-64373866D01*
X25842857Y-64373866D02*
X25795238Y-64326247D01*
X25795238Y-64326247D02*
X25700000Y-64278628D01*
X25700000Y-64278628D02*
X25509524Y-64231009D01*
X25509524Y-64231009D02*
X25414286Y-64183390D01*
X25414286Y-64183390D02*
X25366667Y-64135771D01*
X25366667Y-64135771D02*
X25319048Y-64040533D01*
X25319048Y-64040533D02*
X25319048Y-63945295D01*
X25319048Y-63945295D02*
X25366667Y-63850057D01*
X25366667Y-63850057D02*
X25414286Y-63802438D01*
X25414286Y-63802438D02*
X25509524Y-63754819D01*
X25509524Y-63754819D02*
X25747619Y-63754819D01*
X25747619Y-63754819D02*
X25890476Y-63802438D01*
X26223810Y-63754819D02*
X26461905Y-64754819D01*
X26461905Y-64754819D02*
X26652381Y-64040533D01*
X26652381Y-64040533D02*
X26842857Y-64754819D01*
X26842857Y-64754819D02*
X27080953Y-63754819D01*
X27223810Y-64850057D02*
X27985714Y-64850057D01*
X28795238Y-64754819D02*
X28461905Y-64278628D01*
X28223810Y-64754819D02*
X28223810Y-63754819D01*
X28223810Y-63754819D02*
X28604762Y-63754819D01*
X28604762Y-63754819D02*
X28700000Y-63802438D01*
X28700000Y-63802438D02*
X28747619Y-63850057D01*
X28747619Y-63850057D02*
X28795238Y-63945295D01*
X28795238Y-63945295D02*
X28795238Y-64088152D01*
X28795238Y-64088152D02*
X28747619Y-64183390D01*
X28747619Y-64183390D02*
X28700000Y-64231009D01*
X28700000Y-64231009D02*
X28604762Y-64278628D01*
X28604762Y-64278628D02*
X28223810Y-64278628D01*
X29223810Y-64754819D02*
X29223810Y-63754819D01*
X30223809Y-63802438D02*
X30128571Y-63754819D01*
X30128571Y-63754819D02*
X29985714Y-63754819D01*
X29985714Y-63754819D02*
X29842857Y-63802438D01*
X29842857Y-63802438D02*
X29747619Y-63897676D01*
X29747619Y-63897676D02*
X29700000Y-63992914D01*
X29700000Y-63992914D02*
X29652381Y-64183390D01*
X29652381Y-64183390D02*
X29652381Y-64326247D01*
X29652381Y-64326247D02*
X29700000Y-64516723D01*
X29700000Y-64516723D02*
X29747619Y-64611961D01*
X29747619Y-64611961D02*
X29842857Y-64707200D01*
X29842857Y-64707200D02*
X29985714Y-64754819D01*
X29985714Y-64754819D02*
X30080952Y-64754819D01*
X30080952Y-64754819D02*
X30223809Y-64707200D01*
X30223809Y-64707200D02*
X30271428Y-64659580D01*
X30271428Y-64659580D02*
X30271428Y-64326247D01*
X30271428Y-64326247D02*
X30080952Y-64326247D01*
X30700000Y-64754819D02*
X30700000Y-63754819D01*
X30700000Y-64231009D02*
X31271428Y-64231009D01*
X31271428Y-64754819D02*
X31271428Y-63754819D01*
X31604762Y-63754819D02*
X32176190Y-63754819D01*
X31890476Y-64754819D02*
X31890476Y-63754819D01*
X62833333Y-85707200D02*
X62976190Y-85754819D01*
X62976190Y-85754819D02*
X63214285Y-85754819D01*
X63214285Y-85754819D02*
X63309523Y-85707200D01*
X63309523Y-85707200D02*
X63357142Y-85659580D01*
X63357142Y-85659580D02*
X63404761Y-85564342D01*
X63404761Y-85564342D02*
X63404761Y-85469104D01*
X63404761Y-85469104D02*
X63357142Y-85373866D01*
X63357142Y-85373866D02*
X63309523Y-85326247D01*
X63309523Y-85326247D02*
X63214285Y-85278628D01*
X63214285Y-85278628D02*
X63023809Y-85231009D01*
X63023809Y-85231009D02*
X62928571Y-85183390D01*
X62928571Y-85183390D02*
X62880952Y-85135771D01*
X62880952Y-85135771D02*
X62833333Y-85040533D01*
X62833333Y-85040533D02*
X62833333Y-84945295D01*
X62833333Y-84945295D02*
X62880952Y-84850057D01*
X62880952Y-84850057D02*
X62928571Y-84802438D01*
X62928571Y-84802438D02*
X63023809Y-84754819D01*
X63023809Y-84754819D02*
X63261904Y-84754819D01*
X63261904Y-84754819D02*
X63404761Y-84802438D01*
X63738095Y-84754819D02*
X63976190Y-85754819D01*
X63976190Y-85754819D02*
X64166666Y-85040533D01*
X64166666Y-85040533D02*
X64357142Y-85754819D01*
X64357142Y-85754819D02*
X64595238Y-84754819D01*
X64738095Y-85850057D02*
X65499999Y-85850057D01*
X65738095Y-85754819D02*
X65738095Y-84754819D01*
X65738095Y-84754819D02*
X66071428Y-85469104D01*
X66071428Y-85469104D02*
X66404761Y-84754819D01*
X66404761Y-84754819D02*
X66404761Y-85754819D01*
X66880952Y-84754819D02*
X66880952Y-85564342D01*
X66880952Y-85564342D02*
X66928571Y-85659580D01*
X66928571Y-85659580D02*
X66976190Y-85707200D01*
X66976190Y-85707200D02*
X67071428Y-85754819D01*
X67071428Y-85754819D02*
X67261904Y-85754819D01*
X67261904Y-85754819D02*
X67357142Y-85707200D01*
X67357142Y-85707200D02*
X67404761Y-85659580D01*
X67404761Y-85659580D02*
X67452380Y-85564342D01*
X67452380Y-85564342D02*
X67452380Y-84754819D01*
X67785714Y-84754819D02*
X68357142Y-84754819D01*
X68071428Y-85754819D02*
X68071428Y-84754819D01*
X68690476Y-85231009D02*
X69023809Y-85231009D01*
X69166666Y-85754819D02*
X68690476Y-85754819D01*
X68690476Y-85754819D02*
X68690476Y-84754819D01*
X68690476Y-84754819D02*
X69166666Y-84754819D01*
X57090476Y-61707200D02*
X57233333Y-61754819D01*
X57233333Y-61754819D02*
X57471428Y-61754819D01*
X57471428Y-61754819D02*
X57566666Y-61707200D01*
X57566666Y-61707200D02*
X57614285Y-61659580D01*
X57614285Y-61659580D02*
X57661904Y-61564342D01*
X57661904Y-61564342D02*
X57661904Y-61469104D01*
X57661904Y-61469104D02*
X57614285Y-61373866D01*
X57614285Y-61373866D02*
X57566666Y-61326247D01*
X57566666Y-61326247D02*
X57471428Y-61278628D01*
X57471428Y-61278628D02*
X57280952Y-61231009D01*
X57280952Y-61231009D02*
X57185714Y-61183390D01*
X57185714Y-61183390D02*
X57138095Y-61135771D01*
X57138095Y-61135771D02*
X57090476Y-61040533D01*
X57090476Y-61040533D02*
X57090476Y-60945295D01*
X57090476Y-60945295D02*
X57138095Y-60850057D01*
X57138095Y-60850057D02*
X57185714Y-60802438D01*
X57185714Y-60802438D02*
X57280952Y-60754819D01*
X57280952Y-60754819D02*
X57519047Y-60754819D01*
X57519047Y-60754819D02*
X57661904Y-60802438D01*
X57995238Y-60754819D02*
X58233333Y-61754819D01*
X58233333Y-61754819D02*
X58423809Y-61040533D01*
X58423809Y-61040533D02*
X58614285Y-61754819D01*
X58614285Y-61754819D02*
X58852381Y-60754819D01*
X58995238Y-61850057D02*
X59757142Y-61850057D01*
X59995238Y-60754819D02*
X59995238Y-61564342D01*
X59995238Y-61564342D02*
X60042857Y-61659580D01*
X60042857Y-61659580D02*
X60090476Y-61707200D01*
X60090476Y-61707200D02*
X60185714Y-61754819D01*
X60185714Y-61754819D02*
X60376190Y-61754819D01*
X60376190Y-61754819D02*
X60471428Y-61707200D01*
X60471428Y-61707200D02*
X60519047Y-61659580D01*
X60519047Y-61659580D02*
X60566666Y-61564342D01*
X60566666Y-61564342D02*
X60566666Y-60754819D01*
X61042857Y-61754819D02*
X61042857Y-60754819D01*
X61042857Y-60754819D02*
X61614285Y-61754819D01*
X61614285Y-61754819D02*
X61614285Y-60754819D01*
X62090476Y-61754819D02*
X62090476Y-60754819D01*
X62090476Y-60754819D02*
X62328571Y-60754819D01*
X62328571Y-60754819D02*
X62471428Y-60802438D01*
X62471428Y-60802438D02*
X62566666Y-60897676D01*
X62566666Y-60897676D02*
X62614285Y-60992914D01*
X62614285Y-60992914D02*
X62661904Y-61183390D01*
X62661904Y-61183390D02*
X62661904Y-61326247D01*
X62661904Y-61326247D02*
X62614285Y-61516723D01*
X62614285Y-61516723D02*
X62566666Y-61611961D01*
X62566666Y-61611961D02*
X62471428Y-61707200D01*
X62471428Y-61707200D02*
X62328571Y-61754819D01*
X62328571Y-61754819D02*
X62090476Y-61754819D01*
X63280952Y-60754819D02*
X63471428Y-60754819D01*
X63471428Y-60754819D02*
X63566666Y-60802438D01*
X63566666Y-60802438D02*
X63661904Y-60897676D01*
X63661904Y-60897676D02*
X63709523Y-61088152D01*
X63709523Y-61088152D02*
X63709523Y-61421485D01*
X63709523Y-61421485D02*
X63661904Y-61611961D01*
X63661904Y-61611961D02*
X63566666Y-61707200D01*
X63566666Y-61707200D02*
X63471428Y-61754819D01*
X63471428Y-61754819D02*
X63280952Y-61754819D01*
X63280952Y-61754819D02*
X63185714Y-61707200D01*
X63185714Y-61707200D02*
X63090476Y-61611961D01*
X63090476Y-61611961D02*
X63042857Y-61421485D01*
X63042857Y-61421485D02*
X63042857Y-61088152D01*
X63042857Y-61088152D02*
X63090476Y-60897676D01*
X63090476Y-60897676D02*
X63185714Y-60802438D01*
X63185714Y-60802438D02*
X63280952Y-60754819D01*
X12547619Y-57854819D02*
X12547619Y-58569104D01*
X12547619Y-58569104D02*
X12500000Y-58711961D01*
X12500000Y-58711961D02*
X12404762Y-58807200D01*
X12404762Y-58807200D02*
X12261905Y-58854819D01*
X12261905Y-58854819D02*
X12166667Y-58854819D01*
X12785715Y-58950057D02*
X13547619Y-58950057D01*
X13785715Y-58854819D02*
X13785715Y-57854819D01*
X14214286Y-57950057D02*
X14261905Y-57902438D01*
X14261905Y-57902438D02*
X14357143Y-57854819D01*
X14357143Y-57854819D02*
X14595238Y-57854819D01*
X14595238Y-57854819D02*
X14690476Y-57902438D01*
X14690476Y-57902438D02*
X14738095Y-57950057D01*
X14738095Y-57950057D02*
X14785714Y-58045295D01*
X14785714Y-58045295D02*
X14785714Y-58140533D01*
X14785714Y-58140533D02*
X14738095Y-58283390D01*
X14738095Y-58283390D02*
X14166667Y-58854819D01*
X14166667Y-58854819D02*
X14785714Y-58854819D01*
X15785714Y-58759580D02*
X15738095Y-58807200D01*
X15738095Y-58807200D02*
X15595238Y-58854819D01*
X15595238Y-58854819D02*
X15500000Y-58854819D01*
X15500000Y-58854819D02*
X15357143Y-58807200D01*
X15357143Y-58807200D02*
X15261905Y-58711961D01*
X15261905Y-58711961D02*
X15214286Y-58616723D01*
X15214286Y-58616723D02*
X15166667Y-58426247D01*
X15166667Y-58426247D02*
X15166667Y-58283390D01*
X15166667Y-58283390D02*
X15214286Y-58092914D01*
X15214286Y-58092914D02*
X15261905Y-57997676D01*
X15261905Y-57997676D02*
X15357143Y-57902438D01*
X15357143Y-57902438D02*
X15500000Y-57854819D01*
X15500000Y-57854819D02*
X15595238Y-57854819D01*
X15595238Y-57854819D02*
X15738095Y-57902438D01*
X15738095Y-57902438D02*
X15785714Y-57950057D01*
X36290476Y-81307200D02*
X36433333Y-81354819D01*
X36433333Y-81354819D02*
X36671428Y-81354819D01*
X36671428Y-81354819D02*
X36766666Y-81307200D01*
X36766666Y-81307200D02*
X36814285Y-81259580D01*
X36814285Y-81259580D02*
X36861904Y-81164342D01*
X36861904Y-81164342D02*
X36861904Y-81069104D01*
X36861904Y-81069104D02*
X36814285Y-80973866D01*
X36814285Y-80973866D02*
X36766666Y-80926247D01*
X36766666Y-80926247D02*
X36671428Y-80878628D01*
X36671428Y-80878628D02*
X36480952Y-80831009D01*
X36480952Y-80831009D02*
X36385714Y-80783390D01*
X36385714Y-80783390D02*
X36338095Y-80735771D01*
X36338095Y-80735771D02*
X36290476Y-80640533D01*
X36290476Y-80640533D02*
X36290476Y-80545295D01*
X36290476Y-80545295D02*
X36338095Y-80450057D01*
X36338095Y-80450057D02*
X36385714Y-80402438D01*
X36385714Y-80402438D02*
X36480952Y-80354819D01*
X36480952Y-80354819D02*
X36719047Y-80354819D01*
X36719047Y-80354819D02*
X36861904Y-80402438D01*
X37195238Y-80354819D02*
X37433333Y-81354819D01*
X37433333Y-81354819D02*
X37623809Y-80640533D01*
X37623809Y-80640533D02*
X37814285Y-81354819D01*
X37814285Y-81354819D02*
X38052381Y-80354819D01*
X38195238Y-81450057D02*
X38957142Y-81450057D01*
X39195238Y-81354819D02*
X39195238Y-80354819D01*
X39195238Y-80354819D02*
X39528571Y-81069104D01*
X39528571Y-81069104D02*
X39861904Y-80354819D01*
X39861904Y-80354819D02*
X39861904Y-81354819D01*
X40338095Y-80831009D02*
X40671428Y-80831009D01*
X40814285Y-81354819D02*
X40338095Y-81354819D01*
X40338095Y-81354819D02*
X40338095Y-80354819D01*
X40338095Y-80354819D02*
X40814285Y-80354819D01*
X41242857Y-81354819D02*
X41242857Y-80354819D01*
X41242857Y-80354819D02*
X41814285Y-81354819D01*
X41814285Y-81354819D02*
X41814285Y-80354819D01*
X42290476Y-80354819D02*
X42290476Y-81164342D01*
X42290476Y-81164342D02*
X42338095Y-81259580D01*
X42338095Y-81259580D02*
X42385714Y-81307200D01*
X42385714Y-81307200D02*
X42480952Y-81354819D01*
X42480952Y-81354819D02*
X42671428Y-81354819D01*
X42671428Y-81354819D02*
X42766666Y-81307200D01*
X42766666Y-81307200D02*
X42814285Y-81259580D01*
X42814285Y-81259580D02*
X42861904Y-81164342D01*
X42861904Y-81164342D02*
X42861904Y-80354819D01*
X42452380Y-57854819D02*
X42452380Y-58569104D01*
X42452380Y-58569104D02*
X42404761Y-58711961D01*
X42404761Y-58711961D02*
X42309523Y-58807200D01*
X42309523Y-58807200D02*
X42166666Y-58854819D01*
X42166666Y-58854819D02*
X42071428Y-58854819D01*
X42690476Y-58950057D02*
X43452380Y-58950057D01*
X44023809Y-58331009D02*
X44166666Y-58378628D01*
X44166666Y-58378628D02*
X44214285Y-58426247D01*
X44214285Y-58426247D02*
X44261904Y-58521485D01*
X44261904Y-58521485D02*
X44261904Y-58664342D01*
X44261904Y-58664342D02*
X44214285Y-58759580D01*
X44214285Y-58759580D02*
X44166666Y-58807200D01*
X44166666Y-58807200D02*
X44071428Y-58854819D01*
X44071428Y-58854819D02*
X43690476Y-58854819D01*
X43690476Y-58854819D02*
X43690476Y-57854819D01*
X43690476Y-57854819D02*
X44023809Y-57854819D01*
X44023809Y-57854819D02*
X44119047Y-57902438D01*
X44119047Y-57902438D02*
X44166666Y-57950057D01*
X44166666Y-57950057D02*
X44214285Y-58045295D01*
X44214285Y-58045295D02*
X44214285Y-58140533D01*
X44214285Y-58140533D02*
X44166666Y-58235771D01*
X44166666Y-58235771D02*
X44119047Y-58283390D01*
X44119047Y-58283390D02*
X44023809Y-58331009D01*
X44023809Y-58331009D02*
X43690476Y-58331009D01*
X44642857Y-58569104D02*
X45119047Y-58569104D01*
X44547619Y-58854819D02*
X44880952Y-57854819D01*
X44880952Y-57854819D02*
X45214285Y-58854819D01*
X45404762Y-57854819D02*
X45976190Y-57854819D01*
X45690476Y-58854819D02*
X45690476Y-57854819D01*
X64309524Y-56306819D02*
X64880952Y-56306819D01*
X64595238Y-57306819D02*
X64595238Y-56306819D01*
X65214286Y-57306819D02*
X65214286Y-56306819D01*
X65214286Y-56306819D02*
X65595238Y-56306819D01*
X65595238Y-56306819D02*
X65690476Y-56354438D01*
X65690476Y-56354438D02*
X65738095Y-56402057D01*
X65738095Y-56402057D02*
X65785714Y-56497295D01*
X65785714Y-56497295D02*
X65785714Y-56640152D01*
X65785714Y-56640152D02*
X65738095Y-56735390D01*
X65738095Y-56735390D02*
X65690476Y-56783009D01*
X65690476Y-56783009D02*
X65595238Y-56830628D01*
X65595238Y-56830628D02*
X65214286Y-56830628D01*
X65976191Y-57402057D02*
X66738095Y-57402057D01*
X67500000Y-56354438D02*
X67404762Y-56306819D01*
X67404762Y-56306819D02*
X67261905Y-56306819D01*
X67261905Y-56306819D02*
X67119048Y-56354438D01*
X67119048Y-56354438D02*
X67023810Y-56449676D01*
X67023810Y-56449676D02*
X66976191Y-56544914D01*
X66976191Y-56544914D02*
X66928572Y-56735390D01*
X66928572Y-56735390D02*
X66928572Y-56878247D01*
X66928572Y-56878247D02*
X66976191Y-57068723D01*
X66976191Y-57068723D02*
X67023810Y-57163961D01*
X67023810Y-57163961D02*
X67119048Y-57259200D01*
X67119048Y-57259200D02*
X67261905Y-57306819D01*
X67261905Y-57306819D02*
X67357143Y-57306819D01*
X67357143Y-57306819D02*
X67500000Y-57259200D01*
X67500000Y-57259200D02*
X67547619Y-57211580D01*
X67547619Y-57211580D02*
X67547619Y-56878247D01*
X67547619Y-56878247D02*
X67357143Y-56878247D01*
X67976191Y-57306819D02*
X67976191Y-56306819D01*
X67976191Y-56306819D02*
X68547619Y-57306819D01*
X68547619Y-57306819D02*
X68547619Y-56306819D01*
X69023810Y-57306819D02*
X69023810Y-56306819D01*
X69023810Y-56306819D02*
X69261905Y-56306819D01*
X69261905Y-56306819D02*
X69404762Y-56354438D01*
X69404762Y-56354438D02*
X69500000Y-56449676D01*
X69500000Y-56449676D02*
X69547619Y-56544914D01*
X69547619Y-56544914D02*
X69595238Y-56735390D01*
X69595238Y-56735390D02*
X69595238Y-56878247D01*
X69595238Y-56878247D02*
X69547619Y-57068723D01*
X69547619Y-57068723D02*
X69500000Y-57163961D01*
X69500000Y-57163961D02*
X69404762Y-57259200D01*
X69404762Y-57259200D02*
X69261905Y-57306819D01*
X69261905Y-57306819D02*
X69023810Y-57306819D01*
X73266667Y-57007200D02*
X73409524Y-57054819D01*
X73409524Y-57054819D02*
X73647619Y-57054819D01*
X73647619Y-57054819D02*
X73742857Y-57007200D01*
X73742857Y-57007200D02*
X73790476Y-56959580D01*
X73790476Y-56959580D02*
X73838095Y-56864342D01*
X73838095Y-56864342D02*
X73838095Y-56769104D01*
X73838095Y-56769104D02*
X73790476Y-56673866D01*
X73790476Y-56673866D02*
X73742857Y-56626247D01*
X73742857Y-56626247D02*
X73647619Y-56578628D01*
X73647619Y-56578628D02*
X73457143Y-56531009D01*
X73457143Y-56531009D02*
X73361905Y-56483390D01*
X73361905Y-56483390D02*
X73314286Y-56435771D01*
X73314286Y-56435771D02*
X73266667Y-56340533D01*
X73266667Y-56340533D02*
X73266667Y-56245295D01*
X73266667Y-56245295D02*
X73314286Y-56150057D01*
X73314286Y-56150057D02*
X73361905Y-56102438D01*
X73361905Y-56102438D02*
X73457143Y-56054819D01*
X73457143Y-56054819D02*
X73695238Y-56054819D01*
X73695238Y-56054819D02*
X73838095Y-56102438D01*
X74171429Y-56054819D02*
X74409524Y-57054819D01*
X74409524Y-57054819D02*
X74600000Y-56340533D01*
X74600000Y-56340533D02*
X74790476Y-57054819D01*
X74790476Y-57054819D02*
X75028572Y-56054819D01*
X75171429Y-57150057D02*
X75933333Y-57150057D01*
X76123810Y-56769104D02*
X76600000Y-56769104D01*
X76028572Y-57054819D02*
X76361905Y-56054819D01*
X76361905Y-56054819D02*
X76695238Y-57054819D01*
X77600000Y-56959580D02*
X77552381Y-57007200D01*
X77552381Y-57007200D02*
X77409524Y-57054819D01*
X77409524Y-57054819D02*
X77314286Y-57054819D01*
X77314286Y-57054819D02*
X77171429Y-57007200D01*
X77171429Y-57007200D02*
X77076191Y-56911961D01*
X77076191Y-56911961D02*
X77028572Y-56816723D01*
X77028572Y-56816723D02*
X76980953Y-56626247D01*
X76980953Y-56626247D02*
X76980953Y-56483390D01*
X76980953Y-56483390D02*
X77028572Y-56292914D01*
X77028572Y-56292914D02*
X77076191Y-56197676D01*
X77076191Y-56197676D02*
X77171429Y-56102438D01*
X77171429Y-56102438D02*
X77314286Y-56054819D01*
X77314286Y-56054819D02*
X77409524Y-56054819D01*
X77409524Y-56054819D02*
X77552381Y-56102438D01*
X77552381Y-56102438D02*
X77600000Y-56150057D01*
X77885715Y-56054819D02*
X78457143Y-56054819D01*
X78171429Y-57054819D02*
X78171429Y-56054819D01*
X78790477Y-57054819D02*
X78790477Y-56054819D01*
X79457143Y-56054819D02*
X79647619Y-56054819D01*
X79647619Y-56054819D02*
X79742857Y-56102438D01*
X79742857Y-56102438D02*
X79838095Y-56197676D01*
X79838095Y-56197676D02*
X79885714Y-56388152D01*
X79885714Y-56388152D02*
X79885714Y-56721485D01*
X79885714Y-56721485D02*
X79838095Y-56911961D01*
X79838095Y-56911961D02*
X79742857Y-57007200D01*
X79742857Y-57007200D02*
X79647619Y-57054819D01*
X79647619Y-57054819D02*
X79457143Y-57054819D01*
X79457143Y-57054819D02*
X79361905Y-57007200D01*
X79361905Y-57007200D02*
X79266667Y-56911961D01*
X79266667Y-56911961D02*
X79219048Y-56721485D01*
X79219048Y-56721485D02*
X79219048Y-56388152D01*
X79219048Y-56388152D02*
X79266667Y-56197676D01*
X79266667Y-56197676D02*
X79361905Y-56102438D01*
X79361905Y-56102438D02*
X79457143Y-56054819D01*
X80314286Y-57054819D02*
X80314286Y-56054819D01*
X80314286Y-56054819D02*
X80885714Y-57054819D01*
X80885714Y-57054819D02*
X80885714Y-56054819D01*
X17438095Y-55707200D02*
X17580952Y-55754819D01*
X17580952Y-55754819D02*
X17819047Y-55754819D01*
X17819047Y-55754819D02*
X17914285Y-55707200D01*
X17914285Y-55707200D02*
X17961904Y-55659580D01*
X17961904Y-55659580D02*
X18009523Y-55564342D01*
X18009523Y-55564342D02*
X18009523Y-55469104D01*
X18009523Y-55469104D02*
X17961904Y-55373866D01*
X17961904Y-55373866D02*
X17914285Y-55326247D01*
X17914285Y-55326247D02*
X17819047Y-55278628D01*
X17819047Y-55278628D02*
X17628571Y-55231009D01*
X17628571Y-55231009D02*
X17533333Y-55183390D01*
X17533333Y-55183390D02*
X17485714Y-55135771D01*
X17485714Y-55135771D02*
X17438095Y-55040533D01*
X17438095Y-55040533D02*
X17438095Y-54945295D01*
X17438095Y-54945295D02*
X17485714Y-54850057D01*
X17485714Y-54850057D02*
X17533333Y-54802438D01*
X17533333Y-54802438D02*
X17628571Y-54754819D01*
X17628571Y-54754819D02*
X17866666Y-54754819D01*
X17866666Y-54754819D02*
X18009523Y-54802438D01*
X18342857Y-54754819D02*
X18580952Y-55754819D01*
X18580952Y-55754819D02*
X18771428Y-55040533D01*
X18771428Y-55040533D02*
X18961904Y-55754819D01*
X18961904Y-55754819D02*
X19200000Y-54754819D01*
X19342857Y-55850057D02*
X20104761Y-55850057D01*
X20342857Y-54754819D02*
X20342857Y-55564342D01*
X20342857Y-55564342D02*
X20390476Y-55659580D01*
X20390476Y-55659580D02*
X20438095Y-55707200D01*
X20438095Y-55707200D02*
X20533333Y-55754819D01*
X20533333Y-55754819D02*
X20723809Y-55754819D01*
X20723809Y-55754819D02*
X20819047Y-55707200D01*
X20819047Y-55707200D02*
X20866666Y-55659580D01*
X20866666Y-55659580D02*
X20914285Y-55564342D01*
X20914285Y-55564342D02*
X20914285Y-54754819D01*
X21390476Y-55754819D02*
X21390476Y-54754819D01*
X21390476Y-54754819D02*
X21771428Y-54754819D01*
X21771428Y-54754819D02*
X21866666Y-54802438D01*
X21866666Y-54802438D02*
X21914285Y-54850057D01*
X21914285Y-54850057D02*
X21961904Y-54945295D01*
X21961904Y-54945295D02*
X21961904Y-55088152D01*
X21961904Y-55088152D02*
X21914285Y-55183390D01*
X21914285Y-55183390D02*
X21866666Y-55231009D01*
X21866666Y-55231009D02*
X21771428Y-55278628D01*
X21771428Y-55278628D02*
X21390476Y-55278628D01*
X73690476Y-56306819D02*
X74261904Y-56306819D01*
X73976190Y-57306819D02*
X73976190Y-56306819D01*
X74595238Y-57306819D02*
X74595238Y-56306819D01*
X74595238Y-56306819D02*
X74976190Y-56306819D01*
X74976190Y-56306819D02*
X75071428Y-56354438D01*
X75071428Y-56354438D02*
X75119047Y-56402057D01*
X75119047Y-56402057D02*
X75166666Y-56497295D01*
X75166666Y-56497295D02*
X75166666Y-56640152D01*
X75166666Y-56640152D02*
X75119047Y-56735390D01*
X75119047Y-56735390D02*
X75071428Y-56783009D01*
X75071428Y-56783009D02*
X74976190Y-56830628D01*
X74976190Y-56830628D02*
X74595238Y-56830628D01*
X75357143Y-57402057D02*
X76119047Y-57402057D01*
X76357143Y-57306819D02*
X76357143Y-56306819D01*
X76833333Y-57306819D02*
X76833333Y-56306819D01*
X76833333Y-56306819D02*
X77404761Y-57306819D01*
X77404761Y-57306819D02*
X77404761Y-56306819D01*
X77738095Y-56306819D02*
X78309523Y-56306819D01*
X78023809Y-57306819D02*
X78023809Y-56306819D01*
X19554819Y-62761904D02*
X20364342Y-62761904D01*
X20364342Y-62761904D02*
X20459580Y-62714285D01*
X20459580Y-62714285D02*
X20507200Y-62666666D01*
X20507200Y-62666666D02*
X20554819Y-62571428D01*
X20554819Y-62571428D02*
X20554819Y-62380952D01*
X20554819Y-62380952D02*
X20507200Y-62285714D01*
X20507200Y-62285714D02*
X20459580Y-62238095D01*
X20459580Y-62238095D02*
X20364342Y-62190476D01*
X20364342Y-62190476D02*
X19554819Y-62190476D01*
X20554819Y-61190476D02*
X20554819Y-61761904D01*
X20554819Y-61476190D02*
X19554819Y-61476190D01*
X19554819Y-61476190D02*
X19697676Y-61571428D01*
X19697676Y-61571428D02*
X19792914Y-61666666D01*
X19792914Y-61666666D02*
X19840533Y-61761904D01*
X71738095Y-85304819D02*
X71738095Y-84304819D01*
X71738095Y-84781009D02*
X72309523Y-84781009D01*
X72309523Y-85304819D02*
X72309523Y-84304819D01*
X72738095Y-84400057D02*
X72785714Y-84352438D01*
X72785714Y-84352438D02*
X72880952Y-84304819D01*
X72880952Y-84304819D02*
X73119047Y-84304819D01*
X73119047Y-84304819D02*
X73214285Y-84352438D01*
X73214285Y-84352438D02*
X73261904Y-84400057D01*
X73261904Y-84400057D02*
X73309523Y-84495295D01*
X73309523Y-84495295D02*
X73309523Y-84590533D01*
X73309523Y-84590533D02*
X73261904Y-84733390D01*
X73261904Y-84733390D02*
X72690476Y-85304819D01*
X72690476Y-85304819D02*
X73309523Y-85304819D01*
X67428571Y-56306819D02*
X67999999Y-56306819D01*
X67714285Y-57306819D02*
X67714285Y-56306819D01*
X68333333Y-57306819D02*
X68333333Y-56306819D01*
X68333333Y-56306819D02*
X68714285Y-56306819D01*
X68714285Y-56306819D02*
X68809523Y-56354438D01*
X68809523Y-56354438D02*
X68857142Y-56402057D01*
X68857142Y-56402057D02*
X68904761Y-56497295D01*
X68904761Y-56497295D02*
X68904761Y-56640152D01*
X68904761Y-56640152D02*
X68857142Y-56735390D01*
X68857142Y-56735390D02*
X68809523Y-56783009D01*
X68809523Y-56783009D02*
X68714285Y-56830628D01*
X68714285Y-56830628D02*
X68333333Y-56830628D01*
X69095238Y-57402057D02*
X69857142Y-57402057D01*
X70047619Y-57259200D02*
X70190476Y-57306819D01*
X70190476Y-57306819D02*
X70428571Y-57306819D01*
X70428571Y-57306819D02*
X70523809Y-57259200D01*
X70523809Y-57259200D02*
X70571428Y-57211580D01*
X70571428Y-57211580D02*
X70619047Y-57116342D01*
X70619047Y-57116342D02*
X70619047Y-57021104D01*
X70619047Y-57021104D02*
X70571428Y-56925866D01*
X70571428Y-56925866D02*
X70523809Y-56878247D01*
X70523809Y-56878247D02*
X70428571Y-56830628D01*
X70428571Y-56830628D02*
X70238095Y-56783009D01*
X70238095Y-56783009D02*
X70142857Y-56735390D01*
X70142857Y-56735390D02*
X70095238Y-56687771D01*
X70095238Y-56687771D02*
X70047619Y-56592533D01*
X70047619Y-56592533D02*
X70047619Y-56497295D01*
X70047619Y-56497295D02*
X70095238Y-56402057D01*
X70095238Y-56402057D02*
X70142857Y-56354438D01*
X70142857Y-56354438D02*
X70238095Y-56306819D01*
X70238095Y-56306819D02*
X70476190Y-56306819D01*
X70476190Y-56306819D02*
X70619047Y-56354438D01*
X71047619Y-57306819D02*
X71047619Y-56306819D01*
X71047619Y-56306819D02*
X71285714Y-56306819D01*
X71285714Y-56306819D02*
X71428571Y-56354438D01*
X71428571Y-56354438D02*
X71523809Y-56449676D01*
X71523809Y-56449676D02*
X71571428Y-56544914D01*
X71571428Y-56544914D02*
X71619047Y-56735390D01*
X71619047Y-56735390D02*
X71619047Y-56878247D01*
X71619047Y-56878247D02*
X71571428Y-57068723D01*
X71571428Y-57068723D02*
X71523809Y-57163961D01*
X71523809Y-57163961D02*
X71428571Y-57259200D01*
X71428571Y-57259200D02*
X71285714Y-57306819D01*
X71285714Y-57306819D02*
X71047619Y-57306819D01*
X72000000Y-57021104D02*
X72476190Y-57021104D01*
X71904762Y-57306819D02*
X72238095Y-56306819D01*
X72238095Y-56306819D02*
X72571428Y-57306819D01*
X28285714Y-57854819D02*
X28285714Y-58569104D01*
X28285714Y-58569104D02*
X28238095Y-58711961D01*
X28238095Y-58711961D02*
X28142857Y-58807200D01*
X28142857Y-58807200D02*
X28000000Y-58854819D01*
X28000000Y-58854819D02*
X27904762Y-58854819D01*
X28523810Y-58950057D02*
X29285714Y-58950057D01*
X29476191Y-58807200D02*
X29619048Y-58854819D01*
X29619048Y-58854819D02*
X29857143Y-58854819D01*
X29857143Y-58854819D02*
X29952381Y-58807200D01*
X29952381Y-58807200D02*
X30000000Y-58759580D01*
X30000000Y-58759580D02*
X30047619Y-58664342D01*
X30047619Y-58664342D02*
X30047619Y-58569104D01*
X30047619Y-58569104D02*
X30000000Y-58473866D01*
X30000000Y-58473866D02*
X29952381Y-58426247D01*
X29952381Y-58426247D02*
X29857143Y-58378628D01*
X29857143Y-58378628D02*
X29666667Y-58331009D01*
X29666667Y-58331009D02*
X29571429Y-58283390D01*
X29571429Y-58283390D02*
X29523810Y-58235771D01*
X29523810Y-58235771D02*
X29476191Y-58140533D01*
X29476191Y-58140533D02*
X29476191Y-58045295D01*
X29476191Y-58045295D02*
X29523810Y-57950057D01*
X29523810Y-57950057D02*
X29571429Y-57902438D01*
X29571429Y-57902438D02*
X29666667Y-57854819D01*
X29666667Y-57854819D02*
X29904762Y-57854819D01*
X29904762Y-57854819D02*
X30047619Y-57902438D01*
X30476191Y-58854819D02*
X30476191Y-57854819D01*
X30476191Y-57854819D02*
X30857143Y-57854819D01*
X30857143Y-57854819D02*
X30952381Y-57902438D01*
X30952381Y-57902438D02*
X31000000Y-57950057D01*
X31000000Y-57950057D02*
X31047619Y-58045295D01*
X31047619Y-58045295D02*
X31047619Y-58188152D01*
X31047619Y-58188152D02*
X31000000Y-58283390D01*
X31000000Y-58283390D02*
X30952381Y-58331009D01*
X30952381Y-58331009D02*
X30857143Y-58378628D01*
X30857143Y-58378628D02*
X30476191Y-58378628D01*
X31476191Y-58854819D02*
X31476191Y-57854819D01*
X32047619Y-58854819D02*
X31619048Y-58283390D01*
X32047619Y-57854819D02*
X31476191Y-58426247D01*
X61452381Y-56306819D02*
X62023809Y-56306819D01*
X61738095Y-57306819D02*
X61738095Y-56306819D01*
X62357143Y-57306819D02*
X62357143Y-56306819D01*
X62357143Y-56306819D02*
X62738095Y-56306819D01*
X62738095Y-56306819D02*
X62833333Y-56354438D01*
X62833333Y-56354438D02*
X62880952Y-56402057D01*
X62880952Y-56402057D02*
X62928571Y-56497295D01*
X62928571Y-56497295D02*
X62928571Y-56640152D01*
X62928571Y-56640152D02*
X62880952Y-56735390D01*
X62880952Y-56735390D02*
X62833333Y-56783009D01*
X62833333Y-56783009D02*
X62738095Y-56830628D01*
X62738095Y-56830628D02*
X62357143Y-56830628D01*
X63119048Y-57402057D02*
X63880952Y-57402057D01*
X64023810Y-56306819D02*
X64642857Y-56306819D01*
X64642857Y-56306819D02*
X64309524Y-56687771D01*
X64309524Y-56687771D02*
X64452381Y-56687771D01*
X64452381Y-56687771D02*
X64547619Y-56735390D01*
X64547619Y-56735390D02*
X64595238Y-56783009D01*
X64595238Y-56783009D02*
X64642857Y-56878247D01*
X64642857Y-56878247D02*
X64642857Y-57116342D01*
X64642857Y-57116342D02*
X64595238Y-57211580D01*
X64595238Y-57211580D02*
X64547619Y-57259200D01*
X64547619Y-57259200D02*
X64452381Y-57306819D01*
X64452381Y-57306819D02*
X64166667Y-57306819D01*
X64166667Y-57306819D02*
X64071429Y-57259200D01*
X64071429Y-57259200D02*
X64023810Y-57211580D01*
X64928572Y-56306819D02*
X65261905Y-57306819D01*
X65261905Y-57306819D02*
X65595238Y-56306819D01*
X65833334Y-56306819D02*
X66452381Y-56306819D01*
X66452381Y-56306819D02*
X66119048Y-56687771D01*
X66119048Y-56687771D02*
X66261905Y-56687771D01*
X66261905Y-56687771D02*
X66357143Y-56735390D01*
X66357143Y-56735390D02*
X66404762Y-56783009D01*
X66404762Y-56783009D02*
X66452381Y-56878247D01*
X66452381Y-56878247D02*
X66452381Y-57116342D01*
X66452381Y-57116342D02*
X66404762Y-57211580D01*
X66404762Y-57211580D02*
X66357143Y-57259200D01*
X66357143Y-57259200D02*
X66261905Y-57306819D01*
X66261905Y-57306819D02*
X65976191Y-57306819D01*
X65976191Y-57306819D02*
X65880953Y-57259200D01*
X65880953Y-57259200D02*
X65833334Y-57211580D01*
X16342857Y-73707200D02*
X16485714Y-73754819D01*
X16485714Y-73754819D02*
X16723809Y-73754819D01*
X16723809Y-73754819D02*
X16819047Y-73707200D01*
X16819047Y-73707200D02*
X16866666Y-73659580D01*
X16866666Y-73659580D02*
X16914285Y-73564342D01*
X16914285Y-73564342D02*
X16914285Y-73469104D01*
X16914285Y-73469104D02*
X16866666Y-73373866D01*
X16866666Y-73373866D02*
X16819047Y-73326247D01*
X16819047Y-73326247D02*
X16723809Y-73278628D01*
X16723809Y-73278628D02*
X16533333Y-73231009D01*
X16533333Y-73231009D02*
X16438095Y-73183390D01*
X16438095Y-73183390D02*
X16390476Y-73135771D01*
X16390476Y-73135771D02*
X16342857Y-73040533D01*
X16342857Y-73040533D02*
X16342857Y-72945295D01*
X16342857Y-72945295D02*
X16390476Y-72850057D01*
X16390476Y-72850057D02*
X16438095Y-72802438D01*
X16438095Y-72802438D02*
X16533333Y-72754819D01*
X16533333Y-72754819D02*
X16771428Y-72754819D01*
X16771428Y-72754819D02*
X16914285Y-72802438D01*
X17247619Y-72754819D02*
X17485714Y-73754819D01*
X17485714Y-73754819D02*
X17676190Y-73040533D01*
X17676190Y-73040533D02*
X17866666Y-73754819D01*
X17866666Y-73754819D02*
X18104762Y-72754819D01*
X18247619Y-73850057D02*
X19009523Y-73850057D01*
X19247619Y-73754819D02*
X19247619Y-72754819D01*
X19247619Y-72754819D02*
X19485714Y-72754819D01*
X19485714Y-72754819D02*
X19628571Y-72802438D01*
X19628571Y-72802438D02*
X19723809Y-72897676D01*
X19723809Y-72897676D02*
X19771428Y-72992914D01*
X19771428Y-72992914D02*
X19819047Y-73183390D01*
X19819047Y-73183390D02*
X19819047Y-73326247D01*
X19819047Y-73326247D02*
X19771428Y-73516723D01*
X19771428Y-73516723D02*
X19723809Y-73611961D01*
X19723809Y-73611961D02*
X19628571Y-73707200D01*
X19628571Y-73707200D02*
X19485714Y-73754819D01*
X19485714Y-73754819D02*
X19247619Y-73754819D01*
X20438095Y-72754819D02*
X20628571Y-72754819D01*
X20628571Y-72754819D02*
X20723809Y-72802438D01*
X20723809Y-72802438D02*
X20819047Y-72897676D01*
X20819047Y-72897676D02*
X20866666Y-73088152D01*
X20866666Y-73088152D02*
X20866666Y-73421485D01*
X20866666Y-73421485D02*
X20819047Y-73611961D01*
X20819047Y-73611961D02*
X20723809Y-73707200D01*
X20723809Y-73707200D02*
X20628571Y-73754819D01*
X20628571Y-73754819D02*
X20438095Y-73754819D01*
X20438095Y-73754819D02*
X20342857Y-73707200D01*
X20342857Y-73707200D02*
X20247619Y-73611961D01*
X20247619Y-73611961D02*
X20200000Y-73421485D01*
X20200000Y-73421485D02*
X20200000Y-73088152D01*
X20200000Y-73088152D02*
X20247619Y-72897676D01*
X20247619Y-72897676D02*
X20342857Y-72802438D01*
X20342857Y-72802438D02*
X20438095Y-72754819D01*
X21200000Y-72754819D02*
X21438095Y-73754819D01*
X21438095Y-73754819D02*
X21628571Y-73040533D01*
X21628571Y-73040533D02*
X21819047Y-73754819D01*
X21819047Y-73754819D02*
X22057143Y-72754819D01*
X22438095Y-73754819D02*
X22438095Y-72754819D01*
X22438095Y-72754819D02*
X23009523Y-73754819D01*
X23009523Y-73754819D02*
X23009523Y-72754819D01*
X64238095Y-53304819D02*
X64238095Y-52304819D01*
X64238095Y-52781009D02*
X64809523Y-52781009D01*
X64809523Y-53304819D02*
X64809523Y-52304819D01*
X65809523Y-53304819D02*
X65238095Y-53304819D01*
X65523809Y-53304819D02*
X65523809Y-52304819D01*
X65523809Y-52304819D02*
X65428571Y-52447676D01*
X65428571Y-52447676D02*
X65333333Y-52542914D01*
X65333333Y-52542914D02*
X65238095Y-52590533D01*
X17190476Y-85707200D02*
X17333333Y-85754819D01*
X17333333Y-85754819D02*
X17571428Y-85754819D01*
X17571428Y-85754819D02*
X17666666Y-85707200D01*
X17666666Y-85707200D02*
X17714285Y-85659580D01*
X17714285Y-85659580D02*
X17761904Y-85564342D01*
X17761904Y-85564342D02*
X17761904Y-85469104D01*
X17761904Y-85469104D02*
X17714285Y-85373866D01*
X17714285Y-85373866D02*
X17666666Y-85326247D01*
X17666666Y-85326247D02*
X17571428Y-85278628D01*
X17571428Y-85278628D02*
X17380952Y-85231009D01*
X17380952Y-85231009D02*
X17285714Y-85183390D01*
X17285714Y-85183390D02*
X17238095Y-85135771D01*
X17238095Y-85135771D02*
X17190476Y-85040533D01*
X17190476Y-85040533D02*
X17190476Y-84945295D01*
X17190476Y-84945295D02*
X17238095Y-84850057D01*
X17238095Y-84850057D02*
X17285714Y-84802438D01*
X17285714Y-84802438D02*
X17380952Y-84754819D01*
X17380952Y-84754819D02*
X17619047Y-84754819D01*
X17619047Y-84754819D02*
X17761904Y-84802438D01*
X18095238Y-84754819D02*
X18333333Y-85754819D01*
X18333333Y-85754819D02*
X18523809Y-85040533D01*
X18523809Y-85040533D02*
X18714285Y-85754819D01*
X18714285Y-85754819D02*
X18952381Y-84754819D01*
X19095238Y-85850057D02*
X19857142Y-85850057D01*
X20095238Y-85754819D02*
X20095238Y-84754819D01*
X20095238Y-84754819D02*
X20476190Y-84754819D01*
X20476190Y-84754819D02*
X20571428Y-84802438D01*
X20571428Y-84802438D02*
X20619047Y-84850057D01*
X20619047Y-84850057D02*
X20666666Y-84945295D01*
X20666666Y-84945295D02*
X20666666Y-85088152D01*
X20666666Y-85088152D02*
X20619047Y-85183390D01*
X20619047Y-85183390D02*
X20571428Y-85231009D01*
X20571428Y-85231009D02*
X20476190Y-85278628D01*
X20476190Y-85278628D02*
X20095238Y-85278628D01*
X21000000Y-84754819D02*
X21238095Y-85754819D01*
X21238095Y-85754819D02*
X21428571Y-85040533D01*
X21428571Y-85040533D02*
X21619047Y-85754819D01*
X21619047Y-85754819D02*
X21857143Y-84754819D01*
X22809523Y-85754819D02*
X22476190Y-85278628D01*
X22238095Y-85754819D02*
X22238095Y-84754819D01*
X22238095Y-84754819D02*
X22619047Y-84754819D01*
X22619047Y-84754819D02*
X22714285Y-84802438D01*
X22714285Y-84802438D02*
X22761904Y-84850057D01*
X22761904Y-84850057D02*
X22809523Y-84945295D01*
X22809523Y-84945295D02*
X22809523Y-85088152D01*
X22809523Y-85088152D02*
X22761904Y-85183390D01*
X22761904Y-85183390D02*
X22714285Y-85231009D01*
X22714285Y-85231009D02*
X22619047Y-85278628D01*
X22619047Y-85278628D02*
X22238095Y-85278628D01*
X7795238Y-64707200D02*
X7938095Y-64754819D01*
X7938095Y-64754819D02*
X8176190Y-64754819D01*
X8176190Y-64754819D02*
X8271428Y-64707200D01*
X8271428Y-64707200D02*
X8319047Y-64659580D01*
X8319047Y-64659580D02*
X8366666Y-64564342D01*
X8366666Y-64564342D02*
X8366666Y-64469104D01*
X8366666Y-64469104D02*
X8319047Y-64373866D01*
X8319047Y-64373866D02*
X8271428Y-64326247D01*
X8271428Y-64326247D02*
X8176190Y-64278628D01*
X8176190Y-64278628D02*
X7985714Y-64231009D01*
X7985714Y-64231009D02*
X7890476Y-64183390D01*
X7890476Y-64183390D02*
X7842857Y-64135771D01*
X7842857Y-64135771D02*
X7795238Y-64040533D01*
X7795238Y-64040533D02*
X7795238Y-63945295D01*
X7795238Y-63945295D02*
X7842857Y-63850057D01*
X7842857Y-63850057D02*
X7890476Y-63802438D01*
X7890476Y-63802438D02*
X7985714Y-63754819D01*
X7985714Y-63754819D02*
X8223809Y-63754819D01*
X8223809Y-63754819D02*
X8366666Y-63802438D01*
X8700000Y-63754819D02*
X8938095Y-64754819D01*
X8938095Y-64754819D02*
X9128571Y-64040533D01*
X9128571Y-64040533D02*
X9319047Y-64754819D01*
X9319047Y-64754819D02*
X9557143Y-63754819D01*
X9700000Y-64850057D02*
X10461904Y-64850057D01*
X11176190Y-64754819D02*
X10700000Y-64754819D01*
X10700000Y-64754819D02*
X10700000Y-63754819D01*
X11509524Y-64231009D02*
X11842857Y-64231009D01*
X11985714Y-64754819D02*
X11509524Y-64754819D01*
X11509524Y-64754819D02*
X11509524Y-63754819D01*
X11509524Y-63754819D02*
X11985714Y-63754819D01*
X12747619Y-64231009D02*
X12414286Y-64231009D01*
X12414286Y-64754819D02*
X12414286Y-63754819D01*
X12414286Y-63754819D02*
X12890476Y-63754819D01*
X13128572Y-63754819D02*
X13700000Y-63754819D01*
X13414286Y-64754819D02*
X13414286Y-63754819D01*
X53000000Y-77507200D02*
X53142857Y-77554819D01*
X53142857Y-77554819D02*
X53380952Y-77554819D01*
X53380952Y-77554819D02*
X53476190Y-77507200D01*
X53476190Y-77507200D02*
X53523809Y-77459580D01*
X53523809Y-77459580D02*
X53571428Y-77364342D01*
X53571428Y-77364342D02*
X53571428Y-77269104D01*
X53571428Y-77269104D02*
X53523809Y-77173866D01*
X53523809Y-77173866D02*
X53476190Y-77126247D01*
X53476190Y-77126247D02*
X53380952Y-77078628D01*
X53380952Y-77078628D02*
X53190476Y-77031009D01*
X53190476Y-77031009D02*
X53095238Y-76983390D01*
X53095238Y-76983390D02*
X53047619Y-76935771D01*
X53047619Y-76935771D02*
X53000000Y-76840533D01*
X53000000Y-76840533D02*
X53000000Y-76745295D01*
X53000000Y-76745295D02*
X53047619Y-76650057D01*
X53047619Y-76650057D02*
X53095238Y-76602438D01*
X53095238Y-76602438D02*
X53190476Y-76554819D01*
X53190476Y-76554819D02*
X53428571Y-76554819D01*
X53428571Y-76554819D02*
X53571428Y-76602438D01*
X53904762Y-76554819D02*
X54142857Y-77554819D01*
X54142857Y-77554819D02*
X54333333Y-76840533D01*
X54333333Y-76840533D02*
X54523809Y-77554819D01*
X54523809Y-77554819D02*
X54761905Y-76554819D01*
X54904762Y-77650057D02*
X55666666Y-77650057D01*
X56476190Y-77554819D02*
X56142857Y-77078628D01*
X55904762Y-77554819D02*
X55904762Y-76554819D01*
X55904762Y-76554819D02*
X56285714Y-76554819D01*
X56285714Y-76554819D02*
X56380952Y-76602438D01*
X56380952Y-76602438D02*
X56428571Y-76650057D01*
X56428571Y-76650057D02*
X56476190Y-76745295D01*
X56476190Y-76745295D02*
X56476190Y-76888152D01*
X56476190Y-76888152D02*
X56428571Y-76983390D01*
X56428571Y-76983390D02*
X56380952Y-77031009D01*
X56380952Y-77031009D02*
X56285714Y-77078628D01*
X56285714Y-77078628D02*
X55904762Y-77078628D01*
X56904762Y-77031009D02*
X57238095Y-77031009D01*
X57380952Y-77554819D02*
X56904762Y-77554819D01*
X56904762Y-77554819D02*
X56904762Y-76554819D01*
X56904762Y-76554819D02*
X57380952Y-76554819D01*
X57761905Y-77507200D02*
X57904762Y-77554819D01*
X57904762Y-77554819D02*
X58142857Y-77554819D01*
X58142857Y-77554819D02*
X58238095Y-77507200D01*
X58238095Y-77507200D02*
X58285714Y-77459580D01*
X58285714Y-77459580D02*
X58333333Y-77364342D01*
X58333333Y-77364342D02*
X58333333Y-77269104D01*
X58333333Y-77269104D02*
X58285714Y-77173866D01*
X58285714Y-77173866D02*
X58238095Y-77126247D01*
X58238095Y-77126247D02*
X58142857Y-77078628D01*
X58142857Y-77078628D02*
X57952381Y-77031009D01*
X57952381Y-77031009D02*
X57857143Y-76983390D01*
X57857143Y-76983390D02*
X57809524Y-76935771D01*
X57809524Y-76935771D02*
X57761905Y-76840533D01*
X57761905Y-76840533D02*
X57761905Y-76745295D01*
X57761905Y-76745295D02*
X57809524Y-76650057D01*
X57809524Y-76650057D02*
X57857143Y-76602438D01*
X57857143Y-76602438D02*
X57952381Y-76554819D01*
X57952381Y-76554819D02*
X58190476Y-76554819D01*
X58190476Y-76554819D02*
X58333333Y-76602438D01*
X58761905Y-77031009D02*
X59095238Y-77031009D01*
X59238095Y-77554819D02*
X58761905Y-77554819D01*
X58761905Y-77554819D02*
X58761905Y-76554819D01*
X58761905Y-76554819D02*
X59238095Y-76554819D01*
X59523810Y-76554819D02*
X60095238Y-76554819D01*
X59809524Y-77554819D02*
X59809524Y-76554819D01*
X70452381Y-56306819D02*
X71023809Y-56306819D01*
X70738095Y-57306819D02*
X70738095Y-56306819D01*
X71357143Y-57306819D02*
X71357143Y-56306819D01*
X71357143Y-56306819D02*
X71738095Y-56306819D01*
X71738095Y-56306819D02*
X71833333Y-56354438D01*
X71833333Y-56354438D02*
X71880952Y-56402057D01*
X71880952Y-56402057D02*
X71928571Y-56497295D01*
X71928571Y-56497295D02*
X71928571Y-56640152D01*
X71928571Y-56640152D02*
X71880952Y-56735390D01*
X71880952Y-56735390D02*
X71833333Y-56783009D01*
X71833333Y-56783009D02*
X71738095Y-56830628D01*
X71738095Y-56830628D02*
X71357143Y-56830628D01*
X72119048Y-57402057D02*
X72880952Y-57402057D01*
X73071429Y-57259200D02*
X73214286Y-57306819D01*
X73214286Y-57306819D02*
X73452381Y-57306819D01*
X73452381Y-57306819D02*
X73547619Y-57259200D01*
X73547619Y-57259200D02*
X73595238Y-57211580D01*
X73595238Y-57211580D02*
X73642857Y-57116342D01*
X73642857Y-57116342D02*
X73642857Y-57021104D01*
X73642857Y-57021104D02*
X73595238Y-56925866D01*
X73595238Y-56925866D02*
X73547619Y-56878247D01*
X73547619Y-56878247D02*
X73452381Y-56830628D01*
X73452381Y-56830628D02*
X73261905Y-56783009D01*
X73261905Y-56783009D02*
X73166667Y-56735390D01*
X73166667Y-56735390D02*
X73119048Y-56687771D01*
X73119048Y-56687771D02*
X73071429Y-56592533D01*
X73071429Y-56592533D02*
X73071429Y-56497295D01*
X73071429Y-56497295D02*
X73119048Y-56402057D01*
X73119048Y-56402057D02*
X73166667Y-56354438D01*
X73166667Y-56354438D02*
X73261905Y-56306819D01*
X73261905Y-56306819D02*
X73500000Y-56306819D01*
X73500000Y-56306819D02*
X73642857Y-56354438D01*
X74642857Y-57211580D02*
X74595238Y-57259200D01*
X74595238Y-57259200D02*
X74452381Y-57306819D01*
X74452381Y-57306819D02*
X74357143Y-57306819D01*
X74357143Y-57306819D02*
X74214286Y-57259200D01*
X74214286Y-57259200D02*
X74119048Y-57163961D01*
X74119048Y-57163961D02*
X74071429Y-57068723D01*
X74071429Y-57068723D02*
X74023810Y-56878247D01*
X74023810Y-56878247D02*
X74023810Y-56735390D01*
X74023810Y-56735390D02*
X74071429Y-56544914D01*
X74071429Y-56544914D02*
X74119048Y-56449676D01*
X74119048Y-56449676D02*
X74214286Y-56354438D01*
X74214286Y-56354438D02*
X74357143Y-56306819D01*
X74357143Y-56306819D02*
X74452381Y-56306819D01*
X74452381Y-56306819D02*
X74595238Y-56354438D01*
X74595238Y-56354438D02*
X74642857Y-56402057D01*
X75547619Y-57306819D02*
X75071429Y-57306819D01*
X75071429Y-57306819D02*
X75071429Y-56306819D01*
%TO.C,SW_RIGHT*%
D11*
X26250000Y-69075000D02*
X26250000Y-68525000D01*
X27275000Y-66950000D02*
X26350000Y-66950000D01*
X31050000Y-66950000D02*
X30125000Y-66950000D01*
X31050000Y-70650000D02*
X26350000Y-70650000D01*
X31150000Y-69075000D02*
X31150000Y-68525000D01*
%TO.C,SW_MUTE*%
X62550000Y-88430000D02*
X62550000Y-89220000D01*
X63150000Y-90230000D02*
X68850000Y-90230000D01*
X64400000Y-87380000D02*
X66100000Y-87380000D01*
X64600000Y-90230000D02*
X64600000Y-91520000D01*
X64600000Y-91520000D02*
X64800000Y-91730000D01*
X64800000Y-91730000D02*
X65700000Y-91730000D01*
X65900000Y-91520000D02*
X65700000Y-91730000D01*
X65900000Y-91520000D02*
X65900000Y-90230000D01*
X67400000Y-87380000D02*
X67600000Y-87380000D01*
X69450000Y-89220000D02*
X69450000Y-88430000D01*
%TO.C,SW_UNDO*%
X57950000Y-66075000D02*
X57950000Y-65525000D01*
X58975000Y-63950000D02*
X58050000Y-63950000D01*
X62750000Y-63950000D02*
X61825000Y-63950000D01*
X62750000Y-67650000D02*
X58050000Y-67650000D01*
X62850000Y-66075000D02*
X62850000Y-65525000D01*
%TO.C,J_I2C*%
X9765000Y-54760000D02*
X9765000Y-56210000D01*
X9765000Y-56210000D02*
X11565000Y-56210000D01*
X16435000Y-56210000D02*
X16435000Y-57200000D01*
X16965000Y-51940000D02*
X11035000Y-51940000D01*
X18235000Y-54760000D02*
X18235000Y-56210000D01*
X18235000Y-56210000D02*
X16435000Y-56210000D01*
%TO.C,SW_MENU*%
X37150000Y-85675000D02*
X37150000Y-85125000D01*
X38175000Y-83550000D02*
X37250000Y-83550000D01*
X41950000Y-83550000D02*
X41025000Y-83550000D01*
X41950000Y-87250000D02*
X37250000Y-87250000D01*
X42050000Y-85675000D02*
X42050000Y-85125000D01*
%TO.C,J_BAT*%
X41015000Y-54760000D02*
X41015000Y-56210000D01*
X41015000Y-56210000D02*
X42815000Y-56210000D01*
X45185000Y-56210000D02*
X45185000Y-57200000D01*
X45715000Y-51940000D02*
X42285000Y-51940000D01*
X46985000Y-54760000D02*
X46985000Y-56210000D01*
X46985000Y-56210000D02*
X45185000Y-56210000D01*
%TO.C,TP_GND*%
X67950000Y-58500000D02*
G75*
G02*
X66050000Y-58500000I-950000J0D01*
G01*
X66050000Y-58500000D02*
G75*
G02*
X67950000Y-58500000I950000J0D01*
G01*
%TO.C,SW_ACTION*%
X74650000Y-61375000D02*
X74650000Y-60825000D01*
X75675000Y-59250000D02*
X74750000Y-59250000D01*
X79450000Y-59250000D02*
X78525000Y-59250000D01*
X79450000Y-62950000D02*
X74750000Y-62950000D01*
X79550000Y-61375000D02*
X79550000Y-60825000D01*
%TO.C,SW_UP*%
X17250000Y-60075000D02*
X17250000Y-59525000D01*
X18275000Y-57950000D02*
X17350000Y-57950000D01*
X22050000Y-57950000D02*
X21125000Y-57950000D01*
X22050000Y-61650000D02*
X17350000Y-61650000D01*
X22150000Y-60075000D02*
X22150000Y-59525000D01*
%TO.C,TP_INT*%
X76950000Y-58500000D02*
G75*
G02*
X75050000Y-58500000I-950000J0D01*
G01*
X75050000Y-58500000D02*
G75*
G02*
X76950000Y-58500000I950000J0D01*
G01*
%TO.C,U1*%
X20940000Y-58140000D02*
X21185000Y-58140000D01*
X20940000Y-65860000D02*
X20940000Y-58140000D01*
X21185000Y-65860000D02*
X20940000Y-65860000D01*
X38815000Y-58140000D02*
X39060000Y-58140000D01*
X39060000Y-58140000D02*
X39060000Y-65860000D01*
X39060000Y-65860000D02*
X38815000Y-65860000D01*
X21180000Y-66650000D02*
X20710000Y-66990000D01*
X20710000Y-66310000D01*
X21180000Y-66650000D01*
G36*
X21180000Y-66650000D02*
G01*
X20710000Y-66990000D01*
X20710000Y-66310000D01*
X21180000Y-66650000D01*
G37*
%TO.C,TP_SDA*%
X70950000Y-58500000D02*
G75*
G02*
X69050000Y-58500000I-950000J0D01*
G01*
X69050000Y-58500000D02*
G75*
G02*
X70950000Y-58500000I950000J0D01*
G01*
%TO.C,J_SPK*%
X27015000Y-54760000D02*
X27015000Y-56210000D01*
X27015000Y-56210000D02*
X28815000Y-56210000D01*
X31185000Y-56210000D02*
X31185000Y-57200000D01*
X31715000Y-51940000D02*
X28285000Y-51940000D01*
X32985000Y-54760000D02*
X32985000Y-56210000D01*
X32985000Y-56210000D02*
X31185000Y-56210000D01*
%TO.C,TP_3V3*%
X64950000Y-58500000D02*
G75*
G02*
X63050000Y-58500000I-950000J0D01*
G01*
X63050000Y-58500000D02*
G75*
G02*
X64950000Y-58500000I950000J0D01*
G01*
%TO.C,SW_DOWN*%
X17250000Y-78075000D02*
X17250000Y-77525000D01*
X18275000Y-75950000D02*
X17350000Y-75950000D01*
X22050000Y-75950000D02*
X21125000Y-75950000D01*
X22050000Y-79650000D02*
X17350000Y-79650000D01*
X22150000Y-78075000D02*
X22150000Y-77525000D01*
%TO.C,SW_PWR*%
X16550000Y-88430000D02*
X16550000Y-89220000D01*
X17150000Y-90230000D02*
X22850000Y-90230000D01*
X18400000Y-87380000D02*
X20100000Y-87380000D01*
X18600000Y-90230000D02*
X18600000Y-91520000D01*
X18600000Y-91520000D02*
X18800000Y-91730000D01*
X18800000Y-91730000D02*
X19700000Y-91730000D01*
X19900000Y-91520000D02*
X19700000Y-91730000D01*
X19900000Y-91520000D02*
X19900000Y-90230000D01*
X21400000Y-87380000D02*
X21600000Y-87380000D01*
X23450000Y-89220000D02*
X23450000Y-88430000D01*
%TO.C,SW_LEFT*%
X8250000Y-69075000D02*
X8250000Y-68525000D01*
X9275000Y-66950000D02*
X8350000Y-66950000D01*
X13050000Y-66950000D02*
X12125000Y-66950000D01*
X13050000Y-70650000D02*
X8350000Y-70650000D01*
X13150000Y-69075000D02*
X13150000Y-68525000D01*
%TO.C,SW_RESET*%
X54050000Y-81875000D02*
X54050000Y-81325000D01*
X55075000Y-79750000D02*
X54150000Y-79750000D01*
X58850000Y-79750000D02*
X57925000Y-79750000D01*
X58850000Y-83450000D02*
X54150000Y-83450000D01*
X58950000Y-81875000D02*
X58950000Y-81325000D01*
%TO.C,TP_SCL*%
X73950000Y-58500000D02*
G75*
G02*
X72050000Y-58500000I-950000J0D01*
G01*
X72050000Y-58500000D02*
G75*
G02*
X73950000Y-58500000I950000J0D01*
G01*
%TD*%
M02*
