%TF.GenerationSoftware,KiCad,Pcbnew,10.0.4*%
%TF.CreationDate,2026-08-02T19:12:27+02:00*%
%TF.ProjectId,pocket_card_controller,706f636b-6574-45f6-9361-72645f636f6e,rev?*%
%TF.SameCoordinates,Original*%
%TF.FileFunction,Other,User*%
%FSLAX46Y46*%
G04 Gerber Fmt 4.6, Leading zero omitted, Abs format (unit mm)*
G04 Created by KiCad (PCBNEW 10.0.4) date 2026-08-02 19:12:27*
%MOMM*%
%LPD*%
G01*
G04 APERTURE LIST*
%ADD10C,0.050000*%
G04 APERTURE END LIST*
%TO.C,J_EXP*%
D10*
X73270000Y-62500000D02*
X73370000Y-62500000D01*
X73270000Y-66200000D02*
X73270000Y-62500000D01*
X73370000Y-60900000D02*
X75320000Y-60900000D01*
X73370000Y-62500000D02*
X73370000Y-60900000D01*
X75280000Y-65950000D02*
X75280000Y-66200000D01*
X75280000Y-66200000D02*
X73270000Y-66200000D01*
X75320000Y-59800000D02*
X80680000Y-59800000D01*
X75320000Y-60900000D02*
X75320000Y-59800000D01*
X80680000Y-59800000D02*
X80680000Y-60900000D01*
X80680000Y-60900000D02*
X82630000Y-60900000D01*
X80720000Y-65950000D02*
X75280000Y-65950000D01*
X80720000Y-66200000D02*
X80720000Y-65950000D01*
X82630000Y-60900000D02*
X82630000Y-62500000D01*
X82630000Y-62500000D02*
X82730000Y-62500000D01*
X82730000Y-62500000D02*
X82730000Y-66200000D01*
X82730000Y-66200000D02*
X80720000Y-66200000D01*
%TO.C,J_I2C*%
X58270000Y-62500000D02*
X58370000Y-62500000D01*
X58270000Y-66200000D02*
X58270000Y-62500000D01*
X58370000Y-60900000D02*
X60320000Y-60900000D01*
X58370000Y-62500000D02*
X58370000Y-60900000D01*
X60280000Y-65950000D02*
X60280000Y-66200000D01*
X60280000Y-66200000D02*
X58270000Y-66200000D01*
X60320000Y-59800000D02*
X65680000Y-59800000D01*
X60320000Y-60900000D02*
X60320000Y-59800000D01*
X65680000Y-59800000D02*
X65680000Y-60900000D01*
X65680000Y-60900000D02*
X67630000Y-60900000D01*
X65720000Y-65950000D02*
X60280000Y-65950000D01*
X65720000Y-66200000D02*
X65720000Y-65950000D01*
X67630000Y-60900000D02*
X67630000Y-62500000D01*
X67630000Y-62500000D02*
X67730000Y-62500000D01*
X67730000Y-62500000D02*
X67730000Y-66200000D01*
X67730000Y-66200000D02*
X65720000Y-66200000D01*
%TO.C,J_BAT_IN*%
X59520000Y-75500000D02*
X59620000Y-75500000D01*
X59520000Y-79200000D02*
X59520000Y-75500000D01*
X59620000Y-73900000D02*
X61570000Y-73900000D01*
X59620000Y-75500000D02*
X59620000Y-73900000D01*
X61530000Y-78950000D02*
X61530000Y-79200000D01*
X61530000Y-79200000D02*
X59520000Y-79200000D01*
X61570000Y-72800000D02*
X64430000Y-72800000D01*
X61570000Y-73900000D02*
X61570000Y-72800000D01*
X64430000Y-72800000D02*
X64430000Y-73900000D01*
X64430000Y-73900000D02*
X66380000Y-73900000D01*
X64470000Y-78950000D02*
X61530000Y-78950000D01*
X64470000Y-79200000D02*
X64470000Y-78950000D01*
X66380000Y-73900000D02*
X66380000Y-75500000D01*
X66380000Y-75500000D02*
X66480000Y-75500000D01*
X66480000Y-75500000D02*
X66480000Y-79200000D01*
X66480000Y-79200000D02*
X64470000Y-79200000D01*
%TO.C,J_BAT_OUT*%
X74520000Y-75500000D02*
X74620000Y-75500000D01*
X74520000Y-79200000D02*
X74520000Y-75500000D01*
X74620000Y-73900000D02*
X76570000Y-73900000D01*
X74620000Y-75500000D02*
X74620000Y-73900000D01*
X76530000Y-78950000D02*
X76530000Y-79200000D01*
X76530000Y-79200000D02*
X74520000Y-79200000D01*
X76570000Y-72800000D02*
X79430000Y-72800000D01*
X76570000Y-73900000D02*
X76570000Y-72800000D01*
X79430000Y-72800000D02*
X79430000Y-73900000D01*
X79430000Y-73900000D02*
X81380000Y-73900000D01*
X79470000Y-78950000D02*
X76530000Y-78950000D01*
X79470000Y-79200000D02*
X79470000Y-78950000D01*
X81380000Y-73900000D02*
X81380000Y-75500000D01*
X81380000Y-75500000D02*
X81480000Y-75500000D01*
X81480000Y-75500000D02*
X81480000Y-79200000D01*
X81480000Y-79200000D02*
X79470000Y-79200000D01*
%TD*%
M02*
