%TF.GenerationSoftware,KiCad,Pcbnew,10.0.4*%
%TF.CreationDate,2026-08-29T00:24:19+02:00*%
%TF.ProjectId,pocket_card_controller,706f636b-6574-45f6-9361-72645f636f6e,rev?*%
%TF.SameCoordinates,Original*%
%TF.FileFunction,Legend,Top*%
%TF.FilePolarity,Positive*%
%FSLAX46Y46*%
G04 Gerber Fmt 4.6, Leading zero omitted, Abs format (unit mm)*
G04 Created by KiCad (PCBNEW 10.0.4) date 2026-08-29 00:24:19*
%MOMM*%
%LPD*%
G01*
G04 APERTURE LIST*
G04 Aperture macros list*
%AMRoundRect*
0 Rectangle with rounded corners*
0 $1 Rounding radius*
0 $2 $3 $4 $5 $6 $7 $8 $9 X,Y pos of 4 corners*
0 Add a 4 corners polygon primitive as box body*
4,1,4,$2,$3,$4,$5,$6,$7,$8,$9,$2,$3,0*
0 Add four circle primitives for the rounded corners*
1,1,$1+$1,$2,$3*
1,1,$1+$1,$4,$5*
1,1,$1+$1,$6,$7*
1,1,$1+$1,$8,$9*
0 Add four rect primitives between the rounded corners*
20,1,$1+$1,$2,$3,$4,$5,0*
20,1,$1+$1,$4,$5,$6,$7,0*
20,1,$1+$1,$6,$7,$8,$9,0*
20,1,$1+$1,$8,$9,$2,$3,0*%
G04 Aperture macros list end*
%ADD10C,0.150000*%
%ADD11C,0.120000*%
%ADD12C,2.700000*%
%ADD13R,1.800000X1.100000*%
%ADD14R,1.000000X0.800000*%
%ADD15C,0.900000*%
%ADD16R,0.700000X1.500000*%
%ADD17RoundRect,0.150000X-0.875000X-0.150000X0.875000X-0.150000X0.875000X0.150000X-0.875000X0.150000X0*%
G04 APERTURE END LIST*
G36*
X20650000Y-87300000D02*
G01*
X20800000Y-87300000D01*
X20800000Y-87800000D01*
X20650000Y-87800000D01*
X20650000Y-87300000D01*
G37*
G36*
X21450000Y-87050000D02*
G01*
X21600000Y-87050000D01*
X21600000Y-87150000D01*
X21450000Y-87150000D01*
X21450000Y-87050000D01*
G37*
G36*
X21450000Y-87150000D02*
G01*
X21550000Y-87150000D01*
X21550000Y-87250000D01*
X21450000Y-87250000D01*
X21450000Y-87150000D01*
G37*
G36*
X21500000Y-86950000D02*
G01*
X21600000Y-86950000D01*
X21600000Y-87050000D01*
X21500000Y-87050000D01*
X21500000Y-86950000D01*
G37*
G36*
X21550000Y-86900000D02*
G01*
X21600000Y-86900000D01*
X21600000Y-86950000D01*
X21550000Y-86950000D01*
X21550000Y-86900000D01*
G37*
G36*
X22300000Y-87300000D02*
G01*
X22400000Y-87300000D01*
X22400000Y-87550000D01*
X22300000Y-87550000D01*
X22300000Y-87300000D01*
G37*
G36*
X22300000Y-87550000D02*
G01*
X22500000Y-87550000D01*
X22500000Y-87600000D01*
X22300000Y-87600000D01*
X22300000Y-87550000D01*
G37*
G36*
X22350000Y-87600000D02*
G01*
X22500000Y-87600000D01*
X22500000Y-87750000D01*
X22350000Y-87750000D01*
X22350000Y-87600000D01*
G37*
G36*
X22350000Y-87750000D02*
G01*
X22450000Y-87750000D01*
X22450000Y-87800000D01*
X22350000Y-87800000D01*
X22350000Y-87750000D01*
G37*
G36*
X22450000Y-87450000D02*
G01*
X22550000Y-87450000D01*
X22550000Y-87550000D01*
X22450000Y-87550000D01*
X22450000Y-87450000D01*
G37*
G36*
X22500000Y-87300000D02*
G01*
X22600000Y-87300000D01*
X22600000Y-87400000D01*
X22500000Y-87400000D01*
X22500000Y-87300000D01*
G37*
G36*
X22500000Y-87400000D02*
G01*
X22550000Y-87400000D01*
X22550000Y-87450000D01*
X22500000Y-87450000D01*
X22500000Y-87400000D01*
G37*
G36*
X22650000Y-87300000D02*
G01*
X22750000Y-87300000D01*
X22750000Y-87450000D01*
X22650000Y-87450000D01*
X22650000Y-87300000D01*
G37*
G36*
X22700000Y-87450000D02*
G01*
X22750000Y-87450000D01*
X22750000Y-87500000D01*
X22700000Y-87500000D01*
X22700000Y-87450000D01*
G37*
G36*
X22700000Y-87500000D02*
G01*
X22800000Y-87500000D01*
X22800000Y-87550000D01*
X22700000Y-87550000D01*
X22700000Y-87500000D01*
G37*
G36*
X22700000Y-87550000D02*
G01*
X22850000Y-87550000D01*
X22850000Y-87600000D01*
X22700000Y-87600000D01*
X22700000Y-87550000D01*
G37*
G36*
X22750000Y-87600000D02*
G01*
X22900000Y-87600000D01*
X22900000Y-87750000D01*
X22750000Y-87750000D01*
X22750000Y-87600000D01*
G37*
G36*
X22800000Y-87750000D02*
G01*
X22900000Y-87750000D01*
X22900000Y-87800000D01*
X22800000Y-87800000D01*
X22800000Y-87750000D01*
G37*
G36*
X23150000Y-87600000D02*
G01*
X23300000Y-87600000D01*
X23300000Y-87700000D01*
X23150000Y-87700000D01*
X23150000Y-87600000D01*
G37*
G36*
X23150000Y-87700000D02*
G01*
X23700000Y-87700000D01*
X23700000Y-87800000D01*
X23150000Y-87800000D01*
X23150000Y-87700000D01*
G37*
G36*
X24000000Y-87600000D02*
G01*
X24100000Y-87600000D01*
X24100000Y-87800000D01*
X24000000Y-87800000D01*
X24000000Y-87600000D01*
G37*
G36*
X24400000Y-87600000D02*
G01*
X24550000Y-87600000D01*
X24550000Y-87650000D01*
X24400000Y-87650000D01*
X24400000Y-87600000D01*
G37*
G36*
X24450000Y-86900000D02*
G01*
X24500000Y-86900000D01*
X24500000Y-86950000D01*
X24450000Y-86950000D01*
X24450000Y-86900000D01*
G37*
G36*
X24450000Y-86950000D02*
G01*
X24550000Y-86950000D01*
X24550000Y-87200000D01*
X24450000Y-87200000D01*
X24450000Y-86950000D01*
G37*
G36*
X24450000Y-87200000D02*
G01*
X24500000Y-87200000D01*
X24500000Y-87250000D01*
X24450000Y-87250000D01*
X24450000Y-87200000D01*
G37*
G36*
X24450000Y-87550000D02*
G01*
X24500000Y-87550000D01*
X24500000Y-87600000D01*
X24450000Y-87600000D01*
X24450000Y-87550000D01*
G37*
G36*
X24450000Y-87650000D02*
G01*
X24550000Y-87650000D01*
X24550000Y-87700000D01*
X24450000Y-87700000D01*
X24450000Y-87650000D01*
G37*
G36*
X24450000Y-87700000D02*
G01*
X24600000Y-87700000D01*
X24600000Y-87750000D01*
X24450000Y-87750000D01*
X24450000Y-87700000D01*
G37*
G36*
X24500000Y-87750000D02*
G01*
X24650000Y-87750000D01*
X24650000Y-87800000D01*
X24500000Y-87800000D01*
X24500000Y-87750000D01*
G37*
G36*
X59400000Y-87000000D02*
G01*
X59650000Y-87000000D01*
X59650000Y-87100000D01*
X59400000Y-87100000D01*
X59400000Y-87000000D01*
G37*
G36*
X59400000Y-87100000D02*
G01*
X59450000Y-87100000D01*
X59450000Y-87250000D01*
X59400000Y-87250000D01*
X59400000Y-87100000D01*
G37*
G36*
X59450000Y-86900000D02*
G01*
X59650000Y-86900000D01*
X59650000Y-87000000D01*
X59450000Y-87000000D01*
X59450000Y-86900000D01*
G37*
G36*
X59500000Y-86850000D02*
G01*
X59650000Y-86850000D01*
X59650000Y-86900000D01*
X59500000Y-86900000D01*
X59500000Y-86850000D01*
G37*
G36*
X59500000Y-87100000D02*
G01*
X59650000Y-87100000D01*
X59650000Y-87250000D01*
X59500000Y-87250000D01*
X59500000Y-87100000D01*
G37*
G36*
X60250000Y-87700000D02*
G01*
X60400000Y-87700000D01*
X60400000Y-87750000D01*
X60250000Y-87750000D01*
X60250000Y-87700000D01*
G37*
G36*
X60250000Y-87750000D02*
G01*
X60300000Y-87750000D01*
X60300000Y-87800000D01*
X60250000Y-87800000D01*
X60250000Y-87750000D01*
G37*
G36*
X60300000Y-87600000D02*
G01*
X60450000Y-87600000D01*
X60450000Y-87650000D01*
X60300000Y-87650000D01*
X60300000Y-87600000D01*
G37*
G36*
X60300000Y-87650000D02*
G01*
X60400000Y-87650000D01*
X60400000Y-87700000D01*
X60300000Y-87700000D01*
X60300000Y-87650000D01*
G37*
G36*
X60350000Y-87300000D02*
G01*
X60450000Y-87300000D01*
X60450000Y-87600000D01*
X60350000Y-87600000D01*
X60350000Y-87300000D01*
G37*
G36*
X60950000Y-87600000D02*
G01*
X61100000Y-87600000D01*
X61100000Y-87800000D01*
X60950000Y-87800000D01*
X60950000Y-87600000D01*
G37*
G36*
X61550000Y-87600000D02*
G01*
X61700000Y-87600000D01*
X61700000Y-87700000D01*
X61550000Y-87700000D01*
X61550000Y-87600000D01*
G37*
G36*
X61550000Y-87700000D02*
G01*
X62100000Y-87700000D01*
X62100000Y-87800000D01*
X61550000Y-87800000D01*
X61550000Y-87700000D01*
G37*
D10*
X63738095Y-80804819D02*
X63738095Y-79804819D01*
X63738095Y-80281009D02*
X64309523Y-80281009D01*
X64309523Y-80804819D02*
X64309523Y-79804819D01*
X64738095Y-79900057D02*
X64785714Y-79852438D01*
X64785714Y-79852438D02*
X64880952Y-79804819D01*
X64880952Y-79804819D02*
X65119047Y-79804819D01*
X65119047Y-79804819D02*
X65214285Y-79852438D01*
X65214285Y-79852438D02*
X65261904Y-79900057D01*
X65261904Y-79900057D02*
X65309523Y-79995295D01*
X65309523Y-79995295D02*
X65309523Y-80090533D01*
X65309523Y-80090533D02*
X65261904Y-80233390D01*
X65261904Y-80233390D02*
X64690476Y-80804819D01*
X64690476Y-80804819D02*
X65309523Y-80804819D01*
X16961905Y-56607200D02*
X17104762Y-56654819D01*
X17104762Y-56654819D02*
X17342857Y-56654819D01*
X17342857Y-56654819D02*
X17438095Y-56607200D01*
X17438095Y-56607200D02*
X17485714Y-56559580D01*
X17485714Y-56559580D02*
X17533333Y-56464342D01*
X17533333Y-56464342D02*
X17533333Y-56369104D01*
X17533333Y-56369104D02*
X17485714Y-56273866D01*
X17485714Y-56273866D02*
X17438095Y-56226247D01*
X17438095Y-56226247D02*
X17342857Y-56178628D01*
X17342857Y-56178628D02*
X17152381Y-56131009D01*
X17152381Y-56131009D02*
X17057143Y-56083390D01*
X17057143Y-56083390D02*
X17009524Y-56035771D01*
X17009524Y-56035771D02*
X16961905Y-55940533D01*
X16961905Y-55940533D02*
X16961905Y-55845295D01*
X16961905Y-55845295D02*
X17009524Y-55750057D01*
X17009524Y-55750057D02*
X17057143Y-55702438D01*
X17057143Y-55702438D02*
X17152381Y-55654819D01*
X17152381Y-55654819D02*
X17390476Y-55654819D01*
X17390476Y-55654819D02*
X17533333Y-55702438D01*
X17866667Y-55654819D02*
X18104762Y-56654819D01*
X18104762Y-56654819D02*
X18295238Y-55940533D01*
X18295238Y-55940533D02*
X18485714Y-56654819D01*
X18485714Y-56654819D02*
X18723810Y-55654819D01*
X18866667Y-56750057D02*
X19628571Y-56750057D01*
X19866667Y-55654819D02*
X19866667Y-56464342D01*
X19866667Y-56464342D02*
X19914286Y-56559580D01*
X19914286Y-56559580D02*
X19961905Y-56607200D01*
X19961905Y-56607200D02*
X20057143Y-56654819D01*
X20057143Y-56654819D02*
X20247619Y-56654819D01*
X20247619Y-56654819D02*
X20342857Y-56607200D01*
X20342857Y-56607200D02*
X20390476Y-56559580D01*
X20390476Y-56559580D02*
X20438095Y-56464342D01*
X20438095Y-56464342D02*
X20438095Y-55654819D01*
X20914286Y-56654819D02*
X20914286Y-55654819D01*
X20914286Y-55654819D02*
X21295238Y-55654819D01*
X21295238Y-55654819D02*
X21390476Y-55702438D01*
X21390476Y-55702438D02*
X21438095Y-55750057D01*
X21438095Y-55750057D02*
X21485714Y-55845295D01*
X21485714Y-55845295D02*
X21485714Y-55988152D01*
X21485714Y-55988152D02*
X21438095Y-56083390D01*
X21438095Y-56083390D02*
X21390476Y-56131009D01*
X21390476Y-56131009D02*
X21295238Y-56178628D01*
X21295238Y-56178628D02*
X20914286Y-56178628D01*
X22438095Y-56654819D02*
X21866667Y-56654819D01*
X22152381Y-56654819D02*
X22152381Y-55654819D01*
X22152381Y-55654819D02*
X22057143Y-55797676D01*
X22057143Y-55797676D02*
X21961905Y-55892914D01*
X21961905Y-55892914D02*
X21866667Y-55940533D01*
X72790476Y-57907200D02*
X72933333Y-57954819D01*
X72933333Y-57954819D02*
X73171428Y-57954819D01*
X73171428Y-57954819D02*
X73266666Y-57907200D01*
X73266666Y-57907200D02*
X73314285Y-57859580D01*
X73314285Y-57859580D02*
X73361904Y-57764342D01*
X73361904Y-57764342D02*
X73361904Y-57669104D01*
X73361904Y-57669104D02*
X73314285Y-57573866D01*
X73314285Y-57573866D02*
X73266666Y-57526247D01*
X73266666Y-57526247D02*
X73171428Y-57478628D01*
X73171428Y-57478628D02*
X72980952Y-57431009D01*
X72980952Y-57431009D02*
X72885714Y-57383390D01*
X72885714Y-57383390D02*
X72838095Y-57335771D01*
X72838095Y-57335771D02*
X72790476Y-57240533D01*
X72790476Y-57240533D02*
X72790476Y-57145295D01*
X72790476Y-57145295D02*
X72838095Y-57050057D01*
X72838095Y-57050057D02*
X72885714Y-57002438D01*
X72885714Y-57002438D02*
X72980952Y-56954819D01*
X72980952Y-56954819D02*
X73219047Y-56954819D01*
X73219047Y-56954819D02*
X73361904Y-57002438D01*
X73695238Y-56954819D02*
X73933333Y-57954819D01*
X73933333Y-57954819D02*
X74123809Y-57240533D01*
X74123809Y-57240533D02*
X74314285Y-57954819D01*
X74314285Y-57954819D02*
X74552381Y-56954819D01*
X74695238Y-58050057D02*
X75457142Y-58050057D01*
X75647619Y-57669104D02*
X76123809Y-57669104D01*
X75552381Y-57954819D02*
X75885714Y-56954819D01*
X75885714Y-56954819D02*
X76219047Y-57954819D01*
X77123809Y-57859580D02*
X77076190Y-57907200D01*
X77076190Y-57907200D02*
X76933333Y-57954819D01*
X76933333Y-57954819D02*
X76838095Y-57954819D01*
X76838095Y-57954819D02*
X76695238Y-57907200D01*
X76695238Y-57907200D02*
X76600000Y-57811961D01*
X76600000Y-57811961D02*
X76552381Y-57716723D01*
X76552381Y-57716723D02*
X76504762Y-57526247D01*
X76504762Y-57526247D02*
X76504762Y-57383390D01*
X76504762Y-57383390D02*
X76552381Y-57192914D01*
X76552381Y-57192914D02*
X76600000Y-57097676D01*
X76600000Y-57097676D02*
X76695238Y-57002438D01*
X76695238Y-57002438D02*
X76838095Y-56954819D01*
X76838095Y-56954819D02*
X76933333Y-56954819D01*
X76933333Y-56954819D02*
X77076190Y-57002438D01*
X77076190Y-57002438D02*
X77123809Y-57050057D01*
X77409524Y-56954819D02*
X77980952Y-56954819D01*
X77695238Y-57954819D02*
X77695238Y-56954819D01*
X78314286Y-57954819D02*
X78314286Y-56954819D01*
X78980952Y-56954819D02*
X79171428Y-56954819D01*
X79171428Y-56954819D02*
X79266666Y-57002438D01*
X79266666Y-57002438D02*
X79361904Y-57097676D01*
X79361904Y-57097676D02*
X79409523Y-57288152D01*
X79409523Y-57288152D02*
X79409523Y-57621485D01*
X79409523Y-57621485D02*
X79361904Y-57811961D01*
X79361904Y-57811961D02*
X79266666Y-57907200D01*
X79266666Y-57907200D02*
X79171428Y-57954819D01*
X79171428Y-57954819D02*
X78980952Y-57954819D01*
X78980952Y-57954819D02*
X78885714Y-57907200D01*
X78885714Y-57907200D02*
X78790476Y-57811961D01*
X78790476Y-57811961D02*
X78742857Y-57621485D01*
X78742857Y-57621485D02*
X78742857Y-57288152D01*
X78742857Y-57288152D02*
X78790476Y-57097676D01*
X78790476Y-57097676D02*
X78885714Y-57002438D01*
X78885714Y-57002438D02*
X78980952Y-56954819D01*
X79838095Y-57954819D02*
X79838095Y-56954819D01*
X79838095Y-56954819D02*
X80409523Y-57954819D01*
X80409523Y-57954819D02*
X80409523Y-56954819D01*
X81409523Y-57954819D02*
X80838095Y-57954819D01*
X81123809Y-57954819D02*
X81123809Y-56954819D01*
X81123809Y-56954819D02*
X81028571Y-57097676D01*
X81028571Y-57097676D02*
X80933333Y-57192914D01*
X80933333Y-57192914D02*
X80838095Y-57240533D01*
X50523809Y-76807200D02*
X50666666Y-76854819D01*
X50666666Y-76854819D02*
X50904761Y-76854819D01*
X50904761Y-76854819D02*
X50999999Y-76807200D01*
X50999999Y-76807200D02*
X51047618Y-76759580D01*
X51047618Y-76759580D02*
X51095237Y-76664342D01*
X51095237Y-76664342D02*
X51095237Y-76569104D01*
X51095237Y-76569104D02*
X51047618Y-76473866D01*
X51047618Y-76473866D02*
X50999999Y-76426247D01*
X50999999Y-76426247D02*
X50904761Y-76378628D01*
X50904761Y-76378628D02*
X50714285Y-76331009D01*
X50714285Y-76331009D02*
X50619047Y-76283390D01*
X50619047Y-76283390D02*
X50571428Y-76235771D01*
X50571428Y-76235771D02*
X50523809Y-76140533D01*
X50523809Y-76140533D02*
X50523809Y-76045295D01*
X50523809Y-76045295D02*
X50571428Y-75950057D01*
X50571428Y-75950057D02*
X50619047Y-75902438D01*
X50619047Y-75902438D02*
X50714285Y-75854819D01*
X50714285Y-75854819D02*
X50952380Y-75854819D01*
X50952380Y-75854819D02*
X51095237Y-75902438D01*
X51428571Y-75854819D02*
X51666666Y-76854819D01*
X51666666Y-76854819D02*
X51857142Y-76140533D01*
X51857142Y-76140533D02*
X52047618Y-76854819D01*
X52047618Y-76854819D02*
X52285714Y-75854819D01*
X52428571Y-76950057D02*
X53190475Y-76950057D01*
X53999999Y-76854819D02*
X53666666Y-76378628D01*
X53428571Y-76854819D02*
X53428571Y-75854819D01*
X53428571Y-75854819D02*
X53809523Y-75854819D01*
X53809523Y-75854819D02*
X53904761Y-75902438D01*
X53904761Y-75902438D02*
X53952380Y-75950057D01*
X53952380Y-75950057D02*
X53999999Y-76045295D01*
X53999999Y-76045295D02*
X53999999Y-76188152D01*
X53999999Y-76188152D02*
X53952380Y-76283390D01*
X53952380Y-76283390D02*
X53904761Y-76331009D01*
X53904761Y-76331009D02*
X53809523Y-76378628D01*
X53809523Y-76378628D02*
X53428571Y-76378628D01*
X54428571Y-76331009D02*
X54761904Y-76331009D01*
X54904761Y-76854819D02*
X54428571Y-76854819D01*
X54428571Y-76854819D02*
X54428571Y-75854819D01*
X54428571Y-75854819D02*
X54904761Y-75854819D01*
X55285714Y-76807200D02*
X55428571Y-76854819D01*
X55428571Y-76854819D02*
X55666666Y-76854819D01*
X55666666Y-76854819D02*
X55761904Y-76807200D01*
X55761904Y-76807200D02*
X55809523Y-76759580D01*
X55809523Y-76759580D02*
X55857142Y-76664342D01*
X55857142Y-76664342D02*
X55857142Y-76569104D01*
X55857142Y-76569104D02*
X55809523Y-76473866D01*
X55809523Y-76473866D02*
X55761904Y-76426247D01*
X55761904Y-76426247D02*
X55666666Y-76378628D01*
X55666666Y-76378628D02*
X55476190Y-76331009D01*
X55476190Y-76331009D02*
X55380952Y-76283390D01*
X55380952Y-76283390D02*
X55333333Y-76235771D01*
X55333333Y-76235771D02*
X55285714Y-76140533D01*
X55285714Y-76140533D02*
X55285714Y-76045295D01*
X55285714Y-76045295D02*
X55333333Y-75950057D01*
X55333333Y-75950057D02*
X55380952Y-75902438D01*
X55380952Y-75902438D02*
X55476190Y-75854819D01*
X55476190Y-75854819D02*
X55714285Y-75854819D01*
X55714285Y-75854819D02*
X55857142Y-75902438D01*
X56285714Y-76331009D02*
X56619047Y-76331009D01*
X56761904Y-76854819D02*
X56285714Y-76854819D01*
X56285714Y-76854819D02*
X56285714Y-75854819D01*
X56285714Y-75854819D02*
X56761904Y-75854819D01*
X57047619Y-75854819D02*
X57619047Y-75854819D01*
X57333333Y-76854819D02*
X57333333Y-75854819D01*
X58476190Y-76854819D02*
X57904762Y-76854819D01*
X58190476Y-76854819D02*
X58190476Y-75854819D01*
X58190476Y-75854819D02*
X58095238Y-75997676D01*
X58095238Y-75997676D02*
X58000000Y-76092914D01*
X58000000Y-76092914D02*
X57904762Y-76140533D01*
X63738095Y-52804819D02*
X63738095Y-51804819D01*
X63738095Y-52281009D02*
X64309523Y-52281009D01*
X64309523Y-52804819D02*
X64309523Y-51804819D01*
X65309523Y-52804819D02*
X64738095Y-52804819D01*
X65023809Y-52804819D02*
X65023809Y-51804819D01*
X65023809Y-51804819D02*
X64928571Y-51947676D01*
X64928571Y-51947676D02*
X64833333Y-52042914D01*
X64833333Y-52042914D02*
X64738095Y-52090533D01*
X54357143Y-84857200D02*
X54500000Y-84904819D01*
X54500000Y-84904819D02*
X54738095Y-84904819D01*
X54738095Y-84904819D02*
X54833333Y-84857200D01*
X54833333Y-84857200D02*
X54880952Y-84809580D01*
X54880952Y-84809580D02*
X54928571Y-84714342D01*
X54928571Y-84714342D02*
X54928571Y-84619104D01*
X54928571Y-84619104D02*
X54880952Y-84523866D01*
X54880952Y-84523866D02*
X54833333Y-84476247D01*
X54833333Y-84476247D02*
X54738095Y-84428628D01*
X54738095Y-84428628D02*
X54547619Y-84381009D01*
X54547619Y-84381009D02*
X54452381Y-84333390D01*
X54452381Y-84333390D02*
X54404762Y-84285771D01*
X54404762Y-84285771D02*
X54357143Y-84190533D01*
X54357143Y-84190533D02*
X54357143Y-84095295D01*
X54357143Y-84095295D02*
X54404762Y-84000057D01*
X54404762Y-84000057D02*
X54452381Y-83952438D01*
X54452381Y-83952438D02*
X54547619Y-83904819D01*
X54547619Y-83904819D02*
X54785714Y-83904819D01*
X54785714Y-83904819D02*
X54928571Y-83952438D01*
X55261905Y-83904819D02*
X55500000Y-84904819D01*
X55500000Y-84904819D02*
X55690476Y-84190533D01*
X55690476Y-84190533D02*
X55880952Y-84904819D01*
X55880952Y-84904819D02*
X56119048Y-83904819D01*
X56261905Y-85000057D02*
X57023809Y-85000057D01*
X57261905Y-84904819D02*
X57261905Y-83904819D01*
X57261905Y-83904819D02*
X57595238Y-84619104D01*
X57595238Y-84619104D02*
X57928571Y-83904819D01*
X57928571Y-83904819D02*
X57928571Y-84904819D01*
X58404762Y-83904819D02*
X58404762Y-84714342D01*
X58404762Y-84714342D02*
X58452381Y-84809580D01*
X58452381Y-84809580D02*
X58500000Y-84857200D01*
X58500000Y-84857200D02*
X58595238Y-84904819D01*
X58595238Y-84904819D02*
X58785714Y-84904819D01*
X58785714Y-84904819D02*
X58880952Y-84857200D01*
X58880952Y-84857200D02*
X58928571Y-84809580D01*
X58928571Y-84809580D02*
X58976190Y-84714342D01*
X58976190Y-84714342D02*
X58976190Y-83904819D01*
X59309524Y-83904819D02*
X59880952Y-83904819D01*
X59595238Y-84904819D02*
X59595238Y-83904819D01*
X60214286Y-84381009D02*
X60547619Y-84381009D01*
X60690476Y-84904819D02*
X60214286Y-84904819D01*
X60214286Y-84904819D02*
X60214286Y-83904819D01*
X60214286Y-83904819D02*
X60690476Y-83904819D01*
X61642857Y-84904819D02*
X61071429Y-84904819D01*
X61357143Y-84904819D02*
X61357143Y-83904819D01*
X61357143Y-83904819D02*
X61261905Y-84047676D01*
X61261905Y-84047676D02*
X61166667Y-84142914D01*
X61166667Y-84142914D02*
X61071429Y-84190533D01*
X56614286Y-62607200D02*
X56757143Y-62654819D01*
X56757143Y-62654819D02*
X56995238Y-62654819D01*
X56995238Y-62654819D02*
X57090476Y-62607200D01*
X57090476Y-62607200D02*
X57138095Y-62559580D01*
X57138095Y-62559580D02*
X57185714Y-62464342D01*
X57185714Y-62464342D02*
X57185714Y-62369104D01*
X57185714Y-62369104D02*
X57138095Y-62273866D01*
X57138095Y-62273866D02*
X57090476Y-62226247D01*
X57090476Y-62226247D02*
X56995238Y-62178628D01*
X56995238Y-62178628D02*
X56804762Y-62131009D01*
X56804762Y-62131009D02*
X56709524Y-62083390D01*
X56709524Y-62083390D02*
X56661905Y-62035771D01*
X56661905Y-62035771D02*
X56614286Y-61940533D01*
X56614286Y-61940533D02*
X56614286Y-61845295D01*
X56614286Y-61845295D02*
X56661905Y-61750057D01*
X56661905Y-61750057D02*
X56709524Y-61702438D01*
X56709524Y-61702438D02*
X56804762Y-61654819D01*
X56804762Y-61654819D02*
X57042857Y-61654819D01*
X57042857Y-61654819D02*
X57185714Y-61702438D01*
X57519048Y-61654819D02*
X57757143Y-62654819D01*
X57757143Y-62654819D02*
X57947619Y-61940533D01*
X57947619Y-61940533D02*
X58138095Y-62654819D01*
X58138095Y-62654819D02*
X58376191Y-61654819D01*
X58519048Y-62750057D02*
X59280952Y-62750057D01*
X59519048Y-61654819D02*
X59519048Y-62464342D01*
X59519048Y-62464342D02*
X59566667Y-62559580D01*
X59566667Y-62559580D02*
X59614286Y-62607200D01*
X59614286Y-62607200D02*
X59709524Y-62654819D01*
X59709524Y-62654819D02*
X59900000Y-62654819D01*
X59900000Y-62654819D02*
X59995238Y-62607200D01*
X59995238Y-62607200D02*
X60042857Y-62559580D01*
X60042857Y-62559580D02*
X60090476Y-62464342D01*
X60090476Y-62464342D02*
X60090476Y-61654819D01*
X60566667Y-62654819D02*
X60566667Y-61654819D01*
X60566667Y-61654819D02*
X61138095Y-62654819D01*
X61138095Y-62654819D02*
X61138095Y-61654819D01*
X61614286Y-62654819D02*
X61614286Y-61654819D01*
X61614286Y-61654819D02*
X61852381Y-61654819D01*
X61852381Y-61654819D02*
X61995238Y-61702438D01*
X61995238Y-61702438D02*
X62090476Y-61797676D01*
X62090476Y-61797676D02*
X62138095Y-61892914D01*
X62138095Y-61892914D02*
X62185714Y-62083390D01*
X62185714Y-62083390D02*
X62185714Y-62226247D01*
X62185714Y-62226247D02*
X62138095Y-62416723D01*
X62138095Y-62416723D02*
X62090476Y-62511961D01*
X62090476Y-62511961D02*
X61995238Y-62607200D01*
X61995238Y-62607200D02*
X61852381Y-62654819D01*
X61852381Y-62654819D02*
X61614286Y-62654819D01*
X62804762Y-61654819D02*
X62995238Y-61654819D01*
X62995238Y-61654819D02*
X63090476Y-61702438D01*
X63090476Y-61702438D02*
X63185714Y-61797676D01*
X63185714Y-61797676D02*
X63233333Y-61988152D01*
X63233333Y-61988152D02*
X63233333Y-62321485D01*
X63233333Y-62321485D02*
X63185714Y-62511961D01*
X63185714Y-62511961D02*
X63090476Y-62607200D01*
X63090476Y-62607200D02*
X62995238Y-62654819D01*
X62995238Y-62654819D02*
X62804762Y-62654819D01*
X62804762Y-62654819D02*
X62709524Y-62607200D01*
X62709524Y-62607200D02*
X62614286Y-62511961D01*
X62614286Y-62511961D02*
X62566667Y-62321485D01*
X62566667Y-62321485D02*
X62566667Y-61988152D01*
X62566667Y-61988152D02*
X62614286Y-61797676D01*
X62614286Y-61797676D02*
X62709524Y-61702438D01*
X62709524Y-61702438D02*
X62804762Y-61654819D01*
X64185714Y-62654819D02*
X63614286Y-62654819D01*
X63900000Y-62654819D02*
X63900000Y-61654819D01*
X63900000Y-61654819D02*
X63804762Y-61797676D01*
X63804762Y-61797676D02*
X63709524Y-61892914D01*
X63709524Y-61892914D02*
X63614286Y-61940533D01*
X15866667Y-74607200D02*
X16009524Y-74654819D01*
X16009524Y-74654819D02*
X16247619Y-74654819D01*
X16247619Y-74654819D02*
X16342857Y-74607200D01*
X16342857Y-74607200D02*
X16390476Y-74559580D01*
X16390476Y-74559580D02*
X16438095Y-74464342D01*
X16438095Y-74464342D02*
X16438095Y-74369104D01*
X16438095Y-74369104D02*
X16390476Y-74273866D01*
X16390476Y-74273866D02*
X16342857Y-74226247D01*
X16342857Y-74226247D02*
X16247619Y-74178628D01*
X16247619Y-74178628D02*
X16057143Y-74131009D01*
X16057143Y-74131009D02*
X15961905Y-74083390D01*
X15961905Y-74083390D02*
X15914286Y-74035771D01*
X15914286Y-74035771D02*
X15866667Y-73940533D01*
X15866667Y-73940533D02*
X15866667Y-73845295D01*
X15866667Y-73845295D02*
X15914286Y-73750057D01*
X15914286Y-73750057D02*
X15961905Y-73702438D01*
X15961905Y-73702438D02*
X16057143Y-73654819D01*
X16057143Y-73654819D02*
X16295238Y-73654819D01*
X16295238Y-73654819D02*
X16438095Y-73702438D01*
X16771429Y-73654819D02*
X17009524Y-74654819D01*
X17009524Y-74654819D02*
X17200000Y-73940533D01*
X17200000Y-73940533D02*
X17390476Y-74654819D01*
X17390476Y-74654819D02*
X17628572Y-73654819D01*
X17771429Y-74750057D02*
X18533333Y-74750057D01*
X18771429Y-74654819D02*
X18771429Y-73654819D01*
X18771429Y-73654819D02*
X19009524Y-73654819D01*
X19009524Y-73654819D02*
X19152381Y-73702438D01*
X19152381Y-73702438D02*
X19247619Y-73797676D01*
X19247619Y-73797676D02*
X19295238Y-73892914D01*
X19295238Y-73892914D02*
X19342857Y-74083390D01*
X19342857Y-74083390D02*
X19342857Y-74226247D01*
X19342857Y-74226247D02*
X19295238Y-74416723D01*
X19295238Y-74416723D02*
X19247619Y-74511961D01*
X19247619Y-74511961D02*
X19152381Y-74607200D01*
X19152381Y-74607200D02*
X19009524Y-74654819D01*
X19009524Y-74654819D02*
X18771429Y-74654819D01*
X19961905Y-73654819D02*
X20152381Y-73654819D01*
X20152381Y-73654819D02*
X20247619Y-73702438D01*
X20247619Y-73702438D02*
X20342857Y-73797676D01*
X20342857Y-73797676D02*
X20390476Y-73988152D01*
X20390476Y-73988152D02*
X20390476Y-74321485D01*
X20390476Y-74321485D02*
X20342857Y-74511961D01*
X20342857Y-74511961D02*
X20247619Y-74607200D01*
X20247619Y-74607200D02*
X20152381Y-74654819D01*
X20152381Y-74654819D02*
X19961905Y-74654819D01*
X19961905Y-74654819D02*
X19866667Y-74607200D01*
X19866667Y-74607200D02*
X19771429Y-74511961D01*
X19771429Y-74511961D02*
X19723810Y-74321485D01*
X19723810Y-74321485D02*
X19723810Y-73988152D01*
X19723810Y-73988152D02*
X19771429Y-73797676D01*
X19771429Y-73797676D02*
X19866667Y-73702438D01*
X19866667Y-73702438D02*
X19961905Y-73654819D01*
X20723810Y-73654819D02*
X20961905Y-74654819D01*
X20961905Y-74654819D02*
X21152381Y-73940533D01*
X21152381Y-73940533D02*
X21342857Y-74654819D01*
X21342857Y-74654819D02*
X21580953Y-73654819D01*
X21961905Y-74654819D02*
X21961905Y-73654819D01*
X21961905Y-73654819D02*
X22533333Y-74654819D01*
X22533333Y-74654819D02*
X22533333Y-73654819D01*
X23533333Y-74654819D02*
X22961905Y-74654819D01*
X23247619Y-74654819D02*
X23247619Y-73654819D01*
X23247619Y-73654819D02*
X23152381Y-73797676D01*
X23152381Y-73797676D02*
X23057143Y-73892914D01*
X23057143Y-73892914D02*
X22961905Y-73940533D01*
X7319047Y-65607200D02*
X7461904Y-65654819D01*
X7461904Y-65654819D02*
X7699999Y-65654819D01*
X7699999Y-65654819D02*
X7795237Y-65607200D01*
X7795237Y-65607200D02*
X7842856Y-65559580D01*
X7842856Y-65559580D02*
X7890475Y-65464342D01*
X7890475Y-65464342D02*
X7890475Y-65369104D01*
X7890475Y-65369104D02*
X7842856Y-65273866D01*
X7842856Y-65273866D02*
X7795237Y-65226247D01*
X7795237Y-65226247D02*
X7699999Y-65178628D01*
X7699999Y-65178628D02*
X7509523Y-65131009D01*
X7509523Y-65131009D02*
X7414285Y-65083390D01*
X7414285Y-65083390D02*
X7366666Y-65035771D01*
X7366666Y-65035771D02*
X7319047Y-64940533D01*
X7319047Y-64940533D02*
X7319047Y-64845295D01*
X7319047Y-64845295D02*
X7366666Y-64750057D01*
X7366666Y-64750057D02*
X7414285Y-64702438D01*
X7414285Y-64702438D02*
X7509523Y-64654819D01*
X7509523Y-64654819D02*
X7747618Y-64654819D01*
X7747618Y-64654819D02*
X7890475Y-64702438D01*
X8223809Y-64654819D02*
X8461904Y-65654819D01*
X8461904Y-65654819D02*
X8652380Y-64940533D01*
X8652380Y-64940533D02*
X8842856Y-65654819D01*
X8842856Y-65654819D02*
X9080952Y-64654819D01*
X9223809Y-65750057D02*
X9985713Y-65750057D01*
X10699999Y-65654819D02*
X10223809Y-65654819D01*
X10223809Y-65654819D02*
X10223809Y-64654819D01*
X11033333Y-65131009D02*
X11366666Y-65131009D01*
X11509523Y-65654819D02*
X11033333Y-65654819D01*
X11033333Y-65654819D02*
X11033333Y-64654819D01*
X11033333Y-64654819D02*
X11509523Y-64654819D01*
X12271428Y-65131009D02*
X11938095Y-65131009D01*
X11938095Y-65654819D02*
X11938095Y-64654819D01*
X11938095Y-64654819D02*
X12414285Y-64654819D01*
X12652381Y-64654819D02*
X13223809Y-64654819D01*
X12938095Y-65654819D02*
X12938095Y-64654819D01*
X14080952Y-65654819D02*
X13509524Y-65654819D01*
X13795238Y-65654819D02*
X13795238Y-64654819D01*
X13795238Y-64654819D02*
X13700000Y-64797676D01*
X13700000Y-64797676D02*
X13604762Y-64892914D01*
X13604762Y-64892914D02*
X13509524Y-64940533D01*
X16714286Y-84857200D02*
X16857143Y-84904819D01*
X16857143Y-84904819D02*
X17095238Y-84904819D01*
X17095238Y-84904819D02*
X17190476Y-84857200D01*
X17190476Y-84857200D02*
X17238095Y-84809580D01*
X17238095Y-84809580D02*
X17285714Y-84714342D01*
X17285714Y-84714342D02*
X17285714Y-84619104D01*
X17285714Y-84619104D02*
X17238095Y-84523866D01*
X17238095Y-84523866D02*
X17190476Y-84476247D01*
X17190476Y-84476247D02*
X17095238Y-84428628D01*
X17095238Y-84428628D02*
X16904762Y-84381009D01*
X16904762Y-84381009D02*
X16809524Y-84333390D01*
X16809524Y-84333390D02*
X16761905Y-84285771D01*
X16761905Y-84285771D02*
X16714286Y-84190533D01*
X16714286Y-84190533D02*
X16714286Y-84095295D01*
X16714286Y-84095295D02*
X16761905Y-84000057D01*
X16761905Y-84000057D02*
X16809524Y-83952438D01*
X16809524Y-83952438D02*
X16904762Y-83904819D01*
X16904762Y-83904819D02*
X17142857Y-83904819D01*
X17142857Y-83904819D02*
X17285714Y-83952438D01*
X17619048Y-83904819D02*
X17857143Y-84904819D01*
X17857143Y-84904819D02*
X18047619Y-84190533D01*
X18047619Y-84190533D02*
X18238095Y-84904819D01*
X18238095Y-84904819D02*
X18476191Y-83904819D01*
X18619048Y-85000057D02*
X19380952Y-85000057D01*
X19619048Y-84904819D02*
X19619048Y-83904819D01*
X19619048Y-83904819D02*
X20000000Y-83904819D01*
X20000000Y-83904819D02*
X20095238Y-83952438D01*
X20095238Y-83952438D02*
X20142857Y-84000057D01*
X20142857Y-84000057D02*
X20190476Y-84095295D01*
X20190476Y-84095295D02*
X20190476Y-84238152D01*
X20190476Y-84238152D02*
X20142857Y-84333390D01*
X20142857Y-84333390D02*
X20095238Y-84381009D01*
X20095238Y-84381009D02*
X20000000Y-84428628D01*
X20000000Y-84428628D02*
X19619048Y-84428628D01*
X20523810Y-83904819D02*
X20761905Y-84904819D01*
X20761905Y-84904819D02*
X20952381Y-84190533D01*
X20952381Y-84190533D02*
X21142857Y-84904819D01*
X21142857Y-84904819D02*
X21380953Y-83904819D01*
X22333333Y-84904819D02*
X22000000Y-84428628D01*
X21761905Y-84904819D02*
X21761905Y-83904819D01*
X21761905Y-83904819D02*
X22142857Y-83904819D01*
X22142857Y-83904819D02*
X22238095Y-83952438D01*
X22238095Y-83952438D02*
X22285714Y-84000057D01*
X22285714Y-84000057D02*
X22333333Y-84095295D01*
X22333333Y-84095295D02*
X22333333Y-84238152D01*
X22333333Y-84238152D02*
X22285714Y-84333390D01*
X22285714Y-84333390D02*
X22238095Y-84381009D01*
X22238095Y-84381009D02*
X22142857Y-84428628D01*
X22142857Y-84428628D02*
X21761905Y-84428628D01*
X23285714Y-84904819D02*
X22714286Y-84904819D01*
X23000000Y-84904819D02*
X23000000Y-83904819D01*
X23000000Y-83904819D02*
X22904762Y-84047676D01*
X22904762Y-84047676D02*
X22809524Y-84142914D01*
X22809524Y-84142914D02*
X22714286Y-84190533D01*
X35814286Y-82207200D02*
X35957143Y-82254819D01*
X35957143Y-82254819D02*
X36195238Y-82254819D01*
X36195238Y-82254819D02*
X36290476Y-82207200D01*
X36290476Y-82207200D02*
X36338095Y-82159580D01*
X36338095Y-82159580D02*
X36385714Y-82064342D01*
X36385714Y-82064342D02*
X36385714Y-81969104D01*
X36385714Y-81969104D02*
X36338095Y-81873866D01*
X36338095Y-81873866D02*
X36290476Y-81826247D01*
X36290476Y-81826247D02*
X36195238Y-81778628D01*
X36195238Y-81778628D02*
X36004762Y-81731009D01*
X36004762Y-81731009D02*
X35909524Y-81683390D01*
X35909524Y-81683390D02*
X35861905Y-81635771D01*
X35861905Y-81635771D02*
X35814286Y-81540533D01*
X35814286Y-81540533D02*
X35814286Y-81445295D01*
X35814286Y-81445295D02*
X35861905Y-81350057D01*
X35861905Y-81350057D02*
X35909524Y-81302438D01*
X35909524Y-81302438D02*
X36004762Y-81254819D01*
X36004762Y-81254819D02*
X36242857Y-81254819D01*
X36242857Y-81254819D02*
X36385714Y-81302438D01*
X36719048Y-81254819D02*
X36957143Y-82254819D01*
X36957143Y-82254819D02*
X37147619Y-81540533D01*
X37147619Y-81540533D02*
X37338095Y-82254819D01*
X37338095Y-82254819D02*
X37576191Y-81254819D01*
X37719048Y-82350057D02*
X38480952Y-82350057D01*
X38719048Y-82254819D02*
X38719048Y-81254819D01*
X38719048Y-81254819D02*
X39052381Y-81969104D01*
X39052381Y-81969104D02*
X39385714Y-81254819D01*
X39385714Y-81254819D02*
X39385714Y-82254819D01*
X39861905Y-81731009D02*
X40195238Y-81731009D01*
X40338095Y-82254819D02*
X39861905Y-82254819D01*
X39861905Y-82254819D02*
X39861905Y-81254819D01*
X39861905Y-81254819D02*
X40338095Y-81254819D01*
X40766667Y-82254819D02*
X40766667Y-81254819D01*
X40766667Y-81254819D02*
X41338095Y-82254819D01*
X41338095Y-82254819D02*
X41338095Y-81254819D01*
X41814286Y-81254819D02*
X41814286Y-82064342D01*
X41814286Y-82064342D02*
X41861905Y-82159580D01*
X41861905Y-82159580D02*
X41909524Y-82207200D01*
X41909524Y-82207200D02*
X42004762Y-82254819D01*
X42004762Y-82254819D02*
X42195238Y-82254819D01*
X42195238Y-82254819D02*
X42290476Y-82207200D01*
X42290476Y-82207200D02*
X42338095Y-82159580D01*
X42338095Y-82159580D02*
X42385714Y-82064342D01*
X42385714Y-82064342D02*
X42385714Y-81254819D01*
X43385714Y-82254819D02*
X42814286Y-82254819D01*
X43100000Y-82254819D02*
X43100000Y-81254819D01*
X43100000Y-81254819D02*
X43004762Y-81397676D01*
X43004762Y-81397676D02*
X42909524Y-81492914D01*
X42909524Y-81492914D02*
X42814286Y-81540533D01*
X24842857Y-65607200D02*
X24985714Y-65654819D01*
X24985714Y-65654819D02*
X25223809Y-65654819D01*
X25223809Y-65654819D02*
X25319047Y-65607200D01*
X25319047Y-65607200D02*
X25366666Y-65559580D01*
X25366666Y-65559580D02*
X25414285Y-65464342D01*
X25414285Y-65464342D02*
X25414285Y-65369104D01*
X25414285Y-65369104D02*
X25366666Y-65273866D01*
X25366666Y-65273866D02*
X25319047Y-65226247D01*
X25319047Y-65226247D02*
X25223809Y-65178628D01*
X25223809Y-65178628D02*
X25033333Y-65131009D01*
X25033333Y-65131009D02*
X24938095Y-65083390D01*
X24938095Y-65083390D02*
X24890476Y-65035771D01*
X24890476Y-65035771D02*
X24842857Y-64940533D01*
X24842857Y-64940533D02*
X24842857Y-64845295D01*
X24842857Y-64845295D02*
X24890476Y-64750057D01*
X24890476Y-64750057D02*
X24938095Y-64702438D01*
X24938095Y-64702438D02*
X25033333Y-64654819D01*
X25033333Y-64654819D02*
X25271428Y-64654819D01*
X25271428Y-64654819D02*
X25414285Y-64702438D01*
X25747619Y-64654819D02*
X25985714Y-65654819D01*
X25985714Y-65654819D02*
X26176190Y-64940533D01*
X26176190Y-64940533D02*
X26366666Y-65654819D01*
X26366666Y-65654819D02*
X26604762Y-64654819D01*
X26747619Y-65750057D02*
X27509523Y-65750057D01*
X28319047Y-65654819D02*
X27985714Y-65178628D01*
X27747619Y-65654819D02*
X27747619Y-64654819D01*
X27747619Y-64654819D02*
X28128571Y-64654819D01*
X28128571Y-64654819D02*
X28223809Y-64702438D01*
X28223809Y-64702438D02*
X28271428Y-64750057D01*
X28271428Y-64750057D02*
X28319047Y-64845295D01*
X28319047Y-64845295D02*
X28319047Y-64988152D01*
X28319047Y-64988152D02*
X28271428Y-65083390D01*
X28271428Y-65083390D02*
X28223809Y-65131009D01*
X28223809Y-65131009D02*
X28128571Y-65178628D01*
X28128571Y-65178628D02*
X27747619Y-65178628D01*
X28747619Y-65654819D02*
X28747619Y-64654819D01*
X29747618Y-64702438D02*
X29652380Y-64654819D01*
X29652380Y-64654819D02*
X29509523Y-64654819D01*
X29509523Y-64654819D02*
X29366666Y-64702438D01*
X29366666Y-64702438D02*
X29271428Y-64797676D01*
X29271428Y-64797676D02*
X29223809Y-64892914D01*
X29223809Y-64892914D02*
X29176190Y-65083390D01*
X29176190Y-65083390D02*
X29176190Y-65226247D01*
X29176190Y-65226247D02*
X29223809Y-65416723D01*
X29223809Y-65416723D02*
X29271428Y-65511961D01*
X29271428Y-65511961D02*
X29366666Y-65607200D01*
X29366666Y-65607200D02*
X29509523Y-65654819D01*
X29509523Y-65654819D02*
X29604761Y-65654819D01*
X29604761Y-65654819D02*
X29747618Y-65607200D01*
X29747618Y-65607200D02*
X29795237Y-65559580D01*
X29795237Y-65559580D02*
X29795237Y-65226247D01*
X29795237Y-65226247D02*
X29604761Y-65226247D01*
X30223809Y-65654819D02*
X30223809Y-64654819D01*
X30223809Y-65131009D02*
X30795237Y-65131009D01*
X30795237Y-65654819D02*
X30795237Y-64654819D01*
X31128571Y-64654819D02*
X31699999Y-64654819D01*
X31414285Y-65654819D02*
X31414285Y-64654819D01*
X32557142Y-65654819D02*
X31985714Y-65654819D01*
X32271428Y-65654819D02*
X32271428Y-64654819D01*
X32271428Y-64654819D02*
X32176190Y-64797676D01*
X32176190Y-64797676D02*
X32080952Y-64892914D01*
X32080952Y-64892914D02*
X31985714Y-64940533D01*
X43538095Y-61554819D02*
X43538095Y-62364342D01*
X43538095Y-62364342D02*
X43585714Y-62459580D01*
X43585714Y-62459580D02*
X43633333Y-62507200D01*
X43633333Y-62507200D02*
X43728571Y-62554819D01*
X43728571Y-62554819D02*
X43919047Y-62554819D01*
X43919047Y-62554819D02*
X44014285Y-62507200D01*
X44014285Y-62507200D02*
X44061904Y-62459580D01*
X44061904Y-62459580D02*
X44109523Y-62364342D01*
X44109523Y-62364342D02*
X44109523Y-61554819D01*
X45109523Y-62554819D02*
X44538095Y-62554819D01*
X44823809Y-62554819D02*
X44823809Y-61554819D01*
X44823809Y-61554819D02*
X44728571Y-61697676D01*
X44728571Y-61697676D02*
X44633333Y-61792914D01*
X44633333Y-61792914D02*
X44538095Y-61840533D01*
%TO.C,SW_UP1*%
D11*
X16980000Y-60840000D02*
X16980000Y-58760000D01*
X18250000Y-57080000D02*
X17760000Y-57570000D01*
X18250000Y-57080000D02*
X21150000Y-57080000D01*
X18250000Y-62520000D02*
X17760000Y-62030000D01*
X18250000Y-62520000D02*
X21150000Y-62520000D01*
X21150000Y-57080000D02*
X21640000Y-57570000D01*
X21150000Y-62520000D02*
X21640000Y-62030000D01*
X22420000Y-60840000D02*
X22420000Y-58760000D01*
%TO.C,SW_ACTION1*%
X74380000Y-62140000D02*
X74380000Y-60060000D01*
X75650000Y-58380000D02*
X75160000Y-58870000D01*
X75650000Y-58380000D02*
X78550000Y-58380000D01*
X75650000Y-63820000D02*
X75160000Y-63330000D01*
X75650000Y-63820000D02*
X78550000Y-63820000D01*
X78550000Y-58380000D02*
X79040000Y-58870000D01*
X78550000Y-63820000D02*
X79040000Y-63330000D01*
X79820000Y-62140000D02*
X79820000Y-60060000D01*
%TO.C,SW_RESET1*%
X51780000Y-81040000D02*
X51780000Y-78960000D01*
X53050000Y-77280000D02*
X52560000Y-77770000D01*
X53050000Y-77280000D02*
X55950000Y-77280000D01*
X53050000Y-82720000D02*
X52560000Y-82230000D01*
X53050000Y-82720000D02*
X55950000Y-82720000D01*
X55950000Y-77280000D02*
X56440000Y-77770000D01*
X55950000Y-82720000D02*
X56440000Y-82230000D01*
X57220000Y-81040000D02*
X57220000Y-78960000D01*
%TO.C,SW_MUTE1*%
X54550000Y-87580000D02*
X54550000Y-88370000D01*
X55150000Y-89380000D02*
X60850000Y-89380000D01*
X56400000Y-86530000D02*
X58100000Y-86530000D01*
X56600000Y-89380000D02*
X56600000Y-90670000D01*
X56600000Y-90670000D02*
X56800000Y-90880000D01*
X56800000Y-90880000D02*
X57700000Y-90880000D01*
X57900000Y-90670000D02*
X57700000Y-90880000D01*
X57900000Y-90670000D02*
X57900000Y-89380000D01*
X59400000Y-86530000D02*
X59600000Y-86530000D01*
X61450000Y-88370000D02*
X61450000Y-87580000D01*
%TO.C,SW_UNDO1*%
X57680000Y-66840000D02*
X57680000Y-64760000D01*
X58950000Y-63080000D02*
X58460000Y-63570000D01*
X58950000Y-63080000D02*
X61850000Y-63080000D01*
X58950000Y-68520000D02*
X58460000Y-68030000D01*
X58950000Y-68520000D02*
X61850000Y-68520000D01*
X61850000Y-63080000D02*
X62340000Y-63570000D01*
X61850000Y-68520000D02*
X62340000Y-68030000D01*
X63120000Y-66840000D02*
X63120000Y-64760000D01*
%TO.C,SW_DOWN1*%
X16980000Y-78840000D02*
X16980000Y-76760000D01*
X18250000Y-75080000D02*
X17760000Y-75570000D01*
X18250000Y-75080000D02*
X21150000Y-75080000D01*
X18250000Y-80520000D02*
X17760000Y-80030000D01*
X18250000Y-80520000D02*
X21150000Y-80520000D01*
X21150000Y-75080000D02*
X21640000Y-75570000D01*
X21150000Y-80520000D02*
X21640000Y-80030000D01*
X22420000Y-78840000D02*
X22420000Y-76760000D01*
%TO.C,SW_LEFT1*%
X7980000Y-69840000D02*
X7980000Y-67760000D01*
X9250000Y-66080000D02*
X8760000Y-66570000D01*
X9250000Y-66080000D02*
X12150000Y-66080000D01*
X9250000Y-71520000D02*
X8760000Y-71030000D01*
X9250000Y-71520000D02*
X12150000Y-71520000D01*
X12150000Y-66080000D02*
X12640000Y-66570000D01*
X12150000Y-71520000D02*
X12640000Y-71030000D01*
X13420000Y-69840000D02*
X13420000Y-67760000D01*
%TO.C,SW_PWR1*%
X16550000Y-87580000D02*
X16550000Y-88370000D01*
X17150000Y-89380000D02*
X22850000Y-89380000D01*
X18400000Y-86530000D02*
X20100000Y-86530000D01*
X18600000Y-89380000D02*
X18600000Y-90670000D01*
X18600000Y-90670000D02*
X18800000Y-90880000D01*
X18800000Y-90880000D02*
X19700000Y-90880000D01*
X19900000Y-90670000D02*
X19700000Y-90880000D01*
X19900000Y-90670000D02*
X19900000Y-89380000D01*
X21400000Y-86530000D02*
X21600000Y-86530000D01*
X23450000Y-88370000D02*
X23450000Y-87580000D01*
%TO.C,SW_MENU1*%
X36880000Y-86440000D02*
X36880000Y-84360000D01*
X38150000Y-82680000D02*
X37660000Y-83170000D01*
X38150000Y-82680000D02*
X41050000Y-82680000D01*
X38150000Y-88120000D02*
X37660000Y-87630000D01*
X38150000Y-88120000D02*
X41050000Y-88120000D01*
X41050000Y-82680000D02*
X41540000Y-83170000D01*
X41050000Y-88120000D02*
X41540000Y-87630000D01*
X42320000Y-86440000D02*
X42320000Y-84360000D01*
%TO.C,SW_RIGHT1*%
X25980000Y-69840000D02*
X25980000Y-67760000D01*
X27250000Y-66080000D02*
X26760000Y-66570000D01*
X27250000Y-66080000D02*
X30150000Y-66080000D01*
X27250000Y-71520000D02*
X26760000Y-71030000D01*
X27250000Y-71520000D02*
X30150000Y-71520000D01*
X30150000Y-66080000D02*
X30640000Y-66570000D01*
X30150000Y-71520000D02*
X30640000Y-71030000D01*
X31420000Y-69840000D02*
X31420000Y-67760000D01*
%TO.C,U1*%
X40440000Y-62940000D02*
X48160000Y-62940000D01*
X40440000Y-63185000D02*
X40440000Y-62940000D01*
X40440000Y-81060000D02*
X40440000Y-80815000D01*
X48160000Y-62940000D02*
X48160000Y-63185000D01*
X48160000Y-80815000D02*
X48160000Y-81060000D01*
X48160000Y-81060000D02*
X40440000Y-81060000D01*
X39650000Y-63180000D02*
X39310000Y-62710000D01*
X39990000Y-62710000D01*
X39650000Y-63180000D01*
G36*
X39650000Y-63180000D02*
G01*
X39310000Y-62710000D01*
X39990000Y-62710000D01*
X39650000Y-63180000D01*
G37*
%TD*%
%LPC*%
D12*
%TO.C,H2*%
X64500000Y-84000000D03*
%TD*%
D13*
%TO.C,SW_UP1*%
X16600000Y-57950000D03*
X22800000Y-57950000D03*
X16600000Y-61650000D03*
X22800000Y-61650000D03*
%TD*%
%TO.C,SW_ACTION1*%
X74000000Y-59250000D03*
X80200000Y-59250000D03*
X74000000Y-62950000D03*
X80200000Y-62950000D03*
%TD*%
%TO.C,SW_RESET1*%
X51400000Y-78150000D03*
X57600000Y-78150000D03*
X51400000Y-81850000D03*
X57600000Y-81850000D03*
%TD*%
D12*
%TO.C,H1*%
X64500000Y-56000000D03*
%TD*%
D14*
%TO.C,SW_MUTE1*%
X54350000Y-86870000D03*
X54350000Y-89080000D03*
D15*
X56500000Y-87980000D03*
X59500000Y-87980000D03*
D14*
X61650000Y-86870000D03*
X61650000Y-89080000D03*
D16*
X55750000Y-86220000D03*
X58750000Y-86220000D03*
X60250000Y-86220000D03*
%TD*%
D13*
%TO.C,SW_UNDO1*%
X57300000Y-63950000D03*
X63500000Y-63950000D03*
X57300000Y-67650000D03*
X63500000Y-67650000D03*
%TD*%
%TO.C,SW_DOWN1*%
X16600000Y-75950000D03*
X22800000Y-75950000D03*
X16600000Y-79650000D03*
X22800000Y-79650000D03*
%TD*%
%TO.C,SW_LEFT1*%
X7600000Y-66950000D03*
X13800000Y-66950000D03*
X7600000Y-70650000D03*
X13800000Y-70650000D03*
%TD*%
D14*
%TO.C,SW_PWR1*%
X16350000Y-86870000D03*
X16350000Y-89080000D03*
D15*
X18500000Y-87980000D03*
X21500000Y-87980000D03*
D14*
X23650000Y-86870000D03*
X23650000Y-89080000D03*
D16*
X17750000Y-86220000D03*
X20750000Y-86220000D03*
X22250000Y-86220000D03*
%TD*%
D13*
%TO.C,SW_MENU1*%
X36500000Y-83550000D03*
X42700000Y-83550000D03*
X36500000Y-87250000D03*
X42700000Y-87250000D03*
%TD*%
%TO.C,SW_RIGHT1*%
X25600000Y-66950000D03*
X31800000Y-66950000D03*
X25600000Y-70650000D03*
X31800000Y-70650000D03*
%TD*%
D17*
%TO.C,U1*%
X39650000Y-63745000D03*
X39650000Y-65015000D03*
X39650000Y-66285000D03*
X39650000Y-67555000D03*
X39650000Y-68825000D03*
X39650000Y-70095000D03*
X39650000Y-71365000D03*
X39650000Y-72635000D03*
X39650000Y-73905000D03*
X39650000Y-75175000D03*
X39650000Y-76445000D03*
X39650000Y-77715000D03*
X39650000Y-78985000D03*
X39650000Y-80255000D03*
X48950000Y-80255000D03*
X48950000Y-78985000D03*
X48950000Y-77715000D03*
X48950000Y-76445000D03*
X48950000Y-75175000D03*
X48950000Y-73905000D03*
X48950000Y-72635000D03*
X48950000Y-71365000D03*
X48950000Y-70095000D03*
X48950000Y-68825000D03*
X48950000Y-67555000D03*
X48950000Y-66285000D03*
X48950000Y-65015000D03*
X48950000Y-63745000D03*
%TD*%
%LPD*%
M02*
