%TF.GenerationSoftware,KiCad,Pcbnew,10.0.4*%
%TF.CreationDate,2026-08-01T20:17:51+02:00*%
%TF.ProjectId,pocket_card_controller,706f636b-6574-45f6-9361-72645f636f6e,rev?*%
%TF.SameCoordinates,Original*%
%TF.FileFunction,Copper,L2,Bot*%
%TF.FilePolarity,Positive*%
%FSLAX46Y46*%
G04 Gerber Fmt 4.6, Leading zero omitted, Abs format (unit mm)*
G04 Created by KiCad (PCBNEW 10.0.4) date 2026-08-01 20:17:51*
%MOMM*%
%LPD*%
G01*
G04 APERTURE LIST*
G04 Aperture macros list*
%AMRoundRect*
0 Rectangle with rounded corners*
0 $1 Rounding radius*
0 $2 $3 $4 $5 $6 $7 $8 $9 X,Y pos of 4 corners*
0 Add a 4 corners polygon primitive as box body*
4,1,4,$2,$3,$4,$5,$6,$7,$8,$9,$2,$3,0*
0 Add four circle primitives for the rounded corners*
1,1,$1+$1,$2,$3*
1,1,$1+$1,$4,$5*
1,1,$1+$1,$6,$7*
1,1,$1+$1,$8,$9*
0 Add four rect primitives between the rounded corners*
20,1,$1+$1,$2,$3,$4,$5,0*
20,1,$1+$1,$4,$5,$6,$7,0*
20,1,$1+$1,$6,$7,$8,$9,0*
20,1,$1+$1,$8,$9,$2,$3,0*%
G04 Aperture macros list end*
%TA.AperFunction,SMDPad,CuDef*%
%ADD10RoundRect,0.150000X-0.150000X-0.700000X0.150000X-0.700000X0.150000X0.700000X-0.150000X0.700000X0*%
%TD*%
%TA.AperFunction,SMDPad,CuDef*%
%ADD11RoundRect,0.250000X-0.250000X-1.100000X0.250000X-1.100000X0.250000X1.100000X-0.250000X1.100000X0*%
%TD*%
%TA.AperFunction,ViaPad*%
%ADD12C,0.600000*%
%TD*%
%TA.AperFunction,Conductor*%
%ADD13C,0.200000*%
%TD*%
%ADD14C,0.300000*%
%ADD15C,0.350000*%
G04 APERTURE END LIST*
D10*
%TO.P,J_EXP,1*%
%TO.N,INT*%
X76125000Y-61150000D03*
%TO.P,J_EXP,2*%
%TO.N,N/C*%
X77375000Y-61150000D03*
%TO.P,J_EXP,3*%
X78625000Y-61150000D03*
%TO.P,J_EXP,4*%
X79875000Y-61150000D03*
D11*
%TO.P,J_EXP,MP*%
%TO.N,GND*%
X74275000Y-64350000D03*
X81725000Y-64350000D03*
%TD*%
D10*
%TO.P,J_BAT_OUT,1*%
%TO.N,BAT_SW*%
X77375000Y-74150000D03*
%TO.P,J_BAT_OUT,2*%
%TO.N,GND*%
X78625000Y-74150000D03*
D11*
%TO.P,J_BAT_OUT,MP*%
X75525000Y-77350000D03*
X80475000Y-77350000D03*
%TD*%
D10*
%TO.P,J_I2C,1*%
%TO.N,+3V3*%
X61125000Y-61150000D03*
%TO.P,J_I2C,2*%
%TO.N,GND*%
X62375000Y-61150000D03*
%TO.P,J_I2C,3*%
%TO.N,SCL*%
X63625000Y-61150000D03*
%TO.P,J_I2C,4*%
%TO.N,SDA*%
X64875000Y-61150000D03*
D11*
%TO.P,J_I2C,MP*%
%TO.N,GND*%
X59275000Y-64350000D03*
X66725000Y-64350000D03*
%TD*%
D10*
%TO.P,J_BAT_IN,1*%
%TO.N,BAT_P*%
X62375000Y-74150000D03*
%TO.P,J_BAT_IN,2*%
%TO.N,GND*%
X63625000Y-74150000D03*
D11*
%TO.P,J_BAT_IN,MP*%
X60525000Y-77350000D03*
X65475000Y-77350000D03*
%TD*%
D12*
%TO.N,SIG_LEFT*%
X14852000Y-68784400D03*
X44907800Y-69437500D03*
%TO.N,GND*%
X66661400Y-66454100D03*
X10000000Y-78000000D03*
X10000000Y-58000000D03*
X10000000Y-86000000D03*
X50000000Y-86000000D03*
X52000000Y-58000000D03*
X32000000Y-86000000D03*
%TO.N,BAT_SW*%
X22789300Y-82480900D03*
%TO.N,BAT_P*%
X24192700Y-80692700D03*
%TO.N,SIG_DOWN*%
X47929000Y-73570600D03*
X24978000Y-77195200D03*
%TO.N,SIG_RESET*%
X55000000Y-78000000D03*
%TO.N,SIG_UP*%
X32000000Y-58000000D03*
%TO.N,+3V3*%
X51412000Y-74998800D03*
%TO.N,SCL*%
X43262800Y-76685400D03*
%TO.N,SDA*%
X42439200Y-76167700D03*
%TO.N,INT*%
X51729200Y-73574000D03*
%TD*%
%TO.N,SIG_LEFT*%
D13*
X44907800Y-69437500D02*
X15505100Y-69437500D01*
X14852000Y-68784400D02*
X14852000Y-69437500D01*
X15505100Y-69437500D02*
X14852000Y-68784400D01*
X14852000Y-69437500D02*
X14852000Y-68784400D01*
%TO.N,GND*%
X64757900Y-64350000D02*
X62375000Y-64350000D01*
X63625000Y-76675000D02*
X61200000Y-76675000D01*
X78625000Y-73930900D02*
X77698400Y-73004300D01*
X74275000Y-73004300D02*
X74275000Y-64350000D01*
X61200000Y-76675000D02*
X60525000Y-77350000D01*
X64770700Y-73004300D02*
X63625000Y-74150000D01*
X62375000Y-61150000D02*
X62375000Y-64350000D01*
X78625000Y-74150000D02*
X78625000Y-73930900D01*
X62375000Y-64350000D02*
X59275000Y-64350000D01*
X66661400Y-64350000D02*
X66661400Y-66454100D01*
X78625000Y-77350000D02*
X75525000Y-77350000D01*
X81725000Y-64350000D02*
X74275000Y-64350000D01*
X74275000Y-64350000D02*
X66725000Y-64350000D01*
X65475000Y-76675000D02*
X63625000Y-76675000D01*
X74275000Y-73004300D02*
X64770700Y-73004300D01*
X65475000Y-76675000D02*
X65475000Y-77350000D01*
X78708500Y-77350000D02*
X78708400Y-77350000D01*
X78708400Y-77350000D02*
X78625000Y-77350000D01*
X64799200Y-64350000D02*
X64757900Y-64350000D01*
X77698400Y-73004300D02*
X74275000Y-73004300D01*
X63625000Y-74150000D02*
X63625000Y-76675000D01*
X78625000Y-77350000D02*
X78625000Y-74150000D01*
X66661400Y-64350000D02*
X65963100Y-64350000D01*
X65963100Y-64350000D02*
X64799200Y-64350000D01*
X80475000Y-77350000D02*
X78708500Y-77350000D01*
X66725000Y-64350000D02*
X66661400Y-64350000D01*
%TO.N,BAT_SW*%
X22789300Y-82480900D02*
X23184700Y-82480900D01*
X73587200Y-74150000D02*
X77375000Y-74150000D01*
X26710600Y-78955000D02*
X68782200Y-78955000D01*
X23184700Y-82480900D02*
X26710600Y-78955000D01*
X68782200Y-78955000D02*
X73587200Y-74150000D01*
%TO.N,BAT_P*%
X27296600Y-77588800D02*
X50096300Y-77588800D01*
X50096300Y-77588800D02*
X53535100Y-74150000D01*
X53535100Y-74150000D02*
X62375000Y-74150000D01*
X24192700Y-80692700D02*
X27296600Y-77588800D01*
%TO.N,SIG_DOWN*%
X24978000Y-77195200D02*
X24978000Y-77036000D01*
X44262500Y-77237100D02*
X47929000Y-73570600D01*
X24978000Y-77195200D02*
X25019900Y-77237100D01*
X25019900Y-77237100D02*
X44262500Y-77237100D01*
X24978000Y-77036000D02*
X24978000Y-77195200D01*
%TO.N,+3V3*%
X60403600Y-61150000D02*
X56993500Y-64560100D01*
X56993500Y-64560100D02*
X56993500Y-69417300D01*
X61125000Y-61150000D02*
X60403600Y-61150000D01*
X56993500Y-69417300D02*
X51412000Y-74998800D01*
%TO.N,SCL*%
X63625000Y-60293600D02*
X63000000Y-59668600D01*
X63625000Y-61150000D02*
X63625000Y-60293600D01*
X60279600Y-59668600D02*
X43262800Y-76685400D01*
X43262800Y-76685400D02*
X43262800Y-76399300D01*
X63000000Y-59668600D02*
X60279600Y-59668600D01*
X43262800Y-76399300D02*
X43262800Y-76685400D01*
%TO.N,SDA*%
X64875000Y-61150000D02*
X64875000Y-60960500D01*
X42439200Y-76075700D02*
X42439200Y-76167700D01*
X64875000Y-60960500D02*
X63229900Y-59315400D01*
X59291500Y-59315400D02*
X42439200Y-76167700D01*
X42439200Y-76167700D02*
X42439200Y-76075700D01*
X63229900Y-59315400D02*
X59291500Y-59315400D01*
%TO.N,INT*%
X63054300Y-62055700D02*
X63250900Y-62252300D01*
X63054300Y-60304100D02*
X63054300Y-62055700D01*
X51729200Y-73574000D02*
X51729200Y-69083600D01*
X63250900Y-62252300D02*
X75022700Y-62252300D01*
X51729200Y-69083600D02*
X60791000Y-60021800D01*
X60791000Y-60021800D02*
X62772000Y-60021800D01*
X75022700Y-62252300D02*
X76125000Y-61150000D01*
X62772000Y-60021800D02*
X63054300Y-60304100D01*
%TD*%
%TA.AperFunction,Conductor*%
%TO.N,GND*%
G36*
X82442539Y-53520185D02*
G01*
X82488294Y-53572989D01*
X82499500Y-53624500D01*
X82499500Y-62470145D01*
X82479815Y-62537184D01*
X82427011Y-62582939D01*
X82357853Y-62592883D01*
X82310406Y-62575685D01*
X82294131Y-62565647D01*
X82294119Y-62565641D01*
X82127697Y-62510494D01*
X82127690Y-62510493D01*
X82024986Y-62500000D01*
X81975000Y-62500000D01*
X81975000Y-66199999D01*
X82024972Y-66199999D01*
X82024986Y-66199998D01*
X82127697Y-66189505D01*
X82294119Y-66134358D01*
X82294126Y-66134355D01*
X82310402Y-66124316D01*
X82377794Y-66105875D01*
X82444458Y-66126797D01*
X82489228Y-66180438D01*
X82499500Y-66229854D01*
X82499500Y-89375500D01*
X82479815Y-89442539D01*
X82427011Y-89488294D01*
X82375500Y-89499500D01*
X5540682Y-89499500D01*
X5473643Y-89479815D01*
X5427888Y-89427011D01*
X5417944Y-89357853D01*
X5446969Y-89294297D01*
X5467797Y-89275182D01*
X5542649Y-89220798D01*
X5542647Y-89220798D01*
X5542656Y-89220793D01*
X5720793Y-89042656D01*
X5868870Y-88838845D01*
X5983241Y-88614379D01*
X6061090Y-88374785D01*
X6100500Y-88125962D01*
X6100500Y-88048995D01*
X17799499Y-88048995D01*
X17826418Y-88184322D01*
X17826421Y-88184332D01*
X17879221Y-88311804D01*
X17879228Y-88311817D01*
X17955885Y-88426541D01*
X17955888Y-88426545D01*
X18053454Y-88524111D01*
X18053458Y-88524114D01*
X18168182Y-88600771D01*
X18168195Y-88600778D01*
X18295667Y-88653578D01*
X18295672Y-88653580D01*
X18295676Y-88653580D01*
X18295677Y-88653581D01*
X18431004Y-88680500D01*
X18431007Y-88680500D01*
X18568995Y-88680500D01*
X18660041Y-88662389D01*
X18704328Y-88653580D01*
X18831811Y-88600775D01*
X18946542Y-88524114D01*
X19044114Y-88426542D01*
X19120775Y-88311811D01*
X19173580Y-88184328D01*
X19195611Y-88073571D01*
X19200500Y-88048995D01*
X20799499Y-88048995D01*
X20826418Y-88184322D01*
X20826421Y-88184332D01*
X20879221Y-88311804D01*
X20879228Y-88311817D01*
X20955885Y-88426541D01*
X20955888Y-88426545D01*
X21053454Y-88524111D01*
X21053458Y-88524114D01*
X21168182Y-88600771D01*
X21168195Y-88600778D01*
X21295667Y-88653578D01*
X21295672Y-88653580D01*
X21295676Y-88653580D01*
X21295677Y-88653581D01*
X21431004Y-88680500D01*
X21431007Y-88680500D01*
X21568995Y-88680500D01*
X21660041Y-88662389D01*
X21704328Y-88653580D01*
X21831811Y-88600775D01*
X21946542Y-88524114D01*
X22044114Y-88426542D01*
X22120775Y-88311811D01*
X22173580Y-88184328D01*
X22195611Y-88073571D01*
X22200500Y-88048995D01*
X22200500Y-87911005D01*
X22199212Y-87904530D01*
X22199212Y-87904528D01*
X22195612Y-87886428D01*
X55550000Y-87886428D01*
X55550000Y-88073571D01*
X55586506Y-88257097D01*
X55586508Y-88257105D01*
X55658119Y-88429991D01*
X55658124Y-88430000D01*
X55762086Y-88585589D01*
X55762089Y-88585593D01*
X55894406Y-88717910D01*
X55894410Y-88717913D01*
X56049999Y-88821875D01*
X56050008Y-88821880D01*
X56222894Y-88893491D01*
X56222902Y-88893493D01*
X56406428Y-88929999D01*
X56406431Y-88930000D01*
X56593569Y-88930000D01*
X56593571Y-88929999D01*
X56777097Y-88893493D01*
X56777105Y-88893491D01*
X56949991Y-88821880D01*
X56950000Y-88821875D01*
X57105589Y-88717913D01*
X57105593Y-88717910D01*
X57237910Y-88585593D01*
X57237913Y-88585589D01*
X57341875Y-88430000D01*
X57341880Y-88429991D01*
X57413491Y-88257105D01*
X57413493Y-88257097D01*
X57449999Y-88073571D01*
X57450000Y-88073569D01*
X57450000Y-87886430D01*
X57449999Y-87886428D01*
X58550000Y-87886428D01*
X58550000Y-88073571D01*
X58586506Y-88257097D01*
X58586508Y-88257105D01*
X58658119Y-88429991D01*
X58658124Y-88430000D01*
X58762086Y-88585589D01*
X58762089Y-88585593D01*
X58894406Y-88717910D01*
X58894410Y-88717913D01*
X59049999Y-88821875D01*
X59050008Y-88821880D01*
X59222894Y-88893491D01*
X59222902Y-88893493D01*
X59406428Y-88929999D01*
X59406431Y-88930000D01*
X59593569Y-88930000D01*
X59593571Y-88929999D01*
X59777097Y-88893493D01*
X59777105Y-88893491D01*
X59949991Y-88821880D01*
X59950000Y-88821875D01*
X60105589Y-88717913D01*
X60105593Y-88717910D01*
X60237910Y-88585593D01*
X60237913Y-88585589D01*
X60341875Y-88430000D01*
X60341880Y-88429991D01*
X60413491Y-88257105D01*
X60413493Y-88257097D01*
X60449999Y-88073571D01*
X60450000Y-88073569D01*
X60450000Y-87886430D01*
X60449999Y-87886428D01*
X60413493Y-87702902D01*
X60413491Y-87702894D01*
X60341880Y-87530008D01*
X60341875Y-87529999D01*
X60237913Y-87374410D01*
X60237910Y-87374406D01*
X60105593Y-87242089D01*
X60105589Y-87242086D01*
X59950000Y-87138124D01*
X59949991Y-87138119D01*
X59777105Y-87066508D01*
X59777097Y-87066506D01*
X59593570Y-87030000D01*
X59406430Y-87030000D01*
X59222902Y-87066506D01*
X59222894Y-87066508D01*
X59050008Y-87138119D01*
X59049999Y-87138124D01*
X58894410Y-87242086D01*
X58894406Y-87242089D01*
X58762089Y-87374406D01*
X58762086Y-87374410D01*
X58658124Y-87529999D01*
X58658119Y-87530008D01*
X58586508Y-87702894D01*
X58586506Y-87702902D01*
X58550000Y-87886428D01*
X57449999Y-87886428D01*
X57413493Y-87702902D01*
X57413491Y-87702894D01*
X57341880Y-87530008D01*
X57341875Y-87529999D01*
X57237913Y-87374410D01*
X57237910Y-87374406D01*
X57105593Y-87242089D01*
X57105589Y-87242086D01*
X56950000Y-87138124D01*
X56949991Y-87138119D01*
X56777105Y-87066508D01*
X56777097Y-87066506D01*
X56593570Y-87030000D01*
X56406430Y-87030000D01*
X56222902Y-87066506D01*
X56222894Y-87066508D01*
X56050008Y-87138119D01*
X56049999Y-87138124D01*
X55894410Y-87242086D01*
X55894406Y-87242089D01*
X55762089Y-87374406D01*
X55762086Y-87374410D01*
X55658124Y-87529999D01*
X55658119Y-87530008D01*
X55586508Y-87702894D01*
X55586506Y-87702902D01*
X55550000Y-87886428D01*
X22195612Y-87886428D01*
X22173581Y-87775677D01*
X22173580Y-87775676D01*
X22173580Y-87775672D01*
X22143438Y-87702902D01*
X22120778Y-87648195D01*
X22120771Y-87648182D01*
X22044114Y-87533458D01*
X22044111Y-87533454D01*
X21946545Y-87435888D01*
X21946541Y-87435885D01*
X21831817Y-87359228D01*
X21831804Y-87359221D01*
X21704332Y-87306421D01*
X21704322Y-87306418D01*
X21568995Y-87279500D01*
X21568993Y-87279500D01*
X21431007Y-87279500D01*
X21431005Y-87279500D01*
X21295677Y-87306418D01*
X21295667Y-87306421D01*
X21168195Y-87359221D01*
X21168182Y-87359228D01*
X21053458Y-87435885D01*
X21053454Y-87435888D01*
X20955888Y-87533454D01*
X20955885Y-87533458D01*
X20879228Y-87648182D01*
X20879221Y-87648195D01*
X20826421Y-87775667D01*
X20826418Y-87775677D01*
X20799500Y-87911004D01*
X20799500Y-87911005D01*
X20799500Y-87911007D01*
X20799500Y-88048993D01*
X20799500Y-88048995D01*
X20799499Y-88048995D01*
X19200500Y-88048995D01*
X19200500Y-87911004D01*
X19173581Y-87775677D01*
X19173580Y-87775676D01*
X19173580Y-87775672D01*
X19143438Y-87702902D01*
X19120778Y-87648195D01*
X19120771Y-87648182D01*
X19044114Y-87533458D01*
X19044111Y-87533454D01*
X18946545Y-87435888D01*
X18946541Y-87435885D01*
X18831817Y-87359228D01*
X18831804Y-87359221D01*
X18704332Y-87306421D01*
X18704322Y-87306418D01*
X18568995Y-87279500D01*
X18568993Y-87279500D01*
X18431007Y-87279500D01*
X18431005Y-87279500D01*
X18295677Y-87306418D01*
X18295667Y-87306421D01*
X18168195Y-87359221D01*
X18168182Y-87359228D01*
X18053458Y-87435885D01*
X18053454Y-87435888D01*
X17955888Y-87533454D01*
X17955885Y-87533458D01*
X17879228Y-87648182D01*
X17879221Y-87648195D01*
X17826421Y-87775667D01*
X17826418Y-87775677D01*
X17799500Y-87911004D01*
X17799500Y-87911005D01*
X17799500Y-87911007D01*
X17799500Y-88048993D01*
X17799500Y-88048995D01*
X17799499Y-88048995D01*
X6100500Y-88048995D01*
X6100500Y-87874038D01*
X6061090Y-87625215D01*
X5983241Y-87385621D01*
X5983239Y-87385618D01*
X5983239Y-87385616D01*
X5929170Y-87279500D01*
X5868870Y-87161155D01*
X5800104Y-87066506D01*
X5720798Y-86957350D01*
X5720794Y-86957345D01*
X5542654Y-86779205D01*
X5542649Y-86779201D01*
X5338848Y-86631132D01*
X5338847Y-86631131D01*
X5338845Y-86631130D01*
X5268747Y-86595413D01*
X5114383Y-86516760D01*
X4874785Y-86438910D01*
X4625962Y-86399500D01*
X4374038Y-86399500D01*
X4249626Y-86419205D01*
X4125214Y-86438910D01*
X3885616Y-86516760D01*
X3661151Y-86631132D01*
X3457350Y-86779201D01*
X3457345Y-86779205D01*
X3279205Y-86957345D01*
X3224818Y-87032203D01*
X3169488Y-87074868D01*
X3099874Y-87080847D01*
X3038079Y-87048241D01*
X3003722Y-86987402D01*
X3000500Y-86959317D01*
X3000500Y-82402053D01*
X21988800Y-82402053D01*
X21988800Y-82559746D01*
X22019561Y-82714389D01*
X22019564Y-82714401D01*
X22079902Y-82860072D01*
X22079909Y-82860085D01*
X22167510Y-82991188D01*
X22167513Y-82991192D01*
X22279007Y-83102686D01*
X22279011Y-83102689D01*
X22410114Y-83190290D01*
X22410127Y-83190297D01*
X22555798Y-83250635D01*
X22555803Y-83250637D01*
X22710453Y-83281399D01*
X22710456Y-83281400D01*
X22710458Y-83281400D01*
X22868144Y-83281400D01*
X22868145Y-83281399D01*
X23022797Y-83250637D01*
X23168479Y-83190294D01*
X23299589Y-83102689D01*
X23318287Y-83083989D01*
X23356980Y-83057756D01*
X23365212Y-83054215D01*
X23416485Y-83040477D01*
X23466604Y-83011539D01*
X23553416Y-82961420D01*
X23665220Y-82849616D01*
X23665220Y-82849614D01*
X23675428Y-82839407D01*
X23675429Y-82839404D01*
X26923017Y-79591819D01*
X26984340Y-79558334D01*
X27010698Y-79555500D01*
X64883617Y-79555500D01*
X64950656Y-79575185D01*
X64996411Y-79627989D01*
X65006355Y-79697147D01*
X64977330Y-79760703D01*
X64960866Y-79775811D01*
X64961057Y-79776035D01*
X64957345Y-79779205D01*
X64779205Y-79957345D01*
X64779201Y-79957350D01*
X64631132Y-80161151D01*
X64516760Y-80385616D01*
X64438910Y-80625214D01*
X64399500Y-80874038D01*
X64399500Y-81125961D01*
X64438910Y-81374785D01*
X64516760Y-81614383D01*
X64631132Y-81838848D01*
X64779201Y-82042649D01*
X64779205Y-82042654D01*
X64957345Y-82220794D01*
X64957350Y-82220798D01*
X64993979Y-82247410D01*
X65161155Y-82368870D01*
X65304184Y-82441747D01*
X65385616Y-82483239D01*
X65385618Y-82483239D01*
X65385621Y-82483241D01*
X65625215Y-82561090D01*
X65874038Y-82600500D01*
X65874039Y-82600500D01*
X66125961Y-82600500D01*
X66125962Y-82600500D01*
X66374785Y-82561090D01*
X66614379Y-82483241D01*
X66838845Y-82368870D01*
X67042656Y-82220793D01*
X67220793Y-82042656D01*
X67368870Y-81838845D01*
X67483241Y-81614379D01*
X67561090Y-81374785D01*
X67600500Y-81125962D01*
X67600500Y-80874038D01*
X67561090Y-80625215D01*
X67483241Y-80385621D01*
X67483239Y-80385618D01*
X67483239Y-80385616D01*
X67379698Y-80182407D01*
X67368870Y-80161155D01*
X67303304Y-80070911D01*
X67220798Y-79957350D01*
X67220794Y-79957345D01*
X67042654Y-79779205D01*
X67038943Y-79776035D01*
X67039805Y-79775025D01*
X67000835Y-79724495D01*
X66994851Y-79654882D01*
X67027454Y-79593085D01*
X67088290Y-79558724D01*
X67116383Y-79555500D01*
X68695531Y-79555500D01*
X68695547Y-79555501D01*
X68703143Y-79555501D01*
X68861254Y-79555501D01*
X68861257Y-79555501D01*
X69013985Y-79514577D01*
X69064104Y-79485639D01*
X69150916Y-79435520D01*
X69262720Y-79323716D01*
X69262720Y-79323714D01*
X69272928Y-79313507D01*
X69272929Y-79313504D01*
X70086447Y-78499986D01*
X74525001Y-78499986D01*
X74535494Y-78602697D01*
X74590641Y-78769119D01*
X74590643Y-78769124D01*
X74682684Y-78918345D01*
X74806654Y-79042315D01*
X74955875Y-79134356D01*
X74955880Y-79134358D01*
X75122302Y-79189505D01*
X75122309Y-79189506D01*
X75225019Y-79199999D01*
X75775000Y-79199999D01*
X75824972Y-79199999D01*
X75824986Y-79199998D01*
X75927697Y-79189505D01*
X76094119Y-79134358D01*
X76094124Y-79134356D01*
X76243345Y-79042315D01*
X76367315Y-78918345D01*
X76459356Y-78769124D01*
X76459358Y-78769119D01*
X76514505Y-78602697D01*
X76514506Y-78602690D01*
X76524999Y-78499986D01*
X79475001Y-78499986D01*
X79485494Y-78602697D01*
X79540641Y-78769119D01*
X79540643Y-78769124D01*
X79632684Y-78918345D01*
X79756654Y-79042315D01*
X79905875Y-79134356D01*
X79905880Y-79134358D01*
X80072302Y-79189505D01*
X80072309Y-79189506D01*
X80175019Y-79199999D01*
X80725000Y-79199999D01*
X80774972Y-79199999D01*
X80774986Y-79199998D01*
X80877697Y-79189505D01*
X81044119Y-79134358D01*
X81044124Y-79134356D01*
X81193345Y-79042315D01*
X81317315Y-78918345D01*
X81409356Y-78769124D01*
X81409358Y-78769119D01*
X81464505Y-78602697D01*
X81464506Y-78602690D01*
X81474999Y-78499986D01*
X81475000Y-78499973D01*
X81475000Y-77600000D01*
X80725000Y-77600000D01*
X80725000Y-79199999D01*
X80175019Y-79199999D01*
X80224999Y-79199998D01*
X80225000Y-79199998D01*
X80225000Y-77600000D01*
X79475001Y-77600000D01*
X79475001Y-78499986D01*
X76524999Y-78499986D01*
X76525000Y-78499973D01*
X76525000Y-77600000D01*
X75775000Y-77600000D01*
X75775000Y-79199999D01*
X75225019Y-79199999D01*
X75274999Y-79199998D01*
X75275000Y-79199998D01*
X75275000Y-77600000D01*
X74525001Y-77600000D01*
X74525001Y-78499986D01*
X70086447Y-78499986D01*
X72386421Y-76200013D01*
X74525000Y-76200013D01*
X74525000Y-77100000D01*
X75275000Y-77100000D01*
X75775000Y-77100000D01*
X76524999Y-77100000D01*
X76524999Y-76200029D01*
X76524998Y-76200013D01*
X79475000Y-76200013D01*
X79475000Y-77100000D01*
X80225000Y-77100000D01*
X80725000Y-77100000D01*
X81474999Y-77100000D01*
X81474999Y-76200028D01*
X81474998Y-76200013D01*
X81464505Y-76097302D01*
X81409358Y-75930880D01*
X81409356Y-75930875D01*
X81317315Y-75781654D01*
X81193345Y-75657684D01*
X81044124Y-75565643D01*
X81044119Y-75565641D01*
X80877697Y-75510494D01*
X80877690Y-75510493D01*
X80774986Y-75500000D01*
X80725000Y-75500000D01*
X80725000Y-77100000D01*
X80225000Y-77100000D01*
X80225000Y-75500000D01*
X80224999Y-75499999D01*
X80175029Y-75500000D01*
X80175011Y-75500001D01*
X80072302Y-75510494D01*
X79905880Y-75565641D01*
X79905875Y-75565643D01*
X79756654Y-75657684D01*
X79632684Y-75781654D01*
X79540643Y-75930875D01*
X79540641Y-75930880D01*
X79485494Y-76097302D01*
X79485493Y-76097309D01*
X79475000Y-76200013D01*
X76524998Y-76200013D01*
X76524998Y-76200012D01*
X76514505Y-76097302D01*
X76459358Y-75930880D01*
X76459356Y-75930875D01*
X76367315Y-75781654D01*
X76243345Y-75657684D01*
X76094124Y-75565643D01*
X76094119Y-75565641D01*
X75927697Y-75510494D01*
X75927690Y-75510493D01*
X75824986Y-75500000D01*
X75775000Y-75500000D01*
X75775000Y-77100000D01*
X75275000Y-77100000D01*
X75275000Y-75500000D01*
X75274999Y-75499999D01*
X75225029Y-75500000D01*
X75225011Y-75500001D01*
X75122302Y-75510494D01*
X74955880Y-75565641D01*
X74955875Y-75565643D01*
X74806654Y-75657684D01*
X74682684Y-75781654D01*
X74590643Y-75930875D01*
X74590641Y-75930880D01*
X74535494Y-76097302D01*
X74535493Y-76097309D01*
X74525000Y-76200013D01*
X72386421Y-76200013D01*
X73799616Y-74786819D01*
X73860939Y-74753334D01*
X73887297Y-74750500D01*
X76450500Y-74750500D01*
X76517539Y-74770185D01*
X76563294Y-74822989D01*
X76574500Y-74874500D01*
X76574500Y-74915701D01*
X76577401Y-74952567D01*
X76577402Y-74952573D01*
X76623254Y-75110393D01*
X76623255Y-75110396D01*
X76706917Y-75251862D01*
X76706923Y-75251870D01*
X76823129Y-75368076D01*
X76823133Y-75368079D01*
X76823135Y-75368081D01*
X76964602Y-75451744D01*
X76987199Y-75458309D01*
X77122426Y-75497597D01*
X77122429Y-75497597D01*
X77122431Y-75497598D01*
X77159306Y-75500500D01*
X77159314Y-75500500D01*
X77590686Y-75500500D01*
X77590694Y-75500500D01*
X77627569Y-75497598D01*
X77627571Y-75497597D01*
X77627573Y-75497597D01*
X77669191Y-75485505D01*
X77785398Y-75451744D01*
X77910140Y-75377972D01*
X77933580Y-75364110D01*
X77934673Y-75365959D01*
X77989425Y-75344452D01*
X78057945Y-75358120D01*
X78066706Y-75363749D01*
X78066729Y-75363712D01*
X78214801Y-75451281D01*
X78372514Y-75497100D01*
X78372511Y-75497100D01*
X78374998Y-75497295D01*
X78375000Y-75497295D01*
X78875000Y-75497295D01*
X78875001Y-75497295D01*
X78877486Y-75497100D01*
X79035198Y-75451281D01*
X79176552Y-75367685D01*
X79176561Y-75367678D01*
X79292678Y-75251561D01*
X79292685Y-75251552D01*
X79376282Y-75110196D01*
X79376283Y-75110193D01*
X79422099Y-74952495D01*
X79422100Y-74952489D01*
X79424999Y-74915649D01*
X79425000Y-74915634D01*
X79425000Y-74400000D01*
X78875000Y-74400000D01*
X78875000Y-75497295D01*
X78375000Y-75497295D01*
X78375000Y-73900000D01*
X78875000Y-73900000D01*
X79425000Y-73900000D01*
X79425000Y-73384365D01*
X79424999Y-73384350D01*
X79422100Y-73347510D01*
X79422099Y-73347504D01*
X79376283Y-73189806D01*
X79376282Y-73189803D01*
X79292685Y-73048447D01*
X79292678Y-73048438D01*
X79176561Y-72932321D01*
X79176552Y-72932314D01*
X79035196Y-72848717D01*
X79035193Y-72848716D01*
X78877494Y-72802900D01*
X78877497Y-72802900D01*
X78875000Y-72802703D01*
X78875000Y-73900000D01*
X78375000Y-73900000D01*
X78375000Y-72802703D01*
X78372503Y-72802900D01*
X78214806Y-72848716D01*
X78214803Y-72848717D01*
X78066729Y-72936288D01*
X78065544Y-72934285D01*
X78011355Y-72955551D01*
X77942840Y-72941860D01*
X77933211Y-72935671D01*
X77807289Y-72861202D01*
X77785398Y-72848256D01*
X77785397Y-72848255D01*
X77785396Y-72848255D01*
X77785393Y-72848254D01*
X77627573Y-72802402D01*
X77627567Y-72802401D01*
X77590701Y-72799500D01*
X77590694Y-72799500D01*
X77159306Y-72799500D01*
X77159298Y-72799500D01*
X77122432Y-72802401D01*
X77122426Y-72802402D01*
X76964606Y-72848254D01*
X76964603Y-72848255D01*
X76823137Y-72931917D01*
X76823129Y-72931923D01*
X76706923Y-73048129D01*
X76706917Y-73048137D01*
X76623255Y-73189603D01*
X76623254Y-73189606D01*
X76577402Y-73347426D01*
X76577401Y-73347432D01*
X76574500Y-73384298D01*
X76574500Y-73425500D01*
X76554815Y-73492539D01*
X76502011Y-73538294D01*
X76450500Y-73549500D01*
X73666257Y-73549500D01*
X73508143Y-73549500D01*
X73355415Y-73590423D01*
X73355414Y-73590423D01*
X73355412Y-73590424D01*
X73355409Y-73590425D01*
X73305296Y-73619359D01*
X73305295Y-73619360D01*
X73261889Y-73644420D01*
X73218485Y-73669479D01*
X73218482Y-73669481D01*
X73106678Y-73781286D01*
X68569784Y-78318181D01*
X68508461Y-78351666D01*
X68482103Y-78354500D01*
X66599000Y-78354500D01*
X66531961Y-78334815D01*
X66486206Y-78282011D01*
X66475000Y-78230500D01*
X66475000Y-77600000D01*
X64475001Y-77600000D01*
X64475001Y-78230500D01*
X64455316Y-78297539D01*
X64402512Y-78343294D01*
X64351001Y-78354500D01*
X61649000Y-78354500D01*
X61581961Y-78334815D01*
X61536206Y-78282011D01*
X61525000Y-78230500D01*
X61525000Y-77600000D01*
X59525001Y-77600000D01*
X59525001Y-78230500D01*
X59505316Y-78297539D01*
X59452512Y-78343294D01*
X59401001Y-78354500D01*
X55896763Y-78354500D01*
X55829724Y-78334815D01*
X55783969Y-78282011D01*
X55774025Y-78212853D01*
X55775146Y-78206309D01*
X55800499Y-78078846D01*
X55800500Y-78078844D01*
X55800500Y-77921155D01*
X55800499Y-77921153D01*
X55779779Y-77816989D01*
X55769737Y-77766503D01*
X55744466Y-77705492D01*
X55709397Y-77620827D01*
X55709390Y-77620814D01*
X55621789Y-77489711D01*
X55621786Y-77489707D01*
X55510292Y-77378213D01*
X55510288Y-77378210D01*
X55379185Y-77290609D01*
X55379172Y-77290602D01*
X55233501Y-77230264D01*
X55233489Y-77230261D01*
X55078845Y-77199500D01*
X55078842Y-77199500D01*
X54921158Y-77199500D01*
X54921155Y-77199500D01*
X54766510Y-77230261D01*
X54766498Y-77230264D01*
X54620827Y-77290602D01*
X54620814Y-77290609D01*
X54489711Y-77378210D01*
X54489707Y-77378213D01*
X54378213Y-77489707D01*
X54378210Y-77489711D01*
X54290609Y-77620814D01*
X54290602Y-77620827D01*
X54230264Y-77766498D01*
X54230261Y-77766510D01*
X54199500Y-77921153D01*
X54199500Y-78078846D01*
X54224854Y-78206309D01*
X54218627Y-78275900D01*
X54175764Y-78331078D01*
X54109874Y-78354322D01*
X54103237Y-78354500D01*
X50433841Y-78354500D01*
X50430913Y-78353640D01*
X50427948Y-78354360D01*
X50397605Y-78343860D01*
X50366802Y-78334815D01*
X50364803Y-78332508D01*
X50361920Y-78331511D01*
X50342066Y-78306269D01*
X50321047Y-78282011D01*
X50320612Y-78278992D01*
X50318726Y-78276593D01*
X50315672Y-78244633D01*
X50311103Y-78212853D01*
X50312371Y-78210076D01*
X50312081Y-78207040D01*
X50326787Y-78178508D01*
X50340128Y-78149297D01*
X50343116Y-78146829D01*
X50344093Y-78144935D01*
X50371833Y-78123117D01*
X50378204Y-78119439D01*
X50465016Y-78069320D01*
X50576820Y-77957516D01*
X50576820Y-77957514D01*
X50587028Y-77947307D01*
X50587029Y-77947304D01*
X52334322Y-76200013D01*
X59525000Y-76200013D01*
X59525000Y-77100000D01*
X60275000Y-77100000D01*
X60775000Y-77100000D01*
X61524999Y-77100000D01*
X61524999Y-76200029D01*
X61524998Y-76200013D01*
X64475000Y-76200013D01*
X64475000Y-77100000D01*
X65225000Y-77100000D01*
X65725000Y-77100000D01*
X66474999Y-77100000D01*
X66474999Y-76200028D01*
X66474998Y-76200013D01*
X66464505Y-76097302D01*
X66409358Y-75930880D01*
X66409356Y-75930875D01*
X66317315Y-75781654D01*
X66193345Y-75657684D01*
X66044124Y-75565643D01*
X66044119Y-75565641D01*
X65877697Y-75510494D01*
X65877690Y-75510493D01*
X65774986Y-75500000D01*
X65725000Y-75500000D01*
X65725000Y-77100000D01*
X65225000Y-77100000D01*
X65225000Y-75500000D01*
X65224999Y-75499999D01*
X65175029Y-75500000D01*
X65175011Y-75500001D01*
X65072302Y-75510494D01*
X64905880Y-75565641D01*
X64905875Y-75565643D01*
X64756654Y-75657684D01*
X64632684Y-75781654D01*
X64540643Y-75930875D01*
X64540641Y-75930880D01*
X64485494Y-76097302D01*
X64485493Y-76097309D01*
X64475000Y-76200013D01*
X61524998Y-76200013D01*
X61524998Y-76200012D01*
X61514505Y-76097302D01*
X61459358Y-75930880D01*
X61459356Y-75930875D01*
X61367315Y-75781654D01*
X61243345Y-75657684D01*
X61094124Y-75565643D01*
X61094119Y-75565641D01*
X60927697Y-75510494D01*
X60927690Y-75510493D01*
X60824986Y-75500000D01*
X60775000Y-75500000D01*
X60775000Y-77100000D01*
X60275000Y-77100000D01*
X60275000Y-75500000D01*
X60274999Y-75499999D01*
X60225029Y-75500000D01*
X60225011Y-75500001D01*
X60122302Y-75510494D01*
X59955880Y-75565641D01*
X59955875Y-75565643D01*
X59806654Y-75657684D01*
X59682684Y-75781654D01*
X59590643Y-75930875D01*
X59590641Y-75930880D01*
X59535494Y-76097302D01*
X59535493Y-76097309D01*
X59525000Y-76200013D01*
X52334322Y-76200013D01*
X53747517Y-74786819D01*
X53808840Y-74753334D01*
X53835198Y-74750500D01*
X61450500Y-74750500D01*
X61517539Y-74770185D01*
X61563294Y-74822989D01*
X61574500Y-74874500D01*
X61574500Y-74915701D01*
X61577401Y-74952567D01*
X61577402Y-74952573D01*
X61623254Y-75110393D01*
X61623255Y-75110396D01*
X61706917Y-75251862D01*
X61706923Y-75251870D01*
X61823129Y-75368076D01*
X61823133Y-75368079D01*
X61823135Y-75368081D01*
X61964602Y-75451744D01*
X61987199Y-75458309D01*
X62122426Y-75497597D01*
X62122429Y-75497597D01*
X62122431Y-75497598D01*
X62159306Y-75500500D01*
X62159314Y-75500500D01*
X62590686Y-75500500D01*
X62590694Y-75500500D01*
X62627569Y-75497598D01*
X62627571Y-75497597D01*
X62627573Y-75497597D01*
X62669191Y-75485505D01*
X62785398Y-75451744D01*
X62910140Y-75377972D01*
X62933580Y-75364110D01*
X62934673Y-75365959D01*
X62989425Y-75344452D01*
X63057945Y-75358120D01*
X63066706Y-75363749D01*
X63066729Y-75363712D01*
X63214801Y-75451281D01*
X63372514Y-75497100D01*
X63372511Y-75497100D01*
X63374998Y-75497295D01*
X63375000Y-75497295D01*
X63875000Y-75497295D01*
X63875001Y-75497295D01*
X63877486Y-75497100D01*
X64035198Y-75451281D01*
X64176552Y-75367685D01*
X64176561Y-75367678D01*
X64292678Y-75251561D01*
X64292685Y-75251552D01*
X64376282Y-75110196D01*
X64376283Y-75110193D01*
X64422099Y-74952495D01*
X64422100Y-74952489D01*
X64424999Y-74915649D01*
X64425000Y-74915634D01*
X64425000Y-74400000D01*
X63875000Y-74400000D01*
X63875000Y-75497295D01*
X63375000Y-75497295D01*
X63375000Y-73900000D01*
X63875000Y-73900000D01*
X64425000Y-73900000D01*
X64425000Y-73384365D01*
X64424999Y-73384350D01*
X64422100Y-73347510D01*
X64422099Y-73347504D01*
X64376283Y-73189806D01*
X64376282Y-73189803D01*
X64292685Y-73048447D01*
X64292678Y-73048438D01*
X64176561Y-72932321D01*
X64176552Y-72932314D01*
X64035196Y-72848717D01*
X64035193Y-72848716D01*
X63877494Y-72802900D01*
X63877497Y-72802900D01*
X63875000Y-72802703D01*
X63875000Y-73900000D01*
X63375000Y-73900000D01*
X63375000Y-72802703D01*
X63372503Y-72802900D01*
X63214806Y-72848716D01*
X63214803Y-72848717D01*
X63066729Y-72936288D01*
X63065544Y-72934285D01*
X63011355Y-72955551D01*
X62942840Y-72941860D01*
X62933211Y-72935671D01*
X62807289Y-72861202D01*
X62785398Y-72848256D01*
X62785397Y-72848255D01*
X62785396Y-72848255D01*
X62785393Y-72848254D01*
X62627573Y-72802402D01*
X62627567Y-72802401D01*
X62590701Y-72799500D01*
X62590694Y-72799500D01*
X62159306Y-72799500D01*
X62159298Y-72799500D01*
X62122432Y-72802401D01*
X62122426Y-72802402D01*
X61964606Y-72848254D01*
X61964603Y-72848255D01*
X61823137Y-72931917D01*
X61823129Y-72931923D01*
X61706923Y-73048129D01*
X61706917Y-73048137D01*
X61623255Y-73189603D01*
X61623254Y-73189606D01*
X61577402Y-73347426D01*
X61577401Y-73347432D01*
X61574500Y-73384298D01*
X61574500Y-73425500D01*
X61554815Y-73492539D01*
X61502011Y-73538294D01*
X61450500Y-73549500D01*
X54009897Y-73549500D01*
X53942858Y-73529815D01*
X53897103Y-73477011D01*
X53887159Y-73407853D01*
X53916184Y-73344297D01*
X53922216Y-73337819D01*
X54638995Y-72621040D01*
X57352006Y-69908027D01*
X57352011Y-69908024D01*
X57362214Y-69897820D01*
X57362216Y-69897820D01*
X57474020Y-69786016D01*
X57541415Y-69669284D01*
X57553077Y-69649085D01*
X57594001Y-69496357D01*
X57594001Y-69338243D01*
X57594001Y-69330648D01*
X57594000Y-69330630D01*
X57594000Y-65499986D01*
X58275001Y-65499986D01*
X58285494Y-65602697D01*
X58340641Y-65769119D01*
X58340643Y-65769124D01*
X58432684Y-65918345D01*
X58556654Y-66042315D01*
X58705875Y-66134356D01*
X58705880Y-66134358D01*
X58872302Y-66189505D01*
X58872309Y-66189506D01*
X58975019Y-66199999D01*
X59525000Y-66199999D01*
X59574972Y-66199999D01*
X59574986Y-66199998D01*
X59677697Y-66189505D01*
X59844119Y-66134358D01*
X59844124Y-66134356D01*
X59993345Y-66042315D01*
X60117315Y-65918345D01*
X60209356Y-65769124D01*
X60209358Y-65769119D01*
X60264505Y-65602697D01*
X60264506Y-65602690D01*
X60274999Y-65499986D01*
X65725001Y-65499986D01*
X65735494Y-65602697D01*
X65790641Y-65769119D01*
X65790643Y-65769124D01*
X65882684Y-65918345D01*
X66006654Y-66042315D01*
X66155875Y-66134356D01*
X66155880Y-66134358D01*
X66322302Y-66189505D01*
X66322309Y-66189506D01*
X66425019Y-66199999D01*
X66975000Y-66199999D01*
X67024972Y-66199999D01*
X67024986Y-66199998D01*
X67127697Y-66189505D01*
X67294119Y-66134358D01*
X67294124Y-66134356D01*
X67443345Y-66042315D01*
X67567315Y-65918345D01*
X67659356Y-65769124D01*
X67659358Y-65769119D01*
X67714505Y-65602697D01*
X67714506Y-65602690D01*
X67724999Y-65499986D01*
X73275001Y-65499986D01*
X73285494Y-65602697D01*
X73340641Y-65769119D01*
X73340643Y-65769124D01*
X73432684Y-65918345D01*
X73556654Y-66042315D01*
X73705875Y-66134356D01*
X73705880Y-66134358D01*
X73872302Y-66189505D01*
X73872309Y-66189506D01*
X73975019Y-66199999D01*
X74525000Y-66199999D01*
X74574972Y-66199999D01*
X74574986Y-66199998D01*
X74677697Y-66189505D01*
X74844119Y-66134358D01*
X74844124Y-66134356D01*
X74993345Y-66042315D01*
X75117315Y-65918345D01*
X75209356Y-65769124D01*
X75209358Y-65769119D01*
X75264505Y-65602697D01*
X75264506Y-65602690D01*
X75274999Y-65499986D01*
X80725001Y-65499986D01*
X80735494Y-65602697D01*
X80790641Y-65769119D01*
X80790643Y-65769124D01*
X80882684Y-65918345D01*
X81006654Y-66042315D01*
X81155875Y-66134356D01*
X81155880Y-66134358D01*
X81322302Y-66189505D01*
X81322309Y-66189506D01*
X81425019Y-66199999D01*
X81474999Y-66199998D01*
X81475000Y-66199998D01*
X81475000Y-64600000D01*
X80725001Y-64600000D01*
X80725001Y-65499986D01*
X75274999Y-65499986D01*
X75275000Y-65499973D01*
X75275000Y-64600000D01*
X74525000Y-64600000D01*
X74525000Y-66199999D01*
X73975019Y-66199999D01*
X74024999Y-66199998D01*
X74025000Y-66199998D01*
X74025000Y-64600000D01*
X73275001Y-64600000D01*
X73275001Y-65499986D01*
X67724999Y-65499986D01*
X67725000Y-65499973D01*
X67725000Y-64600000D01*
X66975000Y-64600000D01*
X66975000Y-66199999D01*
X66425019Y-66199999D01*
X66474999Y-66199998D01*
X66475000Y-66199998D01*
X66475000Y-64600000D01*
X65725001Y-64600000D01*
X65725001Y-65499986D01*
X60274999Y-65499986D01*
X60275000Y-65499973D01*
X60275000Y-64600000D01*
X59525000Y-64600000D01*
X59525000Y-66199999D01*
X58975019Y-66199999D01*
X59024999Y-66199998D01*
X59025000Y-66199998D01*
X59025000Y-64600000D01*
X58275001Y-64600000D01*
X58275001Y-65499986D01*
X57594000Y-65499986D01*
X57594000Y-64860197D01*
X57613685Y-64793158D01*
X57630319Y-64772516D01*
X58266516Y-64136319D01*
X58327839Y-64102834D01*
X58354197Y-64100000D01*
X60274999Y-64100000D01*
X60274999Y-63200028D01*
X60274998Y-63200013D01*
X60264505Y-63097302D01*
X60209358Y-62930880D01*
X60209356Y-62930875D01*
X60117315Y-62781654D01*
X59993343Y-62657682D01*
X59973309Y-62645325D01*
X59926585Y-62593376D01*
X59915364Y-62524414D01*
X59943208Y-62460332D01*
X59950703Y-62452130D01*
X60230185Y-62172648D01*
X60291506Y-62139165D01*
X60361198Y-62144149D01*
X60417131Y-62186021D01*
X60424596Y-62197210D01*
X60456916Y-62251861D01*
X60456923Y-62251870D01*
X60573129Y-62368076D01*
X60573133Y-62368079D01*
X60573135Y-62368081D01*
X60714602Y-62451744D01*
X60744162Y-62460332D01*
X60872426Y-62497597D01*
X60872429Y-62497597D01*
X60872431Y-62497598D01*
X60909306Y-62500500D01*
X60909314Y-62500500D01*
X61340686Y-62500500D01*
X61340694Y-62500500D01*
X61377569Y-62497598D01*
X61377571Y-62497597D01*
X61377573Y-62497597D01*
X61436324Y-62480528D01*
X61535398Y-62451744D01*
X61660048Y-62378026D01*
X61683580Y-62364110D01*
X61684673Y-62365959D01*
X61739425Y-62344452D01*
X61807945Y-62358120D01*
X61816706Y-62363749D01*
X61816729Y-62363712D01*
X61964801Y-62451281D01*
X62122514Y-62497100D01*
X62122511Y-62497100D01*
X62124998Y-62497295D01*
X62125000Y-62497295D01*
X62125000Y-61274000D01*
X62127550Y-61265314D01*
X62126262Y-61256353D01*
X62137240Y-61232312D01*
X62144685Y-61206961D01*
X62151525Y-61201033D01*
X62155287Y-61192797D01*
X62177521Y-61178507D01*
X62197489Y-61161206D01*
X62208003Y-61158918D01*
X62214065Y-61155023D01*
X62249000Y-61150000D01*
X62329800Y-61150000D01*
X62396839Y-61169685D01*
X62442594Y-61222489D01*
X62453800Y-61274000D01*
X62453800Y-61969030D01*
X62453799Y-61969048D01*
X62453799Y-62134754D01*
X62453798Y-62134754D01*
X62494722Y-62287483D01*
X62518175Y-62328106D01*
X62518182Y-62328117D01*
X62520053Y-62331357D01*
X62573780Y-62424416D01*
X62597539Y-62448175D01*
X62604445Y-62458623D01*
X62611184Y-62480528D01*
X62615589Y-62488595D01*
X62639919Y-62511086D01*
X62656466Y-62514562D01*
X62656943Y-62514917D01*
X62657238Y-62514981D01*
X62685220Y-62535927D01*
X62685494Y-62536130D01*
X62692649Y-62543284D01*
X62766039Y-62616674D01*
X62766049Y-62616685D01*
X62770379Y-62621015D01*
X62770380Y-62621016D01*
X62882184Y-62732820D01*
X62882186Y-62732821D01*
X62882190Y-62732824D01*
X62968993Y-62782939D01*
X63019116Y-62811877D01*
X63130919Y-62841834D01*
X63171842Y-62852800D01*
X63171843Y-62852800D01*
X65644795Y-62852800D01*
X65711834Y-62872485D01*
X65757589Y-62925289D01*
X65767533Y-62994447D01*
X65762501Y-63015804D01*
X65735494Y-63097302D01*
X65735493Y-63097309D01*
X65725000Y-63200013D01*
X65725000Y-64100000D01*
X67724999Y-64100000D01*
X67724999Y-63200028D01*
X67724998Y-63200013D01*
X67714505Y-63097302D01*
X67687500Y-63015804D01*
X67685098Y-62945975D01*
X67720830Y-62885934D01*
X67783351Y-62854741D01*
X67805206Y-62852800D01*
X73194795Y-62852800D01*
X73261834Y-62872485D01*
X73307589Y-62925289D01*
X73317533Y-62994447D01*
X73312501Y-63015804D01*
X73285494Y-63097302D01*
X73285493Y-63097309D01*
X73275000Y-63200013D01*
X73275000Y-64100000D01*
X75274999Y-64100000D01*
X75274999Y-63200029D01*
X75274998Y-63200013D01*
X80725000Y-63200013D01*
X80725000Y-64100000D01*
X81475000Y-64100000D01*
X81475000Y-62500000D01*
X81474999Y-62499999D01*
X81425029Y-62500000D01*
X81425011Y-62500001D01*
X81322302Y-62510494D01*
X81155880Y-62565641D01*
X81155875Y-62565643D01*
X81006654Y-62657684D01*
X80882684Y-62781654D01*
X80790643Y-62930875D01*
X80790641Y-62930880D01*
X80735494Y-63097302D01*
X80735493Y-63097309D01*
X80725000Y-63200013D01*
X75274998Y-63200013D01*
X75274998Y-63200012D01*
X75264505Y-63097302D01*
X75215277Y-62948742D01*
X75214200Y-62917449D01*
X75211223Y-62886274D01*
X75213008Y-62882809D01*
X75212875Y-62878914D01*
X75228888Y-62852006D01*
X75243238Y-62824170D01*
X75247403Y-62820893D01*
X75248607Y-62818872D01*
X75270973Y-62802356D01*
X75304604Y-62782939D01*
X75391416Y-62732820D01*
X75503220Y-62621016D01*
X75503220Y-62621014D01*
X75513428Y-62610807D01*
X75513430Y-62610804D01*
X75630117Y-62494116D01*
X75691438Y-62460633D01*
X75752391Y-62462723D01*
X75872426Y-62497597D01*
X75872429Y-62497597D01*
X75872431Y-62497598D01*
X75909306Y-62500500D01*
X75909314Y-62500500D01*
X76340686Y-62500500D01*
X76340694Y-62500500D01*
X76377569Y-62497598D01*
X76377571Y-62497597D01*
X76377573Y-62497597D01*
X76436324Y-62480528D01*
X76535398Y-62451744D01*
X76660048Y-62378026D01*
X76683580Y-62364110D01*
X76684747Y-62366083D01*
X76739035Y-62344769D01*
X76807553Y-62358448D01*
X76816404Y-62364136D01*
X76816420Y-62364110D01*
X76857034Y-62388128D01*
X76964602Y-62451744D01*
X76994162Y-62460332D01*
X77122426Y-62497597D01*
X77122429Y-62497597D01*
X77122431Y-62497598D01*
X77159306Y-62500500D01*
X77159314Y-62500500D01*
X77590686Y-62500500D01*
X77590694Y-62500500D01*
X77627569Y-62497598D01*
X77627571Y-62497597D01*
X77627573Y-62497597D01*
X77686324Y-62480528D01*
X77785398Y-62451744D01*
X77910048Y-62378026D01*
X77933580Y-62364110D01*
X77934747Y-62366083D01*
X77989035Y-62344769D01*
X78057553Y-62358448D01*
X78066404Y-62364136D01*
X78066420Y-62364110D01*
X78107034Y-62388128D01*
X78214602Y-62451744D01*
X78244162Y-62460332D01*
X78372426Y-62497597D01*
X78372429Y-62497597D01*
X78372431Y-62497598D01*
X78409306Y-62500500D01*
X78409314Y-62500500D01*
X78840686Y-62500500D01*
X78840694Y-62500500D01*
X78877569Y-62497598D01*
X78877571Y-62497597D01*
X78877573Y-62497597D01*
X78936324Y-62480528D01*
X79035398Y-62451744D01*
X79160048Y-62378026D01*
X79183580Y-62364110D01*
X79184747Y-62366083D01*
X79239035Y-62344769D01*
X79307553Y-62358448D01*
X79316404Y-62364136D01*
X79316420Y-62364110D01*
X79357034Y-62388128D01*
X79464602Y-62451744D01*
X79494162Y-62460332D01*
X79622426Y-62497597D01*
X79622429Y-62497597D01*
X79622431Y-62497598D01*
X79659306Y-62500500D01*
X79659314Y-62500500D01*
X80090686Y-62500500D01*
X80090694Y-62500500D01*
X80127569Y-62497598D01*
X80127571Y-62497597D01*
X80127573Y-62497597D01*
X80186324Y-62480528D01*
X80285398Y-62451744D01*
X80426865Y-62368081D01*
X80543081Y-62251865D01*
X80626744Y-62110398D01*
X80672598Y-61952569D01*
X80675500Y-61915694D01*
X80675500Y-60384306D01*
X80672598Y-60347431D01*
X80626744Y-60189602D01*
X80543081Y-60048135D01*
X80543079Y-60048133D01*
X80543076Y-60048129D01*
X80426870Y-59931923D01*
X80426862Y-59931917D01*
X80285396Y-59848255D01*
X80285393Y-59848254D01*
X80127573Y-59802402D01*
X80127567Y-59802401D01*
X80090701Y-59799500D01*
X80090694Y-59799500D01*
X79659306Y-59799500D01*
X79659298Y-59799500D01*
X79622432Y-59802401D01*
X79622426Y-59802402D01*
X79464606Y-59848254D01*
X79464603Y-59848255D01*
X79316420Y-59935890D01*
X79315254Y-59933919D01*
X79260942Y-59955232D01*
X79192427Y-59941540D01*
X79183595Y-59935864D01*
X79183580Y-59935890D01*
X79035396Y-59848255D01*
X79035393Y-59848254D01*
X78877573Y-59802402D01*
X78877567Y-59802401D01*
X78840701Y-59799500D01*
X78840694Y-59799500D01*
X78409306Y-59799500D01*
X78409298Y-59799500D01*
X78372432Y-59802401D01*
X78372426Y-59802402D01*
X78214606Y-59848254D01*
X78214603Y-59848255D01*
X78066420Y-59935890D01*
X78065254Y-59933919D01*
X78010942Y-59955232D01*
X77942427Y-59941540D01*
X77933595Y-59935864D01*
X77933580Y-59935890D01*
X77785396Y-59848255D01*
X77785393Y-59848254D01*
X77627573Y-59802402D01*
X77627567Y-59802401D01*
X77590701Y-59799500D01*
X77590694Y-59799500D01*
X77159306Y-59799500D01*
X77159298Y-59799500D01*
X77122432Y-59802401D01*
X77122426Y-59802402D01*
X76964606Y-59848254D01*
X76964603Y-59848255D01*
X76816420Y-59935890D01*
X76815254Y-59933919D01*
X76760942Y-59955232D01*
X76692427Y-59941540D01*
X76683595Y-59935864D01*
X76683580Y-59935890D01*
X76535396Y-59848255D01*
X76535393Y-59848254D01*
X76377573Y-59802402D01*
X76377567Y-59802401D01*
X76340701Y-59799500D01*
X76340694Y-59799500D01*
X75909306Y-59799500D01*
X75909298Y-59799500D01*
X75872432Y-59802401D01*
X75872426Y-59802402D01*
X75714606Y-59848254D01*
X75714603Y-59848255D01*
X75573137Y-59931917D01*
X75573129Y-59931923D01*
X75456923Y-60048129D01*
X75456917Y-60048137D01*
X75373255Y-60189603D01*
X75373254Y-60189606D01*
X75327402Y-60347426D01*
X75327401Y-60347432D01*
X75324500Y-60384298D01*
X75324500Y-61049902D01*
X75304815Y-61116941D01*
X75288181Y-61137583D01*
X74810284Y-61615481D01*
X74748961Y-61648966D01*
X74722603Y-61651800D01*
X65799500Y-61651800D01*
X65732461Y-61632115D01*
X65686706Y-61579311D01*
X65675500Y-61527800D01*
X65675500Y-60384313D01*
X65675499Y-60384298D01*
X65672598Y-60347432D01*
X65672597Y-60347426D01*
X65626745Y-60189606D01*
X65626744Y-60189603D01*
X65626744Y-60189602D01*
X65543081Y-60048135D01*
X65543079Y-60048133D01*
X65543076Y-60048129D01*
X65426870Y-59931923D01*
X65426862Y-59931917D01*
X65285396Y-59848255D01*
X65285393Y-59848254D01*
X65127573Y-59802402D01*
X65127567Y-59802401D01*
X65090701Y-59799500D01*
X65090694Y-59799500D01*
X64659306Y-59799500D01*
X64659297Y-59799500D01*
X64627231Y-59802024D01*
X64558854Y-59787659D01*
X64529822Y-59766087D01*
X63717490Y-58953755D01*
X63717488Y-58953752D01*
X63598617Y-58834881D01*
X63598616Y-58834880D01*
X63485785Y-58769737D01*
X63485785Y-58769736D01*
X63485780Y-58769735D01*
X63477372Y-58764880D01*
X63461686Y-58755823D01*
X63423503Y-58745592D01*
X63308957Y-58714899D01*
X63150843Y-58714899D01*
X63143247Y-58714899D01*
X63143231Y-58714900D01*
X59212442Y-58714900D01*
X59059714Y-58755823D01*
X59040710Y-58766795D01*
X59035616Y-58769737D01*
X58982334Y-58800499D01*
X58922785Y-58834879D01*
X58922782Y-58834881D01*
X42424539Y-75333125D01*
X42363216Y-75366610D01*
X42361050Y-75367061D01*
X42205708Y-75397961D01*
X42205698Y-75397964D01*
X42060027Y-75458302D01*
X42060014Y-75458309D01*
X41928911Y-75545910D01*
X41928907Y-75545913D01*
X41817413Y-75657407D01*
X41817410Y-75657411D01*
X41729809Y-75788514D01*
X41729802Y-75788527D01*
X41669464Y-75934198D01*
X41669461Y-75934210D01*
X41638700Y-76088853D01*
X41638700Y-76246546D01*
X41669461Y-76401189D01*
X41669463Y-76401197D01*
X41695952Y-76465147D01*
X41703421Y-76534617D01*
X41672146Y-76597096D01*
X41612057Y-76632748D01*
X41581391Y-76636600D01*
X25602841Y-76636600D01*
X25535802Y-76616915D01*
X25515160Y-76600281D01*
X25488292Y-76573413D01*
X25488288Y-76573410D01*
X25357185Y-76485809D01*
X25357172Y-76485802D01*
X25211501Y-76425464D01*
X25211489Y-76425461D01*
X25056845Y-76394700D01*
X25056842Y-76394700D01*
X24899158Y-76394700D01*
X24899155Y-76394700D01*
X24744510Y-76425461D01*
X24744498Y-76425464D01*
X24598827Y-76485802D01*
X24598814Y-76485809D01*
X24467711Y-76573410D01*
X24467707Y-76573413D01*
X24356213Y-76684907D01*
X24356210Y-76684911D01*
X24268609Y-76816014D01*
X24268602Y-76816027D01*
X24208264Y-76961698D01*
X24208261Y-76961710D01*
X24177500Y-77116353D01*
X24177500Y-77274046D01*
X24208261Y-77428689D01*
X24208264Y-77428701D01*
X24268602Y-77574372D01*
X24268609Y-77574385D01*
X24356210Y-77705488D01*
X24356213Y-77705492D01*
X24467707Y-77816986D01*
X24467711Y-77816989D01*
X24598814Y-77904590D01*
X24598827Y-77904597D01*
X24726587Y-77957516D01*
X24744503Y-77964937D01*
X24899153Y-77995699D01*
X24899156Y-77995700D01*
X24899158Y-77995700D01*
X25056844Y-77995700D01*
X25056845Y-77995699D01*
X25211497Y-77964937D01*
X25357179Y-77904594D01*
X25426167Y-77858497D01*
X25492843Y-77837620D01*
X25495057Y-77837600D01*
X25899203Y-77837600D01*
X25966242Y-77857285D01*
X26011997Y-77910089D01*
X26021941Y-77979247D01*
X25992916Y-78042803D01*
X25986884Y-78049281D01*
X24178039Y-79858125D01*
X24116716Y-79891610D01*
X24114550Y-79892061D01*
X23959208Y-79922961D01*
X23959198Y-79922964D01*
X23813527Y-79983302D01*
X23813514Y-79983309D01*
X23682411Y-80070910D01*
X23682407Y-80070913D01*
X23570913Y-80182407D01*
X23570910Y-80182411D01*
X23483309Y-80313514D01*
X23483302Y-80313527D01*
X23422964Y-80459198D01*
X23422961Y-80459210D01*
X23392200Y-80613853D01*
X23392200Y-80771546D01*
X23422961Y-80926189D01*
X23422964Y-80926201D01*
X23483302Y-81071872D01*
X23483309Y-81071885D01*
X23531382Y-81143830D01*
X23552260Y-81210507D01*
X23533776Y-81277887D01*
X23515961Y-81300402D01*
X23138396Y-81677967D01*
X23077073Y-81711452D01*
X23026524Y-81711903D01*
X22868146Y-81680400D01*
X22868142Y-81680400D01*
X22710458Y-81680400D01*
X22710455Y-81680400D01*
X22555810Y-81711161D01*
X22555798Y-81711164D01*
X22410127Y-81771502D01*
X22410114Y-81771509D01*
X22279011Y-81859110D01*
X22279007Y-81859113D01*
X22167513Y-81970607D01*
X22167510Y-81970611D01*
X22079909Y-82101714D01*
X22079902Y-82101727D01*
X22019564Y-82247398D01*
X22019561Y-82247410D01*
X21988800Y-82402053D01*
X3000500Y-82402053D01*
X3000500Y-68705553D01*
X14051500Y-68705553D01*
X14051500Y-68863246D01*
X14082261Y-69017889D01*
X14082264Y-69017901D01*
X14142602Y-69163572D01*
X14142609Y-69163585D01*
X14230602Y-69295274D01*
X14251480Y-69361951D01*
X14251500Y-69364165D01*
X14251500Y-69516557D01*
X14292423Y-69669284D01*
X14292425Y-69669287D01*
X14292426Y-69669290D01*
X14371475Y-69806209D01*
X14371479Y-69806214D01*
X14371480Y-69806216D01*
X14483284Y-69918020D01*
X14483286Y-69918021D01*
X14483290Y-69918024D01*
X14554697Y-69959250D01*
X14620216Y-69997077D01*
X14772943Y-70038000D01*
X14772945Y-70038000D01*
X14931055Y-70038000D01*
X14931057Y-70038000D01*
X15083784Y-69997077D01*
X15116549Y-69978159D01*
X15184449Y-69961686D01*
X15240549Y-69978158D01*
X15273315Y-69997077D01*
X15426043Y-70038001D01*
X15426046Y-70038001D01*
X15591753Y-70038001D01*
X15591769Y-70038000D01*
X44328034Y-70038000D01*
X44395073Y-70057685D01*
X44396925Y-70058898D01*
X44528614Y-70146890D01*
X44528627Y-70146897D01*
X44674298Y-70207235D01*
X44674303Y-70207237D01*
X44828953Y-70237999D01*
X44828956Y-70238000D01*
X44828958Y-70238000D01*
X44986644Y-70238000D01*
X44986645Y-70237999D01*
X45141297Y-70207237D01*
X45286979Y-70146894D01*
X45418089Y-70059289D01*
X45529589Y-69947789D01*
X45617194Y-69816679D01*
X45621528Y-69806217D01*
X45677535Y-69671001D01*
X45677537Y-69670997D01*
X45708300Y-69516342D01*
X45708300Y-69358658D01*
X45708300Y-69358655D01*
X45708299Y-69358653D01*
X45699810Y-69315978D01*
X45677537Y-69204003D01*
X45677535Y-69203998D01*
X45617197Y-69058327D01*
X45617190Y-69058314D01*
X45529589Y-68927211D01*
X45529586Y-68927207D01*
X45418092Y-68815713D01*
X45418088Y-68815710D01*
X45286985Y-68728109D01*
X45286972Y-68728102D01*
X45141301Y-68667764D01*
X45141289Y-68667761D01*
X44986645Y-68637000D01*
X44986642Y-68637000D01*
X44828958Y-68637000D01*
X44828955Y-68637000D01*
X44674310Y-68667761D01*
X44674298Y-68667764D01*
X44528627Y-68728102D01*
X44528614Y-68728109D01*
X44396925Y-68816102D01*
X44330247Y-68836980D01*
X44328034Y-68837000D01*
X15805197Y-68837000D01*
X15775756Y-68828355D01*
X15745770Y-68821832D01*
X15740754Y-68818077D01*
X15738158Y-68817315D01*
X15717516Y-68800681D01*
X15686574Y-68769739D01*
X15653089Y-68708416D01*
X15652638Y-68706249D01*
X15621738Y-68550910D01*
X15621737Y-68550903D01*
X15621735Y-68550898D01*
X15561397Y-68405227D01*
X15561390Y-68405214D01*
X15473789Y-68274111D01*
X15473786Y-68274107D01*
X15362292Y-68162613D01*
X15362288Y-68162610D01*
X15231185Y-68075009D01*
X15231172Y-68075002D01*
X15085501Y-68014664D01*
X15085489Y-68014661D01*
X14930845Y-67983900D01*
X14930842Y-67983900D01*
X14773158Y-67983900D01*
X14773155Y-67983900D01*
X14618510Y-68014661D01*
X14618498Y-68014664D01*
X14472827Y-68075002D01*
X14472814Y-68075009D01*
X14341711Y-68162610D01*
X14341707Y-68162613D01*
X14230213Y-68274107D01*
X14230210Y-68274111D01*
X14142609Y-68405214D01*
X14142602Y-68405227D01*
X14082264Y-68550898D01*
X14082261Y-68550910D01*
X14051500Y-68705553D01*
X3000500Y-68705553D01*
X3000500Y-57921153D01*
X31199500Y-57921153D01*
X31199500Y-58078846D01*
X31230261Y-58233489D01*
X31230264Y-58233501D01*
X31290602Y-58379172D01*
X31290609Y-58379185D01*
X31378210Y-58510288D01*
X31378213Y-58510292D01*
X31489707Y-58621786D01*
X31489711Y-58621789D01*
X31620814Y-58709390D01*
X31620827Y-58709397D01*
X31732911Y-58755823D01*
X31766503Y-58769737D01*
X31921153Y-58800499D01*
X31921156Y-58800500D01*
X31921158Y-58800500D01*
X32078844Y-58800500D01*
X32078845Y-58800499D01*
X32233497Y-58769737D01*
X32379179Y-58709394D01*
X32510289Y-58621789D01*
X32621789Y-58510289D01*
X32709394Y-58379179D01*
X32769737Y-58233497D01*
X32800500Y-58078842D01*
X32800500Y-57921158D01*
X32800500Y-57921155D01*
X32800499Y-57921153D01*
X32769738Y-57766510D01*
X32769737Y-57766503D01*
X32769735Y-57766498D01*
X32709397Y-57620827D01*
X32709390Y-57620814D01*
X32621789Y-57489711D01*
X32621786Y-57489707D01*
X32510292Y-57378213D01*
X32510288Y-57378210D01*
X32379185Y-57290609D01*
X32379172Y-57290602D01*
X32233501Y-57230264D01*
X32233489Y-57230261D01*
X32078845Y-57199500D01*
X32078842Y-57199500D01*
X31921158Y-57199500D01*
X31921155Y-57199500D01*
X31766510Y-57230261D01*
X31766498Y-57230264D01*
X31620827Y-57290602D01*
X31620814Y-57290609D01*
X31489711Y-57378210D01*
X31489707Y-57378213D01*
X31378213Y-57489707D01*
X31378210Y-57489711D01*
X31290609Y-57620814D01*
X31290602Y-57620827D01*
X31230264Y-57766498D01*
X31230261Y-57766510D01*
X31199500Y-57921153D01*
X3000500Y-57921153D01*
X3000500Y-57040682D01*
X3020185Y-56973643D01*
X3072989Y-56927888D01*
X3142147Y-56917944D01*
X3205703Y-56946969D01*
X3224818Y-56967797D01*
X3279201Y-57042649D01*
X3279205Y-57042654D01*
X3457345Y-57220794D01*
X3457350Y-57220798D01*
X3635117Y-57349952D01*
X3661155Y-57368870D01*
X3804184Y-57441747D01*
X3885616Y-57483239D01*
X3885618Y-57483239D01*
X3885621Y-57483241D01*
X4125215Y-57561090D01*
X4374038Y-57600500D01*
X4374039Y-57600500D01*
X4625961Y-57600500D01*
X4625962Y-57600500D01*
X4874785Y-57561090D01*
X5114379Y-57483241D01*
X5338845Y-57368870D01*
X5542656Y-57220793D01*
X5720793Y-57042656D01*
X5868870Y-56838845D01*
X5983241Y-56614379D01*
X6061090Y-56374785D01*
X6100500Y-56125962D01*
X6100500Y-55874038D01*
X63399500Y-55874038D01*
X63399500Y-56125961D01*
X63438910Y-56374785D01*
X63516760Y-56614383D01*
X63631132Y-56838848D01*
X63779201Y-57042649D01*
X63779205Y-57042654D01*
X63957345Y-57220794D01*
X63957350Y-57220798D01*
X64135117Y-57349952D01*
X64161155Y-57368870D01*
X64304184Y-57441747D01*
X64385616Y-57483239D01*
X64385618Y-57483239D01*
X64385621Y-57483241D01*
X64625215Y-57561090D01*
X64874038Y-57600500D01*
X64874039Y-57600500D01*
X65125961Y-57600500D01*
X65125962Y-57600500D01*
X65374785Y-57561090D01*
X65614379Y-57483241D01*
X65838845Y-57368870D01*
X66042656Y-57220793D01*
X66220793Y-57042656D01*
X66368870Y-56838845D01*
X66483241Y-56614379D01*
X66561090Y-56374785D01*
X66600500Y-56125962D01*
X66600500Y-55874038D01*
X66561090Y-55625215D01*
X66483241Y-55385621D01*
X66483239Y-55385618D01*
X66483239Y-55385616D01*
X66441747Y-55304184D01*
X66368870Y-55161155D01*
X66306179Y-55074868D01*
X66220798Y-54957350D01*
X66220794Y-54957345D01*
X66042654Y-54779205D01*
X66042649Y-54779201D01*
X65838848Y-54631132D01*
X65838847Y-54631131D01*
X65838845Y-54631130D01*
X65768747Y-54595413D01*
X65614383Y-54516760D01*
X65374785Y-54438910D01*
X65125962Y-54399500D01*
X64874038Y-54399500D01*
X64749626Y-54419205D01*
X64625214Y-54438910D01*
X64385616Y-54516760D01*
X64161151Y-54631132D01*
X63957350Y-54779201D01*
X63957345Y-54779205D01*
X63779205Y-54957345D01*
X63779201Y-54957350D01*
X63631132Y-55161151D01*
X63516760Y-55385616D01*
X63438910Y-55625214D01*
X63399500Y-55874038D01*
X6100500Y-55874038D01*
X6061090Y-55625215D01*
X5983241Y-55385621D01*
X5983239Y-55385618D01*
X5983239Y-55385616D01*
X5941747Y-55304184D01*
X5868870Y-55161155D01*
X5806179Y-55074868D01*
X5720798Y-54957350D01*
X5720794Y-54957345D01*
X5542654Y-54779205D01*
X5542649Y-54779201D01*
X5338848Y-54631132D01*
X5338847Y-54631131D01*
X5338845Y-54631130D01*
X5268747Y-54595413D01*
X5114383Y-54516760D01*
X4874785Y-54438910D01*
X4625962Y-54399500D01*
X4374038Y-54399500D01*
X4249626Y-54419205D01*
X4125214Y-54438910D01*
X3885616Y-54516760D01*
X3661151Y-54631132D01*
X3457350Y-54779201D01*
X3457345Y-54779205D01*
X3279205Y-54957345D01*
X3224818Y-55032203D01*
X3169488Y-55074868D01*
X3099874Y-55080847D01*
X3038079Y-55048241D01*
X3003722Y-54987402D01*
X3000500Y-54959317D01*
X3000500Y-53624500D01*
X3020185Y-53557461D01*
X3072989Y-53511706D01*
X3124500Y-53500500D01*
X82375500Y-53500500D01*
X82442539Y-53520185D01*
G37*
%TD.AperFunction*%
%TD*%
D14*
X14852000Y-68784400D03*
X44907800Y-69437500D03*
X66661400Y-66454100D03*
X10000000Y-78000000D03*
X10000000Y-58000000D03*
X10000000Y-86000000D03*
X50000000Y-86000000D03*
X52000000Y-58000000D03*
X32000000Y-86000000D03*
X22789300Y-82480900D03*
X24192700Y-80692700D03*
X47929000Y-73570600D03*
X24978000Y-77195200D03*
X55000000Y-78000000D03*
X32000000Y-58000000D03*
X51412000Y-74998800D03*
X43262800Y-76685400D03*
X42439200Y-76167700D03*
X51729200Y-73574000D03*
D15*
X18500000Y-87980000D03*
X21500000Y-87980000D03*
X65000000Y-56000000D03*
X66000000Y-81000000D03*
X56500000Y-87980000D03*
X59500000Y-87980000D03*
X4500000Y-56000000D03*
X4500000Y-88000000D03*
M02*
