%TF.GenerationSoftware,KiCad,Pcbnew,10.0.4*%
%TF.CreationDate,2026-08-02T19:12:27+02:00*%
%TF.ProjectId,pocket_card_controller,706f636b-6574-45f6-9361-72645f636f6e,rev?*%
%TF.SameCoordinates,Original*%
%TF.FileFunction,Other,User*%
%FSLAX46Y46*%
G04 Gerber Fmt 4.6, Leading zero omitted, Abs format (unit mm)*
G04 Created by KiCad (PCBNEW 10.0.4) date 2026-08-02 19:12:27*
%MOMM*%
%LPD*%
G01*
G04 APERTURE LIST*
%ADD10C,0.050000*%
G04 APERTURE END LIST*
%TO.C,SW_RIGHT*%
D10*
X24450000Y-65950000D02*
X24450000Y-71650000D01*
X24450000Y-71650000D02*
X32950000Y-71650000D01*
X32950000Y-65950000D02*
X24450000Y-65950000D01*
X32950000Y-71650000D02*
X32950000Y-65950000D01*
%TO.C,H1*%
X7450000Y-56000000D02*
G75*
G02*
X1550000Y-56000000I-2950000J0D01*
G01*
X1550000Y-56000000D02*
G75*
G02*
X7450000Y-56000000I2950000J0D01*
G01*
%TO.C,SW_MENU*%
X35350000Y-82550000D02*
X35350000Y-88250000D01*
X35350000Y-88250000D02*
X43850000Y-88250000D01*
X43850000Y-82550000D02*
X35350000Y-82550000D01*
X43850000Y-88250000D02*
X43850000Y-82550000D01*
%TO.C,U1*%
X39070000Y-63190000D02*
X41000000Y-63190000D01*
X39070000Y-80810000D02*
X39070000Y-63190000D01*
X41000000Y-62800000D02*
X49000000Y-62800000D01*
X41000000Y-63190000D02*
X41000000Y-62800000D01*
X41000000Y-80810000D02*
X39070000Y-80810000D01*
X41000000Y-81200000D02*
X41000000Y-80810000D01*
X49000000Y-62800000D02*
X49000000Y-63190000D01*
X49000000Y-63190000D02*
X50930000Y-63190000D01*
X49000000Y-80810000D02*
X49000000Y-81200000D01*
X49000000Y-81200000D02*
X41000000Y-81200000D01*
X50930000Y-63190000D02*
X50930000Y-80810000D01*
X50930000Y-80810000D02*
X49000000Y-80810000D01*
%TO.C,SW_PWR*%
X15600000Y-85200000D02*
X24400000Y-85200000D01*
X15600000Y-89750000D02*
X15600000Y-85200000D01*
X18350000Y-89750000D02*
X15600000Y-89750000D01*
X18350000Y-91050000D02*
X18350000Y-89750000D01*
X21650000Y-89750000D02*
X21650000Y-91050000D01*
X21650000Y-91050000D02*
X18350000Y-91050000D01*
X24400000Y-85200000D02*
X24400000Y-89750000D01*
X24400000Y-89750000D02*
X21650000Y-89750000D01*
%TO.C,H2*%
X67950000Y-56000000D02*
G75*
G02*
X62050000Y-56000000I-2950000J0D01*
G01*
X62050000Y-56000000D02*
G75*
G02*
X67950000Y-56000000I2950000J0D01*
G01*
%TO.C,SW_MUTE*%
X53600000Y-85200000D02*
X62400000Y-85200000D01*
X53600000Y-89750000D02*
X53600000Y-85200000D01*
X56350000Y-89750000D02*
X53600000Y-89750000D01*
X56350000Y-91050000D02*
X56350000Y-89750000D01*
X59650000Y-89750000D02*
X59650000Y-91050000D01*
X59650000Y-91050000D02*
X56350000Y-91050000D01*
X62400000Y-85200000D02*
X62400000Y-89750000D01*
X62400000Y-89750000D02*
X59650000Y-89750000D01*
%TO.C,SW_ACTION*%
X72850000Y-58250000D02*
X72850000Y-63950000D01*
X72850000Y-63950000D02*
X81350000Y-63950000D01*
X81350000Y-58250000D02*
X72850000Y-58250000D01*
X81350000Y-63950000D02*
X81350000Y-58250000D01*
%TO.C,SW_RESET*%
X52250000Y-77150000D02*
X52250000Y-82850000D01*
X52250000Y-82850000D02*
X60750000Y-82850000D01*
X60750000Y-77150000D02*
X52250000Y-77150000D01*
X60750000Y-82850000D02*
X60750000Y-77150000D01*
%TO.C,SW_UP*%
X15450000Y-56950000D02*
X15450000Y-62650000D01*
X15450000Y-62650000D02*
X23950000Y-62650000D01*
X23950000Y-56950000D02*
X15450000Y-56950000D01*
X23950000Y-62650000D02*
X23950000Y-56950000D01*
%TO.C,SW_LEFT*%
X6450000Y-65950000D02*
X6450000Y-71650000D01*
X6450000Y-71650000D02*
X14950000Y-71650000D01*
X14950000Y-65950000D02*
X6450000Y-65950000D01*
X14950000Y-71650000D02*
X14950000Y-65950000D01*
%TO.C,SW_DOWN*%
X15450000Y-74950000D02*
X15450000Y-80650000D01*
X15450000Y-80650000D02*
X23950000Y-80650000D01*
X23950000Y-74950000D02*
X15450000Y-74950000D01*
X23950000Y-80650000D02*
X23950000Y-74950000D01*
%TO.C,SW_UNDO*%
X56150000Y-62950000D02*
X56150000Y-68650000D01*
X56150000Y-68650000D02*
X64650000Y-68650000D01*
X64650000Y-62950000D02*
X56150000Y-62950000D01*
X64650000Y-68650000D02*
X64650000Y-62950000D01*
%TO.C,H3*%
X68950000Y-81000000D02*
G75*
G02*
X63050000Y-81000000I-2950000J0D01*
G01*
X63050000Y-81000000D02*
G75*
G02*
X68950000Y-81000000I2950000J0D01*
G01*
%TD*%
M02*
