M48
; DRILL file KiCad 10.0.4 date 2026-08-29T02:37:23
; FORMAT={-:-/ absolute / metric / decimal}
; #@! TF.CreationDate,2026-08-29T02:37:23+02:00
; #@! TF.GenerationSoftware,Kicad,Pcbnew,10.0.4
; #@! TF.FileFunction,MixedPlating,1,2
FMAT,2
METRIC
; #@! TA.AperFunction,Plated,PTH,ViaDrill
T1C0.300
; #@! TA.AperFunction,NonPlated,NPTH,ComponentDrill
T2C0.900
; #@! TA.AperFunction,NonPlated,NPTH,ComponentDrill
T3C2.700
%
G90
G05
T1
X10.0Y-58.0
X10.0Y-78.0
X10.0Y-86.0
X15.6Y-67.354
X18.0Y-72.0
X18.839Y-65.776
X20.0Y-65.0
X21.829Y-77.578
X24.736Y-72.479
X32.0Y-86.0
X42.702Y-73.839
X42.81Y-68.035
X44.242Y-68.962
X45.739Y-68.036
X50.0Y-86.0
X50.2Y-77.083
X51.902Y-75.156
X52.0Y-58.0
X52.154Y-74.104
X52.225Y-73.296
X55.75Y-85.9
X60.0Y-70.0
X75.949Y-65.904
T2
X18.5Y-87.98
X21.5Y-87.98
X56.5Y-87.98
X59.5Y-87.98
T3
X64.5Y-56.0
X64.5Y-84.0
M30
