M48
; DRILL file KiCad 10.0.4 date 2026-08-29T11:20:02
; FORMAT={-:-/ absolute / metric / decimal}
; #@! TF.CreationDate,2026-08-29T11:20:02+02:00
; #@! TF.GenerationSoftware,Kicad,Pcbnew,10.0.4
; #@! TF.FileFunction,MixedPlating,1,2
FMAT,2
METRIC
; #@! TA.AperFunction,Plated,PTH,ViaDrill
T1C0.300
; #@! TA.AperFunction,NonPlated,NPTH,ComponentDrill
T2C0.900
; #@! TA.AperFunction,NonPlated,NPTH,ComponentDrill
T3C2.700
%
G90
G05
T1
X10.0Y-86.0
X18.839Y-65.776
X19.67Y-66.576
X20.0Y-65.0
X21.829Y-77.578
X25.006Y-74.289
X38.02Y-72.17
X38.584Y-69.503
X39.002Y-68.638
X39.837Y-65.565
X42.875Y-65.804
X44.123Y-71.5
X48.73Y-68.638
X52.0Y-58.0
X62.375Y-61.15
X66.725Y-64.35
T2
X18.5Y-87.98
X21.5Y-87.98
X56.5Y-87.98
X59.5Y-87.98
T3
X64.5Y-56.0
X64.5Y-84.0
M30
