%TF.GenerationSoftware,KiCad,Pcbnew,10.0.4*%
%TF.CreationDate,2026-08-02T19:12:27+02:00*%
%TF.ProjectId,pocket_card_controller,706f636b-6574-45f6-9361-72645f636f6e,rev?*%
%TF.SameCoordinates,Original*%
%TF.FileFunction,Other,Comment*%
%FSLAX46Y46*%
G04 Gerber Fmt 4.6, Leading zero omitted, Abs format (unit mm)*
G04 Created by KiCad (PCBNEW 10.0.4) date 2026-08-02 19:12:27*
%MOMM*%
%LPD*%
G01*
G04 APERTURE LIST*
%ADD10C,0.030000*%
%ADD11C,0.150000*%
G04 APERTURE END LIST*
D10*
X24985715Y-68690963D02*
X24985715Y-68490963D01*
X25100000Y-68690963D02*
X25014286Y-68576678D01*
X25100000Y-68490963D02*
X24985715Y-68605249D01*
X25185715Y-68586201D02*
X25252381Y-68586201D01*
X25280953Y-68690963D02*
X25185715Y-68690963D01*
X25185715Y-68690963D02*
X25185715Y-68490963D01*
X25185715Y-68490963D02*
X25280953Y-68490963D01*
X25366667Y-68586201D02*
X25433333Y-68586201D01*
X25461905Y-68690963D02*
X25366667Y-68690963D01*
X25366667Y-68690963D02*
X25366667Y-68490963D01*
X25366667Y-68490963D02*
X25461905Y-68490963D01*
X25547619Y-68690963D02*
X25547619Y-68490963D01*
X25547619Y-68490963D02*
X25623809Y-68490963D01*
X25623809Y-68490963D02*
X25642857Y-68500487D01*
X25642857Y-68500487D02*
X25652380Y-68510011D01*
X25652380Y-68510011D02*
X25661904Y-68529059D01*
X25661904Y-68529059D02*
X25661904Y-68557630D01*
X25661904Y-68557630D02*
X25652380Y-68576678D01*
X25652380Y-68576678D02*
X25642857Y-68586201D01*
X25642857Y-68586201D02*
X25623809Y-68595725D01*
X25623809Y-68595725D02*
X25547619Y-68595725D01*
X25747619Y-68614773D02*
X25900000Y-68614773D01*
X26033333Y-68490963D02*
X26071428Y-68490963D01*
X26071428Y-68490963D02*
X26090476Y-68500487D01*
X26090476Y-68500487D02*
X26109523Y-68519535D01*
X26109523Y-68519535D02*
X26119047Y-68557630D01*
X26119047Y-68557630D02*
X26119047Y-68624297D01*
X26119047Y-68624297D02*
X26109523Y-68662392D01*
X26109523Y-68662392D02*
X26090476Y-68681440D01*
X26090476Y-68681440D02*
X26071428Y-68690963D01*
X26071428Y-68690963D02*
X26033333Y-68690963D01*
X26033333Y-68690963D02*
X26014285Y-68681440D01*
X26014285Y-68681440D02*
X25995238Y-68662392D01*
X25995238Y-68662392D02*
X25985714Y-68624297D01*
X25985714Y-68624297D02*
X25985714Y-68557630D01*
X25985714Y-68557630D02*
X25995238Y-68519535D01*
X25995238Y-68519535D02*
X26014285Y-68500487D01*
X26014285Y-68500487D02*
X26033333Y-68490963D01*
X26204762Y-68490963D02*
X26204762Y-68652868D01*
X26204762Y-68652868D02*
X26214285Y-68671916D01*
X26214285Y-68671916D02*
X26223809Y-68681440D01*
X26223809Y-68681440D02*
X26242857Y-68690963D01*
X26242857Y-68690963D02*
X26280952Y-68690963D01*
X26280952Y-68690963D02*
X26300000Y-68681440D01*
X26300000Y-68681440D02*
X26309523Y-68671916D01*
X26309523Y-68671916D02*
X26319047Y-68652868D01*
X26319047Y-68652868D02*
X26319047Y-68490963D01*
X26385714Y-68490963D02*
X26500000Y-68490963D01*
X26442857Y-68690963D02*
X26442857Y-68490963D01*
X26700000Y-68490963D02*
X26833333Y-68490963D01*
X26833333Y-68490963D02*
X26700000Y-68690963D01*
X26700000Y-68690963D02*
X26833333Y-68690963D01*
X26947619Y-68490963D02*
X26985714Y-68490963D01*
X26985714Y-68490963D02*
X27004762Y-68500487D01*
X27004762Y-68500487D02*
X27023809Y-68519535D01*
X27023809Y-68519535D02*
X27033333Y-68557630D01*
X27033333Y-68557630D02*
X27033333Y-68624297D01*
X27033333Y-68624297D02*
X27023809Y-68662392D01*
X27023809Y-68662392D02*
X27004762Y-68681440D01*
X27004762Y-68681440D02*
X26985714Y-68690963D01*
X26985714Y-68690963D02*
X26947619Y-68690963D01*
X26947619Y-68690963D02*
X26928571Y-68681440D01*
X26928571Y-68681440D02*
X26909524Y-68662392D01*
X26909524Y-68662392D02*
X26900000Y-68624297D01*
X26900000Y-68624297D02*
X26900000Y-68557630D01*
X26900000Y-68557630D02*
X26909524Y-68519535D01*
X26909524Y-68519535D02*
X26928571Y-68500487D01*
X26928571Y-68500487D02*
X26947619Y-68490963D01*
X27119048Y-68690963D02*
X27119048Y-68490963D01*
X27119048Y-68490963D02*
X27233333Y-68690963D01*
X27233333Y-68690963D02*
X27233333Y-68490963D01*
X27328572Y-68586201D02*
X27395238Y-68586201D01*
X27423810Y-68690963D02*
X27328572Y-68690963D01*
X27328572Y-68690963D02*
X27328572Y-68490963D01*
X27328572Y-68490963D02*
X27423810Y-68490963D01*
X25119047Y-69090963D02*
X25119047Y-68890963D01*
X25119047Y-68890963D02*
X25233332Y-69090963D01*
X25233332Y-69090963D02*
X25233332Y-68890963D01*
X25357142Y-69090963D02*
X25338094Y-69081440D01*
X25338094Y-69081440D02*
X25328571Y-69071916D01*
X25328571Y-69071916D02*
X25319047Y-69052868D01*
X25319047Y-69052868D02*
X25319047Y-68995725D01*
X25319047Y-68995725D02*
X25328571Y-68976678D01*
X25328571Y-68976678D02*
X25338094Y-68967154D01*
X25338094Y-68967154D02*
X25357142Y-68957630D01*
X25357142Y-68957630D02*
X25385713Y-68957630D01*
X25385713Y-68957630D02*
X25404761Y-68967154D01*
X25404761Y-68967154D02*
X25414285Y-68976678D01*
X25414285Y-68976678D02*
X25423809Y-68995725D01*
X25423809Y-68995725D02*
X25423809Y-69052868D01*
X25423809Y-69052868D02*
X25414285Y-69071916D01*
X25414285Y-69071916D02*
X25404761Y-69081440D01*
X25404761Y-69081440D02*
X25385713Y-69090963D01*
X25385713Y-69090963D02*
X25357142Y-69090963D01*
X25728570Y-68986201D02*
X25661904Y-68986201D01*
X25661904Y-69090963D02*
X25661904Y-68890963D01*
X25661904Y-68890963D02*
X25757142Y-68890963D01*
X25833333Y-69071916D02*
X25842856Y-69081440D01*
X25842856Y-69081440D02*
X25833333Y-69090963D01*
X25833333Y-69090963D02*
X25823809Y-69081440D01*
X25823809Y-69081440D02*
X25833333Y-69071916D01*
X25833333Y-69071916D02*
X25833333Y-69090963D01*
X26042856Y-69071916D02*
X26033332Y-69081440D01*
X26033332Y-69081440D02*
X26004761Y-69090963D01*
X26004761Y-69090963D02*
X25985713Y-69090963D01*
X25985713Y-69090963D02*
X25957142Y-69081440D01*
X25957142Y-69081440D02*
X25938094Y-69062392D01*
X25938094Y-69062392D02*
X25928571Y-69043344D01*
X25928571Y-69043344D02*
X25919047Y-69005249D01*
X25919047Y-69005249D02*
X25919047Y-68976678D01*
X25919047Y-68976678D02*
X25928571Y-68938582D01*
X25928571Y-68938582D02*
X25938094Y-68919535D01*
X25938094Y-68919535D02*
X25957142Y-68900487D01*
X25957142Y-68900487D02*
X25985713Y-68890963D01*
X25985713Y-68890963D02*
X26004761Y-68890963D01*
X26004761Y-68890963D02*
X26033332Y-68900487D01*
X26033332Y-68900487D02*
X26042856Y-68910011D01*
X26214285Y-68957630D02*
X26214285Y-69090963D01*
X26128571Y-68957630D02*
X26128571Y-69062392D01*
X26128571Y-69062392D02*
X26138094Y-69081440D01*
X26138094Y-69081440D02*
X26157142Y-69090963D01*
X26157142Y-69090963D02*
X26185713Y-69090963D01*
X26185713Y-69090963D02*
X26204761Y-69081440D01*
X26204761Y-69081440D02*
X26214285Y-69071916D01*
X26433332Y-68957630D02*
X26509523Y-68957630D01*
X26461904Y-68890963D02*
X26461904Y-69062392D01*
X26461904Y-69062392D02*
X26471427Y-69081440D01*
X26471427Y-69081440D02*
X26490475Y-69090963D01*
X26490475Y-69090963D02*
X26509523Y-69090963D01*
X26576190Y-69090963D02*
X26576190Y-68957630D01*
X26576190Y-68995725D02*
X26585713Y-68976678D01*
X26585713Y-68976678D02*
X26595237Y-68967154D01*
X26595237Y-68967154D02*
X26614285Y-68957630D01*
X26614285Y-68957630D02*
X26633332Y-68957630D01*
X26785714Y-69090963D02*
X26785714Y-68986201D01*
X26785714Y-68986201D02*
X26776190Y-68967154D01*
X26776190Y-68967154D02*
X26757142Y-68957630D01*
X26757142Y-68957630D02*
X26719047Y-68957630D01*
X26719047Y-68957630D02*
X26700000Y-68967154D01*
X26785714Y-69081440D02*
X26766666Y-69090963D01*
X26766666Y-69090963D02*
X26719047Y-69090963D01*
X26719047Y-69090963D02*
X26700000Y-69081440D01*
X26700000Y-69081440D02*
X26690476Y-69062392D01*
X26690476Y-69062392D02*
X26690476Y-69043344D01*
X26690476Y-69043344D02*
X26700000Y-69024297D01*
X26700000Y-69024297D02*
X26719047Y-69014773D01*
X26719047Y-69014773D02*
X26766666Y-69014773D01*
X26766666Y-69014773D02*
X26785714Y-69005249D01*
X26966666Y-69081440D02*
X26947618Y-69090963D01*
X26947618Y-69090963D02*
X26909523Y-69090963D01*
X26909523Y-69090963D02*
X26890475Y-69081440D01*
X26890475Y-69081440D02*
X26880952Y-69071916D01*
X26880952Y-69071916D02*
X26871428Y-69052868D01*
X26871428Y-69052868D02*
X26871428Y-68995725D01*
X26871428Y-68995725D02*
X26880952Y-68976678D01*
X26880952Y-68976678D02*
X26890475Y-68967154D01*
X26890475Y-68967154D02*
X26909523Y-68957630D01*
X26909523Y-68957630D02*
X26947618Y-68957630D01*
X26947618Y-68957630D02*
X26966666Y-68967154D01*
X27052381Y-69090963D02*
X27052381Y-68890963D01*
X27071428Y-69014773D02*
X27128571Y-69090963D01*
X27128571Y-68957630D02*
X27052381Y-69033820D01*
X27204762Y-69081440D02*
X27223809Y-69090963D01*
X27223809Y-69090963D02*
X27261905Y-69090963D01*
X27261905Y-69090963D02*
X27280952Y-69081440D01*
X27280952Y-69081440D02*
X27290476Y-69062392D01*
X27290476Y-69062392D02*
X27290476Y-69052868D01*
X27290476Y-69052868D02*
X27280952Y-69033820D01*
X27280952Y-69033820D02*
X27261905Y-69024297D01*
X27261905Y-69024297D02*
X27233333Y-69024297D01*
X27233333Y-69024297D02*
X27214286Y-69014773D01*
X27214286Y-69014773D02*
X27204762Y-68995725D01*
X27204762Y-68995725D02*
X27204762Y-68986201D01*
X27204762Y-68986201D02*
X27214286Y-68967154D01*
X27214286Y-68967154D02*
X27233333Y-68957630D01*
X27233333Y-68957630D02*
X27261905Y-68957630D01*
X27261905Y-68957630D02*
X27280952Y-68967154D01*
X29985715Y-68690963D02*
X29985715Y-68490963D01*
X30100000Y-68690963D02*
X30014286Y-68576678D01*
X30100000Y-68490963D02*
X29985715Y-68605249D01*
X30185715Y-68586201D02*
X30252381Y-68586201D01*
X30280953Y-68690963D02*
X30185715Y-68690963D01*
X30185715Y-68690963D02*
X30185715Y-68490963D01*
X30185715Y-68490963D02*
X30280953Y-68490963D01*
X30366667Y-68586201D02*
X30433333Y-68586201D01*
X30461905Y-68690963D02*
X30366667Y-68690963D01*
X30366667Y-68690963D02*
X30366667Y-68490963D01*
X30366667Y-68490963D02*
X30461905Y-68490963D01*
X30547619Y-68690963D02*
X30547619Y-68490963D01*
X30547619Y-68490963D02*
X30623809Y-68490963D01*
X30623809Y-68490963D02*
X30642857Y-68500487D01*
X30642857Y-68500487D02*
X30652380Y-68510011D01*
X30652380Y-68510011D02*
X30661904Y-68529059D01*
X30661904Y-68529059D02*
X30661904Y-68557630D01*
X30661904Y-68557630D02*
X30652380Y-68576678D01*
X30652380Y-68576678D02*
X30642857Y-68586201D01*
X30642857Y-68586201D02*
X30623809Y-68595725D01*
X30623809Y-68595725D02*
X30547619Y-68595725D01*
X30747619Y-68614773D02*
X30900000Y-68614773D01*
X31033333Y-68490963D02*
X31071428Y-68490963D01*
X31071428Y-68490963D02*
X31090476Y-68500487D01*
X31090476Y-68500487D02*
X31109523Y-68519535D01*
X31109523Y-68519535D02*
X31119047Y-68557630D01*
X31119047Y-68557630D02*
X31119047Y-68624297D01*
X31119047Y-68624297D02*
X31109523Y-68662392D01*
X31109523Y-68662392D02*
X31090476Y-68681440D01*
X31090476Y-68681440D02*
X31071428Y-68690963D01*
X31071428Y-68690963D02*
X31033333Y-68690963D01*
X31033333Y-68690963D02*
X31014285Y-68681440D01*
X31014285Y-68681440D02*
X30995238Y-68662392D01*
X30995238Y-68662392D02*
X30985714Y-68624297D01*
X30985714Y-68624297D02*
X30985714Y-68557630D01*
X30985714Y-68557630D02*
X30995238Y-68519535D01*
X30995238Y-68519535D02*
X31014285Y-68500487D01*
X31014285Y-68500487D02*
X31033333Y-68490963D01*
X31204762Y-68490963D02*
X31204762Y-68652868D01*
X31204762Y-68652868D02*
X31214285Y-68671916D01*
X31214285Y-68671916D02*
X31223809Y-68681440D01*
X31223809Y-68681440D02*
X31242857Y-68690963D01*
X31242857Y-68690963D02*
X31280952Y-68690963D01*
X31280952Y-68690963D02*
X31300000Y-68681440D01*
X31300000Y-68681440D02*
X31309523Y-68671916D01*
X31309523Y-68671916D02*
X31319047Y-68652868D01*
X31319047Y-68652868D02*
X31319047Y-68490963D01*
X31385714Y-68490963D02*
X31500000Y-68490963D01*
X31442857Y-68690963D02*
X31442857Y-68490963D01*
X31700000Y-68490963D02*
X31833333Y-68490963D01*
X31833333Y-68490963D02*
X31700000Y-68690963D01*
X31700000Y-68690963D02*
X31833333Y-68690963D01*
X31947619Y-68490963D02*
X31985714Y-68490963D01*
X31985714Y-68490963D02*
X32004762Y-68500487D01*
X32004762Y-68500487D02*
X32023809Y-68519535D01*
X32023809Y-68519535D02*
X32033333Y-68557630D01*
X32033333Y-68557630D02*
X32033333Y-68624297D01*
X32033333Y-68624297D02*
X32023809Y-68662392D01*
X32023809Y-68662392D02*
X32004762Y-68681440D01*
X32004762Y-68681440D02*
X31985714Y-68690963D01*
X31985714Y-68690963D02*
X31947619Y-68690963D01*
X31947619Y-68690963D02*
X31928571Y-68681440D01*
X31928571Y-68681440D02*
X31909524Y-68662392D01*
X31909524Y-68662392D02*
X31900000Y-68624297D01*
X31900000Y-68624297D02*
X31900000Y-68557630D01*
X31900000Y-68557630D02*
X31909524Y-68519535D01*
X31909524Y-68519535D02*
X31928571Y-68500487D01*
X31928571Y-68500487D02*
X31947619Y-68490963D01*
X32119048Y-68690963D02*
X32119048Y-68490963D01*
X32119048Y-68490963D02*
X32233333Y-68690963D01*
X32233333Y-68690963D02*
X32233333Y-68490963D01*
X32328572Y-68586201D02*
X32395238Y-68586201D01*
X32423810Y-68690963D02*
X32328572Y-68690963D01*
X32328572Y-68690963D02*
X32328572Y-68490963D01*
X32328572Y-68490963D02*
X32423810Y-68490963D01*
X30119047Y-69090963D02*
X30119047Y-68890963D01*
X30119047Y-68890963D02*
X30233332Y-69090963D01*
X30233332Y-69090963D02*
X30233332Y-68890963D01*
X30357142Y-69090963D02*
X30338094Y-69081440D01*
X30338094Y-69081440D02*
X30328571Y-69071916D01*
X30328571Y-69071916D02*
X30319047Y-69052868D01*
X30319047Y-69052868D02*
X30319047Y-68995725D01*
X30319047Y-68995725D02*
X30328571Y-68976678D01*
X30328571Y-68976678D02*
X30338094Y-68967154D01*
X30338094Y-68967154D02*
X30357142Y-68957630D01*
X30357142Y-68957630D02*
X30385713Y-68957630D01*
X30385713Y-68957630D02*
X30404761Y-68967154D01*
X30404761Y-68967154D02*
X30414285Y-68976678D01*
X30414285Y-68976678D02*
X30423809Y-68995725D01*
X30423809Y-68995725D02*
X30423809Y-69052868D01*
X30423809Y-69052868D02*
X30414285Y-69071916D01*
X30414285Y-69071916D02*
X30404761Y-69081440D01*
X30404761Y-69081440D02*
X30385713Y-69090963D01*
X30385713Y-69090963D02*
X30357142Y-69090963D01*
X30728570Y-68986201D02*
X30661904Y-68986201D01*
X30661904Y-69090963D02*
X30661904Y-68890963D01*
X30661904Y-68890963D02*
X30757142Y-68890963D01*
X30833333Y-69071916D02*
X30842856Y-69081440D01*
X30842856Y-69081440D02*
X30833333Y-69090963D01*
X30833333Y-69090963D02*
X30823809Y-69081440D01*
X30823809Y-69081440D02*
X30833333Y-69071916D01*
X30833333Y-69071916D02*
X30833333Y-69090963D01*
X31042856Y-69071916D02*
X31033332Y-69081440D01*
X31033332Y-69081440D02*
X31004761Y-69090963D01*
X31004761Y-69090963D02*
X30985713Y-69090963D01*
X30985713Y-69090963D02*
X30957142Y-69081440D01*
X30957142Y-69081440D02*
X30938094Y-69062392D01*
X30938094Y-69062392D02*
X30928571Y-69043344D01*
X30928571Y-69043344D02*
X30919047Y-69005249D01*
X30919047Y-69005249D02*
X30919047Y-68976678D01*
X30919047Y-68976678D02*
X30928571Y-68938582D01*
X30928571Y-68938582D02*
X30938094Y-68919535D01*
X30938094Y-68919535D02*
X30957142Y-68900487D01*
X30957142Y-68900487D02*
X30985713Y-68890963D01*
X30985713Y-68890963D02*
X31004761Y-68890963D01*
X31004761Y-68890963D02*
X31033332Y-68900487D01*
X31033332Y-68900487D02*
X31042856Y-68910011D01*
X31214285Y-68957630D02*
X31214285Y-69090963D01*
X31128571Y-68957630D02*
X31128571Y-69062392D01*
X31128571Y-69062392D02*
X31138094Y-69081440D01*
X31138094Y-69081440D02*
X31157142Y-69090963D01*
X31157142Y-69090963D02*
X31185713Y-69090963D01*
X31185713Y-69090963D02*
X31204761Y-69081440D01*
X31204761Y-69081440D02*
X31214285Y-69071916D01*
X31433332Y-68957630D02*
X31509523Y-68957630D01*
X31461904Y-68890963D02*
X31461904Y-69062392D01*
X31461904Y-69062392D02*
X31471427Y-69081440D01*
X31471427Y-69081440D02*
X31490475Y-69090963D01*
X31490475Y-69090963D02*
X31509523Y-69090963D01*
X31576190Y-69090963D02*
X31576190Y-68957630D01*
X31576190Y-68995725D02*
X31585713Y-68976678D01*
X31585713Y-68976678D02*
X31595237Y-68967154D01*
X31595237Y-68967154D02*
X31614285Y-68957630D01*
X31614285Y-68957630D02*
X31633332Y-68957630D01*
X31785714Y-69090963D02*
X31785714Y-68986201D01*
X31785714Y-68986201D02*
X31776190Y-68967154D01*
X31776190Y-68967154D02*
X31757142Y-68957630D01*
X31757142Y-68957630D02*
X31719047Y-68957630D01*
X31719047Y-68957630D02*
X31700000Y-68967154D01*
X31785714Y-69081440D02*
X31766666Y-69090963D01*
X31766666Y-69090963D02*
X31719047Y-69090963D01*
X31719047Y-69090963D02*
X31700000Y-69081440D01*
X31700000Y-69081440D02*
X31690476Y-69062392D01*
X31690476Y-69062392D02*
X31690476Y-69043344D01*
X31690476Y-69043344D02*
X31700000Y-69024297D01*
X31700000Y-69024297D02*
X31719047Y-69014773D01*
X31719047Y-69014773D02*
X31766666Y-69014773D01*
X31766666Y-69014773D02*
X31785714Y-69005249D01*
X31966666Y-69081440D02*
X31947618Y-69090963D01*
X31947618Y-69090963D02*
X31909523Y-69090963D01*
X31909523Y-69090963D02*
X31890475Y-69081440D01*
X31890475Y-69081440D02*
X31880952Y-69071916D01*
X31880952Y-69071916D02*
X31871428Y-69052868D01*
X31871428Y-69052868D02*
X31871428Y-68995725D01*
X31871428Y-68995725D02*
X31880952Y-68976678D01*
X31880952Y-68976678D02*
X31890475Y-68967154D01*
X31890475Y-68967154D02*
X31909523Y-68957630D01*
X31909523Y-68957630D02*
X31947618Y-68957630D01*
X31947618Y-68957630D02*
X31966666Y-68967154D01*
X32052381Y-69090963D02*
X32052381Y-68890963D01*
X32071428Y-69014773D02*
X32128571Y-69090963D01*
X32128571Y-68957630D02*
X32052381Y-69033820D01*
X32204762Y-69081440D02*
X32223809Y-69090963D01*
X32223809Y-69090963D02*
X32261905Y-69090963D01*
X32261905Y-69090963D02*
X32280952Y-69081440D01*
X32280952Y-69081440D02*
X32290476Y-69062392D01*
X32290476Y-69062392D02*
X32290476Y-69052868D01*
X32290476Y-69052868D02*
X32280952Y-69033820D01*
X32280952Y-69033820D02*
X32261905Y-69024297D01*
X32261905Y-69024297D02*
X32233333Y-69024297D01*
X32233333Y-69024297D02*
X32214286Y-69014773D01*
X32214286Y-69014773D02*
X32204762Y-68995725D01*
X32204762Y-68995725D02*
X32204762Y-68986201D01*
X32204762Y-68986201D02*
X32214286Y-68967154D01*
X32214286Y-68967154D02*
X32233333Y-68957630D01*
X32233333Y-68957630D02*
X32261905Y-68957630D01*
X32261905Y-68957630D02*
X32280952Y-68967154D01*
X35885715Y-85290963D02*
X35885715Y-85090963D01*
X36000000Y-85290963D02*
X35914286Y-85176678D01*
X36000000Y-85090963D02*
X35885715Y-85205249D01*
X36085715Y-85186201D02*
X36152381Y-85186201D01*
X36180953Y-85290963D02*
X36085715Y-85290963D01*
X36085715Y-85290963D02*
X36085715Y-85090963D01*
X36085715Y-85090963D02*
X36180953Y-85090963D01*
X36266667Y-85186201D02*
X36333333Y-85186201D01*
X36361905Y-85290963D02*
X36266667Y-85290963D01*
X36266667Y-85290963D02*
X36266667Y-85090963D01*
X36266667Y-85090963D02*
X36361905Y-85090963D01*
X36447619Y-85290963D02*
X36447619Y-85090963D01*
X36447619Y-85090963D02*
X36523809Y-85090963D01*
X36523809Y-85090963D02*
X36542857Y-85100487D01*
X36542857Y-85100487D02*
X36552380Y-85110011D01*
X36552380Y-85110011D02*
X36561904Y-85129059D01*
X36561904Y-85129059D02*
X36561904Y-85157630D01*
X36561904Y-85157630D02*
X36552380Y-85176678D01*
X36552380Y-85176678D02*
X36542857Y-85186201D01*
X36542857Y-85186201D02*
X36523809Y-85195725D01*
X36523809Y-85195725D02*
X36447619Y-85195725D01*
X36647619Y-85214773D02*
X36800000Y-85214773D01*
X36933333Y-85090963D02*
X36971428Y-85090963D01*
X36971428Y-85090963D02*
X36990476Y-85100487D01*
X36990476Y-85100487D02*
X37009523Y-85119535D01*
X37009523Y-85119535D02*
X37019047Y-85157630D01*
X37019047Y-85157630D02*
X37019047Y-85224297D01*
X37019047Y-85224297D02*
X37009523Y-85262392D01*
X37009523Y-85262392D02*
X36990476Y-85281440D01*
X36990476Y-85281440D02*
X36971428Y-85290963D01*
X36971428Y-85290963D02*
X36933333Y-85290963D01*
X36933333Y-85290963D02*
X36914285Y-85281440D01*
X36914285Y-85281440D02*
X36895238Y-85262392D01*
X36895238Y-85262392D02*
X36885714Y-85224297D01*
X36885714Y-85224297D02*
X36885714Y-85157630D01*
X36885714Y-85157630D02*
X36895238Y-85119535D01*
X36895238Y-85119535D02*
X36914285Y-85100487D01*
X36914285Y-85100487D02*
X36933333Y-85090963D01*
X37104762Y-85090963D02*
X37104762Y-85252868D01*
X37104762Y-85252868D02*
X37114285Y-85271916D01*
X37114285Y-85271916D02*
X37123809Y-85281440D01*
X37123809Y-85281440D02*
X37142857Y-85290963D01*
X37142857Y-85290963D02*
X37180952Y-85290963D01*
X37180952Y-85290963D02*
X37200000Y-85281440D01*
X37200000Y-85281440D02*
X37209523Y-85271916D01*
X37209523Y-85271916D02*
X37219047Y-85252868D01*
X37219047Y-85252868D02*
X37219047Y-85090963D01*
X37285714Y-85090963D02*
X37400000Y-85090963D01*
X37342857Y-85290963D02*
X37342857Y-85090963D01*
X37600000Y-85090963D02*
X37733333Y-85090963D01*
X37733333Y-85090963D02*
X37600000Y-85290963D01*
X37600000Y-85290963D02*
X37733333Y-85290963D01*
X37847619Y-85090963D02*
X37885714Y-85090963D01*
X37885714Y-85090963D02*
X37904762Y-85100487D01*
X37904762Y-85100487D02*
X37923809Y-85119535D01*
X37923809Y-85119535D02*
X37933333Y-85157630D01*
X37933333Y-85157630D02*
X37933333Y-85224297D01*
X37933333Y-85224297D02*
X37923809Y-85262392D01*
X37923809Y-85262392D02*
X37904762Y-85281440D01*
X37904762Y-85281440D02*
X37885714Y-85290963D01*
X37885714Y-85290963D02*
X37847619Y-85290963D01*
X37847619Y-85290963D02*
X37828571Y-85281440D01*
X37828571Y-85281440D02*
X37809524Y-85262392D01*
X37809524Y-85262392D02*
X37800000Y-85224297D01*
X37800000Y-85224297D02*
X37800000Y-85157630D01*
X37800000Y-85157630D02*
X37809524Y-85119535D01*
X37809524Y-85119535D02*
X37828571Y-85100487D01*
X37828571Y-85100487D02*
X37847619Y-85090963D01*
X38019048Y-85290963D02*
X38019048Y-85090963D01*
X38019048Y-85090963D02*
X38133333Y-85290963D01*
X38133333Y-85290963D02*
X38133333Y-85090963D01*
X38228572Y-85186201D02*
X38295238Y-85186201D01*
X38323810Y-85290963D02*
X38228572Y-85290963D01*
X38228572Y-85290963D02*
X38228572Y-85090963D01*
X38228572Y-85090963D02*
X38323810Y-85090963D01*
X36019047Y-85690963D02*
X36019047Y-85490963D01*
X36019047Y-85490963D02*
X36133332Y-85690963D01*
X36133332Y-85690963D02*
X36133332Y-85490963D01*
X36257142Y-85690963D02*
X36238094Y-85681440D01*
X36238094Y-85681440D02*
X36228571Y-85671916D01*
X36228571Y-85671916D02*
X36219047Y-85652868D01*
X36219047Y-85652868D02*
X36219047Y-85595725D01*
X36219047Y-85595725D02*
X36228571Y-85576678D01*
X36228571Y-85576678D02*
X36238094Y-85567154D01*
X36238094Y-85567154D02*
X36257142Y-85557630D01*
X36257142Y-85557630D02*
X36285713Y-85557630D01*
X36285713Y-85557630D02*
X36304761Y-85567154D01*
X36304761Y-85567154D02*
X36314285Y-85576678D01*
X36314285Y-85576678D02*
X36323809Y-85595725D01*
X36323809Y-85595725D02*
X36323809Y-85652868D01*
X36323809Y-85652868D02*
X36314285Y-85671916D01*
X36314285Y-85671916D02*
X36304761Y-85681440D01*
X36304761Y-85681440D02*
X36285713Y-85690963D01*
X36285713Y-85690963D02*
X36257142Y-85690963D01*
X36628570Y-85586201D02*
X36561904Y-85586201D01*
X36561904Y-85690963D02*
X36561904Y-85490963D01*
X36561904Y-85490963D02*
X36657142Y-85490963D01*
X36733333Y-85671916D02*
X36742856Y-85681440D01*
X36742856Y-85681440D02*
X36733333Y-85690963D01*
X36733333Y-85690963D02*
X36723809Y-85681440D01*
X36723809Y-85681440D02*
X36733333Y-85671916D01*
X36733333Y-85671916D02*
X36733333Y-85690963D01*
X36942856Y-85671916D02*
X36933332Y-85681440D01*
X36933332Y-85681440D02*
X36904761Y-85690963D01*
X36904761Y-85690963D02*
X36885713Y-85690963D01*
X36885713Y-85690963D02*
X36857142Y-85681440D01*
X36857142Y-85681440D02*
X36838094Y-85662392D01*
X36838094Y-85662392D02*
X36828571Y-85643344D01*
X36828571Y-85643344D02*
X36819047Y-85605249D01*
X36819047Y-85605249D02*
X36819047Y-85576678D01*
X36819047Y-85576678D02*
X36828571Y-85538582D01*
X36828571Y-85538582D02*
X36838094Y-85519535D01*
X36838094Y-85519535D02*
X36857142Y-85500487D01*
X36857142Y-85500487D02*
X36885713Y-85490963D01*
X36885713Y-85490963D02*
X36904761Y-85490963D01*
X36904761Y-85490963D02*
X36933332Y-85500487D01*
X36933332Y-85500487D02*
X36942856Y-85510011D01*
X37114285Y-85557630D02*
X37114285Y-85690963D01*
X37028571Y-85557630D02*
X37028571Y-85662392D01*
X37028571Y-85662392D02*
X37038094Y-85681440D01*
X37038094Y-85681440D02*
X37057142Y-85690963D01*
X37057142Y-85690963D02*
X37085713Y-85690963D01*
X37085713Y-85690963D02*
X37104761Y-85681440D01*
X37104761Y-85681440D02*
X37114285Y-85671916D01*
X37333332Y-85557630D02*
X37409523Y-85557630D01*
X37361904Y-85490963D02*
X37361904Y-85662392D01*
X37361904Y-85662392D02*
X37371427Y-85681440D01*
X37371427Y-85681440D02*
X37390475Y-85690963D01*
X37390475Y-85690963D02*
X37409523Y-85690963D01*
X37476190Y-85690963D02*
X37476190Y-85557630D01*
X37476190Y-85595725D02*
X37485713Y-85576678D01*
X37485713Y-85576678D02*
X37495237Y-85567154D01*
X37495237Y-85567154D02*
X37514285Y-85557630D01*
X37514285Y-85557630D02*
X37533332Y-85557630D01*
X37685714Y-85690963D02*
X37685714Y-85586201D01*
X37685714Y-85586201D02*
X37676190Y-85567154D01*
X37676190Y-85567154D02*
X37657142Y-85557630D01*
X37657142Y-85557630D02*
X37619047Y-85557630D01*
X37619047Y-85557630D02*
X37600000Y-85567154D01*
X37685714Y-85681440D02*
X37666666Y-85690963D01*
X37666666Y-85690963D02*
X37619047Y-85690963D01*
X37619047Y-85690963D02*
X37600000Y-85681440D01*
X37600000Y-85681440D02*
X37590476Y-85662392D01*
X37590476Y-85662392D02*
X37590476Y-85643344D01*
X37590476Y-85643344D02*
X37600000Y-85624297D01*
X37600000Y-85624297D02*
X37619047Y-85614773D01*
X37619047Y-85614773D02*
X37666666Y-85614773D01*
X37666666Y-85614773D02*
X37685714Y-85605249D01*
X37866666Y-85681440D02*
X37847618Y-85690963D01*
X37847618Y-85690963D02*
X37809523Y-85690963D01*
X37809523Y-85690963D02*
X37790475Y-85681440D01*
X37790475Y-85681440D02*
X37780952Y-85671916D01*
X37780952Y-85671916D02*
X37771428Y-85652868D01*
X37771428Y-85652868D02*
X37771428Y-85595725D01*
X37771428Y-85595725D02*
X37780952Y-85576678D01*
X37780952Y-85576678D02*
X37790475Y-85567154D01*
X37790475Y-85567154D02*
X37809523Y-85557630D01*
X37809523Y-85557630D02*
X37847618Y-85557630D01*
X37847618Y-85557630D02*
X37866666Y-85567154D01*
X37952381Y-85690963D02*
X37952381Y-85490963D01*
X37971428Y-85614773D02*
X38028571Y-85690963D01*
X38028571Y-85557630D02*
X37952381Y-85633820D01*
X38104762Y-85681440D02*
X38123809Y-85690963D01*
X38123809Y-85690963D02*
X38161905Y-85690963D01*
X38161905Y-85690963D02*
X38180952Y-85681440D01*
X38180952Y-85681440D02*
X38190476Y-85662392D01*
X38190476Y-85662392D02*
X38190476Y-85652868D01*
X38190476Y-85652868D02*
X38180952Y-85633820D01*
X38180952Y-85633820D02*
X38161905Y-85624297D01*
X38161905Y-85624297D02*
X38133333Y-85624297D01*
X38133333Y-85624297D02*
X38114286Y-85614773D01*
X38114286Y-85614773D02*
X38104762Y-85595725D01*
X38104762Y-85595725D02*
X38104762Y-85586201D01*
X38104762Y-85586201D02*
X38114286Y-85567154D01*
X38114286Y-85567154D02*
X38133333Y-85557630D01*
X38133333Y-85557630D02*
X38161905Y-85557630D01*
X38161905Y-85557630D02*
X38180952Y-85567154D01*
X40885715Y-85290963D02*
X40885715Y-85090963D01*
X41000000Y-85290963D02*
X40914286Y-85176678D01*
X41000000Y-85090963D02*
X40885715Y-85205249D01*
X41085715Y-85186201D02*
X41152381Y-85186201D01*
X41180953Y-85290963D02*
X41085715Y-85290963D01*
X41085715Y-85290963D02*
X41085715Y-85090963D01*
X41085715Y-85090963D02*
X41180953Y-85090963D01*
X41266667Y-85186201D02*
X41333333Y-85186201D01*
X41361905Y-85290963D02*
X41266667Y-85290963D01*
X41266667Y-85290963D02*
X41266667Y-85090963D01*
X41266667Y-85090963D02*
X41361905Y-85090963D01*
X41447619Y-85290963D02*
X41447619Y-85090963D01*
X41447619Y-85090963D02*
X41523809Y-85090963D01*
X41523809Y-85090963D02*
X41542857Y-85100487D01*
X41542857Y-85100487D02*
X41552380Y-85110011D01*
X41552380Y-85110011D02*
X41561904Y-85129059D01*
X41561904Y-85129059D02*
X41561904Y-85157630D01*
X41561904Y-85157630D02*
X41552380Y-85176678D01*
X41552380Y-85176678D02*
X41542857Y-85186201D01*
X41542857Y-85186201D02*
X41523809Y-85195725D01*
X41523809Y-85195725D02*
X41447619Y-85195725D01*
X41647619Y-85214773D02*
X41800000Y-85214773D01*
X41933333Y-85090963D02*
X41971428Y-85090963D01*
X41971428Y-85090963D02*
X41990476Y-85100487D01*
X41990476Y-85100487D02*
X42009523Y-85119535D01*
X42009523Y-85119535D02*
X42019047Y-85157630D01*
X42019047Y-85157630D02*
X42019047Y-85224297D01*
X42019047Y-85224297D02*
X42009523Y-85262392D01*
X42009523Y-85262392D02*
X41990476Y-85281440D01*
X41990476Y-85281440D02*
X41971428Y-85290963D01*
X41971428Y-85290963D02*
X41933333Y-85290963D01*
X41933333Y-85290963D02*
X41914285Y-85281440D01*
X41914285Y-85281440D02*
X41895238Y-85262392D01*
X41895238Y-85262392D02*
X41885714Y-85224297D01*
X41885714Y-85224297D02*
X41885714Y-85157630D01*
X41885714Y-85157630D02*
X41895238Y-85119535D01*
X41895238Y-85119535D02*
X41914285Y-85100487D01*
X41914285Y-85100487D02*
X41933333Y-85090963D01*
X42104762Y-85090963D02*
X42104762Y-85252868D01*
X42104762Y-85252868D02*
X42114285Y-85271916D01*
X42114285Y-85271916D02*
X42123809Y-85281440D01*
X42123809Y-85281440D02*
X42142857Y-85290963D01*
X42142857Y-85290963D02*
X42180952Y-85290963D01*
X42180952Y-85290963D02*
X42200000Y-85281440D01*
X42200000Y-85281440D02*
X42209523Y-85271916D01*
X42209523Y-85271916D02*
X42219047Y-85252868D01*
X42219047Y-85252868D02*
X42219047Y-85090963D01*
X42285714Y-85090963D02*
X42400000Y-85090963D01*
X42342857Y-85290963D02*
X42342857Y-85090963D01*
X42600000Y-85090963D02*
X42733333Y-85090963D01*
X42733333Y-85090963D02*
X42600000Y-85290963D01*
X42600000Y-85290963D02*
X42733333Y-85290963D01*
X42847619Y-85090963D02*
X42885714Y-85090963D01*
X42885714Y-85090963D02*
X42904762Y-85100487D01*
X42904762Y-85100487D02*
X42923809Y-85119535D01*
X42923809Y-85119535D02*
X42933333Y-85157630D01*
X42933333Y-85157630D02*
X42933333Y-85224297D01*
X42933333Y-85224297D02*
X42923809Y-85262392D01*
X42923809Y-85262392D02*
X42904762Y-85281440D01*
X42904762Y-85281440D02*
X42885714Y-85290963D01*
X42885714Y-85290963D02*
X42847619Y-85290963D01*
X42847619Y-85290963D02*
X42828571Y-85281440D01*
X42828571Y-85281440D02*
X42809524Y-85262392D01*
X42809524Y-85262392D02*
X42800000Y-85224297D01*
X42800000Y-85224297D02*
X42800000Y-85157630D01*
X42800000Y-85157630D02*
X42809524Y-85119535D01*
X42809524Y-85119535D02*
X42828571Y-85100487D01*
X42828571Y-85100487D02*
X42847619Y-85090963D01*
X43019048Y-85290963D02*
X43019048Y-85090963D01*
X43019048Y-85090963D02*
X43133333Y-85290963D01*
X43133333Y-85290963D02*
X43133333Y-85090963D01*
X43228572Y-85186201D02*
X43295238Y-85186201D01*
X43323810Y-85290963D02*
X43228572Y-85290963D01*
X43228572Y-85290963D02*
X43228572Y-85090963D01*
X43228572Y-85090963D02*
X43323810Y-85090963D01*
X41019047Y-85690963D02*
X41019047Y-85490963D01*
X41019047Y-85490963D02*
X41133332Y-85690963D01*
X41133332Y-85690963D02*
X41133332Y-85490963D01*
X41257142Y-85690963D02*
X41238094Y-85681440D01*
X41238094Y-85681440D02*
X41228571Y-85671916D01*
X41228571Y-85671916D02*
X41219047Y-85652868D01*
X41219047Y-85652868D02*
X41219047Y-85595725D01*
X41219047Y-85595725D02*
X41228571Y-85576678D01*
X41228571Y-85576678D02*
X41238094Y-85567154D01*
X41238094Y-85567154D02*
X41257142Y-85557630D01*
X41257142Y-85557630D02*
X41285713Y-85557630D01*
X41285713Y-85557630D02*
X41304761Y-85567154D01*
X41304761Y-85567154D02*
X41314285Y-85576678D01*
X41314285Y-85576678D02*
X41323809Y-85595725D01*
X41323809Y-85595725D02*
X41323809Y-85652868D01*
X41323809Y-85652868D02*
X41314285Y-85671916D01*
X41314285Y-85671916D02*
X41304761Y-85681440D01*
X41304761Y-85681440D02*
X41285713Y-85690963D01*
X41285713Y-85690963D02*
X41257142Y-85690963D01*
X41628570Y-85586201D02*
X41561904Y-85586201D01*
X41561904Y-85690963D02*
X41561904Y-85490963D01*
X41561904Y-85490963D02*
X41657142Y-85490963D01*
X41733333Y-85671916D02*
X41742856Y-85681440D01*
X41742856Y-85681440D02*
X41733333Y-85690963D01*
X41733333Y-85690963D02*
X41723809Y-85681440D01*
X41723809Y-85681440D02*
X41733333Y-85671916D01*
X41733333Y-85671916D02*
X41733333Y-85690963D01*
X41942856Y-85671916D02*
X41933332Y-85681440D01*
X41933332Y-85681440D02*
X41904761Y-85690963D01*
X41904761Y-85690963D02*
X41885713Y-85690963D01*
X41885713Y-85690963D02*
X41857142Y-85681440D01*
X41857142Y-85681440D02*
X41838094Y-85662392D01*
X41838094Y-85662392D02*
X41828571Y-85643344D01*
X41828571Y-85643344D02*
X41819047Y-85605249D01*
X41819047Y-85605249D02*
X41819047Y-85576678D01*
X41819047Y-85576678D02*
X41828571Y-85538582D01*
X41828571Y-85538582D02*
X41838094Y-85519535D01*
X41838094Y-85519535D02*
X41857142Y-85500487D01*
X41857142Y-85500487D02*
X41885713Y-85490963D01*
X41885713Y-85490963D02*
X41904761Y-85490963D01*
X41904761Y-85490963D02*
X41933332Y-85500487D01*
X41933332Y-85500487D02*
X41942856Y-85510011D01*
X42114285Y-85557630D02*
X42114285Y-85690963D01*
X42028571Y-85557630D02*
X42028571Y-85662392D01*
X42028571Y-85662392D02*
X42038094Y-85681440D01*
X42038094Y-85681440D02*
X42057142Y-85690963D01*
X42057142Y-85690963D02*
X42085713Y-85690963D01*
X42085713Y-85690963D02*
X42104761Y-85681440D01*
X42104761Y-85681440D02*
X42114285Y-85671916D01*
X42333332Y-85557630D02*
X42409523Y-85557630D01*
X42361904Y-85490963D02*
X42361904Y-85662392D01*
X42361904Y-85662392D02*
X42371427Y-85681440D01*
X42371427Y-85681440D02*
X42390475Y-85690963D01*
X42390475Y-85690963D02*
X42409523Y-85690963D01*
X42476190Y-85690963D02*
X42476190Y-85557630D01*
X42476190Y-85595725D02*
X42485713Y-85576678D01*
X42485713Y-85576678D02*
X42495237Y-85567154D01*
X42495237Y-85567154D02*
X42514285Y-85557630D01*
X42514285Y-85557630D02*
X42533332Y-85557630D01*
X42685714Y-85690963D02*
X42685714Y-85586201D01*
X42685714Y-85586201D02*
X42676190Y-85567154D01*
X42676190Y-85567154D02*
X42657142Y-85557630D01*
X42657142Y-85557630D02*
X42619047Y-85557630D01*
X42619047Y-85557630D02*
X42600000Y-85567154D01*
X42685714Y-85681440D02*
X42666666Y-85690963D01*
X42666666Y-85690963D02*
X42619047Y-85690963D01*
X42619047Y-85690963D02*
X42600000Y-85681440D01*
X42600000Y-85681440D02*
X42590476Y-85662392D01*
X42590476Y-85662392D02*
X42590476Y-85643344D01*
X42590476Y-85643344D02*
X42600000Y-85624297D01*
X42600000Y-85624297D02*
X42619047Y-85614773D01*
X42619047Y-85614773D02*
X42666666Y-85614773D01*
X42666666Y-85614773D02*
X42685714Y-85605249D01*
X42866666Y-85681440D02*
X42847618Y-85690963D01*
X42847618Y-85690963D02*
X42809523Y-85690963D01*
X42809523Y-85690963D02*
X42790475Y-85681440D01*
X42790475Y-85681440D02*
X42780952Y-85671916D01*
X42780952Y-85671916D02*
X42771428Y-85652868D01*
X42771428Y-85652868D02*
X42771428Y-85595725D01*
X42771428Y-85595725D02*
X42780952Y-85576678D01*
X42780952Y-85576678D02*
X42790475Y-85567154D01*
X42790475Y-85567154D02*
X42809523Y-85557630D01*
X42809523Y-85557630D02*
X42847618Y-85557630D01*
X42847618Y-85557630D02*
X42866666Y-85567154D01*
X42952381Y-85690963D02*
X42952381Y-85490963D01*
X42971428Y-85614773D02*
X43028571Y-85690963D01*
X43028571Y-85557630D02*
X42952381Y-85633820D01*
X43104762Y-85681440D02*
X43123809Y-85690963D01*
X43123809Y-85690963D02*
X43161905Y-85690963D01*
X43161905Y-85690963D02*
X43180952Y-85681440D01*
X43180952Y-85681440D02*
X43190476Y-85662392D01*
X43190476Y-85662392D02*
X43190476Y-85652868D01*
X43190476Y-85652868D02*
X43180952Y-85633820D01*
X43180952Y-85633820D02*
X43161905Y-85624297D01*
X43161905Y-85624297D02*
X43133333Y-85624297D01*
X43133333Y-85624297D02*
X43114286Y-85614773D01*
X43114286Y-85614773D02*
X43104762Y-85595725D01*
X43104762Y-85595725D02*
X43104762Y-85586201D01*
X43104762Y-85586201D02*
X43114286Y-85567154D01*
X43114286Y-85567154D02*
X43133333Y-85557630D01*
X43133333Y-85557630D02*
X43161905Y-85557630D01*
X43161905Y-85557630D02*
X43180952Y-85567154D01*
X73385715Y-60990963D02*
X73385715Y-60790963D01*
X73500000Y-60990963D02*
X73414286Y-60876678D01*
X73500000Y-60790963D02*
X73385715Y-60905249D01*
X73585715Y-60886201D02*
X73652381Y-60886201D01*
X73680953Y-60990963D02*
X73585715Y-60990963D01*
X73585715Y-60990963D02*
X73585715Y-60790963D01*
X73585715Y-60790963D02*
X73680953Y-60790963D01*
X73766667Y-60886201D02*
X73833333Y-60886201D01*
X73861905Y-60990963D02*
X73766667Y-60990963D01*
X73766667Y-60990963D02*
X73766667Y-60790963D01*
X73766667Y-60790963D02*
X73861905Y-60790963D01*
X73947619Y-60990963D02*
X73947619Y-60790963D01*
X73947619Y-60790963D02*
X74023809Y-60790963D01*
X74023809Y-60790963D02*
X74042857Y-60800487D01*
X74042857Y-60800487D02*
X74052380Y-60810011D01*
X74052380Y-60810011D02*
X74061904Y-60829059D01*
X74061904Y-60829059D02*
X74061904Y-60857630D01*
X74061904Y-60857630D02*
X74052380Y-60876678D01*
X74052380Y-60876678D02*
X74042857Y-60886201D01*
X74042857Y-60886201D02*
X74023809Y-60895725D01*
X74023809Y-60895725D02*
X73947619Y-60895725D01*
X74147619Y-60914773D02*
X74300000Y-60914773D01*
X74433333Y-60790963D02*
X74471428Y-60790963D01*
X74471428Y-60790963D02*
X74490476Y-60800487D01*
X74490476Y-60800487D02*
X74509523Y-60819535D01*
X74509523Y-60819535D02*
X74519047Y-60857630D01*
X74519047Y-60857630D02*
X74519047Y-60924297D01*
X74519047Y-60924297D02*
X74509523Y-60962392D01*
X74509523Y-60962392D02*
X74490476Y-60981440D01*
X74490476Y-60981440D02*
X74471428Y-60990963D01*
X74471428Y-60990963D02*
X74433333Y-60990963D01*
X74433333Y-60990963D02*
X74414285Y-60981440D01*
X74414285Y-60981440D02*
X74395238Y-60962392D01*
X74395238Y-60962392D02*
X74385714Y-60924297D01*
X74385714Y-60924297D02*
X74385714Y-60857630D01*
X74385714Y-60857630D02*
X74395238Y-60819535D01*
X74395238Y-60819535D02*
X74414285Y-60800487D01*
X74414285Y-60800487D02*
X74433333Y-60790963D01*
X74604762Y-60790963D02*
X74604762Y-60952868D01*
X74604762Y-60952868D02*
X74614285Y-60971916D01*
X74614285Y-60971916D02*
X74623809Y-60981440D01*
X74623809Y-60981440D02*
X74642857Y-60990963D01*
X74642857Y-60990963D02*
X74680952Y-60990963D01*
X74680952Y-60990963D02*
X74700000Y-60981440D01*
X74700000Y-60981440D02*
X74709523Y-60971916D01*
X74709523Y-60971916D02*
X74719047Y-60952868D01*
X74719047Y-60952868D02*
X74719047Y-60790963D01*
X74785714Y-60790963D02*
X74900000Y-60790963D01*
X74842857Y-60990963D02*
X74842857Y-60790963D01*
X75100000Y-60790963D02*
X75233333Y-60790963D01*
X75233333Y-60790963D02*
X75100000Y-60990963D01*
X75100000Y-60990963D02*
X75233333Y-60990963D01*
X75347619Y-60790963D02*
X75385714Y-60790963D01*
X75385714Y-60790963D02*
X75404762Y-60800487D01*
X75404762Y-60800487D02*
X75423809Y-60819535D01*
X75423809Y-60819535D02*
X75433333Y-60857630D01*
X75433333Y-60857630D02*
X75433333Y-60924297D01*
X75433333Y-60924297D02*
X75423809Y-60962392D01*
X75423809Y-60962392D02*
X75404762Y-60981440D01*
X75404762Y-60981440D02*
X75385714Y-60990963D01*
X75385714Y-60990963D02*
X75347619Y-60990963D01*
X75347619Y-60990963D02*
X75328571Y-60981440D01*
X75328571Y-60981440D02*
X75309524Y-60962392D01*
X75309524Y-60962392D02*
X75300000Y-60924297D01*
X75300000Y-60924297D02*
X75300000Y-60857630D01*
X75300000Y-60857630D02*
X75309524Y-60819535D01*
X75309524Y-60819535D02*
X75328571Y-60800487D01*
X75328571Y-60800487D02*
X75347619Y-60790963D01*
X75519048Y-60990963D02*
X75519048Y-60790963D01*
X75519048Y-60790963D02*
X75633333Y-60990963D01*
X75633333Y-60990963D02*
X75633333Y-60790963D01*
X75728572Y-60886201D02*
X75795238Y-60886201D01*
X75823810Y-60990963D02*
X75728572Y-60990963D01*
X75728572Y-60990963D02*
X75728572Y-60790963D01*
X75728572Y-60790963D02*
X75823810Y-60790963D01*
X73519047Y-61390963D02*
X73519047Y-61190963D01*
X73519047Y-61190963D02*
X73633332Y-61390963D01*
X73633332Y-61390963D02*
X73633332Y-61190963D01*
X73757142Y-61390963D02*
X73738094Y-61381440D01*
X73738094Y-61381440D02*
X73728571Y-61371916D01*
X73728571Y-61371916D02*
X73719047Y-61352868D01*
X73719047Y-61352868D02*
X73719047Y-61295725D01*
X73719047Y-61295725D02*
X73728571Y-61276678D01*
X73728571Y-61276678D02*
X73738094Y-61267154D01*
X73738094Y-61267154D02*
X73757142Y-61257630D01*
X73757142Y-61257630D02*
X73785713Y-61257630D01*
X73785713Y-61257630D02*
X73804761Y-61267154D01*
X73804761Y-61267154D02*
X73814285Y-61276678D01*
X73814285Y-61276678D02*
X73823809Y-61295725D01*
X73823809Y-61295725D02*
X73823809Y-61352868D01*
X73823809Y-61352868D02*
X73814285Y-61371916D01*
X73814285Y-61371916D02*
X73804761Y-61381440D01*
X73804761Y-61381440D02*
X73785713Y-61390963D01*
X73785713Y-61390963D02*
X73757142Y-61390963D01*
X74128570Y-61286201D02*
X74061904Y-61286201D01*
X74061904Y-61390963D02*
X74061904Y-61190963D01*
X74061904Y-61190963D02*
X74157142Y-61190963D01*
X74233333Y-61371916D02*
X74242856Y-61381440D01*
X74242856Y-61381440D02*
X74233333Y-61390963D01*
X74233333Y-61390963D02*
X74223809Y-61381440D01*
X74223809Y-61381440D02*
X74233333Y-61371916D01*
X74233333Y-61371916D02*
X74233333Y-61390963D01*
X74442856Y-61371916D02*
X74433332Y-61381440D01*
X74433332Y-61381440D02*
X74404761Y-61390963D01*
X74404761Y-61390963D02*
X74385713Y-61390963D01*
X74385713Y-61390963D02*
X74357142Y-61381440D01*
X74357142Y-61381440D02*
X74338094Y-61362392D01*
X74338094Y-61362392D02*
X74328571Y-61343344D01*
X74328571Y-61343344D02*
X74319047Y-61305249D01*
X74319047Y-61305249D02*
X74319047Y-61276678D01*
X74319047Y-61276678D02*
X74328571Y-61238582D01*
X74328571Y-61238582D02*
X74338094Y-61219535D01*
X74338094Y-61219535D02*
X74357142Y-61200487D01*
X74357142Y-61200487D02*
X74385713Y-61190963D01*
X74385713Y-61190963D02*
X74404761Y-61190963D01*
X74404761Y-61190963D02*
X74433332Y-61200487D01*
X74433332Y-61200487D02*
X74442856Y-61210011D01*
X74614285Y-61257630D02*
X74614285Y-61390963D01*
X74528571Y-61257630D02*
X74528571Y-61362392D01*
X74528571Y-61362392D02*
X74538094Y-61381440D01*
X74538094Y-61381440D02*
X74557142Y-61390963D01*
X74557142Y-61390963D02*
X74585713Y-61390963D01*
X74585713Y-61390963D02*
X74604761Y-61381440D01*
X74604761Y-61381440D02*
X74614285Y-61371916D01*
X74833332Y-61257630D02*
X74909523Y-61257630D01*
X74861904Y-61190963D02*
X74861904Y-61362392D01*
X74861904Y-61362392D02*
X74871427Y-61381440D01*
X74871427Y-61381440D02*
X74890475Y-61390963D01*
X74890475Y-61390963D02*
X74909523Y-61390963D01*
X74976190Y-61390963D02*
X74976190Y-61257630D01*
X74976190Y-61295725D02*
X74985713Y-61276678D01*
X74985713Y-61276678D02*
X74995237Y-61267154D01*
X74995237Y-61267154D02*
X75014285Y-61257630D01*
X75014285Y-61257630D02*
X75033332Y-61257630D01*
X75185714Y-61390963D02*
X75185714Y-61286201D01*
X75185714Y-61286201D02*
X75176190Y-61267154D01*
X75176190Y-61267154D02*
X75157142Y-61257630D01*
X75157142Y-61257630D02*
X75119047Y-61257630D01*
X75119047Y-61257630D02*
X75100000Y-61267154D01*
X75185714Y-61381440D02*
X75166666Y-61390963D01*
X75166666Y-61390963D02*
X75119047Y-61390963D01*
X75119047Y-61390963D02*
X75100000Y-61381440D01*
X75100000Y-61381440D02*
X75090476Y-61362392D01*
X75090476Y-61362392D02*
X75090476Y-61343344D01*
X75090476Y-61343344D02*
X75100000Y-61324297D01*
X75100000Y-61324297D02*
X75119047Y-61314773D01*
X75119047Y-61314773D02*
X75166666Y-61314773D01*
X75166666Y-61314773D02*
X75185714Y-61305249D01*
X75366666Y-61381440D02*
X75347618Y-61390963D01*
X75347618Y-61390963D02*
X75309523Y-61390963D01*
X75309523Y-61390963D02*
X75290475Y-61381440D01*
X75290475Y-61381440D02*
X75280952Y-61371916D01*
X75280952Y-61371916D02*
X75271428Y-61352868D01*
X75271428Y-61352868D02*
X75271428Y-61295725D01*
X75271428Y-61295725D02*
X75280952Y-61276678D01*
X75280952Y-61276678D02*
X75290475Y-61267154D01*
X75290475Y-61267154D02*
X75309523Y-61257630D01*
X75309523Y-61257630D02*
X75347618Y-61257630D01*
X75347618Y-61257630D02*
X75366666Y-61267154D01*
X75452381Y-61390963D02*
X75452381Y-61190963D01*
X75471428Y-61314773D02*
X75528571Y-61390963D01*
X75528571Y-61257630D02*
X75452381Y-61333820D01*
X75604762Y-61381440D02*
X75623809Y-61390963D01*
X75623809Y-61390963D02*
X75661905Y-61390963D01*
X75661905Y-61390963D02*
X75680952Y-61381440D01*
X75680952Y-61381440D02*
X75690476Y-61362392D01*
X75690476Y-61362392D02*
X75690476Y-61352868D01*
X75690476Y-61352868D02*
X75680952Y-61333820D01*
X75680952Y-61333820D02*
X75661905Y-61324297D01*
X75661905Y-61324297D02*
X75633333Y-61324297D01*
X75633333Y-61324297D02*
X75614286Y-61314773D01*
X75614286Y-61314773D02*
X75604762Y-61295725D01*
X75604762Y-61295725D02*
X75604762Y-61286201D01*
X75604762Y-61286201D02*
X75614286Y-61267154D01*
X75614286Y-61267154D02*
X75633333Y-61257630D01*
X75633333Y-61257630D02*
X75661905Y-61257630D01*
X75661905Y-61257630D02*
X75680952Y-61267154D01*
X78385715Y-60990963D02*
X78385715Y-60790963D01*
X78500000Y-60990963D02*
X78414286Y-60876678D01*
X78500000Y-60790963D02*
X78385715Y-60905249D01*
X78585715Y-60886201D02*
X78652381Y-60886201D01*
X78680953Y-60990963D02*
X78585715Y-60990963D01*
X78585715Y-60990963D02*
X78585715Y-60790963D01*
X78585715Y-60790963D02*
X78680953Y-60790963D01*
X78766667Y-60886201D02*
X78833333Y-60886201D01*
X78861905Y-60990963D02*
X78766667Y-60990963D01*
X78766667Y-60990963D02*
X78766667Y-60790963D01*
X78766667Y-60790963D02*
X78861905Y-60790963D01*
X78947619Y-60990963D02*
X78947619Y-60790963D01*
X78947619Y-60790963D02*
X79023809Y-60790963D01*
X79023809Y-60790963D02*
X79042857Y-60800487D01*
X79042857Y-60800487D02*
X79052380Y-60810011D01*
X79052380Y-60810011D02*
X79061904Y-60829059D01*
X79061904Y-60829059D02*
X79061904Y-60857630D01*
X79061904Y-60857630D02*
X79052380Y-60876678D01*
X79052380Y-60876678D02*
X79042857Y-60886201D01*
X79042857Y-60886201D02*
X79023809Y-60895725D01*
X79023809Y-60895725D02*
X78947619Y-60895725D01*
X79147619Y-60914773D02*
X79300000Y-60914773D01*
X79433333Y-60790963D02*
X79471428Y-60790963D01*
X79471428Y-60790963D02*
X79490476Y-60800487D01*
X79490476Y-60800487D02*
X79509523Y-60819535D01*
X79509523Y-60819535D02*
X79519047Y-60857630D01*
X79519047Y-60857630D02*
X79519047Y-60924297D01*
X79519047Y-60924297D02*
X79509523Y-60962392D01*
X79509523Y-60962392D02*
X79490476Y-60981440D01*
X79490476Y-60981440D02*
X79471428Y-60990963D01*
X79471428Y-60990963D02*
X79433333Y-60990963D01*
X79433333Y-60990963D02*
X79414285Y-60981440D01*
X79414285Y-60981440D02*
X79395238Y-60962392D01*
X79395238Y-60962392D02*
X79385714Y-60924297D01*
X79385714Y-60924297D02*
X79385714Y-60857630D01*
X79385714Y-60857630D02*
X79395238Y-60819535D01*
X79395238Y-60819535D02*
X79414285Y-60800487D01*
X79414285Y-60800487D02*
X79433333Y-60790963D01*
X79604762Y-60790963D02*
X79604762Y-60952868D01*
X79604762Y-60952868D02*
X79614285Y-60971916D01*
X79614285Y-60971916D02*
X79623809Y-60981440D01*
X79623809Y-60981440D02*
X79642857Y-60990963D01*
X79642857Y-60990963D02*
X79680952Y-60990963D01*
X79680952Y-60990963D02*
X79700000Y-60981440D01*
X79700000Y-60981440D02*
X79709523Y-60971916D01*
X79709523Y-60971916D02*
X79719047Y-60952868D01*
X79719047Y-60952868D02*
X79719047Y-60790963D01*
X79785714Y-60790963D02*
X79900000Y-60790963D01*
X79842857Y-60990963D02*
X79842857Y-60790963D01*
X80100000Y-60790963D02*
X80233333Y-60790963D01*
X80233333Y-60790963D02*
X80100000Y-60990963D01*
X80100000Y-60990963D02*
X80233333Y-60990963D01*
X80347619Y-60790963D02*
X80385714Y-60790963D01*
X80385714Y-60790963D02*
X80404762Y-60800487D01*
X80404762Y-60800487D02*
X80423809Y-60819535D01*
X80423809Y-60819535D02*
X80433333Y-60857630D01*
X80433333Y-60857630D02*
X80433333Y-60924297D01*
X80433333Y-60924297D02*
X80423809Y-60962392D01*
X80423809Y-60962392D02*
X80404762Y-60981440D01*
X80404762Y-60981440D02*
X80385714Y-60990963D01*
X80385714Y-60990963D02*
X80347619Y-60990963D01*
X80347619Y-60990963D02*
X80328571Y-60981440D01*
X80328571Y-60981440D02*
X80309524Y-60962392D01*
X80309524Y-60962392D02*
X80300000Y-60924297D01*
X80300000Y-60924297D02*
X80300000Y-60857630D01*
X80300000Y-60857630D02*
X80309524Y-60819535D01*
X80309524Y-60819535D02*
X80328571Y-60800487D01*
X80328571Y-60800487D02*
X80347619Y-60790963D01*
X80519048Y-60990963D02*
X80519048Y-60790963D01*
X80519048Y-60790963D02*
X80633333Y-60990963D01*
X80633333Y-60990963D02*
X80633333Y-60790963D01*
X80728572Y-60886201D02*
X80795238Y-60886201D01*
X80823810Y-60990963D02*
X80728572Y-60990963D01*
X80728572Y-60990963D02*
X80728572Y-60790963D01*
X80728572Y-60790963D02*
X80823810Y-60790963D01*
X78519047Y-61390963D02*
X78519047Y-61190963D01*
X78519047Y-61190963D02*
X78633332Y-61390963D01*
X78633332Y-61390963D02*
X78633332Y-61190963D01*
X78757142Y-61390963D02*
X78738094Y-61381440D01*
X78738094Y-61381440D02*
X78728571Y-61371916D01*
X78728571Y-61371916D02*
X78719047Y-61352868D01*
X78719047Y-61352868D02*
X78719047Y-61295725D01*
X78719047Y-61295725D02*
X78728571Y-61276678D01*
X78728571Y-61276678D02*
X78738094Y-61267154D01*
X78738094Y-61267154D02*
X78757142Y-61257630D01*
X78757142Y-61257630D02*
X78785713Y-61257630D01*
X78785713Y-61257630D02*
X78804761Y-61267154D01*
X78804761Y-61267154D02*
X78814285Y-61276678D01*
X78814285Y-61276678D02*
X78823809Y-61295725D01*
X78823809Y-61295725D02*
X78823809Y-61352868D01*
X78823809Y-61352868D02*
X78814285Y-61371916D01*
X78814285Y-61371916D02*
X78804761Y-61381440D01*
X78804761Y-61381440D02*
X78785713Y-61390963D01*
X78785713Y-61390963D02*
X78757142Y-61390963D01*
X79128570Y-61286201D02*
X79061904Y-61286201D01*
X79061904Y-61390963D02*
X79061904Y-61190963D01*
X79061904Y-61190963D02*
X79157142Y-61190963D01*
X79233333Y-61371916D02*
X79242856Y-61381440D01*
X79242856Y-61381440D02*
X79233333Y-61390963D01*
X79233333Y-61390963D02*
X79223809Y-61381440D01*
X79223809Y-61381440D02*
X79233333Y-61371916D01*
X79233333Y-61371916D02*
X79233333Y-61390963D01*
X79442856Y-61371916D02*
X79433332Y-61381440D01*
X79433332Y-61381440D02*
X79404761Y-61390963D01*
X79404761Y-61390963D02*
X79385713Y-61390963D01*
X79385713Y-61390963D02*
X79357142Y-61381440D01*
X79357142Y-61381440D02*
X79338094Y-61362392D01*
X79338094Y-61362392D02*
X79328571Y-61343344D01*
X79328571Y-61343344D02*
X79319047Y-61305249D01*
X79319047Y-61305249D02*
X79319047Y-61276678D01*
X79319047Y-61276678D02*
X79328571Y-61238582D01*
X79328571Y-61238582D02*
X79338094Y-61219535D01*
X79338094Y-61219535D02*
X79357142Y-61200487D01*
X79357142Y-61200487D02*
X79385713Y-61190963D01*
X79385713Y-61190963D02*
X79404761Y-61190963D01*
X79404761Y-61190963D02*
X79433332Y-61200487D01*
X79433332Y-61200487D02*
X79442856Y-61210011D01*
X79614285Y-61257630D02*
X79614285Y-61390963D01*
X79528571Y-61257630D02*
X79528571Y-61362392D01*
X79528571Y-61362392D02*
X79538094Y-61381440D01*
X79538094Y-61381440D02*
X79557142Y-61390963D01*
X79557142Y-61390963D02*
X79585713Y-61390963D01*
X79585713Y-61390963D02*
X79604761Y-61381440D01*
X79604761Y-61381440D02*
X79614285Y-61371916D01*
X79833332Y-61257630D02*
X79909523Y-61257630D01*
X79861904Y-61190963D02*
X79861904Y-61362392D01*
X79861904Y-61362392D02*
X79871427Y-61381440D01*
X79871427Y-61381440D02*
X79890475Y-61390963D01*
X79890475Y-61390963D02*
X79909523Y-61390963D01*
X79976190Y-61390963D02*
X79976190Y-61257630D01*
X79976190Y-61295725D02*
X79985713Y-61276678D01*
X79985713Y-61276678D02*
X79995237Y-61267154D01*
X79995237Y-61267154D02*
X80014285Y-61257630D01*
X80014285Y-61257630D02*
X80033332Y-61257630D01*
X80185714Y-61390963D02*
X80185714Y-61286201D01*
X80185714Y-61286201D02*
X80176190Y-61267154D01*
X80176190Y-61267154D02*
X80157142Y-61257630D01*
X80157142Y-61257630D02*
X80119047Y-61257630D01*
X80119047Y-61257630D02*
X80100000Y-61267154D01*
X80185714Y-61381440D02*
X80166666Y-61390963D01*
X80166666Y-61390963D02*
X80119047Y-61390963D01*
X80119047Y-61390963D02*
X80100000Y-61381440D01*
X80100000Y-61381440D02*
X80090476Y-61362392D01*
X80090476Y-61362392D02*
X80090476Y-61343344D01*
X80090476Y-61343344D02*
X80100000Y-61324297D01*
X80100000Y-61324297D02*
X80119047Y-61314773D01*
X80119047Y-61314773D02*
X80166666Y-61314773D01*
X80166666Y-61314773D02*
X80185714Y-61305249D01*
X80366666Y-61381440D02*
X80347618Y-61390963D01*
X80347618Y-61390963D02*
X80309523Y-61390963D01*
X80309523Y-61390963D02*
X80290475Y-61381440D01*
X80290475Y-61381440D02*
X80280952Y-61371916D01*
X80280952Y-61371916D02*
X80271428Y-61352868D01*
X80271428Y-61352868D02*
X80271428Y-61295725D01*
X80271428Y-61295725D02*
X80280952Y-61276678D01*
X80280952Y-61276678D02*
X80290475Y-61267154D01*
X80290475Y-61267154D02*
X80309523Y-61257630D01*
X80309523Y-61257630D02*
X80347618Y-61257630D01*
X80347618Y-61257630D02*
X80366666Y-61267154D01*
X80452381Y-61390963D02*
X80452381Y-61190963D01*
X80471428Y-61314773D02*
X80528571Y-61390963D01*
X80528571Y-61257630D02*
X80452381Y-61333820D01*
X80604762Y-61381440D02*
X80623809Y-61390963D01*
X80623809Y-61390963D02*
X80661905Y-61390963D01*
X80661905Y-61390963D02*
X80680952Y-61381440D01*
X80680952Y-61381440D02*
X80690476Y-61362392D01*
X80690476Y-61362392D02*
X80690476Y-61352868D01*
X80690476Y-61352868D02*
X80680952Y-61333820D01*
X80680952Y-61333820D02*
X80661905Y-61324297D01*
X80661905Y-61324297D02*
X80633333Y-61324297D01*
X80633333Y-61324297D02*
X80614286Y-61314773D01*
X80614286Y-61314773D02*
X80604762Y-61295725D01*
X80604762Y-61295725D02*
X80604762Y-61286201D01*
X80604762Y-61286201D02*
X80614286Y-61267154D01*
X80614286Y-61267154D02*
X80633333Y-61257630D01*
X80633333Y-61257630D02*
X80661905Y-61257630D01*
X80661905Y-61257630D02*
X80680952Y-61267154D01*
X52785715Y-79890963D02*
X52785715Y-79690963D01*
X52900000Y-79890963D02*
X52814286Y-79776678D01*
X52900000Y-79690963D02*
X52785715Y-79805249D01*
X52985715Y-79786201D02*
X53052381Y-79786201D01*
X53080953Y-79890963D02*
X52985715Y-79890963D01*
X52985715Y-79890963D02*
X52985715Y-79690963D01*
X52985715Y-79690963D02*
X53080953Y-79690963D01*
X53166667Y-79786201D02*
X53233333Y-79786201D01*
X53261905Y-79890963D02*
X53166667Y-79890963D01*
X53166667Y-79890963D02*
X53166667Y-79690963D01*
X53166667Y-79690963D02*
X53261905Y-79690963D01*
X53347619Y-79890963D02*
X53347619Y-79690963D01*
X53347619Y-79690963D02*
X53423809Y-79690963D01*
X53423809Y-79690963D02*
X53442857Y-79700487D01*
X53442857Y-79700487D02*
X53452380Y-79710011D01*
X53452380Y-79710011D02*
X53461904Y-79729059D01*
X53461904Y-79729059D02*
X53461904Y-79757630D01*
X53461904Y-79757630D02*
X53452380Y-79776678D01*
X53452380Y-79776678D02*
X53442857Y-79786201D01*
X53442857Y-79786201D02*
X53423809Y-79795725D01*
X53423809Y-79795725D02*
X53347619Y-79795725D01*
X53547619Y-79814773D02*
X53700000Y-79814773D01*
X53833333Y-79690963D02*
X53871428Y-79690963D01*
X53871428Y-79690963D02*
X53890476Y-79700487D01*
X53890476Y-79700487D02*
X53909523Y-79719535D01*
X53909523Y-79719535D02*
X53919047Y-79757630D01*
X53919047Y-79757630D02*
X53919047Y-79824297D01*
X53919047Y-79824297D02*
X53909523Y-79862392D01*
X53909523Y-79862392D02*
X53890476Y-79881440D01*
X53890476Y-79881440D02*
X53871428Y-79890963D01*
X53871428Y-79890963D02*
X53833333Y-79890963D01*
X53833333Y-79890963D02*
X53814285Y-79881440D01*
X53814285Y-79881440D02*
X53795238Y-79862392D01*
X53795238Y-79862392D02*
X53785714Y-79824297D01*
X53785714Y-79824297D02*
X53785714Y-79757630D01*
X53785714Y-79757630D02*
X53795238Y-79719535D01*
X53795238Y-79719535D02*
X53814285Y-79700487D01*
X53814285Y-79700487D02*
X53833333Y-79690963D01*
X54004762Y-79690963D02*
X54004762Y-79852868D01*
X54004762Y-79852868D02*
X54014285Y-79871916D01*
X54014285Y-79871916D02*
X54023809Y-79881440D01*
X54023809Y-79881440D02*
X54042857Y-79890963D01*
X54042857Y-79890963D02*
X54080952Y-79890963D01*
X54080952Y-79890963D02*
X54100000Y-79881440D01*
X54100000Y-79881440D02*
X54109523Y-79871916D01*
X54109523Y-79871916D02*
X54119047Y-79852868D01*
X54119047Y-79852868D02*
X54119047Y-79690963D01*
X54185714Y-79690963D02*
X54300000Y-79690963D01*
X54242857Y-79890963D02*
X54242857Y-79690963D01*
X54500000Y-79690963D02*
X54633333Y-79690963D01*
X54633333Y-79690963D02*
X54500000Y-79890963D01*
X54500000Y-79890963D02*
X54633333Y-79890963D01*
X54747619Y-79690963D02*
X54785714Y-79690963D01*
X54785714Y-79690963D02*
X54804762Y-79700487D01*
X54804762Y-79700487D02*
X54823809Y-79719535D01*
X54823809Y-79719535D02*
X54833333Y-79757630D01*
X54833333Y-79757630D02*
X54833333Y-79824297D01*
X54833333Y-79824297D02*
X54823809Y-79862392D01*
X54823809Y-79862392D02*
X54804762Y-79881440D01*
X54804762Y-79881440D02*
X54785714Y-79890963D01*
X54785714Y-79890963D02*
X54747619Y-79890963D01*
X54747619Y-79890963D02*
X54728571Y-79881440D01*
X54728571Y-79881440D02*
X54709524Y-79862392D01*
X54709524Y-79862392D02*
X54700000Y-79824297D01*
X54700000Y-79824297D02*
X54700000Y-79757630D01*
X54700000Y-79757630D02*
X54709524Y-79719535D01*
X54709524Y-79719535D02*
X54728571Y-79700487D01*
X54728571Y-79700487D02*
X54747619Y-79690963D01*
X54919048Y-79890963D02*
X54919048Y-79690963D01*
X54919048Y-79690963D02*
X55033333Y-79890963D01*
X55033333Y-79890963D02*
X55033333Y-79690963D01*
X55128572Y-79786201D02*
X55195238Y-79786201D01*
X55223810Y-79890963D02*
X55128572Y-79890963D01*
X55128572Y-79890963D02*
X55128572Y-79690963D01*
X55128572Y-79690963D02*
X55223810Y-79690963D01*
X52919047Y-80290963D02*
X52919047Y-80090963D01*
X52919047Y-80090963D02*
X53033332Y-80290963D01*
X53033332Y-80290963D02*
X53033332Y-80090963D01*
X53157142Y-80290963D02*
X53138094Y-80281440D01*
X53138094Y-80281440D02*
X53128571Y-80271916D01*
X53128571Y-80271916D02*
X53119047Y-80252868D01*
X53119047Y-80252868D02*
X53119047Y-80195725D01*
X53119047Y-80195725D02*
X53128571Y-80176678D01*
X53128571Y-80176678D02*
X53138094Y-80167154D01*
X53138094Y-80167154D02*
X53157142Y-80157630D01*
X53157142Y-80157630D02*
X53185713Y-80157630D01*
X53185713Y-80157630D02*
X53204761Y-80167154D01*
X53204761Y-80167154D02*
X53214285Y-80176678D01*
X53214285Y-80176678D02*
X53223809Y-80195725D01*
X53223809Y-80195725D02*
X53223809Y-80252868D01*
X53223809Y-80252868D02*
X53214285Y-80271916D01*
X53214285Y-80271916D02*
X53204761Y-80281440D01*
X53204761Y-80281440D02*
X53185713Y-80290963D01*
X53185713Y-80290963D02*
X53157142Y-80290963D01*
X53528570Y-80186201D02*
X53461904Y-80186201D01*
X53461904Y-80290963D02*
X53461904Y-80090963D01*
X53461904Y-80090963D02*
X53557142Y-80090963D01*
X53633333Y-80271916D02*
X53642856Y-80281440D01*
X53642856Y-80281440D02*
X53633333Y-80290963D01*
X53633333Y-80290963D02*
X53623809Y-80281440D01*
X53623809Y-80281440D02*
X53633333Y-80271916D01*
X53633333Y-80271916D02*
X53633333Y-80290963D01*
X53842856Y-80271916D02*
X53833332Y-80281440D01*
X53833332Y-80281440D02*
X53804761Y-80290963D01*
X53804761Y-80290963D02*
X53785713Y-80290963D01*
X53785713Y-80290963D02*
X53757142Y-80281440D01*
X53757142Y-80281440D02*
X53738094Y-80262392D01*
X53738094Y-80262392D02*
X53728571Y-80243344D01*
X53728571Y-80243344D02*
X53719047Y-80205249D01*
X53719047Y-80205249D02*
X53719047Y-80176678D01*
X53719047Y-80176678D02*
X53728571Y-80138582D01*
X53728571Y-80138582D02*
X53738094Y-80119535D01*
X53738094Y-80119535D02*
X53757142Y-80100487D01*
X53757142Y-80100487D02*
X53785713Y-80090963D01*
X53785713Y-80090963D02*
X53804761Y-80090963D01*
X53804761Y-80090963D02*
X53833332Y-80100487D01*
X53833332Y-80100487D02*
X53842856Y-80110011D01*
X54014285Y-80157630D02*
X54014285Y-80290963D01*
X53928571Y-80157630D02*
X53928571Y-80262392D01*
X53928571Y-80262392D02*
X53938094Y-80281440D01*
X53938094Y-80281440D02*
X53957142Y-80290963D01*
X53957142Y-80290963D02*
X53985713Y-80290963D01*
X53985713Y-80290963D02*
X54004761Y-80281440D01*
X54004761Y-80281440D02*
X54014285Y-80271916D01*
X54233332Y-80157630D02*
X54309523Y-80157630D01*
X54261904Y-80090963D02*
X54261904Y-80262392D01*
X54261904Y-80262392D02*
X54271427Y-80281440D01*
X54271427Y-80281440D02*
X54290475Y-80290963D01*
X54290475Y-80290963D02*
X54309523Y-80290963D01*
X54376190Y-80290963D02*
X54376190Y-80157630D01*
X54376190Y-80195725D02*
X54385713Y-80176678D01*
X54385713Y-80176678D02*
X54395237Y-80167154D01*
X54395237Y-80167154D02*
X54414285Y-80157630D01*
X54414285Y-80157630D02*
X54433332Y-80157630D01*
X54585714Y-80290963D02*
X54585714Y-80186201D01*
X54585714Y-80186201D02*
X54576190Y-80167154D01*
X54576190Y-80167154D02*
X54557142Y-80157630D01*
X54557142Y-80157630D02*
X54519047Y-80157630D01*
X54519047Y-80157630D02*
X54500000Y-80167154D01*
X54585714Y-80281440D02*
X54566666Y-80290963D01*
X54566666Y-80290963D02*
X54519047Y-80290963D01*
X54519047Y-80290963D02*
X54500000Y-80281440D01*
X54500000Y-80281440D02*
X54490476Y-80262392D01*
X54490476Y-80262392D02*
X54490476Y-80243344D01*
X54490476Y-80243344D02*
X54500000Y-80224297D01*
X54500000Y-80224297D02*
X54519047Y-80214773D01*
X54519047Y-80214773D02*
X54566666Y-80214773D01*
X54566666Y-80214773D02*
X54585714Y-80205249D01*
X54766666Y-80281440D02*
X54747618Y-80290963D01*
X54747618Y-80290963D02*
X54709523Y-80290963D01*
X54709523Y-80290963D02*
X54690475Y-80281440D01*
X54690475Y-80281440D02*
X54680952Y-80271916D01*
X54680952Y-80271916D02*
X54671428Y-80252868D01*
X54671428Y-80252868D02*
X54671428Y-80195725D01*
X54671428Y-80195725D02*
X54680952Y-80176678D01*
X54680952Y-80176678D02*
X54690475Y-80167154D01*
X54690475Y-80167154D02*
X54709523Y-80157630D01*
X54709523Y-80157630D02*
X54747618Y-80157630D01*
X54747618Y-80157630D02*
X54766666Y-80167154D01*
X54852381Y-80290963D02*
X54852381Y-80090963D01*
X54871428Y-80214773D02*
X54928571Y-80290963D01*
X54928571Y-80157630D02*
X54852381Y-80233820D01*
X55004762Y-80281440D02*
X55023809Y-80290963D01*
X55023809Y-80290963D02*
X55061905Y-80290963D01*
X55061905Y-80290963D02*
X55080952Y-80281440D01*
X55080952Y-80281440D02*
X55090476Y-80262392D01*
X55090476Y-80262392D02*
X55090476Y-80252868D01*
X55090476Y-80252868D02*
X55080952Y-80233820D01*
X55080952Y-80233820D02*
X55061905Y-80224297D01*
X55061905Y-80224297D02*
X55033333Y-80224297D01*
X55033333Y-80224297D02*
X55014286Y-80214773D01*
X55014286Y-80214773D02*
X55004762Y-80195725D01*
X55004762Y-80195725D02*
X55004762Y-80186201D01*
X55004762Y-80186201D02*
X55014286Y-80167154D01*
X55014286Y-80167154D02*
X55033333Y-80157630D01*
X55033333Y-80157630D02*
X55061905Y-80157630D01*
X55061905Y-80157630D02*
X55080952Y-80167154D01*
X57785715Y-79890963D02*
X57785715Y-79690963D01*
X57900000Y-79890963D02*
X57814286Y-79776678D01*
X57900000Y-79690963D02*
X57785715Y-79805249D01*
X57985715Y-79786201D02*
X58052381Y-79786201D01*
X58080953Y-79890963D02*
X57985715Y-79890963D01*
X57985715Y-79890963D02*
X57985715Y-79690963D01*
X57985715Y-79690963D02*
X58080953Y-79690963D01*
X58166667Y-79786201D02*
X58233333Y-79786201D01*
X58261905Y-79890963D02*
X58166667Y-79890963D01*
X58166667Y-79890963D02*
X58166667Y-79690963D01*
X58166667Y-79690963D02*
X58261905Y-79690963D01*
X58347619Y-79890963D02*
X58347619Y-79690963D01*
X58347619Y-79690963D02*
X58423809Y-79690963D01*
X58423809Y-79690963D02*
X58442857Y-79700487D01*
X58442857Y-79700487D02*
X58452380Y-79710011D01*
X58452380Y-79710011D02*
X58461904Y-79729059D01*
X58461904Y-79729059D02*
X58461904Y-79757630D01*
X58461904Y-79757630D02*
X58452380Y-79776678D01*
X58452380Y-79776678D02*
X58442857Y-79786201D01*
X58442857Y-79786201D02*
X58423809Y-79795725D01*
X58423809Y-79795725D02*
X58347619Y-79795725D01*
X58547619Y-79814773D02*
X58700000Y-79814773D01*
X58833333Y-79690963D02*
X58871428Y-79690963D01*
X58871428Y-79690963D02*
X58890476Y-79700487D01*
X58890476Y-79700487D02*
X58909523Y-79719535D01*
X58909523Y-79719535D02*
X58919047Y-79757630D01*
X58919047Y-79757630D02*
X58919047Y-79824297D01*
X58919047Y-79824297D02*
X58909523Y-79862392D01*
X58909523Y-79862392D02*
X58890476Y-79881440D01*
X58890476Y-79881440D02*
X58871428Y-79890963D01*
X58871428Y-79890963D02*
X58833333Y-79890963D01*
X58833333Y-79890963D02*
X58814285Y-79881440D01*
X58814285Y-79881440D02*
X58795238Y-79862392D01*
X58795238Y-79862392D02*
X58785714Y-79824297D01*
X58785714Y-79824297D02*
X58785714Y-79757630D01*
X58785714Y-79757630D02*
X58795238Y-79719535D01*
X58795238Y-79719535D02*
X58814285Y-79700487D01*
X58814285Y-79700487D02*
X58833333Y-79690963D01*
X59004762Y-79690963D02*
X59004762Y-79852868D01*
X59004762Y-79852868D02*
X59014285Y-79871916D01*
X59014285Y-79871916D02*
X59023809Y-79881440D01*
X59023809Y-79881440D02*
X59042857Y-79890963D01*
X59042857Y-79890963D02*
X59080952Y-79890963D01*
X59080952Y-79890963D02*
X59100000Y-79881440D01*
X59100000Y-79881440D02*
X59109523Y-79871916D01*
X59109523Y-79871916D02*
X59119047Y-79852868D01*
X59119047Y-79852868D02*
X59119047Y-79690963D01*
X59185714Y-79690963D02*
X59300000Y-79690963D01*
X59242857Y-79890963D02*
X59242857Y-79690963D01*
X59500000Y-79690963D02*
X59633333Y-79690963D01*
X59633333Y-79690963D02*
X59500000Y-79890963D01*
X59500000Y-79890963D02*
X59633333Y-79890963D01*
X59747619Y-79690963D02*
X59785714Y-79690963D01*
X59785714Y-79690963D02*
X59804762Y-79700487D01*
X59804762Y-79700487D02*
X59823809Y-79719535D01*
X59823809Y-79719535D02*
X59833333Y-79757630D01*
X59833333Y-79757630D02*
X59833333Y-79824297D01*
X59833333Y-79824297D02*
X59823809Y-79862392D01*
X59823809Y-79862392D02*
X59804762Y-79881440D01*
X59804762Y-79881440D02*
X59785714Y-79890963D01*
X59785714Y-79890963D02*
X59747619Y-79890963D01*
X59747619Y-79890963D02*
X59728571Y-79881440D01*
X59728571Y-79881440D02*
X59709524Y-79862392D01*
X59709524Y-79862392D02*
X59700000Y-79824297D01*
X59700000Y-79824297D02*
X59700000Y-79757630D01*
X59700000Y-79757630D02*
X59709524Y-79719535D01*
X59709524Y-79719535D02*
X59728571Y-79700487D01*
X59728571Y-79700487D02*
X59747619Y-79690963D01*
X59919048Y-79890963D02*
X59919048Y-79690963D01*
X59919048Y-79690963D02*
X60033333Y-79890963D01*
X60033333Y-79890963D02*
X60033333Y-79690963D01*
X60128572Y-79786201D02*
X60195238Y-79786201D01*
X60223810Y-79890963D02*
X60128572Y-79890963D01*
X60128572Y-79890963D02*
X60128572Y-79690963D01*
X60128572Y-79690963D02*
X60223810Y-79690963D01*
X57919047Y-80290963D02*
X57919047Y-80090963D01*
X57919047Y-80090963D02*
X58033332Y-80290963D01*
X58033332Y-80290963D02*
X58033332Y-80090963D01*
X58157142Y-80290963D02*
X58138094Y-80281440D01*
X58138094Y-80281440D02*
X58128571Y-80271916D01*
X58128571Y-80271916D02*
X58119047Y-80252868D01*
X58119047Y-80252868D02*
X58119047Y-80195725D01*
X58119047Y-80195725D02*
X58128571Y-80176678D01*
X58128571Y-80176678D02*
X58138094Y-80167154D01*
X58138094Y-80167154D02*
X58157142Y-80157630D01*
X58157142Y-80157630D02*
X58185713Y-80157630D01*
X58185713Y-80157630D02*
X58204761Y-80167154D01*
X58204761Y-80167154D02*
X58214285Y-80176678D01*
X58214285Y-80176678D02*
X58223809Y-80195725D01*
X58223809Y-80195725D02*
X58223809Y-80252868D01*
X58223809Y-80252868D02*
X58214285Y-80271916D01*
X58214285Y-80271916D02*
X58204761Y-80281440D01*
X58204761Y-80281440D02*
X58185713Y-80290963D01*
X58185713Y-80290963D02*
X58157142Y-80290963D01*
X58528570Y-80186201D02*
X58461904Y-80186201D01*
X58461904Y-80290963D02*
X58461904Y-80090963D01*
X58461904Y-80090963D02*
X58557142Y-80090963D01*
X58633333Y-80271916D02*
X58642856Y-80281440D01*
X58642856Y-80281440D02*
X58633333Y-80290963D01*
X58633333Y-80290963D02*
X58623809Y-80281440D01*
X58623809Y-80281440D02*
X58633333Y-80271916D01*
X58633333Y-80271916D02*
X58633333Y-80290963D01*
X58842856Y-80271916D02*
X58833332Y-80281440D01*
X58833332Y-80281440D02*
X58804761Y-80290963D01*
X58804761Y-80290963D02*
X58785713Y-80290963D01*
X58785713Y-80290963D02*
X58757142Y-80281440D01*
X58757142Y-80281440D02*
X58738094Y-80262392D01*
X58738094Y-80262392D02*
X58728571Y-80243344D01*
X58728571Y-80243344D02*
X58719047Y-80205249D01*
X58719047Y-80205249D02*
X58719047Y-80176678D01*
X58719047Y-80176678D02*
X58728571Y-80138582D01*
X58728571Y-80138582D02*
X58738094Y-80119535D01*
X58738094Y-80119535D02*
X58757142Y-80100487D01*
X58757142Y-80100487D02*
X58785713Y-80090963D01*
X58785713Y-80090963D02*
X58804761Y-80090963D01*
X58804761Y-80090963D02*
X58833332Y-80100487D01*
X58833332Y-80100487D02*
X58842856Y-80110011D01*
X59014285Y-80157630D02*
X59014285Y-80290963D01*
X58928571Y-80157630D02*
X58928571Y-80262392D01*
X58928571Y-80262392D02*
X58938094Y-80281440D01*
X58938094Y-80281440D02*
X58957142Y-80290963D01*
X58957142Y-80290963D02*
X58985713Y-80290963D01*
X58985713Y-80290963D02*
X59004761Y-80281440D01*
X59004761Y-80281440D02*
X59014285Y-80271916D01*
X59233332Y-80157630D02*
X59309523Y-80157630D01*
X59261904Y-80090963D02*
X59261904Y-80262392D01*
X59261904Y-80262392D02*
X59271427Y-80281440D01*
X59271427Y-80281440D02*
X59290475Y-80290963D01*
X59290475Y-80290963D02*
X59309523Y-80290963D01*
X59376190Y-80290963D02*
X59376190Y-80157630D01*
X59376190Y-80195725D02*
X59385713Y-80176678D01*
X59385713Y-80176678D02*
X59395237Y-80167154D01*
X59395237Y-80167154D02*
X59414285Y-80157630D01*
X59414285Y-80157630D02*
X59433332Y-80157630D01*
X59585714Y-80290963D02*
X59585714Y-80186201D01*
X59585714Y-80186201D02*
X59576190Y-80167154D01*
X59576190Y-80167154D02*
X59557142Y-80157630D01*
X59557142Y-80157630D02*
X59519047Y-80157630D01*
X59519047Y-80157630D02*
X59500000Y-80167154D01*
X59585714Y-80281440D02*
X59566666Y-80290963D01*
X59566666Y-80290963D02*
X59519047Y-80290963D01*
X59519047Y-80290963D02*
X59500000Y-80281440D01*
X59500000Y-80281440D02*
X59490476Y-80262392D01*
X59490476Y-80262392D02*
X59490476Y-80243344D01*
X59490476Y-80243344D02*
X59500000Y-80224297D01*
X59500000Y-80224297D02*
X59519047Y-80214773D01*
X59519047Y-80214773D02*
X59566666Y-80214773D01*
X59566666Y-80214773D02*
X59585714Y-80205249D01*
X59766666Y-80281440D02*
X59747618Y-80290963D01*
X59747618Y-80290963D02*
X59709523Y-80290963D01*
X59709523Y-80290963D02*
X59690475Y-80281440D01*
X59690475Y-80281440D02*
X59680952Y-80271916D01*
X59680952Y-80271916D02*
X59671428Y-80252868D01*
X59671428Y-80252868D02*
X59671428Y-80195725D01*
X59671428Y-80195725D02*
X59680952Y-80176678D01*
X59680952Y-80176678D02*
X59690475Y-80167154D01*
X59690475Y-80167154D02*
X59709523Y-80157630D01*
X59709523Y-80157630D02*
X59747618Y-80157630D01*
X59747618Y-80157630D02*
X59766666Y-80167154D01*
X59852381Y-80290963D02*
X59852381Y-80090963D01*
X59871428Y-80214773D02*
X59928571Y-80290963D01*
X59928571Y-80157630D02*
X59852381Y-80233820D01*
X60004762Y-80281440D02*
X60023809Y-80290963D01*
X60023809Y-80290963D02*
X60061905Y-80290963D01*
X60061905Y-80290963D02*
X60080952Y-80281440D01*
X60080952Y-80281440D02*
X60090476Y-80262392D01*
X60090476Y-80262392D02*
X60090476Y-80252868D01*
X60090476Y-80252868D02*
X60080952Y-80233820D01*
X60080952Y-80233820D02*
X60061905Y-80224297D01*
X60061905Y-80224297D02*
X60033333Y-80224297D01*
X60033333Y-80224297D02*
X60014286Y-80214773D01*
X60014286Y-80214773D02*
X60004762Y-80195725D01*
X60004762Y-80195725D02*
X60004762Y-80186201D01*
X60004762Y-80186201D02*
X60014286Y-80167154D01*
X60014286Y-80167154D02*
X60033333Y-80157630D01*
X60033333Y-80157630D02*
X60061905Y-80157630D01*
X60061905Y-80157630D02*
X60080952Y-80167154D01*
X15985715Y-59690963D02*
X15985715Y-59490963D01*
X16100000Y-59690963D02*
X16014286Y-59576678D01*
X16100000Y-59490963D02*
X15985715Y-59605249D01*
X16185715Y-59586201D02*
X16252381Y-59586201D01*
X16280953Y-59690963D02*
X16185715Y-59690963D01*
X16185715Y-59690963D02*
X16185715Y-59490963D01*
X16185715Y-59490963D02*
X16280953Y-59490963D01*
X16366667Y-59586201D02*
X16433333Y-59586201D01*
X16461905Y-59690963D02*
X16366667Y-59690963D01*
X16366667Y-59690963D02*
X16366667Y-59490963D01*
X16366667Y-59490963D02*
X16461905Y-59490963D01*
X16547619Y-59690963D02*
X16547619Y-59490963D01*
X16547619Y-59490963D02*
X16623809Y-59490963D01*
X16623809Y-59490963D02*
X16642857Y-59500487D01*
X16642857Y-59500487D02*
X16652380Y-59510011D01*
X16652380Y-59510011D02*
X16661904Y-59529059D01*
X16661904Y-59529059D02*
X16661904Y-59557630D01*
X16661904Y-59557630D02*
X16652380Y-59576678D01*
X16652380Y-59576678D02*
X16642857Y-59586201D01*
X16642857Y-59586201D02*
X16623809Y-59595725D01*
X16623809Y-59595725D02*
X16547619Y-59595725D01*
X16747619Y-59614773D02*
X16900000Y-59614773D01*
X17033333Y-59490963D02*
X17071428Y-59490963D01*
X17071428Y-59490963D02*
X17090476Y-59500487D01*
X17090476Y-59500487D02*
X17109523Y-59519535D01*
X17109523Y-59519535D02*
X17119047Y-59557630D01*
X17119047Y-59557630D02*
X17119047Y-59624297D01*
X17119047Y-59624297D02*
X17109523Y-59662392D01*
X17109523Y-59662392D02*
X17090476Y-59681440D01*
X17090476Y-59681440D02*
X17071428Y-59690963D01*
X17071428Y-59690963D02*
X17033333Y-59690963D01*
X17033333Y-59690963D02*
X17014285Y-59681440D01*
X17014285Y-59681440D02*
X16995238Y-59662392D01*
X16995238Y-59662392D02*
X16985714Y-59624297D01*
X16985714Y-59624297D02*
X16985714Y-59557630D01*
X16985714Y-59557630D02*
X16995238Y-59519535D01*
X16995238Y-59519535D02*
X17014285Y-59500487D01*
X17014285Y-59500487D02*
X17033333Y-59490963D01*
X17204762Y-59490963D02*
X17204762Y-59652868D01*
X17204762Y-59652868D02*
X17214285Y-59671916D01*
X17214285Y-59671916D02*
X17223809Y-59681440D01*
X17223809Y-59681440D02*
X17242857Y-59690963D01*
X17242857Y-59690963D02*
X17280952Y-59690963D01*
X17280952Y-59690963D02*
X17300000Y-59681440D01*
X17300000Y-59681440D02*
X17309523Y-59671916D01*
X17309523Y-59671916D02*
X17319047Y-59652868D01*
X17319047Y-59652868D02*
X17319047Y-59490963D01*
X17385714Y-59490963D02*
X17500000Y-59490963D01*
X17442857Y-59690963D02*
X17442857Y-59490963D01*
X17700000Y-59490963D02*
X17833333Y-59490963D01*
X17833333Y-59490963D02*
X17700000Y-59690963D01*
X17700000Y-59690963D02*
X17833333Y-59690963D01*
X17947619Y-59490963D02*
X17985714Y-59490963D01*
X17985714Y-59490963D02*
X18004762Y-59500487D01*
X18004762Y-59500487D02*
X18023809Y-59519535D01*
X18023809Y-59519535D02*
X18033333Y-59557630D01*
X18033333Y-59557630D02*
X18033333Y-59624297D01*
X18033333Y-59624297D02*
X18023809Y-59662392D01*
X18023809Y-59662392D02*
X18004762Y-59681440D01*
X18004762Y-59681440D02*
X17985714Y-59690963D01*
X17985714Y-59690963D02*
X17947619Y-59690963D01*
X17947619Y-59690963D02*
X17928571Y-59681440D01*
X17928571Y-59681440D02*
X17909524Y-59662392D01*
X17909524Y-59662392D02*
X17900000Y-59624297D01*
X17900000Y-59624297D02*
X17900000Y-59557630D01*
X17900000Y-59557630D02*
X17909524Y-59519535D01*
X17909524Y-59519535D02*
X17928571Y-59500487D01*
X17928571Y-59500487D02*
X17947619Y-59490963D01*
X18119048Y-59690963D02*
X18119048Y-59490963D01*
X18119048Y-59490963D02*
X18233333Y-59690963D01*
X18233333Y-59690963D02*
X18233333Y-59490963D01*
X18328572Y-59586201D02*
X18395238Y-59586201D01*
X18423810Y-59690963D02*
X18328572Y-59690963D01*
X18328572Y-59690963D02*
X18328572Y-59490963D01*
X18328572Y-59490963D02*
X18423810Y-59490963D01*
X16119047Y-60090963D02*
X16119047Y-59890963D01*
X16119047Y-59890963D02*
X16233332Y-60090963D01*
X16233332Y-60090963D02*
X16233332Y-59890963D01*
X16357142Y-60090963D02*
X16338094Y-60081440D01*
X16338094Y-60081440D02*
X16328571Y-60071916D01*
X16328571Y-60071916D02*
X16319047Y-60052868D01*
X16319047Y-60052868D02*
X16319047Y-59995725D01*
X16319047Y-59995725D02*
X16328571Y-59976678D01*
X16328571Y-59976678D02*
X16338094Y-59967154D01*
X16338094Y-59967154D02*
X16357142Y-59957630D01*
X16357142Y-59957630D02*
X16385713Y-59957630D01*
X16385713Y-59957630D02*
X16404761Y-59967154D01*
X16404761Y-59967154D02*
X16414285Y-59976678D01*
X16414285Y-59976678D02*
X16423809Y-59995725D01*
X16423809Y-59995725D02*
X16423809Y-60052868D01*
X16423809Y-60052868D02*
X16414285Y-60071916D01*
X16414285Y-60071916D02*
X16404761Y-60081440D01*
X16404761Y-60081440D02*
X16385713Y-60090963D01*
X16385713Y-60090963D02*
X16357142Y-60090963D01*
X16728570Y-59986201D02*
X16661904Y-59986201D01*
X16661904Y-60090963D02*
X16661904Y-59890963D01*
X16661904Y-59890963D02*
X16757142Y-59890963D01*
X16833333Y-60071916D02*
X16842856Y-60081440D01*
X16842856Y-60081440D02*
X16833333Y-60090963D01*
X16833333Y-60090963D02*
X16823809Y-60081440D01*
X16823809Y-60081440D02*
X16833333Y-60071916D01*
X16833333Y-60071916D02*
X16833333Y-60090963D01*
X17042856Y-60071916D02*
X17033332Y-60081440D01*
X17033332Y-60081440D02*
X17004761Y-60090963D01*
X17004761Y-60090963D02*
X16985713Y-60090963D01*
X16985713Y-60090963D02*
X16957142Y-60081440D01*
X16957142Y-60081440D02*
X16938094Y-60062392D01*
X16938094Y-60062392D02*
X16928571Y-60043344D01*
X16928571Y-60043344D02*
X16919047Y-60005249D01*
X16919047Y-60005249D02*
X16919047Y-59976678D01*
X16919047Y-59976678D02*
X16928571Y-59938582D01*
X16928571Y-59938582D02*
X16938094Y-59919535D01*
X16938094Y-59919535D02*
X16957142Y-59900487D01*
X16957142Y-59900487D02*
X16985713Y-59890963D01*
X16985713Y-59890963D02*
X17004761Y-59890963D01*
X17004761Y-59890963D02*
X17033332Y-59900487D01*
X17033332Y-59900487D02*
X17042856Y-59910011D01*
X17214285Y-59957630D02*
X17214285Y-60090963D01*
X17128571Y-59957630D02*
X17128571Y-60062392D01*
X17128571Y-60062392D02*
X17138094Y-60081440D01*
X17138094Y-60081440D02*
X17157142Y-60090963D01*
X17157142Y-60090963D02*
X17185713Y-60090963D01*
X17185713Y-60090963D02*
X17204761Y-60081440D01*
X17204761Y-60081440D02*
X17214285Y-60071916D01*
X17433332Y-59957630D02*
X17509523Y-59957630D01*
X17461904Y-59890963D02*
X17461904Y-60062392D01*
X17461904Y-60062392D02*
X17471427Y-60081440D01*
X17471427Y-60081440D02*
X17490475Y-60090963D01*
X17490475Y-60090963D02*
X17509523Y-60090963D01*
X17576190Y-60090963D02*
X17576190Y-59957630D01*
X17576190Y-59995725D02*
X17585713Y-59976678D01*
X17585713Y-59976678D02*
X17595237Y-59967154D01*
X17595237Y-59967154D02*
X17614285Y-59957630D01*
X17614285Y-59957630D02*
X17633332Y-59957630D01*
X17785714Y-60090963D02*
X17785714Y-59986201D01*
X17785714Y-59986201D02*
X17776190Y-59967154D01*
X17776190Y-59967154D02*
X17757142Y-59957630D01*
X17757142Y-59957630D02*
X17719047Y-59957630D01*
X17719047Y-59957630D02*
X17700000Y-59967154D01*
X17785714Y-60081440D02*
X17766666Y-60090963D01*
X17766666Y-60090963D02*
X17719047Y-60090963D01*
X17719047Y-60090963D02*
X17700000Y-60081440D01*
X17700000Y-60081440D02*
X17690476Y-60062392D01*
X17690476Y-60062392D02*
X17690476Y-60043344D01*
X17690476Y-60043344D02*
X17700000Y-60024297D01*
X17700000Y-60024297D02*
X17719047Y-60014773D01*
X17719047Y-60014773D02*
X17766666Y-60014773D01*
X17766666Y-60014773D02*
X17785714Y-60005249D01*
X17966666Y-60081440D02*
X17947618Y-60090963D01*
X17947618Y-60090963D02*
X17909523Y-60090963D01*
X17909523Y-60090963D02*
X17890475Y-60081440D01*
X17890475Y-60081440D02*
X17880952Y-60071916D01*
X17880952Y-60071916D02*
X17871428Y-60052868D01*
X17871428Y-60052868D02*
X17871428Y-59995725D01*
X17871428Y-59995725D02*
X17880952Y-59976678D01*
X17880952Y-59976678D02*
X17890475Y-59967154D01*
X17890475Y-59967154D02*
X17909523Y-59957630D01*
X17909523Y-59957630D02*
X17947618Y-59957630D01*
X17947618Y-59957630D02*
X17966666Y-59967154D01*
X18052381Y-60090963D02*
X18052381Y-59890963D01*
X18071428Y-60014773D02*
X18128571Y-60090963D01*
X18128571Y-59957630D02*
X18052381Y-60033820D01*
X18204762Y-60081440D02*
X18223809Y-60090963D01*
X18223809Y-60090963D02*
X18261905Y-60090963D01*
X18261905Y-60090963D02*
X18280952Y-60081440D01*
X18280952Y-60081440D02*
X18290476Y-60062392D01*
X18290476Y-60062392D02*
X18290476Y-60052868D01*
X18290476Y-60052868D02*
X18280952Y-60033820D01*
X18280952Y-60033820D02*
X18261905Y-60024297D01*
X18261905Y-60024297D02*
X18233333Y-60024297D01*
X18233333Y-60024297D02*
X18214286Y-60014773D01*
X18214286Y-60014773D02*
X18204762Y-59995725D01*
X18204762Y-59995725D02*
X18204762Y-59986201D01*
X18204762Y-59986201D02*
X18214286Y-59967154D01*
X18214286Y-59967154D02*
X18233333Y-59957630D01*
X18233333Y-59957630D02*
X18261905Y-59957630D01*
X18261905Y-59957630D02*
X18280952Y-59967154D01*
X20985715Y-59690963D02*
X20985715Y-59490963D01*
X21100000Y-59690963D02*
X21014286Y-59576678D01*
X21100000Y-59490963D02*
X20985715Y-59605249D01*
X21185715Y-59586201D02*
X21252381Y-59586201D01*
X21280953Y-59690963D02*
X21185715Y-59690963D01*
X21185715Y-59690963D02*
X21185715Y-59490963D01*
X21185715Y-59490963D02*
X21280953Y-59490963D01*
X21366667Y-59586201D02*
X21433333Y-59586201D01*
X21461905Y-59690963D02*
X21366667Y-59690963D01*
X21366667Y-59690963D02*
X21366667Y-59490963D01*
X21366667Y-59490963D02*
X21461905Y-59490963D01*
X21547619Y-59690963D02*
X21547619Y-59490963D01*
X21547619Y-59490963D02*
X21623809Y-59490963D01*
X21623809Y-59490963D02*
X21642857Y-59500487D01*
X21642857Y-59500487D02*
X21652380Y-59510011D01*
X21652380Y-59510011D02*
X21661904Y-59529059D01*
X21661904Y-59529059D02*
X21661904Y-59557630D01*
X21661904Y-59557630D02*
X21652380Y-59576678D01*
X21652380Y-59576678D02*
X21642857Y-59586201D01*
X21642857Y-59586201D02*
X21623809Y-59595725D01*
X21623809Y-59595725D02*
X21547619Y-59595725D01*
X21747619Y-59614773D02*
X21900000Y-59614773D01*
X22033333Y-59490963D02*
X22071428Y-59490963D01*
X22071428Y-59490963D02*
X22090476Y-59500487D01*
X22090476Y-59500487D02*
X22109523Y-59519535D01*
X22109523Y-59519535D02*
X22119047Y-59557630D01*
X22119047Y-59557630D02*
X22119047Y-59624297D01*
X22119047Y-59624297D02*
X22109523Y-59662392D01*
X22109523Y-59662392D02*
X22090476Y-59681440D01*
X22090476Y-59681440D02*
X22071428Y-59690963D01*
X22071428Y-59690963D02*
X22033333Y-59690963D01*
X22033333Y-59690963D02*
X22014285Y-59681440D01*
X22014285Y-59681440D02*
X21995238Y-59662392D01*
X21995238Y-59662392D02*
X21985714Y-59624297D01*
X21985714Y-59624297D02*
X21985714Y-59557630D01*
X21985714Y-59557630D02*
X21995238Y-59519535D01*
X21995238Y-59519535D02*
X22014285Y-59500487D01*
X22014285Y-59500487D02*
X22033333Y-59490963D01*
X22204762Y-59490963D02*
X22204762Y-59652868D01*
X22204762Y-59652868D02*
X22214285Y-59671916D01*
X22214285Y-59671916D02*
X22223809Y-59681440D01*
X22223809Y-59681440D02*
X22242857Y-59690963D01*
X22242857Y-59690963D02*
X22280952Y-59690963D01*
X22280952Y-59690963D02*
X22300000Y-59681440D01*
X22300000Y-59681440D02*
X22309523Y-59671916D01*
X22309523Y-59671916D02*
X22319047Y-59652868D01*
X22319047Y-59652868D02*
X22319047Y-59490963D01*
X22385714Y-59490963D02*
X22500000Y-59490963D01*
X22442857Y-59690963D02*
X22442857Y-59490963D01*
X22700000Y-59490963D02*
X22833333Y-59490963D01*
X22833333Y-59490963D02*
X22700000Y-59690963D01*
X22700000Y-59690963D02*
X22833333Y-59690963D01*
X22947619Y-59490963D02*
X22985714Y-59490963D01*
X22985714Y-59490963D02*
X23004762Y-59500487D01*
X23004762Y-59500487D02*
X23023809Y-59519535D01*
X23023809Y-59519535D02*
X23033333Y-59557630D01*
X23033333Y-59557630D02*
X23033333Y-59624297D01*
X23033333Y-59624297D02*
X23023809Y-59662392D01*
X23023809Y-59662392D02*
X23004762Y-59681440D01*
X23004762Y-59681440D02*
X22985714Y-59690963D01*
X22985714Y-59690963D02*
X22947619Y-59690963D01*
X22947619Y-59690963D02*
X22928571Y-59681440D01*
X22928571Y-59681440D02*
X22909524Y-59662392D01*
X22909524Y-59662392D02*
X22900000Y-59624297D01*
X22900000Y-59624297D02*
X22900000Y-59557630D01*
X22900000Y-59557630D02*
X22909524Y-59519535D01*
X22909524Y-59519535D02*
X22928571Y-59500487D01*
X22928571Y-59500487D02*
X22947619Y-59490963D01*
X23119048Y-59690963D02*
X23119048Y-59490963D01*
X23119048Y-59490963D02*
X23233333Y-59690963D01*
X23233333Y-59690963D02*
X23233333Y-59490963D01*
X23328572Y-59586201D02*
X23395238Y-59586201D01*
X23423810Y-59690963D02*
X23328572Y-59690963D01*
X23328572Y-59690963D02*
X23328572Y-59490963D01*
X23328572Y-59490963D02*
X23423810Y-59490963D01*
X21119047Y-60090963D02*
X21119047Y-59890963D01*
X21119047Y-59890963D02*
X21233332Y-60090963D01*
X21233332Y-60090963D02*
X21233332Y-59890963D01*
X21357142Y-60090963D02*
X21338094Y-60081440D01*
X21338094Y-60081440D02*
X21328571Y-60071916D01*
X21328571Y-60071916D02*
X21319047Y-60052868D01*
X21319047Y-60052868D02*
X21319047Y-59995725D01*
X21319047Y-59995725D02*
X21328571Y-59976678D01*
X21328571Y-59976678D02*
X21338094Y-59967154D01*
X21338094Y-59967154D02*
X21357142Y-59957630D01*
X21357142Y-59957630D02*
X21385713Y-59957630D01*
X21385713Y-59957630D02*
X21404761Y-59967154D01*
X21404761Y-59967154D02*
X21414285Y-59976678D01*
X21414285Y-59976678D02*
X21423809Y-59995725D01*
X21423809Y-59995725D02*
X21423809Y-60052868D01*
X21423809Y-60052868D02*
X21414285Y-60071916D01*
X21414285Y-60071916D02*
X21404761Y-60081440D01*
X21404761Y-60081440D02*
X21385713Y-60090963D01*
X21385713Y-60090963D02*
X21357142Y-60090963D01*
X21728570Y-59986201D02*
X21661904Y-59986201D01*
X21661904Y-60090963D02*
X21661904Y-59890963D01*
X21661904Y-59890963D02*
X21757142Y-59890963D01*
X21833333Y-60071916D02*
X21842856Y-60081440D01*
X21842856Y-60081440D02*
X21833333Y-60090963D01*
X21833333Y-60090963D02*
X21823809Y-60081440D01*
X21823809Y-60081440D02*
X21833333Y-60071916D01*
X21833333Y-60071916D02*
X21833333Y-60090963D01*
X22042856Y-60071916D02*
X22033332Y-60081440D01*
X22033332Y-60081440D02*
X22004761Y-60090963D01*
X22004761Y-60090963D02*
X21985713Y-60090963D01*
X21985713Y-60090963D02*
X21957142Y-60081440D01*
X21957142Y-60081440D02*
X21938094Y-60062392D01*
X21938094Y-60062392D02*
X21928571Y-60043344D01*
X21928571Y-60043344D02*
X21919047Y-60005249D01*
X21919047Y-60005249D02*
X21919047Y-59976678D01*
X21919047Y-59976678D02*
X21928571Y-59938582D01*
X21928571Y-59938582D02*
X21938094Y-59919535D01*
X21938094Y-59919535D02*
X21957142Y-59900487D01*
X21957142Y-59900487D02*
X21985713Y-59890963D01*
X21985713Y-59890963D02*
X22004761Y-59890963D01*
X22004761Y-59890963D02*
X22033332Y-59900487D01*
X22033332Y-59900487D02*
X22042856Y-59910011D01*
X22214285Y-59957630D02*
X22214285Y-60090963D01*
X22128571Y-59957630D02*
X22128571Y-60062392D01*
X22128571Y-60062392D02*
X22138094Y-60081440D01*
X22138094Y-60081440D02*
X22157142Y-60090963D01*
X22157142Y-60090963D02*
X22185713Y-60090963D01*
X22185713Y-60090963D02*
X22204761Y-60081440D01*
X22204761Y-60081440D02*
X22214285Y-60071916D01*
X22433332Y-59957630D02*
X22509523Y-59957630D01*
X22461904Y-59890963D02*
X22461904Y-60062392D01*
X22461904Y-60062392D02*
X22471427Y-60081440D01*
X22471427Y-60081440D02*
X22490475Y-60090963D01*
X22490475Y-60090963D02*
X22509523Y-60090963D01*
X22576190Y-60090963D02*
X22576190Y-59957630D01*
X22576190Y-59995725D02*
X22585713Y-59976678D01*
X22585713Y-59976678D02*
X22595237Y-59967154D01*
X22595237Y-59967154D02*
X22614285Y-59957630D01*
X22614285Y-59957630D02*
X22633332Y-59957630D01*
X22785714Y-60090963D02*
X22785714Y-59986201D01*
X22785714Y-59986201D02*
X22776190Y-59967154D01*
X22776190Y-59967154D02*
X22757142Y-59957630D01*
X22757142Y-59957630D02*
X22719047Y-59957630D01*
X22719047Y-59957630D02*
X22700000Y-59967154D01*
X22785714Y-60081440D02*
X22766666Y-60090963D01*
X22766666Y-60090963D02*
X22719047Y-60090963D01*
X22719047Y-60090963D02*
X22700000Y-60081440D01*
X22700000Y-60081440D02*
X22690476Y-60062392D01*
X22690476Y-60062392D02*
X22690476Y-60043344D01*
X22690476Y-60043344D02*
X22700000Y-60024297D01*
X22700000Y-60024297D02*
X22719047Y-60014773D01*
X22719047Y-60014773D02*
X22766666Y-60014773D01*
X22766666Y-60014773D02*
X22785714Y-60005249D01*
X22966666Y-60081440D02*
X22947618Y-60090963D01*
X22947618Y-60090963D02*
X22909523Y-60090963D01*
X22909523Y-60090963D02*
X22890475Y-60081440D01*
X22890475Y-60081440D02*
X22880952Y-60071916D01*
X22880952Y-60071916D02*
X22871428Y-60052868D01*
X22871428Y-60052868D02*
X22871428Y-59995725D01*
X22871428Y-59995725D02*
X22880952Y-59976678D01*
X22880952Y-59976678D02*
X22890475Y-59967154D01*
X22890475Y-59967154D02*
X22909523Y-59957630D01*
X22909523Y-59957630D02*
X22947618Y-59957630D01*
X22947618Y-59957630D02*
X22966666Y-59967154D01*
X23052381Y-60090963D02*
X23052381Y-59890963D01*
X23071428Y-60014773D02*
X23128571Y-60090963D01*
X23128571Y-59957630D02*
X23052381Y-60033820D01*
X23204762Y-60081440D02*
X23223809Y-60090963D01*
X23223809Y-60090963D02*
X23261905Y-60090963D01*
X23261905Y-60090963D02*
X23280952Y-60081440D01*
X23280952Y-60081440D02*
X23290476Y-60062392D01*
X23290476Y-60062392D02*
X23290476Y-60052868D01*
X23290476Y-60052868D02*
X23280952Y-60033820D01*
X23280952Y-60033820D02*
X23261905Y-60024297D01*
X23261905Y-60024297D02*
X23233333Y-60024297D01*
X23233333Y-60024297D02*
X23214286Y-60014773D01*
X23214286Y-60014773D02*
X23204762Y-59995725D01*
X23204762Y-59995725D02*
X23204762Y-59986201D01*
X23204762Y-59986201D02*
X23214286Y-59967154D01*
X23214286Y-59967154D02*
X23233333Y-59957630D01*
X23233333Y-59957630D02*
X23261905Y-59957630D01*
X23261905Y-59957630D02*
X23280952Y-59967154D01*
X6985715Y-68690963D02*
X6985715Y-68490963D01*
X7100000Y-68690963D02*
X7014286Y-68576678D01*
X7100000Y-68490963D02*
X6985715Y-68605249D01*
X7185715Y-68586201D02*
X7252381Y-68586201D01*
X7280953Y-68690963D02*
X7185715Y-68690963D01*
X7185715Y-68690963D02*
X7185715Y-68490963D01*
X7185715Y-68490963D02*
X7280953Y-68490963D01*
X7366667Y-68586201D02*
X7433333Y-68586201D01*
X7461905Y-68690963D02*
X7366667Y-68690963D01*
X7366667Y-68690963D02*
X7366667Y-68490963D01*
X7366667Y-68490963D02*
X7461905Y-68490963D01*
X7547619Y-68690963D02*
X7547619Y-68490963D01*
X7547619Y-68490963D02*
X7623809Y-68490963D01*
X7623809Y-68490963D02*
X7642857Y-68500487D01*
X7642857Y-68500487D02*
X7652380Y-68510011D01*
X7652380Y-68510011D02*
X7661904Y-68529059D01*
X7661904Y-68529059D02*
X7661904Y-68557630D01*
X7661904Y-68557630D02*
X7652380Y-68576678D01*
X7652380Y-68576678D02*
X7642857Y-68586201D01*
X7642857Y-68586201D02*
X7623809Y-68595725D01*
X7623809Y-68595725D02*
X7547619Y-68595725D01*
X7747619Y-68614773D02*
X7900000Y-68614773D01*
X8033333Y-68490963D02*
X8071428Y-68490963D01*
X8071428Y-68490963D02*
X8090476Y-68500487D01*
X8090476Y-68500487D02*
X8109523Y-68519535D01*
X8109523Y-68519535D02*
X8119047Y-68557630D01*
X8119047Y-68557630D02*
X8119047Y-68624297D01*
X8119047Y-68624297D02*
X8109523Y-68662392D01*
X8109523Y-68662392D02*
X8090476Y-68681440D01*
X8090476Y-68681440D02*
X8071428Y-68690963D01*
X8071428Y-68690963D02*
X8033333Y-68690963D01*
X8033333Y-68690963D02*
X8014285Y-68681440D01*
X8014285Y-68681440D02*
X7995238Y-68662392D01*
X7995238Y-68662392D02*
X7985714Y-68624297D01*
X7985714Y-68624297D02*
X7985714Y-68557630D01*
X7985714Y-68557630D02*
X7995238Y-68519535D01*
X7995238Y-68519535D02*
X8014285Y-68500487D01*
X8014285Y-68500487D02*
X8033333Y-68490963D01*
X8204762Y-68490963D02*
X8204762Y-68652868D01*
X8204762Y-68652868D02*
X8214285Y-68671916D01*
X8214285Y-68671916D02*
X8223809Y-68681440D01*
X8223809Y-68681440D02*
X8242857Y-68690963D01*
X8242857Y-68690963D02*
X8280952Y-68690963D01*
X8280952Y-68690963D02*
X8300000Y-68681440D01*
X8300000Y-68681440D02*
X8309523Y-68671916D01*
X8309523Y-68671916D02*
X8319047Y-68652868D01*
X8319047Y-68652868D02*
X8319047Y-68490963D01*
X8385714Y-68490963D02*
X8500000Y-68490963D01*
X8442857Y-68690963D02*
X8442857Y-68490963D01*
X8700000Y-68490963D02*
X8833333Y-68490963D01*
X8833333Y-68490963D02*
X8700000Y-68690963D01*
X8700000Y-68690963D02*
X8833333Y-68690963D01*
X8947619Y-68490963D02*
X8985714Y-68490963D01*
X8985714Y-68490963D02*
X9004762Y-68500487D01*
X9004762Y-68500487D02*
X9023809Y-68519535D01*
X9023809Y-68519535D02*
X9033333Y-68557630D01*
X9033333Y-68557630D02*
X9033333Y-68624297D01*
X9033333Y-68624297D02*
X9023809Y-68662392D01*
X9023809Y-68662392D02*
X9004762Y-68681440D01*
X9004762Y-68681440D02*
X8985714Y-68690963D01*
X8985714Y-68690963D02*
X8947619Y-68690963D01*
X8947619Y-68690963D02*
X8928571Y-68681440D01*
X8928571Y-68681440D02*
X8909524Y-68662392D01*
X8909524Y-68662392D02*
X8900000Y-68624297D01*
X8900000Y-68624297D02*
X8900000Y-68557630D01*
X8900000Y-68557630D02*
X8909524Y-68519535D01*
X8909524Y-68519535D02*
X8928571Y-68500487D01*
X8928571Y-68500487D02*
X8947619Y-68490963D01*
X9119048Y-68690963D02*
X9119048Y-68490963D01*
X9119048Y-68490963D02*
X9233333Y-68690963D01*
X9233333Y-68690963D02*
X9233333Y-68490963D01*
X9328572Y-68586201D02*
X9395238Y-68586201D01*
X9423810Y-68690963D02*
X9328572Y-68690963D01*
X9328572Y-68690963D02*
X9328572Y-68490963D01*
X9328572Y-68490963D02*
X9423810Y-68490963D01*
X7119047Y-69090963D02*
X7119047Y-68890963D01*
X7119047Y-68890963D02*
X7233332Y-69090963D01*
X7233332Y-69090963D02*
X7233332Y-68890963D01*
X7357142Y-69090963D02*
X7338094Y-69081440D01*
X7338094Y-69081440D02*
X7328571Y-69071916D01*
X7328571Y-69071916D02*
X7319047Y-69052868D01*
X7319047Y-69052868D02*
X7319047Y-68995725D01*
X7319047Y-68995725D02*
X7328571Y-68976678D01*
X7328571Y-68976678D02*
X7338094Y-68967154D01*
X7338094Y-68967154D02*
X7357142Y-68957630D01*
X7357142Y-68957630D02*
X7385713Y-68957630D01*
X7385713Y-68957630D02*
X7404761Y-68967154D01*
X7404761Y-68967154D02*
X7414285Y-68976678D01*
X7414285Y-68976678D02*
X7423809Y-68995725D01*
X7423809Y-68995725D02*
X7423809Y-69052868D01*
X7423809Y-69052868D02*
X7414285Y-69071916D01*
X7414285Y-69071916D02*
X7404761Y-69081440D01*
X7404761Y-69081440D02*
X7385713Y-69090963D01*
X7385713Y-69090963D02*
X7357142Y-69090963D01*
X7728570Y-68986201D02*
X7661904Y-68986201D01*
X7661904Y-69090963D02*
X7661904Y-68890963D01*
X7661904Y-68890963D02*
X7757142Y-68890963D01*
X7833333Y-69071916D02*
X7842856Y-69081440D01*
X7842856Y-69081440D02*
X7833333Y-69090963D01*
X7833333Y-69090963D02*
X7823809Y-69081440D01*
X7823809Y-69081440D02*
X7833333Y-69071916D01*
X7833333Y-69071916D02*
X7833333Y-69090963D01*
X8042856Y-69071916D02*
X8033332Y-69081440D01*
X8033332Y-69081440D02*
X8004761Y-69090963D01*
X8004761Y-69090963D02*
X7985713Y-69090963D01*
X7985713Y-69090963D02*
X7957142Y-69081440D01*
X7957142Y-69081440D02*
X7938094Y-69062392D01*
X7938094Y-69062392D02*
X7928571Y-69043344D01*
X7928571Y-69043344D02*
X7919047Y-69005249D01*
X7919047Y-69005249D02*
X7919047Y-68976678D01*
X7919047Y-68976678D02*
X7928571Y-68938582D01*
X7928571Y-68938582D02*
X7938094Y-68919535D01*
X7938094Y-68919535D02*
X7957142Y-68900487D01*
X7957142Y-68900487D02*
X7985713Y-68890963D01*
X7985713Y-68890963D02*
X8004761Y-68890963D01*
X8004761Y-68890963D02*
X8033332Y-68900487D01*
X8033332Y-68900487D02*
X8042856Y-68910011D01*
X8214285Y-68957630D02*
X8214285Y-69090963D01*
X8128571Y-68957630D02*
X8128571Y-69062392D01*
X8128571Y-69062392D02*
X8138094Y-69081440D01*
X8138094Y-69081440D02*
X8157142Y-69090963D01*
X8157142Y-69090963D02*
X8185713Y-69090963D01*
X8185713Y-69090963D02*
X8204761Y-69081440D01*
X8204761Y-69081440D02*
X8214285Y-69071916D01*
X8433332Y-68957630D02*
X8509523Y-68957630D01*
X8461904Y-68890963D02*
X8461904Y-69062392D01*
X8461904Y-69062392D02*
X8471427Y-69081440D01*
X8471427Y-69081440D02*
X8490475Y-69090963D01*
X8490475Y-69090963D02*
X8509523Y-69090963D01*
X8576190Y-69090963D02*
X8576190Y-68957630D01*
X8576190Y-68995725D02*
X8585713Y-68976678D01*
X8585713Y-68976678D02*
X8595237Y-68967154D01*
X8595237Y-68967154D02*
X8614285Y-68957630D01*
X8614285Y-68957630D02*
X8633332Y-68957630D01*
X8785714Y-69090963D02*
X8785714Y-68986201D01*
X8785714Y-68986201D02*
X8776190Y-68967154D01*
X8776190Y-68967154D02*
X8757142Y-68957630D01*
X8757142Y-68957630D02*
X8719047Y-68957630D01*
X8719047Y-68957630D02*
X8700000Y-68967154D01*
X8785714Y-69081440D02*
X8766666Y-69090963D01*
X8766666Y-69090963D02*
X8719047Y-69090963D01*
X8719047Y-69090963D02*
X8700000Y-69081440D01*
X8700000Y-69081440D02*
X8690476Y-69062392D01*
X8690476Y-69062392D02*
X8690476Y-69043344D01*
X8690476Y-69043344D02*
X8700000Y-69024297D01*
X8700000Y-69024297D02*
X8719047Y-69014773D01*
X8719047Y-69014773D02*
X8766666Y-69014773D01*
X8766666Y-69014773D02*
X8785714Y-69005249D01*
X8966666Y-69081440D02*
X8947618Y-69090963D01*
X8947618Y-69090963D02*
X8909523Y-69090963D01*
X8909523Y-69090963D02*
X8890475Y-69081440D01*
X8890475Y-69081440D02*
X8880952Y-69071916D01*
X8880952Y-69071916D02*
X8871428Y-69052868D01*
X8871428Y-69052868D02*
X8871428Y-68995725D01*
X8871428Y-68995725D02*
X8880952Y-68976678D01*
X8880952Y-68976678D02*
X8890475Y-68967154D01*
X8890475Y-68967154D02*
X8909523Y-68957630D01*
X8909523Y-68957630D02*
X8947618Y-68957630D01*
X8947618Y-68957630D02*
X8966666Y-68967154D01*
X9052381Y-69090963D02*
X9052381Y-68890963D01*
X9071428Y-69014773D02*
X9128571Y-69090963D01*
X9128571Y-68957630D02*
X9052381Y-69033820D01*
X9204762Y-69081440D02*
X9223809Y-69090963D01*
X9223809Y-69090963D02*
X9261905Y-69090963D01*
X9261905Y-69090963D02*
X9280952Y-69081440D01*
X9280952Y-69081440D02*
X9290476Y-69062392D01*
X9290476Y-69062392D02*
X9290476Y-69052868D01*
X9290476Y-69052868D02*
X9280952Y-69033820D01*
X9280952Y-69033820D02*
X9261905Y-69024297D01*
X9261905Y-69024297D02*
X9233333Y-69024297D01*
X9233333Y-69024297D02*
X9214286Y-69014773D01*
X9214286Y-69014773D02*
X9204762Y-68995725D01*
X9204762Y-68995725D02*
X9204762Y-68986201D01*
X9204762Y-68986201D02*
X9214286Y-68967154D01*
X9214286Y-68967154D02*
X9233333Y-68957630D01*
X9233333Y-68957630D02*
X9261905Y-68957630D01*
X9261905Y-68957630D02*
X9280952Y-68967154D01*
X11985715Y-68690963D02*
X11985715Y-68490963D01*
X12100000Y-68690963D02*
X12014286Y-68576678D01*
X12100000Y-68490963D02*
X11985715Y-68605249D01*
X12185715Y-68586201D02*
X12252381Y-68586201D01*
X12280953Y-68690963D02*
X12185715Y-68690963D01*
X12185715Y-68690963D02*
X12185715Y-68490963D01*
X12185715Y-68490963D02*
X12280953Y-68490963D01*
X12366667Y-68586201D02*
X12433333Y-68586201D01*
X12461905Y-68690963D02*
X12366667Y-68690963D01*
X12366667Y-68690963D02*
X12366667Y-68490963D01*
X12366667Y-68490963D02*
X12461905Y-68490963D01*
X12547619Y-68690963D02*
X12547619Y-68490963D01*
X12547619Y-68490963D02*
X12623809Y-68490963D01*
X12623809Y-68490963D02*
X12642857Y-68500487D01*
X12642857Y-68500487D02*
X12652380Y-68510011D01*
X12652380Y-68510011D02*
X12661904Y-68529059D01*
X12661904Y-68529059D02*
X12661904Y-68557630D01*
X12661904Y-68557630D02*
X12652380Y-68576678D01*
X12652380Y-68576678D02*
X12642857Y-68586201D01*
X12642857Y-68586201D02*
X12623809Y-68595725D01*
X12623809Y-68595725D02*
X12547619Y-68595725D01*
X12747619Y-68614773D02*
X12900000Y-68614773D01*
X13033333Y-68490963D02*
X13071428Y-68490963D01*
X13071428Y-68490963D02*
X13090476Y-68500487D01*
X13090476Y-68500487D02*
X13109523Y-68519535D01*
X13109523Y-68519535D02*
X13119047Y-68557630D01*
X13119047Y-68557630D02*
X13119047Y-68624297D01*
X13119047Y-68624297D02*
X13109523Y-68662392D01*
X13109523Y-68662392D02*
X13090476Y-68681440D01*
X13090476Y-68681440D02*
X13071428Y-68690963D01*
X13071428Y-68690963D02*
X13033333Y-68690963D01*
X13033333Y-68690963D02*
X13014285Y-68681440D01*
X13014285Y-68681440D02*
X12995238Y-68662392D01*
X12995238Y-68662392D02*
X12985714Y-68624297D01*
X12985714Y-68624297D02*
X12985714Y-68557630D01*
X12985714Y-68557630D02*
X12995238Y-68519535D01*
X12995238Y-68519535D02*
X13014285Y-68500487D01*
X13014285Y-68500487D02*
X13033333Y-68490963D01*
X13204762Y-68490963D02*
X13204762Y-68652868D01*
X13204762Y-68652868D02*
X13214285Y-68671916D01*
X13214285Y-68671916D02*
X13223809Y-68681440D01*
X13223809Y-68681440D02*
X13242857Y-68690963D01*
X13242857Y-68690963D02*
X13280952Y-68690963D01*
X13280952Y-68690963D02*
X13300000Y-68681440D01*
X13300000Y-68681440D02*
X13309523Y-68671916D01*
X13309523Y-68671916D02*
X13319047Y-68652868D01*
X13319047Y-68652868D02*
X13319047Y-68490963D01*
X13385714Y-68490963D02*
X13500000Y-68490963D01*
X13442857Y-68690963D02*
X13442857Y-68490963D01*
X13700000Y-68490963D02*
X13833333Y-68490963D01*
X13833333Y-68490963D02*
X13700000Y-68690963D01*
X13700000Y-68690963D02*
X13833333Y-68690963D01*
X13947619Y-68490963D02*
X13985714Y-68490963D01*
X13985714Y-68490963D02*
X14004762Y-68500487D01*
X14004762Y-68500487D02*
X14023809Y-68519535D01*
X14023809Y-68519535D02*
X14033333Y-68557630D01*
X14033333Y-68557630D02*
X14033333Y-68624297D01*
X14033333Y-68624297D02*
X14023809Y-68662392D01*
X14023809Y-68662392D02*
X14004762Y-68681440D01*
X14004762Y-68681440D02*
X13985714Y-68690963D01*
X13985714Y-68690963D02*
X13947619Y-68690963D01*
X13947619Y-68690963D02*
X13928571Y-68681440D01*
X13928571Y-68681440D02*
X13909524Y-68662392D01*
X13909524Y-68662392D02*
X13900000Y-68624297D01*
X13900000Y-68624297D02*
X13900000Y-68557630D01*
X13900000Y-68557630D02*
X13909524Y-68519535D01*
X13909524Y-68519535D02*
X13928571Y-68500487D01*
X13928571Y-68500487D02*
X13947619Y-68490963D01*
X14119048Y-68690963D02*
X14119048Y-68490963D01*
X14119048Y-68490963D02*
X14233333Y-68690963D01*
X14233333Y-68690963D02*
X14233333Y-68490963D01*
X14328572Y-68586201D02*
X14395238Y-68586201D01*
X14423810Y-68690963D02*
X14328572Y-68690963D01*
X14328572Y-68690963D02*
X14328572Y-68490963D01*
X14328572Y-68490963D02*
X14423810Y-68490963D01*
X12119047Y-69090963D02*
X12119047Y-68890963D01*
X12119047Y-68890963D02*
X12233332Y-69090963D01*
X12233332Y-69090963D02*
X12233332Y-68890963D01*
X12357142Y-69090963D02*
X12338094Y-69081440D01*
X12338094Y-69081440D02*
X12328571Y-69071916D01*
X12328571Y-69071916D02*
X12319047Y-69052868D01*
X12319047Y-69052868D02*
X12319047Y-68995725D01*
X12319047Y-68995725D02*
X12328571Y-68976678D01*
X12328571Y-68976678D02*
X12338094Y-68967154D01*
X12338094Y-68967154D02*
X12357142Y-68957630D01*
X12357142Y-68957630D02*
X12385713Y-68957630D01*
X12385713Y-68957630D02*
X12404761Y-68967154D01*
X12404761Y-68967154D02*
X12414285Y-68976678D01*
X12414285Y-68976678D02*
X12423809Y-68995725D01*
X12423809Y-68995725D02*
X12423809Y-69052868D01*
X12423809Y-69052868D02*
X12414285Y-69071916D01*
X12414285Y-69071916D02*
X12404761Y-69081440D01*
X12404761Y-69081440D02*
X12385713Y-69090963D01*
X12385713Y-69090963D02*
X12357142Y-69090963D01*
X12728570Y-68986201D02*
X12661904Y-68986201D01*
X12661904Y-69090963D02*
X12661904Y-68890963D01*
X12661904Y-68890963D02*
X12757142Y-68890963D01*
X12833333Y-69071916D02*
X12842856Y-69081440D01*
X12842856Y-69081440D02*
X12833333Y-69090963D01*
X12833333Y-69090963D02*
X12823809Y-69081440D01*
X12823809Y-69081440D02*
X12833333Y-69071916D01*
X12833333Y-69071916D02*
X12833333Y-69090963D01*
X13042856Y-69071916D02*
X13033332Y-69081440D01*
X13033332Y-69081440D02*
X13004761Y-69090963D01*
X13004761Y-69090963D02*
X12985713Y-69090963D01*
X12985713Y-69090963D02*
X12957142Y-69081440D01*
X12957142Y-69081440D02*
X12938094Y-69062392D01*
X12938094Y-69062392D02*
X12928571Y-69043344D01*
X12928571Y-69043344D02*
X12919047Y-69005249D01*
X12919047Y-69005249D02*
X12919047Y-68976678D01*
X12919047Y-68976678D02*
X12928571Y-68938582D01*
X12928571Y-68938582D02*
X12938094Y-68919535D01*
X12938094Y-68919535D02*
X12957142Y-68900487D01*
X12957142Y-68900487D02*
X12985713Y-68890963D01*
X12985713Y-68890963D02*
X13004761Y-68890963D01*
X13004761Y-68890963D02*
X13033332Y-68900487D01*
X13033332Y-68900487D02*
X13042856Y-68910011D01*
X13214285Y-68957630D02*
X13214285Y-69090963D01*
X13128571Y-68957630D02*
X13128571Y-69062392D01*
X13128571Y-69062392D02*
X13138094Y-69081440D01*
X13138094Y-69081440D02*
X13157142Y-69090963D01*
X13157142Y-69090963D02*
X13185713Y-69090963D01*
X13185713Y-69090963D02*
X13204761Y-69081440D01*
X13204761Y-69081440D02*
X13214285Y-69071916D01*
X13433332Y-68957630D02*
X13509523Y-68957630D01*
X13461904Y-68890963D02*
X13461904Y-69062392D01*
X13461904Y-69062392D02*
X13471427Y-69081440D01*
X13471427Y-69081440D02*
X13490475Y-69090963D01*
X13490475Y-69090963D02*
X13509523Y-69090963D01*
X13576190Y-69090963D02*
X13576190Y-68957630D01*
X13576190Y-68995725D02*
X13585713Y-68976678D01*
X13585713Y-68976678D02*
X13595237Y-68967154D01*
X13595237Y-68967154D02*
X13614285Y-68957630D01*
X13614285Y-68957630D02*
X13633332Y-68957630D01*
X13785714Y-69090963D02*
X13785714Y-68986201D01*
X13785714Y-68986201D02*
X13776190Y-68967154D01*
X13776190Y-68967154D02*
X13757142Y-68957630D01*
X13757142Y-68957630D02*
X13719047Y-68957630D01*
X13719047Y-68957630D02*
X13700000Y-68967154D01*
X13785714Y-69081440D02*
X13766666Y-69090963D01*
X13766666Y-69090963D02*
X13719047Y-69090963D01*
X13719047Y-69090963D02*
X13700000Y-69081440D01*
X13700000Y-69081440D02*
X13690476Y-69062392D01*
X13690476Y-69062392D02*
X13690476Y-69043344D01*
X13690476Y-69043344D02*
X13700000Y-69024297D01*
X13700000Y-69024297D02*
X13719047Y-69014773D01*
X13719047Y-69014773D02*
X13766666Y-69014773D01*
X13766666Y-69014773D02*
X13785714Y-69005249D01*
X13966666Y-69081440D02*
X13947618Y-69090963D01*
X13947618Y-69090963D02*
X13909523Y-69090963D01*
X13909523Y-69090963D02*
X13890475Y-69081440D01*
X13890475Y-69081440D02*
X13880952Y-69071916D01*
X13880952Y-69071916D02*
X13871428Y-69052868D01*
X13871428Y-69052868D02*
X13871428Y-68995725D01*
X13871428Y-68995725D02*
X13880952Y-68976678D01*
X13880952Y-68976678D02*
X13890475Y-68967154D01*
X13890475Y-68967154D02*
X13909523Y-68957630D01*
X13909523Y-68957630D02*
X13947618Y-68957630D01*
X13947618Y-68957630D02*
X13966666Y-68967154D01*
X14052381Y-69090963D02*
X14052381Y-68890963D01*
X14071428Y-69014773D02*
X14128571Y-69090963D01*
X14128571Y-68957630D02*
X14052381Y-69033820D01*
X14204762Y-69081440D02*
X14223809Y-69090963D01*
X14223809Y-69090963D02*
X14261905Y-69090963D01*
X14261905Y-69090963D02*
X14280952Y-69081440D01*
X14280952Y-69081440D02*
X14290476Y-69062392D01*
X14290476Y-69062392D02*
X14290476Y-69052868D01*
X14290476Y-69052868D02*
X14280952Y-69033820D01*
X14280952Y-69033820D02*
X14261905Y-69024297D01*
X14261905Y-69024297D02*
X14233333Y-69024297D01*
X14233333Y-69024297D02*
X14214286Y-69014773D01*
X14214286Y-69014773D02*
X14204762Y-68995725D01*
X14204762Y-68995725D02*
X14204762Y-68986201D01*
X14204762Y-68986201D02*
X14214286Y-68967154D01*
X14214286Y-68967154D02*
X14233333Y-68957630D01*
X14233333Y-68957630D02*
X14261905Y-68957630D01*
X14261905Y-68957630D02*
X14280952Y-68967154D01*
X15985715Y-77690963D02*
X15985715Y-77490963D01*
X16100000Y-77690963D02*
X16014286Y-77576678D01*
X16100000Y-77490963D02*
X15985715Y-77605249D01*
X16185715Y-77586201D02*
X16252381Y-77586201D01*
X16280953Y-77690963D02*
X16185715Y-77690963D01*
X16185715Y-77690963D02*
X16185715Y-77490963D01*
X16185715Y-77490963D02*
X16280953Y-77490963D01*
X16366667Y-77586201D02*
X16433333Y-77586201D01*
X16461905Y-77690963D02*
X16366667Y-77690963D01*
X16366667Y-77690963D02*
X16366667Y-77490963D01*
X16366667Y-77490963D02*
X16461905Y-77490963D01*
X16547619Y-77690963D02*
X16547619Y-77490963D01*
X16547619Y-77490963D02*
X16623809Y-77490963D01*
X16623809Y-77490963D02*
X16642857Y-77500487D01*
X16642857Y-77500487D02*
X16652380Y-77510011D01*
X16652380Y-77510011D02*
X16661904Y-77529059D01*
X16661904Y-77529059D02*
X16661904Y-77557630D01*
X16661904Y-77557630D02*
X16652380Y-77576678D01*
X16652380Y-77576678D02*
X16642857Y-77586201D01*
X16642857Y-77586201D02*
X16623809Y-77595725D01*
X16623809Y-77595725D02*
X16547619Y-77595725D01*
X16747619Y-77614773D02*
X16900000Y-77614773D01*
X17033333Y-77490963D02*
X17071428Y-77490963D01*
X17071428Y-77490963D02*
X17090476Y-77500487D01*
X17090476Y-77500487D02*
X17109523Y-77519535D01*
X17109523Y-77519535D02*
X17119047Y-77557630D01*
X17119047Y-77557630D02*
X17119047Y-77624297D01*
X17119047Y-77624297D02*
X17109523Y-77662392D01*
X17109523Y-77662392D02*
X17090476Y-77681440D01*
X17090476Y-77681440D02*
X17071428Y-77690963D01*
X17071428Y-77690963D02*
X17033333Y-77690963D01*
X17033333Y-77690963D02*
X17014285Y-77681440D01*
X17014285Y-77681440D02*
X16995238Y-77662392D01*
X16995238Y-77662392D02*
X16985714Y-77624297D01*
X16985714Y-77624297D02*
X16985714Y-77557630D01*
X16985714Y-77557630D02*
X16995238Y-77519535D01*
X16995238Y-77519535D02*
X17014285Y-77500487D01*
X17014285Y-77500487D02*
X17033333Y-77490963D01*
X17204762Y-77490963D02*
X17204762Y-77652868D01*
X17204762Y-77652868D02*
X17214285Y-77671916D01*
X17214285Y-77671916D02*
X17223809Y-77681440D01*
X17223809Y-77681440D02*
X17242857Y-77690963D01*
X17242857Y-77690963D02*
X17280952Y-77690963D01*
X17280952Y-77690963D02*
X17300000Y-77681440D01*
X17300000Y-77681440D02*
X17309523Y-77671916D01*
X17309523Y-77671916D02*
X17319047Y-77652868D01*
X17319047Y-77652868D02*
X17319047Y-77490963D01*
X17385714Y-77490963D02*
X17500000Y-77490963D01*
X17442857Y-77690963D02*
X17442857Y-77490963D01*
X17700000Y-77490963D02*
X17833333Y-77490963D01*
X17833333Y-77490963D02*
X17700000Y-77690963D01*
X17700000Y-77690963D02*
X17833333Y-77690963D01*
X17947619Y-77490963D02*
X17985714Y-77490963D01*
X17985714Y-77490963D02*
X18004762Y-77500487D01*
X18004762Y-77500487D02*
X18023809Y-77519535D01*
X18023809Y-77519535D02*
X18033333Y-77557630D01*
X18033333Y-77557630D02*
X18033333Y-77624297D01*
X18033333Y-77624297D02*
X18023809Y-77662392D01*
X18023809Y-77662392D02*
X18004762Y-77681440D01*
X18004762Y-77681440D02*
X17985714Y-77690963D01*
X17985714Y-77690963D02*
X17947619Y-77690963D01*
X17947619Y-77690963D02*
X17928571Y-77681440D01*
X17928571Y-77681440D02*
X17909524Y-77662392D01*
X17909524Y-77662392D02*
X17900000Y-77624297D01*
X17900000Y-77624297D02*
X17900000Y-77557630D01*
X17900000Y-77557630D02*
X17909524Y-77519535D01*
X17909524Y-77519535D02*
X17928571Y-77500487D01*
X17928571Y-77500487D02*
X17947619Y-77490963D01*
X18119048Y-77690963D02*
X18119048Y-77490963D01*
X18119048Y-77490963D02*
X18233333Y-77690963D01*
X18233333Y-77690963D02*
X18233333Y-77490963D01*
X18328572Y-77586201D02*
X18395238Y-77586201D01*
X18423810Y-77690963D02*
X18328572Y-77690963D01*
X18328572Y-77690963D02*
X18328572Y-77490963D01*
X18328572Y-77490963D02*
X18423810Y-77490963D01*
X16119047Y-78090963D02*
X16119047Y-77890963D01*
X16119047Y-77890963D02*
X16233332Y-78090963D01*
X16233332Y-78090963D02*
X16233332Y-77890963D01*
X16357142Y-78090963D02*
X16338094Y-78081440D01*
X16338094Y-78081440D02*
X16328571Y-78071916D01*
X16328571Y-78071916D02*
X16319047Y-78052868D01*
X16319047Y-78052868D02*
X16319047Y-77995725D01*
X16319047Y-77995725D02*
X16328571Y-77976678D01*
X16328571Y-77976678D02*
X16338094Y-77967154D01*
X16338094Y-77967154D02*
X16357142Y-77957630D01*
X16357142Y-77957630D02*
X16385713Y-77957630D01*
X16385713Y-77957630D02*
X16404761Y-77967154D01*
X16404761Y-77967154D02*
X16414285Y-77976678D01*
X16414285Y-77976678D02*
X16423809Y-77995725D01*
X16423809Y-77995725D02*
X16423809Y-78052868D01*
X16423809Y-78052868D02*
X16414285Y-78071916D01*
X16414285Y-78071916D02*
X16404761Y-78081440D01*
X16404761Y-78081440D02*
X16385713Y-78090963D01*
X16385713Y-78090963D02*
X16357142Y-78090963D01*
X16728570Y-77986201D02*
X16661904Y-77986201D01*
X16661904Y-78090963D02*
X16661904Y-77890963D01*
X16661904Y-77890963D02*
X16757142Y-77890963D01*
X16833333Y-78071916D02*
X16842856Y-78081440D01*
X16842856Y-78081440D02*
X16833333Y-78090963D01*
X16833333Y-78090963D02*
X16823809Y-78081440D01*
X16823809Y-78081440D02*
X16833333Y-78071916D01*
X16833333Y-78071916D02*
X16833333Y-78090963D01*
X17042856Y-78071916D02*
X17033332Y-78081440D01*
X17033332Y-78081440D02*
X17004761Y-78090963D01*
X17004761Y-78090963D02*
X16985713Y-78090963D01*
X16985713Y-78090963D02*
X16957142Y-78081440D01*
X16957142Y-78081440D02*
X16938094Y-78062392D01*
X16938094Y-78062392D02*
X16928571Y-78043344D01*
X16928571Y-78043344D02*
X16919047Y-78005249D01*
X16919047Y-78005249D02*
X16919047Y-77976678D01*
X16919047Y-77976678D02*
X16928571Y-77938582D01*
X16928571Y-77938582D02*
X16938094Y-77919535D01*
X16938094Y-77919535D02*
X16957142Y-77900487D01*
X16957142Y-77900487D02*
X16985713Y-77890963D01*
X16985713Y-77890963D02*
X17004761Y-77890963D01*
X17004761Y-77890963D02*
X17033332Y-77900487D01*
X17033332Y-77900487D02*
X17042856Y-77910011D01*
X17214285Y-77957630D02*
X17214285Y-78090963D01*
X17128571Y-77957630D02*
X17128571Y-78062392D01*
X17128571Y-78062392D02*
X17138094Y-78081440D01*
X17138094Y-78081440D02*
X17157142Y-78090963D01*
X17157142Y-78090963D02*
X17185713Y-78090963D01*
X17185713Y-78090963D02*
X17204761Y-78081440D01*
X17204761Y-78081440D02*
X17214285Y-78071916D01*
X17433332Y-77957630D02*
X17509523Y-77957630D01*
X17461904Y-77890963D02*
X17461904Y-78062392D01*
X17461904Y-78062392D02*
X17471427Y-78081440D01*
X17471427Y-78081440D02*
X17490475Y-78090963D01*
X17490475Y-78090963D02*
X17509523Y-78090963D01*
X17576190Y-78090963D02*
X17576190Y-77957630D01*
X17576190Y-77995725D02*
X17585713Y-77976678D01*
X17585713Y-77976678D02*
X17595237Y-77967154D01*
X17595237Y-77967154D02*
X17614285Y-77957630D01*
X17614285Y-77957630D02*
X17633332Y-77957630D01*
X17785714Y-78090963D02*
X17785714Y-77986201D01*
X17785714Y-77986201D02*
X17776190Y-77967154D01*
X17776190Y-77967154D02*
X17757142Y-77957630D01*
X17757142Y-77957630D02*
X17719047Y-77957630D01*
X17719047Y-77957630D02*
X17700000Y-77967154D01*
X17785714Y-78081440D02*
X17766666Y-78090963D01*
X17766666Y-78090963D02*
X17719047Y-78090963D01*
X17719047Y-78090963D02*
X17700000Y-78081440D01*
X17700000Y-78081440D02*
X17690476Y-78062392D01*
X17690476Y-78062392D02*
X17690476Y-78043344D01*
X17690476Y-78043344D02*
X17700000Y-78024297D01*
X17700000Y-78024297D02*
X17719047Y-78014773D01*
X17719047Y-78014773D02*
X17766666Y-78014773D01*
X17766666Y-78014773D02*
X17785714Y-78005249D01*
X17966666Y-78081440D02*
X17947618Y-78090963D01*
X17947618Y-78090963D02*
X17909523Y-78090963D01*
X17909523Y-78090963D02*
X17890475Y-78081440D01*
X17890475Y-78081440D02*
X17880952Y-78071916D01*
X17880952Y-78071916D02*
X17871428Y-78052868D01*
X17871428Y-78052868D02*
X17871428Y-77995725D01*
X17871428Y-77995725D02*
X17880952Y-77976678D01*
X17880952Y-77976678D02*
X17890475Y-77967154D01*
X17890475Y-77967154D02*
X17909523Y-77957630D01*
X17909523Y-77957630D02*
X17947618Y-77957630D01*
X17947618Y-77957630D02*
X17966666Y-77967154D01*
X18052381Y-78090963D02*
X18052381Y-77890963D01*
X18071428Y-78014773D02*
X18128571Y-78090963D01*
X18128571Y-77957630D02*
X18052381Y-78033820D01*
X18204762Y-78081440D02*
X18223809Y-78090963D01*
X18223809Y-78090963D02*
X18261905Y-78090963D01*
X18261905Y-78090963D02*
X18280952Y-78081440D01*
X18280952Y-78081440D02*
X18290476Y-78062392D01*
X18290476Y-78062392D02*
X18290476Y-78052868D01*
X18290476Y-78052868D02*
X18280952Y-78033820D01*
X18280952Y-78033820D02*
X18261905Y-78024297D01*
X18261905Y-78024297D02*
X18233333Y-78024297D01*
X18233333Y-78024297D02*
X18214286Y-78014773D01*
X18214286Y-78014773D02*
X18204762Y-77995725D01*
X18204762Y-77995725D02*
X18204762Y-77986201D01*
X18204762Y-77986201D02*
X18214286Y-77967154D01*
X18214286Y-77967154D02*
X18233333Y-77957630D01*
X18233333Y-77957630D02*
X18261905Y-77957630D01*
X18261905Y-77957630D02*
X18280952Y-77967154D01*
X20985715Y-77690963D02*
X20985715Y-77490963D01*
X21100000Y-77690963D02*
X21014286Y-77576678D01*
X21100000Y-77490963D02*
X20985715Y-77605249D01*
X21185715Y-77586201D02*
X21252381Y-77586201D01*
X21280953Y-77690963D02*
X21185715Y-77690963D01*
X21185715Y-77690963D02*
X21185715Y-77490963D01*
X21185715Y-77490963D02*
X21280953Y-77490963D01*
X21366667Y-77586201D02*
X21433333Y-77586201D01*
X21461905Y-77690963D02*
X21366667Y-77690963D01*
X21366667Y-77690963D02*
X21366667Y-77490963D01*
X21366667Y-77490963D02*
X21461905Y-77490963D01*
X21547619Y-77690963D02*
X21547619Y-77490963D01*
X21547619Y-77490963D02*
X21623809Y-77490963D01*
X21623809Y-77490963D02*
X21642857Y-77500487D01*
X21642857Y-77500487D02*
X21652380Y-77510011D01*
X21652380Y-77510011D02*
X21661904Y-77529059D01*
X21661904Y-77529059D02*
X21661904Y-77557630D01*
X21661904Y-77557630D02*
X21652380Y-77576678D01*
X21652380Y-77576678D02*
X21642857Y-77586201D01*
X21642857Y-77586201D02*
X21623809Y-77595725D01*
X21623809Y-77595725D02*
X21547619Y-77595725D01*
X21747619Y-77614773D02*
X21900000Y-77614773D01*
X22033333Y-77490963D02*
X22071428Y-77490963D01*
X22071428Y-77490963D02*
X22090476Y-77500487D01*
X22090476Y-77500487D02*
X22109523Y-77519535D01*
X22109523Y-77519535D02*
X22119047Y-77557630D01*
X22119047Y-77557630D02*
X22119047Y-77624297D01*
X22119047Y-77624297D02*
X22109523Y-77662392D01*
X22109523Y-77662392D02*
X22090476Y-77681440D01*
X22090476Y-77681440D02*
X22071428Y-77690963D01*
X22071428Y-77690963D02*
X22033333Y-77690963D01*
X22033333Y-77690963D02*
X22014285Y-77681440D01*
X22014285Y-77681440D02*
X21995238Y-77662392D01*
X21995238Y-77662392D02*
X21985714Y-77624297D01*
X21985714Y-77624297D02*
X21985714Y-77557630D01*
X21985714Y-77557630D02*
X21995238Y-77519535D01*
X21995238Y-77519535D02*
X22014285Y-77500487D01*
X22014285Y-77500487D02*
X22033333Y-77490963D01*
X22204762Y-77490963D02*
X22204762Y-77652868D01*
X22204762Y-77652868D02*
X22214285Y-77671916D01*
X22214285Y-77671916D02*
X22223809Y-77681440D01*
X22223809Y-77681440D02*
X22242857Y-77690963D01*
X22242857Y-77690963D02*
X22280952Y-77690963D01*
X22280952Y-77690963D02*
X22300000Y-77681440D01*
X22300000Y-77681440D02*
X22309523Y-77671916D01*
X22309523Y-77671916D02*
X22319047Y-77652868D01*
X22319047Y-77652868D02*
X22319047Y-77490963D01*
X22385714Y-77490963D02*
X22500000Y-77490963D01*
X22442857Y-77690963D02*
X22442857Y-77490963D01*
X22700000Y-77490963D02*
X22833333Y-77490963D01*
X22833333Y-77490963D02*
X22700000Y-77690963D01*
X22700000Y-77690963D02*
X22833333Y-77690963D01*
X22947619Y-77490963D02*
X22985714Y-77490963D01*
X22985714Y-77490963D02*
X23004762Y-77500487D01*
X23004762Y-77500487D02*
X23023809Y-77519535D01*
X23023809Y-77519535D02*
X23033333Y-77557630D01*
X23033333Y-77557630D02*
X23033333Y-77624297D01*
X23033333Y-77624297D02*
X23023809Y-77662392D01*
X23023809Y-77662392D02*
X23004762Y-77681440D01*
X23004762Y-77681440D02*
X22985714Y-77690963D01*
X22985714Y-77690963D02*
X22947619Y-77690963D01*
X22947619Y-77690963D02*
X22928571Y-77681440D01*
X22928571Y-77681440D02*
X22909524Y-77662392D01*
X22909524Y-77662392D02*
X22900000Y-77624297D01*
X22900000Y-77624297D02*
X22900000Y-77557630D01*
X22900000Y-77557630D02*
X22909524Y-77519535D01*
X22909524Y-77519535D02*
X22928571Y-77500487D01*
X22928571Y-77500487D02*
X22947619Y-77490963D01*
X23119048Y-77690963D02*
X23119048Y-77490963D01*
X23119048Y-77490963D02*
X23233333Y-77690963D01*
X23233333Y-77690963D02*
X23233333Y-77490963D01*
X23328572Y-77586201D02*
X23395238Y-77586201D01*
X23423810Y-77690963D02*
X23328572Y-77690963D01*
X23328572Y-77690963D02*
X23328572Y-77490963D01*
X23328572Y-77490963D02*
X23423810Y-77490963D01*
X21119047Y-78090963D02*
X21119047Y-77890963D01*
X21119047Y-77890963D02*
X21233332Y-78090963D01*
X21233332Y-78090963D02*
X21233332Y-77890963D01*
X21357142Y-78090963D02*
X21338094Y-78081440D01*
X21338094Y-78081440D02*
X21328571Y-78071916D01*
X21328571Y-78071916D02*
X21319047Y-78052868D01*
X21319047Y-78052868D02*
X21319047Y-77995725D01*
X21319047Y-77995725D02*
X21328571Y-77976678D01*
X21328571Y-77976678D02*
X21338094Y-77967154D01*
X21338094Y-77967154D02*
X21357142Y-77957630D01*
X21357142Y-77957630D02*
X21385713Y-77957630D01*
X21385713Y-77957630D02*
X21404761Y-77967154D01*
X21404761Y-77967154D02*
X21414285Y-77976678D01*
X21414285Y-77976678D02*
X21423809Y-77995725D01*
X21423809Y-77995725D02*
X21423809Y-78052868D01*
X21423809Y-78052868D02*
X21414285Y-78071916D01*
X21414285Y-78071916D02*
X21404761Y-78081440D01*
X21404761Y-78081440D02*
X21385713Y-78090963D01*
X21385713Y-78090963D02*
X21357142Y-78090963D01*
X21728570Y-77986201D02*
X21661904Y-77986201D01*
X21661904Y-78090963D02*
X21661904Y-77890963D01*
X21661904Y-77890963D02*
X21757142Y-77890963D01*
X21833333Y-78071916D02*
X21842856Y-78081440D01*
X21842856Y-78081440D02*
X21833333Y-78090963D01*
X21833333Y-78090963D02*
X21823809Y-78081440D01*
X21823809Y-78081440D02*
X21833333Y-78071916D01*
X21833333Y-78071916D02*
X21833333Y-78090963D01*
X22042856Y-78071916D02*
X22033332Y-78081440D01*
X22033332Y-78081440D02*
X22004761Y-78090963D01*
X22004761Y-78090963D02*
X21985713Y-78090963D01*
X21985713Y-78090963D02*
X21957142Y-78081440D01*
X21957142Y-78081440D02*
X21938094Y-78062392D01*
X21938094Y-78062392D02*
X21928571Y-78043344D01*
X21928571Y-78043344D02*
X21919047Y-78005249D01*
X21919047Y-78005249D02*
X21919047Y-77976678D01*
X21919047Y-77976678D02*
X21928571Y-77938582D01*
X21928571Y-77938582D02*
X21938094Y-77919535D01*
X21938094Y-77919535D02*
X21957142Y-77900487D01*
X21957142Y-77900487D02*
X21985713Y-77890963D01*
X21985713Y-77890963D02*
X22004761Y-77890963D01*
X22004761Y-77890963D02*
X22033332Y-77900487D01*
X22033332Y-77900487D02*
X22042856Y-77910011D01*
X22214285Y-77957630D02*
X22214285Y-78090963D01*
X22128571Y-77957630D02*
X22128571Y-78062392D01*
X22128571Y-78062392D02*
X22138094Y-78081440D01*
X22138094Y-78081440D02*
X22157142Y-78090963D01*
X22157142Y-78090963D02*
X22185713Y-78090963D01*
X22185713Y-78090963D02*
X22204761Y-78081440D01*
X22204761Y-78081440D02*
X22214285Y-78071916D01*
X22433332Y-77957630D02*
X22509523Y-77957630D01*
X22461904Y-77890963D02*
X22461904Y-78062392D01*
X22461904Y-78062392D02*
X22471427Y-78081440D01*
X22471427Y-78081440D02*
X22490475Y-78090963D01*
X22490475Y-78090963D02*
X22509523Y-78090963D01*
X22576190Y-78090963D02*
X22576190Y-77957630D01*
X22576190Y-77995725D02*
X22585713Y-77976678D01*
X22585713Y-77976678D02*
X22595237Y-77967154D01*
X22595237Y-77967154D02*
X22614285Y-77957630D01*
X22614285Y-77957630D02*
X22633332Y-77957630D01*
X22785714Y-78090963D02*
X22785714Y-77986201D01*
X22785714Y-77986201D02*
X22776190Y-77967154D01*
X22776190Y-77967154D02*
X22757142Y-77957630D01*
X22757142Y-77957630D02*
X22719047Y-77957630D01*
X22719047Y-77957630D02*
X22700000Y-77967154D01*
X22785714Y-78081440D02*
X22766666Y-78090963D01*
X22766666Y-78090963D02*
X22719047Y-78090963D01*
X22719047Y-78090963D02*
X22700000Y-78081440D01*
X22700000Y-78081440D02*
X22690476Y-78062392D01*
X22690476Y-78062392D02*
X22690476Y-78043344D01*
X22690476Y-78043344D02*
X22700000Y-78024297D01*
X22700000Y-78024297D02*
X22719047Y-78014773D01*
X22719047Y-78014773D02*
X22766666Y-78014773D01*
X22766666Y-78014773D02*
X22785714Y-78005249D01*
X22966666Y-78081440D02*
X22947618Y-78090963D01*
X22947618Y-78090963D02*
X22909523Y-78090963D01*
X22909523Y-78090963D02*
X22890475Y-78081440D01*
X22890475Y-78081440D02*
X22880952Y-78071916D01*
X22880952Y-78071916D02*
X22871428Y-78052868D01*
X22871428Y-78052868D02*
X22871428Y-77995725D01*
X22871428Y-77995725D02*
X22880952Y-77976678D01*
X22880952Y-77976678D02*
X22890475Y-77967154D01*
X22890475Y-77967154D02*
X22909523Y-77957630D01*
X22909523Y-77957630D02*
X22947618Y-77957630D01*
X22947618Y-77957630D02*
X22966666Y-77967154D01*
X23052381Y-78090963D02*
X23052381Y-77890963D01*
X23071428Y-78014773D02*
X23128571Y-78090963D01*
X23128571Y-77957630D02*
X23052381Y-78033820D01*
X23204762Y-78081440D02*
X23223809Y-78090963D01*
X23223809Y-78090963D02*
X23261905Y-78090963D01*
X23261905Y-78090963D02*
X23280952Y-78081440D01*
X23280952Y-78081440D02*
X23290476Y-78062392D01*
X23290476Y-78062392D02*
X23290476Y-78052868D01*
X23290476Y-78052868D02*
X23280952Y-78033820D01*
X23280952Y-78033820D02*
X23261905Y-78024297D01*
X23261905Y-78024297D02*
X23233333Y-78024297D01*
X23233333Y-78024297D02*
X23214286Y-78014773D01*
X23214286Y-78014773D02*
X23204762Y-77995725D01*
X23204762Y-77995725D02*
X23204762Y-77986201D01*
X23204762Y-77986201D02*
X23214286Y-77967154D01*
X23214286Y-77967154D02*
X23233333Y-77957630D01*
X23233333Y-77957630D02*
X23261905Y-77957630D01*
X23261905Y-77957630D02*
X23280952Y-77967154D01*
X56685715Y-65690963D02*
X56685715Y-65490963D01*
X56800000Y-65690963D02*
X56714286Y-65576678D01*
X56800000Y-65490963D02*
X56685715Y-65605249D01*
X56885715Y-65586201D02*
X56952381Y-65586201D01*
X56980953Y-65690963D02*
X56885715Y-65690963D01*
X56885715Y-65690963D02*
X56885715Y-65490963D01*
X56885715Y-65490963D02*
X56980953Y-65490963D01*
X57066667Y-65586201D02*
X57133333Y-65586201D01*
X57161905Y-65690963D02*
X57066667Y-65690963D01*
X57066667Y-65690963D02*
X57066667Y-65490963D01*
X57066667Y-65490963D02*
X57161905Y-65490963D01*
X57247619Y-65690963D02*
X57247619Y-65490963D01*
X57247619Y-65490963D02*
X57323809Y-65490963D01*
X57323809Y-65490963D02*
X57342857Y-65500487D01*
X57342857Y-65500487D02*
X57352380Y-65510011D01*
X57352380Y-65510011D02*
X57361904Y-65529059D01*
X57361904Y-65529059D02*
X57361904Y-65557630D01*
X57361904Y-65557630D02*
X57352380Y-65576678D01*
X57352380Y-65576678D02*
X57342857Y-65586201D01*
X57342857Y-65586201D02*
X57323809Y-65595725D01*
X57323809Y-65595725D02*
X57247619Y-65595725D01*
X57447619Y-65614773D02*
X57600000Y-65614773D01*
X57733333Y-65490963D02*
X57771428Y-65490963D01*
X57771428Y-65490963D02*
X57790476Y-65500487D01*
X57790476Y-65500487D02*
X57809523Y-65519535D01*
X57809523Y-65519535D02*
X57819047Y-65557630D01*
X57819047Y-65557630D02*
X57819047Y-65624297D01*
X57819047Y-65624297D02*
X57809523Y-65662392D01*
X57809523Y-65662392D02*
X57790476Y-65681440D01*
X57790476Y-65681440D02*
X57771428Y-65690963D01*
X57771428Y-65690963D02*
X57733333Y-65690963D01*
X57733333Y-65690963D02*
X57714285Y-65681440D01*
X57714285Y-65681440D02*
X57695238Y-65662392D01*
X57695238Y-65662392D02*
X57685714Y-65624297D01*
X57685714Y-65624297D02*
X57685714Y-65557630D01*
X57685714Y-65557630D02*
X57695238Y-65519535D01*
X57695238Y-65519535D02*
X57714285Y-65500487D01*
X57714285Y-65500487D02*
X57733333Y-65490963D01*
X57904762Y-65490963D02*
X57904762Y-65652868D01*
X57904762Y-65652868D02*
X57914285Y-65671916D01*
X57914285Y-65671916D02*
X57923809Y-65681440D01*
X57923809Y-65681440D02*
X57942857Y-65690963D01*
X57942857Y-65690963D02*
X57980952Y-65690963D01*
X57980952Y-65690963D02*
X58000000Y-65681440D01*
X58000000Y-65681440D02*
X58009523Y-65671916D01*
X58009523Y-65671916D02*
X58019047Y-65652868D01*
X58019047Y-65652868D02*
X58019047Y-65490963D01*
X58085714Y-65490963D02*
X58200000Y-65490963D01*
X58142857Y-65690963D02*
X58142857Y-65490963D01*
X58400000Y-65490963D02*
X58533333Y-65490963D01*
X58533333Y-65490963D02*
X58400000Y-65690963D01*
X58400000Y-65690963D02*
X58533333Y-65690963D01*
X58647619Y-65490963D02*
X58685714Y-65490963D01*
X58685714Y-65490963D02*
X58704762Y-65500487D01*
X58704762Y-65500487D02*
X58723809Y-65519535D01*
X58723809Y-65519535D02*
X58733333Y-65557630D01*
X58733333Y-65557630D02*
X58733333Y-65624297D01*
X58733333Y-65624297D02*
X58723809Y-65662392D01*
X58723809Y-65662392D02*
X58704762Y-65681440D01*
X58704762Y-65681440D02*
X58685714Y-65690963D01*
X58685714Y-65690963D02*
X58647619Y-65690963D01*
X58647619Y-65690963D02*
X58628571Y-65681440D01*
X58628571Y-65681440D02*
X58609524Y-65662392D01*
X58609524Y-65662392D02*
X58600000Y-65624297D01*
X58600000Y-65624297D02*
X58600000Y-65557630D01*
X58600000Y-65557630D02*
X58609524Y-65519535D01*
X58609524Y-65519535D02*
X58628571Y-65500487D01*
X58628571Y-65500487D02*
X58647619Y-65490963D01*
X58819048Y-65690963D02*
X58819048Y-65490963D01*
X58819048Y-65490963D02*
X58933333Y-65690963D01*
X58933333Y-65690963D02*
X58933333Y-65490963D01*
X59028572Y-65586201D02*
X59095238Y-65586201D01*
X59123810Y-65690963D02*
X59028572Y-65690963D01*
X59028572Y-65690963D02*
X59028572Y-65490963D01*
X59028572Y-65490963D02*
X59123810Y-65490963D01*
X56819047Y-66090963D02*
X56819047Y-65890963D01*
X56819047Y-65890963D02*
X56933332Y-66090963D01*
X56933332Y-66090963D02*
X56933332Y-65890963D01*
X57057142Y-66090963D02*
X57038094Y-66081440D01*
X57038094Y-66081440D02*
X57028571Y-66071916D01*
X57028571Y-66071916D02*
X57019047Y-66052868D01*
X57019047Y-66052868D02*
X57019047Y-65995725D01*
X57019047Y-65995725D02*
X57028571Y-65976678D01*
X57028571Y-65976678D02*
X57038094Y-65967154D01*
X57038094Y-65967154D02*
X57057142Y-65957630D01*
X57057142Y-65957630D02*
X57085713Y-65957630D01*
X57085713Y-65957630D02*
X57104761Y-65967154D01*
X57104761Y-65967154D02*
X57114285Y-65976678D01*
X57114285Y-65976678D02*
X57123809Y-65995725D01*
X57123809Y-65995725D02*
X57123809Y-66052868D01*
X57123809Y-66052868D02*
X57114285Y-66071916D01*
X57114285Y-66071916D02*
X57104761Y-66081440D01*
X57104761Y-66081440D02*
X57085713Y-66090963D01*
X57085713Y-66090963D02*
X57057142Y-66090963D01*
X57428570Y-65986201D02*
X57361904Y-65986201D01*
X57361904Y-66090963D02*
X57361904Y-65890963D01*
X57361904Y-65890963D02*
X57457142Y-65890963D01*
X57533333Y-66071916D02*
X57542856Y-66081440D01*
X57542856Y-66081440D02*
X57533333Y-66090963D01*
X57533333Y-66090963D02*
X57523809Y-66081440D01*
X57523809Y-66081440D02*
X57533333Y-66071916D01*
X57533333Y-66071916D02*
X57533333Y-66090963D01*
X57742856Y-66071916D02*
X57733332Y-66081440D01*
X57733332Y-66081440D02*
X57704761Y-66090963D01*
X57704761Y-66090963D02*
X57685713Y-66090963D01*
X57685713Y-66090963D02*
X57657142Y-66081440D01*
X57657142Y-66081440D02*
X57638094Y-66062392D01*
X57638094Y-66062392D02*
X57628571Y-66043344D01*
X57628571Y-66043344D02*
X57619047Y-66005249D01*
X57619047Y-66005249D02*
X57619047Y-65976678D01*
X57619047Y-65976678D02*
X57628571Y-65938582D01*
X57628571Y-65938582D02*
X57638094Y-65919535D01*
X57638094Y-65919535D02*
X57657142Y-65900487D01*
X57657142Y-65900487D02*
X57685713Y-65890963D01*
X57685713Y-65890963D02*
X57704761Y-65890963D01*
X57704761Y-65890963D02*
X57733332Y-65900487D01*
X57733332Y-65900487D02*
X57742856Y-65910011D01*
X57914285Y-65957630D02*
X57914285Y-66090963D01*
X57828571Y-65957630D02*
X57828571Y-66062392D01*
X57828571Y-66062392D02*
X57838094Y-66081440D01*
X57838094Y-66081440D02*
X57857142Y-66090963D01*
X57857142Y-66090963D02*
X57885713Y-66090963D01*
X57885713Y-66090963D02*
X57904761Y-66081440D01*
X57904761Y-66081440D02*
X57914285Y-66071916D01*
X58133332Y-65957630D02*
X58209523Y-65957630D01*
X58161904Y-65890963D02*
X58161904Y-66062392D01*
X58161904Y-66062392D02*
X58171427Y-66081440D01*
X58171427Y-66081440D02*
X58190475Y-66090963D01*
X58190475Y-66090963D02*
X58209523Y-66090963D01*
X58276190Y-66090963D02*
X58276190Y-65957630D01*
X58276190Y-65995725D02*
X58285713Y-65976678D01*
X58285713Y-65976678D02*
X58295237Y-65967154D01*
X58295237Y-65967154D02*
X58314285Y-65957630D01*
X58314285Y-65957630D02*
X58333332Y-65957630D01*
X58485714Y-66090963D02*
X58485714Y-65986201D01*
X58485714Y-65986201D02*
X58476190Y-65967154D01*
X58476190Y-65967154D02*
X58457142Y-65957630D01*
X58457142Y-65957630D02*
X58419047Y-65957630D01*
X58419047Y-65957630D02*
X58400000Y-65967154D01*
X58485714Y-66081440D02*
X58466666Y-66090963D01*
X58466666Y-66090963D02*
X58419047Y-66090963D01*
X58419047Y-66090963D02*
X58400000Y-66081440D01*
X58400000Y-66081440D02*
X58390476Y-66062392D01*
X58390476Y-66062392D02*
X58390476Y-66043344D01*
X58390476Y-66043344D02*
X58400000Y-66024297D01*
X58400000Y-66024297D02*
X58419047Y-66014773D01*
X58419047Y-66014773D02*
X58466666Y-66014773D01*
X58466666Y-66014773D02*
X58485714Y-66005249D01*
X58666666Y-66081440D02*
X58647618Y-66090963D01*
X58647618Y-66090963D02*
X58609523Y-66090963D01*
X58609523Y-66090963D02*
X58590475Y-66081440D01*
X58590475Y-66081440D02*
X58580952Y-66071916D01*
X58580952Y-66071916D02*
X58571428Y-66052868D01*
X58571428Y-66052868D02*
X58571428Y-65995725D01*
X58571428Y-65995725D02*
X58580952Y-65976678D01*
X58580952Y-65976678D02*
X58590475Y-65967154D01*
X58590475Y-65967154D02*
X58609523Y-65957630D01*
X58609523Y-65957630D02*
X58647618Y-65957630D01*
X58647618Y-65957630D02*
X58666666Y-65967154D01*
X58752381Y-66090963D02*
X58752381Y-65890963D01*
X58771428Y-66014773D02*
X58828571Y-66090963D01*
X58828571Y-65957630D02*
X58752381Y-66033820D01*
X58904762Y-66081440D02*
X58923809Y-66090963D01*
X58923809Y-66090963D02*
X58961905Y-66090963D01*
X58961905Y-66090963D02*
X58980952Y-66081440D01*
X58980952Y-66081440D02*
X58990476Y-66062392D01*
X58990476Y-66062392D02*
X58990476Y-66052868D01*
X58990476Y-66052868D02*
X58980952Y-66033820D01*
X58980952Y-66033820D02*
X58961905Y-66024297D01*
X58961905Y-66024297D02*
X58933333Y-66024297D01*
X58933333Y-66024297D02*
X58914286Y-66014773D01*
X58914286Y-66014773D02*
X58904762Y-65995725D01*
X58904762Y-65995725D02*
X58904762Y-65986201D01*
X58904762Y-65986201D02*
X58914286Y-65967154D01*
X58914286Y-65967154D02*
X58933333Y-65957630D01*
X58933333Y-65957630D02*
X58961905Y-65957630D01*
X58961905Y-65957630D02*
X58980952Y-65967154D01*
X61685715Y-65690963D02*
X61685715Y-65490963D01*
X61800000Y-65690963D02*
X61714286Y-65576678D01*
X61800000Y-65490963D02*
X61685715Y-65605249D01*
X61885715Y-65586201D02*
X61952381Y-65586201D01*
X61980953Y-65690963D02*
X61885715Y-65690963D01*
X61885715Y-65690963D02*
X61885715Y-65490963D01*
X61885715Y-65490963D02*
X61980953Y-65490963D01*
X62066667Y-65586201D02*
X62133333Y-65586201D01*
X62161905Y-65690963D02*
X62066667Y-65690963D01*
X62066667Y-65690963D02*
X62066667Y-65490963D01*
X62066667Y-65490963D02*
X62161905Y-65490963D01*
X62247619Y-65690963D02*
X62247619Y-65490963D01*
X62247619Y-65490963D02*
X62323809Y-65490963D01*
X62323809Y-65490963D02*
X62342857Y-65500487D01*
X62342857Y-65500487D02*
X62352380Y-65510011D01*
X62352380Y-65510011D02*
X62361904Y-65529059D01*
X62361904Y-65529059D02*
X62361904Y-65557630D01*
X62361904Y-65557630D02*
X62352380Y-65576678D01*
X62352380Y-65576678D02*
X62342857Y-65586201D01*
X62342857Y-65586201D02*
X62323809Y-65595725D01*
X62323809Y-65595725D02*
X62247619Y-65595725D01*
X62447619Y-65614773D02*
X62600000Y-65614773D01*
X62733333Y-65490963D02*
X62771428Y-65490963D01*
X62771428Y-65490963D02*
X62790476Y-65500487D01*
X62790476Y-65500487D02*
X62809523Y-65519535D01*
X62809523Y-65519535D02*
X62819047Y-65557630D01*
X62819047Y-65557630D02*
X62819047Y-65624297D01*
X62819047Y-65624297D02*
X62809523Y-65662392D01*
X62809523Y-65662392D02*
X62790476Y-65681440D01*
X62790476Y-65681440D02*
X62771428Y-65690963D01*
X62771428Y-65690963D02*
X62733333Y-65690963D01*
X62733333Y-65690963D02*
X62714285Y-65681440D01*
X62714285Y-65681440D02*
X62695238Y-65662392D01*
X62695238Y-65662392D02*
X62685714Y-65624297D01*
X62685714Y-65624297D02*
X62685714Y-65557630D01*
X62685714Y-65557630D02*
X62695238Y-65519535D01*
X62695238Y-65519535D02*
X62714285Y-65500487D01*
X62714285Y-65500487D02*
X62733333Y-65490963D01*
X62904762Y-65490963D02*
X62904762Y-65652868D01*
X62904762Y-65652868D02*
X62914285Y-65671916D01*
X62914285Y-65671916D02*
X62923809Y-65681440D01*
X62923809Y-65681440D02*
X62942857Y-65690963D01*
X62942857Y-65690963D02*
X62980952Y-65690963D01*
X62980952Y-65690963D02*
X63000000Y-65681440D01*
X63000000Y-65681440D02*
X63009523Y-65671916D01*
X63009523Y-65671916D02*
X63019047Y-65652868D01*
X63019047Y-65652868D02*
X63019047Y-65490963D01*
X63085714Y-65490963D02*
X63200000Y-65490963D01*
X63142857Y-65690963D02*
X63142857Y-65490963D01*
X63400000Y-65490963D02*
X63533333Y-65490963D01*
X63533333Y-65490963D02*
X63400000Y-65690963D01*
X63400000Y-65690963D02*
X63533333Y-65690963D01*
X63647619Y-65490963D02*
X63685714Y-65490963D01*
X63685714Y-65490963D02*
X63704762Y-65500487D01*
X63704762Y-65500487D02*
X63723809Y-65519535D01*
X63723809Y-65519535D02*
X63733333Y-65557630D01*
X63733333Y-65557630D02*
X63733333Y-65624297D01*
X63733333Y-65624297D02*
X63723809Y-65662392D01*
X63723809Y-65662392D02*
X63704762Y-65681440D01*
X63704762Y-65681440D02*
X63685714Y-65690963D01*
X63685714Y-65690963D02*
X63647619Y-65690963D01*
X63647619Y-65690963D02*
X63628571Y-65681440D01*
X63628571Y-65681440D02*
X63609524Y-65662392D01*
X63609524Y-65662392D02*
X63600000Y-65624297D01*
X63600000Y-65624297D02*
X63600000Y-65557630D01*
X63600000Y-65557630D02*
X63609524Y-65519535D01*
X63609524Y-65519535D02*
X63628571Y-65500487D01*
X63628571Y-65500487D02*
X63647619Y-65490963D01*
X63819048Y-65690963D02*
X63819048Y-65490963D01*
X63819048Y-65490963D02*
X63933333Y-65690963D01*
X63933333Y-65690963D02*
X63933333Y-65490963D01*
X64028572Y-65586201D02*
X64095238Y-65586201D01*
X64123810Y-65690963D02*
X64028572Y-65690963D01*
X64028572Y-65690963D02*
X64028572Y-65490963D01*
X64028572Y-65490963D02*
X64123810Y-65490963D01*
X61819047Y-66090963D02*
X61819047Y-65890963D01*
X61819047Y-65890963D02*
X61933332Y-66090963D01*
X61933332Y-66090963D02*
X61933332Y-65890963D01*
X62057142Y-66090963D02*
X62038094Y-66081440D01*
X62038094Y-66081440D02*
X62028571Y-66071916D01*
X62028571Y-66071916D02*
X62019047Y-66052868D01*
X62019047Y-66052868D02*
X62019047Y-65995725D01*
X62019047Y-65995725D02*
X62028571Y-65976678D01*
X62028571Y-65976678D02*
X62038094Y-65967154D01*
X62038094Y-65967154D02*
X62057142Y-65957630D01*
X62057142Y-65957630D02*
X62085713Y-65957630D01*
X62085713Y-65957630D02*
X62104761Y-65967154D01*
X62104761Y-65967154D02*
X62114285Y-65976678D01*
X62114285Y-65976678D02*
X62123809Y-65995725D01*
X62123809Y-65995725D02*
X62123809Y-66052868D01*
X62123809Y-66052868D02*
X62114285Y-66071916D01*
X62114285Y-66071916D02*
X62104761Y-66081440D01*
X62104761Y-66081440D02*
X62085713Y-66090963D01*
X62085713Y-66090963D02*
X62057142Y-66090963D01*
X62428570Y-65986201D02*
X62361904Y-65986201D01*
X62361904Y-66090963D02*
X62361904Y-65890963D01*
X62361904Y-65890963D02*
X62457142Y-65890963D01*
X62533333Y-66071916D02*
X62542856Y-66081440D01*
X62542856Y-66081440D02*
X62533333Y-66090963D01*
X62533333Y-66090963D02*
X62523809Y-66081440D01*
X62523809Y-66081440D02*
X62533333Y-66071916D01*
X62533333Y-66071916D02*
X62533333Y-66090963D01*
X62742856Y-66071916D02*
X62733332Y-66081440D01*
X62733332Y-66081440D02*
X62704761Y-66090963D01*
X62704761Y-66090963D02*
X62685713Y-66090963D01*
X62685713Y-66090963D02*
X62657142Y-66081440D01*
X62657142Y-66081440D02*
X62638094Y-66062392D01*
X62638094Y-66062392D02*
X62628571Y-66043344D01*
X62628571Y-66043344D02*
X62619047Y-66005249D01*
X62619047Y-66005249D02*
X62619047Y-65976678D01*
X62619047Y-65976678D02*
X62628571Y-65938582D01*
X62628571Y-65938582D02*
X62638094Y-65919535D01*
X62638094Y-65919535D02*
X62657142Y-65900487D01*
X62657142Y-65900487D02*
X62685713Y-65890963D01*
X62685713Y-65890963D02*
X62704761Y-65890963D01*
X62704761Y-65890963D02*
X62733332Y-65900487D01*
X62733332Y-65900487D02*
X62742856Y-65910011D01*
X62914285Y-65957630D02*
X62914285Y-66090963D01*
X62828571Y-65957630D02*
X62828571Y-66062392D01*
X62828571Y-66062392D02*
X62838094Y-66081440D01*
X62838094Y-66081440D02*
X62857142Y-66090963D01*
X62857142Y-66090963D02*
X62885713Y-66090963D01*
X62885713Y-66090963D02*
X62904761Y-66081440D01*
X62904761Y-66081440D02*
X62914285Y-66071916D01*
X63133332Y-65957630D02*
X63209523Y-65957630D01*
X63161904Y-65890963D02*
X63161904Y-66062392D01*
X63161904Y-66062392D02*
X63171427Y-66081440D01*
X63171427Y-66081440D02*
X63190475Y-66090963D01*
X63190475Y-66090963D02*
X63209523Y-66090963D01*
X63276190Y-66090963D02*
X63276190Y-65957630D01*
X63276190Y-65995725D02*
X63285713Y-65976678D01*
X63285713Y-65976678D02*
X63295237Y-65967154D01*
X63295237Y-65967154D02*
X63314285Y-65957630D01*
X63314285Y-65957630D02*
X63333332Y-65957630D01*
X63485714Y-66090963D02*
X63485714Y-65986201D01*
X63485714Y-65986201D02*
X63476190Y-65967154D01*
X63476190Y-65967154D02*
X63457142Y-65957630D01*
X63457142Y-65957630D02*
X63419047Y-65957630D01*
X63419047Y-65957630D02*
X63400000Y-65967154D01*
X63485714Y-66081440D02*
X63466666Y-66090963D01*
X63466666Y-66090963D02*
X63419047Y-66090963D01*
X63419047Y-66090963D02*
X63400000Y-66081440D01*
X63400000Y-66081440D02*
X63390476Y-66062392D01*
X63390476Y-66062392D02*
X63390476Y-66043344D01*
X63390476Y-66043344D02*
X63400000Y-66024297D01*
X63400000Y-66024297D02*
X63419047Y-66014773D01*
X63419047Y-66014773D02*
X63466666Y-66014773D01*
X63466666Y-66014773D02*
X63485714Y-66005249D01*
X63666666Y-66081440D02*
X63647618Y-66090963D01*
X63647618Y-66090963D02*
X63609523Y-66090963D01*
X63609523Y-66090963D02*
X63590475Y-66081440D01*
X63590475Y-66081440D02*
X63580952Y-66071916D01*
X63580952Y-66071916D02*
X63571428Y-66052868D01*
X63571428Y-66052868D02*
X63571428Y-65995725D01*
X63571428Y-65995725D02*
X63580952Y-65976678D01*
X63580952Y-65976678D02*
X63590475Y-65967154D01*
X63590475Y-65967154D02*
X63609523Y-65957630D01*
X63609523Y-65957630D02*
X63647618Y-65957630D01*
X63647618Y-65957630D02*
X63666666Y-65967154D01*
X63752381Y-66090963D02*
X63752381Y-65890963D01*
X63771428Y-66014773D02*
X63828571Y-66090963D01*
X63828571Y-65957630D02*
X63752381Y-66033820D01*
X63904762Y-66081440D02*
X63923809Y-66090963D01*
X63923809Y-66090963D02*
X63961905Y-66090963D01*
X63961905Y-66090963D02*
X63980952Y-66081440D01*
X63980952Y-66081440D02*
X63990476Y-66062392D01*
X63990476Y-66062392D02*
X63990476Y-66052868D01*
X63990476Y-66052868D02*
X63980952Y-66033820D01*
X63980952Y-66033820D02*
X63961905Y-66024297D01*
X63961905Y-66024297D02*
X63933333Y-66024297D01*
X63933333Y-66024297D02*
X63914286Y-66014773D01*
X63914286Y-66014773D02*
X63904762Y-65995725D01*
X63904762Y-65995725D02*
X63904762Y-65986201D01*
X63904762Y-65986201D02*
X63914286Y-65967154D01*
X63914286Y-65967154D02*
X63933333Y-65957630D01*
X63933333Y-65957630D02*
X63961905Y-65957630D01*
X63961905Y-65957630D02*
X63980952Y-65967154D01*
%TO.C,H1*%
D11*
X7200000Y-56000000D02*
G75*
G02*
X1800000Y-56000000I-2700000J0D01*
G01*
X1800000Y-56000000D02*
G75*
G02*
X7200000Y-56000000I2700000J0D01*
G01*
%TO.C,H2*%
X67700000Y-56000000D02*
G75*
G02*
X62300000Y-56000000I-2700000J0D01*
G01*
X62300000Y-56000000D02*
G75*
G02*
X67700000Y-56000000I2700000J0D01*
G01*
%TO.C,H3*%
X68700000Y-81000000D02*
G75*
G02*
X63300000Y-81000000I-2700000J0D01*
G01*
X63300000Y-81000000D02*
G75*
G02*
X68700000Y-81000000I2700000J0D01*
G01*
%TD*%
M02*
