%TF.GenerationSoftware,KiCad,Pcbnew,10.0.4*%
%TF.CreationDate,2026-08-01T20:17:51+02:00*%
%TF.ProjectId,pocket_card_controller,706f636b-6574-45f6-9361-72645f636f6e,rev?*%
%TF.SameCoordinates,Original*%
%TF.FileFunction,Paste,Top*%
%TF.FilePolarity,Positive*%
%FSLAX46Y46*%
G04 Gerber Fmt 4.6, Leading zero omitted, Abs format (unit mm)*
G04 Created by KiCad (PCBNEW 10.0.4) date 2026-08-01 20:17:51*
%MOMM*%
%LPD*%
G01*
G04 APERTURE LIST*
G04 Aperture macros list*
%AMRoundRect*
0 Rectangle with rounded corners*
0 $1 Rounding radius*
0 $2 $3 $4 $5 $6 $7 $8 $9 X,Y pos of 4 corners*
0 Add a 4 corners polygon primitive as box body*
4,1,4,$2,$3,$4,$5,$6,$7,$8,$9,$2,$3,0*
0 Add four circle primitives for the rounded corners*
1,1,$1+$1,$2,$3*
1,1,$1+$1,$4,$5*
1,1,$1+$1,$6,$7*
1,1,$1+$1,$8,$9*
0 Add four rect primitives between the rounded corners*
20,1,$1+$1,$2,$3,$4,$5,0*
20,1,$1+$1,$4,$5,$6,$7,0*
20,1,$1+$1,$6,$7,$8,$9,0*
20,1,$1+$1,$8,$9,$2,$3,0*%
G04 Aperture macros list end*
%ADD10R,1.800000X1.100000*%
%ADD11R,1.000000X0.800000*%
%ADD12R,0.700000X1.500000*%
%ADD13RoundRect,0.150000X-0.875000X-0.150000X0.875000X-0.150000X0.875000X0.150000X-0.875000X0.150000X0*%
G04 APERTURE END LIST*
D10*
%TO.C,SW_LEFT*%
X7600000Y-66950000D03*
X13800000Y-66950000D03*
X7600000Y-70650000D03*
X13800000Y-70650000D03*
%TD*%
D11*
%TO.C,SW_PWR*%
X16350000Y-86870000D03*
X16350000Y-89080000D03*
X23650000Y-86870000D03*
X23650000Y-89080000D03*
D12*
X17750000Y-86220000D03*
X20750000Y-86220000D03*
X22250000Y-86220000D03*
%TD*%
D10*
%TO.C,SW_ACTION*%
X74000000Y-59250000D03*
X80200000Y-59250000D03*
X74000000Y-62950000D03*
X80200000Y-62950000D03*
%TD*%
%TO.C,SW_MENU*%
X36500000Y-83550000D03*
X42700000Y-83550000D03*
X36500000Y-87250000D03*
X42700000Y-87250000D03*
%TD*%
%TO.C,SW_RIGHT*%
X25600000Y-66950000D03*
X31800000Y-66950000D03*
X25600000Y-70650000D03*
X31800000Y-70650000D03*
%TD*%
%TO.C,SW_DOWN*%
X16600000Y-75950000D03*
X22800000Y-75950000D03*
X16600000Y-79650000D03*
X22800000Y-79650000D03*
%TD*%
%TO.C,SW_RESET*%
X53400000Y-78150000D03*
X59600000Y-78150000D03*
X53400000Y-81850000D03*
X59600000Y-81850000D03*
%TD*%
%TO.C,SW_UP*%
X16600000Y-57950000D03*
X22800000Y-57950000D03*
X16600000Y-61650000D03*
X22800000Y-61650000D03*
%TD*%
D13*
%TO.C,U1*%
X40350000Y-63745000D03*
X40350000Y-65015000D03*
X40350000Y-66285000D03*
X40350000Y-67555000D03*
X40350000Y-68825000D03*
X40350000Y-70095000D03*
X40350000Y-71365000D03*
X40350000Y-72635000D03*
X40350000Y-73905000D03*
X40350000Y-75175000D03*
X40350000Y-76445000D03*
X40350000Y-77715000D03*
X40350000Y-78985000D03*
X40350000Y-80255000D03*
X49650000Y-80255000D03*
X49650000Y-78985000D03*
X49650000Y-77715000D03*
X49650000Y-76445000D03*
X49650000Y-75175000D03*
X49650000Y-73905000D03*
X49650000Y-72635000D03*
X49650000Y-71365000D03*
X49650000Y-70095000D03*
X49650000Y-68825000D03*
X49650000Y-67555000D03*
X49650000Y-66285000D03*
X49650000Y-65015000D03*
X49650000Y-63745000D03*
%TD*%
D10*
%TO.C,SW_UNDO*%
X57300000Y-63950000D03*
X63500000Y-63950000D03*
X57300000Y-67650000D03*
X63500000Y-67650000D03*
%TD*%
D11*
%TO.C,SW_MUTE*%
X54350000Y-86870000D03*
X54350000Y-89080000D03*
X61650000Y-86870000D03*
X61650000Y-89080000D03*
D12*
X55750000Y-86220000D03*
X58750000Y-86220000D03*
X60250000Y-86220000D03*
%TD*%
M02*
