%TF.GenerationSoftware,KiCad,Pcbnew,10.0.4*%
%TF.CreationDate,2026-08-06T03:25:46+02:00*%
%TF.ProjectId,pocket_card_controller,706f636b-6574-45f6-9361-72645f636f6e,rev?*%
%TF.SameCoordinates,Original*%
%TF.FileFunction,Legend,Bot*%
%TF.FilePolarity,Positive*%
%FSLAX46Y46*%
G04 Gerber Fmt 4.6, Leading zero omitted, Abs format (unit mm)*
G04 Created by KiCad (PCBNEW 10.0.4) date 2026-08-06 03:25:46*
%MOMM*%
%LPD*%
G01*
G04 APERTURE LIST*
G04 Aperture macros list*
%AMRoundRect*
0 Rectangle with rounded corners*
0 $1 Rounding radius*
0 $2 $3 $4 $5 $6 $7 $8 $9 X,Y pos of 4 corners*
0 Add a 4 corners polygon primitive as box body*
4,1,4,$2,$3,$4,$5,$6,$7,$8,$9,$2,$3,0*
0 Add four circle primitives for the rounded corners*
1,1,$1+$1,$2,$3*
1,1,$1+$1,$4,$5*
1,1,$1+$1,$6,$7*
1,1,$1+$1,$8,$9*
0 Add four rect primitives between the rounded corners*
20,1,$1+$1,$2,$3,$4,$5,0*
20,1,$1+$1,$4,$5,$6,$7,0*
20,1,$1+$1,$6,$7,$8,$9,0*
20,1,$1+$1,$8,$9,$2,$3,0*%
G04 Aperture macros list end*
%ADD10C,0.120000*%
%ADD11C,0.900000*%
%ADD12C,2.700000*%
%ADD13RoundRect,0.150000X-0.150000X-0.700000X0.150000X-0.700000X0.150000X0.700000X-0.150000X0.700000X0*%
%ADD14RoundRect,0.250000X-0.250000X-1.100000X0.250000X-1.100000X0.250000X1.100000X-0.250000X1.100000X0*%
G04 APERTURE END LIST*
G36*
X61450000Y-55450000D02*
G01*
X61650000Y-55450000D01*
X61650000Y-55500000D01*
X61450000Y-55500000D01*
X61450000Y-55450000D01*
G37*
G36*
X62000000Y-55450000D02*
G01*
X62250000Y-55450000D01*
X62250000Y-55500000D01*
X62000000Y-55500000D01*
X62000000Y-55450000D01*
G37*
G36*
X62000000Y-56150000D02*
G01*
X62250000Y-56150000D01*
X62250000Y-56200000D01*
X62000000Y-56200000D01*
X62000000Y-56150000D01*
G37*
G36*
X62700000Y-55450000D02*
G01*
X62900000Y-55450000D01*
X62900000Y-55500000D01*
X62700000Y-55500000D01*
X62700000Y-55450000D01*
G37*
G36*
X61450000Y-55500000D02*
G01*
X61700000Y-55500000D01*
X61700000Y-55550000D01*
X61450000Y-55550000D01*
X61450000Y-55500000D01*
G37*
G36*
X62000000Y-55500000D02*
G01*
X62050000Y-55500000D01*
X62050000Y-55550000D01*
X62000000Y-55550000D01*
X62000000Y-55500000D01*
G37*
G36*
X62000000Y-72050000D02*
G01*
X62050000Y-72050000D01*
X62050000Y-72150000D01*
X62000000Y-72150000D01*
X62000000Y-72050000D01*
G37*
G36*
X62250000Y-55500000D02*
G01*
X62350000Y-55500000D01*
X62350000Y-55550000D01*
X62250000Y-55550000D01*
X62250000Y-55500000D01*
G37*
G36*
X62250000Y-56100000D02*
G01*
X62350000Y-56100000D01*
X62350000Y-56150000D01*
X62250000Y-56150000D01*
X62250000Y-56100000D01*
G37*
G36*
X62250000Y-58700000D02*
G01*
X62350000Y-58700000D01*
X62350000Y-58750000D01*
X62250000Y-58750000D01*
X62250000Y-58700000D01*
G37*
G36*
X62250000Y-70900000D02*
G01*
X62350000Y-70900000D01*
X62350000Y-70950000D01*
X62250000Y-70950000D01*
X62250000Y-70900000D01*
G37*
G36*
X62250000Y-72250000D02*
G01*
X62350000Y-72250000D01*
X62350000Y-72300000D01*
X62250000Y-72300000D01*
X62250000Y-72250000D01*
G37*
G36*
X62650000Y-55500000D02*
G01*
X62750000Y-55500000D01*
X62750000Y-55550000D01*
X62650000Y-55550000D01*
X62650000Y-55500000D01*
G37*
G36*
X62650000Y-55750000D02*
G01*
X62750000Y-55750000D01*
X62750000Y-55850000D01*
X62650000Y-55850000D01*
X62650000Y-55750000D01*
G37*
G36*
X61450000Y-55550000D02*
G01*
X61550000Y-55550000D01*
X61550000Y-56150000D01*
X61450000Y-56150000D01*
X61450000Y-55550000D01*
G37*
G36*
X61600000Y-55550000D02*
G01*
X61700000Y-55550000D01*
X61700000Y-55600000D01*
X61600000Y-55600000D01*
X61600000Y-55550000D01*
G37*
G36*
X62300000Y-55550000D02*
G01*
X62400000Y-55550000D01*
X62400000Y-55650000D01*
X62300000Y-55650000D01*
X62300000Y-55550000D01*
G37*
G36*
X62300000Y-56000000D02*
G01*
X62400000Y-56000000D01*
X62400000Y-56100000D01*
X62300000Y-56100000D01*
X62300000Y-56000000D01*
G37*
G36*
X62300000Y-58450000D02*
G01*
X62400000Y-58450000D01*
X62400000Y-58500000D01*
X62300000Y-58500000D01*
X62300000Y-58450000D01*
G37*
G36*
X62300000Y-58650000D02*
G01*
X62400000Y-58650000D01*
X62400000Y-58700000D01*
X62300000Y-58700000D01*
X62300000Y-58650000D01*
G37*
G36*
X62300000Y-59200000D02*
G01*
X62400000Y-59200000D01*
X62400000Y-59250000D01*
X62300000Y-59250000D01*
X62300000Y-59200000D01*
G37*
G36*
X62300000Y-70950000D02*
G01*
X62400000Y-70950000D01*
X62400000Y-71000000D01*
X62300000Y-71000000D01*
X62300000Y-70950000D01*
G37*
G36*
X62300000Y-72000000D02*
G01*
X62400000Y-72000000D01*
X62400000Y-72050000D01*
X62300000Y-72050000D01*
X62300000Y-72000000D01*
G37*
G36*
X62300000Y-72200000D02*
G01*
X62400000Y-72200000D01*
X62400000Y-72250000D01*
X62300000Y-72250000D01*
X62300000Y-72200000D01*
G37*
G36*
X62600000Y-55550000D02*
G01*
X62700000Y-55550000D01*
X62700000Y-55750000D01*
X62600000Y-55750000D01*
X62600000Y-55550000D01*
G37*
G36*
X62350000Y-55650000D02*
G01*
X62400000Y-55650000D01*
X62400000Y-55700000D01*
X62350000Y-55700000D01*
X62350000Y-55650000D01*
G37*
G36*
X62350000Y-55950000D02*
G01*
X62400000Y-55950000D01*
X62400000Y-56000000D01*
X62350000Y-56000000D01*
X62350000Y-55950000D01*
G37*
G36*
X62350000Y-58500000D02*
G01*
X62400000Y-58500000D01*
X62400000Y-58650000D01*
X62350000Y-58650000D01*
X62350000Y-58500000D01*
G37*
G36*
X62350000Y-59050000D02*
G01*
X62400000Y-59050000D01*
X62400000Y-59200000D01*
X62350000Y-59200000D01*
X62350000Y-59050000D01*
G37*
G36*
X62350000Y-71000000D02*
G01*
X62400000Y-71000000D01*
X62400000Y-71150000D01*
X62350000Y-71150000D01*
X62350000Y-71000000D01*
G37*
G36*
X62350000Y-72050000D02*
G01*
X62400000Y-72050000D01*
X62400000Y-72200000D01*
X62350000Y-72200000D01*
X62350000Y-72050000D01*
G37*
G36*
X62350000Y-55700000D02*
G01*
X62450000Y-55700000D01*
X62450000Y-55950000D01*
X62350000Y-55950000D01*
X62350000Y-55700000D01*
G37*
G36*
X62700000Y-55850000D02*
G01*
X62800000Y-55850000D01*
X62800000Y-55950000D01*
X62700000Y-55950000D01*
X62700000Y-55850000D01*
G37*
G36*
X62750000Y-55950000D02*
G01*
X62850000Y-55950000D01*
X62850000Y-56000000D01*
X62750000Y-56000000D01*
X62750000Y-55950000D01*
G37*
G36*
X62800000Y-56000000D02*
G01*
X62900000Y-56000000D01*
X62900000Y-56050000D01*
X62800000Y-56050000D01*
X62800000Y-56000000D01*
G37*
G36*
X62850000Y-56050000D02*
G01*
X62900000Y-56050000D01*
X62900000Y-56100000D01*
X62850000Y-56100000D01*
X62850000Y-56050000D01*
G37*
G36*
X61950000Y-56100000D02*
G01*
X62050000Y-56100000D01*
X62050000Y-56150000D01*
X61950000Y-56150000D01*
X61950000Y-56100000D01*
G37*
G36*
X61350000Y-56150000D02*
G01*
X61700000Y-56150000D01*
X61700000Y-56200000D01*
X61350000Y-56200000D01*
X61350000Y-56150000D01*
G37*
G36*
X62600000Y-56150000D02*
G01*
X62900000Y-56150000D01*
X62900000Y-56200000D01*
X62600000Y-56200000D01*
X62600000Y-56150000D01*
G37*
G36*
X60500000Y-57750000D02*
G01*
X60550000Y-57750000D01*
X60550000Y-57800000D01*
X60500000Y-57800000D01*
X60500000Y-57750000D01*
G37*
G36*
X60500000Y-58600000D02*
G01*
X60550000Y-58600000D01*
X60550000Y-58750000D01*
X60500000Y-58750000D01*
X60500000Y-58600000D01*
G37*
G36*
X60500000Y-59100000D02*
G01*
X60550000Y-59100000D01*
X60550000Y-59300000D01*
X60500000Y-59300000D01*
X60500000Y-59100000D01*
G37*
G36*
X60500000Y-60200000D02*
G01*
X60550000Y-60200000D01*
X60550000Y-60250000D01*
X60500000Y-60250000D01*
X60500000Y-60200000D01*
G37*
G36*
X60500000Y-57800000D02*
G01*
X60700000Y-57800000D01*
X60700000Y-57850000D01*
X60500000Y-57850000D01*
X60500000Y-57800000D01*
G37*
G36*
X61750000Y-57800000D02*
G01*
X61800000Y-57800000D01*
X61800000Y-58100000D01*
X61750000Y-58100000D01*
X61750000Y-57800000D01*
G37*
G36*
X61750000Y-58500000D02*
G01*
X61800000Y-58500000D01*
X61800000Y-58650000D01*
X61750000Y-58650000D01*
X61750000Y-58500000D01*
G37*
G36*
X61750000Y-59100000D02*
G01*
X61800000Y-59100000D01*
X61800000Y-59300000D01*
X61750000Y-59300000D01*
X61750000Y-59100000D01*
G37*
G36*
X61750000Y-60250000D02*
G01*
X61800000Y-60250000D01*
X61800000Y-60450000D01*
X61750000Y-60450000D01*
X61750000Y-60250000D01*
G37*
G36*
X61750000Y-71000000D02*
G01*
X61800000Y-71000000D01*
X61800000Y-71150000D01*
X61750000Y-71150000D01*
X61750000Y-71000000D01*
G37*
G36*
X61750000Y-72050000D02*
G01*
X61800000Y-72050000D01*
X61800000Y-72200000D01*
X61750000Y-72200000D01*
X61750000Y-72050000D01*
G37*
G36*
X61750000Y-73150000D02*
G01*
X61800000Y-73150000D01*
X61800000Y-73500000D01*
X61750000Y-73500000D01*
X61750000Y-73150000D01*
G37*
G36*
X63150000Y-57800000D02*
G01*
X63500000Y-57800000D01*
X63500000Y-57850000D01*
X63150000Y-57850000D01*
X63150000Y-57800000D01*
G37*
G36*
X60650000Y-57850000D02*
G01*
X60850000Y-57850000D01*
X60850000Y-57900000D01*
X60650000Y-57900000D01*
X60650000Y-57850000D01*
G37*
G36*
X63100000Y-57850000D02*
G01*
X63250000Y-57850000D01*
X63250000Y-57900000D01*
X63100000Y-57900000D01*
X63100000Y-57850000D01*
G37*
G36*
X63100000Y-71950000D02*
G01*
X63250000Y-71950000D01*
X63250000Y-72000000D01*
X63100000Y-72000000D01*
X63100000Y-71950000D01*
G37*
G36*
X63400000Y-57850000D02*
G01*
X63550000Y-57850000D01*
X63550000Y-57900000D01*
X63400000Y-57900000D01*
X63400000Y-57850000D01*
G37*
G36*
X63400000Y-58650000D02*
G01*
X63550000Y-58650000D01*
X63550000Y-58700000D01*
X63400000Y-58700000D01*
X63400000Y-58650000D01*
G37*
G36*
X64350000Y-57850000D02*
G01*
X64500000Y-57850000D01*
X64500000Y-57900000D01*
X64350000Y-57900000D01*
X64350000Y-57850000D01*
G37*
G36*
X64350000Y-59000000D02*
G01*
X64500000Y-59000000D01*
X64500000Y-59050000D01*
X64350000Y-59050000D01*
X64350000Y-59000000D01*
G37*
G36*
X64650000Y-57850000D02*
G01*
X64800000Y-57850000D01*
X64800000Y-57900000D01*
X64650000Y-57900000D01*
X64650000Y-57850000D01*
G37*
G36*
X64650000Y-59000000D02*
G01*
X64800000Y-59000000D01*
X64800000Y-59050000D01*
X64650000Y-59050000D01*
X64650000Y-59000000D01*
G37*
G36*
X60750000Y-57900000D02*
G01*
X61000000Y-57900000D01*
X61000000Y-57950000D01*
X60750000Y-57950000D01*
X60750000Y-57900000D01*
G37*
G36*
X63050000Y-57900000D02*
G01*
X63150000Y-57900000D01*
X63150000Y-57950000D01*
X63050000Y-57950000D01*
X63050000Y-57900000D01*
G37*
G36*
X63050000Y-59250000D02*
G01*
X63150000Y-59250000D01*
X63150000Y-59300000D01*
X63050000Y-59300000D01*
X63050000Y-59250000D01*
G37*
G36*
X63050000Y-67900000D02*
G01*
X63150000Y-67900000D01*
X63150000Y-68600000D01*
X63050000Y-68600000D01*
X63050000Y-67900000D01*
G37*
G36*
X63500000Y-57900000D02*
G01*
X63600000Y-57900000D01*
X63600000Y-57950000D01*
X63500000Y-57950000D01*
X63500000Y-57900000D01*
G37*
G36*
X63500000Y-59250000D02*
G01*
X63600000Y-59250000D01*
X63600000Y-59300000D01*
X63500000Y-59300000D01*
X63500000Y-59250000D01*
G37*
G36*
X63500000Y-68200000D02*
G01*
X63600000Y-68200000D01*
X63600000Y-68300000D01*
X63500000Y-68300000D01*
X63500000Y-68200000D01*
G37*
G36*
X64300000Y-57900000D02*
G01*
X64400000Y-57900000D01*
X64400000Y-57950000D01*
X64300000Y-57950000D01*
X64300000Y-57900000D01*
G37*
G36*
X64300000Y-59050000D02*
G01*
X64400000Y-59050000D01*
X64400000Y-59100000D01*
X64300000Y-59100000D01*
X64300000Y-59050000D01*
G37*
G36*
X64450000Y-57900000D02*
G01*
X64550000Y-57900000D01*
X64550000Y-57950000D01*
X64450000Y-57950000D01*
X64450000Y-57900000D01*
G37*
G36*
X64450000Y-59050000D02*
G01*
X64550000Y-59050000D01*
X64550000Y-59100000D01*
X64450000Y-59100000D01*
X64450000Y-59050000D01*
G37*
G36*
X64450000Y-67900000D02*
G01*
X64550000Y-67900000D01*
X64550000Y-68200000D01*
X64450000Y-68200000D01*
X64450000Y-67900000D01*
G37*
G36*
X64450000Y-68250000D02*
G01*
X64550000Y-68250000D01*
X64550000Y-68550000D01*
X64450000Y-68550000D01*
X64450000Y-68250000D01*
G37*
G36*
X64600000Y-57900000D02*
G01*
X64850000Y-57900000D01*
X64850000Y-57950000D01*
X64600000Y-57950000D01*
X64600000Y-57900000D01*
G37*
G36*
X64600000Y-58750000D02*
G01*
X64850000Y-58750000D01*
X64850000Y-58800000D01*
X64600000Y-58800000D01*
X64600000Y-58750000D01*
G37*
G36*
X64600000Y-59050000D02*
G01*
X64850000Y-59050000D01*
X64850000Y-59100000D01*
X64600000Y-59100000D01*
X64600000Y-59050000D01*
G37*
G36*
X60750000Y-57950000D02*
G01*
X60800000Y-57950000D01*
X60800000Y-58100000D01*
X60750000Y-58100000D01*
X60750000Y-57950000D01*
G37*
G36*
X60950000Y-57950000D02*
G01*
X61150000Y-57950000D01*
X61150000Y-58000000D01*
X60950000Y-58000000D01*
X60950000Y-57950000D01*
G37*
G36*
X60950000Y-68400000D02*
G01*
X61150000Y-68400000D01*
X61150000Y-68450000D01*
X60950000Y-68450000D01*
X60950000Y-68400000D01*
G37*
G36*
X63000000Y-57950000D02*
G01*
X63100000Y-57950000D01*
X63100000Y-58000000D01*
X63000000Y-58000000D01*
X63000000Y-57950000D01*
G37*
G36*
X63000000Y-59200000D02*
G01*
X63100000Y-59200000D01*
X63100000Y-59250000D01*
X63000000Y-59250000D01*
X63000000Y-59200000D01*
G37*
G36*
X63000000Y-72050000D02*
G01*
X63100000Y-72050000D01*
X63100000Y-72100000D01*
X63000000Y-72100000D01*
X63000000Y-72050000D01*
G37*
G36*
X63550000Y-57950000D02*
G01*
X63650000Y-57950000D01*
X63650000Y-58000000D01*
X63550000Y-58000000D01*
X63550000Y-57950000D01*
G37*
G36*
X63550000Y-59000000D02*
G01*
X63650000Y-59000000D01*
X63650000Y-59050000D01*
X63550000Y-59050000D01*
X63550000Y-59000000D01*
G37*
G36*
X63550000Y-59200000D02*
G01*
X63650000Y-59200000D01*
X63650000Y-59250000D01*
X63550000Y-59250000D01*
X63550000Y-59200000D01*
G37*
G36*
X63550000Y-68050000D02*
G01*
X63650000Y-68050000D01*
X63650000Y-68150000D01*
X63550000Y-68150000D01*
X63550000Y-68050000D01*
G37*
G36*
X63550000Y-72050000D02*
G01*
X63650000Y-72050000D01*
X63650000Y-72100000D01*
X63550000Y-72100000D01*
X63550000Y-72050000D01*
G37*
G36*
X64250000Y-57950000D02*
G01*
X64350000Y-57950000D01*
X64350000Y-58000000D01*
X64250000Y-58000000D01*
X64250000Y-57950000D01*
G37*
G36*
X64250000Y-59100000D02*
G01*
X64350000Y-59100000D01*
X64350000Y-59150000D01*
X64250000Y-59150000D01*
X64250000Y-59100000D01*
G37*
G36*
X64500000Y-57950000D02*
G01*
X64650000Y-57950000D01*
X64650000Y-58000000D01*
X64500000Y-58000000D01*
X64500000Y-57950000D01*
G37*
G36*
X64500000Y-59100000D02*
G01*
X64650000Y-59100000D01*
X64650000Y-59150000D01*
X64500000Y-59150000D01*
X64500000Y-59100000D01*
G37*
G36*
X64800000Y-57950000D02*
G01*
X64900000Y-57950000D01*
X64900000Y-58000000D01*
X64800000Y-58000000D01*
X64800000Y-57950000D01*
G37*
G36*
X64800000Y-59100000D02*
G01*
X64900000Y-59100000D01*
X64900000Y-59150000D01*
X64800000Y-59150000D01*
X64800000Y-59100000D01*
G37*
G36*
X61000000Y-58000000D02*
G01*
X61150000Y-58000000D01*
X61150000Y-58050000D01*
X61000000Y-58050000D01*
X61000000Y-58000000D01*
G37*
G36*
X63000000Y-58000000D02*
G01*
X63050000Y-58000000D01*
X63050000Y-58150000D01*
X63000000Y-58150000D01*
X63000000Y-58000000D01*
G37*
G36*
X63000000Y-59050000D02*
G01*
X63050000Y-59050000D01*
X63050000Y-59200000D01*
X63000000Y-59200000D01*
X63000000Y-59050000D01*
G37*
G36*
X63000000Y-60150000D02*
G01*
X63050000Y-60150000D01*
X63050000Y-60500000D01*
X63000000Y-60500000D01*
X63000000Y-60150000D01*
G37*
G36*
X63000000Y-71350000D02*
G01*
X63050000Y-71350000D01*
X63050000Y-71400000D01*
X63000000Y-71400000D01*
X63000000Y-71350000D01*
G37*
G36*
X63000000Y-72100000D02*
G01*
X63050000Y-72100000D01*
X63050000Y-72300000D01*
X63000000Y-72300000D01*
X63000000Y-72100000D01*
G37*
G36*
X63000000Y-73150000D02*
G01*
X63050000Y-73150000D01*
X63050000Y-73450000D01*
X63000000Y-73450000D01*
X63000000Y-73150000D01*
G37*
G36*
X63600000Y-58000000D02*
G01*
X63650000Y-58000000D01*
X63650000Y-58150000D01*
X63600000Y-58150000D01*
X63600000Y-58000000D01*
G37*
G36*
X63600000Y-59050000D02*
G01*
X63650000Y-59050000D01*
X63650000Y-59200000D01*
X63600000Y-59200000D01*
X63600000Y-59050000D01*
G37*
G36*
X63600000Y-68000000D02*
G01*
X63650000Y-68000000D01*
X63650000Y-68050000D01*
X63600000Y-68050000D01*
X63600000Y-68000000D01*
G37*
G36*
X63600000Y-70750000D02*
G01*
X63650000Y-70750000D01*
X63650000Y-71000000D01*
X63600000Y-71000000D01*
X63600000Y-70750000D01*
G37*
G36*
X63600000Y-71050000D02*
G01*
X63650000Y-71050000D01*
X63650000Y-71250000D01*
X63600000Y-71250000D01*
X63600000Y-71050000D01*
G37*
G36*
X63600000Y-72100000D02*
G01*
X63650000Y-72100000D01*
X63650000Y-72300000D01*
X63600000Y-72300000D01*
X63600000Y-72100000D01*
G37*
G36*
X64250000Y-58000000D02*
G01*
X64300000Y-58000000D01*
X64300000Y-58150000D01*
X64250000Y-58150000D01*
X64250000Y-58000000D01*
G37*
G36*
X64250000Y-59150000D02*
G01*
X64300000Y-59150000D01*
X64300000Y-59300000D01*
X64250000Y-59300000D01*
X64250000Y-59150000D01*
G37*
G36*
X64250000Y-60150000D02*
G01*
X64300000Y-60150000D01*
X64300000Y-60450000D01*
X64250000Y-60450000D01*
X64250000Y-60150000D01*
G37*
G36*
X64550000Y-58000000D02*
G01*
X64600000Y-58000000D01*
X64600000Y-58100000D01*
X64550000Y-58100000D01*
X64550000Y-58000000D01*
G37*
G36*
X64550000Y-59150000D02*
G01*
X64600000Y-59150000D01*
X64600000Y-59250000D01*
X64550000Y-59250000D01*
X64550000Y-59150000D01*
G37*
G36*
X64850000Y-58000000D02*
G01*
X64900000Y-58000000D01*
X64900000Y-58150000D01*
X64850000Y-58150000D01*
X64850000Y-58000000D01*
G37*
G36*
X64850000Y-58350000D02*
G01*
X64900000Y-58350000D01*
X64900000Y-58400000D01*
X64850000Y-58400000D01*
X64850000Y-58350000D01*
G37*
G36*
X64850000Y-59150000D02*
G01*
X64900000Y-59150000D01*
X64900000Y-59300000D01*
X64850000Y-59300000D01*
X64850000Y-59150000D01*
G37*
G36*
X60850000Y-58050000D02*
G01*
X61100000Y-58050000D01*
X61100000Y-58100000D01*
X60850000Y-58100000D01*
X60850000Y-58050000D01*
G37*
G36*
X60850000Y-59250000D02*
G01*
X61100000Y-59250000D01*
X61100000Y-59300000D01*
X60850000Y-59300000D01*
X60850000Y-59250000D01*
G37*
G36*
X76450000Y-58050000D02*
G01*
X76650000Y-58050000D01*
X76650000Y-58100000D01*
X76450000Y-58100000D01*
X76450000Y-58050000D01*
G37*
G36*
X77050000Y-58050000D02*
G01*
X77350000Y-58050000D01*
X77350000Y-58100000D01*
X77050000Y-58100000D01*
X77050000Y-58050000D01*
G37*
G36*
X77050000Y-58400000D02*
G01*
X77350000Y-58400000D01*
X77350000Y-58450000D01*
X77050000Y-58450000D01*
X77050000Y-58400000D01*
G37*
G36*
X77500000Y-58050000D02*
G01*
X77600000Y-58050000D01*
X77600000Y-58100000D01*
X77500000Y-58100000D01*
X77500000Y-58050000D01*
G37*
G36*
X77500000Y-58750000D02*
G01*
X77600000Y-58750000D01*
X77600000Y-58800000D01*
X77500000Y-58800000D01*
X77500000Y-58750000D01*
G37*
G36*
X77950000Y-58050000D02*
G01*
X78050000Y-58050000D01*
X78050000Y-58100000D01*
X77950000Y-58100000D01*
X77950000Y-58050000D01*
G37*
G36*
X77950000Y-58750000D02*
G01*
X78050000Y-58750000D01*
X78050000Y-58800000D01*
X77950000Y-58800000D01*
X77950000Y-58750000D01*
G37*
G36*
X78250000Y-58050000D02*
G01*
X78600000Y-58050000D01*
X78600000Y-58100000D01*
X78250000Y-58100000D01*
X78250000Y-58050000D01*
G37*
G36*
X78250000Y-58400000D02*
G01*
X78600000Y-58400000D01*
X78600000Y-58450000D01*
X78250000Y-58450000D01*
X78250000Y-58400000D01*
G37*
G36*
X78250000Y-58750000D02*
G01*
X78600000Y-58750000D01*
X78600000Y-58800000D01*
X78250000Y-58800000D01*
X78250000Y-58750000D01*
G37*
G36*
X79550000Y-58050000D02*
G01*
X79650000Y-58050000D01*
X79650000Y-58700000D01*
X79550000Y-58700000D01*
X79550000Y-58050000D01*
G37*
G36*
X79550000Y-61200000D02*
G01*
X79650000Y-61200000D01*
X79650000Y-61250000D01*
X79550000Y-61250000D01*
X79550000Y-61200000D01*
G37*
G36*
X60750000Y-58100000D02*
G01*
X60950000Y-58100000D01*
X60950000Y-58150000D01*
X60750000Y-58150000D01*
X60750000Y-58100000D01*
G37*
G36*
X61750000Y-58100000D02*
G01*
X62400000Y-58100000D01*
X62400000Y-58200000D01*
X61750000Y-58200000D01*
X61750000Y-58100000D01*
G37*
G36*
X61750000Y-71150000D02*
G01*
X62400000Y-71150000D01*
X62400000Y-71200000D01*
X61750000Y-71200000D01*
X61750000Y-71150000D01*
G37*
G36*
X61750000Y-71400000D02*
G01*
X62400000Y-71400000D01*
X62400000Y-71500000D01*
X61750000Y-71500000D01*
X61750000Y-71400000D01*
G37*
G36*
X61750000Y-71750000D02*
G01*
X62400000Y-71750000D01*
X62400000Y-71800000D01*
X61750000Y-71800000D01*
X61750000Y-71750000D01*
G37*
G36*
X76450000Y-58100000D02*
G01*
X76700000Y-58100000D01*
X76700000Y-58150000D01*
X76450000Y-58150000D01*
X76450000Y-58100000D01*
G37*
G36*
X77000000Y-58100000D02*
G01*
X77100000Y-58100000D01*
X77100000Y-58150000D01*
X77000000Y-58150000D01*
X77000000Y-58100000D01*
G37*
G36*
X77000000Y-58350000D02*
G01*
X77100000Y-58350000D01*
X77100000Y-58400000D01*
X77000000Y-58400000D01*
X77000000Y-58350000D01*
G37*
G36*
X77000000Y-62300000D02*
G01*
X77100000Y-62300000D01*
X77100000Y-62400000D01*
X77000000Y-62400000D01*
X77000000Y-62300000D01*
G37*
G36*
X77300000Y-58100000D02*
G01*
X77350000Y-58100000D01*
X77350000Y-58400000D01*
X77300000Y-58400000D01*
X77300000Y-58100000D01*
G37*
G36*
X77300000Y-58450000D02*
G01*
X77350000Y-58450000D01*
X77350000Y-58800000D01*
X77300000Y-58800000D01*
X77300000Y-58450000D01*
G37*
G36*
X77550000Y-58100000D02*
G01*
X77650000Y-58100000D01*
X77650000Y-58150000D01*
X77550000Y-58150000D01*
X77550000Y-58100000D01*
G37*
G36*
X77550000Y-58700000D02*
G01*
X77650000Y-58700000D01*
X77650000Y-58750000D01*
X77550000Y-58750000D01*
X77550000Y-58700000D01*
G37*
G36*
X77900000Y-58100000D02*
G01*
X78000000Y-58100000D01*
X78000000Y-58200000D01*
X77900000Y-58200000D01*
X77900000Y-58100000D01*
G37*
G36*
X77900000Y-58650000D02*
G01*
X78000000Y-58650000D01*
X78000000Y-58750000D01*
X77900000Y-58750000D01*
X77900000Y-58650000D01*
G37*
G36*
X78550000Y-58100000D02*
G01*
X78600000Y-58100000D01*
X78600000Y-58400000D01*
X78550000Y-58400000D01*
X78550000Y-58100000D01*
G37*
G36*
X78550000Y-58450000D02*
G01*
X78600000Y-58450000D01*
X78600000Y-58750000D01*
X78550000Y-58750000D01*
X78550000Y-58450000D01*
G37*
G36*
X60550000Y-58150000D02*
G01*
X60800000Y-58150000D01*
X60800000Y-58200000D01*
X60550000Y-58200000D01*
X60550000Y-58150000D01*
G37*
G36*
X60550000Y-59000000D02*
G01*
X60800000Y-59000000D01*
X60800000Y-59050000D01*
X60550000Y-59050000D01*
X60550000Y-59000000D01*
G37*
G36*
X63000000Y-58150000D02*
G01*
X63650000Y-58150000D01*
X63650000Y-58200000D01*
X63000000Y-58200000D01*
X63000000Y-58150000D01*
G37*
G36*
X63000000Y-58400000D02*
G01*
X63650000Y-58400000D01*
X63650000Y-58500000D01*
X63000000Y-58500000D01*
X63000000Y-58400000D01*
G37*
G36*
X63000000Y-58750000D02*
G01*
X63650000Y-58750000D01*
X63650000Y-58800000D01*
X63000000Y-58800000D01*
X63000000Y-58750000D01*
G37*
G36*
X63000000Y-71000000D02*
G01*
X63650000Y-71000000D01*
X63650000Y-71050000D01*
X63000000Y-71050000D01*
X63000000Y-71000000D01*
G37*
G36*
X63000000Y-72300000D02*
G01*
X63650000Y-72300000D01*
X63650000Y-72350000D01*
X63000000Y-72350000D01*
X63000000Y-72300000D01*
G37*
G36*
X64300000Y-58150000D02*
G01*
X64350000Y-58150000D01*
X64350000Y-58200000D01*
X64300000Y-58200000D01*
X64300000Y-58150000D01*
G37*
G36*
X64300000Y-59300000D02*
G01*
X64350000Y-59300000D01*
X64350000Y-59350000D01*
X64300000Y-59350000D01*
X64300000Y-59300000D01*
G37*
G36*
X64800000Y-58150000D02*
G01*
X64850000Y-58150000D01*
X64850000Y-58200000D01*
X64800000Y-58200000D01*
X64800000Y-58150000D01*
G37*
G36*
X64800000Y-59300000D02*
G01*
X64850000Y-59300000D01*
X64850000Y-59350000D01*
X64800000Y-59350000D01*
X64800000Y-59300000D01*
G37*
G36*
X76450000Y-58150000D02*
G01*
X76550000Y-58150000D01*
X76550000Y-58750000D01*
X76450000Y-58750000D01*
X76450000Y-58150000D01*
G37*
G36*
X76600000Y-58150000D02*
G01*
X76700000Y-58150000D01*
X76700000Y-58200000D01*
X76600000Y-58200000D01*
X76600000Y-58150000D01*
G37*
G36*
X76950000Y-58150000D02*
G01*
X77050000Y-58150000D01*
X77050000Y-58350000D01*
X76950000Y-58350000D01*
X76950000Y-58150000D01*
G37*
G36*
X77600000Y-58150000D02*
G01*
X77700000Y-58150000D01*
X77700000Y-58250000D01*
X77600000Y-58250000D01*
X77600000Y-58150000D01*
G37*
G36*
X77600000Y-58600000D02*
G01*
X77700000Y-58600000D01*
X77700000Y-58650000D01*
X77600000Y-58650000D01*
X77600000Y-58600000D01*
G37*
G36*
X60500000Y-58200000D02*
G01*
X60650000Y-58200000D01*
X60650000Y-58250000D01*
X60500000Y-58250000D01*
X60500000Y-58200000D01*
G37*
G36*
X77850000Y-58200000D02*
G01*
X77950000Y-58200000D01*
X77950000Y-58250000D01*
X77850000Y-58250000D01*
X77850000Y-58200000D01*
G37*
G36*
X77850000Y-58600000D02*
G01*
X77950000Y-58600000D01*
X77950000Y-58650000D01*
X77850000Y-58650000D01*
X77850000Y-58600000D01*
G37*
G36*
X77650000Y-58250000D02*
G01*
X77750000Y-58250000D01*
X77750000Y-58300000D01*
X77650000Y-58300000D01*
X77650000Y-58250000D01*
G37*
G36*
X77650000Y-58500000D02*
G01*
X77750000Y-58500000D01*
X77750000Y-58600000D01*
X77650000Y-58600000D01*
X77650000Y-58500000D01*
G37*
G36*
X77800000Y-58250000D02*
G01*
X77900000Y-58250000D01*
X77900000Y-58300000D01*
X77800000Y-58300000D01*
X77800000Y-58250000D01*
G37*
G36*
X77800000Y-58500000D02*
G01*
X77900000Y-58500000D01*
X77900000Y-58550000D01*
X77800000Y-58550000D01*
X77800000Y-58500000D01*
G37*
G36*
X77700000Y-58300000D02*
G01*
X77900000Y-58300000D01*
X77900000Y-58350000D01*
X77700000Y-58350000D01*
X77700000Y-58300000D01*
G37*
G36*
X77700000Y-58350000D02*
G01*
X77850000Y-58350000D01*
X77850000Y-58400000D01*
X77700000Y-58400000D01*
X77700000Y-58350000D01*
G37*
G36*
X77700000Y-58450000D02*
G01*
X77850000Y-58450000D01*
X77850000Y-58500000D01*
X77700000Y-58500000D01*
X77700000Y-58450000D01*
G37*
G36*
X60650000Y-58400000D02*
G01*
X61000000Y-58400000D01*
X61000000Y-58450000D01*
X60650000Y-58450000D01*
X60650000Y-58400000D01*
G37*
G36*
X61800000Y-58400000D02*
G01*
X61850000Y-58400000D01*
X61850000Y-58450000D01*
X61800000Y-58450000D01*
X61800000Y-58400000D01*
G37*
G36*
X61800000Y-59050000D02*
G01*
X61850000Y-59050000D01*
X61850000Y-59100000D01*
X61800000Y-59100000D01*
X61800000Y-59050000D01*
G37*
G36*
X61800000Y-59300000D02*
G01*
X61850000Y-59300000D01*
X61850000Y-59350000D01*
X61800000Y-59350000D01*
X61800000Y-59300000D01*
G37*
G36*
X64700000Y-58400000D02*
G01*
X64900000Y-58400000D01*
X64900000Y-58450000D01*
X64700000Y-58450000D01*
X64700000Y-58400000D01*
G37*
G36*
X77750000Y-58400000D02*
G01*
X77850000Y-58400000D01*
X77850000Y-58450000D01*
X77750000Y-58450000D01*
X77750000Y-58400000D01*
G37*
G36*
X60600000Y-58450000D02*
G01*
X60750000Y-58450000D01*
X60750000Y-58500000D01*
X60600000Y-58500000D01*
X60600000Y-58450000D01*
G37*
G36*
X60900000Y-58450000D02*
G01*
X61050000Y-58450000D01*
X61050000Y-58500000D01*
X60900000Y-58500000D01*
X60900000Y-58450000D01*
G37*
G36*
X60900000Y-59300000D02*
G01*
X61050000Y-59300000D01*
X61050000Y-59350000D01*
X60900000Y-59350000D01*
X60900000Y-59300000D01*
G37*
G36*
X61750000Y-58450000D02*
G01*
X61850000Y-58450000D01*
X61850000Y-58500000D01*
X61750000Y-58500000D01*
X61750000Y-58450000D01*
G37*
G36*
X61750000Y-58650000D02*
G01*
X61850000Y-58650000D01*
X61850000Y-58700000D01*
X61750000Y-58700000D01*
X61750000Y-58650000D01*
G37*
G36*
X61750000Y-67900000D02*
G01*
X61850000Y-67900000D01*
X61850000Y-68550000D01*
X61750000Y-68550000D01*
X61750000Y-67900000D01*
G37*
G36*
X61750000Y-70950000D02*
G01*
X61850000Y-70950000D01*
X61850000Y-71000000D01*
X61750000Y-71000000D01*
X61750000Y-70950000D01*
G37*
G36*
X61750000Y-72200000D02*
G01*
X61850000Y-72200000D01*
X61850000Y-72250000D01*
X61750000Y-72250000D01*
X61750000Y-72200000D01*
G37*
G36*
X64550000Y-58450000D02*
G01*
X64800000Y-58450000D01*
X64800000Y-58500000D01*
X64550000Y-58500000D01*
X64550000Y-58450000D01*
G37*
G36*
X60550000Y-58500000D02*
G01*
X60650000Y-58500000D01*
X60650000Y-58550000D01*
X60550000Y-58550000D01*
X60550000Y-58500000D01*
G37*
G36*
X61000000Y-58500000D02*
G01*
X61100000Y-58500000D01*
X61100000Y-58550000D01*
X61000000Y-58550000D01*
X61000000Y-58500000D01*
G37*
G36*
X63050000Y-58500000D02*
G01*
X63200000Y-58500000D01*
X63200000Y-58550000D01*
X63050000Y-58550000D01*
X63050000Y-58500000D01*
G37*
G36*
X64400000Y-58500000D02*
G01*
X64650000Y-58500000D01*
X64650000Y-58550000D01*
X64400000Y-58550000D01*
X64400000Y-58500000D01*
G37*
G36*
X60500000Y-58550000D02*
G01*
X60600000Y-58550000D01*
X60600000Y-58600000D01*
X60500000Y-58600000D01*
X60500000Y-58550000D01*
G37*
G36*
X61050000Y-58550000D02*
G01*
X61150000Y-58550000D01*
X61150000Y-58600000D01*
X61050000Y-58600000D01*
X61050000Y-58550000D01*
G37*
G36*
X61050000Y-59200000D02*
G01*
X61150000Y-59200000D01*
X61150000Y-59250000D01*
X61050000Y-59250000D01*
X61050000Y-59200000D01*
G37*
G36*
X63150000Y-58550000D02*
G01*
X63300000Y-58550000D01*
X63300000Y-58600000D01*
X63150000Y-58600000D01*
X63150000Y-58550000D01*
G37*
G36*
X64250000Y-58550000D02*
G01*
X64500000Y-58550000D01*
X64500000Y-58600000D01*
X64250000Y-58600000D01*
X64250000Y-58550000D01*
G37*
G36*
X77850000Y-58550000D02*
G01*
X77900000Y-58550000D01*
X77900000Y-58600000D01*
X77850000Y-58600000D01*
X77850000Y-58550000D01*
G37*
G36*
X61100000Y-58600000D02*
G01*
X61150000Y-58600000D01*
X61150000Y-58750000D01*
X61100000Y-58750000D01*
X61100000Y-58600000D01*
G37*
G36*
X61100000Y-59050000D02*
G01*
X61150000Y-59050000D01*
X61150000Y-59200000D01*
X61100000Y-59200000D01*
X61100000Y-59050000D01*
G37*
G36*
X61100000Y-68350000D02*
G01*
X61150000Y-68350000D01*
X61150000Y-68400000D01*
X61100000Y-68400000D01*
X61100000Y-68350000D01*
G37*
G36*
X63300000Y-58600000D02*
G01*
X63400000Y-58600000D01*
X63400000Y-58650000D01*
X63300000Y-58650000D01*
X63300000Y-58600000D01*
G37*
G36*
X64250000Y-58600000D02*
G01*
X64400000Y-58600000D01*
X64400000Y-58650000D01*
X64250000Y-58650000D01*
X64250000Y-58600000D01*
G37*
G36*
X64300000Y-58650000D02*
G01*
X64550000Y-58650000D01*
X64550000Y-58700000D01*
X64300000Y-58700000D01*
X64300000Y-58650000D01*
G37*
G36*
X77600000Y-58650000D02*
G01*
X77650000Y-58650000D01*
X77650000Y-58700000D01*
X77600000Y-58700000D01*
X77600000Y-58650000D01*
G37*
G36*
X61800000Y-58700000D02*
G01*
X61900000Y-58700000D01*
X61900000Y-58750000D01*
X61800000Y-58750000D01*
X61800000Y-58700000D01*
G37*
G36*
X61800000Y-70900000D02*
G01*
X61900000Y-70900000D01*
X61900000Y-70950000D01*
X61800000Y-70950000D01*
X61800000Y-70900000D01*
G37*
G36*
X61800000Y-72250000D02*
G01*
X61900000Y-72250000D01*
X61900000Y-72300000D01*
X61800000Y-72300000D01*
X61800000Y-72250000D01*
G37*
G36*
X63500000Y-58700000D02*
G01*
X63650000Y-58700000D01*
X63650000Y-58750000D01*
X63500000Y-58750000D01*
X63500000Y-58700000D01*
G37*
G36*
X63500000Y-71600000D02*
G01*
X63650000Y-71600000D01*
X63650000Y-71650000D01*
X63500000Y-71650000D01*
X63500000Y-71600000D01*
G37*
G36*
X64450000Y-58700000D02*
G01*
X64700000Y-58700000D01*
X64700000Y-58750000D01*
X64450000Y-58750000D01*
X64450000Y-58700000D01*
G37*
G36*
X79600000Y-58700000D02*
G01*
X79700000Y-58700000D01*
X79700000Y-58750000D01*
X79600000Y-58750000D01*
X79600000Y-58700000D01*
G37*
G36*
X79850000Y-58700000D02*
G01*
X79900000Y-58700000D01*
X79900000Y-58750000D01*
X79850000Y-58750000D01*
X79850000Y-58700000D01*
G37*
G36*
X79850000Y-60350000D02*
G01*
X79900000Y-60350000D01*
X79900000Y-60600000D01*
X79850000Y-60600000D01*
X79850000Y-60350000D01*
G37*
G36*
X79850000Y-60650000D02*
G01*
X79900000Y-60650000D01*
X79900000Y-60850000D01*
X79850000Y-60850000D01*
X79850000Y-60650000D01*
G37*
G36*
X79850000Y-61600000D02*
G01*
X79900000Y-61600000D01*
X79900000Y-61750000D01*
X79850000Y-61750000D01*
X79850000Y-61600000D01*
G37*
G36*
X79850000Y-61800000D02*
G01*
X79900000Y-61800000D01*
X79900000Y-61900000D01*
X79850000Y-61900000D01*
X79850000Y-61800000D01*
G37*
G36*
X60500000Y-58750000D02*
G01*
X61150000Y-58750000D01*
X61150000Y-58800000D01*
X60500000Y-58800000D01*
X60500000Y-58750000D01*
G37*
G36*
X61850000Y-58750000D02*
G01*
X62300000Y-58750000D01*
X62300000Y-58800000D01*
X61850000Y-58800000D01*
X61850000Y-58750000D01*
G37*
G36*
X61850000Y-72300000D02*
G01*
X62300000Y-72300000D01*
X62300000Y-72350000D01*
X61850000Y-72350000D01*
X61850000Y-72300000D01*
G37*
G36*
X76350000Y-58750000D02*
G01*
X76700000Y-58750000D01*
X76700000Y-58800000D01*
X76350000Y-58800000D01*
X76350000Y-58750000D01*
G37*
G36*
X79650000Y-58750000D02*
G01*
X79850000Y-58750000D01*
X79850000Y-58800000D01*
X79650000Y-58800000D01*
X79650000Y-58750000D01*
G37*
G36*
X61950000Y-58800000D02*
G01*
X62200000Y-58800000D01*
X62200000Y-58850000D01*
X61950000Y-58850000D01*
X61950000Y-58800000D01*
G37*
G36*
X61950000Y-72350000D02*
G01*
X62200000Y-72350000D01*
X62200000Y-72400000D01*
X61950000Y-72400000D01*
X61950000Y-72350000D01*
G37*
G36*
X64750000Y-58800000D02*
G01*
X64900000Y-58800000D01*
X64900000Y-58850000D01*
X64750000Y-58850000D01*
X64750000Y-58800000D01*
G37*
G36*
X63050000Y-58950000D02*
G01*
X63300000Y-58950000D01*
X63300000Y-59000000D01*
X63050000Y-59000000D01*
X63050000Y-58950000D01*
G37*
G36*
X63050000Y-71750000D02*
G01*
X63300000Y-71750000D01*
X63300000Y-71800000D01*
X63050000Y-71800000D01*
X63050000Y-71750000D01*
G37*
G36*
X63050000Y-72000000D02*
G01*
X63300000Y-72000000D01*
X63300000Y-72050000D01*
X63050000Y-72050000D01*
X63050000Y-72000000D01*
G37*
G36*
X61050000Y-59000000D02*
G01*
X61100000Y-59000000D01*
X61100000Y-59050000D01*
X61050000Y-59050000D01*
X61050000Y-59000000D01*
G37*
G36*
X61800000Y-59000000D02*
G01*
X62050000Y-59000000D01*
X62050000Y-59050000D01*
X61800000Y-59050000D01*
X61800000Y-59000000D01*
G37*
G36*
X61800000Y-71950000D02*
G01*
X62050000Y-71950000D01*
X62050000Y-72000000D01*
X61800000Y-72000000D01*
X61800000Y-71950000D01*
G37*
G36*
X62300000Y-59000000D02*
G01*
X62350000Y-59000000D01*
X62350000Y-59050000D01*
X62300000Y-59050000D01*
X62300000Y-59000000D01*
G37*
G36*
X63000000Y-59000000D02*
G01*
X63300000Y-59000000D01*
X63300000Y-59050000D01*
X63000000Y-59050000D01*
X63000000Y-59000000D01*
G37*
G36*
X78700000Y-59000000D02*
G01*
X79350000Y-59000000D01*
X79350000Y-59050000D01*
X78700000Y-59050000D01*
X78700000Y-59000000D01*
G37*
G36*
X60550000Y-59050000D02*
G01*
X60600000Y-59050000D01*
X60600000Y-59100000D01*
X60550000Y-59100000D01*
X60550000Y-59050000D01*
G37*
G36*
X60550000Y-59300000D02*
G01*
X60600000Y-59300000D01*
X60600000Y-59350000D01*
X60550000Y-59350000D01*
X60550000Y-59300000D01*
G37*
G36*
X60750000Y-59050000D02*
G01*
X60850000Y-59050000D01*
X60850000Y-59100000D01*
X60750000Y-59100000D01*
X60750000Y-59050000D01*
G37*
G36*
X60750000Y-59700000D02*
G01*
X60850000Y-59700000D01*
X60850000Y-59800000D01*
X60750000Y-59800000D01*
X60750000Y-59700000D01*
G37*
G36*
X62000000Y-59050000D02*
G01*
X62100000Y-59050000D01*
X62100000Y-59100000D01*
X62000000Y-59100000D01*
X62000000Y-59050000D01*
G37*
G36*
X62000000Y-59700000D02*
G01*
X62100000Y-59700000D01*
X62100000Y-59800000D01*
X62000000Y-59800000D01*
X62000000Y-59700000D01*
G37*
G36*
X62000000Y-72700000D02*
G01*
X62100000Y-72700000D01*
X62100000Y-72800000D01*
X62000000Y-72800000D01*
X62000000Y-72700000D01*
G37*
G36*
X63250000Y-59050000D02*
G01*
X63300000Y-59050000D01*
X63300000Y-59150000D01*
X63250000Y-59150000D01*
X63250000Y-59050000D01*
G37*
G36*
X63250000Y-71550000D02*
G01*
X63300000Y-71550000D01*
X63300000Y-71700000D01*
X63250000Y-71700000D01*
X63250000Y-71550000D01*
G37*
G36*
X60800000Y-59100000D02*
G01*
X60850000Y-59100000D01*
X60850000Y-59200000D01*
X60800000Y-59200000D01*
X60800000Y-59100000D01*
G37*
G36*
X62050000Y-59100000D02*
G01*
X62100000Y-59100000D01*
X62100000Y-59200000D01*
X62050000Y-59200000D01*
X62050000Y-59100000D01*
G37*
G36*
X60850000Y-59200000D02*
G01*
X60900000Y-59200000D01*
X60900000Y-59250000D01*
X60850000Y-59250000D01*
X60850000Y-59200000D01*
G37*
G36*
X62100000Y-59200000D02*
G01*
X62150000Y-59200000D01*
X62150000Y-59250000D01*
X62100000Y-59250000D01*
X62100000Y-59200000D01*
G37*
G36*
X62100000Y-59250000D02*
G01*
X62350000Y-59250000D01*
X62350000Y-59300000D01*
X62100000Y-59300000D01*
X62100000Y-59250000D01*
G37*
G36*
X62150000Y-59300000D02*
G01*
X62300000Y-59300000D01*
X62300000Y-59350000D01*
X62150000Y-59350000D01*
X62150000Y-59300000D01*
G37*
G36*
X62150000Y-70850000D02*
G01*
X62300000Y-70850000D01*
X62300000Y-70900000D01*
X62150000Y-70900000D01*
X62150000Y-70850000D01*
G37*
G36*
X62150000Y-71650000D02*
G01*
X62300000Y-71650000D01*
X62300000Y-71700000D01*
X62150000Y-71700000D01*
X62150000Y-71650000D01*
G37*
G36*
X63100000Y-59300000D02*
G01*
X63550000Y-59300000D01*
X63550000Y-59350000D01*
X63100000Y-59350000D01*
X63100000Y-59300000D01*
G37*
G36*
X63100000Y-70450000D02*
G01*
X63550000Y-70450000D01*
X63550000Y-70500000D01*
X63100000Y-70500000D01*
X63100000Y-70450000D01*
G37*
G36*
X63200000Y-59350000D02*
G01*
X63450000Y-59350000D01*
X63450000Y-59400000D01*
X63200000Y-59400000D01*
X63200000Y-59350000D01*
G37*
G36*
X63250000Y-59700000D02*
G01*
X63350000Y-59700000D01*
X63350000Y-59800000D01*
X63250000Y-59800000D01*
X63250000Y-59700000D01*
G37*
G36*
X63250000Y-72700000D02*
G01*
X63350000Y-72700000D01*
X63350000Y-72800000D01*
X63250000Y-72800000D01*
X63250000Y-72700000D01*
G37*
G36*
X64500000Y-59700000D02*
G01*
X64600000Y-59700000D01*
X64600000Y-59800000D01*
X64500000Y-59800000D01*
X64500000Y-59700000D01*
G37*
G36*
X71500000Y-60500000D02*
G01*
X71850000Y-60500000D01*
X71850000Y-60950000D01*
X71500000Y-60950000D01*
X71500000Y-60500000D01*
G37*
G36*
X72750000Y-60500000D02*
G01*
X73100000Y-60500000D01*
X73100000Y-60950000D01*
X72750000Y-60950000D01*
X72750000Y-60500000D01*
G37*
G36*
X79250000Y-60600000D02*
G01*
X79900000Y-60600000D01*
X79900000Y-60650000D01*
X79250000Y-60650000D01*
X79250000Y-60600000D01*
G37*
G36*
X79250000Y-61000000D02*
G01*
X79900000Y-61000000D01*
X79900000Y-61100000D01*
X79250000Y-61100000D01*
X79250000Y-61000000D01*
G37*
G36*
X79250000Y-61350000D02*
G01*
X79900000Y-61350000D01*
X79900000Y-61400000D01*
X79250000Y-61400000D01*
X79250000Y-61350000D01*
G37*
G36*
X79250000Y-61750000D02*
G01*
X79900000Y-61750000D01*
X79900000Y-61800000D01*
X79250000Y-61800000D01*
X79250000Y-61750000D01*
G37*
G36*
X76800000Y-61000000D02*
G01*
X76850000Y-61000000D01*
X76850000Y-61050000D01*
X76800000Y-61050000D01*
X76800000Y-61000000D01*
G37*
G36*
X78050000Y-61000000D02*
G01*
X78100000Y-61000000D01*
X78100000Y-61050000D01*
X78050000Y-61050000D01*
X78050000Y-61000000D01*
G37*
G36*
X76050000Y-61050000D02*
G01*
X76150000Y-61050000D01*
X76150000Y-61100000D01*
X76050000Y-61100000D01*
X76050000Y-61050000D01*
G37*
G36*
X76050000Y-61250000D02*
G01*
X76150000Y-61250000D01*
X76150000Y-61300000D01*
X76050000Y-61300000D01*
X76050000Y-61250000D01*
G37*
G36*
X76750000Y-61050000D02*
G01*
X76850000Y-61050000D01*
X76850000Y-61100000D01*
X76750000Y-61100000D01*
X76750000Y-61050000D01*
G37*
G36*
X76750000Y-61250000D02*
G01*
X76850000Y-61250000D01*
X76850000Y-61300000D01*
X76750000Y-61300000D01*
X76750000Y-61250000D01*
G37*
G36*
X77300000Y-61050000D02*
G01*
X77400000Y-61050000D01*
X77400000Y-61100000D01*
X77300000Y-61100000D01*
X77300000Y-61050000D01*
G37*
G36*
X77300000Y-61250000D02*
G01*
X77400000Y-61250000D01*
X77400000Y-61300000D01*
X77300000Y-61300000D01*
X77300000Y-61250000D01*
G37*
G36*
X78000000Y-61050000D02*
G01*
X78100000Y-61050000D01*
X78100000Y-61100000D01*
X78000000Y-61100000D01*
X78000000Y-61050000D01*
G37*
G36*
X78000000Y-61250000D02*
G01*
X78100000Y-61250000D01*
X78100000Y-61300000D01*
X78000000Y-61300000D01*
X78000000Y-61250000D01*
G37*
G36*
X78550000Y-61050000D02*
G01*
X78650000Y-61050000D01*
X78650000Y-61100000D01*
X78550000Y-61100000D01*
X78550000Y-61050000D01*
G37*
G36*
X78550000Y-61250000D02*
G01*
X78650000Y-61250000D01*
X78650000Y-61300000D01*
X78550000Y-61300000D01*
X78550000Y-61250000D01*
G37*
G36*
X76100000Y-61100000D02*
G01*
X76150000Y-61100000D01*
X76150000Y-61250000D01*
X76100000Y-61250000D01*
X76100000Y-61100000D01*
G37*
G36*
X76750000Y-61100000D02*
G01*
X76800000Y-61100000D01*
X76800000Y-61250000D01*
X76750000Y-61250000D01*
X76750000Y-61100000D01*
G37*
G36*
X76750000Y-62850000D02*
G01*
X76800000Y-62850000D01*
X76800000Y-63050000D01*
X76750000Y-63050000D01*
X76750000Y-62850000D01*
G37*
G36*
X77350000Y-61100000D02*
G01*
X77400000Y-61100000D01*
X77400000Y-61250000D01*
X77350000Y-61250000D01*
X77350000Y-61100000D01*
G37*
G36*
X78000000Y-61100000D02*
G01*
X78050000Y-61100000D01*
X78050000Y-61250000D01*
X78000000Y-61250000D01*
X78000000Y-61100000D01*
G37*
G36*
X78000000Y-62750000D02*
G01*
X78050000Y-62750000D01*
X78050000Y-63100000D01*
X78000000Y-63100000D01*
X78000000Y-62750000D01*
G37*
G36*
X78600000Y-61100000D02*
G01*
X78650000Y-61100000D01*
X78650000Y-61250000D01*
X78600000Y-61250000D01*
X78600000Y-61100000D01*
G37*
G36*
X79300000Y-61100000D02*
G01*
X79450000Y-61100000D01*
X79450000Y-61150000D01*
X79300000Y-61150000D01*
X79300000Y-61100000D01*
G37*
G36*
X71200000Y-61150000D02*
G01*
X71550000Y-61150000D01*
X71550000Y-61200000D01*
X71200000Y-61200000D01*
X71200000Y-61150000D01*
G37*
G36*
X72750000Y-61150000D02*
G01*
X72950000Y-61150000D01*
X72950000Y-61200000D01*
X72750000Y-61200000D01*
X72750000Y-61150000D01*
G37*
G36*
X72750000Y-63650000D02*
G01*
X72950000Y-63650000D01*
X72950000Y-63700000D01*
X72750000Y-63700000D01*
X72750000Y-63650000D01*
G37*
G36*
X79400000Y-61150000D02*
G01*
X79550000Y-61150000D01*
X79550000Y-61200000D01*
X79400000Y-61200000D01*
X79400000Y-61150000D01*
G37*
G36*
X71150000Y-61200000D02*
G01*
X71300000Y-61200000D01*
X71300000Y-61250000D01*
X71150000Y-61250000D01*
X71150000Y-61200000D01*
G37*
G36*
X71450000Y-61200000D02*
G01*
X71600000Y-61200000D01*
X71600000Y-61250000D01*
X71450000Y-61250000D01*
X71450000Y-61200000D01*
G37*
G36*
X71450000Y-62000000D02*
G01*
X71600000Y-62000000D01*
X71600000Y-62050000D01*
X71450000Y-62050000D01*
X71450000Y-62000000D01*
G37*
G36*
X72350000Y-61200000D02*
G01*
X72950000Y-61200000D01*
X72950000Y-61250000D01*
X72350000Y-61250000D01*
X72350000Y-61200000D01*
G37*
G36*
X71100000Y-61250000D02*
G01*
X71200000Y-61250000D01*
X71200000Y-61300000D01*
X71100000Y-61300000D01*
X71100000Y-61250000D01*
G37*
G36*
X71100000Y-62600000D02*
G01*
X71200000Y-62600000D01*
X71200000Y-62650000D01*
X71100000Y-62650000D01*
X71100000Y-62600000D01*
G37*
G36*
X71550000Y-61250000D02*
G01*
X71650000Y-61250000D01*
X71650000Y-61300000D01*
X71550000Y-61300000D01*
X71550000Y-61250000D01*
G37*
G36*
X71550000Y-62600000D02*
G01*
X71650000Y-62600000D01*
X71650000Y-62650000D01*
X71550000Y-62650000D01*
X71550000Y-62600000D01*
G37*
G36*
X71550000Y-67450000D02*
G01*
X71650000Y-67450000D01*
X71650000Y-67550000D01*
X71550000Y-67550000D01*
X71550000Y-67450000D01*
G37*
G36*
X71550000Y-67900000D02*
G01*
X71650000Y-67900000D01*
X71650000Y-68000000D01*
X71550000Y-68000000D01*
X71550000Y-67900000D01*
G37*
G36*
X72300000Y-61250000D02*
G01*
X72500000Y-61250000D01*
X72500000Y-61300000D01*
X72300000Y-61300000D01*
X72300000Y-61250000D01*
G37*
G36*
X72300000Y-61500000D02*
G01*
X72500000Y-61500000D01*
X72500000Y-61550000D01*
X72300000Y-61550000D01*
X72300000Y-61500000D01*
G37*
G36*
X72300000Y-63500000D02*
G01*
X72500000Y-63500000D01*
X72500000Y-63550000D01*
X72300000Y-63550000D01*
X72300000Y-63500000D01*
G37*
G36*
X79650000Y-61250000D02*
G01*
X79800000Y-61250000D01*
X79800000Y-61300000D01*
X79650000Y-61300000D01*
X79650000Y-61250000D01*
G37*
G36*
X71050000Y-61300000D02*
G01*
X71150000Y-61300000D01*
X71150000Y-61350000D01*
X71050000Y-61350000D01*
X71050000Y-61300000D01*
G37*
G36*
X71050000Y-62550000D02*
G01*
X71150000Y-62550000D01*
X71150000Y-62600000D01*
X71050000Y-62600000D01*
X71050000Y-62550000D01*
G37*
G36*
X71600000Y-61300000D02*
G01*
X71700000Y-61300000D01*
X71700000Y-61350000D01*
X71600000Y-61350000D01*
X71600000Y-61300000D01*
G37*
G36*
X71600000Y-62350000D02*
G01*
X71700000Y-62350000D01*
X71700000Y-62400000D01*
X71600000Y-62400000D01*
X71600000Y-62350000D01*
G37*
G36*
X71600000Y-62550000D02*
G01*
X71700000Y-62550000D01*
X71700000Y-62600000D01*
X71600000Y-62600000D01*
X71600000Y-62550000D01*
G37*
G36*
X71600000Y-63600000D02*
G01*
X71700000Y-63600000D01*
X71700000Y-63650000D01*
X71600000Y-63650000D01*
X71600000Y-63600000D01*
G37*
G36*
X71600000Y-67600000D02*
G01*
X71700000Y-67600000D01*
X71700000Y-67850000D01*
X71600000Y-67850000D01*
X71600000Y-67600000D01*
G37*
G36*
X72350000Y-61300000D02*
G01*
X72550000Y-61300000D01*
X72550000Y-61350000D01*
X72350000Y-61350000D01*
X72350000Y-61300000D01*
G37*
G36*
X75600000Y-61300000D02*
G01*
X75650000Y-61300000D01*
X75650000Y-61350000D01*
X75600000Y-61350000D01*
X75600000Y-61300000D01*
G37*
G36*
X76000000Y-61300000D02*
G01*
X76100000Y-61300000D01*
X76100000Y-61350000D01*
X76000000Y-61350000D01*
X76000000Y-61300000D01*
G37*
G36*
X76800000Y-61300000D02*
G01*
X76900000Y-61300000D01*
X76900000Y-61350000D01*
X76800000Y-61350000D01*
X76800000Y-61300000D01*
G37*
G36*
X77250000Y-61300000D02*
G01*
X77350000Y-61300000D01*
X77350000Y-61350000D01*
X77250000Y-61350000D01*
X77250000Y-61300000D01*
G37*
G36*
X78050000Y-61300000D02*
G01*
X78150000Y-61300000D01*
X78150000Y-61350000D01*
X78050000Y-61350000D01*
X78050000Y-61300000D01*
G37*
G36*
X78500000Y-61300000D02*
G01*
X78600000Y-61300000D01*
X78600000Y-61350000D01*
X78500000Y-61350000D01*
X78500000Y-61300000D01*
G37*
G36*
X79750000Y-61300000D02*
G01*
X79900000Y-61300000D01*
X79900000Y-61350000D01*
X79750000Y-61350000D01*
X79750000Y-61300000D01*
G37*
G36*
X71050000Y-61350000D02*
G01*
X71100000Y-61350000D01*
X71100000Y-61500000D01*
X71050000Y-61500000D01*
X71050000Y-61350000D01*
G37*
G36*
X71050000Y-62400000D02*
G01*
X71100000Y-62400000D01*
X71100000Y-62550000D01*
X71050000Y-62550000D01*
X71050000Y-62400000D01*
G37*
G36*
X71050000Y-63500000D02*
G01*
X71100000Y-63500000D01*
X71100000Y-63750000D01*
X71050000Y-63750000D01*
X71050000Y-63500000D01*
G37*
G36*
X71050000Y-63800000D02*
G01*
X71100000Y-63800000D01*
X71100000Y-63850000D01*
X71050000Y-63850000D01*
X71050000Y-63800000D01*
G37*
G36*
X71650000Y-61350000D02*
G01*
X71700000Y-61350000D01*
X71700000Y-61500000D01*
X71650000Y-61500000D01*
X71650000Y-61350000D01*
G37*
G36*
X71650000Y-62400000D02*
G01*
X71700000Y-62400000D01*
X71700000Y-62550000D01*
X71650000Y-62550000D01*
X71650000Y-62400000D01*
G37*
G36*
X71650000Y-63650000D02*
G01*
X71700000Y-63650000D01*
X71700000Y-63800000D01*
X71650000Y-63800000D01*
X71650000Y-63650000D01*
G37*
G36*
X72550000Y-61350000D02*
G01*
X72750000Y-61350000D01*
X72750000Y-61400000D01*
X72550000Y-61400000D01*
X72550000Y-61350000D01*
G37*
G36*
X72550000Y-63800000D02*
G01*
X72750000Y-63800000D01*
X72750000Y-63850000D01*
X72550000Y-63850000D01*
X72550000Y-63800000D01*
G37*
G36*
X75600000Y-61350000D02*
G01*
X76050000Y-61350000D01*
X76050000Y-61400000D01*
X75600000Y-61400000D01*
X75600000Y-61350000D01*
G37*
G36*
X76850000Y-61350000D02*
G01*
X77300000Y-61350000D01*
X77300000Y-61400000D01*
X76850000Y-61400000D01*
X76850000Y-61350000D01*
G37*
G36*
X78100000Y-61350000D02*
G01*
X78550000Y-61350000D01*
X78550000Y-61400000D01*
X78100000Y-61400000D01*
X78100000Y-61350000D01*
G37*
G36*
X72650000Y-61400000D02*
G01*
X72750000Y-61400000D01*
X72750000Y-61450000D01*
X72650000Y-61450000D01*
X72650000Y-61400000D01*
G37*
G36*
X75700000Y-61400000D02*
G01*
X75950000Y-61400000D01*
X75950000Y-61450000D01*
X75700000Y-61450000D01*
X75700000Y-61400000D01*
G37*
G36*
X76950000Y-61400000D02*
G01*
X77200000Y-61400000D01*
X77200000Y-61450000D01*
X76950000Y-61450000D01*
X76950000Y-61400000D01*
G37*
G36*
X78200000Y-61400000D02*
G01*
X78450000Y-61400000D01*
X78450000Y-61450000D01*
X78200000Y-61450000D01*
X78200000Y-61400000D01*
G37*
G36*
X72450000Y-61450000D02*
G01*
X72700000Y-61450000D01*
X72700000Y-61500000D01*
X72450000Y-61500000D01*
X72450000Y-61450000D01*
G37*
G36*
X71050000Y-61500000D02*
G01*
X71700000Y-61500000D01*
X71700000Y-61550000D01*
X71050000Y-61550000D01*
X71050000Y-61500000D01*
G37*
G36*
X71050000Y-61750000D02*
G01*
X71700000Y-61750000D01*
X71700000Y-61850000D01*
X71050000Y-61850000D01*
X71050000Y-61750000D01*
G37*
G36*
X71050000Y-62100000D02*
G01*
X71700000Y-62100000D01*
X71700000Y-62150000D01*
X71050000Y-62150000D01*
X71050000Y-62100000D01*
G37*
G36*
X72300000Y-61550000D02*
G01*
X72650000Y-61550000D01*
X72650000Y-61600000D01*
X72300000Y-61600000D01*
X72300000Y-61550000D01*
G37*
G36*
X75500000Y-61550000D02*
G01*
X76150000Y-61550000D01*
X76150000Y-61650000D01*
X75500000Y-61650000D01*
X75500000Y-61550000D01*
G37*
G36*
X75500000Y-61900000D02*
G01*
X76150000Y-61900000D01*
X76150000Y-61950000D01*
X75500000Y-61950000D01*
X75500000Y-61900000D01*
G37*
G36*
X76750000Y-61550000D02*
G01*
X77400000Y-61550000D01*
X77400000Y-61650000D01*
X76750000Y-61650000D01*
X76750000Y-61550000D01*
G37*
G36*
X76750000Y-61900000D02*
G01*
X77400000Y-61900000D01*
X77400000Y-61950000D01*
X76750000Y-61950000D01*
X76750000Y-61900000D01*
G37*
G36*
X78000000Y-61550000D02*
G01*
X78650000Y-61550000D01*
X78650000Y-61650000D01*
X78000000Y-61650000D01*
X78000000Y-61550000D01*
G37*
G36*
X78000000Y-61900000D02*
G01*
X78650000Y-61900000D01*
X78650000Y-61950000D01*
X78000000Y-61950000D01*
X78000000Y-61900000D01*
G37*
G36*
X72500000Y-61600000D02*
G01*
X72950000Y-61600000D01*
X72950000Y-61650000D01*
X72500000Y-61650000D01*
X72500000Y-61600000D01*
G37*
G36*
X79250000Y-61600000D02*
G01*
X79300000Y-61600000D01*
X79300000Y-61750000D01*
X79250000Y-61750000D01*
X79250000Y-61600000D01*
G37*
G36*
X79250000Y-61800000D02*
G01*
X79300000Y-61800000D01*
X79300000Y-61900000D01*
X79250000Y-61900000D01*
X79250000Y-61800000D01*
G37*
G36*
X79250000Y-62750000D02*
G01*
X79300000Y-62750000D01*
X79300000Y-63050000D01*
X79250000Y-63050000D01*
X79250000Y-62750000D01*
G37*
G36*
X72900000Y-61650000D02*
G01*
X72950000Y-61650000D01*
X72950000Y-61700000D01*
X72900000Y-61700000D01*
X72900000Y-61650000D01*
G37*
G36*
X72900000Y-61900000D02*
G01*
X72950000Y-61900000D01*
X72950000Y-62050000D01*
X72900000Y-62050000D01*
X72900000Y-61900000D01*
G37*
G36*
X72900000Y-62850000D02*
G01*
X72950000Y-62850000D01*
X72950000Y-63100000D01*
X72900000Y-63100000D01*
X72900000Y-62850000D01*
G37*
G36*
X72900000Y-63150000D02*
G01*
X72950000Y-63150000D01*
X72950000Y-63350000D01*
X72900000Y-63350000D01*
X72900000Y-63150000D01*
G37*
G36*
X72900000Y-64200000D02*
G01*
X72950000Y-64200000D01*
X72950000Y-64400000D01*
X72900000Y-64400000D01*
X72900000Y-64200000D01*
G37*
G36*
X75550000Y-61650000D02*
G01*
X75700000Y-61650000D01*
X75700000Y-61700000D01*
X75550000Y-61700000D01*
X75550000Y-61650000D01*
G37*
G36*
X76800000Y-61650000D02*
G01*
X76950000Y-61650000D01*
X76950000Y-61700000D01*
X76800000Y-61700000D01*
X76800000Y-61650000D01*
G37*
G36*
X78050000Y-61650000D02*
G01*
X78200000Y-61650000D01*
X78200000Y-61700000D01*
X78050000Y-61700000D01*
X78050000Y-61650000D01*
G37*
G36*
X75650000Y-61700000D02*
G01*
X75800000Y-61700000D01*
X75800000Y-61750000D01*
X75650000Y-61750000D01*
X75650000Y-61700000D01*
G37*
G36*
X76900000Y-61700000D02*
G01*
X77050000Y-61700000D01*
X77050000Y-61750000D01*
X76900000Y-61750000D01*
X76900000Y-61700000D01*
G37*
G36*
X78150000Y-61700000D02*
G01*
X78300000Y-61700000D01*
X78300000Y-61750000D01*
X78150000Y-61750000D01*
X78150000Y-61700000D01*
G37*
G36*
X75800000Y-61750000D02*
G01*
X75900000Y-61750000D01*
X75900000Y-61800000D01*
X75800000Y-61800000D01*
X75800000Y-61750000D01*
G37*
G36*
X77050000Y-61750000D02*
G01*
X77150000Y-61750000D01*
X77150000Y-61800000D01*
X77050000Y-61800000D01*
X77050000Y-61750000D01*
G37*
G36*
X78300000Y-61750000D02*
G01*
X78400000Y-61750000D01*
X78400000Y-61800000D01*
X78300000Y-61800000D01*
X78300000Y-61750000D01*
G37*
G36*
X75900000Y-61800000D02*
G01*
X76050000Y-61800000D01*
X76050000Y-61850000D01*
X75900000Y-61850000D01*
X75900000Y-61800000D01*
G37*
G36*
X77150000Y-61800000D02*
G01*
X77300000Y-61800000D01*
X77300000Y-61850000D01*
X77150000Y-61850000D01*
X77150000Y-61800000D01*
G37*
G36*
X78400000Y-61800000D02*
G01*
X78550000Y-61800000D01*
X78550000Y-61850000D01*
X78400000Y-61850000D01*
X78400000Y-61800000D01*
G37*
G36*
X71100000Y-61850000D02*
G01*
X71250000Y-61850000D01*
X71250000Y-61900000D01*
X71100000Y-61900000D01*
X71100000Y-61850000D01*
G37*
G36*
X72350000Y-61850000D02*
G01*
X72600000Y-61850000D01*
X72600000Y-61900000D01*
X72350000Y-61900000D01*
X72350000Y-61850000D01*
G37*
G36*
X72350000Y-63850000D02*
G01*
X72600000Y-63850000D01*
X72600000Y-63900000D01*
X72350000Y-63900000D01*
X72350000Y-63850000D01*
G37*
G36*
X72350000Y-64100000D02*
G01*
X72600000Y-64100000D01*
X72600000Y-64150000D01*
X72350000Y-64150000D01*
X72350000Y-64100000D01*
G37*
G36*
X72850000Y-61850000D02*
G01*
X72900000Y-61850000D01*
X72900000Y-61900000D01*
X72850000Y-61900000D01*
X72850000Y-61850000D01*
G37*
G36*
X72850000Y-65450000D02*
G01*
X72900000Y-65450000D01*
X72900000Y-65550000D01*
X72850000Y-65550000D01*
X72850000Y-65450000D01*
G37*
G36*
X76000000Y-61850000D02*
G01*
X76150000Y-61850000D01*
X76150000Y-61900000D01*
X76000000Y-61900000D01*
X76000000Y-61850000D01*
G37*
G36*
X77250000Y-61850000D02*
G01*
X77400000Y-61850000D01*
X77400000Y-61900000D01*
X77250000Y-61900000D01*
X77250000Y-61850000D01*
G37*
G36*
X78500000Y-61850000D02*
G01*
X78650000Y-61850000D01*
X78650000Y-61900000D01*
X78500000Y-61900000D01*
X78500000Y-61850000D01*
G37*
G36*
X71200000Y-61900000D02*
G01*
X71350000Y-61900000D01*
X71350000Y-61950000D01*
X71200000Y-61950000D01*
X71200000Y-61900000D01*
G37*
G36*
X72350000Y-61900000D02*
G01*
X72400000Y-61900000D01*
X72400000Y-61950000D01*
X72350000Y-61950000D01*
X72350000Y-61900000D01*
G37*
G36*
X72350000Y-62150000D02*
G01*
X72400000Y-62150000D01*
X72400000Y-62200000D01*
X72350000Y-62200000D01*
X72350000Y-62150000D01*
G37*
G36*
X72550000Y-61900000D02*
G01*
X72650000Y-61900000D01*
X72650000Y-61950000D01*
X72550000Y-61950000D01*
X72550000Y-61900000D01*
G37*
G36*
X72550000Y-64800000D02*
G01*
X72650000Y-64800000D01*
X72650000Y-64900000D01*
X72550000Y-64900000D01*
X72550000Y-64800000D01*
G37*
G36*
X71350000Y-61950000D02*
G01*
X71450000Y-61950000D01*
X71450000Y-62000000D01*
X71350000Y-62000000D01*
X71350000Y-61950000D01*
G37*
G36*
X72300000Y-61950000D02*
G01*
X72350000Y-61950000D01*
X72350000Y-62150000D01*
X72300000Y-62150000D01*
X72300000Y-61950000D01*
G37*
G36*
X72300000Y-63450000D02*
G01*
X72350000Y-63450000D01*
X72350000Y-63500000D01*
X72300000Y-63500000D01*
X72300000Y-63450000D01*
G37*
G36*
X72300000Y-64200000D02*
G01*
X72350000Y-64200000D01*
X72350000Y-64400000D01*
X72300000Y-64400000D01*
X72300000Y-64200000D01*
G37*
G36*
X72300000Y-65250000D02*
G01*
X72350000Y-65250000D01*
X72350000Y-65350000D01*
X72300000Y-65350000D01*
X72300000Y-65250000D01*
G37*
G36*
X72300000Y-65450000D02*
G01*
X72350000Y-65450000D01*
X72350000Y-65550000D01*
X72300000Y-65550000D01*
X72300000Y-65450000D01*
G37*
G36*
X72600000Y-61950000D02*
G01*
X72650000Y-61950000D01*
X72650000Y-62050000D01*
X72600000Y-62050000D01*
X72600000Y-61950000D01*
G37*
G36*
X72600000Y-64200000D02*
G01*
X72650000Y-64200000D01*
X72650000Y-64400000D01*
X72600000Y-64400000D01*
X72600000Y-64200000D01*
G37*
G36*
X71550000Y-62050000D02*
G01*
X71700000Y-62050000D01*
X71700000Y-62100000D01*
X71550000Y-62100000D01*
X71550000Y-62050000D01*
G37*
G36*
X72650000Y-62050000D02*
G01*
X72700000Y-62050000D01*
X72700000Y-62100000D01*
X72650000Y-62100000D01*
X72650000Y-62050000D01*
G37*
G36*
X72850000Y-62050000D02*
G01*
X72950000Y-62050000D01*
X72950000Y-62100000D01*
X72850000Y-62100000D01*
X72850000Y-62050000D01*
G37*
G36*
X72850000Y-64150000D02*
G01*
X72950000Y-64150000D01*
X72950000Y-64200000D01*
X72850000Y-64200000D01*
X72850000Y-64150000D01*
G37*
G36*
X72650000Y-62100000D02*
G01*
X72900000Y-62100000D01*
X72900000Y-62150000D01*
X72650000Y-62150000D01*
X72650000Y-62100000D01*
G37*
G36*
X72650000Y-63750000D02*
G01*
X72900000Y-63750000D01*
X72900000Y-63800000D01*
X72650000Y-63800000D01*
X72650000Y-63750000D01*
G37*
G36*
X72650000Y-64100000D02*
G01*
X72900000Y-64100000D01*
X72900000Y-64150000D01*
X72650000Y-64150000D01*
X72650000Y-64100000D01*
G37*
G36*
X72700000Y-62150000D02*
G01*
X72850000Y-62150000D01*
X72850000Y-62200000D01*
X72700000Y-62200000D01*
X72700000Y-62150000D01*
G37*
G36*
X71100000Y-62300000D02*
G01*
X71350000Y-62300000D01*
X71350000Y-62350000D01*
X71100000Y-62350000D01*
X71100000Y-62300000D01*
G37*
G36*
X72100000Y-62300000D02*
G01*
X72150000Y-62300000D01*
X72150000Y-62850000D01*
X72100000Y-62850000D01*
X72100000Y-62300000D01*
G37*
G36*
X75750000Y-62300000D02*
G01*
X75850000Y-62300000D01*
X75850000Y-62400000D01*
X75750000Y-62400000D01*
X75750000Y-62300000D01*
G37*
G36*
X78250000Y-62300000D02*
G01*
X78350000Y-62300000D01*
X78350000Y-62400000D01*
X78250000Y-62400000D01*
X78250000Y-62300000D01*
G37*
G36*
X79500000Y-62300000D02*
G01*
X79600000Y-62300000D01*
X79600000Y-62400000D01*
X79500000Y-62400000D01*
X79500000Y-62300000D01*
G37*
G36*
X71050000Y-62350000D02*
G01*
X71350000Y-62350000D01*
X71350000Y-62400000D01*
X71050000Y-62400000D01*
X71050000Y-62350000D01*
G37*
G36*
X71300000Y-62400000D02*
G01*
X71350000Y-62400000D01*
X71350000Y-62500000D01*
X71300000Y-62500000D01*
X71300000Y-62400000D01*
G37*
G36*
X71150000Y-62650000D02*
G01*
X71600000Y-62650000D01*
X71600000Y-62700000D01*
X71150000Y-62700000D01*
X71150000Y-62650000D01*
G37*
G36*
X71250000Y-62700000D02*
G01*
X71500000Y-62700000D01*
X71500000Y-62750000D01*
X71250000Y-62750000D01*
X71250000Y-62700000D01*
G37*
G36*
X75500000Y-62800000D02*
G01*
X75550000Y-62800000D01*
X75550000Y-62850000D01*
X75500000Y-62850000D01*
X75500000Y-62800000D01*
G37*
G36*
X71300000Y-63050000D02*
G01*
X71400000Y-63050000D01*
X71400000Y-63150000D01*
X71300000Y-63150000D01*
X71300000Y-63050000D01*
G37*
G36*
X72300000Y-63100000D02*
G01*
X72950000Y-63100000D01*
X72950000Y-63150000D01*
X72300000Y-63150000D01*
X72300000Y-63100000D01*
G37*
G36*
X72300000Y-64400000D02*
G01*
X72950000Y-64400000D01*
X72950000Y-64450000D01*
X72300000Y-64450000D01*
X72300000Y-64400000D01*
G37*
G36*
X72300000Y-65350000D02*
G01*
X72950000Y-65350000D01*
X72950000Y-65450000D01*
X72300000Y-65450000D01*
X72300000Y-65350000D01*
G37*
G36*
X71400000Y-63500000D02*
G01*
X71600000Y-63500000D01*
X71600000Y-63550000D01*
X71400000Y-63550000D01*
X71400000Y-63500000D01*
G37*
G36*
X71350000Y-63550000D02*
G01*
X71650000Y-63550000D01*
X71650000Y-63600000D01*
X71350000Y-63600000D01*
X71350000Y-63550000D01*
G37*
G36*
X72450000Y-63550000D02*
G01*
X72650000Y-63550000D01*
X72650000Y-63600000D01*
X72450000Y-63600000D01*
X72450000Y-63550000D01*
G37*
G36*
X71250000Y-63600000D02*
G01*
X71400000Y-63600000D01*
X71400000Y-63650000D01*
X71250000Y-63650000D01*
X71250000Y-63600000D01*
G37*
G36*
X72550000Y-63600000D02*
G01*
X72800000Y-63600000D01*
X72800000Y-63650000D01*
X72550000Y-63650000D01*
X72550000Y-63600000D01*
G37*
G36*
X71200000Y-63650000D02*
G01*
X71300000Y-63650000D01*
X71300000Y-63700000D01*
X71200000Y-63700000D01*
X71200000Y-63650000D01*
G37*
G36*
X71200000Y-67500000D02*
G01*
X71300000Y-67500000D01*
X71300000Y-67950000D01*
X71200000Y-67950000D01*
X71200000Y-67500000D01*
G37*
G36*
X72550000Y-63650000D02*
G01*
X72600000Y-63650000D01*
X72600000Y-63800000D01*
X72550000Y-63800000D01*
X72550000Y-63650000D01*
G37*
G36*
X71150000Y-63700000D02*
G01*
X71250000Y-63700000D01*
X71250000Y-63750000D01*
X71150000Y-63750000D01*
X71150000Y-63700000D01*
G37*
G36*
X72800000Y-63700000D02*
G01*
X72950000Y-63700000D01*
X72950000Y-63750000D01*
X72800000Y-63750000D01*
X72800000Y-63700000D01*
G37*
G36*
X71050000Y-63750000D02*
G01*
X71200000Y-63750000D01*
X71200000Y-63800000D01*
X71050000Y-63800000D01*
X71050000Y-63750000D01*
G37*
G36*
X71600000Y-63800000D02*
G01*
X71650000Y-63800000D01*
X71650000Y-63850000D01*
X71600000Y-63850000D01*
X71600000Y-63800000D01*
G37*
G36*
X71600000Y-67550000D02*
G01*
X71650000Y-67550000D01*
X71650000Y-67600000D01*
X71600000Y-67600000D01*
X71600000Y-67550000D01*
G37*
G36*
X71600000Y-67850000D02*
G01*
X71650000Y-67850000D01*
X71650000Y-67900000D01*
X71600000Y-67900000D01*
X71600000Y-67850000D01*
G37*
G36*
X72300000Y-63900000D02*
G01*
X72450000Y-63900000D01*
X72450000Y-63950000D01*
X72300000Y-63950000D01*
X72300000Y-63900000D01*
G37*
G36*
X72400000Y-64050000D02*
G01*
X72550000Y-64050000D01*
X72550000Y-64100000D01*
X72400000Y-64100000D01*
X72400000Y-64050000D01*
G37*
G36*
X72750000Y-64050000D02*
G01*
X72800000Y-64050000D01*
X72800000Y-64100000D01*
X72750000Y-64100000D01*
X72750000Y-64050000D01*
G37*
G36*
X72300000Y-64150000D02*
G01*
X72400000Y-64150000D01*
X72400000Y-64200000D01*
X72300000Y-64200000D01*
X72300000Y-64150000D01*
G37*
G36*
X72550000Y-64150000D02*
G01*
X72700000Y-64150000D01*
X72700000Y-64200000D01*
X72550000Y-64200000D01*
X72550000Y-64150000D01*
G37*
G36*
X69500000Y-67350000D02*
G01*
X69700000Y-67350000D01*
X69700000Y-67400000D01*
X69500000Y-67400000D01*
X69500000Y-67350000D01*
G37*
G36*
X69900000Y-67350000D02*
G01*
X70450000Y-67350000D01*
X70450000Y-67400000D01*
X69900000Y-67400000D01*
X69900000Y-67350000D01*
G37*
G36*
X70650000Y-67350000D02*
G01*
X70700000Y-67350000D01*
X70700000Y-67950000D01*
X70650000Y-67950000D01*
X70650000Y-67350000D01*
G37*
G36*
X70950000Y-67350000D02*
G01*
X71050000Y-67350000D01*
X71050000Y-67950000D01*
X70950000Y-67950000D01*
X70950000Y-67350000D01*
G37*
G36*
X71350000Y-67350000D02*
G01*
X71550000Y-67350000D01*
X71550000Y-67400000D01*
X71350000Y-67400000D01*
X71350000Y-67350000D01*
G37*
G36*
X71350000Y-68050000D02*
G01*
X71550000Y-68050000D01*
X71550000Y-68100000D01*
X71350000Y-68100000D01*
X71350000Y-68050000D01*
G37*
G36*
X72450000Y-67350000D02*
G01*
X73000000Y-67350000D01*
X73000000Y-67400000D01*
X72450000Y-67400000D01*
X72450000Y-67350000D01*
G37*
G36*
X73300000Y-67350000D02*
G01*
X73400000Y-67350000D01*
X73400000Y-67400000D01*
X73300000Y-67400000D01*
X73300000Y-67350000D01*
G37*
G36*
X75100000Y-67350000D02*
G01*
X75200000Y-67350000D01*
X75200000Y-68000000D01*
X75100000Y-68000000D01*
X75100000Y-67350000D01*
G37*
G36*
X69500000Y-67400000D02*
G01*
X69750000Y-67400000D01*
X69750000Y-67450000D01*
X69500000Y-67450000D01*
X69500000Y-67400000D01*
G37*
G36*
X70150000Y-67400000D02*
G01*
X70250000Y-67400000D01*
X70250000Y-68100000D01*
X70150000Y-68100000D01*
X70150000Y-67400000D01*
G37*
G36*
X71250000Y-67400000D02*
G01*
X71350000Y-67400000D01*
X71350000Y-67450000D01*
X71250000Y-67450000D01*
X71250000Y-67400000D01*
G37*
G36*
X71250000Y-68000000D02*
G01*
X71350000Y-68000000D01*
X71350000Y-68050000D01*
X71250000Y-68050000D01*
X71250000Y-68000000D01*
G37*
G36*
X71500000Y-67400000D02*
G01*
X71600000Y-67400000D01*
X71600000Y-67450000D01*
X71500000Y-67450000D01*
X71500000Y-67400000D01*
G37*
G36*
X71500000Y-68000000D02*
G01*
X71600000Y-68000000D01*
X71600000Y-68050000D01*
X71500000Y-68050000D01*
X71500000Y-68000000D01*
G37*
G36*
X72700000Y-67400000D02*
G01*
X72800000Y-67400000D01*
X72800000Y-68100000D01*
X72700000Y-68100000D01*
X72700000Y-67400000D01*
G37*
G36*
X73250000Y-67400000D02*
G01*
X73400000Y-67400000D01*
X73400000Y-67500000D01*
X73250000Y-67500000D01*
X73250000Y-67400000D01*
G37*
G36*
X69500000Y-67450000D02*
G01*
X69600000Y-67450000D01*
X69600000Y-68050000D01*
X69500000Y-68050000D01*
X69500000Y-67450000D01*
G37*
G36*
X69650000Y-67450000D02*
G01*
X69750000Y-67450000D01*
X69750000Y-67500000D01*
X69650000Y-67500000D01*
X69650000Y-67450000D01*
G37*
G36*
X71250000Y-67450000D02*
G01*
X71300000Y-67450000D01*
X71300000Y-67500000D01*
X71250000Y-67500000D01*
X71250000Y-67450000D01*
G37*
G36*
X71250000Y-67950000D02*
G01*
X71300000Y-67950000D01*
X71300000Y-68000000D01*
X71250000Y-68000000D01*
X71250000Y-67950000D01*
G37*
G36*
X73250000Y-67500000D02*
G01*
X73300000Y-67500000D01*
X73300000Y-67550000D01*
X73250000Y-67550000D01*
X73250000Y-67500000D01*
G37*
G36*
X73350000Y-67500000D02*
G01*
X73450000Y-67500000D01*
X73450000Y-67600000D01*
X73350000Y-67600000D01*
X73350000Y-67500000D01*
G37*
G36*
X73200000Y-67550000D02*
G01*
X73300000Y-67550000D01*
X73300000Y-67650000D01*
X73200000Y-67650000D01*
X73200000Y-67550000D01*
G37*
G36*
X73400000Y-67600000D02*
G01*
X73450000Y-67600000D01*
X73450000Y-67650000D01*
X73400000Y-67650000D01*
X73400000Y-67600000D01*
G37*
G36*
X73200000Y-67650000D02*
G01*
X73250000Y-67650000D01*
X73250000Y-67700000D01*
X73200000Y-67700000D01*
X73200000Y-67650000D01*
G37*
G36*
X73400000Y-67650000D02*
G01*
X73500000Y-67650000D01*
X73500000Y-67800000D01*
X73400000Y-67800000D01*
X73400000Y-67650000D01*
G37*
G36*
X73150000Y-67700000D02*
G01*
X73250000Y-67700000D01*
X73250000Y-67800000D01*
X73150000Y-67800000D01*
X73150000Y-67700000D01*
G37*
G36*
X73150000Y-67800000D02*
G01*
X73500000Y-67800000D01*
X73500000Y-67850000D01*
X73150000Y-67850000D01*
X73150000Y-67800000D01*
G37*
G36*
X60450000Y-67850000D02*
G01*
X60650000Y-67850000D01*
X60650000Y-67900000D01*
X60450000Y-67900000D01*
X60450000Y-67850000D01*
G37*
G36*
X60950000Y-67850000D02*
G01*
X61050000Y-67850000D01*
X61050000Y-68400000D01*
X60950000Y-68400000D01*
X60950000Y-67850000D01*
G37*
G36*
X60950000Y-68550000D02*
G01*
X61050000Y-68550000D01*
X61050000Y-68600000D01*
X60950000Y-68600000D01*
X60950000Y-68550000D01*
G37*
G36*
X61300000Y-67850000D02*
G01*
X61400000Y-67850000D01*
X61400000Y-67950000D01*
X61300000Y-67950000D01*
X61300000Y-67850000D01*
G37*
G36*
X61300000Y-68100000D02*
G01*
X61400000Y-68100000D01*
X61400000Y-68600000D01*
X61300000Y-68600000D01*
X61300000Y-68100000D01*
G37*
G36*
X61600000Y-67850000D02*
G01*
X61950000Y-67850000D01*
X61950000Y-67900000D01*
X61600000Y-67900000D01*
X61600000Y-67850000D01*
G37*
G36*
X61600000Y-68550000D02*
G01*
X61950000Y-68550000D01*
X61950000Y-68600000D01*
X61600000Y-68600000D01*
X61600000Y-68550000D01*
G37*
G36*
X62800000Y-67850000D02*
G01*
X63350000Y-67850000D01*
X63350000Y-67900000D01*
X62800000Y-67900000D01*
X62800000Y-67850000D01*
G37*
G36*
X63650000Y-67850000D02*
G01*
X63750000Y-67850000D01*
X63750000Y-67900000D01*
X63650000Y-67900000D01*
X63650000Y-67850000D01*
G37*
G36*
X64200000Y-67850000D02*
G01*
X64550000Y-67850000D01*
X64550000Y-67900000D01*
X64200000Y-67900000D01*
X64200000Y-67850000D01*
G37*
G36*
X64200000Y-68200000D02*
G01*
X64550000Y-68200000D01*
X64550000Y-68250000D01*
X64200000Y-68250000D01*
X64200000Y-68200000D01*
G37*
G36*
X64200000Y-68550000D02*
G01*
X64550000Y-68550000D01*
X64550000Y-68600000D01*
X64200000Y-68600000D01*
X64200000Y-68550000D01*
G37*
G36*
X65450000Y-67850000D02*
G01*
X65550000Y-67850000D01*
X65550000Y-68500000D01*
X65450000Y-68500000D01*
X65450000Y-67850000D01*
G37*
G36*
X73100000Y-67850000D02*
G01*
X73200000Y-67850000D01*
X73200000Y-68000000D01*
X73100000Y-68000000D01*
X73100000Y-67850000D01*
G37*
G36*
X73450000Y-67850000D02*
G01*
X73500000Y-67850000D01*
X73500000Y-67900000D01*
X73450000Y-67900000D01*
X73450000Y-67850000D01*
G37*
G36*
X60450000Y-67900000D02*
G01*
X60700000Y-67900000D01*
X60700000Y-67950000D01*
X60450000Y-67950000D01*
X60450000Y-67900000D01*
G37*
G36*
X63600000Y-67900000D02*
G01*
X63750000Y-67900000D01*
X63750000Y-68000000D01*
X63600000Y-68000000D01*
X63600000Y-67900000D01*
G37*
G36*
X64150000Y-67900000D02*
G01*
X64250000Y-67900000D01*
X64250000Y-67950000D01*
X64150000Y-67950000D01*
X64150000Y-67900000D01*
G37*
G36*
X64150000Y-68150000D02*
G01*
X64250000Y-68150000D01*
X64250000Y-68200000D01*
X64150000Y-68200000D01*
X64150000Y-68150000D01*
G37*
G36*
X64150000Y-68250000D02*
G01*
X64250000Y-68250000D01*
X64250000Y-68300000D01*
X64150000Y-68300000D01*
X64150000Y-68250000D01*
G37*
G36*
X64150000Y-68500000D02*
G01*
X64250000Y-68500000D01*
X64250000Y-68550000D01*
X64150000Y-68550000D01*
X64150000Y-68500000D01*
G37*
G36*
X60450000Y-67950000D02*
G01*
X60550000Y-67950000D01*
X60550000Y-68550000D01*
X60450000Y-68550000D01*
X60450000Y-67950000D01*
G37*
G36*
X60600000Y-67950000D02*
G01*
X60700000Y-67950000D01*
X60700000Y-68000000D01*
X60600000Y-68000000D01*
X60600000Y-67950000D01*
G37*
G36*
X61250000Y-67950000D02*
G01*
X61400000Y-67950000D01*
X61400000Y-68050000D01*
X61250000Y-68050000D01*
X61250000Y-67950000D01*
G37*
G36*
X64150000Y-67950000D02*
G01*
X64200000Y-67950000D01*
X64200000Y-68000000D01*
X64150000Y-68000000D01*
X64150000Y-67950000D01*
G37*
G36*
X64150000Y-68100000D02*
G01*
X64200000Y-68100000D01*
X64200000Y-68150000D01*
X64150000Y-68150000D01*
X64150000Y-68100000D01*
G37*
G36*
X70650000Y-67950000D02*
G01*
X70750000Y-67950000D01*
X70750000Y-68050000D01*
X70650000Y-68050000D01*
X70650000Y-67950000D01*
G37*
G36*
X70950000Y-67950000D02*
G01*
X71000000Y-67950000D01*
X71000000Y-68000000D01*
X70950000Y-68000000D01*
X70950000Y-67950000D01*
G37*
G36*
X63700000Y-68000000D02*
G01*
X63800000Y-68000000D01*
X63800000Y-68100000D01*
X63700000Y-68100000D01*
X63700000Y-68000000D01*
G37*
G36*
X64100000Y-68000000D02*
G01*
X64200000Y-68000000D01*
X64200000Y-68100000D01*
X64100000Y-68100000D01*
X64100000Y-68000000D01*
G37*
G36*
X64100000Y-68300000D02*
G01*
X64200000Y-68300000D01*
X64200000Y-68500000D01*
X64100000Y-68500000D01*
X64100000Y-68300000D01*
G37*
G36*
X70900000Y-68000000D02*
G01*
X71000000Y-68000000D01*
X71000000Y-68050000D01*
X70900000Y-68050000D01*
X70900000Y-68000000D01*
G37*
G36*
X73050000Y-68000000D02*
G01*
X73150000Y-68000000D01*
X73150000Y-68100000D01*
X73050000Y-68100000D01*
X73050000Y-68000000D01*
G37*
G36*
X75150000Y-68000000D02*
G01*
X75250000Y-68000000D01*
X75250000Y-68050000D01*
X75150000Y-68050000D01*
X75150000Y-68000000D01*
G37*
G36*
X75400000Y-68000000D02*
G01*
X75450000Y-68000000D01*
X75450000Y-68050000D01*
X75400000Y-68050000D01*
X75400000Y-68000000D01*
G37*
G36*
X61200000Y-68050000D02*
G01*
X61400000Y-68050000D01*
X61400000Y-68100000D01*
X61200000Y-68100000D01*
X61200000Y-68050000D01*
G37*
G36*
X69400000Y-68050000D02*
G01*
X69750000Y-68050000D01*
X69750000Y-68100000D01*
X69400000Y-68100000D01*
X69400000Y-68050000D01*
G37*
G36*
X70700000Y-68050000D02*
G01*
X70950000Y-68050000D01*
X70950000Y-68100000D01*
X70700000Y-68100000D01*
X70700000Y-68050000D01*
G37*
G36*
X75200000Y-68050000D02*
G01*
X75400000Y-68050000D01*
X75400000Y-68100000D01*
X75200000Y-68100000D01*
X75200000Y-68050000D01*
G37*
G36*
X61200000Y-68100000D02*
G01*
X61250000Y-68100000D01*
X61250000Y-68150000D01*
X61200000Y-68150000D01*
X61200000Y-68100000D01*
G37*
G36*
X63750000Y-68100000D02*
G01*
X63800000Y-68100000D01*
X63800000Y-68150000D01*
X63750000Y-68150000D01*
X63750000Y-68100000D01*
G37*
G36*
X61150000Y-68150000D02*
G01*
X61250000Y-68150000D01*
X61250000Y-68200000D01*
X61150000Y-68200000D01*
X61150000Y-68150000D01*
G37*
G36*
X63550000Y-68150000D02*
G01*
X63600000Y-68150000D01*
X63600000Y-68200000D01*
X63550000Y-68200000D01*
X63550000Y-68150000D01*
G37*
G36*
X63750000Y-68150000D02*
G01*
X63850000Y-68150000D01*
X63850000Y-68300000D01*
X63750000Y-68300000D01*
X63750000Y-68150000D01*
G37*
G36*
X61150000Y-68200000D02*
G01*
X61200000Y-68200000D01*
X61200000Y-68250000D01*
X61150000Y-68250000D01*
X61150000Y-68200000D01*
G37*
G36*
X61100000Y-68250000D02*
G01*
X61200000Y-68250000D01*
X61200000Y-68350000D01*
X61100000Y-68350000D01*
X61100000Y-68250000D01*
G37*
G36*
X63500000Y-68300000D02*
G01*
X63900000Y-68300000D01*
X63900000Y-68350000D01*
X63500000Y-68350000D01*
X63500000Y-68300000D01*
G37*
G36*
X71750000Y-68300000D02*
G01*
X72400000Y-68300000D01*
X72400000Y-68350000D01*
X71750000Y-68350000D01*
X71750000Y-68300000D01*
G37*
G36*
X63450000Y-68350000D02*
G01*
X63550000Y-68350000D01*
X63550000Y-68500000D01*
X63450000Y-68500000D01*
X63450000Y-68350000D01*
G37*
G36*
X63800000Y-68350000D02*
G01*
X63900000Y-68350000D01*
X63900000Y-68400000D01*
X63800000Y-68400000D01*
X63800000Y-68350000D01*
G37*
G36*
X63850000Y-68400000D02*
G01*
X63900000Y-68400000D01*
X63900000Y-68450000D01*
X63850000Y-68450000D01*
X63850000Y-68400000D01*
G37*
G36*
X60950000Y-68450000D02*
G01*
X61100000Y-68450000D01*
X61100000Y-68550000D01*
X60950000Y-68550000D01*
X60950000Y-68450000D01*
G37*
G36*
X63850000Y-68450000D02*
G01*
X63950000Y-68450000D01*
X63950000Y-68550000D01*
X63850000Y-68550000D01*
X63850000Y-68450000D01*
G37*
G36*
X63400000Y-68500000D02*
G01*
X63500000Y-68500000D01*
X63500000Y-68600000D01*
X63400000Y-68600000D01*
X63400000Y-68500000D01*
G37*
G36*
X65500000Y-68500000D02*
G01*
X65600000Y-68500000D01*
X65600000Y-68550000D01*
X65500000Y-68550000D01*
X65500000Y-68500000D01*
G37*
G36*
X65750000Y-68500000D02*
G01*
X65800000Y-68500000D01*
X65800000Y-68550000D01*
X65750000Y-68550000D01*
X65750000Y-68500000D01*
G37*
G36*
X60350000Y-68550000D02*
G01*
X60700000Y-68550000D01*
X60700000Y-68600000D01*
X60350000Y-68600000D01*
X60350000Y-68550000D01*
G37*
G36*
X63900000Y-68550000D02*
G01*
X63950000Y-68550000D01*
X63950000Y-68600000D01*
X63900000Y-68600000D01*
X63900000Y-68550000D01*
G37*
G36*
X65550000Y-68550000D02*
G01*
X65750000Y-68550000D01*
X65750000Y-68600000D01*
X65550000Y-68600000D01*
X65550000Y-68550000D01*
G37*
G36*
X62100000Y-68800000D02*
G01*
X62750000Y-68800000D01*
X62750000Y-68850000D01*
X62100000Y-68850000D01*
X62100000Y-68800000D01*
G37*
G36*
X64600000Y-68800000D02*
G01*
X65250000Y-68800000D01*
X65250000Y-68850000D01*
X64600000Y-68850000D01*
X64600000Y-68800000D01*
G37*
G36*
X63300000Y-70250000D02*
G01*
X63350000Y-70250000D01*
X63350000Y-70450000D01*
X63300000Y-70450000D01*
X63300000Y-70250000D01*
G37*
G36*
X63300000Y-70500000D02*
G01*
X63350000Y-70500000D01*
X63350000Y-70700000D01*
X63300000Y-70700000D01*
X63300000Y-70500000D01*
G37*
G36*
X63300000Y-72100000D02*
G01*
X63350000Y-72100000D01*
X63350000Y-72300000D01*
X63300000Y-72300000D01*
X63300000Y-72100000D01*
G37*
G36*
X61900000Y-70800000D02*
G01*
X62250000Y-70800000D01*
X62250000Y-70850000D01*
X61900000Y-70850000D01*
X61900000Y-70800000D01*
G37*
G36*
X61850000Y-70850000D02*
G01*
X62000000Y-70850000D01*
X62000000Y-70900000D01*
X61850000Y-70900000D01*
X61850000Y-70850000D01*
G37*
G36*
X63000000Y-71400000D02*
G01*
X63200000Y-71400000D01*
X63200000Y-71450000D01*
X63000000Y-71450000D01*
X63000000Y-71400000D01*
G37*
G36*
X63150000Y-71450000D02*
G01*
X63350000Y-71450000D01*
X63350000Y-71500000D01*
X63150000Y-71500000D01*
X63150000Y-71450000D01*
G37*
G36*
X61800000Y-71500000D02*
G01*
X61950000Y-71500000D01*
X61950000Y-71550000D01*
X61800000Y-71550000D01*
X61800000Y-71500000D01*
G37*
G36*
X63250000Y-71500000D02*
G01*
X63500000Y-71500000D01*
X63500000Y-71550000D01*
X63250000Y-71550000D01*
X63250000Y-71500000D01*
G37*
G36*
X61900000Y-71550000D02*
G01*
X62050000Y-71550000D01*
X62050000Y-71600000D01*
X61900000Y-71600000D01*
X61900000Y-71550000D01*
G37*
G36*
X63450000Y-71550000D02*
G01*
X63650000Y-71550000D01*
X63650000Y-71600000D01*
X63450000Y-71600000D01*
X63450000Y-71550000D01*
G37*
G36*
X62050000Y-71600000D02*
G01*
X62150000Y-71600000D01*
X62150000Y-71650000D01*
X62050000Y-71650000D01*
X62050000Y-71600000D01*
G37*
G36*
X63350000Y-71650000D02*
G01*
X63600000Y-71650000D01*
X63600000Y-71700000D01*
X63350000Y-71700000D01*
X63350000Y-71650000D01*
G37*
G36*
X63350000Y-72000000D02*
G01*
X63600000Y-72000000D01*
X63600000Y-72050000D01*
X63350000Y-72050000D01*
X63350000Y-72000000D01*
G37*
G36*
X62250000Y-71700000D02*
G01*
X62400000Y-71700000D01*
X62400000Y-71750000D01*
X62250000Y-71750000D01*
X62250000Y-71700000D01*
G37*
G36*
X63250000Y-71700000D02*
G01*
X63450000Y-71700000D01*
X63450000Y-71750000D01*
X63250000Y-71750000D01*
X63250000Y-71700000D01*
G37*
G36*
X63000000Y-71800000D02*
G01*
X63150000Y-71800000D01*
X63150000Y-71850000D01*
X63000000Y-71850000D01*
X63000000Y-71800000D01*
G37*
G36*
X63450000Y-71950000D02*
G01*
X63500000Y-71950000D01*
X63500000Y-72000000D01*
X63450000Y-72000000D01*
X63450000Y-71950000D01*
G37*
G36*
X61750000Y-72000000D02*
G01*
X62050000Y-72000000D01*
X62050000Y-72050000D01*
X61750000Y-72050000D01*
X61750000Y-72000000D01*
G37*
G36*
X63250000Y-72050000D02*
G01*
X63400000Y-72050000D01*
X63400000Y-72100000D01*
X63250000Y-72100000D01*
X63250000Y-72050000D01*
G37*
%TO.C,J_BAT_IN1*%
D10*
X60015000Y-74290000D02*
X61815000Y-74290000D01*
X60015000Y-75740000D02*
X60015000Y-74290000D01*
X61285000Y-78560000D02*
X64715000Y-78560000D01*
X61815000Y-74290000D02*
X61815000Y-73300000D01*
X65985000Y-74290000D02*
X64185000Y-74290000D01*
X65985000Y-75740000D02*
X65985000Y-74290000D01*
%TO.C,J_I2C1*%
X58765000Y-61290000D02*
X60565000Y-61290000D01*
X58765000Y-62740000D02*
X58765000Y-61290000D01*
X60035000Y-65560000D02*
X65965000Y-65560000D01*
X60565000Y-61290000D02*
X60565000Y-60300000D01*
X67235000Y-61290000D02*
X65435000Y-61290000D01*
X67235000Y-62740000D02*
X67235000Y-61290000D01*
%TO.C,J_BAT_OUT1*%
X69315000Y-56790000D02*
X71115000Y-56790000D01*
X69315000Y-58240000D02*
X69315000Y-56790000D01*
X70585000Y-61060000D02*
X74015000Y-61060000D01*
X71115000Y-56790000D02*
X71115000Y-55800000D01*
X75285000Y-56790000D02*
X73485000Y-56790000D01*
X75285000Y-58240000D02*
X75285000Y-56790000D01*
%TO.C,J_EXP1*%
X73765000Y-63890000D02*
X75565000Y-63890000D01*
X73765000Y-65340000D02*
X73765000Y-63890000D01*
X75035000Y-68160000D02*
X80965000Y-68160000D01*
X75565000Y-63890000D02*
X75565000Y-62900000D01*
X82235000Y-63890000D02*
X80435000Y-63890000D01*
X82235000Y-65340000D02*
X82235000Y-63890000D01*
%TD*%
%LPC*%
D11*
%TO.C,SW_MUTE1*%
X56500000Y-87980000D03*
X59500000Y-87980000D03*
%TD*%
%TO.C,SW_PWR1*%
X18500000Y-87980000D03*
X21500000Y-87980000D03*
%TD*%
D12*
%TO.C,H1*%
X64500000Y-56000000D03*
%TD*%
%TO.C,H2*%
X66000000Y-84000000D03*
%TD*%
D13*
%TO.C,J_BAT_IN1*%
X62375000Y-74150000D03*
X63625000Y-74150000D03*
D14*
X60525000Y-77350000D03*
X65475000Y-77350000D03*
%TD*%
D13*
%TO.C,J_I2C1*%
X61125000Y-61150000D03*
X62375000Y-61150000D03*
X63625000Y-61150000D03*
X64875000Y-61150000D03*
D14*
X59275000Y-64350000D03*
X66725000Y-64350000D03*
%TD*%
D13*
%TO.C,J_BAT_OUT1*%
X71675000Y-56650000D03*
X72925000Y-56650000D03*
D14*
X69825000Y-59850000D03*
X74775000Y-59850000D03*
%TD*%
D13*
%TO.C,J_EXP1*%
X76125000Y-63750000D03*
X77375000Y-63750000D03*
X78625000Y-63750000D03*
X79875000Y-63750000D03*
D14*
X74275000Y-66950000D03*
X81725000Y-66950000D03*
%TD*%
%LPD*%
M02*
