%TF.GenerationSoftware,KiCad,Pcbnew,10.0.4*%
%TF.CreationDate,2026-07-31T16:10:00+02:00*%
%TF.ProjectId,pocket_card_controller,706f636b-6574-45f6-9361-72645f636f6e,rev?*%
%TF.SameCoordinates,Original*%
%TF.FileFunction,Other,User*%
%FSLAX46Y46*%
G04 Gerber Fmt 4.6, Leading zero omitted, Abs format (unit mm)*
G04 Created by KiCad (PCBNEW 10.0.4) date 2026-07-31 16:10:00*
%MOMM*%
%LPD*%
G01*
G04 APERTURE LIST*
%ADD10C,0.050000*%
G04 APERTURE END LIST*
%TO.C,SW_RIGHT*%
D10*
X24800000Y-71050000D02*
X24800000Y-65550000D01*
X32600000Y-65550000D02*
X24800000Y-65550000D01*
X32600000Y-71050000D02*
X24800000Y-71050000D01*
X32600000Y-71050000D02*
X32600000Y-65550000D01*
%TO.C,SW_MUTE*%
X61600000Y-86050000D02*
X70400000Y-86050000D01*
X61600000Y-90600000D02*
X61600000Y-86050000D01*
X64350000Y-90600000D02*
X61600000Y-90600000D01*
X64350000Y-91900000D02*
X64350000Y-90600000D01*
X67650000Y-90600000D02*
X67650000Y-91900000D01*
X67650000Y-91900000D02*
X64350000Y-91900000D01*
X70400000Y-86050000D02*
X70400000Y-90600000D01*
X70400000Y-90600000D02*
X67650000Y-90600000D01*
%TO.C,SW_UNDO*%
X56500000Y-68050000D02*
X56500000Y-62550000D01*
X64300000Y-62550000D02*
X56500000Y-62550000D01*
X64300000Y-68050000D02*
X56500000Y-68050000D01*
X64300000Y-68050000D02*
X64300000Y-62550000D01*
%TO.C,J_I2C*%
X9270000Y-51300000D02*
X11280000Y-51300000D01*
X9270000Y-55000000D02*
X9270000Y-51300000D01*
X9370000Y-55000000D02*
X9270000Y-55000000D01*
X9370000Y-56600000D02*
X9370000Y-55000000D01*
X11280000Y-51300000D02*
X11280000Y-51550000D01*
X11280000Y-51550000D02*
X16720000Y-51550000D01*
X11320000Y-56600000D02*
X9370000Y-56600000D01*
X11320000Y-57700000D02*
X11320000Y-56600000D01*
X16680000Y-56600000D02*
X16680000Y-57700000D01*
X16680000Y-57700000D02*
X11320000Y-57700000D01*
X16720000Y-51300000D02*
X18730000Y-51300000D01*
X16720000Y-51550000D02*
X16720000Y-51300000D01*
X18630000Y-55000000D02*
X18630000Y-56600000D01*
X18630000Y-56600000D02*
X16680000Y-56600000D01*
X18730000Y-51300000D02*
X18730000Y-55000000D01*
X18730000Y-55000000D02*
X18630000Y-55000000D01*
%TO.C,SW_MENU*%
X35700000Y-87650000D02*
X35700000Y-82150000D01*
X43500000Y-82150000D02*
X35700000Y-82150000D01*
X43500000Y-87650000D02*
X35700000Y-87650000D01*
X43500000Y-87650000D02*
X43500000Y-82150000D01*
%TO.C,J_BAT*%
X40520000Y-51300000D02*
X42530000Y-51300000D01*
X40520000Y-55000000D02*
X40520000Y-51300000D01*
X40620000Y-55000000D02*
X40520000Y-55000000D01*
X40620000Y-56600000D02*
X40620000Y-55000000D01*
X42530000Y-51300000D02*
X42530000Y-51550000D01*
X42530000Y-51550000D02*
X45470000Y-51550000D01*
X42570000Y-56600000D02*
X40620000Y-56600000D01*
X42570000Y-57700000D02*
X42570000Y-56600000D01*
X45430000Y-56600000D02*
X45430000Y-57700000D01*
X45430000Y-57700000D02*
X42570000Y-57700000D01*
X45470000Y-51300000D02*
X47480000Y-51300000D01*
X45470000Y-51550000D02*
X45470000Y-51300000D01*
X47380000Y-55000000D02*
X47380000Y-56600000D01*
X47380000Y-56600000D02*
X45430000Y-56600000D01*
X47480000Y-51300000D02*
X47480000Y-55000000D01*
X47480000Y-55000000D02*
X47380000Y-55000000D01*
%TO.C,TP_GND*%
X68250000Y-58500000D02*
G75*
G02*
X65750000Y-58500000I-1250000J0D01*
G01*
X65750000Y-58500000D02*
G75*
G02*
X68250000Y-58500000I1250000J0D01*
G01*
%TO.C,SW_ACTION*%
X73200000Y-63350000D02*
X73200000Y-57850000D01*
X81000000Y-57850000D02*
X73200000Y-57850000D01*
X81000000Y-63350000D02*
X73200000Y-63350000D01*
X81000000Y-63350000D02*
X81000000Y-57850000D01*
%TO.C,SW_UP*%
X15800000Y-62050000D02*
X15800000Y-56550000D01*
X23600000Y-56550000D02*
X15800000Y-56550000D01*
X23600000Y-62050000D02*
X15800000Y-62050000D01*
X23600000Y-62050000D02*
X23600000Y-56550000D01*
%TO.C,TP_INT*%
X77250000Y-58500000D02*
G75*
G02*
X74750000Y-58500000I-1250000J0D01*
G01*
X74750000Y-58500000D02*
G75*
G02*
X77250000Y-58500000I1250000J0D01*
G01*
%TO.C,U1*%
X20800000Y-58000000D02*
X21190000Y-58000000D01*
X20800000Y-66000000D02*
X20800000Y-58000000D01*
X21190000Y-56070000D02*
X38810000Y-56070000D01*
X21190000Y-58000000D02*
X21190000Y-56070000D01*
X21190000Y-66000000D02*
X20800000Y-66000000D01*
X21190000Y-67930000D02*
X21190000Y-66000000D01*
X38810000Y-56070000D02*
X38810000Y-58000000D01*
X38810000Y-58000000D02*
X39200000Y-58000000D01*
X38810000Y-66000000D02*
X38810000Y-67930000D01*
X38810000Y-67930000D02*
X21190000Y-67930000D01*
X39200000Y-58000000D02*
X39200000Y-66000000D01*
X39200000Y-66000000D02*
X38810000Y-66000000D01*
%TO.C,H2*%
X74950000Y-88000000D02*
G75*
G02*
X70050000Y-88000000I-2450000J0D01*
G01*
X70050000Y-88000000D02*
G75*
G02*
X74950000Y-88000000I2450000J0D01*
G01*
%TO.C,TP_SDA*%
X71250000Y-58500000D02*
G75*
G02*
X68750000Y-58500000I-1250000J0D01*
G01*
X68750000Y-58500000D02*
G75*
G02*
X71250000Y-58500000I1250000J0D01*
G01*
%TO.C,J_SPK*%
X26520000Y-51300000D02*
X28530000Y-51300000D01*
X26520000Y-55000000D02*
X26520000Y-51300000D01*
X26620000Y-55000000D02*
X26520000Y-55000000D01*
X26620000Y-56600000D02*
X26620000Y-55000000D01*
X28530000Y-51300000D02*
X28530000Y-51550000D01*
X28530000Y-51550000D02*
X31470000Y-51550000D01*
X28570000Y-56600000D02*
X26620000Y-56600000D01*
X28570000Y-57700000D02*
X28570000Y-56600000D01*
X31430000Y-56600000D02*
X31430000Y-57700000D01*
X31430000Y-57700000D02*
X28570000Y-57700000D01*
X31470000Y-51300000D02*
X33480000Y-51300000D01*
X31470000Y-51550000D02*
X31470000Y-51300000D01*
X33380000Y-55000000D02*
X33380000Y-56600000D01*
X33380000Y-56600000D02*
X31430000Y-56600000D01*
X33480000Y-51300000D02*
X33480000Y-55000000D01*
X33480000Y-55000000D02*
X33380000Y-55000000D01*
%TO.C,TP_3V3*%
X65250000Y-58500000D02*
G75*
G02*
X62750000Y-58500000I-1250000J0D01*
G01*
X62750000Y-58500000D02*
G75*
G02*
X65250000Y-58500000I1250000J0D01*
G01*
%TO.C,SW_DOWN*%
X15800000Y-80050000D02*
X15800000Y-74550000D01*
X23600000Y-74550000D02*
X15800000Y-74550000D01*
X23600000Y-80050000D02*
X15800000Y-80050000D01*
X23600000Y-80050000D02*
X23600000Y-74550000D01*
%TO.C,H1*%
X67450000Y-56000000D02*
G75*
G02*
X62550000Y-56000000I-2450000J0D01*
G01*
X62550000Y-56000000D02*
G75*
G02*
X67450000Y-56000000I2450000J0D01*
G01*
%TO.C,SW_PWR*%
X15600000Y-86050000D02*
X24400000Y-86050000D01*
X15600000Y-90600000D02*
X15600000Y-86050000D01*
X18350000Y-90600000D02*
X15600000Y-90600000D01*
X18350000Y-91900000D02*
X18350000Y-90600000D01*
X21650000Y-90600000D02*
X21650000Y-91900000D01*
X21650000Y-91900000D02*
X18350000Y-91900000D01*
X24400000Y-86050000D02*
X24400000Y-90600000D01*
X24400000Y-90600000D02*
X21650000Y-90600000D01*
%TO.C,SW_LEFT*%
X6800000Y-71050000D02*
X6800000Y-65550000D01*
X14600000Y-65550000D02*
X6800000Y-65550000D01*
X14600000Y-71050000D02*
X6800000Y-71050000D01*
X14600000Y-71050000D02*
X14600000Y-65550000D01*
%TO.C,SW_RESET*%
X52600000Y-83850000D02*
X52600000Y-78350000D01*
X60400000Y-78350000D02*
X52600000Y-78350000D01*
X60400000Y-83850000D02*
X52600000Y-83850000D01*
X60400000Y-83850000D02*
X60400000Y-78350000D01*
%TO.C,TP_SCL*%
X74250000Y-58500000D02*
G75*
G02*
X71750000Y-58500000I-1250000J0D01*
G01*
X71750000Y-58500000D02*
G75*
G02*
X74250000Y-58500000I1250000J0D01*
G01*
%TD*%
M02*
